{  "asset": {    "version": "2.0",    "generator": "THREE.GLTFExporter"  },  "scenes": [    {      "name": "AuxScene",      "nodes": [        1      ]    }  ],  "scene": 0,  "nodes": [    {      "matrix": [        1,        0,        0,        0,        0,        0.9999999999999989,        4.3711388286737916e-8,        0,        0,        -4.3711388286737916e-8,        0.9999999999999989,        0,        0,        0,        0,        1      ],      "name": "Bush_1",      "extras": {        "originalName": "Bush_1",        "transformData": {          "inheritType": 1,          "eulerOrder": "ZYX",          "rotation": [            0.0000025044780654876655,            0,            0          ],          "parentMatrix": {            "elements": [              1,              0,              0,              0,              0,              1,              0,              0,              0,              0,              1,              0,              0,              0,              0,              1            ]          },          "parentMatrixWorld": {            "elements": [              1,              0,              0,              0,              0,              1,              0,              0,              0,              0,              1,              0,              0,              0,              0,              1            ]          }        }      },      "mesh": 0    },    {      "children": [        0      ]    }  ],  "bufferViews": [    {      "buffer": 0,      "byteOffset": 0,      "byteLength": 10368,      "target": 34962,      "byteStride": 12    },    {      "buffer": 0,      "byteOffset": 10368,      "byteLength": 10368,      "target": 34962,      "byteStride": 12    },    {      "buffer": 0,      "byteOffset": 20736,      "byteLength": 6912,      "target": 34962,      "byteStride": 8    }  ],  "buffers": [    {      "byteLength": 27648,      "uri": "data:application/octet-stream;base64,"    }  ],  "accessors": [    {      "bufferView": 0,      "componentType": 5126,      "count": 864,      "max": [        86.82415008544922,        214.128662109375,        85.61141204833984      ],      "min": [        -105.90797424316406,        0,        -92.62889862060547      ],      "type": "VEC3"    },    {      "bufferView": 1,      "componentType": 5126,      "count": 864,      "max": [        0.9881524443626404,        0.9661915302276611,        0.9982150793075562      ],      "min": [        -0.988385796546936,        -0.9999992251396179,        -0.9980050325393677      ],      "type": "VEC3"    },    {      "bufferView": 2,      "componentType": 5126,      "count": 864,      "max": [        1,        1      ],      "min": [        0,        0      ],      "type": "VEC2"    }  ],  "materials": [    {      "pbrMetallicRoughness": {        "baseColorFactor": [          0.01458905986617595,          0.18542458854134958,          0.002888448813012922,          1        ],        "metallicFactor": 0.5,        "roughnessFactor": 0.5      },      "emissiveFactor": [        0.01458905986617595,        0.18542458854134958,        0.002888448813012922      ],      "name": "Green.1"    },    {      "pbrMetallicRoughness": {        "baseColorFactor": [          0.07112373484720866,          0.016953222240764745,          0.0026734444907894075,          1        ],        "metallicFactor": 0.5,        "roughnessFactor": 0.5      },      "emissiveFactor": [        0.07112373484720866,        0.016953222240764745,        0.0026734444907894075      ],      "name": "Brown.9"    }  ],  "meshes": [    {      "primitives": [        {          "mode": 4,          "attributes": {            "POSITION": 0,            "NORMAL": 1,            "TEXCOORD_0": 2          },          "material": 0        },        {          "mode": 4,          "attributes": {            "POSITION": 0,            "NORMAL": 1,            "TEXCOORD_0": 2          },          "material": 1        }      ]    }  ]}