{  "asset": {    "version": "2.0",    "generator": "THREE.GLTFExporter"  },  "scenes": [    {      "name": "AuxScene",      "nodes": [        1      ]    }  ],  "scene": 0,  "nodes": [    {      "matrix": [        1,        0,        0,        0,        0,        0.9999999999999989,        4.3711388286737916e-8,        0,        0,        -4.3711388286737916e-8,        0.9999999999999989,        0,        0,        0,        0,        1      ],      "name": "Bush_2",      "extras": {        "originalName": "Bush_2",        "transformData": {          "inheritType": 1,          "eulerOrder": "ZYX",          "rotation": [            0.0000025044780654876655,            0,            0          ],          "parentMatrix": {            "elements": [              1,              0,              0,              0,              0,              1,              0,              0,              0,              0,              1,              0,              0,              0,              0,              1            ]          },          "parentMatrixWorld": {            "elements": [              1,              0,              0,              0,              0,              1,              0,              0,              0,              0,              1,              0,              0,              0,              0,              1            ]          }        }      },      "mesh": 0    },    {      "children": [        0      ]    }  ],  "bufferViews": [    {      "buffer": 0,      "byteOffset": 0,      "byteLength": 12960,      "target": 34962,      "byteStride": 12    },    {      "buffer": 0,      "byteOffset": 12960,      "byteLength": 12960,      "target": 34962,      "byteStride": 12    },    {      "buffer": 0,      "byteOffset": 25920,      "byteLength": 8640,      "target": 34962,      "byteStride": 8    }  ],  "buffers": [    {      "byteLength": 34560,      "uri": "data:application/octet-stream;base64,"    }  ],  "accessors": [    {      "bufferView": 0,      "componentType": 5126,      "count": 1080,      "max": [        76.29232025146484,        247.5889892578125,        65.82022857666016      ],      "min": [        -78.56273651123047,        -6.796067237854004,        -85.33100128173828      ],      "type": "VEC3"    },    {      "bufferView": 1,      "componentType": 5126,      "count": 1080,      "max": [        0.9950147867202759,        0.9985857605934143,        0.9961643218994141      ],      "min": [        -0.9866871237754822,        -0.9981239438056946,        -0.9984643459320068      ],      "type": "VEC3"    },    {      "bufferView": 2,      "componentType": 5126,      "count": 1080,      "max": [        1,        1      ],      "min": [        0,        0      ],      "type": "VEC2"    }  ],  "materials": [    {      "pbrMetallicRoughness": {        "baseColorFactor": [          0.01458905986617595,          0.18542458854134958,          0.002888448813012922,          1        ],        "metallicFactor": 0.5,        "roughnessFactor": 0.5      },      "emissiveFactor": [        0.01458905986617595,        0.18542458854134958,        0.002888448813012922      ],      "name": "Green.1"    },    {      "pbrMetallicRoughness": {        "baseColorFactor": [          0.07112373484720866,          0.016953222240764745,          0.0026734444907894075,          1        ],        "metallicFactor": 0.5,        "roughnessFactor": 0.5      },      "emissiveFactor": [        0.07112373484720866,        0.016953222240764745,        0.0026734444907894075      ],      "name": "Brown.9"    }  ],  "meshes": [    {      "primitives": [        {          "mode": 4,          "attributes": {            "POSITION": 0,            "NORMAL": 1,            "TEXCOORD_0": 2          },          "material": 0        },        {          "mode": 4,          "attributes": {            "POSITION": 0,            "NORMAL": 1,            "TEXCOORD_0": 2          },          "material": 1        }      ]    }  ]}