{  "asset": {    "version": "2.0",    "generator": "THREE.GLTFExporter"  },  "scenes": [    {      "name": "AuxScene",      "nodes": [        1      ]    }  ],  "scene": 0,  "nodes": [    {      "matrix": [        1,        0,        0,        0,        0,        0.9999999999999989,        4.3711388286737916e-8,        0,        0,        -4.3711388286737916e-8,        0.9999999999999989,        0,        0,        0,        0,        1      ],      "name": "Environment_1",      "extras": {        "originalName": "Environment_1",        "transformData": {          "inheritType": 1,          "eulerOrder": "ZYX",          "rotation": [            0.0000025044780654876655,            0,            0          ],          "parentMatrix": {            "elements": [              1,              0,              0,              0,              0,              1,              0,              0,              0,              0,              1,              0,              0,              0,              0,              1            ]          },          "parentMatrixWorld": {            "elements": [              1,              0,              0,              0,              0,              1,              0,              0,              0,              0,              1,              0,              0,              0,              0,              1            ]          }        }      },      "mesh": 0    },    {      "children": [        0      ]    }  ],  "bufferViews": [    {      "buffer": 0,      "byteOffset": 0,      "byteLength": 235908,      "target": 34962,      "byteStride": 12    },    {      "buffer": 0,      "byteOffset": 235908,      "byteLength": 235908,      "target": 34962,      "byteStride": 12    },    {      "buffer": 0,      "byteOffset": 471816,      "byteLength": 157272,      "target": 34962,      "byteStride": 8    }  ],  "buffers": [    {      "byteLength": 629088,      "uri": "data:application/octet-stream;base64,"    }  ],  "accessors": [    {      "bufferView": 0,      "componentType": 5126,      "count": 19659,      "max": [        1099.4261474609375,        86.58827209472656,        1056.73291015625      ],      "min": [        -1042.8541259765625,        -87.05448150634766,        -1097.9815673828125      ],      "type": "VEC3"    },    {      "bufferView": 1,      "componentType": 5126,      "count": 19659,      "max": [        0.8732677102088928,        0.999998152256012,        0.72181236743927      ],      "min": [        -0.42849868535995483,        -0.910925567150116,        -0.6398283243179321      ],      "type": "VEC3"    },    {      "bufferView": 2,      "componentType": 5126,      "count": 19659,      "max": [        1,        0.9999999403953552      ],      "min": [        0,        0      ],      "type": "VEC2"    }  ],  "materials": [    {      "pbrMetallicRoughness": {        "baseColorFactor": [          0.602307714632885,          0.134258696860807,          0.012410918016578428,          1        ],        "metallicFactor": 0.5,        "roughnessFactor": 0.5      },      "emissiveFactor": [        0.602307714632885,        0.134258696860807,        0.012410918016578428      ],      "name": "Orange.3"    }  ],  "meshes": [    {      "primitives": [        {          "mode": 4,          "attributes": {            "POSITION": 0,            "NORMAL": 1,            "TEXCOORD_0": 2          },          "material": 0        }      ]    }  ]}