{  "asset": {    "version": "2.0",    "generator": "THREE.GLTFExporter"  },  "scenes": [    {      "name": "AuxScene",      "nodes": [        1      ]    }  ],  "scene": 0,  "nodes": [    {      "matrix": [        1,        0,        0,        0,        0,        0.999999999999997,        -7.549790126404325e-8,        0,        0,        7.549790126404325e-8,        0.999999999999997,        0,        0,        0,        0,        1      ],      "name": "Grass_2",      "extras": {        "originalName": "Grass_2",        "transformData": {          "inheritType": 1,          "eulerOrder": "ZYX",          "rotation": [            -0.0000043257111045250854,            0,            0          ],          "parentMatrix": {            "elements": [              1,              0,              0,              0,              0,              1,              0,              0,              0,              0,              1,              0,              0,              0,              0,              1            ]          },          "parentMatrixWorld": {            "elements": [              1,              0,              0,              0,              0,              1,              0,              0,              0,              0,              1,              0,              0,              0,              0,              1            ]          }        }      },      "mesh": 0    },    {      "children": [        0      ]    }  ],  "bufferViews": [    {      "buffer": 0,      "byteOffset": 0,      "byteLength": 8064,      "target": 34962,      "byteStride": 12    },    {      "buffer": 0,      "byteOffset": 8064,      "byteLength": 8064,      "target": 34962,      "byteStride": 12    },    {      "buffer": 0,      "byteOffset": 16128,      "byteLength": 5376,      "target": 34962,      "byteStride": 8    }  ],  "buffers": [    {      "byteLength": 21504,      "uri": "data:application/octet-stream;base64,"    }  ],  "accessors": [    {      "bufferView": 0,      "componentType": 5126,      "count": 672,      "max": [        10.773152351379395,        24.203386306762695,        14.599030494689941      ],      "min": [        -14.696309089660645,        -1.2550873756408691,        -16.343076705932617      ],      "type": "VEC3"    },    {      "bufferView": 1,      "componentType": 5126,      "count": 672,      "max": [        0.9995412826538086,        0.9856074452400208,        0.9941484928131104      ],      "min": [        -0.9995412826538086,        -0.9867430925369263,        -0.9940353035926819      ],      "type": "VEC3"    },    {      "bufferView": 2,      "componentType": 5126,      "count": 672,      "max": [        0.9999999403953552,        1      ],      "min": [        0,        0      ],      "type": "VEC2"    }  ],  "materials": [    {      "pbrMetallicRoughness": {        "baseColorFactor": [          0.06731813119916381,          0.6038274600801004,          0.01989224230472007,          1        ],        "metallicFactor": 0.5,        "roughnessFactor": 0.5      },      "emissiveFactor": [        0.06731813119916381,        0.6038274600801004,        0.01989224230472007      ],      "name": "Green.3"    }  ],  "meshes": [    {      "primitives": [        {          "mode": 4,          "attributes": {            "POSITION": 0,            "NORMAL": 1,            "TEXCOORD_0": 2          },          "material": 0        }      ]    }  ]}