{  "asset": {    "version": "2.0",    "generator": "THREE.GLTFExporter"  },  "scenes": [    {      "name": "AuxScene",      "nodes": [        1      ]    }  ],  "scene": 0,  "nodes": [    {      "matrix": [        3.4000000953674316,        0,        0,        0,        0,        3.400000095367422,        -2.5669289565624176e-7,        0,        0,        2.5669289565624176e-7,        3.400000095367422,        0,        0,        0,        0,        1      ],      "name": "Log_1",      "extras": {        "originalName": "Log_1",        "transformData": {          "inheritType": 1,          "eulerOrder": "ZYX",          "rotation": [            -0.000004325711511636084,            0,            0          ],          "scale": [            3.4000000953674316,            3.4000000953674316,            3.4000000953674316          ],          "parentMatrix": {            "elements": [              1,              0,              0,              0,              0,              1,              0,              0,              0,              0,              1,              0,              0,              0,              0,              1            ]          },          "parentMatrixWorld": {            "elements": [              1,              0,              0,              0,              0,              1,              0,              0,              0,              0,              1,              0,              0,              0,              0,              1            ]          }        }      },      "mesh": 0    },    {      "children": [        0      ]    }  ],  "bufferViews": [    {      "buffer": 0,      "byteOffset": 0,      "byteLength": 16704,      "target": 34962,      "byteStride": 12    },    {      "buffer": 0,      "byteOffset": 16704,      "byteLength": 16704,      "target": 34962,      "byteStride": 12    },    {      "buffer": 0,      "byteOffset": 33408,      "byteLength": 11136,      "target": 34962,      "byteStride": 8    }  ],  "buffers": [    {      "byteLength": 44544,      "uri": "data:application/octet-stream;base64,"    }  ],  "accessors": [    {      "bufferView": 0,      "componentType": 5126,      "count": 1392,      "max": [        11.209610939025879,        15.519636154174805,        71.12728881835938      ],      "min": [        -4.381433010101318,        -0.5856749415397644,        -63.798492431640625      ],      "type": "VEC3"    },    {      "bufferView": 1,      "componentType": 5126,      "count": 1392,      "max": [        0.9921991229057312,        0.991504430770874,        0.8520541787147522      ],      "min": [        -0.9952651262283325,        -0.9999815225601196,        -0.9634239077568054      ],      "type": "VEC3"    },    {      "bufferView": 2,      "componentType": 5126,      "count": 1392,      "max": [        1,        1      ],      "min": [        0,        0      ],      "type": "VEC2"    }  ],  "materials": [    {      "pbrMetallicRoughness": {        "baseColorFactor": [          0.021726841304228462,          0.0028552216455681326,          0.0005414404534033611,          1        ],        "metallicFactor": 0.5,        "roughnessFactor": 0.5      },      "emissiveFactor": [        0.021726841304228462,        0.0028552216455681326,        0.0005414404534033611      ],      "name": "Brown.5"    },    {      "pbrMetallicRoughness": {        "baseColorFactor": [          0.06418511215588031,          0.02757805391741963,          0.002385834923824391,          1        ],        "metallicFactor": 0.5,        "roughnessFactor": 0.5      },      "emissiveFactor": [        0.06418511215588031,        0.02757805391741963,        0.002385834923824391      ],      "name": "Brown.6"    }  ],  "meshes": [    {      "primitives": [        {          "mode": 4,          "attributes": {            "POSITION": 0,            "NORMAL": 1,            "TEXCOORD_0": 2          },          "material": 0        },        {          "mode": 4,          "attributes": {            "POSITION": 0,            "NORMAL": 1,            "TEXCOORD_0": 2          },          "material": 1        },        {          "mode": 4,          "attributes": {            "POSITION": 0,            "NORMAL": 1,            "TEXCOORD_0": 2          },          "material": 0        },        {          "mode": 4,          "attributes": {            "POSITION": 0,            "NORMAL": 1,            "TEXCOORD_0": 2          },          "material": 1        },        {          "mode": 4,          "attributes": {            "POSITION": 0,            "NORMAL": 1,            "TEXCOORD_0": 2          },          "material": 0        },        {          "mode": 4,          "attributes": {            "POSITION": 0,            "NORMAL": 1,            "TEXCOORD_0": 2          },          "material": 1        },        {          "mode": 4,          "attributes": {            "POSITION": 0,            "NORMAL": 1,            "TEXCOORD_0": 2          },          "material": 0        },        {          "mode": 4,          "attributes": {            "POSITION": 0,            "NORMAL": 1,            "TEXCOORD_0": 2          },          "material": 1        },        {          "mode": 4,          "attributes": {            "POSITION": 0,            "NORMAL": 1,            "TEXCOORD_0": 2          },          "material": 0        }      ]    }  ]}