{  "asset": {    "version": "2.0",    "generator": "THREE.GLTFExporter"  },  "scenes": [    {      "name": "AuxScene",      "nodes": [        1      ]    }  ],  "scene": 0,  "nodes": [    {      "matrix": [        5.900000095367432,        0,        0,        0,        0,        5.9000000953674245,        2.578972160214076e-7,        0,        0,        -2.578972160214076e-7,        5.9000000953674245,        0,        -1.920289397239685,        -1.7889035940170288,        0,        1      ],      "name": "Log_2",      "extras": {        "originalName": "Log_2",        "transformData": {          "inheritType": 1,          "eulerOrder": "ZYX",          "translation": [            -1.920289397239685,            -1.7889035940170288,            0          ],          "rotation": [            0.0000025044782690431654,            0,            0          ],          "scale": [            5.900000095367432,            5.900000095367432,            5.900000095367432          ],          "parentMatrix": {            "elements": [              1,              0,              0,              0,              0,              1,              0,              0,              0,              0,              1,              0,              0,              0,              0,              1            ]          },          "parentMatrixWorld": {            "elements": [              1,              0,              0,              0,              0,              1,              0,              0,              0,              0,              1,              0,              0,              0,              0,              1            ]          }        }      },      "mesh": 0    },    {      "children": [        0      ]    }  ],  "bufferViews": [    {      "buffer": 0,      "byteOffset": 0,      "byteLength": 16704,      "target": 34962,      "byteStride": 12    },    {      "buffer": 0,      "byteOffset": 16704,      "byteLength": 16704,      "target": 34962,      "byteStride": 12    },    {      "buffer": 0,      "byteOffset": 33408,      "byteLength": 11136,      "target": 34962,      "byteStride": 8    }  ],  "buffers": [    {      "byteLength": 44544,      "uri": "data:application/octet-stream;base64,"    }  ],  "accessors": [    {      "bufferView": 0,      "componentType": 5126,      "count": 1392,      "max": [        5.813055038452148,        12.395416259765625,        38.943607330322266      ],      "min": [        -9.288408279418945,        -0.4034298062324524,        -26.216529846191406      ],      "type": "VEC3"    },    {      "bufferView": 1,      "componentType": 5126,      "count": 1392,      "max": [        0.9954193830490112,        0.9996345639228821,        0.967607855796814      ],      "min": [        -0.9953235387802124,        -0.9989297986030579,        -0.9849547147750854      ],      "type": "VEC3"    },    {      "bufferView": 2,      "componentType": 5126,      "count": 1392,      "max": [        1,        1      ],      "min": [        0,        0      ],      "type": "VEC2"    }  ],  "materials": [    {      "pbrMetallicRoughness": {        "baseColorFactor": [          0.021726841304228462,          0.0028552216455681326,          0.0005414404534033611,          1        ],        "metallicFactor": 0.5,        "roughnessFactor": 0.5      },      "emissiveFactor": [        0.021726841304228462,        0.0028552216455681326,        0.0005414404534033611      ],      "name": "Brown.5"    },    {      "pbrMetallicRoughness": {        "baseColorFactor": [          0.2112018932250218,          0.08218908983998299,          0.003984647336596223,          1        ],        "metallicFactor": 0.5,        "roughnessFactor": 0.5      },      "emissiveFactor": [        0.2112018932250218,        0.08218908983998299,        0.003984647336596223      ],      "name": "Brown.6"    }  ],  "meshes": [    {      "primitives": [        {          "mode": 4,          "attributes": {            "POSITION": 0,            "NORMAL": 1,            "TEXCOORD_0": 2          },          "material": 0        },        {          "mode": 4,          "attributes": {            "POSITION": 0,            "NORMAL": 1,            "TEXCOORD_0": 2          },          "material": 1        },        {          "mode": 4,          "attributes": {            "POSITION": 0,            "NORMAL": 1,            "TEXCOORD_0": 2          },          "material": 0        },        {          "mode": 4,          "attributes": {            "POSITION": 0,            "NORMAL": 1,            "TEXCOORD_0": 2          },          "material": 1        },        {          "mode": 4,          "attributes": {            "POSITION": 0,            "NORMAL": 1,            "TEXCOORD_0": 2          },          "material": 0        },        {          "mode": 4,          "attributes": {            "POSITION": 0,            "NORMAL": 1,            "TEXCOORD_0": 2          },          "material": 1        },        {          "mode": 4,          "attributes": {            "POSITION": 0,            "NORMAL": 1,            "TEXCOORD_0": 2          },          "material": 0        }      ]    }  ]}