{  "asset": {    "version": "2.0",    "generator": "THREE.GLTFExporter"  },  "scenes": [    {      "name": "AuxScene",      "nodes": [        1      ]    }  ],  "scene": 0,  "nodes": [    {      "matrix": [        0.9999483823776245,        0,        0,        0,        0,        0.9999999999999989,        4.3711388286737916e-8,        0,        0,        -4.3711388286737916e-8,        0.9999999999999989,        0,        0,        0,        0,        1      ],      "name": "Log_3",      "extras": {        "originalName": "Log_3",        "transformData": {          "inheritType": 1,          "eulerOrder": "ZYX",          "rotation": [            0.0000025044780654876655,            0,            0          ],          "scale": [            0.9999483823776245,            1,            1          ],          "parentMatrix": {            "elements": [              1,              0,              0,              0,              0,              1,              0,              0,              0,              0,              1,              0,              0,              0,              0,              1            ]          },          "parentMatrixWorld": {            "elements": [              1,              0,              0,              0,              0,              1,              0,              0,              0,              0,              1,              0,              0,              0,              0,              1            ]          }        }      },      "mesh": 0    },    {      "children": [        0      ]    }  ],  "bufferViews": [    {      "buffer": 0,      "byteOffset": 0,      "byteLength": 10296,      "target": 34962,      "byteStride": 12    },    {      "buffer": 0,      "byteOffset": 10296,      "byteLength": 10296,      "target": 34962,      "byteStride": 12    },    {      "buffer": 0,      "byteOffset": 20592,      "byteLength": 6864,      "target": 34962,      "byteStride": 8    }  ],  "buffers": [    {      "byteLength": 27456,      "uri": "data:application/octet-stream;base64,"    }  ],  "accessors": [    {      "bufferView": 0,      "componentType": 5126,      "count": 858,      "max": [        102.7153549194336,        92.03973388671875,        126.15103149414062      ],      "min": [        -68.79349517822266,        -13.164527893066406,        -74.88832092285156      ],      "type": "VEC3"    },    {      "bufferView": 1,      "componentType": 5126,      "count": 858,      "max": [        0.9517760276794434,        0.9961950778961182,        0.9641748666763306      ],      "min": [        -0.9988304972648621,        -0.9999527335166931,        -0.9877832531929016      ],      "type": "VEC3"    },    {      "bufferView": 2,      "componentType": 5126,      "count": 858,      "max": [        1,        1      ],      "min": [        0,        0      ],      "type": "VEC2"    }  ],  "materials": [    {      "pbrMetallicRoughness": {        "baseColorFactor": [          0.02406491758503797,          0.005600889202563443,          0.0005804204840083793,          1        ],        "metallicFactor": 0.5,        "roughnessFactor": 0.5      },      "emissiveFactor": [        0.02406491758503797,        0.005600889202563443,        0.0005804204840083793      ],      "name": "Brown.4"    },    {      "pbrMetallicRoughness": {        "baseColorFactor": [          0.08035731471705407,          0.02406491758503797,          0.0022001577476390274,          1        ],        "metallicFactor": 0.5,        "roughnessFactor": 0.5      },      "emissiveFactor": [        0.08035731471705407,        0.02406491758503797,        0.0022001577476390274      ],      "name": "Brown.7"    }  ],  "meshes": [    {      "primitives": [        {          "mode": 4,          "attributes": {            "POSITION": 0,            "NORMAL": 1,            "TEXCOORD_0": 2          },          "material": 0        },        {          "mode": 4,          "attributes": {            "POSITION": 0,            "NORMAL": 1,            "TEXCOORD_0": 2          },          "material": 1        },        {          "mode": 4,          "attributes": {            "POSITION": 0,            "NORMAL": 1,            "TEXCOORD_0": 2          },          "material": 0        },        {          "mode": 4,          "attributes": {            "POSITION": 0,            "NORMAL": 1,            "TEXCOORD_0": 2          },          "material": 1        },        {          "mode": 4,          "attributes": {            "POSITION": 0,            "NORMAL": 1,            "TEXCOORD_0": 2          },          "material": 0        }      ]    }  ]}