{  "asset": {    "version": "2.0",    "generator": "THREE.GLTFExporter"  },  "scenes": [    {      "name": "AuxScene",      "nodes": [        1      ]    }  ],  "scene": 0,  "nodes": [    {      "matrix": [        0.9999967217445374,        0,        0,        0,        0,        0.9999999999999989,        4.3711388286737916e-8,        0,        0,        -4.3711388286737916e-8,        0.9999999999999989,        0,        0,        0,        0,        1      ],      "name": "Mounting_1",      "extras": {        "originalName": "Mounting_1",        "transformData": {          "inheritType": 1,          "eulerOrder": "ZYX",          "rotation": [            0.0000025044780654876655,            0,            0          ],          "scale": [            0.9999967217445374,            1,            1          ],          "parentMatrix": {            "elements": [              1,              0,              0,              0,              0,              1,              0,              0,              0,              0,              1,              0,              0,              0,              0,              1            ]          },          "parentMatrixWorld": {            "elements": [              1,              0,              0,              0,              0,              1,              0,              0,              0,              0,              1,              0,              0,              0,              0,              1            ]          }        }      },      "mesh": 0    },    {      "children": [        0      ]    }  ],  "bufferViews": [    {      "buffer": 0,      "byteOffset": 0,      "byteLength": 109368,      "target": 34962,      "byteStride": 12    },    {      "buffer": 0,      "byteOffset": 109368,      "byteLength": 109368,      "target": 34962,      "byteStride": 12    },    {      "buffer": 0,      "byteOffset": 218736,      "byteLength": 72912,      "target": 34962,      "byteStride": 8    }  ],  "buffers": [    {      "byteLength": 291648,      "uri": "data:application/octet-stream;base64,"    }  ],  "accessors": [    {      "bufferView": 0,      "componentType": 5126,      "count": 9114,      "max": [        778.6902465820312,        764.708251953125,        800.1209106445312      ],      "min": [        -793.1149291992188,        -15.724775314331055,        -875.314697265625      ],      "type": "VEC3"    },    {      "bufferView": 1,      "componentType": 5126,      "count": 9114,      "max": [        0.9505581259727478,        0.999998927116394,        0.9729947447776794      ],      "min": [        -0.9720625877380371,        -0.7717362642288208,        -0.9931501150131226      ],      "type": "VEC3"    },    {      "bufferView": 2,      "componentType": 5126,      "count": 9114,      "max": [        0.9999999403953552,        1      ],      "min": [        0,        0      ],      "type": "VEC2"    }  ],  "materials": [    {      "pbrMetallicRoughness": {        "baseColorFactor": [          0.6038274600801004,          0.13385023261046924,          0.012505395043075686,          1        ],        "metallicFactor": 0.5,        "roughnessFactor": 0.5      },      "emissiveFactor": [        0.6038274600801004,        0.13385023261046924,        0.012505395043075686      ],      "name": "Orange.3"    }  ],  "meshes": [    {      "primitives": [        {          "mode": 4,          "attributes": {            "POSITION": 0,            "NORMAL": 1,            "TEXCOORD_0": 2          },          "material": 0        }      ]    }  ]}