{
	"asset":{
		"generator":"Khronos glTF Blender I/O v4.1.63",
		"version":"2.0"
	},
	"extensionsUsed":[
		"KHR_materials_specular"
	],
	"scene":0,
	"scenes":[
		{
			"name":"Scene",
			"nodes":[
				0
			]
		}
	],
	"nodes":[
		{
			"mesh":0,
			"name":"Plant_2",
			"rotation":[
				0.7071068286895752,
				0,
				0,
				0.7071068286895752
			],
			"scale":[
				0.009999999776482582,
				0.009999999776482582,
				0.009999999776482582
			]
		}
	],
	"materials":[
		{
			"doubleSided":true,
			"extensions":{
				"KHR_materials_specular":{
					"specularFactor":0
				}
			},
			"name":"Green.001",
			"pbrMetallicRoughness":{
				"baseColorFactor":[
					0.12213879823684692,
					0.4178851246833801,
					0.0006070540403015912,
					1
				],
				"metallicFactor":0,
				"roughnessFactor":0.690034806728363
			}
		},
		{
			"doubleSided":true,
			"extensions":{
				"KHR_materials_specular":{
					"specularFactor":0
				}
			},
			"name":"Purple.002",
			"pbrMetallicRoughness":{
				"baseColorFactor":[
					0.7507423162460327,
					0.08409571647644043,
					1,
					1
				],
				"metallicFactor":0,
				"roughnessFactor":0.690034806728363
			}
		}
	],
	"meshes":[
		{
			"name":"Cube.001",
			"primitives":[
				{
					"attributes":{
						"POSITION":0,
						"NORMAL":1,
						"TEXCOORD_0":2
					},
					"indices":3,
					"material":0
				},
				{
					"attributes":{
						"POSITION":4,
						"NORMAL":5,
						"TEXCOORD_0":6
					},
					"indices":7,
					"material":1
				}
			]
		}
	],
	"accessors":[
		{
			"bufferView":0,
			"componentType":5126,
			"count":420,
			"max":[
				68.4000015258789,
				68.4000015258789,
				3.48397159576416
			],
			"min":[
				-68.4000015258789,
				-68.4000015258789,
				-44.542457580566406
			],
			"type":"VEC3"
		},
		{
			"bufferView":1,
			"componentType":5126,
			"count":420,
			"type":"VEC3"
		},
		{
			"bufferView":2,
			"componentType":5126,
			"count":420,
			"type":"VEC2"
		},
		{
			"bufferView":3,
			"componentType":5123,
			"count":636,
			"type":"SCALAR"
		},
		{
			"bufferView":4,
			"componentType":5126,
			"count":60,
			"max":[
				1.9826220273971558,
				0.009368713945150375,
				-44.857261657714844
			],
			"min":[
				-3.382158041000366,
				-5.094241142272949,
				-54.266029357910156
			],
			"type":"VEC3"
		},
		{
			"bufferView":5,
			"componentType":5126,
			"count":60,
			"type":"VEC3"
		},
		{
			"bufferView":6,
			"componentType":5126,
			"count":60,
			"type":"VEC2"
		},
		{
			"bufferView":7,
			"componentType":5123,
			"count":60,
			"type":"SCALAR"
		}
	],
	"bufferViews":[
		{
			"buffer":0,
			"byteLength":5040,
			"byteOffset":0,
			"target":34962
		},
		{
			"buffer":0,
			"byteLength":5040,
			"byteOffset":5040,
			"target":34962
		},
		{
			"buffer":0,
			"byteLength":3360,
			"byteOffset":10080,
			"target":34962
		},
		{
			"buffer":0,
			"byteLength":1272,
			"byteOffset":13440,
			"target":34963
		},
		{
			"buffer":0,
			"byteLength":720,
			"byteOffset":14712,
			"target":34962
		},
		{
			"buffer":0,
			"byteLength":720,
			"byteOffset":15432,
			"target":34962
		},
		{
			"buffer":0,
			"byteLength":480,
			"byteOffset":16152,
			"target":34962
		},
		{
			"buffer":0,
			"byteLength":120,
			"byteOffset":16632,
			"target":34963
		}
	],
	"buffers":[
		{
			"byteLength":16752,
			"uri":"plant_2.bin"
		}
	]
}
