{  "asset": {    "version": "2.0",    "generator": "THREE.GLTFExporter"  },  "scenes": [    {      "name": "AuxScene",      "nodes": [        1      ]    }  ],  "scene": 0,  "nodes": [    {      "matrix": [        1,        0,        0,        0,        0,        0.999999999999997,        -7.549790126404325e-8,        0,        0,        7.549790126404325e-8,        0.999999999999997,        0,        0,        0,        0,        1      ],      "name": "Plant_1",      "extras": {        "originalName": "Plant_1",        "transformData": {          "inheritType": 1,          "eulerOrder": "ZYX",          "rotation": [            -0.0000043257111045250854,            0,            0          ],          "parentMatrix": {            "elements": [              1,              0,              0,              0,              0,              1,              0,              0,              0,              0,              1,              0,              0,              0,              0,              1            ]          },          "parentMatrixWorld": {            "elements": [              1,              0,              0,              0,              0,              1,              0,              0,              0,              0,              1,              0,              0,              0,              0,              1            ]          }        }      },      "mesh": 0    },    {      "children": [        0      ]    }  ],  "bufferViews": [    {      "buffer": 0,      "byteOffset": 0,      "byteLength": 6336,      "target": 34962,      "byteStride": 12    },    {      "buffer": 0,      "byteOffset": 6336,      "byteLength": 6336,      "target": 34962,      "byteStride": 12    },    {      "buffer": 0,      "byteOffset": 12672,      "byteLength": 4224,      "target": 34962,      "byteStride": 8    }  ],  "buffers": [    {      "byteLength": 16896,      "uri": "data:application/octet-stream;base64,"    }  ],  "accessors": [    {      "bufferView": 0,      "componentType": 5126,      "count": 528,      "max": [        68.42266845703125,        16.084604263305664,        68.4031982421875      ],      "min": [        -68.42266845703125,        -3.362309694290161,        -68.4031982421875      ],      "type": "VEC3"    },    {      "bufferView": 1,      "componentType": 5126,      "count": 528,      "max": [        0.973806619644165,        0.9961178302764893,        0.9738067984580994      ],      "min": [        -0.973806619644165,        -0.9986526966094971,        -0.9738068580627441      ],      "type": "VEC3"    },    {      "bufferView": 2,      "componentType": 5126,      "count": 528,      "max": [        1,        1      ],      "min": [        0,        0      ],      "type": "VEC2"    }  ],  "materials": [    {      "pbrMetallicRoughness": {        "baseColorFactor": [          0.003642558591861676,          0.06717372234444896,          0.0006209901063637152,          1        ],        "metallicFactor": 0.5,        "roughnessFactor": 0.5      },      "emissiveFactor": [        0.003642558591861676,        0.06717372234444896,        0.0006209901063637152      ],      "name": "Green.4"    }  ],  "meshes": [    {      "primitives": [        {          "mode": 4,          "attributes": {            "POSITION": 0,            "NORMAL": 1,            "TEXCOORD_0": 2          },          "material": 0        }      ]    }  ]}