{  "asset": {    "version": "2.0",    "generator": "THREE.GLTFExporter"  },  "scenes": [    {      "name": "AuxScene",      "nodes": [        1      ]    }  ],  "scene": 0,  "nodes": [    {      "matrix": [        1,        0,        0,        0,        0,        0.999999999999997,        -7.549790126404325e-8,        0,        0,        7.549790126404325e-8,        0.999999999999997,        0,        0,        0,        0,        1      ],      "name": "Plant_6",      "extras": {        "originalName": "Plant_6",        "transformData": {          "inheritType": 1,          "eulerOrder": "ZYX",          "rotation": [            -0.0000043257111045250854,            0,            0          ],          "parentMatrix": {            "elements": [              1,              0,              0,              0,              0,              1,              0,              0,              0,              0,              1,              0,              0,              0,              0,              1            ]          },          "parentMatrixWorld": {            "elements": [              1,              0,              0,              0,              0,              1,              0,              0,              0,              0,              1,              0,              0,              0,              0,              1            ]          }        }      },      "mesh": 0    },    {      "children": [        0      ]    }  ],  "bufferViews": [    {      "buffer": 0,      "byteOffset": 0,      "byteLength": 5904,      "target": 34962,      "byteStride": 12    },    {      "buffer": 0,      "byteOffset": 5904,      "byteLength": 5904,      "target": 34962,      "byteStride": 12    },    {      "buffer": 0,      "byteOffset": 11808,      "byteLength": 3936,      "target": 34962,      "byteStride": 8    }  ],  "buffers": [    {      "byteLength": 15744,      "uri": "data:application/octet-stream;base64,"    }  ],  "accessors": [    {      "bufferView": 0,      "componentType": 5126,      "count": 492,      "max": [        42.017452239990234,        67.03482055664062,        42.0174560546875      ],      "min": [        -42.017452239990234,        -1.456067442893982,        -42.01744842529297      ],      "type": "VEC3"    },    {      "bufferView": 1,      "componentType": 5126,      "count": 492,      "max": [        0.9822461605072021,        0.8184283971786499,        0.9341716170310974      ],      "min": [        -0.9822461009025574,        -0.8184283971786499,        -0.9341714978218079      ],      "type": "VEC3"    },    {      "bufferView": 2,      "componentType": 5126,      "count": 492,      "max": [        1,        1      ],      "min": [        0,        0      ],      "type": "VEC2"    }  ],  "materials": [    {      "pbrMetallicRoughness": {        "baseColorFactor": [          0.6038274600801004,          0.021796203264543536,          0.13241597129505123,          1        ],        "metallicFactor": 0.5,        "roughnessFactor": 0.5      },      "emissiveFactor": [        0.6038274600801004,        0.021796203264543536,        0.13241597129505123      ],      "name": "Pink.1"    },    {      "pbrMetallicRoughness": {        "baseColorFactor": [          0.03943118049762885,          0.6038274600801004,          0.008996595997456851,          1        ],        "metallicFactor": 0.5,        "roughnessFactor": 0.5      },      "emissiveFactor": [        0.03943118049762885,        0.6038274600801004,        0.008996595997456851      ],      "name": "Green.8"    }  ],  "meshes": [    {      "primitives": [        {          "mode": 4,          "attributes": {            "POSITION": 0,            "NORMAL": 1,            "TEXCOORD_0": 2          },          "material": 0        },        {          "mode": 4,          "attributes": {            "POSITION": 0,            "NORMAL": 1,            "TEXCOORD_0": 2          },          "material": 1        }      ]    }  ]}