{  "asset": {    "version": "2.0",    "generator": "THREE.GLTFExporter"  },  "scenes": [    {      "name": "AuxScene",      "nodes": [        1      ]    }  ],  "scene": 0,  "nodes": [    {      "matrix": [        1,        0,        0,        0,        0,        0.999999999999997,        -7.549790126404325e-8,        0,        0,        7.549790126404325e-8,        0.999999999999997,        0,        0,        0,        0,        1      ],      "name": "Plant_7",      "extras": {        "originalName": "Plant_7",        "transformData": {          "inheritType": 1,          "eulerOrder": "ZYX",          "rotation": [            -0.0000043257111045250854,            0,            0          ],          "parentMatrix": {            "elements": [              1,              0,              0,              0,              0,              1,              0,              0,              0,              0,              1,              0,              0,              0,              0,              1            ]          },          "parentMatrixWorld": {            "elements": [              1,              0,              0,              0,              0,              1,              0,              0,              0,              0,              1,              0,              0,              0,              0,              1            ]          }        }      },      "mesh": 0    },    {      "children": [        0      ]    }  ],  "bufferViews": [    {      "buffer": 0,      "byteOffset": 0,      "byteLength": 7488,      "target": 34962,      "byteStride": 12    },    {      "buffer": 0,      "byteOffset": 7488,      "byteLength": 7488,      "target": 34962,      "byteStride": 12    },    {      "buffer": 0,      "byteOffset": 14976,      "byteLength": 4992,      "target": 34962,      "byteStride": 8    }  ],  "buffers": [    {      "byteLength": 19968,      "uri": "data:application/octet-stream;base64,"    }  ],  "accessors": [    {      "bufferView": 0,      "componentType": 5126,      "count": 624,      "max": [        59.845619201660156,        151.73202514648438,        59.84562301635742      ],      "min": [        -59.845619201660156,        -1.9045660495758057,        -59.84561538696289      ],      "type": "VEC3"    },    {      "bufferView": 1,      "componentType": 5126,      "count": 624,      "max": [        0.9624168276786804,        0.8187928199768066,        0.9624168276786804      ],      "min": [        -0.9624168276786804,        -0.8187928199768066,        -0.9624168276786804      ],      "type": "VEC3"    },    {      "bufferView": 2,      "componentType": 5126,      "count": 624,      "max": [        0.9999999403953552,        1      ],      "min": [        0,        0      ],      "type": "VEC2"    }  ],  "materials": [    {      "pbrMetallicRoughness": {        "baseColorFactor": [          0.044004397897839005,          0.1976937820329211,          0.004377854898050618,          1        ],        "metallicFactor": 0.5,        "roughnessFactor": 0.5      },      "emissiveFactor": [        0.044004397897839005,        0.1976937820329211,        0.004377854898050618      ],      "name": "Green.9"    }  ],  "meshes": [    {      "primitives": [        {          "mode": 4,          "attributes": {            "POSITION": 0,            "NORMAL": 1,            "TEXCOORD_0": 2          },          "material": 0        }      ]    }  ]}