{  "asset": {    "version": "2.0",    "generator": "THREE.GLTFExporter"  },  "scenes": [    {      "name": "AuxScene",      "nodes": [        1      ]    }  ],  "scene": 0,  "nodes": [    {      "matrix": [        1,        0,        0,        0,        0,        0.999999999999997,        -7.549790126404325e-8,        0,        0,        7.549790126404325e-8,        0.999999999999997,        0,        0,        0,        0,        1      ],      "name": "Plant_3",      "extras": {        "originalName": "Plant_3",        "transformData": {          "inheritType": 1,          "eulerOrder": "ZYX",          "rotation": [            -0.0000043257111045250854,            0,            0          ],          "parentMatrix": {            "elements": [              1,              0,              0,              0,              0,              1,              0,              0,              0,              0,              1,              0,              0,              0,              0,              1            ]          },          "parentMatrixWorld": {            "elements": [              1,              0,              0,              0,              0,              1,              0,              0,              0,              0,              1,              0,              0,              0,              0,              1            ]          }        }      },      "mesh": 0    },    {      "children": [        0      ]    }  ],  "bufferViews": [    {      "buffer": 0,      "byteOffset": 0,      "byteLength": 12672,      "target": 34962,      "byteStride": 12    },    {      "buffer": 0,      "byteOffset": 12672,      "byteLength": 12672,      "target": 34962,      "byteStride": 12    },    {      "buffer": 0,      "byteOffset": 25344,      "byteLength": 8448,      "target": 34962,      "byteStride": 8    }  ],  "buffers": [    {      "byteLength": 33792,      "uri": "data:application/octet-stream;base64,"    }  ],  "accessors": [    {      "bufferView": 0,      "componentType": 5126,      "count": 1056,      "max": [        68.40690612792969,        28.74888801574707,        68.38732147216797      ],      "min": [        -70.99310302734375,        -8.966740608215332,        -73.70783233642578      ],      "type": "VEC3"    },    {      "bufferView": 1,      "componentType": 5126,      "count": 1056,      "max": [        0.9991301894187927,        0.9995595216751099,        0.9995735287666321      ],      "min": [        -0.9991301894187927,        -0.9997336864471436,        -0.9976245164871216      ],      "type": "VEC3"    },    {      "bufferView": 2,      "componentType": 5126,      "count": 1056,      "max": [        1,        1      ],      "min": [        0,        0      ],      "type": "VEC2"    }  ],  "materials": [    {      "pbrMetallicRoughness": {        "baseColorFactor": [          0.017311385775008264,          0.13425203552055787,          0.0022450333673096627,          1        ],        "metallicFactor": 0.5,        "roughnessFactor": 0.5      },      "emissiveFactor": [        0.017311385775008264,        0.13425203552055787,        0.0022450333673096627      ],      "name": "Green.6"    }  ],  "meshes": [    {      "primitives": [        {          "mode": 4,          "attributes": {            "POSITION": 0,            "NORMAL": 1,            "TEXCOORD_0": 2          },          "material": 0        }      ]    }  ]}