{  "asset": {    "version": "2.0",    "generator": "THREE.GLTFExporter"  },  "scenes": [    {      "name": "AuxScene",      "nodes": [        1      ]    }  ],  "scene": 0,  "nodes": [    {      "matrix": [        1,        0,        0,        0,        0,        0.9999999999999989,        4.3711388286737916e-8,        0,        0,        -4.3711388286737916e-8,        0.9999999999999989,        0,        0,        0,        0,        1      ],      "name": "Plant_4",      "extras": {        "originalName": "Plant_4",        "transformData": {          "inheritType": 1,          "eulerOrder": "ZYX",          "rotation": [            0.0000025044780654876655,            0,            0          ],          "parentMatrix": {            "elements": [              1,              0,              0,              0,              0,              1,              0,              0,              0,              0,              1,              0,              0,              0,              0,              1            ]          },          "parentMatrixWorld": {            "elements": [              1,              0,              0,              0,              0,              1,              0,              0,              0,              0,              1,              0,              0,              0,              0,              1            ]          }        }      },      "mesh": 0    },    {      "children": [        0      ]    }  ],  "bufferViews": [    {      "buffer": 0,      "byteOffset": 0,      "byteLength": 3456,      "target": 34962,      "byteStride": 12    },    {      "buffer": 0,      "byteOffset": 3456,      "byteLength": 3456,      "target": 34962,      "byteStride": 12    },    {      "buffer": 0,      "byteOffset": 6912,      "byteLength": 2304,      "target": 34962,      "byteStride": 8    }  ],  "buffers": [    {      "byteLength": 9216,      "uri": "data:application/octet-stream;base64,"    }  ],  "accessors": [    {      "bufferView": 0,      "componentType": 5126,      "count": 288,      "max": [        117.14265441894531,        22.056936264038086,        116.90565490722656      ],      "min": [        -116.9056625366211,        -0.11750531196594238,        -116.90563201904297      ],      "type": "VEC3"    },    {      "bufferView": 1,      "componentType": 5126,      "count": 288,      "max": [        0.7153447866439819,        1,        0.6791974902153015      ],      "min": [        -0.6671460270881653,        0.6719678640365601,        -0.693081259727478      ],      "type": "VEC3"    },    {      "bufferView": 2,      "componentType": 5126,      "count": 288,      "max": [        1,        1      ],      "min": [        0,        0      ],      "type": "VEC2"    }  ],  "materials": [    {      "pbrMetallicRoughness": {        "baseColorFactor": [          0.6038274600801004,          0.5665231449091365,          0.002603350789480001,          1        ],        "metallicFactor": 0.5,        "roughnessFactor": 0.5      },      "emissiveFactor": [        0.6038274600801004,        0.5665231449091365,        0.002603350789480001      ],      "name": "Yellow.2"    }  ],  "meshes": [    {      "primitives": [        {          "mode": 4,          "attributes": {            "POSITION": 0,            "NORMAL": 1,            "TEXCOORD_0": 2          },          "material": 0        }      ]    }  ]}