{  "asset": {    "version": "2.0",    "generator": "THREE.GLTFExporter"  },  "scenes": [    {      "name": "AuxScene",      "nodes": [        1      ]    }  ],  "scene": 0,  "nodes": [    {      "matrix": [        1,        0,        0,        0,        0,        0.999999999999997,        -7.549790126404325e-8,        0,        0,        7.549790126404325e-8,        0.999999999999997,        0,        0,        0,        0,        1      ],      "name": "Plant_5",      "extras": {        "originalName": "Plant_5",        "transformData": {          "inheritType": 1,          "eulerOrder": "ZYX",          "rotation": [            -0.0000043257111045250854,            0,            0          ],          "parentMatrix": {            "elements": [              1,              0,              0,              0,              0,              1,              0,              0,              0,              0,              1,              0,              0,              0,              0,              1            ]          },          "parentMatrixWorld": {            "elements": [              1,              0,              0,              0,              0,              1,              0,              0,              0,              0,              1,              0,              0,              0,              0,              1            ]          }        }      },      "mesh": 0    },    {      "children": [        0      ]    }  ],  "bufferViews": [    {      "buffer": 0,      "byteOffset": 0,      "byteLength": 15840,      "target": 34962,      "byteStride": 12    },    {      "buffer": 0,      "byteOffset": 15840,      "byteLength": 15840,      "target": 34962,      "byteStride": 12    },    {      "buffer": 0,      "byteOffset": 31680,      "byteLength": 10560,      "target": 34962,      "byteStride": 8    }  ],  "buffers": [    {      "byteLength": 42240,      "uri": "data:application/octet-stream;base64,"    }  ],  "accessors": [    {      "bufferView": 0,      "componentType": 5126,      "count": 1320,      "max": [        53.89183044433594,        28.141387939453125,        52.93766784667969      ],      "min": [        -54.528167724609375,        -4.49998140335083,        -55.90044403076172      ],      "type": "VEC3"    },    {      "bufferView": 1,      "componentType": 5126,      "count": 1320,      "max": [        0.9993908405303955,        1,        1      ],      "min": [        -0.9993909001350403,        -1,        -1      ],      "type": "VEC3"    },    {      "bufferView": 2,      "componentType": 5126,      "count": 1320,      "max": [        1,        0.9999999403953552      ],      "min": [        0,        0      ],      "type": "VEC2"    }  ],  "materials": [    {      "pbrMetallicRoughness": {        "baseColorFactor": [          0.12407116059885454,          0.6038274600801004,          0.007122833348990939,          1        ],        "metallicFactor": 0.5,        "roughnessFactor": 0.5      },      "emissiveFactor": [        0.12407116059885454,        0.6038274600801004,        0.007122833348990939      ],      "name": "Green.7"    },    {      "pbrMetallicRoughness": {        "baseColorFactor": [          0.6038274600801004,          0.00921269489340857,          0.35153815342357886,          1        ],        "metallicFactor": 0.5,        "roughnessFactor": 0.5      },      "emissiveFactor": [        0.6038274600801004,        0.00921269489340857,        0.35153815342357886      ],      "name": "Purple.2"    }  ],  "meshes": [    {      "primitives": [        {          "mode": 4,          "attributes": {            "POSITION": 0,            "NORMAL": 1,            "TEXCOORD_0": 2          },          "material": 0        },        {          "mode": 4,          "attributes": {            "POSITION": 0,            "NORMAL": 1,            "TEXCOORD_0": 2          },          "material": 1        },        {          "mode": 4,          "attributes": {            "POSITION": 0,            "NORMAL": 1,            "TEXCOORD_0": 2          },          "material": 0        },        {          "mode": 4,          "attributes": {            "POSITION": 0,            "NORMAL": 1,            "TEXCOORD_0": 2          },          "material": 1        },        {          "mode": 4,          "attributes": {            "POSITION": 0,            "NORMAL": 1,            "TEXCOORD_0": 2          },          "material": 0        },        {          "mode": 4,          "attributes": {            "POSITION": 0,            "NORMAL": 1,            "TEXCOORD_0": 2          },          "material": 1        },        {          "mode": 4,          "attributes": {            "POSITION": 0,            "NORMAL": 1,            "TEXCOORD_0": 2          },          "material": 0        },        {          "mode": 4,          "attributes": {            "POSITION": 0,            "NORMAL": 1,            "TEXCOORD_0": 2          },          "material": 1        },        {          "mode": 4,          "attributes": {            "POSITION": 0,            "NORMAL": 1,            "TEXCOORD_0": 2          },          "material": 0        },        {          "mode": 4,          "attributes": {            "POSITION": 0,            "NORMAL": 1,            "TEXCOORD_0": 2          },          "material": 1        },        {          "mode": 4,          "attributes": {            "POSITION": 0,            "NORMAL": 1,            "TEXCOORD_0": 2          },          "material": 0        },        {          "mode": 4,          "attributes": {            "POSITION": 0,            "NORMAL": 1,            "TEXCOORD_0": 2          },          "material": 1        },        {          "mode": 4,          "attributes": {            "POSITION": 0,            "NORMAL": 1,            "TEXCOORD_0": 2          },          "material": 0        },        {          "mode": 4,          "attributes": {            "POSITION": 0,            "NORMAL": 1,            "TEXCOORD_0": 2          },          "material": 1        },        {          "mode": 4,          "attributes": {            "POSITION": 0,            "NORMAL": 1,            "TEXCOORD_0": 2          },          "material": 0        },        {          "mode": 4,          "attributes": {            "POSITION": 0,            "NORMAL": 1,            "TEXCOORD_0": 2          },          "material": 1        },        {          "mode": 4,          "attributes": {            "POSITION": 0,            "NORMAL": 1,            "TEXCOORD_0": 2          },          "material": 0        },        {          "mode": 4,          "attributes": {            "POSITION": 0,            "NORMAL": 1,            "TEXCOORD_0": 2          },          "material": 1        },        {          "mode": 4,          "attributes": {            "POSITION": 0,            "NORMAL": 1,            "TEXCOORD_0": 2          },          "material": 0        },        {          "mode": 4,          "attributes": {            "POSITION": 0,            "NORMAL": 1,            "TEXCOORD_0": 2          },          "material": 1        },        {          "mode": 4,          "attributes": {            "POSITION": 0,            "NORMAL": 1,            "TEXCOORD_0": 2          },          "material": 0        },        {          "mode": 4,          "attributes": {            "POSITION": 0,            "NORMAL": 1,            "TEXCOORD_0": 2          },          "material": 1        },        {          "mode": 4,          "attributes": {            "POSITION": 0,            "NORMAL": 1,            "TEXCOORD_0": 2          },          "material": 0        },        {          "mode": 4,          "attributes": {            "POSITION": 0,            "NORMAL": 1,            "TEXCOORD_0": 2          },          "material": 1        },        {          "mode": 4,          "attributes": {            "POSITION": 0,            "NORMAL": 1,            "TEXCOORD_0": 2          },          "material": 0        },        {          "mode": 4,          "attributes": {            "POSITION": 0,            "NORMAL": 1,            "TEXCOORD_0": 2          },          "material": 1        },        {          "mode": 4,          "attributes": {            "POSITION": 0,            "NORMAL": 1,            "TEXCOORD_0": 2          },          "material": 0        },        {          "mode": 4,          "attributes": {            "POSITION": 0,            "NORMAL": 1,            "TEXCOORD_0": 2          },          "material": 1        },        {          "mode": 4,          "attributes": {            "POSITION": 0,            "NORMAL": 1,            "TEXCOORD_0": 2          },          "material": 0        },        {          "mode": 4,          "attributes": {            "POSITION": 0,            "NORMAL": 1,            "TEXCOORD_0": 2          },          "material": 1        },        {          "mode": 4,          "attributes": {            "POSITION": 0,            "NORMAL": 1,            "TEXCOORD_0": 2          },          "material": 0        },        {          "mode": 4,          "attributes": {            "POSITION": 0,            "NORMAL": 1,            "TEXCOORD_0": 2          },          "material": 1        },        {          "mode": 4,          "attributes": {            "POSITION": 0,            "NORMAL": 1,            "TEXCOORD_0": 2          },          "material": 0        },        {          "mode": 4,          "attributes": {            "POSITION": 0,            "NORMAL": 1,            "TEXCOORD_0": 2          },          "material": 1        },        {          "mode": 4,          "attributes": {            "POSITION": 0,            "NORMAL": 1,            "TEXCOORD_0": 2          },          "material": 0        },        {          "mode": 4,          "attributes": {            "POSITION": 0,            "NORMAL": 1,            "TEXCOORD_0": 2          },          "material": 1        },        {          "mode": 4,          "attributes": {            "POSITION": 0,            "NORMAL": 1,            "TEXCOORD_0": 2          },          "material": 0        },        {          "mode": 4,          "attributes": {            "POSITION": 0,            "NORMAL": 1,            "TEXCOORD_0": 2          },          "material": 1        },        {          "mode": 4,          "attributes": {            "POSITION": 0,            "NORMAL": 1,            "TEXCOORD_0": 2          },          "material": 0        },        {          "mode": 4,          "attributes": {            "POSITION": 0,            "NORMAL": 1,            "TEXCOORD_0": 2          },          "material": 1        },        {          "mode": 4,          "attributes": {            "POSITION": 0,            "NORMAL": 1,            "TEXCOORD_0": 2          },          "material": 0        },        {          "mode": 4,          "attributes": {            "POSITION": 0,            "NORMAL": 1,            "TEXCOORD_0": 2          },          "material": 1        },        {          "mode": 4,          "attributes": {            "POSITION": 0,            "NORMAL": 1,            "TEXCOORD_0": 2          },          "material": 0        },        {          "mode": 4,          "attributes": {            "POSITION": 0,            "NORMAL": 1,            "TEXCOORD_0": 2          },          "material": 1        }      ]    }  ]}