{  "asset": {    "version": "2.0",    "generator": "THREE.GLTFExporter"  },  "scenes": [    {      "name": "AuxScene",      "nodes": [        1      ]    }  ],  "scene": 0,  "nodes": [    {      "matrix": [        1,        0,        0,        0,        0,        0.999999999999997,        -7.549790126404325e-8,        0,        0,        7.549790126404325e-8,        0.999999999999997,        0,        0,        0,        0,        1      ],      "name": "Rock_5",      "extras": {        "originalName": "Rock_5",        "transformData": {          "inheritType": 1,          "eulerOrder": "ZYX",          "rotation": [            -0.0000043257111045250854,            0,            0          ],          "parentMatrix": {            "elements": [              1,              0,              0,              0,              0,              1,              0,              0,              0,              0,              1,              0,              0,              0,              0,              1            ]          },          "parentMatrixWorld": {            "elements": [              1,              0,              0,              0,              0,              1,              0,              0,              0,              0,              1,              0,              0,              0,              0,              1            ]          }        }      },      "mesh": 0    },    {      "children": [        0      ]    }  ],  "bufferViews": [    {      "buffer": 0,      "byteOffset": 0,      "byteLength": 4032,      "target": 34962,      "byteStride": 12    },    {      "buffer": 0,      "byteOffset": 4032,      "byteLength": 4032,      "target": 34962,      "byteStride": 12    },    {      "buffer": 0,      "byteOffset": 8064,      "byteLength": 2688,      "target": 34962,      "byteStride": 8    }  ],  "buffers": [    {      "byteLength": 10752,      "uri": "data:application/octet-stream;base64,"    }  ],  "accessors": [    {      "bufferView": 0,      "componentType": 5126,      "count": 336,      "max": [        125.57222747802734,        63.25611877441406,        122.67121124267578      ],      "min": [        -158.2880859375,        -53.60118865966797,        -92.01409149169922      ],      "type": "VEC3"    },    {      "bufferView": 1,      "componentType": 5126,      "count": 336,      "max": [        0.9188968539237976,        0.9990466833114624,        0.9558597207069397      ],      "min": [        -0.9864986538887024,        -0.9972104430198669,        -0.9636251330375671      ],      "type": "VEC3"    },    {      "bufferView": 2,      "componentType": 5126,      "count": 336,      "max": [        0.9999999403953552,        1      ],      "min": [        0,        0      ],      "type": "VEC2"    }  ],  "materials": [    {      "pbrMetallicRoughness": {        "baseColorFactor": [          0.09032151060145854,          0.09600528049656694,          0.09600528049656694,          1        ],        "metallicFactor": 0.5,        "roughnessFactor": 0.5      },      "emissiveFactor": [        0.09032151060145854,        0.09600528049656694,        0.09600528049656694      ],      "name": "Gray.1"    }  ],  "meshes": [    {      "primitives": [        {          "mode": 4,          "attributes": {            "POSITION": 0,            "NORMAL": 1,            "TEXCOORD_0": 2          },          "material": 0        }      ]    }  ]}