{  "asset": {    "version": "2.0",    "generator": "THREE.GLTFExporter"  },  "scenes": [    {      "name": "AuxScene",      "nodes": [        1      ]    }  ],  "scene": 0,  "nodes": [    {      "matrix": [        1,        0,        0,        0,        0,        0.999999999999997,        -7.549790126404325e-8,        0,        0,        7.549790126404325e-8,        0.999999999999997,        0,        1,        0,        -1,        1      ],      "name": "Rock_4",      "extras": {        "originalName": "Rock_4",        "transformData": {          "inheritType": 1,          "eulerOrder": "ZYX",          "translation": [            1,            0,            -1          ],          "rotation": [            -0.0000043257111045250854,            0,            0          ],          "parentMatrix": {            "elements": [              1,              0,              0,              0,              0,              1,              0,              0,              0,              0,              1,              0,              0,              0,              0,              1            ]          },          "parentMatrixWorld": {            "elements": [              1,              0,              0,              0,              0,              1,              0,              0,              0,              0,              1,              0,              0,              0,              0,              1            ]          }        }      },      "mesh": 0    },    {      "children": [        0      ]    }  ],  "bufferViews": [    {      "buffer": 0,      "byteOffset": 0,      "byteLength": 4752,      "target": 34962,      "byteStride": 12    },    {      "buffer": 0,      "byteOffset": 4752,      "byteLength": 4752,      "target": 34962,      "byteStride": 12    },    {      "buffer": 0,      "byteOffset": 9504,      "byteLength": 3168,      "target": 34962,      "byteStride": 8    }  ],  "buffers": [    {      "byteLength": 12672,      "uri": "data:application/octet-stream;base64,"    }  ],  "accessors": [    {      "bufferView": 0,      "componentType": 5126,      "count": 396,      "max": [        113.7643814086914,        87.84761810302734,        88.89148712158203      ],      "min": [        -90.67803955078125,        -42.844669342041016,        -110.56074523925781      ],      "type": "VEC3"    },    {      "bufferView": 1,      "componentType": 5126,      "count": 396,      "max": [        0.9960141777992249,        0.9985420107841492,        0.9950396418571472      ],      "min": [        -0.9558797478675842,        -0.9997921586036682,        -0.9989265203475952      ],      "type": "VEC3"    },    {      "bufferView": 2,      "componentType": 5126,      "count": 396,      "max": [        0.9999999403953552,        1      ],      "min": [        0,        0      ],      "type": "VEC2"    }  ],  "materials": [    {      "pbrMetallicRoughness": {        "baseColorFactor": [          0.2405984683357465,          0.2405984683357465,          0.2405984683357465,          1        ],        "metallicFactor": 0.5,        "roughnessFactor": 0.5      },      "emissiveFactor": [        0.2405984683357465,        0.2405984683357465,        0.2405984683357465      ],      "name": "Gray.4"    }  ],  "meshes": [    {      "primitives": [        {          "mode": 4,          "attributes": {            "POSITION": 0,            "NORMAL": 1,            "TEXCOORD_0": 2          },          "material": 0        }      ]    }  ]}