{  "asset": {    "version": "2.0",    "generator": "THREE.GLTFExporter"  },  "scenes": [    {      "name": "AuxScene",      "nodes": [        8      ]    }  ],  "scene": 0,  "nodes": [    {      "matrix": [        0.9999701976776123,        0,        0,        0,        0,        0.999999999999997,        -7.54978941586159e-8,        0,        0,        7.54978941586159e-8,        0.999999999999997,        0,        0,        -0.0000476837158203125,        0.0000476837158203125,        1      ],      "name": "Tree_3",      "extras": {        "originalName": "Tree_3",        "transformData": {          "inheritType": 1,          "eulerOrder": "ZYX",          "translation": [            0,            -0.0000476837158203125,            0.0000476837158203125          ],          "rotation": [            -0.000004325710697414086,            0,            0          ],          "scale": [            0.9999701976776123,            1,            1          ],          "parentMatrix": {            "elements": [              1,              0,              0,              0,              0,              1,              0,              0,              0,              0,              1,              0,              0,              0,              0,              1            ]          },          "parentMatrixWorld": {            "elements": [              1,              0,              0,              0,              0,              1,              0,              0,              0,              0,              1,              0,              0,              0,              0,              1            ]          }        }      },      "mesh": 0    },    {      "matrix": [        1.0000195503234863,        0,        0,        0,        0,        1,        3.552713692035391e-15,        0,        0,        -3.552713692035391e-15,        1,        0,        -111.1446533203125,        730.0020141601565,        92.08646392822266,        1      ],      "name": "Leaves_2",      "extras": {        "originalName": "Leaves_2",        "transformData": {          "inheritType": 1,          "eulerOrder": "ZYX",          "translation": [            -111.1446533203125,            730.0020141601562,            92.08646392822266          ],          "rotation": [            2.0355549961366507e-13,            0,            0          ],          "scale": [            1.0000195503234863,            1,            1          ],          "parentMatrix": {            "elements": [              1,              0,              0,              0,              0,              0.999999999999997,              -7.54978941586159e-8,              0,              0,              7.54978941586159e-8,              0.999999999999997,              0,              0,              -0.0000476837158203125,              0.0000476837158203125,              1            ]          },          "parentMatrixWorld": {            "elements": [              1,              0,              0,              0,              0,              0.999999999999997,              -7.54978941586159e-8,              0,              0,              7.54978941586159e-8,              0.999999999999997,              0,              0,              -0.0000476837158203125,              0.0000476837158203125,              1            ]          }        }      },      "mesh": 1    },    {      "matrix": [        0.9999076724052429,        0,        0,        0,        0,        1,        3.552713692035391e-15,        0,        0,        -3.552713692035391e-15,        1,        0,        186.62762451171875,        585.7775878906252,        -38.32984161376953,        1      ],      "name": "Leaves_3",      "extras": {        "originalName": "Leaves_3",        "transformData": {          "inheritType": 1,          "eulerOrder": "ZYX",          "translation": [            186.62762451171875,            585.777587890625,            -38.32984161376953          ],          "rotation": [            2.0355549961366507e-13,            0,            0          ],          "scale": [            0.9999076724052429,            1,            1          ],          "parentMatrix": {            "elements": [              1,              0,              0,              0,              0,              0.999999999999997,              -7.54978941586159e-8,              0,              0,              7.54978941586159e-8,              0.999999999999997,              0,              0,              -0.0000476837158203125,              0.0000476837158203125,              1            ]          },          "parentMatrixWorld": {            "elements": [              1,              0,              0,              0,              0,              0.999999999999997,              -7.54978941586159e-8,              0,              0,              7.54978941586159e-8,              0.999999999999997,              0,              0,              -0.0000476837158203125,              0.0000476837158203125,              1            ]          }        }      },      "mesh": 2    },    {      "matrix": [        1.0001596212387085,        0,        0,        0,        0,        1,        3.552713692035391e-15,        0,        0,        -3.552713692035391e-15,        1,        0,        91.85163879394531,        718.4931030273439,        -455.16595458984386,        1      ],      "name": "Leaves_6",      "extras": {        "originalName": "Leaves_6",        "transformData": {          "inheritType": 1,          "eulerOrder": "ZYX",          "translation": [            91.85163879394531,            718.4931030273438,            -455.16595458984375          ],          "rotation": [            2.0355549961366507e-13,            0,            0          ],          "scale": [            1.0001596212387085,            1,            1          ],          "parentMatrix": {            "elements": [              1,              0,              0,              0,              0,              0.999999999999997,              -7.54978941586159e-8,              0,              0,              7.54978941586159e-8,              0.999999999999997,              0,              0,              -0.0000476837158203125,              0.0000476837158203125,              1            ]          },          "parentMatrixWorld": {            "elements": [              1,              0,              0,              0,              0,              0.999999999999997,              -7.54978941586159e-8,              0,              0,              7.54978941586159e-8,              0.999999999999997,              0,              0,              -0.0000476837158203125,              0.0000476837158203125,              1            ]          }        }      },      "mesh": 3    },    {      "matrix": [        1.000112533569336,        0,        0,        0,        0,        1,        3.552713692035391e-15,        0,        0,        -3.552713692035391e-15,        1,        0,        34.017242431640625,        991.5953369140627,        -271.74850463867193,        1      ],      "name": "Leaves_4",      "extras": {        "originalName": "Leaves_4",        "transformData": {          "inheritType": 1,          "eulerOrder": "ZYX",          "translation": [            34.017242431640625,            991.5953369140625,            -271.7485046386719          ],          "rotation": [            2.0355549961366507e-13,            0,            0          ],          "scale": [            1.000112533569336,            1,            1          ],          "parentMatrix": {            "elements": [              1,              0,              0,              0,              0,              0.999999999999997,              -7.54978941586159e-8,              0,              0,              7.54978941586159e-8,              0.999999999999997,              0,              0,              -0.0000476837158203125,              0.0000476837158203125,              1            ]          },          "parentMatrixWorld": {            "elements": [              1,              0,              0,              0,              0,              0.999999999999997,              -7.54978941586159e-8,              0,              0,              7.54978941586159e-8,              0.999999999999997,              0,              0,              -0.0000476837158203125,              0.0000476837158203125,              1            ]          }        }      },      "mesh": 4    },    {      "matrix": [        0.999872088432312,        0,        0,        0,        0,        1,        3.552713692035391e-15,        0,        0,        -3.552713692035391e-15,        1,        0,        -18.776947021484375,        803.5076904296877,        -22.473585128784187,        1      ],      "name": "Leaves_5",      "extras": {        "originalName": "Leaves_5",        "transformData": {          "inheritType": 1,          "eulerOrder": "ZYX",          "translation": [            -18.776947021484375,            803.5076904296875,            -22.47358512878418          ],          "rotation": [            2.0355549961366507e-13,            0,            0          ],          "scale": [            0.999872088432312,            1,            1          ],          "parentMatrix": {            "elements": [              1,              0,              0,              0,              0,              0.999999999999997,              -7.54978941586159e-8,              0,              0,              7.54978941586159e-8,              0.999999999999997,              0,              0,              -0.0000476837158203125,              0.0000476837158203125,              1            ]          },          "parentMatrixWorld": {            "elements": [              1,              0,              0,              0,              0,              0.999999999999997,              -7.54978941586159e-8,              0,              0,              7.54978941586159e-8,              0.999999999999997,              0,              0,              -0.0000476837158203125,              0.0000476837158203125,              1            ]          }        }      },      "mesh": 5    },    {      "matrix": [        1,        0,        0,        0,        0,        1,        3.552713692035391e-15,        0,        0,        -3.552713692035391e-15,        1,        0,        -299.01947021484375,        712.9613647460939,        158.58728027343756,        1      ],      "name": "Leaves_1",      "extras": {        "originalName": "Leaves_1",        "transformData": {          "inheritType": 1,          "eulerOrder": "ZYX",          "translation": [            -299.01947021484375,            712.9613647460938,            158.5872802734375          ],          "rotation": [            2.0355549961366507e-13,            0,            0          ],          "parentMatrix": {            "elements": [              1,              0,              0,              0,              0,              0.999999999999997,              -7.54978941586159e-8,              0,              0,              7.54978941586159e-8,              0.999999999999997,              0,              0,              -0.0000476837158203125,              0.0000476837158203125,              1            ]          },          "parentMatrixWorld": {            "elements": [              1,              0,              0,              0,              0,              0.999999999999997,              -7.54978941586159e-8,              0,              0,              7.54978941586159e-8,              0.999999999999997,              0,              0,              -0.0000476837158203125,              0.0000476837158203125,              1            ]          }        }      },      "mesh": 6    },    {      "matrix": [        1,        0,        0,        0,        0,        0.999999999999997,        -7.54978941586159e-8,        0,        0,        7.54978941586159e-8,        0.999999999999997,        0,        0,        -0.0000476837158203125,        0.0000476837158203125,        1      ],      "name": "Leaves",      "extras": {        "originalName": "Leaves",        "transformData": {          "inheritType": 1,          "eulerOrder": "ZYX",          "translation": [            0,            -0.0000476837158203125,            0.0000476837158203125          ],          "rotation": [            -0.000004325710697414086,            0,            0          ],          "parentMatrix": {            "elements": [              1,              0,              0,              0,              0,              1,              0,              0,              0,              0,              1,              0,              0,              0,              0,              1            ]          },          "parentMatrixWorld": {            "elements": [              1,              0,              0,              0,              0,              1,              0,              0,              0,              0,              1,              0,              0,              0,              0,              1            ]          }        }      },      "children": [        1,        2,        3,        4,        5,        6      ]    },    {      "children": [        0,        7      ]    }  ],  "bufferViews": [    {      "buffer": 0,      "byteOffset": 0,      "byteLength": 40176,      "target": 34962,      "byteStride": 12    },    {      "buffer": 0,      "byteOffset": 40176,      "byteLength": 40176,      "target": 34962,      "byteStride": 12    },    {      "buffer": 0,      "byteOffset": 80352,      "byteLength": 26784,      "target": 34962,      "byteStride": 8    },    {      "buffer": 0,      "byteOffset": 107136,      "byteLength": 2880,      "target": 34962,      "byteStride": 12    },    {      "buffer": 0,      "byteOffset": 110016,      "byteLength": 2880,      "target": 34962,      "byteStride": 12    },    {      "buffer": 0,      "byteOffset": 112896,      "byteLength": 1920,      "target": 34962,      "byteStride": 8    },    {      "buffer": 0,      "byteOffset": 114816,      "byteLength": 2880,      "target": 34962,      "byteStride": 12    },    {      "buffer": 0,      "byteOffset": 117696,      "byteLength": 2880,      "target": 34962,      "byteStride": 12    },    {      "buffer": 0,      "byteOffset": 120576,      "byteLength": 1920,      "target": 34962,      "byteStride": 8    },    {      "buffer": 0,      "byteOffset": 122496,      "byteLength": 2880,      "target": 34962,      "byteStride": 12    },    {      "buffer": 0,      "byteOffset": 125376,      "byteLength": 2880,      "target": 34962,      "byteStride": 12    },    {      "buffer": 0,      "byteOffset": 128256,      "byteLength": 1920,      "target": 34962,      "byteStride": 8    },    {      "buffer": 0,      "byteOffset": 130176,      "byteLength": 2880,      "target": 34962,      "byteStride": 12    },    {      "buffer": 0,      "byteOffset": 133056,      "byteLength": 2880,      "target": 34962,      "byteStride": 12    },    {      "buffer": 0,      "byteOffset": 135936,      "byteLength": 1920,      "target": 34962,      "byteStride": 8    },    {      "buffer": 0,      "byteOffset": 137856,      "byteLength": 2880,      "target": 34962,      "byteStride": 12    },    {      "buffer": 0,      "byteOffset": 140736,      "byteLength": 2880,      "target": 34962,      "byteStride": 12    },    {      "buffer": 0,      "byteOffset": 143616,      "byteLength": 1920,      "target": 34962,      "byteStride": 8    },    {      "buffer": 0,      "byteOffset": 145536,      "byteLength": 2880,      "target": 34962,      "byteStride": 12    },    {      "buffer": 0,      "byteOffset": 148416,      "byteLength": 2880,      "target": 34962,      "byteStride": 12    },    {      "buffer": 0,      "byteOffset": 151296,      "byteLength": 1920,      "target": 34962,      "byteStride": 8    }  ],  "buffers": [    {      "byteLength": 153216,      "uri": "data:application/octet-stream;base64,"    }  ],  "accessors": [    {      "bufferView": 0,      "componentType": 5126,      "count": 3348,      "max": [        236.32684326171875,        1029.9776611328125,        143.2350311279297      ],      "min": [        -313.98956298828125,        -12.084026336669922,        -488.8760986328125      ],      "type": "VEC3"    },    {      "bufferView": 1,      "componentType": 5126,      "count": 3348,      "max": [        0.9986563324928284,        0.9400320053100586,        0.9971161484718323      ],      "min": [        -0.998974084854126,        -0.9998647570610046,        -0.9990666508674622      ],      "type": "VEC3"    },    {      "bufferView": 2,      "componentType": 5126,      "count": 3348,      "max": [        0.9999999403953552,        1      ],      "min": [        0,        0      ],      "type": "VEC2"    },    {      "bufferView": 3,      "componentType": 5126,      "count": 240,      "max": [        124.1729507446289,        134.40773010253906,        136.26515197753906      ],      "min": [        -131.32203674316406,        -158.5655975341797,        -141.14459228515625      ],      "type": "VEC3"    },    {      "bufferView": 4,      "componentType": 5126,      "count": 240,      "max": [        0.9934765696525574,        0.9738118648529053,        0.9473444223403931      ],      "min": [        -0.9915130734443665,        -0.9724194407463074,        -0.9812862277030945      ],      "type": "VEC3"    },    {      "bufferView": 5,      "componentType": 5126,      "count": 240,      "max": [        1,        1      ],      "min": [        0,        0      ],      "type": "VEC2"    },    {      "bufferView": 6,      "componentType": 5126,      "count": 240,      "max": [        124.85772705078125,        141.71092224121094,        166.61671447753906      ],      "min": [        -178.47027587890625,        -241.22532653808594,        -188.8851318359375      ],      "type": "VEC3"    },    {      "bufferView": 7,      "componentType": 5126,      "count": 240,      "max": [        0.9703541994094849,        0.9915146827697754,        0.9854609966278076      ],      "min": [        -0.993064820766449,        -0.9647729396820068,        -0.9537162184715271      ],      "type": "VEC3"    },    {      "bufferView": 8,      "componentType": 5126,      "count": 240,      "max": [        1,        1      ],      "min": [        0,        0      ],      "type": "VEC2"    },    {      "bufferView": 9,      "componentType": 5126,      "count": 240,      "max": [        162.13648986816406,        141.59873962402344,        137.3634033203125      ],      "min": [        -131.5166473388672,        -139.4440460205078,        -135.4449462890625      ],      "type": "VEC3"    },    {      "bufferView": 10,      "componentType": 5126,      "count": 240,      "max": [        0.9504817724227905,        0.9591165781021118,        0.9823974967002869      ],      "min": [        -0.999021589756012,        -0.9851853847503662,        -0.9436912536621094      ],      "type": "VEC3"    },    {      "bufferView": 11,      "componentType": 5126,      "count": 240,      "max": [        0.9999999403953552,        1      ],      "min": [        0,        0      ],      "type": "VEC2"    },    {      "bufferView": 12,      "componentType": 5126,      "count": 240,      "max": [        212.18890380859375,        112.63258361816406,        190.00535583496094      ],      "min": [        -179.46705627441406,        -408.6368408203125,        -143.0472412109375      ],      "type": "VEC3"    },    {      "bufferView": 13,      "componentType": 5126,      "count": 240,      "max": [        0.9716273546218872,        0.9722214937210083,        0.9674704074859619      ],      "min": [        -0.9940365552902222,        -0.810308575630188,        -0.9861361980438232      ],      "type": "VEC3"    },    {      "bufferView": 14,      "componentType": 5126,      "count": 240,      "max": [        1,        1      ],      "min": [        0,        0      ],      "type": "VEC2"    },    {      "bufferView": 15,      "componentType": 5126,      "count": 240,      "max": [        168.9081268310547,        267.47552490234375,        116.70407104492188      ],      "min": [        -77.12333679199219,        -70.3019790649414,        -123.0540542602539      ],      "type": "VEC3"    },    {      "bufferView": 16,      "componentType": 5126,      "count": 240,      "max": [        0.9958750009536743,        0.997927725315094,        0.9898388385772705      ],      "min": [        -0.9733157753944397,        -0.7704336047172546,        -0.9935838580131531      ],      "type": "VEC3"    },    {      "bufferView": 17,      "componentType": 5126,      "count": 240,      "max": [        1,        1      ],      "min": [        0,        0      ],      "type": "VEC2"    },    {      "bufferView": 18,      "componentType": 5126,      "count": 240,      "max": [        148.68873596191406,        169.71998596191406,        114.91029357910156      ],      "min": [        -141.81378173828125,        -150.69752502441406,        -176.54937744140625      ],      "type": "VEC3"    },    {      "bufferView": 19,      "componentType": 5126,      "count": 240,      "max": [        0.9939380884170532,        0.9014378786087036,        0.9964664578437805      ],      "min": [        -0.996554434299469,        -0.9986132979393005,        -0.9424154758453369      ],      "type": "VEC3"    },    {      "bufferView": 20,      "componentType": 5126,      "count": 240,      "max": [        1,        1      ],      "min": [        0,        0      ],      "type": "VEC2"    }  ],  "materials": [    {      "pbrMetallicRoughness": {        "baseColorFactor": [          0.18542458854134958,          0.03704432393133864,          0.0018697854810734512,          1        ],        "metallicFactor": 0.5,        "roughnessFactor": 0.5      },      "emissiveFactor": [        0.18542458854134958,        0.03704432393133864,        0.0018697854810734512      ],      "name": "Brown.8"    },    {      "pbrMetallicRoughness": {        "baseColorFactor": [          0.014306257941383732,          0.18542458854134958,          0.006716131178153489,          1        ],        "metallicFactor": 0.5,        "roughnessFactor": 0.5      },      "emissiveFactor": [        0.014306257941383732,        0.18542458854134958,        0.006716131178153489      ],      "name": "Green.12"    }  ],  "meshes": [    {      "primitives": [        {          "mode": 4,          "attributes": {            "POSITION": 0,            "NORMAL": 1,            "TEXCOORD_0": 2          },          "material": 0        }      ]    },    {      "primitives": [        {          "mode": 4,          "attributes": {            "POSITION": 3,            "NORMAL": 4,            "TEXCOORD_0": 5          },          "material": 1        }      ]    },    {      "primitives": [        {          "mode": 4,          "attributes": {            "POSITION": 6,            "NORMAL": 7,            "TEXCOORD_0": 8          },          "material": 1        }      ]    },    {      "primitives": [        {          "mode": 4,          "attributes": {            "POSITION": 9,            "NORMAL": 10,            "TEXCOORD_0": 11          },          "material": 1        }      ]    },    {      "primitives": [        {          "mode": 4,          "attributes": {            "POSITION": 12,            "NORMAL": 13,            "TEXCOORD_0": 14          },          "material": 1        }      ]    },    {      "primitives": [        {          "mode": 4,          "attributes": {            "POSITION": 15,            "NORMAL": 16,            "TEXCOORD_0": 17          },          "material": 1        }      ]    },    {      "primitives": [        {          "mode": 4,          "attributes": {            "POSITION": 18,            "NORMAL": 19,            "TEXCOORD_0": 20          },          "material": 1        }      ]    }  ]}