{  "asset": {    "version": "2.0",    "generator": "THREE.GLTFExporter"  },  "scenes": [    {      "name": "AuxScene",      "nodes": [        5      ]    }  ],  "scene": 0,  "nodes": [    {      "matrix": [        1.0000004768371582,        0,        0,        0,        0,        1.0000004768371553,        -7.549793726424794e-8,        0,        0,        7.549793726424794e-8,        1.0000004768371553,        0,        0,        0,        0,        1      ],      "name": "Tree_1",      "extras": {        "originalName": "Tree_1",        "transformData": {          "inheritType": 1,          "eulerOrder": "ZYX",          "rotation": [            -0.0000043257111045250854,            0,            0          ],          "scale": [            1.0000004768371582,            1.0000004768371582,            1.0000004768371582          ],          "parentMatrix": {            "elements": [              1,              0,              0,              0,              0,              1,              0,              0,              0,              0,              1,              0,              0,              0,              0,              1            ]          },          "parentMatrixWorld": {            "elements": [              1,              0,              0,              0,              0,              1,              0,              0,              0,              0,              1,              0,              0,              0,              0,              1            ]          }        }      },      "mesh": 0    },    {      "matrix": [        1,        0,        0,        0,        0,        -1.6292067961387602e-7,        0.9999999999999868,        0,        0,        -0.9999999999999868,        -1.6292067961387602e-7,        0,        17.461917877197266,        955.6397705078125,        18.941236495971676,        1      ],      "name": "Leaves_2",      "extras": {        "originalName": "Leaves_2",        "transformData": {          "inheritType": 1,          "eulerOrder": "ZYX",          "translation": [            17.461917877197266,            955.6397705078125,            18.94123649597168          ],          "rotation": [            90.00000933466734,            0,            0          ],          "parentMatrix": {            "elements": [              1.0000004768371582,              0,              0,              0,              0,              1.0000004768371553,              -7.549793726424794e-8,              0,              0,              7.549793726424794e-8,              1.0000004768371553,              0,              0,              0,              0,              1            ]          },          "parentMatrixWorld": {            "elements": [              1.0000004768371582,              0,              0,              0,              0,              1.0000004768371553,              -7.549793726424794e-8,              0,              0,              7.549793726424794e-8,              1.0000004768371553,              0,              0,              0,              0,              1            ]          }        }      },      "mesh": 1    },    {      "matrix": [        1,        0,        0,        0,        0,        -1.6292067961387602e-7,        0.9999999999999868,        0,        0,        -0.9999999999999868,        -1.6292067961387602e-7,        0,        136.65708923339844,        587.1802978515625,        64.91618347167969,        1      ],      "name": "Leaves_3",      "extras": {        "originalName": "Leaves_3",        "transformData": {          "inheritType": 1,          "eulerOrder": "ZYX",          "translation": [            136.65708923339844,            587.1802978515625,            64.91618347167969          ],          "rotation": [            90.00000933466734,            0,            0          ],          "parentMatrix": {            "elements": [              1.0000004768371582,              0,              0,              0,              0,              1.0000004768371553,              -7.549793726424794e-8,              0,              0,              7.549793726424794e-8,              1.0000004768371553,              0,              0,              0,              0,              1            ]          },          "parentMatrixWorld": {            "elements": [              1.0000004768371582,              0,              0,              0,              0,              1.0000004768371553,              -7.549793726424794e-8,              0,              0,              7.549793726424794e-8,              1.0000004768371553,              0,              0,              0,              0,              1            ]          }        }      },      "mesh": 2    },    {      "matrix": [        1,        0,        0,        0,        0,        -1.6292067961387602e-7,        0.9999999999999868,        0,        0,        -0.9999999999999868,        -1.6292067961387602e-7,        0,        -67.79895782470703,        965.9799804687499,        332.91632080078125,        1      ],      "name": "Leaves_1",      "extras": {        "originalName": "Leaves_1",        "transformData": {          "inheritType": 1,          "eulerOrder": "ZYX",          "translation": [            -67.79895782470703,            965.97998046875,            332.91632080078125          ],          "rotation": [            90.00000933466734,            0,            0          ],          "parentMatrix": {            "elements": [              1.0000004768371582,              0,              0,              0,              0,              1.0000004768371553,              -7.549793726424794e-8,              0,              0,              7.549793726424794e-8,              1.0000004768371553,              0,              0,              0,              0,              1            ]          },          "parentMatrixWorld": {            "elements": [              1.0000004768371582,              0,              0,              0,              0,              1.0000004768371553,              -7.549793726424794e-8,              0,              0,              7.549793726424794e-8,              1.0000004768371553,              0,              0,              0,              0,              1            ]          }        }      },      "mesh": 3    },    {      "matrix": [        1.0000004768371582,        0,        0,        0,        0,        1.0000004768371553,        -7.549793726424794e-8,        0,        0,        7.549793726424794e-8,        1.0000004768371553,        0,        0,        0,        0,        1      ],      "name": "Leaves",      "extras": {        "originalName": "Leaves",        "transformData": {          "inheritType": 1,          "eulerOrder": "ZYX",          "rotation": [            -0.0000043257111045250854,            0,            0          ],          "scale": [            1.0000004768371582,            1.0000004768371582,            1.0000004768371582          ],          "parentMatrix": {            "elements": [              1,              0,              0,              0,              0,              1,              0,              0,              0,              0,              1,              0,              0,              0,              0,              1            ]          },          "parentMatrixWorld": {            "elements": [              1,              0,              0,              0,              0,              1,              0,              0,              0,              0,              1,              0,              0,              0,              0,              1            ]          }        }      },      "children": [        1,        2,        3      ]    },    {      "children": [        0,        4      ]    }  ],  "bufferViews": [    {      "buffer": 0,      "byteOffset": 0,      "byteLength": 14400,      "target": 34962,      "byteStride": 12    },    {      "buffer": 0,      "byteOffset": 14400,      "byteLength": 14400,      "target": 34962,      "byteStride": 12    },    {      "buffer": 0,      "byteOffset": 28800,      "byteLength": 9600,      "target": 34962,      "byteStride": 8    },    {      "buffer": 0,      "byteOffset": 38400,      "byteLength": 2880,      "target": 34962,      "byteStride": 12    },    {      "buffer": 0,      "byteOffset": 41280,      "byteLength": 2880,      "target": 34962,      "byteStride": 12    },    {      "buffer": 0,      "byteOffset": 44160,      "byteLength": 1920,      "target": 34962,      "byteStride": 8    },    {      "buffer": 0,      "byteOffset": 46080,      "byteLength": 720,      "target": 34962,      "byteStride": 12    },    {      "buffer": 0,      "byteOffset": 46800,      "byteLength": 720,      "target": 34962,      "byteStride": 12    },    {      "buffer": 0,      "byteOffset": 47520,      "byteLength": 480,      "target": 34962,      "byteStride": 8    },    {      "buffer": 0,      "byteOffset": 48000,      "byteLength": 2880,      "target": 34962,      "byteStride": 12    },    {      "buffer": 0,      "byteOffset": 50880,      "byteLength": 2880,      "target": 34962,      "byteStride": 12    },    {      "buffer": 0,      "byteOffset": 53760,      "byteLength": 1920,      "target": 34962,      "byteStride": 8    }  ],  "buffers": [    {      "byteLength": 55680,      "uri": "data:application/octet-stream;base64,"    }  ],  "accessors": [    {      "bufferView": 0,      "componentType": 5126,      "count": 1200,      "max": [        106.19615173339844,        967.1236572265625,        321.8877868652344      ],      "min": [        -129.79489135742188,        -11.679780006408691,        -130.2501983642578      ],      "type": "VEC3"    },    {      "bufferView": 1,      "componentType": 5126,      "count": 1200,      "max": [        0.9996333122253418,        0.8843892812728882,        0.9500877261161804      ],      "min": [        -0.9939199686050415,        -1,        -0.9539695382118225      ],      "type": "VEC3"    },    {      "bufferView": 2,      "componentType": 5126,      "count": 1200,      "max": [        1,        1      ],      "min": [        0,        0      ],      "type": "VEC2"    },    {      "bufferView": 3,      "componentType": 5126,      "count": 240,      "max": [        179.89149475097656,        111.93301391601562,        253.63246154785156      ],      "min": [        -284.89404296875,        -362.5617370605469,        -198.6538543701172      ],      "type": "VEC3"    },    {      "bufferView": 4,      "componentType": 5126,      "count": 240,      "max": [        0.98097825050354,        0.9846780300140381,        0.9884816408157349      ],      "min": [        -0.9713665246963501,        -0.9161357283592224,        -0.9597147703170776      ],      "type": "VEC3"    },    {      "bufferView": 5,      "componentType": 5126,      "count": 240,      "max": [        1,        1      ],      "min": [        0,        0      ],      "type": "VEC2"    },    {      "bufferView": 6,      "componentType": 5126,      "count": 60,      "max": [        67.74636840820312,        135.0850372314453,        111.31983184814453      ],      "min": [        -144.51455688476562,        -111.97814178466797,        -126.57334899902344      ],      "type": "VEC3"    },    {      "bufferView": 7,      "componentType": 5126,      "count": 60,      "max": [        0.9894067049026489,        0.9383061528205872,        0.9840736985206604      ],      "min": [        -0.9869250655174255,        -0.9048373103141785,        -0.8682631254196167      ],      "type": "VEC3"    },    {      "bufferView": 8,      "componentType": 5126,      "count": 60,      "max": [        1,        1      ],      "min": [        0,        0      ],      "type": "VEC2"    },    {      "bufferView": 9,      "componentType": 5126,      "count": 240,      "max": [        228.58609008789062,        229.50389099121094,        266.9537353515625      ],      "min": [        -257.6841735839844,        -264.5428161621094,        -253.8717041015625      ],      "type": "VEC3"    },    {      "bufferView": 10,      "componentType": 5126,      "count": 240,      "max": [        0.9973009824752808,        0.9829691052436829,        0.9349251389503479      ],      "min": [        -0.9931138753890991,        -0.9997224807739258,        -0.973871111869812      ],      "type": "VEC3"    },    {      "bufferView": 11,      "componentType": 5126,      "count": 240,      "max": [        1,        0.9999999403953552      ],      "min": [        0,        0      ],      "type": "VEC2"    }  ],  "materials": [    {      "pbrMetallicRoughness": {        "baseColorFactor": [          0.3800630919248526,          0.0905958369327424,          0.0062131662322591485,          1        ],        "metallicFactor": 0.5,        "roughnessFactor": 0.5      },      "emissiveFactor": [        0.3800630919248526,        0.0905958369327424,        0.0062131662322591485      ],      "name": "Brown.2"    },    {      "pbrMetallicRoughness": {        "baseColorFactor": [          0.7816587869011593,          0.34401587098319475,          0.024614587584660952,          1        ],        "metallicFactor": 0.5,        "roughnessFactor": 0.5      },      "emissiveFactor": [        0.7816587869011593,        0.34401587098319475,        0.024614587584660952      ],      "name": "Brown.3"    },    {      "pbrMetallicRoughness": {        "baseColorFactor": [          0.0026088504943676412,          0.15427988814270593,          0.0009034004136803136,          1        ],        "metallicFactor": 0.5,        "roughnessFactor": 0.5      },      "emissiveFactor": [        0.0026088504943676412,        0.15427988814270593,        0.0009034004136803136      ],      "name": "Green.10"    }  ],  "meshes": [    {      "primitives": [        {          "mode": 4,          "attributes": {            "POSITION": 0,            "NORMAL": 1,            "TEXCOORD_0": 2          },          "material": 0        },        {          "mode": 4,          "attributes": {            "POSITION": 0,            "NORMAL": 1,            "TEXCOORD_0": 2          },          "material": 1        },        {          "mode": 4,          "attributes": {            "POSITION": 0,            "NORMAL": 1,            "TEXCOORD_0": 2          },          "material": 0        }      ]    },    {      "primitives": [        {          "mode": 4,          "attributes": {            "POSITION": 3,            "NORMAL": 4,            "TEXCOORD_0": 5          },          "material": 2        }      ]    },    {      "primitives": [        {          "mode": 4,          "attributes": {            "POSITION": 6,            "NORMAL": 7,            "TEXCOORD_0": 8          },          "material": 2        }      ]    },    {      "primitives": [        {          "mode": 4,          "attributes": {            "POSITION": 9,            "NORMAL": 10,            "TEXCOORD_0": 11          },          "material": 2        }      ]    }  ]}