{  "asset": {    "version": "2.0",    "generator": "THREE.GLTFExporter"  },  "scenes": [    {      "name": "AuxScene",      "nodes": [        7      ]    }  ],  "scene": 0,  "nodes": [    {      "matrix": [        1,        0,        0,        0,        0,        1,        0,        0,        0,        0,        1,        0,        -168.19984436035156,        795.1779174804688,        145.11592102050784,        1      ],      "name": "Leaves_1",      "extras": {        "originalName": "Leaves_1",        "transformData": {          "inheritType": 1,          "eulerOrder": "ZYX",          "translation": [            -168.19984436035156,            795.1779174804688,            145.1159210205078          ],          "parentMatrix": {            "elements": [              1,              0,              0,              0,              0,              0.9999999999999989,              4.3711388286737916e-8,              0,              0,              -4.3711388286737916e-8,              0.9999999999999989,              0,              0,              0,              0,              1            ]          },          "parentMatrixWorld": {            "elements": [              1,              0,              0,              0,              0,              0.9999999999999989,              4.3711388286737916e-8,              0,              0,              -4.3711388286737916e-8,              0.9999999999999989,              0,              0,              0,              0,              1            ]          }        }      },      "mesh": 0    },    {      "matrix": [        1,        0,        0,        0,        0,        1,        0,        0,        0,        0,        1,        0,        7.244673252105713,        649.3391113281251,        -125.45631408691408,        1      ],      "name": "Leaves_4",      "extras": {        "originalName": "Leaves_4",        "transformData": {          "inheritType": 1,          "eulerOrder": "ZYX",          "translation": [            7.244673252105713,            649.339111328125,            -125.45631408691406          ],          "parentMatrix": {            "elements": [              1,              0,              0,              0,              0,              0.9999999999999989,              4.3711388286737916e-8,              0,              0,              -4.3711388286737916e-8,              0.9999999999999989,              0,              0,              0,              0,              1            ]          },          "parentMatrixWorld": {            "elements": [              1,              0,              0,              0,              0,              0.9999999999999989,              4.3711388286737916e-8,              0,              0,              -4.3711388286737916e-8,              0.9999999999999989,              0,              0,              0,              0,              1            ]          }        }      },      "mesh": 1    },    {      "matrix": [        1,        0,        0,        0,        0,        1,        0,        0,        0,        0,        1,        0,        -131.6896209716797,        964.0133666992189,        -54.909385681152344,        1      ],      "name": "Leaves_2",      "extras": {        "originalName": "Leaves_2",        "transformData": {          "inheritType": 1,          "eulerOrder": "ZYX",          "translation": [            -131.6896209716797,            964.0133666992188,            -54.909385681152344          ],          "parentMatrix": {            "elements": [              1,              0,              0,              0,              0,              0.9999999999999989,              4.3711388286737916e-8,              0,              0,              -4.3711388286737916e-8,              0.9999999999999989,              0,              0,              0,              0,              1            ]          },          "parentMatrixWorld": {            "elements": [              1,              0,              0,              0,              0,              0.9999999999999989,              4.3711388286737916e-8,              0,              0,              -4.3711388286737916e-8,              0.9999999999999989,              0,              0,              0,              0,              1            ]          }        }      },      "mesh": 2    },    {      "matrix": [        1,        0,        0,        0,        0,        1,        0,        0,        0,        0,        1,        0,        294.37628173828125,        835.9232788085939,        -33.72204589843751,        1      ],      "name": "Leaves_5",      "extras": {        "originalName": "Leaves_5",        "transformData": {          "inheritType": 1,          "eulerOrder": "ZYX",          "translation": [            294.37628173828125,            835.9232788085938,            -33.7220458984375          ],          "parentMatrix": {            "elements": [              1,              0,              0,              0,              0,              0.9999999999999989,              4.3711388286737916e-8,              0,              0,              -4.3711388286737916e-8,              0.9999999999999989,              0,              0,              0,              0,              1            ]          },          "parentMatrixWorld": {            "elements": [              1,              0,              0,              0,              0,              0.9999999999999989,              4.3711388286737916e-8,              0,              0,              -4.3711388286737916e-8,              0.9999999999999989,              0,              0,              0,              0,              1            ]          }        }      },      "mesh": 3    },    {      "matrix": [        1,        0,        0,        0,        0,        1,        0,        0,        0,        0,        1,        0,        196.09219360351562,        664.0133666992189,        45.09062576293946,        1      ],      "name": "Leaves_3",      "extras": {        "originalName": "Leaves_3",        "transformData": {          "inheritType": 1,          "eulerOrder": "ZYX",          "translation": [            196.09219360351562,            664.0133666992188,            45.09062576293945          ],          "parentMatrix": {            "elements": [              1,              0,              0,              0,              0,              0.9999999999999989,              4.3711388286737916e-8,              0,              0,              -4.3711388286737916e-8,              0.9999999999999989,              0,              0,              0,              0,              1            ]          },          "parentMatrixWorld": {            "elements": [              1,              0,              0,              0,              0,              0.9999999999999989,              4.3711388286737916e-8,              0,              0,              -4.3711388286737916e-8,              0.9999999999999989,              0,              0,              0,              0,              1            ]          }        }      },      "mesh": 4    },    {      "matrix": [        1,        0,        0,        0,        0,        0.9999999999999989,        4.3711388286737916e-8,        0,        0,        -4.3711388286737916e-8,        0.9999999999999989,        0,        0,        0,        0,        1      ],      "name": "Leaves",      "extras": {        "originalName": "Leaves",        "transformData": {          "inheritType": 1,          "eulerOrder": "ZYX",          "rotation": [            0.0000025044780654876655,            0,            0          ],          "parentMatrix": {            "elements": [              1,              0,              0,              0,              0,              1,              0,              0,              0,              0,              1,              0,              0,              0,              0,              1            ]          },          "parentMatrixWorld": {            "elements": [              1,              0,              0,              0,              0,              1,              0,              0,              0,              0,              1,              0,              0,              0,              0,              1            ]          }        }      },      "children": [        0,        1,        2,        3,        4      ]    },    {      "matrix": [        1,        0,        0,        0,        0,        0.999999999999997,        -7.54978941586159e-8,        0,        0,        7.54978941586159e-8,        0.999999999999997,        0,        0,        0,        0,        1      ],      "name": "Tree_2",      "extras": {        "originalName": "Tree_2",        "transformData": {          "inheritType": 1,          "eulerOrder": "ZYX",          "rotation": [            -0.000004325710697414086,            0,            0          ],          "parentMatrix": {            "elements": [              1,              0,              0,              0,              0,              1,              0,              0,              0,              0,              1,              0,              0,              0,              0,              1            ]          },          "parentMatrixWorld": {            "elements": [              1,              0,              0,              0,              0,              1,              0,              0,              0,              0,              1,              0,              0,              0,              0,              1            ]          }        }      },      "mesh": 5    },    {      "children": [        5,        6      ]    }  ],  "bufferViews": [    {      "buffer": 0,      "byteOffset": 0,      "byteLength": 2880,      "target": 34962,      "byteStride": 12    },    {      "buffer": 0,      "byteOffset": 2880,      "byteLength": 2880,      "target": 34962,      "byteStride": 12    },    {      "buffer": 0,      "byteOffset": 5760,      "byteLength": 1920,      "target": 34962,      "byteStride": 8    },    {      "buffer": 0,      "byteOffset": 7680,      "byteLength": 2880,      "target": 34962,      "byteStride": 12    },    {      "buffer": 0,      "byteOffset": 10560,      "byteLength": 2880,      "target": 34962,      "byteStride": 12    },    {      "buffer": 0,      "byteOffset": 13440,      "byteLength": 1920,      "target": 34962,      "byteStride": 8    },    {      "buffer": 0,      "byteOffset": 15360,      "byteLength": 2880,      "target": 34962,      "byteStride": 12    },    {      "buffer": 0,      "byteOffset": 18240,      "byteLength": 2880,      "target": 34962,      "byteStride": 12    },    {      "buffer": 0,      "byteOffset": 21120,      "byteLength": 1920,      "target": 34962,      "byteStride": 8    },    {      "buffer": 0,      "byteOffset": 23040,      "byteLength": 2880,      "target": 34962,      "byteStride": 12    },    {      "buffer": 0,      "byteOffset": 25920,      "byteLength": 2880,      "target": 34962,      "byteStride": 12    },    {      "buffer": 0,      "byteOffset": 28800,      "byteLength": 1920,      "target": 34962,      "byteStride": 8    },    {      "buffer": 0,      "byteOffset": 30720,      "byteLength": 2880,      "target": 34962,      "byteStride": 12    },    {      "buffer": 0,      "byteOffset": 33600,      "byteLength": 2880,      "target": 34962,      "byteStride": 12    },    {      "buffer": 0,      "byteOffset": 36480,      "byteLength": 1920,      "target": 34962,      "byteStride": 8    },    {      "buffer": 0,      "byteOffset": 38400,      "byteLength": 77760,      "target": 34962,      "byteStride": 12    },    {      "buffer": 0,      "byteOffset": 116160,      "byteLength": 77760,      "target": 34962,      "byteStride": 12    },    {      "buffer": 0,      "byteOffset": 193920,      "byteLength": 51840,      "target": 34962,      "byteStride": 8    }  ],  "buffers": [    {      "byteLength": 245760,      "uri": "data:application/octet-stream;base64,"    }  ],  "accessors": [    {      "bufferView": 0,      "componentType": 5126,      "count": 240,      "max": [        145.40887451171875,        149.4866180419922,        170.5780792236328      ],      "min": [        -157.77291870117188,        -172.6431427001953,        -162.01565551757812      ],      "type": "VEC3"    },    {      "bufferView": 1,      "componentType": 5126,      "count": 240,      "max": [        0.9978595972061157,        0.9646440744400024,        0.9267220497131348      ],      "min": [        -0.9857255816459656,        -0.9921100735664368,        -0.9661821722984314      ],      "type": "VEC3"    },    {      "bufferView": 2,      "componentType": 5126,      "count": 240,      "max": [        1,        1      ],      "min": [        0,        0      ],      "type": "VEC2"    },    {      "bufferView": 3,      "componentType": 5126,      "count": 240,      "max": [        127.6676025390625,        156.79881286621094,        138.769287109375      ],      "min": [        -130.46615600585938,        -146.1506805419922,        -156.1774444580078      ],      "type": "VEC3"    },    {      "bufferView": 4,      "componentType": 5126,      "count": 240,      "max": [        0.9841269850730896,        0.9238613247871399,        0.9489710330963135      ],      "min": [        -0.9981143474578857,        -0.9659797549247742,        -0.9206926226615906      ],      "type": "VEC3"    },    {      "bufferView": 5,      "componentType": 5126,      "count": 240,      "max": [        1,        1      ],      "min": [        0,        0      ],      "type": "VEC2"    },    {      "bufferView": 6,      "componentType": 5126,      "count": 240,      "max": [        148.1280517578125,        136.05770874023438,        135.27468872070312      ],      "min": [        -132.9800262451172,        -180.65280151367188,        -135.3065185546875      ],      "type": "VEC3"    },    {      "bufferView": 7,      "componentType": 5126,      "count": 240,      "max": [        0.9859668612480164,        0.9611263275146484,        0.9742504954338074      ],      "min": [        -0.9874910116195679,        -0.9257168173789978,        -0.9662411212921143      ],      "type": "VEC3"    },    {      "bufferView": 8,      "componentType": 5126,      "count": 240,      "max": [        1,        1      ],      "min": [        0,        0      ],      "type": "VEC2"    },    {      "bufferView": 9,      "componentType": 5126,      "count": 240,      "max": [        61.3631477355957,        80.2127456665039,        82.383056640625      ],      "min": [        -66.86945343017578,        -82.93170928955078,        -74.21234893798828      ],      "type": "VEC3"    },    {      "bufferView": 10,      "componentType": 5126,      "count": 240,      "max": [        0.9881019592285156,        0.9196865558624268,        0.9937061071395874      ],      "min": [        -0.9938193559646606,        -0.9635466933250427,        -0.978265643119812      ],      "type": "VEC3"    },    {      "bufferView": 11,      "componentType": 5126,      "count": 240,      "max": [        1,        1      ],      "min": [        0,        0      ],      "type": "VEC2"    },    {      "bufferView": 12,      "componentType": 5126,      "count": 240,      "max": [        152.95611572265625,        160.52488708496094,        204.1880645751953      ],      "min": [        -175.20584106445312,        -189.11289978027344,        -161.3109130859375      ],      "type": "VEC3"    },    {      "bufferView": 13,      "componentType": 5126,      "count": 240,      "max": [        0.9981821775436401,        0.9840558171272278,        0.8834637403488159      ],      "min": [        -0.986640214920044,        -0.9785795211791992,        -0.9779500961303711      ],      "type": "VEC3"    },    {      "bufferView": 14,      "componentType": 5126,      "count": 240,      "max": [        1,        1      ],      "min": [        0,        0      ],      "type": "VEC2"    },    {      "bufferView": 15,      "componentType": 5126,      "count": 6480,      "max": [        297.9302978515625,        968.648681640625,        184.94647216796875      ],      "min": [        -170.7528533935547,        -3.911701202392578,        -123.10469818115234      ],      "type": "VEC3"    },    {      "bufferView": 16,      "componentType": 5126,      "count": 6480,      "max": [        0.9954226016998291,        0.9976975917816162,        0.9994993209838867      ],      "min": [        -0.9999770522117615,        -0.9999885559082031,        -0.998931348323822      ],      "type": "VEC3"    },    {      "bufferView": 17,      "componentType": 5126,      "count": 6480,      "max": [        1,        1      ],      "min": [        0,        0      ],      "type": "VEC2"    }  ],  "materials": [    {      "pbrMetallicRoughness": {        "baseColorFactor": [          0.015638452634129444,          0.15427972862071296,          0.004021197366048461,          1        ],        "metallicFactor": 0.5,        "roughnessFactor": 0.5      },      "emissiveFactor": [        0.015638452634129444,        0.15427972862071296,        0.004021197366048461      ],      "name": "Green.11"    },    {      "pbrMetallicRoughness": {        "baseColorFactor": [          0.3800630919248526,          0.0905958369327424,          0.0062131662322591485,          1        ],        "metallicFactor": 0.5,        "roughnessFactor": 0.5      },      "emissiveFactor": [        0.3800630919248526,        0.0905958369327424,        0.0062131662322591485      ],      "name": "Brown.2"    }  ],  "meshes": [    {      "primitives": [        {          "mode": 4,          "attributes": {            "POSITION": 0,            "NORMAL": 1,            "TEXCOORD_0": 2          },          "material": 0        }      ]    },    {      "primitives": [        {          "mode": 4,          "attributes": {            "POSITION": 3,            "NORMAL": 4,            "TEXCOORD_0": 5          },          "material": 0        }      ]    },    {      "primitives": [        {          "mode": 4,          "attributes": {            "POSITION": 6,            "NORMAL": 7,            "TEXCOORD_0": 8          },          "material": 0        }      ]    },    {      "primitives": [        {          "mode": 4,          "attributes": {            "POSITION": 9,            "NORMAL": 10,            "TEXCOORD_0": 11          },          "material": 0        }      ]    },    {      "primitives": [        {          "mode": 4,          "attributes": {            "POSITION": 12,            "NORMAL": 13,            "TEXCOORD_0": 14          },          "material": 0        }      ]    },    {      "primitives": [        {          "mode": 4,          "attributes": {            "POSITION": 15,            "NORMAL": 16,            "TEXCOORD_0": 17          },          "material": 1        }      ]    }  ]}