# Blender 3.5.0
# www.blender.org
mtllib Orb.mtl
o ICO球
v -0.001879 0.000000 0.000000
v -0.625000 0.996516 0.625000
v 0.001879 2.000000 0.000000
v -0.625000 0.996516 -0.625000
v 0.625000 1.003484 0.625000
v 0.625000 1.003484 -0.625000
vn -0.8479 -0.5302 -0.0000
vn -0.8481 0.5298 -0.0000
vn 0.0030 -0.5300 0.8480
vn -0.0030 0.5300 0.8480
vn 0.8481 -0.5298 -0.0000
vn 0.0030 -0.5300 -0.8480
vn 0.8479 0.5302 -0.0000
vn -0.0030 0.5300 -0.8480
s 0
f 4//1 1//1 2//1
f 3//2 4//2 2//2
f 5//3 2//3 1//3
f 3//4 2//4 5//4
f 1//5 6//5 5//5
f 4//6 6//6 1//6
f 6//7 3//7 5//7
f 3//8 6//8 4//8
