# Blender v2.81 (sub 16) OBJ File: 'Nature Pack Low Poly.blend'
# www.blender.org
mtllib Bush_3_Snow.mtl
o Bush_3_Snow_Icosphere.017
v -0.212681 0.844105 -0.156634
v 0.371714 0.145411 -0.322232
v 0.114093 -0.125940 0.212261
v -0.306176 -0.009000 0.165166
v -0.056933 0.011673 -0.462143
v -0.514020 0.172785 -0.316965
v -0.565072 0.465427 -0.026139
v -0.416532 0.296994 0.263448
v -0.078901 0.300695 0.418868
v -0.078854 0.444494 -0.592344
v 0.257434 0.429816 0.323740
v -0.065284 0.780689 0.183141
v 0.387616 0.633794 -0.269868
vt 0.685451 0.226145
vt 0.493758 0.259168
vt 0.564960 0.438596
vt 0.500000 0.393651
vt 0.349438 0.179831
vt 0.362874 0.343423
vt 0.808912 0.298866
vt 0.735212 0.391059
vt 0.466590 0.134866
vt 0.899185 0.174617
vt 0.798677 0.123679
vt 0.318182 0.078731
vt 0.248962 0.041162
vt 0.113966 0.042387
vt 0.000000 0.157461
vt 0.090909 0.157461
vt 0.681818 0.078731
vt 0.491467 0.134866
vt 0.636363 0.000000
vt 0.819663 0.002567
vt 0.227273 0.393651
vt 0.107885 0.344325
vt 0.181818 0.472382
vt 0.190337 0.283928
vt 0.975488 0.344325
vt 0.880499 0.422861
vn 0.9109 -0.2932 0.2902
vn 0.9791 -0.0530 0.1965
vn 0.5474 0.0716 -0.8338
vn 0.3570 -0.2714 0.8938
vn 0.3701 -0.2504 -0.8946
vn -0.3788 -0.4041 0.8326
vn -0.2341 -0.5075 0.8292
vn 0.3669 -0.8889 -0.2744
vn -0.3798 -0.2841 -0.8804
vn -0.8923 -0.3869 0.2327
vn -0.2520 -0.9587 -0.1317
vn -0.3773 -0.9084 -0.1799
vn -0.8882 -0.3954 0.2338
vn 0.6029 0.7045 0.3743
vn 0.3356 0.9415 0.0302
vn 0.0854 0.4373 0.8953
vn 0.1413 0.7508 -0.6452
vn -0.3841 0.4158 0.8244
vn -0.6026 0.6956 0.3912
vn -0.5894 0.5293 0.6102
vn -0.6602 0.4415 -0.6077
vn -0.6902 0.4459 -0.5699
usemtl leaves_dark
s off
f 3/1/1 2/2/1 11/3/1
f 11/3/2 2/2/2 13/4/2
f 10/5/3 13/6/3 2/2/3
f 9/7/4 3/1/4 11/8/4
f 2/2/5 5/9/5 10/5/5
f 8/10/6 4/11/6 9/7/6
f 4/11/7 3/1/7 9/7/7
f 3/1/8 5/9/8 2/2/8
f 5/12/9 6/13/9 10/5/9
f 6/14/10 8/15/10 7/16/10
f 3/1/11 4/17/11 5/18/11
f 4/17/12 6/19/12 5/18/12
f 6/20/13 4/11/13 8/10/13
usemtl Snow
f 13/21/14 12/22/14 11/23/14
f 13/21/15 1/24/15 12/22/15
f 12/25/16 9/7/16 11/26/16
f 10/5/17 1/24/17 13/6/17
f 8/10/18 9/7/18 12/25/18
f 1/24/19 7/16/19 12/22/19
f 7/16/20 8/15/20 12/22/20
f 6/13/21 1/24/21 10/5/21
f 6/14/22 7/16/22 1/24/22
