# Blender v2.81 (sub 16) OBJ File: 'Nature Pack Low Poly.blend'
# www.blender.org
mtllib Bush_1_Snow.mtl
o Bush_1_Snow_Cylinder.026
v 0.005175 -0.160933 0.021634
v 0.365648 0.012839 0.283530
v -0.132510 0.012839 0.445394
v -0.440392 0.012841 0.021634
v -0.132510 0.012839 -0.402125
v 0.365648 0.012839 -0.240261
v 0.142861 0.345564 0.445394
v -0.355297 0.345564 0.283530
v -0.355297 0.345564 -0.240261
v 0.142861 0.345564 -0.402125
v 0.450743 0.345562 0.021634
v 0.005175 0.937354 0.021634
v -0.075753 -0.113985 0.270712
v 0.217054 -0.113985 0.175571
v 0.136126 -0.011844 0.424651
v 0.428934 -0.011843 0.021634
v 0.217054 -0.113985 -0.132303
v -0.256722 -0.113984 0.021634
v -0.337653 -0.011843 0.270713
v -0.075753 -0.113985 -0.227443
v -0.337653 -0.011843 -0.227444
v 0.136126 -0.011844 -0.381383
v 0.478954 0.153428 0.175572
v 0.478954 0.153428 -0.132303
v 0.005175 0.153428 0.519794
v 0.297987 0.153428 0.424654
v -0.468603 0.153428 0.175572
v -0.287636 0.153428 0.424654
v -0.287636 0.153428 -0.381385
v -0.468603 0.153428 -0.132303
v 0.297987 0.153428 -0.381385
v 0.005175 0.153428 -0.476525
v 0.348004 0.394024 0.270713
v -0.125775 0.394025 0.424651
v -0.418583 0.394024 0.021634
v -0.125775 0.394025 -0.381383
v 0.348004 0.394024 -0.227444
v 0.086104 0.657209 0.270712
v 0.267073 0.657206 0.021634
v -0.206703 0.657209 0.175571
v -0.206703 0.657209 -0.132303
v 0.086104 0.657209 -0.227443
vt 0.818181 0.000000
vt 0.772726 0.078731
vt 0.863635 0.078731
vt 0.727272 0.157461
vt 0.681818 0.078731
vt 0.636363 0.157461
vt 0.090909 0.000000
vt 0.045454 0.078731
vt 0.136363 0.078731
vt 0.272727 0.000000
vt 0.227273 0.078731
vt 0.318182 0.078731
vt 0.454545 0.000000
vt 0.409090 0.078731
vt 0.500000 0.078731
vt 0.681818 0.236191
vt 0.909090 0.157461
vt 0.818181 0.157461
vt 0.863635 0.236191
vt 0.181818 0.157461
vt 0.090909 0.157461
vt 0.136363 0.236191
vt 0.363636 0.157461
vt 0.272727 0.157461
vt 0.318182 0.236191
vt 0.545454 0.157461
vt 0.454545 0.157461
vt 0.500000 0.236191
vt 0.772726 0.236191
vt 0.954545 0.236191
vt 0.227273 0.236191
vt 0.409090 0.236191
vt 0.590909 0.236191
vt 0.045454 0.236191
vt 0.000000 0.157461
vt 0.590909 0.078731
vt 0.636363 0.000000
vt 0.818181 0.314921
vt 0.727272 0.314921
vt 0.772726 0.393651
vt 1.000000 0.314921
vt 0.909091 0.314921
vt 0.954545 0.393651
vt 0.272727 0.314921
vt 0.181818 0.314921
vt 0.227273 0.393651
vt 0.454545 0.314921
vt 0.363636 0.314921
vt 0.409090 0.393651
vt 0.636363 0.314921
vt 0.545454 0.314921
vt 0.590909 0.393651
vt 0.500000 0.393651
vt 0.545454 0.472382
vt 0.318182 0.393651
vt 0.363636 0.472382
vt 0.136363 0.393651
vt 0.181818 0.472382
vt 0.090909 0.314921
vt 0.863635 0.393651
vt 0.909090 0.472382
vt 0.681818 0.393651
vt 0.727272 0.472382
vn 0.0669 -0.9763 0.2057
vn 0.5432 -0.8134 0.2079
vn -0.1750 -0.9763 0.1272
vn -0.1750 -0.9763 -0.1272
vn 0.0669 -0.9763 -0.2057
vn 0.8385 -0.4851 0.2483
vn 0.0229 -0.4851 0.8742
vn -0.8243 -0.4851 0.2919
vn -0.5324 -0.4851 -0.6937
vn 0.4953 -0.4851 -0.7207
vn 0.7932 -0.1967 0.5763
vn -0.3030 -0.1967 0.9325
vn -0.9805 -0.1967 0.0000
vn -0.3030 -0.1967 -0.9325
vn 0.7932 -0.1967 -0.5763
vn 0.2958 -0.2897 -0.9103
vn 0.0229 -0.4851 -0.8742
vn -0.7743 -0.2897 -0.5626
vn -0.8243 -0.4851 -0.2919
vn -0.7743 -0.2897 0.5626
vn -0.5324 -0.4851 0.6937
vn 0.2958 -0.2897 0.9103
vn 0.4953 -0.4851 0.7207
vn 0.9571 -0.2897 0.0000
vn 0.8385 -0.4851 -0.2483
vn 0.3656 -0.8134 -0.4524
vn 0.1342 -0.9008 -0.4130
vn -0.0299 -0.8134 -0.5809
vn -0.3172 -0.8134 -0.4875
vn -0.3513 -0.9008 -0.2552
vn -0.5617 -0.8134 -0.1511
vn -0.5617 -0.8134 0.1511
vn -0.3513 -0.9008 0.2552
vn -0.3172 -0.8134 0.4875
vn 0.5432 -0.8134 -0.2079
vn 0.4342 -0.9008 0.0000
vn 0.2163 -0.9763 0.0000
vn -0.0299 -0.8134 0.5809
vn 0.1342 -0.9008 0.4130
vn 0.3656 -0.8134 0.4524
vn 0.4942 0.4918 0.7168
vn -0.5290 0.4918 0.6915
vn -0.8212 0.4918 -0.2894
vn 0.0215 0.4918 -0.8704
vn 0.8345 0.4918 -0.2485
vn 0.6453 0.6032 -0.4688
vn 0.6302 0.6271 -0.4579
vn 0.4942 0.4918 -0.7168
vn -0.2465 0.6032 -0.7585
vn -0.2407 0.6271 -0.7408
vn -0.5290 0.4918 -0.6915
vn -0.7976 0.6032 0.0000
vn -0.7789 0.6271 0.0000
vn -0.8212 0.4918 0.2894
vn -0.2465 0.6032 0.7585
vn -0.2407 0.6271 0.7408
vn 0.0215 0.4918 0.8704
vn 0.6453 0.6032 0.4688
vn 0.6302 0.6271 0.4579
vn 0.8345 0.4918 0.2485
vn 0.8836 0.3649 -0.2935
vn 0.7921 0.2035 -0.5755
vn 0.5522 0.3649 -0.7497
vn -0.0061 0.3649 -0.9310
vn -0.3025 0.2035 -0.9311
vn -0.5424 0.3649 -0.7568
vn -0.8873 0.3649 -0.2819
vn -0.9791 0.2035 0.0000
vn -0.8873 0.3649 0.2819
vn -0.5423 0.3649 0.7568
vn -0.3025 0.2035 0.9311
vn -0.0061 0.3649 0.9310
vn 0.5522 0.3649 0.7497
vn 0.7921 0.2035 0.5755
vn 0.8836 0.3649 0.2935
vn 0.3057 0.1453 -0.9410
vn -0.8004 0.1453 -0.5815
vn -0.8004 0.1453 0.5815
vn 0.3057 0.1453 0.9410
vn 0.9894 0.1453 0.0000
usemtl leaves_dark
s off
f 1/1/1 14/2/1 13/3/1
f 2/4/2 14/5/2 16/6/2
f 1/7/3 13/8/3 18/9/3
f 1/10/4 18/11/4 20/12/4
f 1/13/5 20/14/5 17/15/5
f 2/4/6 16/6/6 23/16/6
f 3/17/7 15/18/7 25/19/7
f 4/20/8 19/21/8 27/22/8
f 5/23/9 21/24/9 29/25/9
f 6/26/10 22/27/10 31/28/10
f 2/4/11 23/16/11 26/29/11
f 3/17/12 25/19/12 28/30/12
f 4/20/13 27/22/13 30/31/13
f 5/23/14 29/25/14 32/32/14
f 6/26/15 31/28/15 24/33/15
f 31/28/16 22/27/16 32/32/16
f 22/27/17 5/23/17 32/32/17
f 29/25/18 21/24/18 30/31/18
f 21/24/19 4/20/19 30/31/19
f 27/22/20 19/21/20 28/34/20
f 19/21/21 3/35/21 28/34/21
f 25/19/22 15/18/22 26/29/22
f 15/18/23 2/4/23 26/29/23
f 23/16/24 16/6/24 24/33/24
f 16/6/25 6/26/25 24/33/25
f 17/15/26 22/27/26 6/26/26
f 17/15/27 20/14/27 22/27/27
f 20/14/28 5/23/28 22/27/28
f 20/12/29 21/24/29 5/23/29
f 20/12/30 18/11/30 21/24/30
f 18/11/31 4/20/31 21/24/31
f 18/9/32 19/21/32 4/20/32
f 18/9/33 13/8/33 19/21/33
f 13/8/34 3/35/34 19/21/34
f 16/6/35 17/36/35 6/26/35
f 16/6/36 14/5/36 17/36/36
f 14/5/37 1/37/37 17/36/37
f 13/3/38 15/18/38 3/17/38
f 13/3/39 14/2/39 15/18/39
f 14/2/40 2/4/40 15/18/40
usemtl Snow
f 7/38/41 33/39/41 38/40/41
f 8/41/42 34/42/42 40/43/42
f 9/44/43 35/45/43 41/46/43
f 10/47/44 36/48/44 42/49/44
f 11/50/45 37/51/45 39/52/45
f 39/52/46 42/53/46 12/54/46
f 39/52/47 37/51/47 42/53/47
f 37/51/48 10/47/48 42/53/48
f 42/49/49 41/55/49 12/56/49
f 42/49/50 36/48/50 41/55/50
f 36/48/51 9/44/51 41/55/51
f 41/46/52 40/57/52 12/58/52
f 41/46/53 35/45/53 40/57/53
f 35/45/54 8/59/54 40/57/54
f 40/43/55 38/60/55 12/61/55
f 40/43/56 34/42/56 38/60/56
f 34/42/57 7/38/57 38/60/57
f 38/40/58 39/62/58 12/63/58
f 38/40/59 33/39/59 39/62/59
f 33/39/60 11/50/60 39/62/60
f 24/33/61 37/51/61 11/50/61
f 24/33/62 31/28/62 37/51/62
f 31/28/63 10/47/63 37/51/63
f 32/32/64 36/48/64 10/47/64
f 32/32/65 29/25/65 36/48/65
f 29/25/66 9/44/66 36/48/66
f 30/31/67 35/45/67 9/44/67
f 30/31/68 27/22/68 35/45/68
f 27/22/69 8/59/69 35/45/69
f 28/30/70 34/42/70 8/41/70
f 28/30/71 25/19/71 34/42/71
f 25/19/72 7/38/72 34/42/72
f 26/29/73 33/39/73 7/38/73
f 26/29/74 23/16/74 33/39/74
f 23/16/75 11/50/75 33/39/75
f 31/28/76 32/32/76 10/47/76
f 29/25/77 30/31/77 9/44/77
f 27/22/78 28/34/78 8/59/78
f 25/19/79 26/29/79 7/38/79
f 23/16/80 24/33/80 11/50/80
