# Blender v2.81 (sub 16) OBJ File: 'Nature Pack Low Poly.blend'
# www.blender.org
mtllib Bush_6.mtl
o Bush_6_Cylinder.017
v 0.709664 0.051019 -0.277229
v 0.115826 0.604374 0.720756
v -0.668274 0.691923 0.227458
v 0.727079 0.604371 0.120557
v 0.073084 1.137624 0.199076
v -0.061444 -0.083057 0.666425
v 0.578138 -0.060423 0.345775
v -0.647040 -0.082818 0.139526
v -0.211518 -0.084937 -0.676845
v 0.479291 0.659153 0.546207
v -0.365561 0.659155 0.616628
v -0.643884 0.604374 -0.324889
v 0.115826 0.604374 -0.720756
v -0.365561 0.659155 -0.616628
v 0.479291 0.659153 -0.546207
v 0.256180 1.110846 -0.180021
v -0.297870 1.110845 0.000000
v -0.743832 -0.082710 -0.430153
v -0.229771 -0.069805 -0.038522
v -0.233233 0.322492 0.077377
v -0.782855 0.702100 0.061091
v -0.743831 -0.082541 0.430195
v -1.158109 -0.083814 0.000000
v -0.493471 0.362214 0.438337
v -1.052214 0.362215 0.330704
v -1.086374 0.413576 -0.281609
v -0.493471 0.362214 -0.438337
v -0.538827 0.653453 -0.116206
v 0.609259 -0.082541 -0.430195
v 1.123318 -0.069805 -0.038522
v 1.119857 0.322492 0.077377
v 0.570235 0.702100 -0.061091
v 0.609257 -0.082710 0.430153
v 0.194981 -0.083814 0.000000
v 0.859619 0.362214 0.438337
v 0.300876 0.362215 0.330704
v 0.215745 0.379378 -0.147378
v 0.859619 0.362214 -0.438337
v 0.412358 0.357704 -0.399884
v 0.814263 0.653453 0.116206
vt 0.562546 0.187065
vt 0.366372 0.157461
vt 0.524211 0.278126
vt 0.716450 0.157461
vt 0.657287 0.278680
vt 0.748515 0.278126
vt 0.879569 0.157461
vt 0.839105 0.278680
vt 0.930334 0.278127
vt 0.152297 0.157461
vt 0.135159 0.290759
vt 0.251803 0.278680
vt 0.342393 0.278127
vt 0.433621 0.278680
vt 0.750307 0.432483
vt 1.000000 0.314921
vt 0.954545 0.393651
vt 0.181818 0.393651
vt 0.409090 0.393651
vt 0.545454 0.393651
vt 0.318182 0.393651
vt 0.363636 0.472382
vt 0.886055 0.432483
vt 0.681818 0.393651
vt 0.045454 0.236191
vt 0.265688 0.157461
vt 0.393166 0.157461
vt 0.179083 0.157461
vt 0.275841 0.284626
vt 0.618371 0.172247
vt 0.480539 0.277378
vt 0.657853 0.277700
vt 0.792187 0.277378
vt 0.879560 0.157461
vt 0.963784 0.295083
vt 0.077296 0.255934
vt 0.409090 0.393651
vt 0.545454 0.393651
vt 0.340187 0.431766
vt 0.181818 0.393651
vt 0.921388 0.412450
vt 0.750307 0.432483
vt 0.681818 0.393651
vt 0.265767 0.157461
vt 0.393166 0.157461
vt 0.184553 0.157461
vt 0.341793 0.277087
vt 0.618371 0.172247
vt 0.480539 0.277378
vt 0.657853 0.277700
vt 0.792187 0.277378
vt 0.879560 0.157461
vt 0.963784 0.295082
vt 0.077296 0.255934
vt 0.228153 0.290077
vt 0.351338 0.412450
vt 0.590909 0.393651
vt 0.522419 0.432483
vt 0.181818 0.393651
vt 0.932540 0.431766
vt 0.863635 0.393651
vt 0.727272 0.393651
vt 0.265774 0.157461
vn 0.4157 -0.2315 -0.8795
vn 0.8628 -0.0222 0.5051
vn -0.2138 -0.0221 0.9766
vn -0.9989 -0.0228 -0.0405
vn -0.2073 0.0362 -0.9776
vn 0.2260 0.6904 0.6872
vn -0.5218 0.7145 0.4661
vn -0.7771 0.6155 -0.1319
vn -0.0619 0.7364 -0.6737
vn 0.7780 0.5800 -0.2415
vn 0.2321 0.6792 -0.6964
vn -0.0271 0.9961 -0.0835
vn -0.1844 0.8024 -0.5675
vn -0.5893 0.6812 -0.4343
vn -0.3409 0.7758 0.5309
vn -0.0758 0.6942 0.7158
vn 0.6371 0.7269 0.2564
vn 0.6216 0.7364 0.2671
vn 0.9228 0.2054 -0.3261
vn 0.4496 -0.2678 -0.8521
vn -0.7120 -0.0910 -0.6963
vn -0.8422 -0.2992 -0.4485
vn -0.7898 -0.0905 0.6067
vn -0.6527 -0.2188 0.7253
vn 0.4479 -0.1846 0.8748
vn 0.4458 -0.1828 0.8763
vn 0.9715 -0.1577 0.1769
vn -0.6916 -0.2778 -0.6668
vn 0.5758 -0.3377 -0.7446
vn 0.7910 -0.1669 0.5886
vn -0.1884 0.0882 0.9781
vn -0.9810 0.1811 0.0699
vn -0.2440 0.1196 -0.9624
vn -0.1153 0.7287 -0.6751
vn 0.7812 0.5139 -0.3546
vn -0.2086 0.8313 -0.5152
vn -0.7411 0.6643 0.0971
vn -0.1386 0.6806 0.7195
vn 0.4431 0.8081 0.3882
vn 0.5837 0.7376 0.3396
vn 0.8885 0.1372 -0.4378
vn -0.6807 -0.3251 0.6565
vn 0.6315 -0.3680 0.6825
vn -0.6943 -0.2644 -0.6694
vn 0.5757 -0.3377 -0.7446
vn -0.1884 0.0880 0.9781
vn -0.9789 0.1005 0.1779
vn -0.0859 0.0301 -0.9958
vn -0.0670 0.7152 -0.6957
vn 0.6847 0.6668 -0.2942
vn 0.4431 0.8081 -0.3882
vn -0.5280 0.7061 -0.4718
vn -0.6852 0.7132 0.1476
vn -0.2322 0.8081 0.5414
vn -0.1300 0.7263 0.6750
vn 0.6875 0.5842 0.4314
vn -0.7859 -0.1552 -0.5986
vn -0.6807 -0.3251 0.6564
vn 0.6315 -0.3679 0.6825
vn 0.0707 -0.9968 -0.0382
vn 0.0151 -0.9999 0.0002
vn 0.0151 -0.9999 -0.0002
usemtl leaves_dark
s off
f 1/1/1 9/2/1 15/3/1
f 7/4/2 4/5/2 10/6/2
f 6/7/3 2/8/3 11/9/3
f 8/10/4 3/11/4 12/12/4
f 9/2/5 14/13/5 13/14/5
f 2/8/6 10/6/6 5/15/6
f 3/16/7 11/9/7 17/17/7
f 12/12/8 3/11/8 17/18/8
f 13/14/9 14/13/9 16/19/9
f 4/5/10 15/3/10 16/20/10
f 15/3/11 13/14/11 16/20/11
f 16/19/12 17/21/12 5/22/12
f 16/19/13 14/13/13 17/21/13
f 14/13/14 12/12/14 17/21/14
f 17/17/15 11/9/15 5/23/15
f 11/9/16 2/8/16 5/23/16
f 5/15/17 10/6/17 16/24/17
f 10/6/18 4/5/18 16/24/18
f 1/1/19 15/3/19 4/5/19
f 15/3/20 9/2/20 13/14/20
f 14/13/21 9/2/21 12/12/21
f 9/2/22 8/10/22 12/12/22
f 3/11/23 8/10/23 11/25/23
f 8/10/24 6/26/24 11/25/24
f 2/8/25 6/26/25 10/6/25
f 6/26/26 7/4/26 10/6/26
f 4/5/27 7/4/27 1/1/27
f 18/27/28 23/28/28 26/29/28
f 19/30/29 18/27/29 27/31/29
f 19/30/30 20/32/30 24/33/30
f 22/34/31 24/33/31 25/35/31
f 23/28/32 25/36/32 26/29/32
f 18/27/33 26/29/33 27/31/33
f 27/31/34 26/29/34 28/37/34
f 20/32/35 27/31/35 28/38/35
f 28/37/36 26/29/36 21/39/36
f 26/29/37 25/36/37 21/40/37
f 25/35/38 24/33/38 21/41/38
f 21/42/39 24/33/39 28/43/39
f 24/33/40 20/32/40 28/43/40
f 19/30/41 27/31/41 20/32/41
f 23/28/42 22/44/42 25/36/42
f 22/44/43 19/30/43 24/33/43
f 29/45/44 34/46/44 39/47/44
f 30/48/45 29/45/45 38/49/45
f 30/48/30 31/50/30 35/51/30
f 33/52/46 35/51/46 36/53/46
f 34/46/47 36/54/47 37/55/47
f 29/45/48 39/47/48 38/49/48
f 38/49/49 39/47/49 32/56/49
f 31/50/50 38/49/50 40/57/50
f 40/57/51 38/49/51 32/58/51
f 39/47/52 37/55/52 32/56/52
f 37/55/53 36/54/53 32/59/53
f 32/60/54 36/53/54 40/61/54
f 36/53/55 35/51/55 40/61/55
f 35/51/56 31/50/56 40/62/56
f 30/48/41 38/49/41 31/50/41
f 39/47/57 34/46/57 37/55/57
f 34/46/58 33/63/58 36/54/58
f 33/63/59 30/48/59 35/51/59
f 8/10/60 9/2/60 1/1/60 7/4/60 6/26/60
f 23/28/61 18/27/61 19/30/61 22/44/61
f 33/63/62 34/46/62 29/45/62 30/48/62
