# Blender v2.81 (sub 16) OBJ File: 'Nature Pack Low Poly.blend'
# www.blender.org
mtllib Grass_1_Snow.mtl
o Grass_1_Snow_Cone.002
v -0.005444 -0.038125 -0.059596
v 0.049016 -0.038125 0.034731
v -0.059904 -0.038125 0.034731
v -0.005444 0.574382 0.003289
v -0.001023 0.215103 0.019010
v -0.028253 0.215103 -0.028154
v -0.051248 0.215103 0.057789
vt 0.042154 0.130000
vt 0.094115 0.160000
vt 0.250000 0.370000
vt 0.250000 0.490000
vt 0.457846 0.130000
vt 0.353923 0.190000
vt 0.250000 0.250000
vn -0.9187 0.0168 -0.3947
vn 0.2367 0.0053 0.9716
vn 0.8577 0.1387 -0.4952
vn 0.8660 -0.0112 -0.5000
vn 0.6106 0.0421 0.7908
vn -0.9626 0.0837 -0.2576
usemtl leaves
s off
f 3/1/1 7/2/1 6/3/1 1/4/1
f 2/5/2 5/6/2 7/2/2 3/1/2
f 1/4/3 6/3/3 5/6/3 2/5/3
usemtl Snow
f 6/3/4 4/7/4 5/6/4
f 5/6/5 4/7/5 7/2/5
f 7/2/6 4/7/6 6/3/6
