# Blender v2.81 (sub 16) OBJ File: 'Nature Pack Low Poly.blend'
# www.blender.org
mtllib Grass_2_Snow.mtl
o Grass_2_Snow_Cone.003
v -0.004907 -0.033107 -0.059032
v 0.049053 -0.033107 0.034429
v -0.058868 -0.033107 0.034429
v 0.004805 0.622029 0.002162
v -0.000527 0.217797 0.018852
v -0.027507 0.217797 -0.027879
v -0.050291 0.217797 0.057275
v 0.104503 -0.038514 -0.039480
v 0.210783 -0.038514 -0.020740
v 0.141413 -0.038514 0.061932
v 0.209686 0.533881 0.027909
v 0.198480 0.212390 0.007228
v 0.145340 0.212390 -0.002142
v 0.195927 0.212390 0.070047
v -0.095574 -0.040772 0.005661
v -0.178246 -0.040772 0.075031
v -0.196986 -0.040772 -0.031250
v -0.237528 0.497066 0.029085
v -0.171515 0.210131 0.023500
v -0.130179 0.210131 -0.011185
v -0.217996 0.210131 -0.018836
v 0.043250 -0.041042 0.205192
v -0.064260 -0.041042 0.214598
v -0.018650 -0.041042 0.116789
v -0.019636 0.492666 0.282327
v -0.029189 0.209861 0.241206
v 0.024566 0.209861 0.236503
v -0.042981 0.209861 0.179867
v -0.075056 -0.038558 -0.191424
v 0.031225 -0.038558 -0.210164
v -0.005686 -0.038558 -0.108752
v -0.028710 0.533158 -0.171414
v -0.000370 0.212345 -0.168902
v -0.053511 0.212345 -0.159532
v 0.018715 0.212345 -0.108998
vt 0.042154 0.130000
vt 0.094115 0.160000
vt 0.250000 0.370000
vt 0.250000 0.490000
vt 0.457846 0.130000
vt 0.353923 0.190000
vt 0.042154 0.130000
vt 0.094115 0.160000
vt 0.250000 0.370000
vt 0.250000 0.490000
vt 0.457846 0.130000
vt 0.353923 0.190000
vt 0.042154 0.130000
vt 0.094115 0.160000
vt 0.250000 0.370000
vt 0.250000 0.490000
vt 0.457846 0.130000
vt 0.353923 0.190000
vt 0.250000 0.370000
vt 0.250000 0.250000
vt 0.353923 0.190000
vt 0.094115 0.160000
vt 0.042154 0.130000
vt 0.250000 0.490000
vt 0.457846 0.130000
vt 0.250000 0.250000
vt 0.250000 0.250000
vt 0.250000 0.370000
vt 0.250000 0.250000
vt 0.353923 0.190000
vt 0.094115 0.160000
vt 0.042154 0.130000
vt 0.250000 0.490000
vt 0.457846 0.130000
vt 0.250000 0.250000
vn -0.8857 0.1279 0.4464
vn 0.8913 -0.1067 0.4406
vn 0.1724 0.1175 -0.9780
vn 0.2292 0.0168 -0.9732
vn -0.9157 0.0053 0.4019
vn 0.6366 0.1387 0.7586
vn -0.6851 0.0168 0.7283
vn 0.9939 0.0053 0.1098
vn -0.1720 0.1387 -0.9753
vn 0.8656 -0.0321 -0.4997
vn 0.6110 0.0246 0.7913
vn -0.9616 0.0960 -0.2573
vn -0.9187 0.0168 -0.3947
vn 0.2367 0.0053 0.9716
vn 0.8577 0.1387 -0.4952
vn 0.1734 0.0572 -0.9832
vn 0.9985 -0.0374 0.0406
vn -0.8140 0.1096 0.5704
vn 0.6372 0.1318 0.7594
vn -0.6639 -0.1669 0.7289
vn 0.0855 0.1698 -0.9818
vn 0.0862 -0.1462 0.9855
vn -0.9756 0.0011 0.2194
vn 0.6269 0.2191 -0.7477
vn 0.7331 0.1859 -0.6543
vn -0.9791 0.0559 -0.1957
vn 0.0866 -0.1170 0.9894
vn -0.1736 -0.0230 -0.9845
vn 0.9496 0.0815 -0.3026
vn -0.5717 0.0745 0.8171
usemtl leaves
s off
f 10/1/1 14/2/1 13/3/1 8/4/1
f 9/5/2 12/6/2 14/2/2 10/1/2
f 8/4/3 13/3/3 12/6/3 9/5/3
f 17/7/4 21/8/4 20/9/4 15/10/4
f 16/11/5 19/12/5 21/8/5 17/7/5
f 15/10/6 20/9/6 19/12/6 16/11/6
f 31/13/7 35/14/7 34/15/7 29/16/7
f 30/17/8 33/18/8 35/14/8 31/13/8
f 29/16/9 34/15/9 33/18/9 30/17/9
usemtl Snow
f 6/19/10 4/20/10 5/21/10
f 5/21/11 4/20/11 7/22/11
f 7/22/12 4/20/12 6/19/12
f 3/23/13 7/22/13 6/19/13 1/24/13
f 2/25/14 5/21/14 7/22/14 3/23/14
f 1/24/15 6/19/15 5/21/15 2/25/15
f 13/3/16 11/26/16 12/6/16
f 12/6/17 11/26/17 14/2/17
f 14/2/18 11/26/18 13/3/18
f 20/9/19 18/27/19 19/12/19
f 19/12/20 18/27/20 21/8/20
f 21/8/21 18/27/21 20/9/21
f 27/28/22 25/29/22 26/30/22
f 26/30/23 25/29/23 28/31/23
f 28/31/24 25/29/24 27/28/24
f 24/32/25 28/31/25 27/28/25 22/33/25
f 23/34/26 26/30/26 28/31/26 24/32/26
f 22/33/27 27/28/27 26/30/27 23/34/27
f 34/15/28 32/35/28 33/18/28
f 33/18/29 32/35/29 35/14/29
f 35/14/30 32/35/30 34/15/30
