# Blender v3.2.0 OBJ File: 'multiMaterial.blend'
# www.blender.org
mtllib multiMaterial.mtl
o Plane
v -1.000000 -1.000000 -0.000000
v 1.000000 -1.000000 -0.000000
v -1.000000 1.000000 0.000000
v 1.000000 1.000000 0.000000
vt 1.000000 0.000000
vt 0.000000 1.000000
vt 0.000000 0.000000
vt 1.000000 1.000000
vn -0.0000 -0.0000 1.0000
usemtl Material.001
s off
f 2/1/1 3/2/1 1/3/1
f 2/1/1 4/4/1 3/2/1
o Cube
v 1.495951 0.226224 0.724649
v 1.495951 2.226224 0.724649
v 1.495951 0.226224 -1.275351
v 1.495951 2.226224 -1.275351
v 3.495951 0.226224 0.724649
v 3.495951 2.226224 0.724649
v 3.495951 0.226224 -1.275351
v 3.495951 2.226224 -1.275351
vt 0.250000 1.000000
vt 0.750000 0.000000
vt 0.250000 0.000000
vt 0.250000 1.000000
vt 0.750000 0.000000
vt 0.250000 0.000000
vt 0.750000 1.000000
vt 0.250000 0.000000
vt 0.750000 1.000000
vt 0.750000 0.000000
vt 0.750000 1.000000
vt 0.250000 1.000000
vt 0.750000 0.000000
vt 0.750000 1.000000
vt 0.250000 0.000000
vt 0.250000 1.000000
vn -1.0000 0.0000 0.0000
vn 0.0000 0.0000 -1.0000
vn 1.0000 0.0000 0.0000
vn 0.0000 0.0000 1.0000
vn 0.0000 -1.0000 0.0000
vn 0.0000 1.0000 0.0000
usemtl Material
s off
f 6/5/2 7/6/2 5/7/2
f 8/8/3 11/9/3 7/10/3
f 12/11/4 9/12/4 11/9/4
f 10/13/5 5/7/5 9/14/5
f 11/15/6 5/7/6 7/16/6
f 8/8/7 10/17/7 12/11/7
f 6/5/2 8/18/2 7/6/2
f 10/13/5 6/5/5 5/7/5
f 11/15/6 9/14/6 5/7/6
f 8/8/7 6/19/7 10/17/7
f 8/8/3 12/11/3 11/9/3
f 12/11/4 10/20/4 9/12/4
