# Blender v3.2.0 OBJ File: 'axis.blend'
# www.blender.org
mtllib axis.mtl
o Cube_Cube.001
v 0.200000 -0.200000 0.200000
v 0.200000 0.200000 0.200000
v 0.200000 -0.200000 -0.200000
v 0.200000 0.200000 -0.200000
v 4.000000 -0.200000 0.200000
v 4.000000 0.200000 0.200000
v 4.000000 -0.200000 -0.200000
v 4.000000 0.200000 -0.200000
v -0.200000 2.000000 0.200000
v 0.200000 2.000000 0.200000
v -0.200000 2.000000 -0.200000
v 0.200000 2.000000 -0.200000
v -0.200000 0.200000 0.200000
v 0.200000 0.200000 0.200000
v -0.200000 0.200000 -0.200000
v 0.200000 0.200000 -0.200000
v 0.200000 -0.200000 -0.200000
v 0.200000 0.200000 -0.200000
v -0.200000 -0.200000 -0.200000
v -0.200000 0.200000 -0.200000
v 0.200000 -0.200000 -1.000000
v 0.200000 0.200000 -1.000000
v -0.200000 -0.200000 -1.000000
v -0.200000 0.200000 -1.000000
vt 0.875000 0.250000
vt 0.750000 0.125000
vt 0.875000 0.125000
vt 1.000000 0.250000
vt 0.000000 0.000000
vt 1.000000 0.000000
vt 0.375000 0.875000
vt 0.250000 0.750000
vt 0.375000 0.750000
vt 1.000000 0.750000
vt 0.000000 0.500000
vt 1.000000 0.500000
vt 1.000000 0.125000
vt 0.000000 0.375000
vt 0.000000 0.125000
vt 0.000000 1.000000
vt 1.000000 1.000000
vt 0.000000 1.000000
vt 0.125000 0.875000
vt 0.125000 1.000000
vt 0.250000 1.000000
vt 0.375000 0.750000
vt 0.375000 1.000000
vt 1.000000 0.000000
vt 0.875000 0.125000
vt 0.875000 0.000000
vt 0.125000 0.750000
vt 0.000000 1.000000
vt 0.000000 0.750000
vt 0.500000 1.000000
vt 0.250000 0.750000
vt 0.750000 0.375000
vt 0.625000 0.250000
vt 0.750000 0.250000
vt 0.625000 0.875000
vt 0.750000 0.500000
vt 0.750000 0.875000
vt 0.625000 0.750000
vt 0.500000 0.625000
vt 0.625000 0.625000
vt 0.500000 0.500000
vt 0.375000 0.875000
vt 0.375000 0.500000
vt 0.250000 0.375000
vt 0.250000 0.875000
vt 0.625000 0.500000
vt 0.750000 0.250000
vt 0.250000 0.875000
vt 0.000000 0.750000
vt 1.000000 0.375000
vt 0.000000 0.875000
vt 0.125000 1.000000
vt 0.500000 0.750000
vt 0.625000 0.375000
vt 0.500000 0.875000
vt 0.375000 0.375000
vt 0.000000 0.250000
vt 1.000000 0.125000
vt 0.500000 0.750000
vn -1.0000 0.0000 0.0000
vn 0.0000 0.0000 -1.0000
vn 1.0000 0.0000 0.0000
vn -0.0000 0.0000 1.0000
vn -0.0000 -1.0000 0.0000
vn -0.0000 1.0000 0.0000
usemtl Material.001
s off
f 2/1/1 3/2/1 1/3/1
f 4/4/2 7/5/2 3/6/2
f 8/7/3 5/8/3 7/9/3
f 6/10/4 1/11/4 5/12/4
f 7/13/5 1/14/5 3/15/5
f 4/16/6 6/10/6 8/17/6
f 10/18/6 11/19/6 9/20/6
f 12/21/2 15/22/2 11/23/2
f 16/24/5 13/25/5 15/26/5
f 14/27/4 9/28/4 13/29/4
f 15/22/1 9/30/1 11/23/1
f 12/21/3 14/27/3 16/31/3
f 18/32/4 19/33/4 17/34/4
f 20/35/1 23/36/1 19/37/1
f 24/38/2 21/39/2 23/40/2
f 22/41/3 17/42/3 21/43/3
f 23/44/5 17/42/5 19/45/5
f 20/35/6 22/41/6 24/46/6
f 2/1/1 4/47/1 3/2/1
f 8/7/3 6/48/3 5/8/3
f 6/10/4 2/49/4 1/11/4
f 7/13/5 5/50/5 1/14/5
f 4/16/6 2/49/6 6/10/6
f 10/18/6 12/51/6 11/19/6
f 14/27/4 10/52/4 9/28/4
f 15/22/1 13/53/1 9/30/1
f 12/21/3 10/52/3 14/27/3
f 18/32/4 20/54/4 19/33/4
f 20/35/1 24/46/1 23/36/1
f 22/41/3 18/55/3 17/42/3
f 23/44/5 21/56/5 17/42/5
f 20/35/6 18/55/6 22/41/6
f 4/4/2 8/57/2 7/5/2
f 16/24/5 14/58/5 13/25/5
f 24/38/2 22/59/2 21/39/2
f 12/21/2 16/31/2 15/22/2
