# Blender v2.81 (sub 16) OBJ File: 'Nature Pack Low Poly.blend'
# www.blender.org
mtllib Clouds_2.mtl
o Clouds_2_Icosphere.009
v 5.749481 -1.951734 5.653314
v 7.508360 -0.942289 -2.740876
v 0.951612 0.691716 8.312438
v 7.298127 3.136759 2.168969
v -0.813571 -3.927528 7.174796
v 5.843283 -5.896237 1.496601
v 1.193222 -7.827385 -2.191789
v -2.091041 -7.561776 1.977095
v 1.619522 -4.590733 -6.491923
v -8.020267 -3.054949 0.859438
v -5.718301 1.451985 5.911243
v -3.939642 -3.174934 -6.794559
v -0.020777 3.691122 -7.393617
v -6.479051 4.257194 -2.227118
v 5.361355 2.328309 -5.772271
v 2.149726 7.636353 0.241388
v -1.481252 6.860969 4.113523
v -1.327206 7.570348 -3.298980
v -14.941162 1.305757 -0.187786
v -8.957071 -3.130147 -4.850715
v -9.651804 5.310043 1.637084
v -6.236173 -3.139121 3.476651
v -6.308839 -4.158267 -1.703935
v -10.676715 -5.768919 0.274296
v -11.590246 -2.308343 4.837630
v -3.931183 -0.236315 2.553033
v -12.275153 2.424724 3.441374
v -12.238574 -1.749206 -4.448243
v -5.421554 -0.272247 -4.072999
v -6.971906 3.177824 3.939809
v -4.994016 3.371389 -0.228487
v -9.743461 3.956266 -4.833539
v 11.474480 -1.278990 4.754222
v 5.686265 -3.413916 3.559826
v 8.299037 1.881997 5.353919
v 5.804420 1.693837 -4.298388
v 13.193311 -3.945413 0.619638
v 8.262297 -5.449585 -1.317265
v 14.383596 1.838432 0.794747
v 4.100891 -1.877305 -2.293651
v 11.235833 -2.679188 -4.880124
v 10.378945 5.284318 1.057399
v 4.850685 4.441153 -0.001641
v 10.763420 3.333936 -4.450267
vt 0.818181 0.000000
vt 0.772726 0.078731
vt 0.863635 0.078731
vt 0.745851 0.189641
vt 0.655088 0.125028
vt 0.675987 0.297680
vt 0.582716 0.222001
vt 0.454545 0.157461
vt 0.522326 0.274862
vt 0.886227 0.157461
vt 0.855464 0.250345
vt 0.969823 0.262654
vt 0.772726 0.393651
vt 0.567466 0.434255
vt 0.500000 0.393651
vt 0.410161 0.303398
vt 0.230841 0.314921
vt 0.352253 0.393651
vt 0.227273 0.393651
vt 0.136363 0.393651
vt 0.181818 0.472382
vt 0.060733 0.262654
vt 0.705260 0.434255
vt 0.337122 0.172783
vt 0.155609 0.183181
vt 0.911000 0.375293
vt 0.000000 0.157461
vt 0.466093 0.053065
vt 0.290534 0.030844
vt 0.227273 0.078731
vt 0.085661 0.078731
vt 0.615271 0.036534
vt 0.454545 0.000000
vt 0.416181 0.151658
vt 0.500000 0.078731
vt 0.765155 0.136160
vt 0.600551 0.095432
vt 0.701289 0.236191
vt 0.409480 0.151658
vt 0.300081 0.204840
vt 0.392208 0.325098
vt 0.601282 0.338286
vt 0.416717 0.325098
vt 0.545454 0.472382
vt 0.227273 0.393651
vt 0.190791 0.277216
vt 0.167099 0.446888
vt 0.083332 0.301797
vt 0.971078 0.301797
vt 0.781616 0.314921
vt 0.906148 0.416298
vt 0.753391 0.427142
vt 0.628261 0.338286
vt 0.520599 0.231004
vt 0.893303 0.184806
vt 0.041248 0.157461
vt 0.252497 0.035039
vt 0.109067 0.038628
vt 0.710158 0.127817
vt 0.636363 0.000000
vt 0.821914 0.006467
vt 0.818181 0.000000
vt 0.772726 0.078731
vt 0.879669 0.106502
vt 0.779681 0.201022
vt 0.647710 0.133774
vt 0.662101 0.280034
vt 0.880224 0.287585
vt 0.478254 0.165698
vt 0.252321 0.192806
vt 0.315385 0.287058
vt 0.485331 0.327035
vt 0.726292 0.420125
vt 0.561029 0.445405
vt 0.424861 0.347640
vt 0.318182 0.393651
vt 0.363636 0.472382
vt 0.976081 0.356350
vt 0.886887 0.433925
vt 0.185027 0.356350
vt 0.070720 0.142785
vt 0.045454 0.236191
vt 0.500000 0.078731
vt 0.432606 0.037999
vt 0.291704 0.043130
vn 0.2132 -0.9499 0.2285
vn 0.9684 -0.1696 0.1828
vn 0.6293 -0.2643 -0.7309
vn -0.3469 -0.0972 0.9329
vn 0.4107 0.6181 0.6703
vn 0.6881 0.6856 -0.2376
vn 0.4424 0.7763 -0.4490
vn 0.3597 0.7320 -0.5787
vn -0.4929 0.5477 -0.6761
vn -0.1128 0.9893 0.0923
vn -0.5292 0.8456 0.0699
vn -0.7046 0.6480 0.2892
vn 0.4269 0.7218 0.5448
vn 0.8997 0.3539 -0.2555
vn -0.5873 0.2686 -0.7635
vn -0.9434 0.2763 0.1834
vn -0.2494 0.4757 0.8435
vn 0.5894 0.3266 0.7389
vn 0.2765 -0.0497 -0.9597
vn 0.0280 -0.1027 -0.9943
vn -0.8824 -0.0125 -0.4703
vn -0.6270 -0.4172 0.6579
vn 0.3077 -0.3367 0.8899
vn 0.9685 -0.1696 0.1823
vn 0.6549 -0.6336 -0.4119
vn -0.1658 -0.7799 -0.6035
vn -0.4667 -0.8265 -0.3150
vn -0.5471 -0.7891 -0.2793
vn -0.5652 -0.6044 0.5615
vn 0.6305 -0.6159 -0.4724
vn 0.2051 -0.8251 0.5265
vn 0.3533 -0.6746 0.6481
vn 0.1436 -0.8986 -0.4145
vn 0.7949 -0.5973 0.1064
vn -0.1266 -0.0116 -0.9919
vn 0.3076 0.9305 -0.1990
vn -0.5594 0.8129 -0.1621
vn -0.6374 0.7313 0.2427
vn -0.1605 0.6241 0.7647
vn 0.4572 0.8516 0.2565
vn 0.6221 0.5326 -0.5739
vn -0.7145 0.2688 -0.6460
vn -0.1273 0.2637 0.9562
vn 0.7613 0.5214 0.3854
vn 0.1961 0.0241 -0.9803
vn -0.8126 0.0536 0.5804
vn 0.3107 -0.1070 0.9445
vn 0.2596 0.0995 0.9606
vn 0.9688 0.1169 -0.2185
vn 0.9196 -0.3350 -0.2050
vn 0.5620 -0.5203 -0.6430
vn -0.3845 -0.7618 -0.5213
vn -0.8404 -0.5172 -0.1623
vn -0.8439 -0.4952 0.2066
vn 0.4080 -0.8969 0.1707
vn 0.0314 -0.7934 0.6079
vn 0.1048 -0.8969 0.4297
vn 0.8567 -0.1908 0.4792
vn -0.0951 -0.2770 0.9562
vn -0.3544 -0.3235 -0.8774
vn -0.0527 0.0671 -0.9964
vn 0.5077 0.5387 0.6724
vn 0.6278 0.7465 -0.2205
vn -0.0784 0.9380 -0.3376
vn -0.2755 0.7810 -0.5605
vn -0.2266 0.8140 0.5349
vn 0.8322 0.1043 -0.5446
vn -0.9062 0.2350 -0.3514
vn -0.9639 0.0180 0.2658
vn 0.5481 0.4126 0.7276
vn -0.7834 0.1856 0.5931
vn 0.9137 -0.1769 -0.3659
vn 0.3933 -0.8554 -0.3369
vn -0.3331 -0.5892 -0.7361
vn -0.6479 -0.7614 -0.0244
vn 0.1723 -0.7936 0.5835
usemtl Snow
s off
f 7/1/1 6/2/1 8/3/1
f 1/4/2 6/5/2 4/6/2
f 2/7/3 9/8/3 15/9/3
f 5/10/4 3/11/4 11/12/4
f 3/11/5 4/6/5 17/13/5
f 4/6/6 15/9/6 16/14/6
f 16/14/7 15/9/7 18/15/7
f 15/9/8 13/16/8 18/15/8
f 13/16/9 14/17/9 18/18/9
f 18/19/10 17/20/10 16/21/10
f 18/19/11 14/17/11 17/20/11
f 14/17/12 11/22/12 17/20/12
f 17/13/13 4/6/13 16/23/13
f 2/7/14 15/9/14 4/6/14
f 12/24/15 14/17/15 13/16/15
f 10/25/16 11/22/16 14/17/16
f 11/12/17 3/11/17 17/26/17
f 1/4/18 4/6/18 3/11/18
f 15/9/19 9/8/19 13/16/19
f 9/8/20 12/24/20 13/16/20
f 12/24/21 10/25/21 14/17/21
f 10/25/22 5/27/22 11/22/22
f 3/11/23 5/10/23 1/4/23
f 4/6/24 6/5/24 2/7/24
f 7/28/25 9/8/25 2/7/25
f 7/28/26 12/24/26 9/8/26
f 7/29/27 8/30/27 12/24/27
f 8/30/28 10/25/28 12/24/28
f 8/31/29 5/27/29 10/25/29
f 6/5/30 7/32/30 2/7/30
f 8/3/31 6/2/31 5/10/31
f 6/2/32 1/4/32 5/10/32
f 24/33/33 20/34/33 23/35/33
f 22/36/34 23/37/34 26/38/34
f 20/39/35 28/40/35 32/41/35
f 31/42/36 32/43/36 21/44/36
f 32/45/37 19/46/37 21/47/37
f 19/46/38 27/48/38 21/47/38
f 27/49/39 30/50/39 21/51/39
f 21/52/40 30/50/40 31/53/40
f 29/54/41 32/41/41 31/53/41
f 28/40/42 19/46/42 32/41/42
f 25/55/43 30/50/43 27/49/43
f 26/38/44 31/53/44 30/50/44
f 29/54/45 20/34/45 32/41/45
f 19/46/46 25/56/46 27/48/46
f 25/55/47 26/38/47 30/50/47
f 25/55/48 22/36/48 26/38/48
f 26/38/49 29/54/49 31/53/49
f 26/38/50 23/37/50 29/54/50
f 23/35/51 20/34/51 29/54/51
f 20/39/52 24/57/52 28/40/52
f 24/57/53 19/46/53 28/40/53
f 24/58/54 25/56/54 19/46/54
f 22/59/55 24/60/55 23/37/55
f 24/61/56 22/36/56 25/55/56
f 38/62/57 37/63/57 34/64/57
f 33/65/58 37/66/58 39/67/58
f 34/64/59 33/65/59 35/68/59
f 41/69/60 40/70/60 36/71/60
f 41/69/61 36/71/61 44/72/61
f 35/68/62 39/67/62 42/73/62
f 39/67/63 44/72/63 42/74/63
f 44/75/64 43/76/64 42/77/64
f 44/75/65 36/71/65 43/76/65
f 43/78/66 35/68/66 42/79/66
f 39/67/67 41/69/67 44/72/67
f 40/70/68 43/80/68 36/71/68
f 40/70/69 34/81/69 43/80/69
f 33/65/70 39/67/70 35/68/70
f 34/81/71 35/82/71 43/80/71
f 37/66/72 41/69/72 39/67/72
f 37/83/73 38/84/73 41/69/73
f 38/85/74 40/70/74 41/69/74
f 38/85/75 34/81/75 40/70/75
f 34/64/76 37/63/76 33/65/76
