# Blender 3.5.0
# www.blender.org
mtllib body.mtl
o 立方体
v -0.500336 0.000000 -0.499664
v -0.500336 2.000000 -0.499664
v 0.499664 0.000000 -0.500336
v 0.499664 2.000000 -0.500336
v -0.499664 0.000000 0.500336
v -0.499664 2.000000 0.500336
v 0.500336 0.000000 0.499664
v 0.500336 2.000000 0.499664
vn -0.0007 -0.0000 -1.0000
vn 1.0000 -0.0000 -0.0007
vn 0.0007 -0.0000 1.0000
vn -1.0000 -0.0000 0.0007
vn -0.0000 -1.0000 -0.0000
vn -0.0000 1.0000 -0.0000
vt 0.568253 0.231747
vt 0.031747 0.631747
vt 0.631747 0.168253
vt 0.568253 0.368253
vt 0.031747 0.768253
vt 0.368253 0.768253
vt 0.368253 0.431747
vt 0.631747 0.031747
vt 0.431747 0.231747
vt 0.431747 0.368253
vt 0.368253 0.568253
vt 0.368253 0.631747
vt 0.168253 0.631747
vt 0.431747 0.431747
vt 0.768253 0.168253
vt 0.431747 0.568253
vt 0.168253 0.768253
vt 0.231747 0.768253
vt 0.568253 0.431747
vt 0.231747 0.431747
vt 0.768253 0.031747
vt 0.231747 0.631747
vt 0.231747 0.568253
vt 0.568253 0.568253
s 0
usemtl player
f 2/4/1 3/9/1 1/1/1
f 4/11/2 7/20/2 3/7/2
f 8/24/3 5/14/3 7/19/3
f 6/17/4 1/2/4 5/13/4
f 7/21/5 1/3/5 3/8/5
f 4/12/6 6/18/6 8/22/6
f 2/4/1 4/10/1 3/9/1
f 4/11/2 8/23/2 7/20/2
f 8/24/3 6/16/3 5/14/3
f 6/17/4 2/5/4 1/2/4
f 7/21/5 5/15/5 1/3/5
f 4/12/6 2/6/6 6/18/6
