# Blender 3.5.0
# www.blender.org
mtllib right.mtl
o 立方体.001
v -1.376785 -1.095817 -0.449546
v -0.871142 0.316389 -0.449885
v -0.529462 -1.399203 -0.450115
v -0.023819 0.013003 -0.450454
v -1.376181 -1.095817 0.450454
v -0.870538 0.316389 0.450115
v -0.528858 -1.399203 0.449885
v -0.023215 0.013003 0.449546
vn -0.0007 -0.0000 -1.0000
vn 0.9415 -0.3371 -0.0006
vn 0.0007 -0.0000 1.0000
vn -0.9415 0.3371 0.0006
vn -0.3371 -0.9415 0.0002
vn 0.3371 0.9415 -0.0002
vt 0.768253 0.231747
vt 0.631747 0.631747
vt 0.031747 0.968253
vt 0.768253 0.368253
vt 0.631747 0.768253
vt 0.968253 0.168253
vt 0.568253 0.631747
vt 0.031747 0.831747
vt 0.631747 0.231747
vt 0.631747 0.368253
vt 0.568253 0.768253
vt 0.968253 0.031747
vt 0.768253 0.631747
vt 0.631747 0.431747
vt 0.168253 0.968253
vt 0.631747 0.568253
vt 0.768253 0.768253
vt 0.831747 0.168253
vt 0.768253 0.431747
vt 0.431747 0.631747
vt 0.168253 0.831747
vt 0.831747 0.031747
vt 0.431747 0.768253
vt 0.768253 0.568253
s 0
usemtl player
f 2/4/1 3/9/1 1/1/1
f 4/11/2 7/20/2 3/7/2
f 8/24/3 5/14/3 7/19/3
f 6/17/4 1/2/4 5/13/4
f 7/21/5 1/3/5 3/8/5
f 4/12/6 6/18/6 8/22/6
f 2/4/1 4/10/1 3/9/1
f 4/11/2 8/23/2 7/20/2
f 8/24/3 6/16/3 5/14/3
f 6/17/4 2/5/4 1/2/4
f 7/21/5 5/15/5 1/3/5
f 4/12/6 2/6/6 6/18/6
