{
	"asset":{
		"generator":"Khronos glTF Blender I/O v4.0.44",
		"version":"2.0"
	},
	"scene":0,
	"scenes":[
		{
			"name":"Scene",
			"nodes":[
				0
			]
		}
	],
	"nodes":[
		{
			"mesh":0,
			"name":"BirchTree_2"
		}
	],
	"materials":[
		{
			"doubleSided":true,
			"name":"BirchTree_Bark",
			"normalTexture":{
				"index":0
			},
			"pbrMetallicRoughness":{
				"baseColorTexture":{
					"index":1
				},
				"metallicFactor":0,
				"roughnessFactor":0.5
			}
		},
		{
			"alphaMode":"BLEND",
			"doubleSided":true,
			"name":"BirchTree_Leaves",
			"pbrMetallicRoughness":{
				"baseColorTexture":{
					"index":2
				},
				"metallicFactor":0,
				"roughnessFactor":0.5
			}
		}
	],
	"meshes":[
		{
			"name":"Cube.002",
			"primitives":[
				{
					"attributes":{
						"POSITION":0,
						"NORMAL":1,
						"TEXCOORD_0":2
					},
					"indices":3,
					"material":0
				},
				{
					"attributes":{
						"POSITION":4,
						"NORMAL":5,
						"TEXCOORD_0":6
					},
					"indices":7,
					"material":1
				}
			]
		}
	],
	"textures":[
		{
			"sampler":0,
			"source":0
		},
		{
			"sampler":0,
			"source":1
		},
		{
			"sampler":0,
			"source":2
		}
	],
	"images":[
		{
			"mimeType":"image/png",
			"name":"BirchTree_Bark_Normal",
			"uri":"BirchTree_Bark_Normal.png"
		},
		{
			"mimeType":"image/jpeg",
			"name":"BirchTree_Bark",
			"uri":"BirchTree_Bark.jpg"
		},
		{
			"mimeType":"image/png",
			"name":"BirchTree_Leaves",
			"uri":"BirchTree_Leaves.png"
		}
	],
	"accessors":[
		{
			"bufferView":0,
			"componentType":5126,
			"count":3343,
			"max":[
				0.9988946914672852,
				6.980755805969238,
				1.3765312433242798
			],
			"min":[
				-1.5172796249389648,
				-0.030497614294290543,
				-1.0557466745376587
			],
			"type":"VEC3"
		},
		{
			"bufferView":1,
			"componentType":5126,
			"count":3343,
			"type":"VEC3"
		},
		{
			"bufferView":2,
			"componentType":5126,
			"count":3343,
			"type":"VEC2"
		},
		{
			"bufferView":3,
			"componentType":5123,
			"count":16392,
			"type":"SCALAR"
		},
		{
			"bufferView":4,
			"componentType":5126,
			"count":4392,
			"max":[
				1.6454285383224487,
				7.539974212646484,
				1.5346627235412598
			],
			"min":[
				-1.701135277748108,
				2.6353759765625,
				-1.278183937072754
			],
			"type":"VEC3"
		},
		{
			"bufferView":5,
			"componentType":5126,
			"count":4392,
			"type":"VEC3"
		},
		{
			"bufferView":6,
			"componentType":5126,
			"count":4392,
			"type":"VEC2"
		},
		{
			"bufferView":7,
			"componentType":5123,
			"count":6588,
			"type":"SCALAR"
		}
	],
	"bufferViews":[
		{
			"buffer":0,
			"byteLength":40116,
			"byteOffset":0,
			"target":34962
		},
		{
			"buffer":0,
			"byteLength":40116,
			"byteOffset":40116,
			"target":34962
		},
		{
			"buffer":0,
			"byteLength":26744,
			"byteOffset":80232,
			"target":34962
		},
		{
			"buffer":0,
			"byteLength":32784,
			"byteOffset":106976,
			"target":34963
		},
		{
			"buffer":0,
			"byteLength":52704,
			"byteOffset":139760,
			"target":34962
		},
		{
			"buffer":0,
			"byteLength":52704,
			"byteOffset":192464,
			"target":34962
		},
		{
			"buffer":0,
			"byteLength":35136,
			"byteOffset":245168,
			"target":34962
		},
		{
			"buffer":0,
			"byteLength":13176,
			"byteOffset":280304,
			"target":34963
		}
	],
	"samplers":[
		{
			"magFilter":9729,
			"minFilter":9987
		}
	],
	"buffers":[
		{
			"byteLength":293480,
			"uri":"BirchTree_2.bin"
		}
	]
}
