{
	"asset":{
		"generator":"Khronos glTF Blender I/O v4.0.44",
		"version":"2.0"
	},
	"scene":0,
	"scenes":[
		{
			"name":"Scene",
			"nodes":[
				0
			]
		}
	],
	"nodes":[
		{
			"mesh":0,
			"name":"BirchTree_4"
		}
	],
	"materials":[
		{
			"doubleSided":true,
			"name":"BirchTree_Bark",
			"normalTexture":{
				"index":0
			},
			"pbrMetallicRoughness":{
				"baseColorTexture":{
					"index":1
				},
				"metallicFactor":0,
				"roughnessFactor":0.5
			}
		},
		{
			"alphaMode":"BLEND",
			"doubleSided":true,
			"name":"BirchTree_Leaves",
			"pbrMetallicRoughness":{
				"baseColorTexture":{
					"index":2
				},
				"metallicFactor":0,
				"roughnessFactor":0.5
			}
		}
	],
	"meshes":[
		{
			"name":"Cube.008",
			"primitives":[
				{
					"attributes":{
						"POSITION":0,
						"NORMAL":1,
						"TEXCOORD_0":2
					},
					"indices":3,
					"material":0
				},
				{
					"attributes":{
						"POSITION":4,
						"NORMAL":5,
						"TEXCOORD_0":6
					},
					"indices":7,
					"material":1
				}
			]
		}
	],
	"textures":[
		{
			"sampler":0,
			"source":0
		},
		{
			"sampler":0,
			"source":1
		},
		{
			"sampler":0,
			"source":2
		}
	],
	"images":[
		{
			"mimeType":"image/png",
			"name":"BirchTree_Bark_Normal",
			"uri":"BirchTree_Bark_Normal.png"
		},
		{
			"mimeType":"image/jpeg",
			"name":"BirchTree_Bark",
			"uri":"BirchTree_Bark.jpg"
		},
		{
			"mimeType":"image/png",
			"name":"BirchTree_Leaves",
			"uri":"BirchTree_Leaves.png"
		}
	],
	"accessors":[
		{
			"bufferView":0,
			"componentType":5126,
			"count":1506,
			"max":[
				0.8901490569114685,
				3.914390802383423,
				0.6418969631195068
			],
			"min":[
				-1.0127718448638916,
				-0.012601720169186592,
				-0.6777445077896118
			],
			"type":"VEC3"
		},
		{
			"bufferView":1,
			"componentType":5126,
			"count":1506,
			"type":"VEC3"
		},
		{
			"bufferView":2,
			"componentType":5126,
			"count":1506,
			"type":"VEC2"
		},
		{
			"bufferView":3,
			"componentType":5123,
			"count":7392,
			"type":"SCALAR"
		},
		{
			"bufferView":4,
			"componentType":5126,
			"count":2196,
			"max":[
				1.4235057830810547,
				4.202384948730469,
				0.9662778377532959
			],
			"min":[
				-1.3528141975402832,
				1.9233697652816772,
				-0.8725736141204834
			],
			"type":"VEC3"
		},
		{
			"bufferView":5,
			"componentType":5126,
			"count":2196,
			"type":"VEC3"
		},
		{
			"bufferView":6,
			"componentType":5126,
			"count":2196,
			"type":"VEC2"
		},
		{
			"bufferView":7,
			"componentType":5123,
			"count":3294,
			"type":"SCALAR"
		}
	],
	"bufferViews":[
		{
			"buffer":0,
			"byteLength":18072,
			"byteOffset":0,
			"target":34962
		},
		{
			"buffer":0,
			"byteLength":18072,
			"byteOffset":18072,
			"target":34962
		},
		{
			"buffer":0,
			"byteLength":12048,
			"byteOffset":36144,
			"target":34962
		},
		{
			"buffer":0,
			"byteLength":14784,
			"byteOffset":48192,
			"target":34963
		},
		{
			"buffer":0,
			"byteLength":26352,
			"byteOffset":62976,
			"target":34962
		},
		{
			"buffer":0,
			"byteLength":26352,
			"byteOffset":89328,
			"target":34962
		},
		{
			"buffer":0,
			"byteLength":17568,
			"byteOffset":115680,
			"target":34962
		},
		{
			"buffer":0,
			"byteLength":6588,
			"byteOffset":133248,
			"target":34963
		}
	],
	"samplers":[
		{
			"magFilter":9729,
			"minFilter":9987
		}
	],
	"buffers":[
		{
			"byteLength":139836,
			"uri":"BirchTree_4.bin"
		}
	]
}
