{
	"asset":{
		"generator":"Khronos glTF Blender I/O v4.0.44",
		"version":"2.0"
	},
	"scene":0,
	"scenes":[
		{
			"name":"Scene",
			"nodes":[
				0
			]
		}
	],
	"nodes":[
		{
			"mesh":0,
			"name":"BirchTree_3"
		}
	],
	"materials":[
		{
			"doubleSided":true,
			"name":"BirchTree_Bark",
			"normalTexture":{
				"index":0
			},
			"pbrMetallicRoughness":{
				"baseColorTexture":{
					"index":1
				},
				"metallicFactor":0,
				"roughnessFactor":0.5
			}
		},
		{
			"alphaMode":"BLEND",
			"doubleSided":true,
			"name":"BirchTree_Leaves",
			"pbrMetallicRoughness":{
				"baseColorTexture":{
					"index":2
				},
				"metallicFactor":0,
				"roughnessFactor":0.5
			}
		}
	],
	"meshes":[
		{
			"name":"Cube.000",
			"primitives":[
				{
					"attributes":{
						"POSITION":0,
						"NORMAL":1,
						"TEXCOORD_0":2,
						"TEXCOORD_1":3
					},
					"indices":4,
					"material":0
				},
				{
					"attributes":{
						"POSITION":5,
						"NORMAL":6,
						"TEXCOORD_0":7,
						"TEXCOORD_1":8
					},
					"indices":9,
					"material":1
				}
			]
		}
	],
	"textures":[
		{
			"sampler":0,
			"source":0
		},
		{
			"sampler":0,
			"source":1
		},
		{
			"sampler":0,
			"source":2
		}
	],
	"images":[
		{
			"mimeType":"image/png",
			"name":"BirchTree_Bark_Normal",
			"uri":"BirchTree_Bark_Normal.png"
		},
		{
			"mimeType":"image/jpeg",
			"name":"BirchTree_Bark",
			"uri":"BirchTree_Bark.jpg"
		},
		{
			"mimeType":"image/png",
			"name":"BirchTree_Leaves",
			"uri":"BirchTree_Leaves.png"
		}
	],
	"accessors":[
		{
			"bufferView":0,
			"componentType":5126,
			"count":1646,
			"max":[
				1.4055445194244385,
				5.545559406280518,
				0.8506550192832947
			],
			"min":[
				-1.446382761001587,
				-0.008469140157103539,
				-0.5328736305236816
			],
			"type":"VEC3"
		},
		{
			"bufferView":1,
			"componentType":5126,
			"count":1646,
			"type":"VEC3"
		},
		{
			"bufferView":2,
			"componentType":5126,
			"count":1646,
			"type":"VEC2"
		},
		{
			"bufferView":3,
			"componentType":5126,
			"count":1646,
			"type":"VEC2"
		},
		{
			"bufferView":4,
			"componentType":5123,
			"count":8040,
			"type":"SCALAR"
		},
		{
			"bufferView":5,
			"componentType":5126,
			"count":8276,
			"max":[
				1.7693895101547241,
				5.745725154876709,
				1.3416640758514404
			],
			"min":[
				-1.66342294216156,
				2.2327804565429688,
				-0.9253931045532227
			],
			"type":"VEC3"
		},
		{
			"bufferView":6,
			"componentType":5126,
			"count":8276,
			"type":"VEC3"
		},
		{
			"bufferView":7,
			"componentType":5126,
			"count":8276,
			"type":"VEC2"
		},
		{
			"bufferView":8,
			"componentType":5126,
			"count":8276,
			"type":"VEC2"
		},
		{
			"bufferView":9,
			"componentType":5123,
			"count":12414,
			"type":"SCALAR"
		}
	],
	"bufferViews":[
		{
			"buffer":0,
			"byteLength":19752,
			"byteOffset":0,
			"target":34962
		},
		{
			"buffer":0,
			"byteLength":19752,
			"byteOffset":19752,
			"target":34962
		},
		{
			"buffer":0,
			"byteLength":13168,
			"byteOffset":39504,
			"target":34962
		},
		{
			"buffer":0,
			"byteLength":13168,
			"byteOffset":52672,
			"target":34962
		},
		{
			"buffer":0,
			"byteLength":16080,
			"byteOffset":65840,
			"target":34963
		},
		{
			"buffer":0,
			"byteLength":99312,
			"byteOffset":81920,
			"target":34962
		},
		{
			"buffer":0,
			"byteLength":99312,
			"byteOffset":181232,
			"target":34962
		},
		{
			"buffer":0,
			"byteLength":66208,
			"byteOffset":280544,
			"target":34962
		},
		{
			"buffer":0,
			"byteLength":66208,
			"byteOffset":346752,
			"target":34962
		},
		{
			"buffer":0,
			"byteLength":24828,
			"byteOffset":412960,
			"target":34963
		}
	],
	"samplers":[
		{
			"magFilter":9729,
			"minFilter":9987
		}
	],
	"buffers":[
		{
			"byteLength":437788,
			"uri":"BirchTree_3.bin"
		}
	]
}
