{
	"asset":{
		"generator":"Khronos glTF Blender I/O v4.0.44",
		"version":"2.0"
	},
	"scene":0,
	"scenes":[
		{
			"name":"Scene",
			"nodes":[
				0
			]
		}
	],
	"nodes":[
		{
			"mesh":0,
			"name":"Bush_Flowers",
			"rotation":[
				0.7904141545295715,
				0.20954930782318115,
				-0.402734637260437,
				0.4112655818462372
			]
		}
	],
	"materials":[
		{
			"alphaMode":"BLEND",
			"doubleSided":true,
			"name":"Bush_Leaves",
			"pbrMetallicRoughness":{
				"baseColorTexture":{
					"index":0
				},
				"metallicFactor":0,
				"roughnessFactor":0.5
			}
		},
		{
			"alphaMode":"BLEND",
			"doubleSided":true,
			"name":"Flowers",
			"pbrMetallicRoughness":{
				"baseColorTexture":{
					"index":1
				},
				"metallicFactor":0,
				"roughnessFactor":0.5
			}
		}
	],
	"meshes":[
		{
			"name":"Plane.003",
			"primitives":[
				{
					"attributes":{
						"POSITION":0,
						"NORMAL":1,
						"TEXCOORD_0":2
					},
					"indices":3,
					"material":0
				},
				{
					"attributes":{
						"POSITION":4,
						"NORMAL":5,
						"TEXCOORD_0":6
					},
					"indices":7,
					"material":1
				}
			]
		}
	],
	"textures":[
		{
			"sampler":0,
			"source":0
		},
		{
			"sampler":0,
			"source":1
		}
	],
	"images":[
		{
			"mimeType":"image/png",
			"name":"Bush_Leaves",
			"uri":"Bush_Leaves.png"
		},
		{
			"mimeType":"image/png",
			"name":"Flowers",
			"uri":"Flowers.png"
		}
	],
	"accessors":[
		{
			"bufferView":0,
			"componentType":5126,
			"count":800,
			"max":[
				0.5290597081184387,
				0.47277382016181946,
				0.36149728298187256
			],
			"min":[
				-0.5728190541267395,
				-0.6429753303527832,
				-0.652008593082428
			],
			"type":"VEC3"
		},
		{
			"bufferView":1,
			"componentType":5126,
			"count":800,
			"type":"VEC3"
		},
		{
			"bufferView":2,
			"componentType":5126,
			"count":800,
			"type":"VEC2"
		},
		{
			"bufferView":3,
			"componentType":5123,
			"count":1200,
			"type":"SCALAR"
		},
		{
			"bufferView":4,
			"componentType":5126,
			"count":91,
			"max":[
				0.5439478754997253,
				0.42564618587493896,
				0.3131656348705292
			],
			"min":[
				-0.5594223141670227,
				-0.6218320727348328,
				-0.6686300039291382
			],
			"type":"VEC3"
		},
		{
			"bufferView":5,
			"componentType":5126,
			"count":91,
			"type":"VEC3"
		},
		{
			"bufferView":6,
			"componentType":5126,
			"count":91,
			"type":"VEC2"
		},
		{
			"bufferView":7,
			"componentType":5123,
			"count":234,
			"type":"SCALAR"
		}
	],
	"bufferViews":[
		{
			"buffer":0,
			"byteLength":9600,
			"byteOffset":0,
			"target":34962
		},
		{
			"buffer":0,
			"byteLength":9600,
			"byteOffset":9600,
			"target":34962
		},
		{
			"buffer":0,
			"byteLength":6400,
			"byteOffset":19200,
			"target":34962
		},
		{
			"buffer":0,
			"byteLength":2400,
			"byteOffset":25600,
			"target":34963
		},
		{
			"buffer":0,
			"byteLength":1092,
			"byteOffset":28000,
			"target":34962
		},
		{
			"buffer":0,
			"byteLength":1092,
			"byteOffset":29092,
			"target":34962
		},
		{
			"buffer":0,
			"byteLength":728,
			"byteOffset":30184,
			"target":34962
		},
		{
			"buffer":0,
			"byteLength":468,
			"byteOffset":30912,
			"target":34963
		}
	],
	"samplers":[
		{
			"magFilter":9729,
			"minFilter":9987
		}
	],
	"buffers":[
		{
			"byteLength":31380,
			"uri":"Bush_Flowers.bin"
		}
	]
}
