{
	"asset":{
		"generator":"Khronos glTF Blender I/O v4.0.44",
		"version":"2.0"
	},
	"scene":0,
	"scenes":[
		{
			"name":"Scene",
			"nodes":[
				0
			]
		}
	],
	"nodes":[
		{
			"mesh":0,
			"name":"DeadTree_4"
		}
	],
	"materials":[
		{
			"doubleSided":true,
			"name":"NormalTree_Bark",
			"normalTexture":{
				"index":0
			},
			"pbrMetallicRoughness":{
				"baseColorTexture":{
					"index":1
				},
				"metallicFactor":0,
				"roughnessFactor":0.5
			}
		}
	],
	"meshes":[
		{
			"name":"Cube.001",
			"primitives":[
				{
					"attributes":{
						"POSITION":0,
						"NORMAL":1,
						"TEXCOORD_0":2
					},
					"indices":3,
					"material":0
				}
			]
		}
	],
	"textures":[
		{
			"sampler":0,
			"source":0
		},
		{
			"sampler":0,
			"source":1
		}
	],
	"images":[
		{
			"mimeType":"image/png",
			"name":"NormalTree_Bark_Normal",
			"uri":"NormalTree_Bark_Normal.png"
		},
		{
			"mimeType":"image/jpeg",
			"name":"NormalTree_Bark",
			"uri":"NormalTree_Bark.jpg"
		}
	],
	"accessors":[
		{
			"bufferView":0,
			"componentType":5126,
			"count":2144,
			"max":[
				1.881386399269104,
				4.601271629333496,
				0.7330859303474426
			],
			"min":[
				-2.9681520462036133,
				-0.009213286451995373,
				-0.9362156987190247
			],
			"type":"VEC3"
		},
		{
			"bufferView":1,
			"componentType":5126,
			"count":2144,
			"type":"VEC3"
		},
		{
			"bufferView":2,
			"componentType":5126,
			"count":2144,
			"type":"VEC2"
		},
		{
			"bufferView":3,
			"componentType":5123,
			"count":10584,
			"type":"SCALAR"
		}
	],
	"bufferViews":[
		{
			"buffer":0,
			"byteLength":25728,
			"byteOffset":0,
			"target":34962
		},
		{
			"buffer":0,
			"byteLength":25728,
			"byteOffset":25728,
			"target":34962
		},
		{
			"buffer":0,
			"byteLength":17152,
			"byteOffset":51456,
			"target":34962
		},
		{
			"buffer":0,
			"byteLength":21168,
			"byteOffset":68608,
			"target":34963
		}
	],
	"samplers":[
		{
			"magFilter":9729,
			"minFilter":9987
		}
	],
	"buffers":[
		{
			"byteLength":89776,
			"uri":"DeadTree_4.bin"
		}
	]
}
