{
	"asset":{
		"generator":"Khronos glTF Blender I/O v4.0.44",
		"version":"2.0"
	},
	"scene":0,
	"scenes":[
		{
			"name":"Scene",
			"nodes":[
				0
			]
		}
	],
	"nodes":[
		{
			"mesh":0,
			"name":"DeadTree_10"
		}
	],
	"materials":[
		{
			"doubleSided":true,
			"name":"MapleTree_Bark",
			"normalTexture":{
				"index":0
			},
			"pbrMetallicRoughness":{
				"baseColorTexture":{
					"index":1
				},
				"metallicFactor":0,
				"roughnessFactor":0.5
			}
		}
	],
	"meshes":[
		{
			"name":"Cube.010",
			"primitives":[
				{
					"attributes":{
						"POSITION":0,
						"NORMAL":1,
						"TEXCOORD_0":2
					},
					"indices":3,
					"material":0
				}
			]
		}
	],
	"textures":[
		{
			"sampler":0,
			"source":0
		},
		{
			"sampler":0,
			"source":1
		}
	],
	"images":[
		{
			"mimeType":"image/png",
			"name":"MapleTree_Bark_Normal",
			"uri":"MapleTree_Bark_Normal.png"
		},
		{
			"mimeType":"image/jpeg",
			"name":"MapleTree_Bark",
			"uri":"MapleTree_Bark.jpg"
		}
	],
	"accessors":[
		{
			"bufferView":0,
			"componentType":5126,
			"count":1952,
			"max":[
				2.441612482070923,
				7.126369953155518,
				1.9308204650878906
			],
			"min":[
				-3.0191519260406494,
				0.0006941246683709323,
				-1.3140323162078857
			],
			"type":"VEC3"
		},
		{
			"bufferView":1,
			"componentType":5126,
			"count":1952,
			"type":"VEC3"
		},
		{
			"bufferView":2,
			"componentType":5126,
			"count":1952,
			"type":"VEC2"
		},
		{
			"bufferView":3,
			"componentType":5123,
			"count":9624,
			"type":"SCALAR"
		}
	],
	"bufferViews":[
		{
			"buffer":0,
			"byteLength":23424,
			"byteOffset":0,
			"target":34962
		},
		{
			"buffer":0,
			"byteLength":23424,
			"byteOffset":23424,
			"target":34962
		},
		{
			"buffer":0,
			"byteLength":15616,
			"byteOffset":46848,
			"target":34962
		},
		{
			"buffer":0,
			"byteLength":19248,
			"byteOffset":62464,
			"target":34963
		}
	],
	"samplers":[
		{
			"magFilter":9729,
			"minFilter":9987
		}
	],
	"buffers":[
		{
			"byteLength":81712,
			"uri":"DeadTree_10.bin"
		}
	]
}
