{
	"asset":{
		"generator":"Khronos glTF Blender I/O v4.0.44",
		"version":"2.0"
	},
	"scene":0,
	"scenes":[
		{
			"name":"Scene",
			"nodes":[
				0
			]
		}
	],
	"nodes":[
		{
			"mesh":0,
			"name":"DeadTree_5"
		}
	],
	"materials":[
		{
			"doubleSided":true,
			"name":"NormalTree_Bark",
			"normalTexture":{
				"index":0
			},
			"pbrMetallicRoughness":{
				"baseColorTexture":{
					"index":1
				},
				"metallicFactor":0,
				"roughnessFactor":0.5
			}
		}
	],
	"meshes":[
		{
			"name":"Cylinder.005",
			"primitives":[
				{
					"attributes":{
						"POSITION":0,
						"NORMAL":1,
						"TEXCOORD_0":2
					},
					"indices":3,
					"material":0
				}
			]
		}
	],
	"textures":[
		{
			"sampler":0,
			"source":0
		},
		{
			"sampler":0,
			"source":1
		}
	],
	"images":[
		{
			"mimeType":"image/png",
			"name":"NormalTree_Bark_Normal",
			"uri":"NormalTree_Bark_Normal.png"
		},
		{
			"mimeType":"image/jpeg",
			"name":"NormalTree_Bark",
			"uri":"NormalTree_Bark.jpg"
		}
	],
	"accessors":[
		{
			"bufferView":0,
			"componentType":5126,
			"count":825,
			"max":[
				0.7758885622024536,
				2.603219747543335,
				0.724044680595398
			],
			"min":[
				-0.6647953391075134,
				-0.0004049055278301239,
				-0.8096210360527039
			],
			"type":"VEC3"
		},
		{
			"bufferView":1,
			"componentType":5126,
			"count":825,
			"type":"VEC3"
		},
		{
			"bufferView":2,
			"componentType":5126,
			"count":825,
			"type":"VEC2"
		},
		{
			"bufferView":3,
			"componentType":5123,
			"count":4080,
			"type":"SCALAR"
		}
	],
	"bufferViews":[
		{
			"buffer":0,
			"byteLength":9900,
			"byteOffset":0,
			"target":34962
		},
		{
			"buffer":0,
			"byteLength":9900,
			"byteOffset":9900,
			"target":34962
		},
		{
			"buffer":0,
			"byteLength":6600,
			"byteOffset":19800,
			"target":34962
		},
		{
			"buffer":0,
			"byteLength":8160,
			"byteOffset":26400,
			"target":34963
		}
	],
	"samplers":[
		{
			"magFilter":9729,
			"minFilter":9987
		}
	],
	"buffers":[
		{
			"byteLength":34560,
			"uri":"DeadTree_5.bin"
		}
	]
}
