{
	"asset":{
		"generator":"Khronos glTF Blender I/O v4.0.44",
		"version":"2.0"
	},
	"scene":0,
	"scenes":[
		{
			"name":"Scene",
			"nodes":[
				0
			]
		}
	],
	"nodes":[
		{
			"mesh":0,
			"name":"DeadTree_8"
		}
	],
	"materials":[
		{
			"doubleSided":true,
			"name":"MapleTree_Bark",
			"normalTexture":{
				"index":0
			},
			"pbrMetallicRoughness":{
				"baseColorTexture":{
					"index":1
				},
				"metallicFactor":0,
				"roughnessFactor":0.5
			}
		}
	],
	"meshes":[
		{
			"name":"Cube.008",
			"primitives":[
				{
					"attributes":{
						"POSITION":0,
						"NORMAL":1,
						"TEXCOORD_0":2
					},
					"indices":3,
					"material":0
				}
			]
		}
	],
	"textures":[
		{
			"sampler":0,
			"source":0
		},
		{
			"sampler":0,
			"source":1
		}
	],
	"images":[
		{
			"mimeType":"image/png",
			"name":"MapleTree_Bark_Normal",
			"uri":"MapleTree_Bark_Normal.png"
		},
		{
			"mimeType":"image/jpeg",
			"name":"MapleTree_Bark",
			"uri":"MapleTree_Bark.jpg"
		}
	],
	"accessors":[
		{
			"bufferView":0,
			"componentType":5126,
			"count":2999,
			"max":[
				4.147934913635254,
				6.277482986450195,
				1.93081796169281
			],
			"min":[
				-4.017767429351807,
				0.0006945766508579254,
				-2.8707633018493652
			],
			"type":"VEC3"
		},
		{
			"bufferView":1,
			"componentType":5126,
			"count":2999,
			"type":"VEC3"
		},
		{
			"bufferView":2,
			"componentType":5126,
			"count":2999,
			"type":"VEC2"
		},
		{
			"bufferView":3,
			"componentType":5123,
			"count":14832,
			"type":"SCALAR"
		}
	],
	"bufferViews":[
		{
			"buffer":0,
			"byteLength":35988,
			"byteOffset":0,
			"target":34962
		},
		{
			"buffer":0,
			"byteLength":35988,
			"byteOffset":35988,
			"target":34962
		},
		{
			"buffer":0,
			"byteLength":23992,
			"byteOffset":71976,
			"target":34962
		},
		{
			"buffer":0,
			"byteLength":29664,
			"byteOffset":95968,
			"target":34963
		}
	],
	"samplers":[
		{
			"magFilter":9729,
			"minFilter":9987
		}
	],
	"buffers":[
		{
			"byteLength":125632,
			"uri":"DeadTree_8.bin"
		}
	]
}
