{
	"asset":{
		"generator":"Khronos glTF Blender I/O v4.0.44",
		"version":"2.0"
	},
	"scene":0,
	"scenes":[
		{
			"name":"Scene",
			"nodes":[
				0
			]
		}
	],
	"nodes":[
		{
			"mesh":0,
			"name":"DeadTree_1"
		}
	],
	"materials":[
		{
			"doubleSided":true,
			"name":"NormalTree_Bark",
			"normalTexture":{
				"index":0
			},
			"pbrMetallicRoughness":{
				"baseColorTexture":{
					"index":1
				},
				"metallicFactor":0,
				"roughnessFactor":0.5
			}
		}
	],
	"meshes":[
		{
			"name":"Cylinder.001",
			"primitives":[
				{
					"attributes":{
						"POSITION":0,
						"NORMAL":1,
						"TEXCOORD_0":2
					},
					"indices":3,
					"material":0
				}
			]
		}
	],
	"textures":[
		{
			"sampler":0,
			"source":0
		},
		{
			"sampler":0,
			"source":1
		}
	],
	"images":[
		{
			"mimeType":"image/png",
			"name":"NormalTree_Bark_Normal",
			"uri":"NormalTree_Bark_Normal.png"
		},
		{
			"mimeType":"image/jpeg",
			"name":"NormalTree_Bark",
			"uri":"NormalTree_Bark.jpg"
		}
	],
	"accessors":[
		{
			"bufferView":0,
			"componentType":5126,
			"count":2905,
			"max":[
				1.4404239654541016,
				6.185760498046875,
				0.6190109848976135
			],
			"min":[
				-1.6520121097564697,
				-0.009869025088846684,
				-0.676365852355957
			],
			"type":"VEC3"
		},
		{
			"bufferView":1,
			"componentType":5126,
			"count":2905,
			"type":"VEC3"
		},
		{
			"bufferView":2,
			"componentType":5126,
			"count":2905,
			"type":"VEC2"
		},
		{
			"bufferView":3,
			"componentType":5123,
			"count":14376,
			"type":"SCALAR"
		}
	],
	"bufferViews":[
		{
			"buffer":0,
			"byteLength":34860,
			"byteOffset":0,
			"target":34962
		},
		{
			"buffer":0,
			"byteLength":34860,
			"byteOffset":34860,
			"target":34962
		},
		{
			"buffer":0,
			"byteLength":23240,
			"byteOffset":69720,
			"target":34962
		},
		{
			"buffer":0,
			"byteLength":28752,
			"byteOffset":92960,
			"target":34963
		}
	],
	"samplers":[
		{
			"magFilter":9729,
			"minFilter":9987
		}
	],
	"buffers":[
		{
			"byteLength":121712,
			"uri":"DeadTree_1.bin"
		}
	]
}
