{
	"asset":{
		"generator":"Khronos glTF Blender I/O v4.0.44",
		"version":"2.0"
	},
	"scene":0,
	"scenes":[
		{
			"name":"Scene",
			"nodes":[
				0
			]
		}
	],
	"nodes":[
		{
			"mesh":0,
			"name":"Flower_1_Clump"
		}
	],
	"materials":[
		{
			"alphaMode":"BLEND",
			"doubleSided":true,
			"name":"Flowers",
			"pbrMetallicRoughness":{
				"baseColorTexture":{
					"index":0
				},
				"metallicFactor":0,
				"roughnessFactor":0.5
			}
		}
	],
	"meshes":[
		{
			"name":"Plane.049",
			"primitives":[
				{
					"attributes":{
						"POSITION":0,
						"NORMAL":1,
						"TEXCOORD_0":2
					},
					"indices":3,
					"material":0
				}
			]
		}
	],
	"textures":[
		{
			"sampler":0,
			"source":0
		}
	],
	"images":[
		{
			"mimeType":"image/png",
			"name":"Flowers",
			"uri":"Flowers.png"
		}
	],
	"accessors":[
		{
			"bufferView":0,
			"componentType":5126,
			"count":614,
			"max":[
				0.23249699175357819,
				0.666481614112854,
				0.2129351645708084
			],
			"min":[
				-0.23863986134529114,
				-0.004863256588578224,
				-0.22226478159427643
			],
			"type":"VEC3"
		},
		{
			"bufferView":1,
			"componentType":5126,
			"count":614,
			"type":"VEC3"
		},
		{
			"bufferView":2,
			"componentType":5126,
			"count":614,
			"type":"VEC2"
		},
		{
			"bufferView":3,
			"componentType":5123,
			"count":1860,
			"type":"SCALAR"
		}
	],
	"bufferViews":[
		{
			"buffer":0,
			"byteLength":7368,
			"byteOffset":0,
			"target":34962
		},
		{
			"buffer":0,
			"byteLength":7368,
			"byteOffset":7368,
			"target":34962
		},
		{
			"buffer":0,
			"byteLength":4912,
			"byteOffset":14736,
			"target":34962
		},
		{
			"buffer":0,
			"byteLength":3720,
			"byteOffset":19648,
			"target":34963
		}
	],
	"samplers":[
		{
			"magFilter":9729,
			"minFilter":9987
		}
	],
	"buffers":[
		{
			"byteLength":23368,
			"uri":"Flower_1_Clump.bin"
		}
	]
}
