{
	"asset":{
		"generator":"Khronos glTF Blender I/O v4.0.44",
		"version":"2.0"
	},
	"scene":0,
	"scenes":[
		{
			"name":"Scene",
			"nodes":[
				0
			]
		}
	],
	"nodes":[
		{
			"mesh":0,
			"name":"MapleTree_3"
		}
	],
	"materials":[
		{
			"doubleSided":true,
			"name":"MapleTree_Bark",
			"normalTexture":{
				"index":0
			},
			"pbrMetallicRoughness":{
				"baseColorTexture":{
					"index":1
				},
				"metallicFactor":0,
				"roughnessFactor":0.5
			}
		},
		{
			"alphaMode":"BLEND",
			"doubleSided":true,
			"name":"MapleTree_Leaves",
			"pbrMetallicRoughness":{
				"baseColorTexture":{
					"index":2
				},
				"metallicFactor":0,
				"roughnessFactor":0.5
			}
		}
	],
	"meshes":[
		{
			"name":"Cube.008",
			"primitives":[
				{
					"attributes":{
						"POSITION":0,
						"NORMAL":1,
						"TEXCOORD_0":2
					},
					"indices":3,
					"material":0
				},
				{
					"attributes":{
						"POSITION":4,
						"NORMAL":5,
						"TEXCOORD_0":6
					},
					"indices":7,
					"material":1
				}
			]
		}
	],
	"textures":[
		{
			"sampler":0,
			"source":0
		},
		{
			"sampler":0,
			"source":1
		},
		{
			"sampler":0,
			"source":2
		}
	],
	"images":[
		{
			"mimeType":"image/png",
			"name":"MapleTree_Bark_Normal",
			"uri":"MapleTree_Bark_Normal.png"
		},
		{
			"mimeType":"image/jpeg",
			"name":"MapleTree_Bark",
			"uri":"MapleTree_Bark.jpg"
		},
		{
			"mimeType":"image/png",
			"name":"MapleTree_Leaves",
			"uri":"MapleTree_Leaves.png"
		}
	],
	"accessors":[
		{
			"bufferView":0,
			"componentType":5126,
			"count":2999,
			"max":[
				4.147934913635254,
				6.277482986450195,
				1.93081796169281
			],
			"min":[
				-4.017767429351807,
				0.0006945766508579254,
				-2.8707633018493652
			],
			"type":"VEC3"
		},
		{
			"bufferView":1,
			"componentType":5126,
			"count":2999,
			"type":"VEC3"
		},
		{
			"bufferView":2,
			"componentType":5126,
			"count":2999,
			"type":"VEC2"
		},
		{
			"bufferView":3,
			"componentType":5123,
			"count":14832,
			"type":"SCALAR"
		},
		{
			"bufferView":4,
			"componentType":5126,
			"count":3468,
			"max":[
				4.569456577301025,
				6.987350940704346,
				2.6775949001312256
			],
			"min":[
				-4.410184383392334,
				2.417171001434326,
				-3.935764789581299
			],
			"type":"VEC3"
		},
		{
			"bufferView":5,
			"componentType":5126,
			"count":3468,
			"type":"VEC3"
		},
		{
			"bufferView":6,
			"componentType":5126,
			"count":3468,
			"type":"VEC2"
		},
		{
			"bufferView":7,
			"componentType":5123,
			"count":5202,
			"type":"SCALAR"
		}
	],
	"bufferViews":[
		{
			"buffer":0,
			"byteLength":35988,
			"byteOffset":0,
			"target":34962
		},
		{
			"buffer":0,
			"byteLength":35988,
			"byteOffset":35988,
			"target":34962
		},
		{
			"buffer":0,
			"byteLength":23992,
			"byteOffset":71976,
			"target":34962
		},
		{
			"buffer":0,
			"byteLength":29664,
			"byteOffset":95968,
			"target":34963
		},
		{
			"buffer":0,
			"byteLength":41616,
			"byteOffset":125632,
			"target":34962
		},
		{
			"buffer":0,
			"byteLength":41616,
			"byteOffset":167248,
			"target":34962
		},
		{
			"buffer":0,
			"byteLength":27744,
			"byteOffset":208864,
			"target":34962
		},
		{
			"buffer":0,
			"byteLength":10404,
			"byteOffset":236608,
			"target":34963
		}
	],
	"samplers":[
		{
			"magFilter":9729,
			"minFilter":9987
		}
	],
	"buffers":[
		{
			"byteLength":247012,
			"uri":"MapleTree_3.bin"
		}
	]
}
