# Blender 3.5.0
# www.blender.org
mtllib Foot_L.mtl
o P_Foot_L
v 0.573447 -0.944553 0.552647
v 0.521694 -0.895915 0.541572
v 0.471167 -0.851091 0.516989
v 0.423808 -0.811802 0.479840
v 0.381435 -0.779558 0.431554
v 0.345679 -0.755599 0.373987
v 0.317912 -0.740845 0.309350
v 0.299202 -0.735863 0.240128
v 0.297528 -0.744637 0.172101
v 0.552890 -0.995134 0.556695
v 0.481371 -0.995134 0.549514
v 0.412627 -0.995134 0.528517
v 0.349300 -0.995134 0.494513
v 0.293824 -0.995134 0.448808
v 0.248330 -0.995134 0.393158
v 0.214567 -0.995134 0.329703
v 0.203441 -0.992733 0.261762
v 0.693260 -0.995134 0.529051
v 0.756716 -0.995134 0.495288
v 0.812366 -0.995134 0.449794
v 0.858071 -0.995134 0.394318
v 0.892075 -0.995134 0.330991
v 0.913071 -0.995134 0.262247
v 0.920253 -0.995134 0.190727
v 0.672703 -0.944553 0.533099
v 0.716393 -0.895915 0.503229
v 0.753825 -0.851091 0.461323
v 0.783563 -0.811802 0.408991
v 0.804463 -0.779558 0.348245
v 0.815722 -0.755599 0.281418
v 0.816907 -0.740845 0.211080
v 0.807973 -0.735863 0.139932
v 0.624437 -0.995134 0.549786
v 0.623075 -0.923602 0.542873
v 0.619043 -0.854818 0.522401
v 0.612496 -0.791426 0.489156
v 0.603685 -0.735863 0.444416
v 0.592949 -0.690263 0.389900
v 0.580700 -0.656380 0.327703
v 0.567410 -0.635514 0.260215
v 0.554435 -0.634998 0.192638
v 0.539766 -0.635514 0.119845
v 0.299202 -0.735863 0.240128
v 0.297528 -0.744637 0.172101
v 0.316589 -0.767531 0.115445
v 0.355107 -0.798482 0.069438
v 0.385523 -0.823291 -0.001283
v 0.434607 -0.855170 -0.074699
v 0.490725 -0.895946 -0.130899
v 0.536472 -0.943855 -0.167385
v 0.552890 -0.995134 0.556695
v 0.481371 -0.995134 0.549514
v 0.412627 -0.995134 0.528517
v 0.349300 -0.995134 0.494513
v 0.293824 -0.995134 0.448808
v 0.248330 -0.995134 0.393158
v 0.214567 -0.995134 0.329703
v 0.203441 -0.992733 0.261762
v 0.225031 -0.986788 0.188952
v 0.247222 -0.986788 0.103233
v 0.275385 -0.992733 0.001162
v 0.325808 -0.995134 -0.073243
v 0.382414 -0.995134 -0.119493
v 0.445806 -0.995134 -0.153377
v 0.514590 -0.995134 -0.174242
v 0.693260 -0.995134 0.529051
v 0.756716 -0.995134 0.495288
v 0.812366 -0.995134 0.449794
v 0.858071 -0.995134 0.394318
v 0.892075 -0.995134 0.330991
v 0.913071 -0.995134 0.262247
v 0.920253 -0.995134 0.190727
v 0.913343 -0.995134 0.119181
v 0.885199 -0.992733 0.056368
v 0.862474 -0.992733 0.002018
v 0.853184 -0.995134 -0.045568
v 0.830860 -0.995134 -0.082108
v 0.789520 -0.995134 -0.119622
v 0.726439 -0.995134 -0.153377
v 0.657655 -0.995134 -0.174242
v 0.816907 -0.740845 0.211080
v 0.807973 -0.735863 0.139932
v 0.784371 -0.744637 0.076224
v 0.746840 -0.767531 0.030713
v 0.710845 -0.798482 0.007285
v 0.699948 -0.823291 -0.039177
v 0.696490 -0.855170 -0.087784
v 0.679484 -0.895946 -0.131552
v 0.636163 -0.943855 -0.167385
v 0.586122 -0.995134 -0.181288
v 0.624437 -0.995134 0.549786
v 0.554435 -0.634998 0.192638
v 0.539766 -0.635514 0.119845
v 0.527982 -0.662229 0.058319
v 0.528385 -0.707726 0.014538
v 0.543159 -0.761855 -0.010425
v 0.562530 -0.808430 -0.050932
v 0.584080 -0.858350 -0.115180
v 0.586450 -0.922943 -0.162762
vn -0.3858 0.9191 -0.0802
vn -0.3820 0.9216 0.0684
vn -0.3964 0.9151 0.0734
vn 0.1768 0.4031 0.8979
vn 0.0370 0.1544 0.9873
vn 0.1886 0.2184 0.9575
vn -0.2383 0.4044 0.8830
vn 0.1585 0.5719 0.8048
vn 0.1343 0.7188 0.6821
vn -0.2225 0.7922 0.5683
vn -0.3644 0.5083 0.7803
vn -0.2842 0.8656 0.4123
vn -0.3463 0.9156 0.2043
vn -0.3287 0.9141 0.2375
vn 0.1928 0.0695 0.9788
vn -0.9080 0.3787 0.1793
vn -0.8657 0.3662 0.3414
vn -0.8952 0.3563 0.2676
vn -0.0256 0.0901 0.9956
vn -0.2157 0.1647 0.9625
vn -0.1028 0.2851 0.9530
vn -0.5472 0.2854 0.7869
vn -0.6778 0.3281 0.6579
vn -0.7817 0.3585 0.5102
vn 0.9168 0.3585 0.1757
vn 0.8767 0.3281 0.3518
vn 0.9250 0.3685 0.0929
vn 0.4012 0.0901 0.9115
vn 0.3401 0.1544 0.9276
vn 0.4565 0.2851 0.8428
vn 0.5645 0.1647 0.8088
vn 0.5553 0.4044 0.7267
vn 0.7003 0.2305 0.6756
vn 0.6330 0.5083 0.5839
vn 0.8047 0.2854 0.5206
vn 0.4214 0.7922 0.4415
vn 0.4193 0.8656 0.2737
vn 0.3982 0.9153 0.0599
vn 0.3946 0.9139 0.0954
vn 0.3766 0.9249 -0.0519
vn 0.3728 0.9277 0.0181
vn -0.0001 0.2099 -0.9777
vn -0.1649 0.3392 -0.9261
vn -0.0000 0.4513 -0.8924
vn -0.4522 0.7789 -0.4345
vn -0.4812 0.8235 -0.3006
vn -0.4866 0.8315 -0.2679
vn -0.6187 0.4897 -0.6143
vn -0.4988 0.5804 -0.6437
vn -0.5127 0.6187 -0.5953
vn -0.1955 0.3662 -0.9098
vn 0.1016 0.5402 -0.8353
vn 0.0149 0.4221 -0.9064
vn -0.4025 0.6101 -0.6824
vn -0.0336 0.7153 -0.6980
vn 0.0041 0.7179 -0.6961
vn -0.2788 0.5435 -0.7918
vn -0.0085 0.7090 -0.7052
vn -0.3870 0.3523 -0.8521
vn -0.2118 0.2178 -0.9527
vn -0.9219 0.3066 -0.2368
vn -0.9543 0.2935 -0.0561
vn -0.9439 0.2693 -0.1910
vn -0.8962 0.2517 -0.3654
vn -0.6548 0.2469 -0.7143
vn -0.5694 0.3771 -0.7304
vn -0.5901 0.6058 -0.5336
vn -0.7929 0.4606 -0.3989
vn -0.6566 0.4591 -0.5984
vn -0.5161 0.4203 -0.7464
vn -0.0003 -1.0000 -0.0019
vn -0.0007 -1.0000 0.0026
vn -0.0002 -1.0000 -0.0012
vn 0.3996 0.6942 -0.5987
vn 0.6418 0.5881 -0.4921
vn 0.5344 0.4881 -0.6901
vn 0.3143 0.5385 -0.7818
vn 0.3880 0.3544 -0.8508
vn 0.1662 0.3377 -0.9265
vn 0.2115 0.2161 -0.9532
vn 0.8959 0.3822 -0.2265
vn 0.9202 0.3811 -0.0889
vn 0.8280 0.4088 -0.3837
vn 0.8952 0.3822 -0.2294
vn 0.6754 0.3404 -0.6542
vn 0.8176 0.4634 -0.3419
vn 0.4624 0.7445 -0.4816
vn 0.7728 0.6081 -0.1816
vn 0.7270 0.6156 -0.3042
vn 0.4189 0.7408 -0.5252
vn 0.2731 0.5760 -0.7705
vn 0.3305 0.8263 -0.4560
vn 0.2402 0.7731 -0.5870
vn 0.2524 0.3810 -0.8895
vn 0.3278 0.9192 -0.2183
vn 0.3816 0.9177 -0.1106
vn 0.3146 0.9176 -0.2429
vn -0.3630 0.9314 0.0271
vn -0.8752 0.3797 0.2996
vn -0.3918 0.2305 0.8907
vn -0.4453 0.7681 -0.4602
vn -0.9150 0.3205 -0.2452
vn -0.9220 0.3050 -0.2387
vn -0.8569 0.4438 -0.2623
vn -0.0000 -1.0000 -0.0000
vn -0.0146 -0.9999 -0.0092
vn 0.1000 -0.9937 -0.0515
vn -0.9315 -0.2722 -0.2412
vn -0.0118 -0.9999 0.0019
vn 0.0588 -0.9957 0.0720
vn 0.0151 -0.9994 0.0326
vn -0.0006 -0.9999 0.0110
vn -0.0712 -0.9956 0.0612
vn 0.0890 -0.9955 -0.0337
vn -0.4233 -0.9020 -0.0850
vn -0.0817 -0.9967 -0.0002
vn 0.0501 -0.9986 -0.0190
vn 0.7711 0.3556 -0.5282
vn 0.3367 0.2872 -0.8967
vn 0.3061 0.7795 -0.5465
vn 0.3931 0.9155 -0.0857
vt 0.625000 0.937500
vt 0.625000 0.875000
vt 0.625000 0.812500
vt 0.625000 0.750000
vt 0.625000 0.687500
vt 0.625000 0.625000
vt 0.625000 0.562500
vt 0.625000 0.500000
vt 0.625000 0.437500
vt 0.500000 0.937500
vt 0.500000 0.875000
vt 0.500000 0.812500
vt 0.500000 0.750000
vt 0.500000 0.687500
vt 0.500000 0.625000
vt 0.500000 0.562500
vt 0.500000 0.500000
vt 1.000000 0.937500
vt 1.000000 0.875000
vt 1.000000 0.812500
vt 1.000000 0.750000
vt 1.000000 0.687500
vt 1.000000 0.625000
vt 1.000000 0.562500
vt 0.875000 0.937500
vt 0.875000 0.875000
vt 0.875000 0.812500
vt 0.875000 0.750000
vt 0.875000 0.687500
vt 0.875000 0.625000
vt 0.875000 0.562500
vt 0.875000 0.500000
vt 0.687500 1.000000
vt 0.562500 1.000000
vt 0.937500 1.000000
vt 0.812500 1.000000
vt 0.750000 0.937500
vt 0.750000 0.875000
vt 0.750000 0.812500
vt 0.750000 0.750000
vt 0.750000 0.687500
vt 0.750000 0.625000
vt 0.750000 0.562500
vt 0.750000 0.500000
vt 0.750000 0.437500
vt 0.625000 0.500000
vt 0.625000 0.437500
vt 0.625000 0.375000
vt 0.625000 0.312500
vt 0.625000 0.250000
vt 0.625000 0.187500
vt 0.625000 0.125000
vt 0.625000 0.062500
vt 0.500000 0.937500
vt 0.500000 0.875000
vt 0.500000 0.812500
vt 0.500000 0.750000
vt 0.500000 0.687500
vt 0.500000 0.625000
vt 0.500000 0.562500
vt 0.500000 0.500000
vt 0.500000 0.437500
vt 0.500000 0.375000
vt 0.500000 0.312500
vt 0.500000 0.250000
vt 0.500000 0.187500
vt 0.500000 0.125000
vt 0.500000 0.062500
vt 1.000000 0.937500
vt 1.000000 0.875000
vt 1.000000 0.812500
vt 1.000000 0.750000
vt 1.000000 0.687500
vt 1.000000 0.625000
vt 1.000000 0.562500
vt 1.000000 0.500000
vt 1.000000 0.437500
vt 1.000000 0.375000
vt 1.000000 0.312500
vt 1.000000 0.250000
vt 1.000000 0.187500
vt 1.000000 0.125000
vt 1.000000 0.062500
vt 0.875000 0.562500
vt 0.875000 0.500000
vt 0.875000 0.437500
vt 0.875000 0.375000
vt 0.875000 0.312500
vt 0.875000 0.250000
vt 0.875000 0.187500
vt 0.875000 0.125000
vt 0.875000 0.062500
vt 0.687500 0.000000
vt 0.937500 0.000000
vt 0.812500 0.000000
vt 0.562500 0.000000
vt 0.937500 1.000000
vt 0.750000 0.500000
vt 0.750000 0.437500
vt 0.750000 0.375000
vt 0.750000 0.312500
vt 0.750000 0.250000
vt 0.750000 0.187500
vt 0.750000 0.125000
vt 0.750000 0.062500
s 1
usemtl Body
f 9/9/1 41/44/2 42/45/3
f 35/38/4 1/1/5 34/37/6
f 3/3/7 35/38/4 36/39/8
f 37/40/9 3/3/7 36/39/8
f 38/41/10 4/4/11 37/40/9
f 6/6/12 38/41/10 39/42/12
f 40/43/13 6/6/12 39/42/12
f 41/44/2 7/7/14 40/43/13
f 34/37/6 1/1/5 33/33/15
f 17/17/16 7/7/17 8/8/18
f 1/1/5 10/10/19 33/34/15
f 11/11/20 1/1/5 2/2/21
f 3/3/7 11/11/20 2/2/21
f 13/13/22 3/3/7 4/4/11
f 14/14/23 4/4/11 5/5/23
f 15/15/24 5/5/23 6/6/24
f 7/7/17 15/15/24 6/6/24
f 23/23/25 29/29/26 22/22/26
f 31/31/27 23/23/25 24/24/27
f 18/18/28 25/25/29 33/35/15
f 26/26/30 18/18/28 19/19/31
f 27/27/32 19/19/31 20/20/33
f 28/28/34 20/20/33 21/21/35
f 29/29/26 21/21/35 22/22/26
f 35/38/4 25/25/29 26/26/30
f 36/39/8 26/26/30 27/27/32
f 37/40/9 27/27/32 28/28/34
f 38/41/36 28/28/34 29/29/36
f 30/30/37 38/41/36 29/29/36
f 40/43/38 30/30/37 31/31/39
f 41/44/40 31/31/39 32/32/41
f 25/25/29 34/37/6 33/36/15
f 90/93/42 50/53/43 99/105/44
f 45/48/45 93/99/46 94/100/47
f 46/49/48 94/100/49 95/101/50
f 47/50/51 95/101/52 96/102/53
f 48/51/54 96/102/55 97/103/56
f 49/52/57 97/103/56 98/104/58
f 99/105/44 49/52/57 98/104/58
f 50/53/43 64/67/59 49/52/57
f 90/96/42 65/68/60 50/53/43
f 59/62/61 43/46/62 44/47/63
f 45/48/64 59/62/61 44/47/63
f 46/49/48 60/63/65 45/48/66
f 47/50/67 61/64/68 46/49/48
f 48/51/54 62/65/69 47/50/67
f 49/52/57 63/66/70 48/51/54
f 53/56/71 78/81/72 71/74/73
f 87/90/74 77/80/75 78/81/76
f 88/91/77 78/81/76 79/82/78
f 89/92/79 79/82/78 80/83/80
f 73/76/81 81/84/82 72/75/82
f 90/94/42 89/92/79 80/83/80
f 74/77/83 82/85/84 73/76/81
f 84/87/85 74/77/83 75/78/86
f 85/88/87 75/78/88 76/79/89
f 86/89/90 76/79/89 77/80/75
f 84/87/91 93/99/92 83/86/93
f 95/101/52 84/87/91 85/88/94
f 96/102/55 85/88/87 86/89/90
f 97/103/56 86/89/90 87/90/74
f 98/104/58 87/90/74 88/91/77
f 99/105/44 88/91/77 89/92/79
f 90/95/42 99/105/44 89/92/79
f 83/86/95 92/98/96 82/85/97
f 9/9/1 8/8/98 41/44/2
f 35/38/4 2/2/21 1/1/5
f 3/3/7 2/2/21 35/38/4
f 37/40/9 4/4/11 3/3/7
f 38/41/10 5/5/10 4/4/11
f 6/6/12 5/5/10 38/41/10
f 40/43/13 7/7/14 6/6/12
f 41/44/2 8/8/98 7/7/14
f 17/17/16 16/16/99 7/7/17
f 11/11/20 10/10/19 1/1/5
f 3/3/7 12/12/100 11/11/20
f 13/13/22 12/12/100 3/3/7
f 14/14/23 13/13/22 4/4/11
f 15/15/24 14/14/23 5/5/23
f 7/7/17 16/16/99 15/15/24
f 23/23/25 30/30/25 29/29/26
f 31/31/27 30/30/25 23/23/25
f 26/26/30 25/25/29 18/18/28
f 27/27/32 26/26/30 19/19/31
f 28/28/34 27/27/32 20/20/33
f 29/29/26 28/28/34 21/21/35
f 35/38/4 34/37/6 25/25/29
f 36/39/8 35/38/4 26/26/30
f 37/40/9 36/39/8 27/27/32
f 38/41/36 37/40/9 28/28/34
f 30/30/37 39/42/37 38/41/36
f 40/43/38 39/42/37 30/30/37
f 41/44/40 40/43/38 31/31/39
f 45/48/45 44/47/101 93/99/46
f 46/49/48 45/48/66 94/100/49
f 47/50/67 46/49/48 95/101/50
f 48/51/54 47/50/67 96/102/55
f 49/52/57 48/51/54 97/103/56
f 99/105/44 50/53/43 49/52/57
f 50/53/43 65/68/60 64/67/59
f 59/62/61 58/61/102 43/46/62
f 45/48/64 60/63/103 59/62/61
f 46/49/48 61/64/68 60/63/104
f 47/50/67 62/65/69 61/64/68
f 48/51/54 63/66/70 62/65/69
f 49/52/57 64/67/59 63/66/70
f 51/54/105 52/55/105 53/56/71
f 53/56/71 54/57/105 55/58/105
f 55/58/105 56/59/105 57/60/106
f 57/60/107 58/61/107 59/62/107
f 59/62/108 60/63/108 61/64/108
f 61/64/109 62/65/110 63/66/111
f 63/66/111 64/67/105 65/68/112
f 65/68/112 90/96/105 80/83/105
f 80/83/105 79/82/105 78/81/72
f 78/81/72 77/80/105 76/79/113
f 78/81/72 76/79/113 75/78/114
f 65/68/112 80/83/105 78/81/72
f 61/64/109 63/66/111 65/68/112
f 57/60/106 59/62/115 61/64/109
f 53/56/71 55/58/105 57/60/106
f 91/97/105 51/54/105 53/56/71
f 67/70/105 66/69/105 91/97/105
f 69/72/105 68/71/105 67/70/105
f 71/74/73 70/73/105 69/72/105
f 73/76/116 72/75/105 71/74/73
f 78/81/72 75/78/114 74/77/117
f 74/77/117 73/76/116 71/74/73
f 71/74/73 69/72/105 67/70/105
f 67/70/105 91/97/105 53/56/71
f 53/56/71 57/60/106 61/64/109
f 61/64/109 65/68/112 78/81/72
f 78/81/72 74/77/117 71/74/73
f 71/74/73 67/70/105 53/56/71
f 53/56/71 61/64/109 78/81/72
f 87/90/74 86/89/90 77/80/75
f 88/91/77 87/90/74 78/81/76
f 89/92/79 88/91/77 79/82/78
f 73/76/81 82/85/84 81/84/82
f 74/77/83 83/86/118 82/85/84
f 84/87/85 83/86/118 74/77/83
f 85/88/94 84/87/91 75/78/119
f 86/89/90 85/88/87 76/79/89
f 84/87/91 94/100/120 93/99/92
f 95/101/52 94/100/120 84/87/91
f 96/102/53 95/101/52 85/88/94
f 97/103/56 96/102/55 86/89/90
f 98/104/58 97/103/56 87/90/74
f 99/105/44 98/104/58 88/91/77
f 83/86/95 93/99/121 92/98/96
