# Blender v2.81 (sub 16) OBJ File: 'Nature Pack Low Poly.blend'
# www.blender.org
mtllib Rock_2.mtl
o Rock_2_Icosphere.004
v -0.276957 -0.039322 -0.177586
v -0.140297 0.486166 0.174302
v -0.016847 -0.038092 0.301329
v 0.344477 -0.041002 0.020722
v 0.425548 0.130300 0.005308
v 0.134019 0.342819 0.390421
v -0.440367 0.216079 0.140819
v 0.130856 0.101904 -0.400013
v -0.250680 0.318126 -0.311468
v 0.277381 0.386143 -0.215675
vt 0.454545 0.000000
vt 0.381649 0.126261
vt 0.527441 0.126262
vt 0.745285 0.126262
vt 0.639677 0.217203
vt 0.817064 0.277873
vt 0.855290 0.107756
vt 0.954545 0.236191
vt 0.271964 0.133370
vt 0.317095 0.301962
vt 0.451231 0.217203
vt 0.636363 0.126262
vt 0.436532 0.346121
vt 0.363636 0.472382
vt 0.254714 0.346120
vt 0.138337 0.237080
vt 0.137184 0.395073
vt 0.752459 0.428756
vt 0.614295 0.334640
vt 0.546217 0.339012
vt 0.943959 0.378158
vt 0.203886 0.137742
vt 0.028697 0.107756
vn -0.0043 -1.0000 0.0049
vn 0.6917 -0.2670 0.6710
vn -0.3862 -0.0623 0.9203
vn -0.3742 -0.3010 -0.8771
vn 0.7533 -0.4033 -0.5195
vn -0.0653 0.9475 -0.3129
vn -0.6584 0.7449 -0.1081
vn 0.3616 0.9200 0.1513
vn 0.8095 -0.0373 -0.5859
vn 0.0897 0.5089 -0.8561
vn -0.4380 0.3859 0.8119
vn 0.7485 0.6250 0.2217
vn -0.9121 -0.0833 -0.4013
vn 0.5621 -0.3929 0.7278
vn 0.1162 -0.9210 -0.3718
vn -0.5732 -0.7572 0.3132
usemtl Rock
s off
f 3/1/1 1/2/1 4/3/1
f 4/4/2 5/5/2 6/6/2
f 3/7/3 6/6/3 7/8/3
f 1/9/4 9/10/4 8/11/4
f 4/12/5 8/11/5 5/5/5
f 10/13/6 9/10/6 2/14/6
f 9/15/7 7/16/7 2/17/7
f 2/18/8 6/6/8 10/19/8
f 5/5/9 8/11/9 10/20/9
f 8/11/10 9/10/10 10/20/10
f 7/8/11 6/6/11 2/21/11
f 5/5/12 10/19/12 6/6/12
f 9/10/13 1/9/13 7/16/13
f 3/7/14 4/4/14 6/6/14
f 4/3/15 1/2/15 8/11/15
f 1/22/16 3/23/16 7/16/16
