# Blender v2.81 (sub 16) OBJ File: 'Nature Pack Low Poly.blend'
# www.blender.org
mtllib Rock_3_Snow.mtl
o Rock_3_Snow_Icosphere.014
v -0.104083 -0.001990 0.378372
v 0.419827 0.044034 -0.168001
v -0.235110 0.331560 -0.317519
v -0.054812 0.537997 0.185401
v 0.240546 -0.005364 0.336897
v 0.272429 -0.081206 -0.211775
v -0.086511 -0.110188 0.049370
v 0.442161 0.105659 0.144746
v 0.230424 0.247412 0.436276
v -0.410941 0.049504 0.172985
v -0.291011 0.249540 0.347558
v -0.210070 0.001953 -0.384614
v -0.405680 0.044351 -0.158618
v 0.156745 0.116325 -0.443758
v 0.358340 0.402936 -0.076159
v -0.320735 0.425880 -0.087577
v 0.111626 0.411733 -0.319522
vt 0.818181 0.000000
vt 0.768678 0.146411
vt 0.900284 0.142209
vt 0.454545 0.000000
vt 0.409090 0.078731
vt 0.476887 0.118764
vt 0.797722 0.251617
vt 0.570403 0.200675
vt 0.456005 0.236191
vt 0.677078 0.227981
vt 0.968452 0.260278
vt 0.589981 0.342098
vt 0.477580 0.354820
vt 0.318923 0.314921
vt 0.345089 0.189586
vt 0.249160 0.198280
vt 0.204552 0.354299
vt 0.129510 0.209620
vt 0.059361 0.260278
vt 0.621362 0.342098
vt 0.008806 0.142209
vt 0.256037 0.028908
vt 0.107599 0.028908
vt 0.590909 0.078731
vt 0.716894 0.139486
vt 0.636363 0.000000
vt 0.545454 0.472382
vt 0.431510 0.354820
vt 0.318182 0.393651
vt 0.363636 0.472382
vt 0.162103 0.438234
vt 0.750307 0.432483
vt 0.909766 0.405258
vn 0.0285 -0.9491 0.3137
vn -0.1971 -0.9072 -0.3716
vn 0.1080 -0.3600 0.9267
vn 0.5837 -0.4510 -0.6751
vn 0.7341 -0.2228 0.6415
vn -0.1677 -0.0039 0.9858
vn 0.7298 0.2841 -0.6218
vn 0.6577 0.3752 -0.6532
vn -0.0918 0.3741 -0.9228
vn -0.2109 0.1796 -0.9609
vn -0.8600 0.2719 -0.4318
vn -0.9752 0.2206 -0.0189
vn -0.9084 0.3623 0.2089
vn 0.8028 0.4846 0.3475
vn 0.1173 -0.7265 -0.6771
vn -0.7465 0.0778 -0.6608
vn -0.5631 -0.3254 0.7597
vn 0.9749 0.1947 -0.1080
vn -0.1798 -0.9833 0.0288
vn -0.4395 -0.8982 0.0070
vn -0.3369 -0.8996 0.2779
vn 0.6250 -0.7732 0.1077
vn 0.5794 -0.8021 0.1445
vn 0.1840 -0.9722 0.1451
vn 0.2052 0.9633 -0.1732
vn -0.1175 0.9536 -0.2772
vn -0.2051 0.8763 -0.4359
vn -0.6323 0.7020 0.3277
vn 0.4890 0.7932 0.3628
vn -0.1358 0.5677 0.8120
usemtl Rock
s off
f 7/1/1 5/2/1 1/3/1
f 7/4/2 13/5/2 6/6/2
f 1/3/3 5/2/3 9/7/3
f 2/8/4 6/6/4 14/9/4
f 5/2/5 8/10/5 9/7/5
f 1/3/6 9/7/6 11/11/6
f 2/8/7 14/9/7 15/12/7
f 14/9/8 17/13/8 15/12/8
f 14/9/9 3/14/9 17/13/9
f 14/9/10 12/15/10 3/14/10
f 13/16/11 16/17/11 3/14/11
f 13/16/12 10/18/12 16/17/12
f 10/18/13 11/19/13 16/17/13
f 8/10/14 15/20/14 9/7/14
f 6/6/15 12/15/15 14/9/15
f 12/15/16 13/16/16 3/14/16
f 10/18/17 1/21/17 11/19/17
f 8/10/18 2/8/18 15/20/18
f 13/5/19 12/15/19 6/6/19
f 7/22/20 10/18/20 13/16/20
f 7/23/21 1/21/21 10/18/21
f 8/10/22 6/24/22 2/8/22
f 8/10/23 5/25/23 6/24/23
f 5/25/24 7/26/24 6/24/24
usemtl Snow
f 15/12/25 17/13/25 4/27/25
f 17/28/26 16/29/26 4/30/26
f 17/28/27 3/14/27 16/29/27
f 16/17/28 11/19/28 4/31/28
f 4/32/29 9/7/29 15/20/29
f 11/11/30 9/7/30 4/33/30
