# Blender v2.81 (sub 16) OBJ File: 'Nature Pack Low Poly.blend'
# www.blender.org
mtllib Rock_1.mtl
o Rock_1_Cube.002
v -0.231312 -0.033621 0.232253
v -0.231312 -0.033621 -0.216321
v -0.231312 0.152681 -0.216321
v 0.217262 -0.033621 0.232253
v 0.217262 -0.033621 -0.216321
v 0.217262 0.108518 -0.216321
v 0.217262 0.054784 0.179185
v -0.149666 0.108518 0.179185
v -0.231312 0.055115 0.232253
v -0.209880 0.088276 0.046461
vt 0.375000 0.250000
vt 0.625000 0.250000
vt 0.625000 0.500000
vt 0.375000 0.500000
vt 0.875000 0.500000
vt 0.875000 0.656073
vt 0.829497 0.720424
vt 0.625000 0.720424
vt 0.125000 0.500000
vt 0.375000 0.750000
vt 0.125000 0.750000
vt 0.625000 0.954497
vt 0.531073 1.000000
vt 0.375000 1.000000
vt 0.375000 0.000000
vt 0.531073 0.000000
vt 0.625000 0.093927
vt 0.625000 0.029576
vn 0.0000 0.0000 -1.0000
vn 0.0733 0.9902 0.1187
vn 0.0000 -1.0000 0.0000
vn 1.0000 0.0000 0.0000
vn 0.0673 0.3851 0.9204
vn -0.9967 0.0798 0.0173
vn -0.5005 0.8604 0.0958
usemtl Rock
s off
f 2/1/1 3/2/1 6/3/1 5/4/1
f 6/3/2 3/5/2 10/6/2 8/7/2 7/8/2
f 2/9/3 5/4/3 4/10/3 1/11/3
f 5/4/4 6/3/4 7/8/4 4/10/4
f 4/10/5 7/8/5 8/12/5 9/13/5 1/14/5
f 1/15/6 9/16/6 10/17/6 3/2/6 2/1/6
f 10/17/7 9/16/7 8/18/7
