# Blender v2.81 (sub 16) OBJ File: 'Nature Pack Low Poly.blend'
# www.blender.org
mtllib Mountain_1_LOD_Low.mtl
o Mountain_1_LOD_Low_Plane.001
v -57.726437 -1.492894 12.842013
v -55.231625 -0.971576 16.360516
v -53.912746 -0.931326 21.634720
v -56.730907 -2.252272 -13.491624
v -51.941723 -0.045206 25.749107
v -48.271008 -0.662781 30.459217
v -46.085194 -1.371363 34.487972
v -43.163212 -1.217560 36.816654
v -48.625584 -1.541572 26.886871
v -52.592480 0.224573 8.339301
v -55.069042 -1.222773 -18.747561
v -40.105061 -2.237295 39.859158
v -39.956455 12.103380 7.606223
v -36.632061 -2.256954 43.353107
v -29.859165 16.835003 24.345661
v -36.419430 27.985346 -1.509671
v -34.169079 18.048302 -17.201748
v -36.767735 -1.405951 -41.790142
v -33.255978 -0.998198 -43.415306
v -17.153988 29.953327 16.480213
v -28.526524 27.417955 -12.575955
v -26.393597 29.221951 7.068446
v -23.783131 13.925080 -28.687069
v -30.869068 -1.559080 -45.856464
v -33.964222 -1.728711 45.809612
v -13.085690 27.977646 10.892840
v -17.609234 42.011227 4.610217
v -21.490768 43.424389 -7.363954
v -15.925912 28.051083 -16.772766
v -17.351326 18.769978 25.084030
v -2.825867 41.487991 6.822917
v -9.165254 51.144253 -3.528838
v -1.439906 41.545837 -12.192452
v -18.978416 29.747852 -19.171501
v -11.865273 16.574762 -27.722660
v -10.397149 -1.336035 -48.657513
v 1.644546 -1.114075 -46.656544
v 1.419313 50.565929 -1.025338
v 2.707252 28.458771 -18.784132
v 7.349438 23.087919 -15.523887
v 5.910942 17.291859 -26.946259
v 1.293302 18.075678 22.339054
v 7.992017 28.466282 12.863544
v 9.535766 42.703243 -4.645850
v 14.211746 -1.063520 47.565876
v 2.774774 -2.075239 47.736286
v 10.450495 43.784634 5.145698
v 17.727833 -1.063520 46.247341
v 19.134268 -1.063520 41.559223
v 24.056789 -1.063520 38.511944
v 22.245317 16.823227 -19.613871
v 18.154625 27.322834 6.836860
v 20.908575 28.179241 -11.208974
v 25.932035 -1.063520 33.355007
v 28.276093 -1.063520 31.303959
v 20.258760 12.126199 13.943206
v 14.032666 -2.707225 -45.970009
v 30.913157 -1.064445 28.666897
v 22.019297 -0.456077 26.837624
v 29.073097 14.560236 -9.078385
v 34.429241 -1.063520 25.150814
v 37.066303 -1.065542 22.074242
v 40.603271 2.415629 -8.983094
v 41.168407 -1.063520 20.462704
v 43.043652 -1.063520 15.774592
v 37.905682 -2.696489 -33.758221
v 45.392208 -1.680674 -24.055550
v 46.911350 -1.063520 13.430537
v 47.475498 -1.800901 3.725825
v 47.168194 -1.110793 -20.555836
v 49.372612 -1.063520 4.054313
v 48.933094 -1.067976 -17.042204
v 50.251637 -1.063520 -8.251988
v 49.812122 -1.063520 -11.768077
vt 0.653465 0.277228
vt 0.641060 0.415831
vt 0.644139 0.277667
vt 0.650990 0.396040
vt 0.639076 0.225479
vt 0.618350 0.210165
vt 0.591054 0.351638
vt 0.630709 0.435613
vt 0.590990 0.491895
vt 0.569307 0.158416
vt 0.584158 0.175743
vt 0.549505 0.138614
vt 0.495767 0.408814
vt 0.499689 0.154509
vt 0.483975 0.229396
vt 0.531745 0.348052
vt 0.471015 0.266655
vt 0.508990 0.084594
vt 0.481926 0.066317
vt 0.396043 0.029757
vt 0.455446 0.032178
vt 0.379987 0.173716
vt 0.421015 0.229627
vt 0.426233 0.272416
vt 0.428336 0.328222
vt 0.385788 0.305675
vt 0.420623 0.386513
vt 0.407684 0.455957
vt 0.389262 0.404842
vt 0.364679 0.261345
vt 0.297959 0.236553
vt 0.310196 0.454077
vt 0.258387 0.406367
vt 0.384721 0.564216
vt 0.274308 0.160350
vt 0.277799 0.276934
vt 0.326442 0.319356
vt 0.364464 0.365234
vt 0.288971 0.391733
vt 0.257067 0.333227
vt 0.228395 0.263084
vt 0.201232 0.559011
vt 0.237495 0.460017
vt 0.316880 0.574365
vt 0.282510 0.210927
vt 0.222804 0.370773
vt 0.184150 0.039771
vt 0.170567 0.053731
vt 0.156277 0.268589
vt 0.209022 0.164272
vt 0.184616 0.396212
vt 0.168351 0.536143
vt 0.099244 0.148532
vt 0.131996 0.092465
vt 0.175758 0.308756
vt 0.103956 0.128734
vt 0.054996 0.376217
vt 0.064379 0.406270
vt 0.083595 0.260017
vt 0.082734 0.156667
vt 0.064354 0.207921
vt 0.071780 0.178218
vt 0.050383 0.227728
vt 0.658416 0.346535
vt 0.655941 0.366337
vt 0.607261 0.184818
vt 0.534654 0.123762
vt 0.521452 0.112211
vt 0.484046 0.353633
vt 0.455680 0.558795
vt 0.475248 0.039604
vt 0.188118 0.544555
vt 0.148932 0.074030
vt 0.115152 0.105921
vn -0.3668 0.9298 0.0311
vn -0.0249 0.9997 0.0003
vn -0.0475 0.9958 -0.0784
vn 0.4980 0.8670 0.0183
vn 0.1276 0.9666 -0.2222
vn 0.1481 0.9653 -0.2153
vn -0.0064 1.0000 -0.0062
vn 0.6777 0.7021 -0.2187
vn 0.0572 0.9969 0.0533
vn 0.6832 0.6512 0.3304
vn 0.8817 0.2945 0.3687
vn 0.0290 0.9985 0.0469
vn -0.0890 0.9934 -0.0729
vn 0.4669 0.6639 0.5841
vn 0.4969 0.4231 0.7577
vn 0.5096 0.3205 0.7985
vn 0.4735 0.4071 0.7811
vn 0.5048 0.6903 0.5183
vn 0.6549 0.7420 -0.1431
vn 0.8035 0.4840 -0.3468
vn 0.7390 0.2619 -0.6208
vn -0.0952 0.3527 0.9309
vn 0.0143 0.5498 -0.8351
vn 0.0003 0.7308 -0.6825
vn 0.1370 0.6178 0.7743
vn -0.0807 0.7037 0.7059
vn -0.1646 0.4709 -0.8667
vn -0.1329 0.6030 -0.7866
vn -0.5704 0.7735 0.2762
vn -0.2313 0.3345 0.9136
vn -0.0266 0.7478 -0.6634
vn -0.0143 0.9996 -0.0249
vn 0.1551 0.9615 -0.2270
vn 0.1137 0.8736 0.4732
vn -0.4989 0.7820 0.3736
vn -0.7539 0.5779 0.3126
vn -0.1391 0.9717 -0.1908
vn -0.6303 0.5176 0.5786
vn -0.9211 0.3838 0.0648
vn -0.3245 0.7582 -0.5656
vn -0.5894 0.6653 0.4582
vn 0.3811 0.8931 -0.2388
vn -0.9740 0.1003 -0.2032
vn 0.4135 0.8738 -0.2560
vn -0.6735 0.7360 -0.0688
vn 0.4117 0.9113 -0.0013
vn -0.2609 0.9636 0.0579
vn -0.3485 0.9364 -0.0402
vn -0.0023 1.0000 -0.0002
vn -0.0203 0.9998 0.0025
vn -0.8344 0.4387 -0.3337
vn -0.0209 0.9984 -0.0518
vn 0.0339 0.9992 -0.0208
vn 0.4672 0.8833 0.0404
vn 0.6913 0.6539 -0.3075
vn 0.0566 0.9968 0.0563
vn 0.5347 0.6402 0.5517
vn 0.0533 0.9967 0.0609
vn 0.8369 0.5256 0.1527
vn 0.0962 0.9947 0.0350
vn 0.8021 0.4134 -0.4310
vn 0.3201 0.7107 -0.6264
vn -0.0499 0.9983 0.0314
vn 0.0000 1.0000 0.0000
vn 0.0239 0.7461 0.6654
vn 0.0310 0.5970 -0.8017
vn 0.2325 0.8552 -0.4632
vn 0.3019 0.7186 -0.6265
vn 0.1004 0.4739 -0.8748
vn 0.0361 0.4450 0.8948
vn 0.1297 0.7105 -0.6916
vn 0.3685 0.6748 -0.6394
vn 0.4496 0.5114 -0.7324
vn -0.0190 0.6590 0.7519
vn 0.1931 0.7385 -0.6460
vn 0.0499 0.5986 -0.7995
vn -0.1326 0.6830 0.7183
vn -0.1065 0.4202 -0.9012
vn -0.1245 0.3717 0.9200
vn -0.6677 0.7153 0.2060
vn -0.0690 0.8462 0.5283
vn 0.0402 0.8391 0.5424
vn 0.8124 0.3465 0.4690
vn -0.0960 0.6922 -0.7152
vn -0.3063 0.4138 -0.8573
vn -0.0481 0.5255 -0.8495
vn -0.5625 0.5448 -0.6219
vn -0.1517 0.7239 0.6730
vn -0.6199 0.4853 0.6166
vn -0.4725 0.6022 -0.6435
vn -0.0491 0.9951 -0.0860
vn -0.3537 0.7625 -0.5417
vn 0.8540 0.5176 0.0522
vn -0.5994 0.4947 0.6293
vn -0.6273 0.6142 -0.4789
vn 0.3255 -0.8011 0.5023
vn -0.7091 -0.0240 0.7047
vn -0.5807 0.6672 -0.4665
vn -0.6666 0.7451 0.0230
vn -0.3044 0.8962 0.3228
vn -0.6828 0.7292 0.0467
vn -0.4630 0.8858 0.0310
vn -0.2749 0.9600 0.0527
usemtl Rock
s off
f 71/1/1 70/2/1 69/3/1
f 71/1/2 72/4/2 70/2/2
f 68/5/3 69/3/3 65/6/3
f 69/3/4 70/2/4 63/7/4
f 70/2/5 67/8/5 63/7/5
f 67/8/6 66/9/6 63/7/6
f 61/10/7 62/11/7 58/12/7
f 63/7/8 66/9/8 51/13/8
f 58/12/9 62/11/9 59/14/9
f 56/15/10 63/7/10 60/16/10
f 56/15/11 60/16/11 52/17/11
f 50/18/12 59/14/12 49/19/12
f 49/19/13 46/20/13 45/21/13
f 59/14/14 56/15/14 42/22/14
f 56/15/15 52/17/15 43/23/15
f 43/23/16 52/17/16 47/24/16
f 42/22/17 56/15/17 43/23/17
f 46/20/18 59/14/18 42/22/18
f 47/24/19 44/25/19 38/26/19
f 40/27/20 41/28/20 39/29/20
f 40/27/21 39/29/21 44/25/21
f 43/23/22 31/30/22 26/31/22
f 41/28/23 35/32/23 34/33/23
f 41/28/24 37/34/24 35/32/24
f 42/22/25 43/23/25 30/35/25
f 27/36/26 31/30/26 32/37/26
f 33/38/27 29/39/27 28/40/27
f 33/38/28 28/40/28 32/37/28
f 32/37/29 28/40/29 27/36/29
f 26/31/30 27/36/30 22/41/30
f 37/34/31 24/42/31 23/43/31
f 37/34/32 36/44/32 24/42/32
f 20/45/33 26/31/33 22/41/33
f 29/39/34 34/33/34 21/46/34
f 25/47/35 30/35/35 14/48/35
f 27/36/36 28/40/36 22/41/36
f 30/35/37 13/49/37 15/50/37
f 20/45/38 22/41/38 13/49/38
f 28/40/39 21/46/39 22/41/39
f 17/51/40 23/43/40 18/52/40
f 15/50/41 9/53/41 14/48/41
f 14/48/42 9/53/42 8/54/42
f 16/55/43 17/51/43 13/49/43
f 8/54/44 9/53/44 6/56/44
f 4/57/45 17/51/45 11/58/45
f 9/53/46 10/59/46 5/60/46
f 10/59/47 2/61/47 3/62/47
f 10/59/48 4/57/48 1/63/48
f 71/1/49 73/64/49 72/4/49
f 73/64/50 74/65/50 72/4/50
f 64/66/51 65/6/51 69/3/51
f 62/11/52 64/66/52 69/3/52
f 59/14/53 62/11/53 69/3/53
f 56/15/54 69/3/54 63/7/54
f 60/16/55 63/7/55 51/13/55
f 55/67/56 58/12/56 59/14/56
f 59/14/57 69/3/57 56/15/57
f 54/68/58 55/67/58 59/14/58
f 52/17/59 60/16/59 53/69/59
f 50/18/60 54/68/60 59/14/60
f 60/16/61 51/13/61 53/69/61
f 51/13/62 66/9/62 57/70/62
f 46/20/63 49/19/63 59/14/63
f 48/71/64 49/19/64 45/21/64
f 30/35/65 25/47/65 46/20/65 42/22/65
f 53/69/66 51/13/66 40/27/66
f 40/27/67 51/13/67 41/28/67
f 51/13/68 57/70/68 41/28/68
f 44/25/69 53/69/69 40/27/69
f 43/23/70 47/24/70 31/30/70
f 41/28/71 57/70/71 37/34/71
f 38/26/72 44/25/72 33/38/72
f 44/25/73 39/29/73 33/38/73
f 31/30/74 47/24/74 38/26/74
f 38/26/75 33/38/75 32/37/75
f 39/29/76 41/28/76 34/33/76
f 31/30/77 38/26/77 32/37/77
f 33/38/78 39/29/78 29/39/78
f 26/31/79 31/30/79 27/36/79
f 10/59/80 9/53/80 15/50/80 13/49/80
f 26/31/81 30/35/81 43/23/81
f 29/39/82 39/29/82 34/33/82
f 20/45/83 30/35/83 26/31/83
f 35/32/84 37/34/84 23/43/84
f 28/40/85 29/39/85 21/46/85
f 34/33/86 35/32/86 23/43/86
f 21/46/87 34/33/87 23/43/87
f 14/48/88 30/35/88 15/50/88
f 30/35/89 20/45/89 13/49/89
f 17/51/90 21/46/90 23/43/90
f 22/41/91 21/46/91 16/55/91
f 18/52/92 23/43/92 24/42/92
f 44/25/93 47/24/93 52/17/93 53/69/93
f 13/49/94 22/41/94 16/55/94
f 16/55/95 21/46/95 17/51/95
f 18/52/96 24/42/96 19/72/96
f 12/73/97 14/48/97 8/54/97
f 11/58/98 17/51/98 18/52/98
f 13/49/99 17/51/99 4/57/99
f 7/74/100 8/54/100 6/56/100
f 13/49/101 4/57/101 10/59/101
f 5/60/102 10/59/102 3/62/102
f 10/59/103 1/63/103 2/61/103
