# Blender v2.81 (sub 16) OBJ File: 'Nature Pack Low Poly.blend'
# www.blender.org
mtllib Mountain_2_LOD_Low.mtl
o Mountain_2_LOD_Low_Plane.010
v -3.462172 -1.992686 62.341248
v -12.006386 -2.202854 60.486870
v 3.769629 -2.910355 61.945282
v 11.877476 -4.799660 60.188694
v -21.233084 -4.554335 58.269985
v 19.216768 -3.039169 58.419300
v 4.434695 -3.180604 57.171024
v 24.825670 -2.032217 56.567196
v -26.781975 -5.093505 56.292934
v -13.384797 17.867138 52.651962
v 33.457222 -3.922450 54.413033
v -3.492510 17.654549 51.050934
v -33.066864 -5.358390 53.594864
v 40.460823 -3.800673 50.151215
v 40.920570 -3.533828 47.133362
v 28.053963 17.699169 47.753948
v 12.085396 18.118004 49.476955
v -37.429394 -4.347614 47.728729
v -23.883316 17.459866 45.507290
v 46.497723 -4.909481 45.326630
v -41.640179 -3.863214 44.571598
v 19.837521 34.550831 37.085159
v -43.657185 -2.497982 40.045231
v 50.848824 -2.804055 39.307236
v 4.248868 29.957920 39.932716
v -26.169384 27.790730 32.942474
v -36.196285 17.852295 34.371338
v 11.827563 44.986507 33.612976
v -10.009746 29.411655 40.213005
v 35.085281 17.317238 39.195885
v 52.886902 -3.053337 32.636513
v -51.260155 -4.056109 33.881386
v -11.147390 43.499035 37.361832
v -1.211024 45.178936 36.102921
v -38.609138 29.682961 20.207815
v 45.090801 17.204723 28.346560
v 32.983284 31.031197 21.236578
v -52.912514 -3.453303 27.959976
v 55.697239 -4.863822 21.406567
v -45.666214 17.823298 26.632292
v 22.600229 45.046375 21.324060
v -0.947114 66.908531 21.016592
v -30.548853 41.179035 21.485577
v -54.264858 -3.022280 23.577574
v 55.598831 -5.222891 14.665478
v 12.248042 64.062958 24.221378
v -22.926744 46.323494 20.393616
v 30.404285 46.237434 7.085403
v -56.012333 -2.494258 18.756926
v 21.331184 67.850212 11.029838
v -44.111870 29.087769 7.561214
v -50.454411 17.967451 13.689162
v -7.687142 68.723717 13.264298
v -57.947819 -2.652930 14.550300
v 3.814958 88.071907 14.329803
v -37.292126 42.478931 7.853848
v 44.735893 18.997831 15.308220
v -59.353897 -2.356324 8.857034
v 57.536488 -3.774468 4.447598
v 46.680428 16.938004 3.396903
v -58.373848 -3.014456 4.623612
v 1.674897 90.173721 7.826606
v 16.574427 87.697426 -2.132830
v -15.478724 69.055618 3.744852
v -10.493516 87.832527 -1.409759
v 36.037743 27.674885 4.815281
v -49.060303 17.624834 -3.950352
v 52.612041 -3.168381 -0.741803
v 45.598072 17.205076 -6.909021
v -17.437719 68.369720 -6.916147
v -34.036366 44.639492 -8.923182
v -41.168644 28.749481 -3.318707
v -58.403252 -2.941427 -4.277773
v 58.593552 -4.062423 -2.449380
v 0.557615 99.972778 -2.496252
v 57.427261 -3.441501 -13.846754
v 55.831039 -4.344819 -16.522203
v 24.382553 63.393185 -5.483249
v 7.963604 87.400467 -13.478596
v -24.379354 46.888641 -18.955908
v -50.380856 17.507950 -14.829823
v -2.524985 87.716545 -14.469626
v 19.551411 64.199966 -17.329090
v 37.896572 28.129030 -16.313351
v -57.585495 -3.155379 -18.062340
v 56.421623 -3.339840 -22.612198
v 34.744747 29.933012 -26.021147
v -0.148385 66.398788 -25.673904
v -10.002257 67.210533 -19.231476
v -56.252075 -3.620799 -22.161638
v -28.534954 30.567167 -28.507391
v 29.943926 46.529682 -19.323498
v 12.463872 64.953041 -22.079695
v -36.646179 29.452477 -19.628222
v 46.364769 18.705559 -24.790775
v -54.668709 -4.170636 -27.700773
v -17.760530 48.932766 -27.094559
v 14.674723 48.656033 -27.458260
v -51.457424 -2.531168 -33.098091
v 55.951405 -3.955307 -33.183880
v 25.773746 30.275656 -33.975792
v 2.925834 51.115398 -30.423487
v -7.077829 48.127941 -33.284824
v -45.190655 17.104179 -28.383589
v 54.161583 -4.646256 -39.794537
v 9.177171 29.579924 -38.011372
v -48.153145 -4.734216 -39.298500
v 46.942547 17.228491 -34.436825
v -22.502253 32.499180 -38.081852
v -35.300953 18.362698 -39.522461
v 50.550228 -3.498041 -43.168373
v -20.925167 16.926340 -53.483139
v 34.235802 17.644230 -44.138214
v -45.154877 -4.993985 -44.974411
v -7.117895 30.865112 -45.299118
v 47.834011 -5.424415 -48.158520
v 15.618611 17.464518 -49.020817
v 1.821589 17.274254 -53.695213
v -38.111561 -4.463628 -50.341877
v 43.474789 -3.929488 -50.557304
v 26.567701 -3.151506 -57.490112
v -27.703392 -5.070823 -59.248779
v -36.652447 -4.533680 -52.462315
v -37.544838 -3.815851 -52.107353
v 36.104992 -4.580220 -56.536865
v -29.415037 -5.405935 -57.858383
v -33.660622 -4.901696 -54.995029
v -8.771890 17.582718 -57.245163
v 15.507859 -3.452973 -59.053703
v 21.750443 -3.979751 -57.992699
v 4.942627 -4.840614 -62.543827
v -15.190977 -4.590802 -65.735733
v -21.856579 -7.226326 -62.256954
v -8.930213 -4.635307 -66.625519
v 2.451802 -4.296479 -65.348106
vt 0.336440 0.878847
vt 0.428188 0.914468
vt 0.331417 0.953251
vt 0.514432 0.905980
vt 0.542606 0.978376
vt 0.624182 0.949693
vt 0.285967 0.933687
vt 0.267327 0.920792
vt 0.241543 0.905250
vt 0.709712 0.939940
vt 0.619223 0.870245
vt 0.756477 0.834294
vt 0.217822 0.891089
vt 0.208683 0.876989
vt 0.229734 0.792923
vt 0.888991 0.832750
vt 0.831698 0.886785
vt 0.134801 0.806205
vt 0.159686 0.845803
vt 0.322864 0.771339
vt 0.441386 0.829773
vt 0.692138 0.771077
vt 0.566716 0.799599
vt 0.428663 0.759550
vt 0.158113 0.712869
vt 0.848011 0.687777
vt 0.852693 0.758414
vt 0.107822 0.755713
vt 0.613876 0.739152
vt 0.722310 0.665184
vt 0.759159 0.703407
vt 0.271226 0.700835
vt 0.219490 0.639247
vt 0.585882 0.661574
vt 0.515641 0.747737
vt 0.496325 0.685388
vt 0.793284 0.619169
vt 0.646330 0.631606
vt 0.305880 0.642864
vt 0.356969 0.710096
vt 0.415803 0.642107
vt 0.483436 0.598516
vt 0.120265 0.614919
vt 0.847320 0.555190
vt 0.129183 0.529991
vt 0.197376 0.528733
vt 0.678375 0.531169
vt 0.551934 0.594209
vt 0.598604 0.511104
vt 0.418675 0.505290
vt 0.348199 0.557155
vt 0.509796 0.519856
vt 0.054781 0.635947
vt 0.051685 0.534406
vt 0.726760 0.444083
vt 0.261625 0.438599
vt 0.246354 0.563729
vt 0.780662 0.460931
vt 0.854381 0.467083
vt 0.902377 0.512403
vt 0.052113 0.461277
vt 0.206465 0.435792
vt 0.940258 0.464326
vt 0.945393 0.517620
vt 0.363589 0.462659
vt 0.505385 0.447165
vt 0.924755 0.395499
vt 0.628124 0.415828
vt 0.140229 0.392062
vt 0.050601 0.434040
vt 0.057710 0.392986
vt 0.360583 0.335561
vt 0.522071 0.400170
vt 0.422510 0.398739
vt 0.076501 0.357967
vt 0.312898 0.337508
vt 0.838400 0.382206
vt 0.836044 0.289969
vt 0.181709 0.291999
vt 0.086704 0.321594
vt 0.483194 0.338162
vt 0.933305 0.340066
vt 0.094832 0.286738
vt 0.752600 0.340979
vt 0.491735 0.240546
vt 0.412875 0.248736
vt 0.312081 0.248215
vt 0.251901 0.331461
vt 0.246179 0.231624
vt 0.762519 0.197353
vt 0.902272 0.250549
vt 0.415823 0.190631
vt 0.116089 0.239244
vt 0.160120 0.190956
vt 0.533763 0.191728
vt 0.658660 0.212008
vt 0.593996 0.248846
vt 0.820933 0.135387
vt 0.317925 0.155142
vt 0.208718 0.132872
vt 0.712145 0.136510
vt 0.471276 0.107999
vt 0.252621 0.088970
vt 0.591502 0.124213
vt 0.758252 0.085693
vt 0.806487 0.112795
vt 0.393960 0.102730
vt 0.329247 0.055299
vt 0.402385 0.028646
vt 0.534037 0.057052
vt 0.647027 0.051298
vt 0.696201 0.071414
vt 0.473475 0.019956
vt 0.527523 0.023330
vt 0.591278 0.040339
vt 0.518254 0.993779
vt 0.431356 0.996943
vt 0.382801 0.981846
vt 0.666047 0.941591
vt 0.780286 0.926630
vt 0.867741 0.871217
vt 0.923535 0.761613
vt 0.911574 0.804885
vt 0.079246 0.716122
vt 0.935583 0.674678
vt 0.067857 0.672249
vt 0.929620 0.624485
vt 0.940589 0.605482
vt 0.673321 0.333052
vt 0.570248 0.324852
vt 0.889855 0.201145
vt 0.856176 0.153058
vt 0.185511 0.161032
vt 0.291455 0.067109
vn -0.2950 0.3363 -0.8944
vn 0.3027 0.3906 -0.8694
vn 0.2423 0.3897 -0.8885
vn -0.5540 -0.3342 -0.7625
vn 0.2199 0.4683 -0.8557
vn 0.2204 0.9680 0.1197
vn -0.5342 0.3645 -0.7627
vn -0.6370 0.4166 -0.6486
vn -0.6185 0.3974 -0.6778
vn 0.6291 0.4566 -0.6291
vn -0.1796 0.9738 -0.1394
vn -0.2576 0.6661 -0.6999
vn 0.1394 0.7055 -0.6948
vn 0.1782 0.6865 -0.7049
vn -0.3084 0.5439 -0.7805
vn 0.3812 0.5275 -0.7592
vn -0.7102 0.3895 -0.5865
vn 0.1402 0.9799 -0.1417
vn -0.7585 0.3708 -0.5359
vn 0.1961 0.4308 -0.8809
vn 0.4552 0.5289 -0.7163
vn 0.6044 0.4422 -0.6626
vn 0.6476 0.6220 -0.4401
vn -0.6909 0.6564 -0.3029
vn -0.5718 0.6995 -0.4286
vn 0.2959 0.3353 -0.8944
vn 0.1697 0.3234 -0.9309
vn 0.4791 0.3330 -0.8122
vn 0.6969 0.7110 -0.0941
vn 0.5391 0.4007 -0.7408
vn -0.7387 0.4705 -0.4826
vn -0.4423 0.5062 -0.7403
vn -0.7264 0.5076 -0.4633
vn -0.4889 0.3625 -0.7935
vn -0.6838 0.6730 -0.2819
vn 0.9067 0.3545 -0.2285
vn 0.7781 0.6223 0.0856
vn -0.6407 0.7646 0.0696
vn -0.7946 0.5748 -0.1956
vn 0.7504 0.3208 -0.5779
vn -0.7762 0.4120 -0.4773
vn 0.0890 0.6845 -0.7236
vn -0.9084 0.4136 -0.0603
vn 0.9363 0.3499 0.0290
vn 0.5530 0.7086 -0.4383
vn -0.9209 0.3670 -0.1314
vn 0.7800 0.6204 0.0820
vn 0.9498 0.2991 -0.0920
vn -0.9105 0.4135 0.0064
vn -0.8613 0.4440 -0.2468
vn 0.1423 0.9896 -0.0195
vn -0.7764 0.6264 -0.0700
vn 0.4911 0.6577 0.5712
vn -0.0217 0.9904 0.1363
vn 0.9514 0.2923 0.0969
vn -0.9206 0.3821 -0.0802
vn 0.9243 0.3753 0.0695
vn -0.8579 0.4391 -0.2669
vn -0.8840 0.4608 -0.0788
vn 0.9412 0.3068 -0.1415
vn -0.9086 0.3403 0.2421
vn -0.6159 0.5868 0.5257
vn 0.2926 0.9339 0.2055
vn -0.6166 0.5866 0.5251
vn -0.8624 0.3294 0.3844
vn -0.4973 0.8053 0.3228
vn 0.9123 0.4083 0.0313
vn -0.8881 0.3177 0.3321
vn -0.5501 0.5688 0.6114
vn 0.8962 0.4422 -0.0366
vn -0.8946 0.3239 0.3079
vn 0.7313 0.6781 0.0734
vn -0.4897 0.5013 0.7134
vn -0.1305 0.9593 0.2503
vn -0.5195 0.6102 0.5982
vn 0.5250 0.7050 0.4769
vn 0.9082 0.3845 0.1653
vn -0.6373 0.1031 0.7637
vn -0.9019 0.3249 0.2847
vn -0.6276 0.3847 0.6769
vn 0.0643 0.3591 0.9311
vn 0.6691 0.4205 0.6127
vn -0.3534 0.6900 0.6316
vn 0.0116 0.1993 0.9799
vn -0.5203 0.6108 0.5968
vn -0.5952 0.4383 0.6735
vn 0.6243 0.6119 0.4856
vn -0.0113 0.6743 0.7383
vn -0.6662 0.4726 0.5769
vn -0.2163 0.5942 0.7747
vn 0.0573 0.6493 0.7584
vn 0.6207 0.4246 0.6591
vn 0.0399 0.9948 0.0940
vn 0.0099 0.9974 -0.0714
vn -0.5312 0.3762 0.7591
vn -0.2991 0.3291 0.8957
vn -0.0818 0.3645 0.9276
vn 0.2094 0.4397 0.8734
vn 0.2048 0.3681 0.9069
vn 0.1576 0.3330 0.9296
vn 0.0186 0.9803 -0.1968
vn 0.2219 0.9748 -0.0243
vn -0.0555 0.9698 0.2375
vn -0.1271 0.3866 -0.9135
vn 0.2669 0.3732 -0.8885
vn -0.5456 0.4328 -0.7176
vn 0.2871 0.4130 -0.8643
vn 0.1864 0.4241 -0.8862
vn -0.3312 0.3334 -0.8827
vn 0.0284 0.3927 -0.9192
vn 0.1712 0.9343 -0.3127
vn 0.5231 0.6598 -0.5394
vn -0.2536 0.6641 -0.7033
vn 0.3628 0.4051 -0.8392
vn 0.2640 0.6266 -0.7333
vn 0.3528 0.6487 -0.6744
vn 0.2148 0.7169 -0.6632
vn -0.6896 0.3778 -0.6178
vn -0.5480 0.5595 -0.6218
vn 0.5639 0.4020 -0.7214
vn 0.4745 0.8529 -0.2176
vn 0.1526 0.3675 -0.9174
vn -0.3720 0.5877 -0.7185
vn 0.3016 0.3935 -0.8684
vn 0.4739 0.7225 -0.5034
vn 0.8366 0.3299 -0.4374
vn -0.8449 0.3638 -0.3922
vn 0.9197 0.3874 -0.0635
vn -0.5672 0.7025 -0.4299
vn -0.7797 0.4876 -0.3929
vn -0.8695 0.3593 -0.3390
vn -0.4127 0.4792 -0.7746
vn 0.2936 0.3370 -0.8946
vn -0.8779 0.3818 -0.2889
vn 0.9101 0.4143 -0.0089
vn 0.0014 0.9998 -0.0203
vn -0.6719 0.4940 -0.5518
vn 0.8927 0.4227 0.1563
vn -0.6779 0.4978 -0.5409
vn 0.0970 0.4715 -0.8765
vn 0.2934 0.3928 -0.8716
vn -0.7688 0.3968 -0.5015
vn 0.8086 0.5089 -0.2951
vn 0.9131 0.4011 0.0728
vn -0.7187 0.5019 -0.4812
vn 0.9193 0.3817 -0.0956
vn 0.7747 0.3557 -0.5229
vn 0.0831 0.9960 0.0340
vn -0.6723 0.5152 -0.5316
vn -0.5063 0.4591 0.7300
vn -0.9437 0.3116 0.1112
vn -0.9145 0.3260 -0.2395
vn 0.9174 0.3643 0.1600
vn -0.6880 0.5882 -0.4250
vn 0.9560 0.2791 0.0901
vn -0.9436 0.2929 0.1545
vn -0.8186 0.5629 0.1142
vn -0.7874 0.5717 -0.2308
vn 0.7054 0.7066 -0.0558
vn -0.5643 0.5674 0.5997
vn -0.6075 0.3562 0.7100
vn -0.6852 0.4452 0.5764
vn 0.7098 0.7044 -0.0059
vn -0.7948 0.4501 0.4070
vn 0.8365 0.2635 0.4805
vn 0.9104 0.4062 0.0784
vn 0.6858 0.5092 0.5200
vn 0.7127 0.7014 -0.0108
vn -0.8055 0.4007 0.4367
vn -0.6619 0.3572 0.6591
vn -0.7491 0.5916 0.2981
vn -0.7921 0.5197 0.3202
vn 0.6565 0.4728 0.5878
vn 0.9539 0.2747 0.1213
vn -0.7487 0.5992 0.2836
vn -0.1552 0.3292 0.9314
vn -0.8769 0.3257 0.3535
vn 0.7387 0.3110 0.5980
vn 0.7226 0.5326 0.4406
vn -0.4962 0.6229 0.6048
vn -0.0761 0.5693 0.8186
vn 0.7179 0.2947 0.6307
vn -0.4563 0.7705 0.4450
vn 0.7096 0.5227 0.4725
vn 0.1753 0.4317 0.8848
vn 0.5869 0.6227 0.5175
vn 0.6591 0.6329 0.4062
vn -0.5782 0.4088 0.7060
vn 0.7018 0.3955 0.5924
vn 0.0762 0.2689 0.9601
vn 0.1832 0.3012 0.9358
vn -0.1340 0.9879 -0.0779
vn -0.6549 0.4160 0.6309
vn 0.3609 0.7678 0.5294
vn -0.1543 0.9248 0.3477
vn -0.0362 0.6125 0.7896
vn 0.1030 0.5674 0.8169
vn 0.7283 0.3613 0.5823
vn -0.3700 0.4391 0.8187
vn 0.1089 0.3905 0.9141
vn -0.3389 0.4410 0.8310
vn 0.2981 0.3482 0.8888
vn 0.0864 0.3109 0.9465
vn -0.0565 0.8151 0.5766
vn 0.1237 0.9916 -0.0389
usemtl Rock
s off
f 112/1/1 128/2/1 133/3/1
f 118/4/2 131/5/2 128/2/2
f 129/6/3 131/5/3 118/4/3
f 122/7/4 126/8/4 127/9/4
f 121/10/5 117/11/5 113/12/5
f 127/9/6 123/13/6 119/14/6
f 112/1/7 122/7/7 127/9/7
f 119/14/8 112/1/8 127/9/8
f 110/15/9 112/1/9 119/14/9
f 111/16/10 120/17/10 113/12/10
f 107/18/11 119/14/11 114/19/11
f 109/20/12 115/21/12 112/1/12
f 101/22/13 117/11/13 106/23/13
f 101/22/14 113/12/14 117/11/14
f 103/24/15 115/21/15 109/20/15
f 106/23/16 115/21/16 103/24/16
f 104/25/17 110/15/17 107/18/17
f 95/26/18 108/27/18 113/12/18
f 104/25/19 107/18/19 99/28/19
f 101/22/20 106/23/20 98/29/20
f 92/30/21 101/22/21 98/29/21
f 87/31/22 101/22/22 92/30/22
f 95/26/23 113/12/23 87/31/23
f 91/32/24 109/20/24 110/15/24
f 104/25/25 94/33/25 110/15/25
f 93/34/26 98/29/26 102/35/26
f 88/36/27 102/35/27 103/24/27
f 92/30/28 98/29/28 93/34/28
f 84/37/29 95/26/29 87/31/29
f 92/30/30 93/34/30 83/38/30
f 80/39/31 97/40/31 91/32/31
f 89/41/32 88/36/32 97/40/32
f 80/39/33 89/41/33 97/40/33
f 82/42/34 88/36/34 89/41/34
f 94/33/35 104/25/35 81/43/35
f 84/37/36 87/31/36 92/30/36
f 69/44/37 95/26/37 84/37/37
f 67/45/38 94/33/38 81/43/38
f 94/33/39 67/45/39 72/46/39
f 78/47/40 79/48/40 63/49/40
f 65/50/41 82/42/41 70/51/41
f 79/48/42 82/42/42 75/52/42
f 67/45/43 85/53/43 73/54/43
f 48/55/44 84/37/44 78/47/44
f 63/49/45 79/48/45 75/52/45
f 56/56/46 71/57/46 72/46/46
f 66/58/47 69/44/47 84/37/47
f 60/59/48 68/60/48 69/44/48
f 61/61/49 67/45/49 73/54/49
f 56/56/50 72/46/50 51/62/50
f 59/63/51 74/64/51 68/60/51
f 64/65/52 71/57/52 56/56/52
f 62/66/53 63/49/53 75/52/53
f 45/67/54 59/63/54 68/60/54
f 50/68/55 78/47/55 63/49/55
f 52/69/56 67/45/56 61/61/56
f 48/55/57 78/47/57 50/68/57
f 52/69/58 61/61/58 58/70/58
f 51/62/59 67/45/59 52/69/59
f 45/67/60 68/60/60 60/59/60
f 54/71/61 52/69/61 58/70/61
f 47/72/62 64/65/62 56/56/62
f 55/73/63 63/49/63 62/66/63
f 53/74/64 64/65/64 47/72/64
f 52/69/65 54/71/65 49/75/65
f 47/72/66 56/56/66 43/76/66
f 45/67/67 57/77/67 36/78/67
f 40/79/68 52/69/68 44/80/68
f 42/81/69 53/74/69 47/72/69
f 39/82/70 45/67/70 36/78/70
f 40/79/71 44/80/71 38/83/71
f 36/78/72 57/77/72 37/84/72
f 34/85/73 42/81/73 47/72/73
f 34/85/74 47/72/74 33/86/74
f 26/87/75 35/88/75 27/89/75
f 30/90/76 36/78/76 37/84/76
f 31/91/77 39/82/77 36/78/77
f 33/86/78 43/76/78 29/92/78
f 40/79/79 38/83/79 32/93/79
f 23/94/80 40/79/80 32/93/80
f 25/95/81 22/96/81 28/97/81
f 30/90/82 15/98/82 36/78/82
f 29/92/83 26/87/83 19/99/83
f 25/95/84 33/86/84 29/92/84
f 19/99/85 26/87/85 27/89/85
f 19/99/86 27/89/86 18/100/86
f 16/101/87 30/90/87 22/96/87
f 25/95/88 29/92/88 12/102/88
f 13/103/89 19/99/89 18/100/89
f 12/102/90 29/92/90 19/99/90
f 17/104/91 25/95/91 12/102/91
f 11/105/92 15/98/92 30/90/92
f 14/106/93 15/98/93 11/105/93
f 12/102/94 19/99/94 10/107/94
f 10/107/95 19/99/95 5/108/95
f 2/109/96 10/107/96 5/108/96
f 7/110/97 6/111/97 17/104/97
f 8/112/98 17/104/98 6/111/98
f 7/110/99 10/107/99 2/109/99
f 7/110/100 12/102/100 10/107/100
f 1/113/101 7/110/101 2/109/101
f 3/114/102 4/115/102 7/110/102
f 135/116/103 134/117/103 131/5/103
f 132/118/104 128/2/104 134/117/104
f 128/2/105 131/5/105 134/117/105
f 133/3/106 128/2/106 132/118/106
f 117/11/107 129/6/107 118/4/107
f 117/11/108 130/119/108 129/6/108
f 122/7/109 112/1/109 133/3/109
f 117/11/110 121/10/110 130/119/110
f 120/17/111 125/120/111 121/10/111
f 111/16/112 116/121/112 120/17/112
f 112/1/113 115/21/113 128/2/113
f 113/12/114 120/17/114 121/10/114
f 115/21/115 118/4/115 128/2/115
f 115/21/116 106/23/116 118/4/116
f 106/23/117 117/11/117 118/4/117
f 107/18/118 110/15/118 119/14/118
f 110/15/119 109/20/119 112/1/119
f 108/27/120 111/16/120 113/12/120
f 100/122/121 105/123/121 111/16/121
f 102/35/122 106/23/122 103/24/122
f 97/40/123 103/24/123 109/20/123
f 102/35/124 98/29/124 106/23/124
f 87/31/125 113/12/125 101/22/125
f 100/122/126 111/16/126 108/27/126
f 96/124/127 104/25/127 99/28/127
f 108/27/128 86/125/128 100/122/128
f 94/33/129 91/32/129 110/15/129
f 91/32/130 97/40/130 109/20/130
f 104/25/131 90/126/131 85/53/131 81/43/131
f 97/40/132 88/36/132 103/24/132
f 93/34/133 102/35/133 88/36/133
f 90/126/134 104/25/134 96/124/134
f 95/26/135 86/125/135 108/27/135
f 77/127/136 68/60/136 74/64/136 76/128/136
f 94/33/137 80/39/137 91/32/137
f 95/26/138 77/127/138 86/125/138
f 71/57/139 80/39/139 94/33/139
f 79/48/140 88/36/140 82/42/140
f 79/48/141 93/34/141 88/36/141
f 70/51/142 82/42/142 89/41/142
f 83/38/143 78/47/143 92/30/143
f 69/44/144 77/127/144 95/26/144
f 80/39/145 70/51/145 89/41/145
f 78/47/146 84/37/146 92/30/146
f 78/47/147 93/34/147 79/48/147
f 78/47/148 83/38/148 93/34/148
f 71/57/149 70/51/149 80/39/149
f 35/88/150 26/87/150 29/92/150 43/76/150
f 85/53/151 67/45/151 81/43/151
f 71/57/152 94/33/152 72/46/152
f 68/60/153 77/127/153 69/44/153
f 65/50/154 75/52/154 82/42/154
f 48/55/155 66/58/155 84/37/155
f 70/51/156 64/65/156 65/50/156
f 64/65/157 70/51/157 71/57/157
f 51/62/158 72/46/158 67/45/158
f 60/59/159 69/44/159 66/58/159
f 65/50/160 62/66/160 75/52/160
f 62/66/161 65/50/161 64/65/161
f 53/74/162 62/66/162 64/65/162
f 57/77/163 60/59/163 66/58/163
f 55/73/164 62/66/164 53/74/164
f 50/68/165 41/129/165 48/55/165
f 57/77/166 45/67/166 60/59/166
f 55/73/167 50/68/167 63/49/167
f 57/77/168 66/58/168 37/84/168
f 43/76/169 56/56/169 51/62/169
f 42/81/170 55/73/170 53/74/170
f 35/88/171 51/62/171 52/69/171
f 35/88/172 43/76/172 51/62/172
f 55/73/173 46/130/173 50/68/173
f 48/55/174 37/84/174 66/58/174
f 40/79/175 35/88/175 52/69/175
f 42/81/176 46/130/176 55/73/176
f 44/80/177 52/69/177 49/75/177
f 46/130/178 41/129/178 50/68/178
f 41/129/179 37/84/179 48/55/179
f 27/89/180 35/88/180 40/79/180
f 34/85/181 46/130/181 42/81/181
f 46/130/182 28/97/182 41/129/182
f 33/86/183 47/72/183 43/76/183
f 41/129/184 22/96/184 37/84/184
f 28/97/185 46/130/185 34/85/185
f 28/97/186 22/96/186 41/129/186
f 30/90/187 37/84/187 22/96/187
f 27/89/188 40/79/188 23/94/188
f 15/98/189 31/91/189 36/78/189
f 25/95/190 34/85/190 33/86/190
f 25/95/191 28/97/191 34/85/191
f 15/98/192 24/131/192 31/91/192
f 18/100/193 27/89/193 23/94/193
f 15/98/194 20/132/194 24/131/194
f 21/133/195 18/100/195 23/94/195
f 17/104/196 22/96/196 25/95/196
f 17/104/197 16/101/197 22/96/197
f 16/101/198 11/105/198 30/90/198
f 9/134/199 19/99/199 13/103/199
f 17/104/200 8/112/200 16/101/200
f 5/108/201 19/99/201 9/134/201
f 8/112/202 11/105/202 16/101/202
f 12/102/203 7/110/203 17/104/203
f 4/115/204 6/111/204 7/110/204
f 3/114/205 7/110/205 1/113/205
l 123 124
