# Blender v2.81 (sub 16) OBJ File: 'Nature Pack Low Poly.blend'
# www.blender.org
mtllib Terrain_Part_Plane_10.mtl
o Terrain_Part_Plane_10_Plane.027
v 0.000006 -0.200000 -10.693073
v 0.000006 0.000000 -20.000000
v -8.910887 -0.143430 -10.891092
v -8.712870 0.000000 -20.000000
v -8.712866 0.000000 -11.287132
v -8.712866 -0.042794 -11.089111
v -8.910889 -0.042795 -20.000000
v -8.910887 -0.042796 -11.287132
v -8.910887 -0.042796 -11.089111
v -9.108908 -0.143430 -20.000000
v -9.108906 -0.143431 -11.089111
v -9.108906 -0.143431 -10.891092
v -9.108906 -0.200000 -10.693073
v -9.306929 -0.200000 -20.000000
v -9.306925 -0.200000 -10.891092
v -9.306925 -0.200000 -10.693073
v -10.693064 -0.200000 -10.825086
v -10.693067 -0.200000 -20.000000
v -10.891088 -0.143430 -20.000000
v -10.891083 -0.143431 -11.023105
v -10.891083 -0.143431 -10.891092
v -11.089106 -0.042795 -20.000000
v -11.089104 -0.042795 -11.221126
v -11.089104 -0.042795 -11.089111
v -11.023098 -0.143430 -10.891092
v -11.287126 0.000000 -20.000000
v -11.287123 0.000000 -11.287132
v -11.221119 -0.042794 -11.089111
v -10.825076 -0.200000 -10.693073
v -19.999994 -0.042794 -11.089111
v -19.999994 -0.143434 -10.891087
v -19.999994 -0.200000 -9.306933
v 0.000006 0.000000 -11.287132
v 0.000006 -0.042794 -11.089111
v 0.000006 -0.143430 -10.891092
v 0.000006 -0.200000 -9.306934
v 0.000006 -0.143434 -9.108913
v 0.000006 -0.042798 -8.910894
v 0.000006 0.000000 -8.712875
v 0.000006 0.000000 0.000000
v -19.999994 0.000000 0.000000
v -19.999994 0.000000 -8.712873
v -19.999994 -0.042794 -8.910889
v -19.999994 -0.143430 -9.108908
v -19.999994 -0.200000 -10.693070
v -19.999994 0.000000 -11.287127
v -19.999994 0.000000 -20.000000
vt 1.000000 0.544555
vt 1.000000 0.554456
vt 0.554456 0.544554
vt 1.000000 0.534654
vt 0.544555 0.534654
vt 1.000000 0.465347
vt 0.458746 0.534654
vt 0.544555 1.000000
vt 0.534654 1.000000
vt 0.534654 0.544554
vt 0.465347 1.000000
vt 0.465347 0.541254
vt 0.455446 1.000000
vt 0.455446 0.551155
vt 0.455446 0.544555
vt 0.445545 1.000000
vt 0.445545 0.561056
vt 0.445545 0.554456
vt 0.448845 0.544554
vt 0.438944 0.554456
vt 0.000000 0.465347
vt 0.000000 0.554456
vt 0.000000 0.544555
vt 0.000000 0.534654
vt 1.000000 0.455446
vt 0.000000 0.455446
vt 0.564357 0.554456
vt 0.554456 0.554456
vt 0.544555 0.554456
vt 0.554456 0.564356
vt 0.554456 1.000000
vt 0.544555 0.544555
vt 0.534654 0.534654
vt 0.000000 0.445545
vt 1.000000 0.445545
vt 1.000000 0.564357
vt 1.000000 1.000000
vt 0.564357 0.564357
vt 0.564357 1.000000
vt 1.000000 0.435644
vt 0.000000 0.435644
vt 0.000000 0.564357
vt 0.113861 0.000000
vt 0.000000 0.000000
vt 0.435644 1.000000
vt 0.392327 1.000000
vt 1.000000 0.420792
vt 0.435644 0.564356
vn 0.0000 0.8915 0.4531
vn 0.0000 0.9615 0.2747
vn 0.0000 1.0000 0.0000
vn -0.2747 0.9615 0.0000
vn 0.2747 0.9615 -0.0000
vn 0.2050 0.9570 0.2050
vn 0.4531 0.8915 -0.0000
vn 0.0000 0.9615 -0.2747
vn -0.4531 0.8915 0.0000
vn -0.2391 0.9411 0.2391
vn -0.1400 0.9802 0.1400
vn 0.0000 0.0000 1.0000
vn 0.2391 0.9411 0.2391
vn 0.0000 0.8915 -0.4531
vn 0.0000 0.9774 0.2112
vn -0.2112 0.9774 0.0000
vn -0.0000 0.9774 -0.2113
vn -0.1068 0.9885 0.1068
vn 0.2112 0.9774 -0.0000
vn 0.1068 0.9885 0.1068
vn 0.0000 0.9774 -0.2112
usemtl Branch_3
s off
f 35/1/1 34/2/1 3/3/1
f 1/4/2 3/3/2 13/5/2
f 36/6/3 1/4/3 29/7/3
f 10/8/4 14/9/4 15/10/4
f 14/9/3 18/11/3 17/12/3
f 18/11/5 19/13/5 20/14/5
f 17/12/5 20/14/5 21/15/5
f 29/7/6 17/12/6 21/15/6
f 19/13/7 22/16/7 23/17/7
f 20/14/7 23/17/7 24/18/7
f 29/7/2 21/15/2 25/19/2
f 25/19/1 24/18/1 28/20/1
f 36/6/3 29/7/3 32/21/3
f 25/19/1 30/22/1 31/23/1
f 29/7/3 45/24/3 32/21/3
f 37/25/8 32/21/8 44/26/8
f 1/4/2 35/1/2 3/3/2
f 3/3/1 34/2/1 6/27/1
f 9/28/1 3/3/1 6/27/1
f 10/8/9 11/29/9 8/30/9 7/31/9
f 11/29/9 9/28/9 8/30/9
f 11/29/10 12/32/10 3/3/10 9/28/10
f 12/32/2 13/5/2 3/3/2
f 15/10/4 12/32/4 11/29/4
f 11/29/4 10/8/4 15/10/4
f 15/10/11 16/33/11 13/5/11 12/32/11
f 17/12/3 29/7/3 1/4/3 16/33/3
f 1/4/12 13/5/12 16/33/12
f 16/33/3 15/10/3 17/12/3
f 15/10/3 14/9/3 17/12/3
f 20/14/13 24/18/13 25/19/13 21/15/13
f 17/12/5 18/11/5 20/14/5
f 20/14/7 19/13/7 23/17/7
f 44/26/14 43/34/14 38/35/14 37/25/14
f 37/25/8 36/6/8 32/21/8
f 45/24/2 29/7/2 25/19/2
f 25/19/1 28/20/1 30/22/1
f 45/24/2 25/19/2 31/23/2
usemtl leaves_dark
f 33/36/3 2/37/3 5/38/3
f 2/37/3 4/39/3 5/38/3
f 34/2/15 5/38/15 6/27/15
f 5/38/16 7/31/16 8/30/16
f 39/40/17 38/35/17 42/41/17
f 28/20/15 46/42/15 30/22/15
f 40/43/3 42/41/3 41/44/3
f 8/30/18 9/28/18 6/27/18 5/38/18
f 46/42/3 26/45/3 47/46/3
f 34/2/15 33/36/15 5/38/15
f 5/38/16 4/39/16 7/31/16
f 40/47/3 39/40/3 42/41/3
f 26/45/19 27/48/19 23/17/19 22/16/19
f 23/17/20 27/48/20 28/20/20 24/18/20
f 27/48/3 26/45/3 46/42/3
f 28/20/15 27/48/15 46/42/15
f 42/41/21 38/35/21 43/34/21
