# Blender v2.81 (sub 16) OBJ File: 'Nature Pack Low Poly.blend'
# www.blender.org
mtllib Terrain_Part_Ramp_1.mtl
o Terrain_Part_Ramp_1_Plane.011
v 20.000008 3.000000 -20.000000
v 0.000008 0.000000 0.000000
v 4.158438 0.000017 0.000000
v 4.356450 0.001708 0.000000
v 4.554456 0.006127 0.000000
v 4.752490 0.013203 0.000000
v 4.950506 0.022866 0.000000
v 5.148529 0.035047 0.000000
v 5.346544 0.049674 0.000000
v 5.544574 0.066679 0.000000
v 5.742578 0.085989 0.000000
v 5.940600 0.107538 0.000000
v 6.138626 0.131254 0.000000
v 6.336654 0.157068 0.000000
v 6.534665 0.184906 0.000000
v 6.732685 0.214703 0.000000
v 6.930706 0.246387 0.000000
v 7.128721 0.279886 0.000000
v 7.326737 0.315133 0.000000
v 7.524770 0.352059 0.000000
v 7.722793 0.390590 0.000000
v 7.920799 0.430655 0.000000
v 8.118816 0.472189 0.000000
v 8.316842 0.515122 0.000000
v 8.514856 0.559378 0.000000
v 8.712892 0.604896 0.000000
v 9.108925 0.699413 0.000000
v 9.306939 0.748276 0.000000
v 9.504957 0.798117 0.000000
v 9.702987 0.848867 0.000000
v 9.901005 0.900450 0.000000
v 10.099027 0.952801 0.000000
v 10.297049 1.005849 0.000000
v 10.495050 1.059517 0.000000
v 10.693075 1.113748 0.000000
v 10.891102 1.168466 0.000000
v 11.089079 1.223587 0.000000
v 11.287153 1.279081 0.000000
v 11.485139 1.334826 0.000000
v 11.683241 1.390811 0.000000
v 11.881227 1.446899 0.000000
v 12.077904 1.502682 0.000000
v 12.277218 1.559209 0.000000
v 12.475250 1.615299 0.000000
v 12.673273 1.671242 0.000000
v 12.871305 1.726973 0.000000
v 13.069334 1.782420 0.000000
v 13.267326 1.837503 0.000000
v 13.465345 1.892170 0.000000
v 13.663357 1.946340 0.000000
v 13.861412 1.999958 0.000000
v 14.059428 2.052932 0.000000
v 14.257421 2.105195 0.000000
v 14.455453 2.156694 0.000000
v 14.653461 2.207344 0.000000
v 14.851513 2.257090 0.000000
v 15.049518 2.305840 0.000000
v 15.247545 2.353541 0.000000
v 15.445533 2.400110 0.000000
v 15.643581 2.445498 0.000000
v 15.841595 2.489613 0.000000
v 16.039606 2.532393 0.000000
v 16.237635 2.573774 0.000000
v 16.435661 2.613679 0.000000
v 16.633675 2.652037 0.000000
v 16.831694 2.688782 0.000000
v 17.029709 2.723842 0.000000
v 17.227722 2.757147 0.000000
v 17.425751 2.788630 0.000000
v 17.623772 2.818217 0.000000
v 17.821796 2.845841 0.000000
v 18.019814 2.871428 0.000000
v 18.217825 2.894911 0.000000
v 18.415852 2.916220 0.000000
v 18.613873 2.935285 0.000000
v 18.811892 2.952034 0.000000
v 19.009914 2.966398 0.000000
v 19.207926 2.978308 0.000000
v 19.405949 2.987693 0.000000
v 19.603970 2.994484 0.000000
v 19.801991 2.998610 0.000000
v 12.871292 1.726970 -20.000000
v 12.277192 1.559201 -20.000000
v 3.959163 0.000000 -20.000000
v 20.000008 3.000000 0.000000
v 20.000008 3.000000 -4.947675
v 20.000008 3.000000 -6.696086
v 20.000008 3.000001 -8.096966
v 20.000008 3.000001 -9.371145
v 20.000008 3.000001 -10.409113
v 20.000008 3.000000 -11.831773
v 20.000008 3.000000 -13.065549
v 20.000008 3.000001 -14.182398
v 20.000008 3.000000 -15.435640
v 0.000008 0.000000 -20.000000
v 3.959142 0.000000 0.000000
v 4.158432 0.000017 -20.000000
v 4.356449 0.001708 -20.000000
v 4.554458 0.006127 -20.000000
v 4.752489 0.013203 -20.000000
v 4.950510 0.022866 -20.000000
v 5.148518 0.035046 -20.000000
v 5.346544 0.049674 -20.000000
v 5.544561 0.066678 -20.000000
v 5.742586 0.085990 -20.000000
v 5.940605 0.107538 -20.000000
v 6.138627 0.131254 -20.000000
v 6.336648 0.157067 -20.000000
v 6.534654 0.184905 -20.000000
v 6.732684 0.214703 -20.000000
v 6.930704 0.246386 -20.000000
v 7.128718 0.279886 -20.000000
v 7.326742 0.315134 -20.000000
v 7.524761 0.352057 -20.000000
v 7.722786 0.390589 -20.000000
v 7.920800 0.430656 -20.000000
v 8.118820 0.472190 -20.000000
v 8.316840 0.515121 -20.000000
v 8.514862 0.559379 -20.000000
v 8.712875 0.604892 -20.000000
v 8.910896 0.651594 0.000000
v 8.910891 0.651592 -20.000000
v 9.108922 0.699413 -20.000000
v 9.306935 0.748275 -20.000000
v 9.504967 0.798119 -20.000000
v 9.702973 0.848863 -20.000000
v 9.901005 0.900450 -20.000000
v 10.099018 0.952799 -20.000000
v 10.297033 1.005845 -20.000000
v 10.495061 1.059520 -20.000000
v 10.693095 1.113754 -20.000000
v 10.891066 1.168456 -20.000000
v 11.089120 1.223598 -20.000000
v 11.287115 1.279070 -20.000000
v 11.485138 1.334826 -20.000000
v 11.683163 1.390789 -20.000000
v 11.881244 1.446903 -20.000000
v 12.475250 1.615298 -20.000000
v 12.673267 1.671240 -20.000000
v 13.069335 1.782421 -20.000000
v 13.267307 1.837498 -20.000000
v 13.465346 1.892170 -20.000000
v 13.663367 1.946343 -20.000000
v 13.861403 1.999956 -20.000000
v 14.059418 2.052928 -20.000000
v 14.257425 2.105196 -20.000000
v 14.455494 2.156705 -20.000000
v 14.653478 2.207348 -20.000000
v 14.851469 2.257079 -20.000000
v 15.049516 2.305840 -20.000000
v 15.247551 2.353543 -20.000000
v 15.445517 2.400106 -20.000000
v 15.643574 2.445496 -20.000000
v 15.841597 2.489613 -20.000000
v 16.039591 2.532390 -20.000000
v 16.237669 2.573781 -20.000000
v 16.435637 2.613674 -20.000000
v 16.633633 2.652029 -20.000000
v 16.831711 2.688785 -20.000000
v 17.029705 2.723841 -20.000000
v 17.227724 2.757147 -20.000000
v 17.425755 2.788630 -20.000000
v 17.623737 2.818212 -20.000000
v 17.821831 2.845844 -20.000000
v 18.019815 2.871428 -20.000000
v 18.217838 2.894912 -20.000000
v 18.415825 2.916218 -20.000000
v 18.613859 2.935283 -20.000000
v 18.811920 2.952036 -20.000000
v 19.009937 2.966400 -20.000000
v 19.207903 2.978307 -20.000000
v 19.405952 2.987693 -20.000000
v 19.603947 2.994484 -20.000000
v 19.801989 2.998610 -4.566836
v 19.801989 2.998610 -6.039608
v 19.801989 2.998610 -7.821786
v 19.801989 2.998610 -10.074261
v 19.801989 2.998610 -11.608913
v 19.801989 2.998610 -13.304458
v 19.801989 2.998610 -15.222774
v 19.801989 2.998610 -20.000000
vt 0.653465 1.000000
vt 0.643564 1.000000
vt 0.643564 0.000000
vt 0.990099 1.000000
vt 0.980198 1.000000
vt 0.980198 0.000000
vt 0.970297 1.000000
vt 0.970297 0.000000
vt 0.960396 1.000000
vt 0.960396 0.000000
vt 0.950495 1.000000
vt 0.950495 -0.000000
vt 0.940594 0.000000
vt 0.930693 1.000000
vt 0.930693 0.000000
vt 0.910891 0.000000
vt 0.900990 1.000000
vt 0.900990 0.000000
vt 0.920792 1.000000
vt 0.920792 0.000000
vt 0.881188 0.000000
vt 0.871287 1.000000
vt 0.871287 0.000000
vt 0.891089 1.000000
vt 0.891089 0.000000
vt 0.861386 1.000000
vt 0.861386 0.000000
vt 0.881188 1.000000
vt 0.851485 1.000000
vt 0.851485 0.000000
vt 0.841584 1.000000
vt 0.841584 0.000000
vt 0.831683 1.000000
vt 0.831683 0.000000
vt 0.821782 1.000000
vt 0.821782 -0.000000
vt 0.801980 0.000000
vt 0.792079 1.000000
vt 0.792079 0.000000
vt 0.782178 1.000000
vt 0.782178 -0.000000
vt 1.000000 0.247384
vt 0.990099 0.228342
vt 0.990099 0.000000
vt 0.811881 1.000000
vt 0.801980 1.000000
vt 0.772277 -0.000000
vt 0.762376 1.000000
vt 0.762376 -0.000000
vt 0.752475 1.000000
vt 0.752475 -0.000000
vt 0.772277 1.000000
vt 0.742574 -0.000000
vt 0.732673 1.000000
vt 0.732673 -0.000000
vt 0.722772 1.000000
vt 0.722772 0.000000
vt 0.742574 1.000000
vt 0.712871 0.000000
vt 0.702970 1.000000
vt 0.702970 0.000000
vt 0.990099 0.301980
vt 0.693069 1.000000
vt 0.693069 -0.000000
vt 0.683168 1.000000
vt 0.683168 -0.000000
vt 0.940594 1.000000
vt 0.673267 1.000000
vt 0.673267 0.000000
vt 0.663366 0.000000
vt 0.653465 0.000000
vt 0.663366 1.000000
vt 0.633663 1.000000
vt 0.633663 0.000000
vt 0.623762 1.000000
vt 0.623762 0.000000
vt 1.000000 0.334804
vt 0.990099 0.391089
vt 0.613860 1.000000
vt 0.613861 0.000000
vt 0.594059 -0.000000
vt 0.584159 1.000000
vt 0.584158 -0.000000
vt 0.603960 0.000000
vt 0.574258 1.000000
vt 0.574257 0.000000
vt 0.564357 1.000000
vt 0.564357 0.000000
vt 0.554456 1.000000
vt 0.554456 0.000000
vt 0.544555 1.000000
vt 0.544555 0.000000
vt 0.534654 0.000000
vt 0.524753 1.000000
vt 0.524753 0.000000
vt 1.000000 0.468557
vt 0.990099 0.503713
vt 0.534654 1.000000
vt 0.514852 -0.000000
vt 0.504951 1.000000
vt 0.504951 0.000000
vt 0.495050 1.000000
vt 0.495050 -0.000000
vt 0.514852 1.000000
vt 0.485149 1.000000
vt 0.485149 -0.000000
vt 0.475248 1.000000
vt 0.475248 0.000000
vt 0.465347 1.000000
vt 0.465347 0.000000
vt 0.445545 -0.000000
vt 0.435644 1.000000
vt 0.435644 -0.000000
vt 0.455446 1.000000
vt 0.455446 0.000000
vt 0.425743 1.000000
vt 0.425743 -0.000000
vt 0.445545 1.000000
vt 0.415842 1.000000
vt 0.415842 -0.000000
vt 0.405941 0.000000
vt 0.396040 1.000000
vt 0.396040 0.000000
vt 0.386139 1.000000
vt 0.386139 0.000000
vt 0.405941 1.000000
vt 0.376238 1.000000
vt 0.376238 0.000000
vt 0.366337 1.000000
vt 0.366337 -0.000000
vt 0.356436 0.000000
vt 0.346535 1.000000
vt 0.346535 0.000000
vt 1.000000 0.591589
vt 0.990099 0.665223
vt 0.990099 0.580446
vt 0.336634 1.000000
vt 0.336634 0.000000
vt 0.356436 1.000000
vt 0.326733 0.000000
vt 0.316832 1.000000
vt 0.316832 0.000000
vt 0.326733 1.000000
vt 0.306931 1.000000
vt 0.306931 0.000000
vt 0.297030 -0.000000
vt 0.297030 1.000000
vt 0.277228 0.000000
vt 0.267327 1.000000
vt 0.267327 0.000000
vt 0.287129 1.000000
vt 0.287129 0.000000
vt 1.000000 0.709120
vt 0.990099 0.761139
vt 0.277228 1.000000
vt 0.257426 1.000000
vt 0.257426 0.000000
vt 0.247525 1.000000
vt 0.247525 0.000000
vt 0.227723 0.000000
vt 0.217822 1.000000
vt 0.217822 0.000000
vt 0.237624 1.000000
vt 0.237624 0.000000
vt 0.227723 1.000000
vt 0.207921 1.000000
vt 0.207921 -0.000000
vt 0.198020 1.000000
vt 0.198020 -0.000000
vt 1.000000 0.771782
vt 0.000000 1.000000
vt 0.000000 0.866337
vt 0.594060 1.000000
vt 0.910891 1.000000
vt 0.811881 0.000000
vt 1.000000 0.000000
vt 0.712871 1.000000
vt 1.000000 0.520456
vt 1.000000 0.404848
vt 1.000000 0.653277
vt 1.000000 1.000000
vn -0.2696 0.9630 -0.0000
vn -0.0208 0.9998 0.0000
vn -0.0343 0.9994 0.0000
vn -0.0473 0.9989 0.0000
vn -0.0600 0.9982 0.0000
vn -0.0843 0.9964 -0.0000
vn -0.1178 0.9930 -0.0000
vn -0.0958 0.9954 0.0000
vn -0.1478 0.9890 0.0000
vn -0.1282 0.9918 -0.0000
vn -0.1570 0.9876 -0.0000
vn -0.1382 0.9904 -0.0000
vn -0.1659 0.9861 -0.0000
vn -0.1743 0.9847 0.0000
vn -0.1824 0.9832 -0.0000
vn -0.1902 0.9817 0.0000
vn -0.2112 0.9774 0.0000
vn -0.2175 0.9761 -0.0000
vn -0.0070 1.0000 0.0000
vn -0.2045 0.9789 -0.0000
vn -0.2290 0.9734 -0.0000
vn -0.2342 0.9722 0.0000
vn -0.2234 0.9747 -0.0000
vn -0.2436 0.9699 0.0000
vn -0.2478 0.9688 0.0000
vn -0.2391 0.9710 0.0000
vn -0.2552 0.9669 -0.0000
vn -0.2584 0.9660 0.0000
vn -0.2613 0.9653 -0.0000
vn -0.0723 0.9974 -0.0000
vn -0.2639 0.9646 -0.0000
vn -0.2680 0.9634 0.0000
vn -0.2661 0.9639 0.0000
vn -0.2709 0.9626 0.0000
vn -0.2719 0.9623 -0.0000
vn -0.2725 0.9622 0.0000
vn -0.2726 0.9621 0.0000
vn -0.2729 0.9621 -0.0000
vn -0.2720 0.9623 0.0000
vn -0.2710 0.9626 -0.0000
vn -0.2698 0.9629 0.0000
vn -0.2682 0.9634 0.0000
vn -0.2641 0.9645 0.0000
vn -0.2663 0.9639 -0.0000
vn -0.2588 0.9659 0.0000
vn -0.2556 0.9668 -0.0000
vn -0.2616 0.9652 0.0000
vn -0.2521 0.9677 0.0000
vn -0.2483 0.9687 -0.0000
vn -0.2441 0.9698 -0.0000
vn -0.2295 0.9733 0.0000
vn -0.2396 0.9709 -0.0000
vn -0.2240 0.9746 -0.0000
vn -0.2347 0.9721 -0.0000
vn -0.2181 0.9759 -0.0000
vn -0.2053 0.9787 0.0000
vn -0.1983 0.9801 0.0000
vn -0.2119 0.9773 -0.0000
vn -0.1910 0.9816 0.0000
vn -0.1833 0.9831 -0.0000
vn -0.1668 0.9860 -0.0000
vn -0.1580 0.9874 0.0000
vn -0.1752 0.9845 0.0000
vn -0.1392 0.9903 -0.0000
vn -0.1488 0.9889 -0.0000
vn -0.1293 0.9916 -0.0000
vn -0.1189 0.9929 -0.0000
vn -0.0856 0.9963 0.0000
vn -0.1082 0.9941 -0.0000
vn -0.0971 0.9953 0.0000
vn -0.0737 0.9973 0.0000
vn -0.0614 0.9981 0.0000
vn -0.0223 0.9998 0.0000
vn -0.0487 0.9988 -0.0000
vn -0.0357 0.9994 -0.0000
vn -0.0085 1.0000 0.0000
vn -0.0001 1.0000 -0.0000
vn 0.0000 1.0000 0.0000
vn -0.1070 0.9943 0.0000
vn -0.1975 0.9803 -0.0000
vn -0.2517 0.9678 -0.0000
vn -0.2728 0.9621 0.0000
usemtl leaves_dark
s off
f 140/1/1 82/2/1 46/3/1
f 181/4/2 173/5/2 80/6/2
f 80/6/3 172/7/3 79/8/3
f 79/8/4 171/9/4 78/10/4
f 171/9/5 170/11/5 77/12/5
f 76/13/6 168/14/6 75/15/6
f 73/16/7 165/17/7 72/18/7
f 75/15/8 167/19/8 74/20/8
f 70/21/9 162/22/9 69/23/9
f 165/17/10 164/24/10 71/25/10
f 69/23/11 161/26/11 68/27/11
f 71/25/12 163/28/12 70/21/12
f 161/26/13 160/29/13 67/30/13
f 67/30/14 159/31/14 66/32/14
f 159/31/15 158/33/15 65/34/15
f 65/34/16 157/35/16 64/36/16
f 62/37/17 154/38/17 61/39/17
f 154/38/18 153/40/18 60/41/18
f 86/42/19 174/43/19 81/44/19
f 156/45/20 155/46/20 62/37/20
f 59/47/21 151/48/21 58/49/21
f 58/49/22 150/50/22 57/51/22
f 153/40/23 152/52/23 59/47/23
f 56/53/24 148/54/24 55/55/24
f 148/54/25 147/56/25 54/57/25
f 150/50/26 149/58/26 56/53/26
f 53/59/27 145/60/27 52/61/27
f 86/42/19 175/62/19 174/43/19
f 145/60/28 144/63/28 51/64/28
f 51/64/29 143/65/29 50/66/29
f 169/67/30 76/13/30 77/12/30 170/11/30
f 50/66/31 142/68/31 49/69/31
f 48/70/32 140/1/32 47/71/32
f 142/68/33 141/72/33 48/70/33
f 46/3/34 139/73/34 45/74/34
f 139/73/35 138/75/35 44/76/35
f 87/77/19 176/78/19 175/62/19
f 44/76/36 83/79/36 43/80/36
f 41/81/37 136/82/37 40/83/37
f 83/79/38 41/81/38 42/84/38
f 136/82/39 135/85/39 39/86/39
f 39/86/40 134/87/40 38/88/40
f 38/88/41 133/89/41 37/90/41
f 37/90/42 132/91/42 36/92/42
f 35/93/43 130/94/43 34/95/43
f 89/96/19 177/97/19 176/78/19
f 132/91/44 131/98/44 35/93/44
f 33/99/45 128/100/45 32/101/45
f 128/100/46 127/102/46 31/103/46
f 130/94/47 129/104/47 33/99/47
f 127/102/48 126/105/48 30/106/48
f 126/105/49 125/107/49 29/108/49
f 125/107/50 124/109/50 28/110/50
f 121/111/51 120/112/51 26/113/51
f 124/109/52 123/114/52 27/115/52
f 26/113/53 119/116/53 25/117/53
f 27/115/54 122/118/54 121/111/54
f 119/116/55 118/119/55 24/120/55
f 23/121/56 116/122/56 22/123/56
f 22/123/57 115/124/57 21/125/57
f 118/119/58 117/126/58 23/121/58
f 115/124/59 114/127/59 20/128/59
f 114/127/60 113/129/60 19/130/60
f 18/131/61 111/132/61 17/133/61
f 91/134/19 179/135/19 178/136/19
f 17/133/62 110/137/62 16/138/62
f 113/129/63 112/139/63 18/131/63
f 15/140/64 108/141/64 14/142/64
f 110/137/65 109/143/65 15/140/65
f 108/141/66 107/144/66 13/145/66
f 12/146/67 107/144/67 106/147/67
f 10/148/68 103/149/68 9/150/68
f 106/147/69 105/151/69 11/152/69
f 93/153/19 180/154/19 179/135/19
f 11/152/70 104/155/70 10/148/70
f 103/149/71 102/156/71 8/157/71
f 102/156/72 101/158/72 7/159/72
f 5/160/73 98/161/73 4/162/73
f 7/159/74 100/163/74 6/164/74
f 100/163/75 99/165/75 5/160/75
f 98/161/76 97/166/76 3/167/76
f 3/167/77 84/168/77 96/169/77
f 94/170/19 181/4/19 180/154/19
f 96/169/78 95/171/78 2/172/78
f 96/169/78 84/168/78 95/171/78
f 41/81/38 83/79/38 137/173/38
f 46/3/34 82/2/34 139/73/34
f 81/44/2 174/43/2 80/6/2
f 174/43/2 175/62/2 80/6/2
f 175/62/2 176/78/2 80/6/2
f 176/78/2 177/97/2 80/6/2
f 177/97/2 178/136/2 80/6/2
f 178/136/2 179/135/2 80/6/2
f 179/135/2 180/154/2 80/6/2
f 180/154/2 181/4/2 80/6/2
f 80/6/3 173/5/3 172/7/3
f 79/8/4 172/7/4 171/9/4
f 78/10/5 171/9/5 77/12/5
f 166/174/79 73/16/79 74/20/79 167/19/79
f 168/14/6 76/13/6 169/67/6
f 75/15/8 168/14/8 167/19/8
f 156/45/80 63/175/80 64/36/80 157/35/80
f 73/16/7 166/174/7 165/17/7
f 72/18/10 165/17/10 71/25/10
f 69/23/11 162/22/11 161/26/11
f 71/25/12 164/24/12 163/28/12
f 68/27/13 161/26/13 67/30/13
f 70/21/9 163/28/9 162/22/9
f 67/30/14 160/29/14 159/31/14
f 85/176/19 86/42/19 81/44/19
f 66/32/15 159/31/15 65/34/15
f 157/35/16 65/34/16 158/33/16
f 146/177/81 53/59/81 54/57/81 147/56/81
f 61/39/18 154/38/18 60/41/18
f 63/175/20 156/45/20 62/37/20
f 60/41/23 153/40/23 59/47/23
f 62/37/17 155/46/17 154/38/17
f 58/49/22 151/48/22 150/50/22
f 57/51/26 150/50/26 56/53/26
f 59/47/21 152/52/21 151/48/21
f 55/55/25 148/54/25 54/57/25
f 178/136/19 177/97/19 90/178/19 91/134/19
f 56/53/24 149/58/24 148/54/24
f 53/59/27 146/177/27 145/60/27
f 52/61/28 145/60/28 51/64/28
f 51/64/29 144/63/29 143/65/29
f 50/66/31 143/65/31 142/68/31
f 49/69/33 142/68/33 48/70/33
f 175/62/19 86/42/19 87/77/19
f 47/71/1 140/1/1 46/3/1
f 48/70/32 141/72/32 140/1/32
f 45/74/35 139/73/35 44/76/35
f 44/76/36 138/75/36 83/79/36
f 43/80/82 83/79/82 42/84/82
f 176/78/19 87/77/19 88/179/19
f 40/83/39 136/82/39 39/86/39
f 39/86/40 135/85/40 134/87/40
f 41/81/37 137/173/37 136/82/37
f 38/88/41 134/87/41 133/89/41
f 37/90/42 133/89/42 132/91/42
f 36/92/44 132/91/44 35/93/44
f 176/78/19 88/179/19 89/96/19
f 34/95/47 130/94/47 33/99/47
f 35/93/43 131/98/43 130/94/43
f 32/101/46 128/100/46 31/103/46
f 31/103/48 127/102/48 30/106/48
f 33/99/45 129/104/45 128/100/45
f 177/97/19 89/96/19 90/178/19
f 30/106/49 126/105/49 29/108/49
f 29/108/50 125/107/50 28/110/50
f 28/110/52 124/109/52 27/115/52
f 26/113/53 120/112/53 119/116/53
f 27/115/54 123/114/54 122/118/54
f 25/117/55 119/116/55 24/120/55
f 121/111/51 122/118/51 120/112/51
f 24/120/58 118/119/58 23/121/58
f 22/123/57 116/122/57 115/124/57
f 21/125/59 115/124/59 20/128/59
f 23/121/56 117/126/56 116/122/56
f 20/128/60 114/127/60 19/130/60
f 19/130/63 113/129/63 18/131/63
f 17/133/62 111/132/62 110/137/62
f 91/134/19 92/180/19 179/135/19
f 16/138/65 110/137/65 15/140/65
f 18/131/61 112/139/61 111/132/61
f 14/142/66 108/141/66 13/145/66
f 15/140/64 109/143/64 108/141/64
f 92/180/19 93/153/19 179/135/19
f 13/145/67 107/144/67 12/146/67
f 12/146/69 106/147/69 11/152/69
f 9/150/71 103/149/71 8/157/71
f 104/155/70 11/152/70 105/151/70
f 10/148/68 104/155/68 103/149/68
f 8/157/72 102/156/72 7/159/72
f 180/154/19 93/153/19 94/170/19
f 7/159/74 101/158/74 100/163/74
f 6/164/75 100/163/75 5/160/75
f 5/160/73 99/165/73 98/161/73
f 4/162/76 98/161/76 3/167/76
f 3/167/77 97/166/77 84/168/77
f 94/170/19 1/181/19 181/4/19
