# Blender v2.81 (sub 16) OBJ File: 'Nature Pack Low Poly.blend'
# www.blender.org
mtllib Terrain_Part_Plane_16.mtl
o Terrain_Part_Plane_16_Plane.039
v -2.178215 0.000000 -11.287132
v -2.178215 -0.000000 -8.712875
v -2.178215 -0.000000 0.000000
v -2.178217 -0.000000 -20.000000
v -2.574255 -0.200000 -9.306934
v -2.178215 -0.042794 -11.089111
v -2.178215 -0.042798 -8.910894
v -2.376236 -0.042796 -20.000000
v -2.376235 -0.042796 -11.287132
v -2.376235 -0.042796 -11.089111
v -2.376235 -0.143430 -10.891092
v -2.376235 -0.143434 -9.108913
v -2.376235 -0.042798 -8.910894
v -2.376235 -0.042796 -8.712875
v -2.574258 -0.143430 -20.000000
v -2.574255 -0.143430 -11.089111
v -2.574255 -0.143430 -10.891092
v -2.574255 -0.200000 -10.693073
v -2.574255 -0.143434 -9.108913
v -2.574255 -0.143430 -8.910894
v -2.574255 -0.143430 0.000000
v -2.772277 -0.200000 -20.000000
v -2.772274 -0.200000 -10.891092
v -2.772274 -0.200000 -10.693073
v -2.772274 -0.200000 -9.306934
v -2.772274 -0.200000 -9.108913
v -19.999998 -0.200000 -20.000000
v -2.772274 -0.200000 0.000000
v 0.000002 0.000000 -20.000000
v 0.000002 0.000000 -11.287132
v 0.000002 -0.042794 -11.089111
v 0.000002 -0.143430 -10.891092
v 0.000002 -0.200000 -10.693073
v 0.000002 -0.200000 -9.306934
v 0.000002 -0.143434 -9.108913
v 0.000002 -0.042798 -8.910894
v 0.000002 -0.000000 -8.712875
v -19.999998 -0.200000 0.000000
v 0.000002 0.000000 0.000000
v -2.376235 -0.042796 0.000000
vt 1.000000 0.445545
vt 1.000000 0.455446
vt 0.891089 0.445545
vt 1.000000 0.465347
vt 0.881188 0.455446
vt 0.861386 0.000000
vt 0.000000 1.000000
vt 0.000000 0.710087
vt 1.000000 0.544554
vt 1.000000 0.554456
vt 0.891089 0.554456
vt 0.881188 0.554456
vt 0.881188 0.544555
vt 0.881188 0.445545
vt 1.000000 0.534654
vt 0.871287 1.000000
vt 0.871287 0.554456
vt 0.881188 0.564357
vt 0.881188 1.000000
vt 0.871287 0.544555
vt 0.871287 0.534654
vt 0.871287 0.465347
vt 0.871287 0.455446
vt 0.871287 0.445545
vt 0.871287 0.000000
vt 0.881188 0.435644
vt 0.881188 0.000000
vt 0.743259 1.000000
vt 0.861386 0.544555
vt 0.861386 0.534654
vt 0.861386 0.465347
vt 0.861386 0.455446
vt 0.891089 0.564357
vt 1.000000 0.435644
vt 0.891089 0.435644
vt 1.000000 0.777228
vt 0.891089 1.000000
vt 1.000000 0.564357
vt 1.000000 0.000000
vt 0.891089 0.000000
vt 1.000000 0.391089
vt 1.000000 0.579208
vn 0.0000 0.8915 -0.4531
vn 0.0000 0.9615 -0.2747
vn 0.0000 1.0000 0.0000
vn 0.0000 0.8915 0.4531
vn -0.0000 0.9615 0.2747
vn -0.4531 0.8915 0.0000
vn -0.2391 0.9411 0.2391
vn -0.2391 0.9411 -0.2391
vn -0.2747 0.9615 0.0000
vn -0.1400 0.9802 0.1400
vn -0.1400 0.9802 -0.1400
vn -0.0000 -1.0000 -0.0000
vn -0.1068 0.9885 0.1068
vn 0.0000 0.9774 -0.2113
vn 0.0000 0.9774 0.2112
vn -0.2112 0.9774 0.0000
vn -0.1068 0.9885 -0.1068
usemtl Branch_3
s off
f 36/1/1 35/2/1 7/3/1
f 35/2/2 34/4/2 12/5/2
f 28/6/3 27/7/3 38/8/3
f 32/9/4 31/10/4 6/11/4
f 10/12/4 11/13/4 32/9/4 6/11/4
f 12/5/1 13/14/1 7/3/1 35/2/1
f 33/15/5 32/9/5 11/13/5
f 15/16/6 16/17/6 10/12/6 9/18/6
f 9/18/6 8/19/6 15/16/6
f 16/17/7 17/20/7 11/13/7 10/12/7
f 17/20/5 18/21/5 33/15/5 11/13/5
f 5/22/2 19/23/2 12/5/2 34/4/2
f 5/22/3 33/15/3 18/21/3
f 12/5/8 19/23/8 20/24/8 13/14/8
f 13/14/6 20/24/6 21/25/6 14/26/6
f 40/27/6 14/26/6 21/25/6
f 22/28/9 23/29/9 17/20/9 16/17/9
f 16/17/9 15/16/9 22/28/9
f 23/29/10 24/30/10 18/21/10 17/20/10
f 5/22/11 25/31/11 26/32/11 19/23/11
f 5/22/3 18/21/3 24/30/3
f 19/23/9 26/32/9 28/6/9 20/24/9
f 21/25/9 20/24/9 28/6/9
f 27/7/3 5/22/3 23/29/3 22/28/3
f 5/22/12 28/6/12 26/32/12 25/31/12
f 24/30/12 23/29/12 5/22/12
f 28/6/3 5/22/3 27/7/3
f 34/4/3 33/15/3 5/22/3
usemtl leaves_dark
f 9/18/13 10/12/13 6/11/13 1/33/13
f 37/34/14 36/1/14 2/35/14
f 31/10/15 1/33/15 6/11/15
f 1/33/16 8/19/16 9/18/16
f 2/35/16 14/26/16 40/27/16
f 29/36/3 4/37/3 1/33/3
f 31/10/15 30/38/15 1/33/15
f 39/39/3 2/35/3 3/40/3
f 2/35/14 36/1/14 7/3/14
f 1/33/16 4/37/16 8/19/16
f 7/3/17 13/14/17 14/26/17 2/35/17
f 3/40/16 2/35/16 40/27/16
f 39/41/3 37/34/3 2/35/3
f 30/38/3 29/42/3 1/33/3
