# Blender v2.81 (sub 16) OBJ File: 'Nature Pack Low Poly.blend'
# www.blender.org
mtllib Terrain_Part_Plane_17.mtl
o Terrain_Part_Plane_17_Plane.040
v -2.178211 -0.000000 2.178217
v -2.178213 -0.000000 0.000000
v -2.376231 -0.042796 2.376236
v -2.376233 -0.042796 0.000000
v -2.376231 -0.143430 2.574257
v -2.574254 -0.143430 0.000000
v -2.574251 -0.143430 2.376236
v -2.574251 -0.143430 2.574257
v -2.574251 -0.200000 2.772276
v -2.772271 -0.200000 2.574257
v -2.772270 -0.200000 2.772276
v 0.000006 0.000000 0.000000
v 0.000006 0.000000 2.178217
v 0.000006 -0.042794 2.376235
v 0.000006 -0.143430 2.574257
v 0.000006 -0.200000 2.772275
v 0.000006 -0.200000 20.000000
v -19.999994 -0.200000 0.000000
v -2.772274 -0.200000 0.000000
v -19.999994 -0.200000 20.000000
vt 0.861386 1.000000
vt 0.000000 0.029703
vt 0.000000 0.000000
vt 1.000000 0.000000
vt 0.861386 0.871287
vt 1.000000 0.871287
vt 1.000000 0.881188
vt 0.881188 0.881188
vt 0.881188 0.871287
vt 0.871287 1.000000
vt 0.871287 0.881188
vt 0.881188 1.000000
vt 1.000000 0.861386
vt 0.871287 0.871287
vt 0.871287 0.861386
vt 0.861386 0.861386
vt 0.351485 0.000000
vt 1.000000 0.891089
vt 1.000000 1.000000
vt 0.891089 0.891089
vt 0.891089 1.000000
vn 0.0000 1.0000 0.0000
vn -0.0000 -1.0000 -0.0000
vn -0.0000 0.8915 0.4531
vn -0.4531 0.8915 0.0000
vn 0.0000 0.9615 0.2747
vn -0.2391 0.9411 0.2391
vn -0.2747 0.9615 0.0000
vn -0.1400 0.9802 0.1400
vn -0.0000 0.9774 0.2112
vn -0.2112 0.9774 0.0000
usemtl Branch_3
s off
f 19/1/1 18/2/1 20/3/1
f 17/4/2 10/5/2 19/1/2
f 15/6/3 14/7/3 3/8/3
f 3/8/3 5/9/3 15/6/3
f 6/10/4 7/11/4 3/8/4 4/12/4
f 16/13/5 15/6/5 5/9/5
f 7/11/6 8/14/6 5/9/6 3/8/6
f 8/14/5 9/15/5 16/13/5 5/9/5
f 17/4/1 16/13/1 9/15/1
f 19/1/7 10/5/7 7/11/7 6/10/7
f 10/5/7 8/14/7 7/11/7
f 10/5/8 11/16/8 9/15/8 8/14/8
f 19/1/1 20/17/1 17/4/1
f 17/4/1 9/15/1 11/16/1
f 17/4/2 11/16/2 10/5/2
usemtl leaves_dark
f 13/18/1 12/19/1 1/20/1
f 12/19/1 2/21/1 1/20/1
f 14/7/9 1/20/9 3/8/9
f 3/8/10 2/21/10 4/12/10
f 14/7/9 13/18/9 1/20/9
f 1/20/10 2/21/10 3/8/10
