# Blender v2.81 (sub 16) OBJ File: 'Nature Pack Low Poly.blend'
# www.blender.org
mtllib Terrain_Part_Plane_12.mtl
o Terrain_Part_Plane_12_Plane.034
v 0.000006 0.000000 -20.000000
v -8.712866 0.000000 -10.759080
v -8.712866 0.000000 -10.891092
v -8.712866 0.000000 -10.561059
v -8.712863 0.000000 0.000000
v -9.042899 0.000000 -11.089111
v -8.910887 0.000000 -11.089111
v -8.910887 -0.000036 -10.891092
v -8.910887 -0.023877 -10.693073
v -8.910887 -0.042796 -10.495052
v -9.108906 -0.023877 -10.891092
v -9.108906 -0.101166 -10.693073
v -9.108906 -0.143431 -10.495052
v -9.108902 -0.143430 0.000000
v -9.306925 -0.042796 -10.891092
v -9.306925 -0.143430 -10.693073
v -9.306925 -0.200000 -10.495052
v -9.240918 0.000000 -11.089111
v -10.693064 0.000000 -11.089111
v -10.693064 -0.042796 -10.891092
v -10.693064 -0.143430 -10.693073
v -10.693064 -0.200000 -10.495052
v -10.891083 0.000000 -11.089111
v -10.891083 -0.023877 -10.891092
v -10.891083 -0.101166 -10.693073
v -10.891083 -0.143431 -10.495052
v -10.891081 -0.143430 0.000000
v -11.089104 0.000000 -11.089111
v -11.089104 -0.000036 -10.891092
v -11.089104 -0.023877 -10.693073
v -11.089104 -0.042795 -10.495052
v -11.089100 -0.042795 0.000000
v -11.287123 0.000000 -11.089111
v -11.287123 0.000000 -10.891092
v -11.287123 0.000000 -10.693073
v -11.287123 0.000000 -10.495052
v -19.999994 0.000000 -20.000000
v 0.000006 0.000000 0.000000
v -19.999994 0.000000 0.000000
v -8.910883 -0.042795 0.000000
v -9.306923 -0.200000 0.000000
v -10.693060 -0.200000 0.000000
v -11.287120 0.000000 0.000000
vt 0.544555 0.524753
vt 0.534654 0.524753
vt 0.534654 0.000000
vt 0.465347 0.524753
vt 0.465347 0.000000
vt 0.455446 0.524753
vt 0.455446 0.000000
vt 0.445545 0.524753
vt 0.445545 0.000000
vt 0.544555 0.000000
vt 0.554456 0.524753
vt 0.554456 0.000000
vt 0.544555 0.544555
vt 0.544555 0.534654
vt 0.554456 0.534654
vt 0.554456 0.544554
vt 0.534654 0.544555
vt 0.534654 0.534654
vt 0.465347 0.544555
vt 0.465347 0.534654
vt 0.455446 0.544555
vt 0.455446 0.534654
vt 0.445545 0.544554
vt 0.445545 0.534654
vt 1.000000 0.000000
vt 1.000000 1.000000
vt 0.564357 0.528053
vt 0.564357 0.000000
vt 0.565347 0.534984
vt 0.564357 0.544554
vt 0.537954 0.554456
vt 0.545215 0.553135
vt 0.554456 0.554456
vt 0.465347 0.554456
vt 0.000000 1.000000
vt 0.455446 0.554456
vt 0.445545 0.554456
vt 0.435644 0.554456
vt 0.435644 0.524752
vt 0.435644 0.000000
vt 0.394802 0.000000
vt 0.435644 0.544554
vt 0.435644 0.534654
vn -0.2747 0.9615 0.0000
vn 0.0000 1.0000 -0.0000
vn 0.2747 0.9615 -0.0000
vn 0.4531 0.8915 -0.0000
vn -0.4531 0.8915 0.0000
vn -0.2402 0.9405 0.2402
vn -0.4058 0.9032 0.1395
vn -0.1395 0.9033 0.4058
vn -0.2353 0.9430 0.2353
vn 0.0000 0.9615 0.2747
vn 0.0000 0.8915 0.4531
vn 0.1395 0.9033 0.4058
vn 0.2353 0.9430 0.2353
vn 0.2402 0.9406 0.2402
vn 0.4058 0.9033 0.1395
vn -0.2112 0.9774 -0.0000
vn 0.2112 0.9774 -0.0000
vn -0.1505 0.9875 0.0472
vn -0.0482 0.9962 0.0720
vn -0.0720 0.9962 0.0482
vn -0.0472 0.9875 0.1505
vn 0.0000 0.9774 0.2112
vn 0.0471 0.9850 0.1658
vn 0.0600 0.9964 0.0602
vn 0.0001 1.0000 0.0001
vn 0.0602 0.9964 0.0600
vn 0.1658 0.9850 0.0471
usemtl Branch_3
s off
f 13/1/1 17/2/1 41/3/1
f 41/3/2 22/4/2 42/5/2
f 22/4/3 26/6/3 27/7/3
f 27/7/4 31/8/4 32/9/4
f 13/1/5 14/10/5 10/11/5
f 40/12/5 10/11/5 14/10/5
f 14/10/1 13/1/1 41/3/1
f 11/13/6 12/14/6 9/15/6 8/16/6
f 12/14/7 13/1/7 10/11/7 9/15/7
f 41/3/2 17/2/2 22/4/2
f 15/17/8 16/18/8 12/14/8 11/13/8
f 16/18/9 17/2/9 13/1/9 12/14/9
f 16/18/10 22/4/10 17/2/10
f 42/5/3 22/4/3 27/7/3
f 20/19/11 21/20/11 16/18/11 15/17/11
f 22/4/10 16/18/10 21/20/10
f 27/7/4 26/6/4 31/8/4
f 20/19/12 24/21/12 25/22/12 21/20/12
f 21/20/13 25/22/13 26/6/13 22/4/13
f 24/21/14 29/23/14 30/24/14 25/22/14
f 25/22/15 30/24/15 31/8/15 26/6/15
usemtl leaves_dark
f 38/25/2 1/26/2 4/27/2
f 38/25/2 4/27/2 5/28/2
f 5/28/16 10/11/16 40/12/16
f 2/29/2 1/26/2 3/30/2
f 1/26/2 18/31/2 6/32/2
f 1/26/2 6/32/2 7/33/2
f 19/34/2 37/35/2 23/36/2
f 23/36/2 37/35/2 28/37/2
f 28/37/2 37/35/2 33/38/2
f 31/8/17 36/39/17 43/40/17
f 43/40/2 37/35/2 39/41/2
f 9/15/18 10/11/18 4/27/18 2/29/18
f 4/27/2 1/26/2 2/29/2
f 5/28/16 4/27/16 10/11/16
f 7/33/2 8/16/2 3/30/2 1/26/2
f 8/16/19 9/15/19 2/29/19 3/30/19
f 6/32/20 11/13/20 8/16/20 7/33/20
f 18/31/21 15/17/21 11/13/21 6/32/21
f 19/34/22 20/19/22 15/17/22 18/31/22
f 18/31/2 1/26/2 37/35/2
f 19/34/2 18/31/2 37/35/2
f 19/34/23 23/36/23 24/21/23 20/19/23
f 23/36/24 28/37/24 29/23/24 24/21/24
f 32/9/17 31/8/17 43/40/17
f 33/38/25 34/42/25 29/23/25 28/37/25
f 29/23/26 34/42/26 35/43/26 30/24/26
f 30/24/27 35/43/27 36/39/27 31/8/27
f 34/42/2 33/38/2 37/35/2
f 35/43/2 34/42/2 37/35/2
f 36/39/2 35/43/2 37/35/2
f 43/40/2 36/39/2 37/35/2
