# Blender v2.81 (sub 16) OBJ File: 'Nature Pack Low Poly.blend'
# www.blender.org
mtllib Terrain_Part_Plane_18.mtl
o Terrain_Part_Plane_18_Plane.041
v -19.999994 -0.143434 2.574261
v -19.999994 -0.042794 2.376238
v 0.000006 0.000000 2.178217
v 0.000006 -0.042794 2.376235
v 0.000006 -0.143430 2.574257
v 0.000006 -0.200000 2.772276
v 0.000006 -0.200000 20.000000
v -19.999994 -0.200000 2.772275
v -19.999994 0.000000 2.178219
v -19.999994 0.000000 0.000000
v -19.999994 -0.200000 20.000000
v 0.000006 0.000000 0.000000
vt 1.000000 0.000000
vt 0.000000 0.457247
vt 0.980198 0.000000
vt 1.000000 0.861386
vt 1.000000 0.871287
vt 1.000000 0.881188
vt 0.000000 0.871287
vt 1.000000 0.839109
vt 0.000000 0.881188
vt 0.000000 0.891089
vt 1.000000 1.000000
vt 0.861077 1.000000
vt 1.000000 0.891089
vn 0.0000 1.0000 0.0000
vn -0.0000 0.9615 0.2747
vn -0.0000 0.8915 0.4531
vn 0.0000 0.9774 0.2112
usemtl Branch_3
s off
f 7/1/1 8/2/1 11/3/1
f 6/4/2 5/5/2 8/2/2
f 5/5/3 4/6/3 1/7/3
f 8/2/2 5/5/2 1/7/2
f 7/8/1 6/4/1 8/2/1
f 1/7/3 4/6/3 2/9/3
usemtl leaves_dark
f 9/10/1 12/11/1 10/12/1
f 4/6/4 9/10/4 2/9/4
f 4/6/4 3/13/4 9/10/4
f 3/13/1 12/11/1 9/10/1
