# Blender 3.5.0
# www.blender.org
mtllib playerBody.mtl
o Body
v 0.311711 -0.035851 0.268020
v 0.411177 0.031649 0.278389
v 0.334807 0.035800 0.352579
v 0.679100 0.705702 0.390546
v 0.633293 0.773201 0.402641
v 0.599429 0.701550 0.463355
v -0.311711 -0.035851 0.268020
v -0.334808 0.035800 0.352579
v -0.411177 0.031649 0.278389
v -0.633293 0.773201 0.402641
v -0.679100 0.705702 0.390546
v -0.599429 0.701550 0.463355
v 0.311711 -0.035851 -0.268020
v 0.334808 0.035800 -0.352579
v 0.411177 0.031649 -0.278389
v 0.633293 0.773201 -0.402641
v 0.679100 0.705702 -0.390546
v 0.599429 0.701550 -0.463355
v -0.311711 -0.035851 -0.268020
v -0.411177 0.031649 -0.278389
v -0.334807 0.035800 -0.352579
v -0.633293 0.773201 -0.402641
v -0.599429 0.701550 -0.463355
v -0.679100 0.705702 -0.390546
v 0.703960 0.055076 0.140960
v 0.703960 0.164116 0.250000
v 0.594919 0.164116 0.140960
v 0.703960 0.346035 0.250000
v 0.703960 0.455076 0.140960
v 0.594919 0.346035 0.140960
v 0.730792 0.119855 -0.750000
v 0.659699 0.190948 -0.750000
v 0.659699 0.319203 -0.750000
v 0.730792 0.390296 -0.750000
v 0.885879 0.055076 0.140960
v 0.994919 0.164116 0.140960
v 0.885879 0.164116 0.250000
v 0.885879 0.455076 0.140960
v 0.885879 0.346035 0.250000
v 0.994919 0.346035 0.140960
v 0.930140 0.190948 -0.750000
v 0.859047 0.119855 -0.750000
v 0.859047 0.390296 -0.750000
v 0.930140 0.319203 -0.750000
v 0.594919 0.164116 -0.750000
v 0.703960 0.055076 -0.750000
v 0.703960 0.455076 -0.750000
v 0.594919 0.346035 -0.750000
v 0.885879 0.055076 -0.750000
v 0.994919 0.164116 -0.750000
v 0.994919 0.346035 -0.750000
v 0.885879 0.455076 -0.750000
v 0.659699 0.190948 -0.564901
v 0.730792 0.119855 -0.564901
v 0.730792 0.390296 -0.564901
v 0.659699 0.319203 -0.564901
v 0.859047 0.119855 -0.564901
v 0.930140 0.190948 -0.564901
v 0.930140 0.319203 -0.564901
v 0.859047 0.390296 -0.564901
v -0.703960 0.055076 0.140960
v -0.703960 0.164116 0.250000
v -0.594919 0.164116 0.140960
v -0.703960 0.346035 0.250000
v -0.703960 0.455076 0.140960
v -0.594919 0.346035 0.140960
v -0.730792 0.119855 -0.750000
v -0.659699 0.190948 -0.750000
v -0.659699 0.319203 -0.750000
v -0.730792 0.390296 -0.750000
v -0.885879 0.055076 0.140960
v -0.994919 0.164116 0.140960
v -0.885879 0.164116 0.250000
v -0.885879 0.455076 0.140960
v -0.885879 0.346035 0.250000
v -0.994919 0.346035 0.140960
v -0.930140 0.190948 -0.750000
v -0.859047 0.119855 -0.750000
v -0.859047 0.390296 -0.750000
v -0.930140 0.319203 -0.750000
v -0.594919 0.164116 -0.750000
v -0.703960 0.055076 -0.750000
v -0.703960 0.455076 -0.750000
v -0.594919 0.346035 -0.750000
v -0.885879 0.055076 -0.750000
v -0.994919 0.164116 -0.750000
v -0.994919 0.346035 -0.750000
v -0.885879 0.455076 -0.750000
v -0.659699 0.190948 -0.564901
v -0.730792 0.119855 -0.564901
v -0.730792 0.390296 -0.564901
v -0.659699 0.319203 -0.564901
v -0.859047 0.119855 -0.564901
v -0.930140 0.190948 -0.564901
v -0.930140 0.319203 -0.564901
v -0.859047 0.390296 -0.564901
v -0.096449 -0.008775 0.736585
v -0.096449 0.616693 0.853594
v 0.096449 -0.008775 0.736585
v 0.096449 0.616693 0.853594
v -0.229064 -0.034231 0.707201
v -0.126874 -0.134678 0.688411
v -0.137472 -0.061526 0.795475
v -0.229064 0.651050 0.835399
v -0.137472 0.644589 0.927570
v -0.126874 0.751497 0.854190
v -0.126874 0.031220 0.357332
v -0.126874 -0.088018 0.438989
v -0.229064 0.012429 0.457780
v -0.229064 0.697710 0.585977
v -0.126874 0.798157 0.604768
v -0.126874 0.716501 0.485530
v 0.137472 -0.061526 0.795475
v 0.126874 -0.134678 0.688411
v 0.229064 -0.034231 0.707201
v 0.229064 0.651050 0.835399
v 0.126874 0.751497 0.854190
v 0.137472 0.644589 0.927570
v 0.229064 0.012429 0.457780
v 0.126874 -0.088018 0.438989
v 0.126874 0.031220 0.357332
v 0.126874 0.716501 0.485530
v 0.126874 0.798157 0.604768
v 0.229064 0.697710 0.585977
vn 0.9293 -0.3694 -0.0000
vn -0.0000 -0.1641 -0.9864
vn -0.0000 1.0000 -0.0000
vn -0.0000 -0.1641 0.9864
vn -0.9293 -0.3694 -0.0000
vn 0.4487 -0.7385 0.5032
vn 0.6342 0.3030 0.7113
vn -0.4487 -0.7385 0.5032
vn -0.6342 0.3030 0.7113
vn 0.4487 -0.7385 -0.5032
vn 0.6342 0.3030 -0.7113
vn -0.4487 -0.7385 -0.5032
vn -0.6342 0.3030 -0.7113
vn -0.0000 -0.7629 0.6465
vn 0.6380 -0.3663 0.6773
vn -0.0000 0.6465 0.7629
vn -0.6380 -0.3663 0.6773
vn -0.5615 -0.8275 -0.0000
vn -0.8275 0.5615 -0.0000
vn -0.6380 -0.3663 -0.6773
vn -0.0000 -0.7629 -0.6465
vn -0.0000 0.6465 -0.7629
vn 0.6380 -0.3663 -0.6773
vn 0.5615 -0.8275 -0.0000
vn 0.8275 0.5615 -0.0000
vn -0.0000 -1.0000 -0.0000
vn -0.0000 -0.0000 1.0000
vn 1.0000 -0.0000 -0.0000
vn -1.0000 -0.0000 -0.0000
vn 0.7071 -0.7071 -0.0000
vn -0.5774 -0.5774 0.5774
vn -0.5774 0.5774 0.5774
vn 0.5774 -0.5774 0.5774
vn 0.5774 0.5774 0.5773
vn -0.7071 -0.7071 -0.0000
vn -0.7071 -0.0000 0.7071
vn -0.7071 0.7071 -0.0000
vn 0.7071 0.7071 -0.0000
vn 0.7071 -0.0000 0.7071
vn -0.0000 -0.7071 0.7071
vn -0.0000 0.7071 0.7071
vn -0.0000 -0.0000 -1.0000
vn 0.5774 0.5774 0.5774
vn -0.5774 0.5774 0.5773
vn -0.0000 -0.1839 0.9829
vn 0.8549 -0.0954 0.5100
vn -0.0000 0.7449 0.6672
vn -0.0000 -0.9357 0.3528
vn -0.8549 -0.0954 0.5100
vn -0.0000 0.9829 0.1839
vn -0.0000 0.1839 -0.9829
vn -0.5999 -0.6870 0.4100
vn -0.5999 0.4923 0.6307
vn -0.5774 -0.4613 -0.6737
vn -0.5774 0.6737 -0.4613
vn 0.5999 -0.6870 0.4100
vn 0.5999 0.4923 0.6307
vn 0.5774 -0.4613 -0.6737
vn 0.5774 0.6737 -0.4613
vn -0.7071 -0.6950 -0.1300
vn -0.7079 -0.1299 0.6943
vn -0.7071 0.6950 0.1300
vn -0.7071 0.1300 -0.6950
vn -0.0000 -0.5650 -0.8251
vn -0.0000 0.8251 -0.5650
vn 0.7071 0.1300 -0.6950
vn 0.7071 -0.6950 -0.1300
vn 0.7071 0.6950 0.1300
vn 0.7079 -0.1299 0.6943
vn -0.0000 -0.8257 0.5641
vn -0.0000 0.5659 0.8245
vn -0.0000 -0.9829 -0.1839
vt 0.804194 0.079924
vt 0.960038 0.934064
vt 0.947051 0.208793
vt 0.830168 0.206791
vt 0.310687 0.726272
vt 0.781223 0.102895
vt 0.520482 0.960038
vt 0.936066 0.934064
vt 0.518480 0.518480
vt 0.804194 0.102895
vt 0.520482 0.936066
vt 0.923079 0.208793
vt 0.092911 0.830168
vt 0.208793 0.726272
vt 0.622376 0.960038
vt 0.830168 0.949053
vt 0.102895 0.830168
vt 0.856142 0.206791
vt 0.001001 0.206791
vt 0.830168 0.960038
vt 0.102895 0.807197
vt 0.518480 0.416585
vt 0.622376 0.936066
vt 0.832170 0.206791
vt 0.830168 0.053950
vt 0.947051 0.310687
vt 0.830168 0.104897
vt 0.960038 0.001001
vt 0.830168 0.076921
vt 0.312689 0.518480
vt 0.923079 0.310687
vt 0.934064 0.936066
vt 0.807197 0.076921
vt 0.518480 0.208793
vt 0.934064 0.960038
vt 0.936066 0.001001
vt 0.089908 0.830168
vt 0.001001 0.960038
vt 0.001001 0.001001
vt 0.856142 0.001001
vt 0.079924 0.830168
vt 0.832170 0.960038
vt 0.416585 0.208793
vt 0.001001 0.949053
vt 0.089908 0.807197
vt 0.312689 0.416585
vt 0.832170 0.001001
vt 0.832170 0.936066
vt 0.806196 0.075920
vt 0.208793 0.973025
vt 0.960038 0.832170
vt 0.728274 0.206791
vt 0.806196 0.052949
vt 0.208793 0.949053
vt 0.622376 0.206791
vt 0.414583 0.949053
vt 0.829167 0.052949
vt 0.310687 0.624378
vt 0.414583 0.973025
vt 0.936066 0.832170
vt 0.078923 0.806196
vt 0.624378 0.960038
vt 0.206791 0.206791
vt 0.830168 0.624378
vt 0.088907 0.806196
vt 0.312689 0.973025
vt 0.208793 0.624378
vt 0.624378 0.949053
vt 0.078923 0.829167
vt 0.520482 0.206791
vt 0.806196 0.624378
vt 0.312689 0.949053
vt 0.780222 0.101894
vt 0.960038 0.102895
vt 0.310687 0.973025
vt 0.728274 0.104897
vt 0.518480 0.310687
vt 0.803193 0.078923
vt 0.936066 0.102895
vt 0.936066 0.520482
vt 0.622376 0.001001
vt 0.780222 0.078923
vt 0.960038 0.520482
vt 0.310687 0.949053
vt 0.206791 0.001001
vt 0.091910 0.806196
vt 0.830168 0.830168
vt 0.206791 0.960038
vt 0.091910 0.829167
vt 0.520482 0.001001
vt 0.960038 0.622376
vt 0.806196 0.830168
vt 0.101894 0.806196
vt 0.936066 0.622376
vt 0.416585 0.310687
vt 0.206791 0.949053
vt 0.807197 0.102895
vt 0.700298 0.572430
vt 0.622376 0.830168
vt 0.416585 0.804194
vt 0.830168 0.102895
vt 0.700298 0.598404
vt 0.648350 0.596402
vt 0.700298 0.596402
vt 0.778220 0.624378
vt 0.830168 0.079924
vt 0.622376 0.806196
vt 0.700298 0.622376
vt 0.729275 0.076921
vt 0.624378 0.596402
vt 0.676326 0.598404
vt 0.650352 0.674324
vt 0.752246 0.076921
vt 0.752246 0.830168
vt 0.001001 0.832170
vt 0.650352 0.650352
vt 0.752246 0.053950
vt 0.754248 0.624378
vt 0.676326 0.622376
vt 0.728274 0.830168
vt 0.154843 0.752246
vt 0.726272 0.650352
vt 0.206791 0.754248
vt 0.650352 0.624378
vt 0.206791 0.778220
vt 0.726272 0.624378
vt 0.141856 0.728274
vt 0.702300 0.650352
vt 0.726272 0.598404
vt 0.193804 0.754248
vt 0.141856 0.752246
vt 0.702300 0.624378
vt 0.193804 0.778220
vt 0.648350 0.650352
vt 0.702300 0.598404
vt 0.128869 0.754248
vt 0.778220 0.053950
vt 0.208793 0.830168
vt 0.676326 0.572430
vt 0.416585 0.780222
vt 0.778220 0.076921
vt 0.804194 0.830168
vt 0.208793 0.806196
vt 0.702300 0.596402
vt 0.648350 0.572430
vt 0.755249 0.076921
vt 0.702300 0.572430
vt 0.676326 0.596402
vt 0.729275 0.102895
vt 0.674324 0.650352
vt 0.001001 0.856142
vt 0.830168 0.416585
vt 0.752246 0.079924
vt 0.726272 0.572430
vt 0.624378 0.572430
vt 0.674324 0.674324
vt 0.752246 0.102895
vt 0.780222 0.830168
vt 0.806196 0.416585
vt 0.726272 0.596402
vt 0.115882 0.778220
vt 0.648350 0.624378
vt 0.128869 0.728274
vt 0.676326 0.650352
vt 0.674324 0.624378
vt 0.128869 0.752246
vt 0.154843 0.728274
vt 0.624378 0.624378
vt 0.128869 0.778220
vt 0.700298 0.624378
vt 0.115882 0.728274
vt 0.624378 0.650352
vt 0.115882 0.752246
vt 0.700298 0.650352
vt 0.115882 0.754248
vt 0.676326 0.624378
vt 0.778220 0.830168
vt 0.416585 0.806196
vt 0.195806 0.778220
vt 0.130871 0.728274
vt 0.416585 0.830168
vt 0.622376 0.804194
vt 0.195806 0.754248
vt 0.143858 0.752246
vt 0.206791 0.832170
vt 0.752246 0.624378
vt 0.182819 0.778220
vt 0.117884 0.754248
vt 0.130871 0.752246
vt 0.754248 0.830168
vt 0.728274 0.624378
vt 0.182819 0.754248
vt 0.117884 0.752246
vt 0.414583 0.830168
vt 0.622376 0.780222
vt 0.143858 0.728274
vt 0.804194 0.624378
vt 0.414583 0.806196
vt 0.117884 0.728274
vt 0.104897 0.778220
vt 0.780222 0.624378
vt 0.806196 0.622376
vt 0.104897 0.752246
vt 0.104897 0.754248
vt 0.206791 0.856142
vt 0.830168 0.622376
vt 0.104897 0.728274
vt 0.117884 0.778220
vt 0.585559 0.624378
vt 0.702300 0.674324
vt 0.726272 0.648350
vt 0.572430 0.637507
vt 0.650352 0.648350
vt 0.726272 0.674324
vt 0.702300 0.622376
vt 0.622376 0.637507
vt 0.648350 0.674324
vt 0.726272 0.622376
vt 0.609246 0.624378
vt 0.702300 0.648350
vt 0.572430 0.661194
vt 0.674324 0.648350
vt 0.624378 0.648350
vt 0.585559 0.674324
vt 0.648350 0.648350
vt 0.676326 0.674324
vt 0.609246 0.674324
vt 0.700298 0.674324
vt 0.676326 0.648350
vt 0.622376 0.661194
vt 0.624378 0.674324
vt 0.700298 0.648350
vt 0.829167 0.078923
vt 0.726272 0.702300
vt 0.001001 0.882116
vt 0.622376 0.856142
vt 0.806196 0.078923
vt 0.674324 0.676326
vt 0.650352 0.702300
vt 0.702300 0.702300
vt 0.752246 0.622376
vt 0.806196 0.101894
vt 0.001001 0.858144
vt 0.650352 0.676326
vt 0.751245 0.052949
vt 0.650352 0.726272
vt 0.674324 0.700298
vt 0.676326 0.726272
vt 0.728274 0.052949
vt 0.752246 0.208793
vt 0.414583 0.754248
vt 0.700298 0.726272
vt 0.728274 0.075920
vt 0.728274 0.622376
vt 0.650352 0.700298
vt 0.728274 0.208793
vt 0.102895 0.780222
vt 0.752246 0.026975
vt 0.154843 0.778220
vt 0.700298 0.700298
vt 0.154843 0.754248
vt 0.089908 0.804194
vt 0.752246 0.001001
vt 0.752246 0.050947
vt 0.648350 0.702300
vt 0.141856 0.778220
vt 0.089908 0.780222
vt 0.752246 0.024973
vt 0.141856 0.754248
vt 0.726272 0.676326
vt 0.648350 0.726272
vt 0.076921 0.830168
vt 0.754248 0.075920
vt 0.414583 0.856142
vt 0.726272 0.726272
vt 0.622376 0.832170
vt 0.754248 0.052949
vt 0.830168 0.208793
vt 0.414583 0.832170
vt 0.624378 0.700298
vt 0.674324 0.702300
vt 0.777219 0.052949
vt 0.648350 0.700298
vt 0.702300 0.726272
vt 0.751245 0.078923
vt 0.700298 0.702300
vt 0.414583 0.778220
vt 0.856142 0.414583
vt 0.728274 0.101894
vt 0.648350 0.676326
vt 0.674324 0.726272
vt 0.676326 0.702300
vt 0.728274 0.078923
vt 0.806196 0.208793
vt 0.832170 0.414583
vt 0.624378 0.676326
vt 0.076921 0.804194
vt 0.063934 0.806196
vt 0.778220 0.026975
vt 0.778220 0.024973
vt 0.700298 0.676326
vt 0.076921 0.780222
vt 0.102895 0.804194
vt 0.778220 0.050947
vt 0.076921 0.806196
vt 0.830168 0.026975
vt 0.063934 0.804194
vt 0.726272 0.700298
vt 0.063934 0.780222
vt 0.778220 0.001001
vt 0.063934 0.830168
vt 0.830168 0.050947
vt 0.752246 0.416585
vt 0.206791 0.858144
vt 0.143858 0.754248
vt 0.078923 0.804194
vt 0.206791 0.882116
vt 0.416585 0.856142
vt 0.143858 0.778220
vt 0.091910 0.780222
vt 0.208793 0.754248
vt 0.752246 0.414583
vt 0.130871 0.754248
vt 0.065936 0.830168
vt 0.728274 0.416585
vt 0.728274 0.414583
vt 0.130871 0.778220
vt 0.078923 0.780222
vt 0.208793 0.856142
vt 0.416585 0.832170
vt 0.065936 0.780222
vt 0.091910 0.804194
vt 0.830168 0.414583
vt 0.208793 0.832170
vt 0.065936 0.804194
vt 0.052949 0.806196
vt 0.806196 0.414583
vt 0.832170 0.208793
vt 0.052949 0.780222
vt 0.052949 0.830168
vt 0.208793 0.778220
vt 0.856142 0.208793
vt 0.052949 0.804194
vt 0.065936 0.806196
vt 0.533611 0.674324
vt 0.728274 0.050947
vt 0.728274 0.001001
vt 0.520482 0.661194
vt 0.676326 0.700298
vt 0.728274 0.026975
vt 0.624378 0.726272
vt 0.570428 0.661194
vt 0.702300 0.676326
vt 0.624378 0.702300
vt 0.557298 0.674324
vt 0.728274 0.024973
vt 0.520482 0.637507
vt 0.676326 0.676326
vt 0.754248 0.050947
vt 0.533611 0.624378
vt 0.754248 0.026975
vt 0.754248 0.024973
vt 0.557298 0.624378
vt 0.754248 0.001001
vt 0.806196 0.050947
vt 0.570428 0.637507
vt 0.702300 0.700298
vt 0.806196 0.026975
vt 0.728274 0.986012
vt 0.624378 0.830168
vt 0.466531 0.624378
vt 0.453544 0.674324
vt 0.624378 0.728274
vt 0.830168 0.986012
vt 0.674324 0.830168
vt 0.466531 0.674324
vt 0.986012 0.104897
vt 0.986012 0.206791
vt 0.674324 0.728274
vt 0.453544 0.624378
vt 0.726272 0.830168
vt 0.755249 0.102895
vt 0.026975 0.676326
vt 0.897105 0.726272
vt 0.778220 0.079924
vt 0.206791 0.674324
vt 0.050947 0.676326
vt 0.154843 0.726272
vt 0.778220 0.102895
vt 0.921077 0.726272
vt 0.728274 0.975027
vt 0.455546 0.624378
vt 0.182819 0.674324
vt 0.754248 0.101894
vt 0.001001 0.726272
vt 0.726272 0.728274
vt 0.897105 0.624378
vt 0.754248 0.078923
vt 0.830168 0.975027
vt 0.442559 0.674324
vt 0.921077 0.624378
vt 0.156845 0.624378
vt 0.777219 0.078923
vt 0.156845 0.726272
vt 0.024973 0.726272
vt 0.180817 0.624378
vt 0.728274 0.882116
vt 0.830168 0.024973
vt 0.830168 0.934064
vt 0.078923 0.676326
vt 0.830168 0.002002
vt 0.050947 0.726272
vt 0.154843 0.676326
vt 0.102895 0.676326
vt 0.807197 0.024973
vt 0.676326 0.830168
vt 0.026975 0.726272
vt 0.830168 0.910092
vt 0.804194 0.050947
vt 0.676326 0.728274
vt 0.001001 0.676326
vt 0.728274 0.910092
vt 0.804194 0.027976
vt 0.076921 0.726272
vt 0.156845 0.676326
vt 0.024973 0.676326
vt 0.781223 0.050947
vt 0.728274 0.934064
vt 0.830168 0.882116
vt 0.052949 0.726272
vt 0.804194 0.024973
vt 0.455546 0.674324
vt 0.975027 0.104897
vt 0.726272 0.934064
vt 0.182819 0.624378
vt 0.804194 0.002002
vt 0.154843 0.674324
vt 0.206791 0.624378
vt 0.104897 0.726272
vt 0.781223 0.024973
vt 0.624378 0.832170
vt 0.130871 0.674324
vt 0.726272 0.910092
vt 0.780222 0.023972
vt 0.726272 0.832170
vt 0.104897 0.624378
vt 0.624378 0.910092
vt 0.206791 0.726272
vt 0.803193 0.001001
vt 0.128869 0.624378
vt 0.180817 0.674324
vt 0.780222 0.001001
vt 0.624378 0.934064
vt 0.156845 0.674324
vt 0.442559 0.624378
vt 0.975027 0.206791
vt 0.624378 0.882116
vt 0.806196 0.023972
vt 0.921077 0.208793
vt 0.130871 0.624378
vt 0.829167 0.001001
vt 0.102895 0.726272
vt 0.154843 0.624378
vt 0.104897 0.676326
vt 0.806196 0.001001
vt 0.728274 0.832170
vt 0.078923 0.726272
vt 0.897105 0.208793
vt 0.803193 0.026975
vt 0.897105 0.310687
vt 0.830168 0.832170
vt 0.052949 0.676326
vt 0.780222 0.049946
vt 0.128869 0.674324
vt 0.206791 0.676326
vt 0.076921 0.676326
vt 0.780222 0.026975
vt 0.726272 0.882116
vt 0.921077 0.310687
vt 0.104897 0.674324
s 0
usemtl gunTank
f 15/58/1 4/14/1 2/5/1
f 23/90/2 14/55/2 21/81/2
f 10/39/3 16/63/3 22/85/3
f 6/22/4 8/30/4 3/9/4
f 9/34/5 24/95/5 20/77/5
f 1/1/6 2/6/6 3/10/6
f 4/13/7 5/17/7 6/21/7
f 7/25/8 8/29/8 9/33/8
f 10/37/9 11/41/9 12/45/9
f 13/49/10 14/53/10 15/57/10
f 16/61/11 17/65/11 18/69/11
f 19/73/12 20/78/12 21/82/12
f 22/86/13 23/89/13 24/93/13
f 1/3/14 8/31/14 7/26/14
f 2/7/15 6/23/15 3/11/15
f 10/40/16 6/24/16 5/18/16
f 9/35/17 12/48/17 11/42/17
f 7/28/18 20/79/18 19/74/18
f 22/88/19 11/44/19 10/38/19
f 23/91/20 20/80/20 24/94/20
f 13/50/21 21/84/21 14/54/21
f 16/64/22 23/92/22 22/87/22
f 15/59/23 18/72/23 17/66/23
f 13/51/24 2/8/24 1/2/24
f 5/20/25 17/68/25 16/62/25
f 19/76/26 1/4/26 7/27/26
f 39/155/27 26/103/27 37/145/27
f 51/201/28 36/142/28 50/197/28
f 47/185/3 38/151/3 52/205/3
f 30/118/29 45/177/29 27/105/29
f 34/135/30 56/218/30 33/129/30
f 25/97/31 26/101/31 27/106/31
f 28/109/32 29/113/32 30/117/32
f 35/137/33 36/141/33 37/146/33
f 38/149/34 39/153/34 40/157/34
f 25/99/35 45/178/35 46/181/35
f 28/111/36 27/108/36 26/102/36
f 47/186/37 30/120/37 29/114/37
f 49/194/30 36/143/30 35/138/30
f 38/152/38 51/202/38 52/206/38
f 37/147/39 40/160/39 39/154/39
f 35/139/40 26/104/40 25/98/40
f 29/116/41 39/156/41 38/150/41
f 49/195/26 25/100/26 46/182/26
f 31/123/42 45/179/42 32/125/42
f 33/130/42 47/187/42 34/133/42
f 42/166/42 50/199/42 49/193/42
f 43/171/42 51/203/42 44/173/42
f 42/167/42 46/184/42 31/121/42
f 33/131/42 45/180/42 48/189/42
f 34/136/42 52/208/42 43/169/42
f 44/175/42 50/200/42 41/161/42
f 55/216/42 59/227/42 57/221/42
f 43/172/26 55/217/26 34/134/26
f 31/124/3 57/222/3 42/165/3
f 42/168/37 58/225/37 41/162/37
f 32/128/38 54/214/38 31/122/38
f 41/164/29 59/228/29 44/174/29
f 33/132/28 53/211/28 32/126/28
f 44/176/35 60/232/35 43/170/35
f 62/239/27 75/291/27 73/281/27
f 72/278/29 87/337/29 86/333/29
f 74/287/3 83/321/3 88/341/3
f 81/313/28 66/254/28 63/241/28
f 92/354/35 70/271/35 69/265/35
f 61/233/33 63/242/33 62/237/33
f 64/245/43 66/253/43 65/249/43
f 71/273/31 73/282/31 72/277/31
f 74/285/44 76/293/44 75/289/44
f 81/314/30 61/235/30 82/317/30
f 63/244/39 64/247/39 62/238/39
f 66/256/38 83/322/38 65/250/38
f 72/279/35 85/329/35 71/274/35
f 87/338/37 74/288/37 88/342/37
f 76/296/36 73/283/36 75/290/36
f 62/240/40 71/275/40 61/234/40
f 75/292/41 65/252/41 74/286/41
f 61/236/26 85/330/26 82/318/26
f 81/315/42 67/259/42 68/261/42
f 83/323/42 69/266/42 70/269/42
f 78/302/42 86/335/42 77/297/42
f 87/339/42 79/307/42 80/309/42
f 82/320/42 78/303/42 67/257/42
f 69/267/42 81/316/42 68/262/42
f 88/344/42 70/272/42 79/305/42
f 86/336/42 80/311/42 77/298/42
f 95/363/42 91/352/42 89/345/42
f 91/353/26 79/308/26 70/270/26
f 93/358/3 67/260/3 78/301/3
f 94/361/38 78/304/38 77/299/38
f 90/350/37 68/264/37 67/258/37
f 95/364/28 77/300/28 80/310/28
f 89/347/29 69/268/29 68/263/29
f 96/368/30 80/312/30 79/306/30
f 100/379/45 97/370/45 99/375/45
f 98/374/46 103/391/46 97/369/46
f 97/371/47 113/432/47 99/376/47
f 100/380/48 105/400/48 98/372/48
f 99/377/49 118/456/49 100/378/49
f 124/478/28 115/441/28 119/457/28
f 123/475/50 106/404/50 117/448/50
f 104/396/29 109/416/29 101/381/29
f 112/429/51 121/466/51 107/407/51
f 102/385/52 103/389/52 101/382/52
f 105/398/53 106/403/53 104/394/53
f 108/411/54 109/415/54 107/408/54
f 111/423/55 112/427/55 110/419/55
f 114/436/56 115/440/56 113/431/56
f 117/449/57 118/452/57 116/444/57
f 120/461/58 121/465/58 119/458/58
f 123/473/59 124/477/59 122/469/59
f 102/387/60 109/417/60 108/412/60
f 105/401/61 101/384/61 103/390/61
f 106/405/62 110/421/62 104/395/62
f 107/409/63 110/422/63 112/428/63
f 108/414/64 121/467/64 120/462/64
f 123/476/65 112/430/65 111/424/65
f 124/479/66 121/468/66 122/470/66
f 120/463/67 115/442/67 114/437/67
f 117/450/68 124/480/68 123/474/68
f 113/434/69 116/447/69 118/453/69
f 114/438/70 103/393/70 102/386/70
f 117/451/71 105/402/71 118/454/71
f 120/464/72 102/388/72 108/413/72
f 15/58/1 17/67/1 4/14/1
f 23/90/2 18/70/2 14/55/2
f 10/39/3 5/19/3 16/63/3
f 6/22/4 12/46/4 8/30/4
f 9/34/5 11/43/5 24/95/5
f 1/3/14 3/12/14 8/31/14
f 2/7/15 4/15/15 6/23/15
f 10/40/16 12/47/16 6/24/16
f 9/35/17 8/32/17 12/48/17
f 7/28/18 9/36/18 20/79/18
f 22/88/19 24/96/19 11/44/19
f 23/91/20 21/83/20 20/80/20
f 13/50/21 19/75/21 21/84/21
f 16/64/22 18/71/22 23/92/22
f 15/59/23 14/56/23 18/72/23
f 13/51/24 15/60/24 2/8/24
f 5/20/25 4/16/25 17/68/25
f 19/76/26 13/52/26 1/4/26
f 39/155/27 28/110/27 26/103/27
f 51/201/28 40/158/28 36/142/28
f 47/185/3 29/115/3 38/151/3
f 30/118/29 48/190/29 45/177/29
f 34/135/30 55/215/30 56/218/30
f 25/99/35 27/107/35 45/178/35
f 28/111/36 30/119/36 27/108/36
f 47/186/37 48/191/37 30/120/37
f 49/194/30 50/198/30 36/143/30
f 38/152/38 40/159/38 51/202/38
f 37/147/39 36/144/39 40/160/39
f 35/139/40 37/148/40 26/104/40
f 29/116/41 28/112/41 39/156/41
f 49/195/26 35/140/26 25/100/26
f 31/123/42 46/183/42 45/179/42
f 33/130/42 48/192/42 47/187/42
f 42/166/42 41/163/42 50/199/42
f 43/171/42 52/207/42 51/203/42
f 42/167/42 49/196/42 46/184/42
f 33/131/42 32/127/42 45/180/42
f 34/136/42 47/188/42 52/208/42
f 44/175/42 51/204/42 50/200/42
f 57/221/42 54/212/42 53/209/42
f 53/209/42 56/219/42 55/216/42
f 55/216/42 60/230/42 59/227/42
f 59/227/42 58/224/42 57/221/42
f 57/221/42 53/209/42 55/216/42
f 43/172/26 60/231/26 55/217/26
f 31/124/3 54/213/3 57/222/3
f 42/168/37 57/223/37 58/225/37
f 32/128/38 53/210/38 54/214/38
f 41/164/29 58/226/29 59/228/29
f 33/132/28 56/220/28 53/211/28
f 44/176/35 59/229/35 60/232/35
f 62/239/27 64/246/27 75/291/27
f 72/278/29 76/294/29 87/337/29
f 74/287/3 65/251/3 83/321/3
f 81/313/28 84/325/28 66/254/28
f 92/354/35 91/351/35 70/271/35
f 81/314/30 63/243/30 61/235/30
f 63/244/39 66/255/39 64/247/39
f 66/256/38 84/326/38 83/322/38
f 72/279/35 86/334/35 85/329/35
f 87/338/37 76/295/37 74/288/37
f 76/296/36 72/280/36 73/283/36
f 62/240/40 73/284/40 71/275/40
f 75/292/41 64/248/41 65/252/41
f 61/236/26 71/276/26 85/330/26
f 81/315/42 82/319/42 67/259/42
f 83/323/42 84/327/42 69/266/42
f 78/302/42 85/331/42 86/335/42
f 87/339/42 88/343/42 79/307/42
f 82/320/42 85/332/42 78/303/42
f 69/267/42 84/328/42 81/316/42
f 88/344/42 83/324/42 70/272/42
f 86/336/42 87/340/42 80/311/42
f 89/345/42 90/348/42 93/357/42
f 93/357/42 94/360/42 95/363/42
f 95/363/42 96/366/42 91/352/42
f 91/352/42 92/355/42 89/345/42
f 89/345/42 93/357/42 95/363/42
f 91/353/26 96/367/26 79/308/26
f 93/358/3 90/349/3 67/260/3
f 94/361/38 93/359/38 78/304/38
f 90/350/37 89/346/37 68/264/37
f 95/364/28 94/362/28 77/300/28
f 89/347/29 92/356/29 69/268/29
f 96/368/30 95/365/30 80/312/30
f 100/379/45 98/373/45 97/370/45
f 98/374/46 105/399/46 103/391/46
f 97/371/47 103/392/47 113/432/47
f 100/380/48 118/455/48 105/400/48
f 99/377/49 113/433/49 118/456/49
f 124/478/28 116/445/28 115/441/28
f 123/475/50 111/425/50 106/404/50
f 104/396/29 110/420/29 109/416/29
f 112/429/51 122/471/51 121/466/51
f 102/387/60 101/383/60 109/417/60
f 105/401/61 104/397/61 101/384/61
f 106/405/62 111/426/62 110/421/62
f 107/409/63 109/418/63 110/422/63
f 108/414/64 107/410/64 121/467/64
f 123/476/65 122/472/65 112/430/65
f 124/479/66 119/459/66 121/468/66
f 120/463/67 119/460/67 115/442/67
f 117/450/68 116/446/68 124/480/68
f 113/434/69 115/443/69 116/447/69
f 114/438/70 113/435/70 103/393/70
f 117/451/71 106/406/71 105/402/71
f 120/464/72 114/439/72 102/388/72
