# Blender 3.5.0
# www.blender.org
mtllib playerHead.mtl
o Head
v 0.282512 -0.049795 0.282512
v 0.350642 0.112037 0.188809
v 0.142635 0.158212 0.350642
v 0.350642 0.489656 0.188809
v 0.142635 0.651489 0.282512
v 0.142635 0.583359 0.350642
v -0.282512 -0.049795 0.282512
v -0.142635 0.158212 0.350642
v -0.350642 0.112037 0.188809
v -0.142635 0.651489 0.282512
v -0.350642 0.489656 0.188809
v -0.142635 0.583359 0.350642
v 0.282512 -0.049795 -0.282512
v 0.282512 0.018335 -0.350642
v 0.350642 0.112037 -0.188809
v 0.112158 0.681966 -0.129729
v 0.350642 0.489656 -0.188809
v 0.282512 0.583359 -0.350642
v -0.282512 -0.049795 -0.282512
v -0.350642 0.112037 -0.188809
v -0.282512 0.018335 -0.350642
v -0.112158 0.681966 -0.129729
v -0.282512 0.583359 -0.350642
v -0.350642 0.489656 -0.188809
v 0.282512 0.651489 0.282512
v 0.282512 0.583359 0.350642
v -0.282512 0.583359 0.350642
v -0.282512 0.651489 0.282512
v 0.282512 0.018335 0.350642
v -0.282512 0.018335 0.350642
v -0.282512 0.651489 -0.282512
v 0.282512 0.651489 -0.282512
v 0.350642 0.018335 0.282512
v 0.350642 0.583359 0.282512
v -0.350642 0.583359 0.282512
v -0.350642 0.018335 0.282512
v -0.350642 0.018335 -0.282512
v -0.350642 0.583359 -0.282512
v 0.350642 0.583359 -0.282512
v 0.350642 0.018335 -0.282512
v 0.382685 0.200909 0.099937
v 0.382685 0.400784 0.099937
v -0.382685 0.400784 0.099937
v -0.382685 0.200909 0.099937
v -0.382685 0.200909 -0.099937
v -0.382685 0.400784 -0.099937
v 0.382685 0.400784 -0.099937
v 0.382685 0.200909 -0.099937
v 0.399422 0.112037 0.188809
v 0.399422 0.489656 0.188809
v -0.399422 0.489656 0.188809
v -0.399422 0.112037 0.188809
v -0.399422 0.112037 -0.188809
v -0.399422 0.489656 -0.188809
v 0.399422 0.489656 -0.188809
v 0.399422 0.112037 -0.188809
v 0.093930 0.782668 0.287704
v 0.093930 0.747138 0.370837
v 0.142635 0.733163 0.316343
v -0.093930 0.782668 0.287704
v -0.142635 0.733163 0.316343
v -0.093930 0.747138 0.370837
v -0.093930 0.588551 0.481821
v -0.093930 0.671683 0.446292
v -0.142635 0.617189 0.432316
v 0.093930 0.588551 0.481821
v 0.142635 0.617189 0.432316
v 0.093930 0.671683 0.446292
v 0.142635 0.158212 0.442592
v 0.093930 0.158212 0.491450
v -0.093930 0.158212 0.491450
v -0.142635 0.158212 0.442591
v -0.112158 0.730842 -0.129729
v -0.081278 0.761820 -0.129729
v 0.081278 0.761820 -0.129729
v 0.112158 0.730842 -0.129729
v -0.142635 0.651489 -0.142635
v 0.142635 0.651489 -0.142635
v -0.093930 0.792296 -0.142635
v -0.142635 0.743438 -0.142635
v 0.142635 0.743438 -0.142635
v 0.093930 0.792296 -0.142635
vn -0.0000 -0.0000 -1.0000
vn -0.0000 0.0224 0.9997
vn -0.0000 0.7071 0.7071
vn -0.0000 1.0000 -0.0000
vn 0.5774 -0.5774 0.5774
vn 0.5773 0.5774 0.5774
vn -0.5774 -0.5774 0.5774
vn -0.5773 0.5774 0.5774
vn 0.5774 -0.5774 -0.5774
vn 0.5773 0.5774 -0.5774
vn -0.5774 -0.5774 -0.5774
vn -0.5773 0.5774 -0.5774
vn -0.0000 -0.7071 0.7071
vn 0.7071 -0.0000 0.7071
vn -0.0000 0.9997 0.0224
vn -0.7071 -0.0000 0.7071
vn -0.7071 -0.7071 -0.0000
vn -0.7071 0.7071 -0.0000
vn -0.7071 -0.0000 -0.7071
vn -0.0000 -0.7071 -0.7071
vn -0.0000 0.7071 -0.7071
vn 0.7071 -0.0000 -0.7071
vn 0.7071 -0.7071 -0.0000
vn 0.7071 0.7071 -0.0000
vn -0.0000 -1.0000 -0.0000
vn -0.0000 -0.0000 1.0000
vn 1.0000 -0.0000 -0.0000
vn -1.0000 -0.0000 -0.0000
vn 0.9827 -0.0000 -0.1851
vn -0.9827 -0.0000 -0.1851
vn -0.9827 0.1851 -0.0000
vn -0.9827 -0.1851 -0.0000
vn -0.9827 -0.0000 0.1851
vn 0.9827 -0.0000 0.1851
vn 0.9827 0.1851 -0.0000
vn 0.9827 -0.1851 -0.0000
vn 0.5754 0.7521 0.3214
vn -0.5754 0.7521 0.3214
vn -0.5754 0.3214 0.7521
vn 0.5754 0.3214 0.7521
vn -0.0000 0.9195 0.3930
vn -0.0000 0.3930 0.9195
vn 0.7050 0.5015 0.5015
vn -0.7050 0.5015 0.5015
vn 0.7082 0.0158 0.7059
vn -0.7081 0.0158 0.7059
vn -0.7082 0.7059 0.0158
vn 0.7081 0.7059 0.0158
vn -0.0000 0.3899 -0.9208
vn 0.2762 -0.2753 -0.9208
vn -0.2762 -0.2753 -0.9208
vn -0.0000 -0.3899 -0.9208
vn -0.3899 -0.0000 -0.9208
vn 0.3899 -0.0000 -0.9208
vn 0.7081 0.0158 0.7059
vn -0.7082 0.0158 0.7059
vn -0.7081 0.7059 0.0158
vn 0.7082 0.7059 0.0158
vt 0.781223 0.076921
vt 0.986012 0.934064
vt 0.882116 0.312689
vt 0.414583 0.726272
vt 0.921077 0.830168
vt 0.479518 0.674324
vt 0.934064 0.416585
vt 0.440557 0.624378
vt 0.104897 0.998999
vt 0.882116 0.622376
vt 0.830168 0.908090
vt 0.468533 0.570428
vt 0.832170 0.934064
vt 0.440557 0.674324
vt 0.427570 0.676326
vt 0.921077 0.728274
vt 0.648350 0.598404
vt 0.622376 0.934064
vt 0.986012 0.622376
vt 0.180817 0.754248
vt 0.728274 0.908090
vt 0.624378 0.598404
vt 0.206791 0.998999
vt 0.180817 0.778220
vt 0.002002 0.778220
vt 0.882116 0.414583
vt 0.414583 0.624378
vt 0.895103 0.728274
vt 0.882116 0.520482
vt 0.908090 0.622376
vt 0.310687 0.998999
vt 0.492505 0.570428
vt 0.934064 0.102895
vt 0.492505 0.674324
vt 0.934064 0.856142
vt 0.505493 0.624378
vt 0.416585 0.934064
vt 0.141856 0.830168
vt 0.650352 0.572430
vt 0.986012 0.416585
vt 0.832170 0.856142
vt 0.453544 0.726272
vt 0.934064 0.882116
vt 0.492505 0.624378
vt 0.674324 0.572430
vt 0.908090 0.520482
vt 0.208793 0.998999
vt 0.141856 0.806196
vt 0.049946 0.728274
vt 0.416585 0.998999
vt 0.986012 0.832170
vt 0.312689 0.726272
vt 0.026975 0.728274
vt 0.726272 0.518480
vt 0.416585 0.975027
vt 0.622376 0.884118
vt 0.440557 0.726272
vt 0.934064 0.518480
vt 0.934064 0.908090
vt 0.479518 0.624378
vt 0.466531 0.726272
vt 0.427570 0.624378
vt 0.986012 0.962040
vt 0.427570 0.726272
vt 0.832170 0.908090
vt 0.440557 0.676326
vt 0.934064 0.934064
vt 0.001001 0.777219
vt 0.624378 0.518480
vt 0.884118 0.312689
vt 0.520482 0.884118
vt 0.049946 0.754248
vt 0.895103 0.830168
vt 0.518480 0.998999
vt 0.312689 0.624378
vt 0.934064 0.414583
vt 0.505493 0.674324
vt 0.934064 0.001001
vt 0.518480 0.624378
vt 0.726272 0.416585
vt 0.026975 0.777219
vt 0.908090 0.001001
vt 0.518480 0.975027
vt 0.427570 0.674324
vt 0.455546 0.726272
vt 0.962040 0.962040
vt 0.780222 0.052949
vt 0.908090 0.102895
vt 0.624378 0.416585
vt 0.884118 0.414583
vt 0.832170 0.882116
vt 0.518480 0.674324
vt 0.934064 0.312689
vt 0.453544 0.676326
vt 0.050947 0.778220
vt 0.726272 0.908090
vt 0.648350 0.622376
vt 0.622376 0.910092
vt 0.050947 0.755249
vt 0.310687 0.884118
vt 0.624378 0.622376
vt 0.728274 0.884118
vt 0.050947 0.729275
vt 0.312689 0.884118
vt 0.674324 0.596402
vt 0.884118 0.520482
vt 0.027976 0.752246
vt 0.416585 0.908090
vt 0.650352 0.596402
vt 0.416585 0.910092
vt 0.804194 0.053950
vt 0.832170 0.622376
vt 0.858144 0.312689
vt 0.208793 0.884118
vt 0.830168 0.884118
vt 0.024973 0.778220
vt 0.884118 0.622376
vt 0.858144 0.414583
vt 0.414583 0.884118
vt 0.832170 0.520482
vt 0.803193 0.052949
vt 0.908090 0.414583
vt 0.832170 0.518480
vt 0.518480 0.908090
vt 0.518480 0.910092
vt 0.023972 0.754248
vt 0.624378 0.908090
vt 0.520482 0.910092
vt 0.908090 0.312689
vt 0.832170 0.416585
vt 0.804194 0.076921
vt 0.208793 0.908090
vt 0.962040 0.934064
vt 0.897105 0.830168
vt 0.910092 0.416585
vt 0.027976 0.778220
vt 0.310687 0.908090
vt 0.726272 0.884118
vt 0.897105 0.728274
vt 0.832170 0.910092
vt 0.050947 0.752246
vt 0.312689 0.908090
vt 0.416585 0.884118
vt 0.832170 0.832170
vt 0.934064 0.858144
vt 0.024973 0.755249
vt 0.414583 0.908090
vt 0.871131 0.728274
vt 0.934064 0.832170
vt 0.910092 0.102895
vt 0.026975 0.754248
vt 0.871131 0.830168
vt 0.884118 0.001001
vt 0.910092 0.001001
vt 0.910092 0.414583
vt 0.780222 0.075920
vt 0.518480 0.884118
vt 0.884118 0.102895
vt 0.832170 0.858144
vt 0.910092 0.312689
vt 0.001001 0.754248
vt 0.520482 0.908090
vt 0.624378 0.884118
vt 0.832170 0.884118
vt 0.934064 0.910092
vt 0.026975 0.751245
vt 0.622376 0.908090
vt 0.962040 0.832170
vt 0.934064 0.884118
vt 0.910092 0.518480
vt 0.466531 0.622376
vt 0.622376 0.726272
vt 0.102895 0.624378
vt 0.076921 0.674324
vt 0.572430 0.726272
vt 0.466531 0.572430
vt 0.440557 0.622376
vt 0.520482 0.676326
vt 0.492505 0.572430
vt 0.570428 0.676326
vt 0.440557 0.572430
vt 0.518480 0.622376
vt 0.050947 0.674324
vt 0.570428 0.726272
vt 0.518480 0.572430
vt 0.492505 0.622376
vt 0.520482 0.726272
vt 0.050947 0.624378
vt 0.024973 0.674324
vt 0.572430 0.676326
vt 0.076921 0.624378
vt 0.622376 0.676326
vt 0.024973 0.624378
vt 0.102895 0.674324
vt 0.468533 0.674324
vt 0.429572 0.624378
vt 0.442559 0.622376
vt 0.078923 0.624378
vt 0.416585 0.676326
vt 0.429572 0.674324
vt 0.442559 0.572430
vt 0.052949 0.674324
vt 0.442559 0.726272
vt 0.481520 0.624378
vt 0.416585 0.622376
vt 0.468533 0.572430
vt 0.494507 0.622376
vt 0.481520 0.674324
vt 0.494507 0.624378
vt 0.416585 0.572430
vt 0.507495 0.624378
vt 0.494507 0.674324
vt 0.494507 0.572430
vt 0.026975 0.674324
vt 0.442559 0.676326
vt 0.507495 0.674324
vt 0.468533 0.622376
vt 0.026975 0.624378
vt 0.429572 0.676326
vt 0.416585 0.726272
vt 0.001001 0.674324
vt 0.052949 0.624378
vt 0.078923 0.674324
vt 0.429572 0.726272
vt 0.468533 0.624378
vt 0.001001 0.624378
vt 0.973025 0.950054
vt 0.180817 0.752246
vt 0.871131 0.624378
vt 0.726272 0.986012
vt 0.963041 0.960038
vt 0.206791 0.752246
vt 0.674324 0.598404
vt 0.169832 0.752246
vt 0.975027 0.622376
vt 0.973025 0.960038
vt 0.195806 0.752246
vt 0.726272 0.975027
vt 0.169832 0.754248
vt 0.986012 0.950054
vt 0.895103 0.624378
vt 0.180817 0.728274
vt 0.986012 0.310687
vt 0.986012 0.960038
vt 0.975027 0.310687
vt 0.130871 0.830168
vt 0.975027 0.416585
vt 0.182819 0.728274
vt 0.976028 0.960038
vt 0.650352 0.598404
vt 0.169832 0.728274
vt 0.193804 0.728274
vt 0.962040 0.959037
vt 0.206791 0.884118
vt 0.167830 0.752246
vt 0.102895 0.998999
vt 0.972024 0.949053
vt 0.156845 0.752246
vt 0.650352 0.622376
vt 0.193804 0.752246
vt 0.208793 0.988014
vt 0.962040 0.949053
vt 0.182819 0.752246
vt 0.130871 0.806196
vt 0.102895 0.988014
vt 0.975027 0.959037
vt 0.206791 0.908090
vt 0.167830 0.728274
vt 0.986012 0.414583
vt 0.975027 0.949053
vt 0.975027 0.414583
vt 0.169832 0.778220
vt 0.206791 0.988014
vt 0.195806 0.728274
vt 0.674324 0.622376
vt 0.985011 0.949053
vt 0.156845 0.728274
vt 0.206791 0.728274
vt 0.468533 0.537812
vt 0.104897 0.988014
vt 0.975027 0.312689
vt 0.104897 0.908090
vt 0.472626 0.520482
vt 0.986012 0.312689
vt 0.001001 0.998999
vt 0.104897 0.884118
vt 0.488413 0.520482
vt 0.310687 0.988014
vt 0.492505 0.537812
vt 0.001001 0.988014
vt 0.973025 0.962040
vt 0.455546 0.695701
vt 0.975027 0.975027
vt 0.457059 0.676326
vt 0.986012 0.975027
vt 0.167830 0.754248
vt 0.167830 0.778220
vt 0.465019 0.676326
vt 0.962040 0.975027
vt 0.973025 0.975027
vt 0.466531 0.695701
vt 0.975027 0.962040
vt 0.986012 0.518480
vt 0.518480 0.934064
vt 0.882116 0.518480
vt 0.416585 0.674324
vt 0.962040 0.973025
vt 0.986012 0.973025
vt 0.882116 0.416585
vt 0.520482 0.934064
vt 0.986012 0.520482
vt 0.416585 0.624378
vt 0.986012 0.986012
vt 0.895103 0.726272
vt 0.986012 0.208793
vt 0.156845 0.754248
vt 0.975027 0.518480
vt 0.975027 0.208793
vt 0.975027 0.986012
vt 0.973025 0.973025
vt 0.975027 0.520482
vt 0.624378 0.975027
vt 0.973025 0.986012
vt 0.975027 0.973025
vt 0.871131 0.726272
vt 0.624378 0.986012
vt 0.962040 0.986012
vt 0.156845 0.778220
s 0
usemtl gunTank
f 17/66/1 56/224/1 15/57/1
f 23/89/1 14/54/1 21/80/1
f 66/267/2 71/286/2 70/282/2
f 58/233/3 64/259/3 68/275/3
f 4/15/4 55/220/4 17/64/4
f 1/1/5 33/131/5 29/111/5
f 34/136/6 25/95/6 26/99/6
f 7/25/7 30/116/7 36/146/7
f 28/107/8 35/141/8 27/103/8
f 13/49/9 14/53/9 40/166/9
f 32/126/10 39/161/10 18/68/10
f 19/72/11 37/151/11 21/81/11
f 31/121/12 23/87/12 38/156/12
f 1/3/13 30/118/13 7/26/13
f 34/137/14 29/114/14 33/132/14
f 79/314/15 57/229/15 82/325/15
f 36/147/16 27/104/16 35/142/16
f 7/28/17 37/152/17 19/73/17
f 31/124/18 35/143/18 28/108/18
f 21/82/19 38/158/19 23/88/19
f 19/74/20 14/55/20 13/50/20
f 32/129/21 23/90/21 31/122/21
f 40/167/22 18/71/22 39/162/22
f 13/51/23 33/133/23 1/2/23
f 25/96/24 39/163/24 32/127/24
f 19/75/25 1/4/25 7/27/25
f 6/22/3 25/97/3 5/17/3
f 10/39/3 27/105/3 12/45/3
f 3/10/26 30/120/26 29/112/26
f 3/11/26 26/102/26 6/21/26
f 8/30/26 27/106/26 30/117/26
f 77/304/4 28/110/4 10/37/4
f 77/305/4 32/130/4 31/123/4
f 78/310/4 25/98/4 32/128/4
f 5/19/27 81/321/27 59/235/27
f 12/47/28 72/288/28 65/261/28
f 12/48/28 61/246/28 10/38/28
f 3/12/25 70/283/25 72/289/25
f 10/40/28 80/317/28 77/303/28
f 6/23/27 69/280/27 3/9/27
f 22/85/1 74/294/1 76/301/1
f 4/16/27 33/134/27 2/5/27
f 9/35/28 35/144/28 11/41/28
f 20/78/28 36/150/28 9/33/28
f 11/43/28 38/159/28 24/91/28
f 24/93/28 37/155/28 20/76/28
f 15/59/27 39/164/27 17/65/27
f 2/7/27 40/170/27 15/58/27
f 17/67/27 34/140/27 4/13/27
f 47/190/27 41/172/27 48/192/27
f 43/178/28 45/184/28 44/180/28
f 24/94/4 51/203/4 11/42/4
f 11/44/26 52/208/26 9/34/26
f 15/60/25 49/195/25 2/6/25
f 20/79/1 54/216/1 24/92/1
f 9/36/25 53/212/25 20/77/25
f 2/8/26 50/200/26 4/14/26
f 42/176/29 49/197/29 41/171/29
f 44/181/30 51/205/30 43/177/30
f 44/182/31 53/213/31 52/207/31
f 43/179/32 54/217/32 46/186/32
f 46/188/33 53/214/33 45/183/33
f 48/193/34 55/221/34 47/189/34
f 48/194/35 49/198/35 56/223/35
f 47/191/36 50/202/36 42/174/36
f 57/227/37 58/231/37 59/236/37
f 60/240/38 61/244/38 62/249/38
f 63/253/39 64/257/39 65/262/39
f 66/266/40 67/270/40 68/276/40
f 60/242/41 58/234/41 57/228/41
f 63/255/42 68/277/42 64/258/42
f 68/278/43 59/237/43 58/232/43
f 64/260/44 61/248/44 65/263/44
f 66/269/45 69/281/45 67/271/45
f 63/256/46 72/290/46 71/285/46
f 60/243/47 80/318/47 61/245/47
f 57/230/48 81/322/48 82/326/48
f 6/24/27 59/239/27 67/272/27
f 16/62/49 77/306/49 22/84/49
f 74/295/50 80/319/50 79/313/50
f 75/299/51 81/323/51 76/300/51
f 74/296/52 82/328/52 75/297/52
f 16/63/53 81/324/53 78/308/53
f 22/86/54 80/320/54 73/291/54
f 17/66/1 55/219/1 56/224/1
f 23/89/1 18/69/1 14/54/1
f 66/267/2 63/254/2 71/286/2
f 58/233/3 62/250/3 64/259/3
f 4/15/4 50/199/4 55/220/4
f 1/3/13 29/113/13 30/118/13
f 34/137/14 26/100/14 29/114/14
f 79/314/15 60/241/15 57/229/15
f 36/147/16 30/119/16 27/104/16
f 7/28/17 36/148/17 37/152/17
f 31/124/18 38/157/18 35/143/18
f 21/82/19 37/153/19 38/158/19
f 19/74/20 21/83/20 14/55/20
f 32/129/21 18/70/21 23/90/21
f 40/167/22 14/56/22 18/71/22
f 13/51/23 40/168/23 33/133/23
f 25/96/24 34/138/24 39/163/24
f 19/75/25 13/52/25 1/4/25
f 6/22/3 26/101/3 25/97/3
f 10/39/3 28/109/3 27/105/3
f 3/10/26 8/29/26 30/120/26
f 3/11/26 29/115/26 26/102/26
f 8/30/26 12/46/26 27/106/26
f 77/304/4 31/125/4 28/110/4
f 77/305/4 78/309/4 32/130/4
f 78/310/4 5/18/4 25/98/4
f 5/19/27 78/311/27 81/321/27
f 12/47/28 8/31/28 72/288/28
f 12/48/28 65/264/28 61/246/28
f 72/289/25 8/32/25 3/12/25
f 3/12/25 69/279/25 70/283/25
f 70/283/25 71/287/25 72/289/25
f 10/40/28 61/247/28 80/317/28
f 6/23/27 67/273/27 69/280/27
f 76/301/1 16/61/1 22/85/1
f 22/85/1 73/292/1 74/294/1
f 74/294/1 75/298/1 76/301/1
f 4/16/27 34/139/27 33/134/27
f 9/35/28 36/149/28 35/144/28
f 20/78/28 37/154/28 36/150/28
f 11/43/28 35/145/28 38/159/28
f 24/93/28 38/160/28 37/155/28
f 15/59/27 40/169/27 39/164/27
f 2/7/27 33/135/27 40/170/27
f 17/67/27 39/165/27 34/140/27
f 47/190/27 42/175/27 41/172/27
f 43/178/28 46/187/28 45/184/28
f 24/94/4 54/215/4 51/203/4
f 11/44/26 51/204/26 52/208/26
f 15/60/25 56/225/25 49/195/25
f 20/79/1 53/211/1 54/216/1
f 9/36/25 52/209/25 53/212/25
f 2/8/26 49/196/26 50/200/26
f 42/176/29 50/201/29 49/197/29
f 44/181/30 52/210/30 51/205/30
f 44/182/31 45/185/31 53/213/31
f 43/179/32 51/206/32 54/217/32
f 46/188/33 54/218/33 53/214/33
f 48/193/34 56/226/34 55/221/34
f 48/194/35 41/173/35 49/198/35
f 47/191/36 55/222/36 50/202/36
f 60/242/41 62/251/41 58/234/41
f 63/255/42 66/268/42 68/277/42
f 68/278/43 67/274/43 59/237/43
f 64/260/44 62/252/44 61/248/44
f 66/269/55 70/284/55 69/281/55
f 63/256/56 65/265/56 72/290/56
f 60/243/57 79/315/57 80/318/57
f 57/230/58 59/238/58 81/322/58
f 6/24/27 5/20/27 59/239/27
f 16/62/49 78/312/49 77/306/49
f 74/295/50 73/293/50 80/319/50
f 75/299/51 82/327/51 81/323/51
f 74/296/52 79/316/52 82/328/52
f 16/63/53 76/302/53 81/324/53
f 22/86/54 77/307/54 80/320/54
