# Blender 3.5.0
# www.blender.org
mtllib playerWaist.mtl
o Waist_
v -0.249774 0.765972 -0.177529
v -0.169546 0.829497 -0.169546
v -0.183028 0.764815 -0.243504
v -0.426657 -0.261901 -0.316257
v -0.476956 -0.198376 -0.307161
v -0.409664 -0.197219 -0.372825
v 0.183028 0.764815 -0.243504
v 0.169546 0.829497 -0.169546
v 0.249774 0.765972 -0.177529
v 0.409665 -0.197219 -0.372825
v 0.476956 -0.198376 -0.307161
v 0.426658 -0.261901 -0.316257
v -0.249774 0.765972 0.177529
v -0.183028 0.764815 0.243504
v -0.169546 0.829497 0.169546
v -0.409665 -0.197219 0.372825
v -0.476956 -0.198376 0.307161
v -0.426658 -0.261901 0.316257
v 0.183028 0.764815 0.243504
v 0.249774 0.765972 0.177529
v 0.169546 0.829497 0.169546
v 0.426657 -0.261901 0.316257
v 0.476956 -0.198376 0.307161
v 0.409664 -0.197219 0.372825
vn -0.0000 -1.0000 -0.0000
vn -0.0000 0.1332 0.9911
vn 0.9734 0.2293 -0.0000
vn -0.0000 1.0000 -0.0000
vn -0.0000 0.1332 -0.9911
vn -0.4991 0.6953 -0.5171
vn -0.6340 -0.4080 -0.6569
vn 0.4991 0.6953 -0.5171
vn 0.6340 -0.4080 -0.6569
vn -0.4991 0.6953 0.5171
vn -0.6340 -0.4080 0.6569
vn 0.4991 0.6953 0.5171
vn 0.6340 -0.4080 0.6569
vn -0.0000 -0.6583 0.7527
vn -0.7840 -0.6208 -0.0000
vn -0.6780 0.2525 -0.6903
vn 0.6780 0.2525 0.6903
vn 0.6780 0.2525 -0.6903
vn -0.6780 0.2525 0.6903
vn 0.6208 0.7840 -0.0000
vn -0.0000 0.7527 -0.6583
vn 0.7840 -0.6208 -0.0000
vn -0.0000 0.7527 0.6583
vn -0.6208 0.7840 -0.0000
vn -0.0000 -0.6583 -0.7527
vn -0.9734 0.2293 -0.0000
vt 0.002002 0.830168
vt 0.962040 0.206791
vt 0.494507 0.520482
vt 0.206791 0.520482
vt 0.518480 0.676326
vt 0.011986 0.807197
vt 0.466531 0.570428
vt 0.518480 0.520482
vt 0.011986 0.830168
vt 0.973025 0.206791
vt 0.206791 0.414583
vt 0.442559 0.570428
vt 0.973025 0.947051
vt 0.520482 0.208793
vt 0.624378 0.998999
vt 0.895103 0.104897
vt 0.963041 0.947051
vt 0.624378 0.988014
vt 0.962040 0.001001
vt 0.001001 0.520482
vt 0.973025 0.937067
vt 0.001001 0.414583
vt 0.973025 0.001001
vt 0.884118 0.104897
vt 0.001001 0.806196
vt 0.949053 0.830168
vt 0.206791 0.312689
vt 0.442559 0.520482
vt 0.001001 0.829167
vt 0.960038 0.986012
vt 0.518480 0.726272
vt 0.466531 0.520482
vt 0.010985 0.806196
vt 0.310687 0.001001
vt 0.960038 0.830168
vt 0.936066 0.986012
vt 0.001001 0.312689
vt 0.962040 0.946050
vt 0.949053 0.624378
vt 0.884118 0.310687
vt 0.972024 0.936066
vt 0.310687 0.206791
vt 0.960038 0.624378
vt 0.414583 0.988014
vt 0.962040 0.936066
vt 0.895103 0.310687
vt 0.520482 0.414583
vt 0.414583 0.998999
vt 0.014989 0.830168
vt 0.208793 0.921077
vt 0.494507 0.570428
vt 0.206791 0.622376
vt 0.024973 0.830168
vt 0.208793 0.910092
vt 0.206791 0.208793
vt 0.416585 0.520482
vt 0.024973 0.807197
vt 0.518480 0.570428
vt 0.468533 0.676326
vt 0.440557 0.520482
vt 0.986012 0.937067
vt 0.001001 0.208793
vt 0.962040 0.414583
vt 0.414583 0.910092
vt 0.976028 0.947051
vt 0.001001 0.622376
vt 0.726272 0.988014
vt 0.414583 0.921077
vt 0.622376 0.208793
vt 0.986012 0.947051
vt 0.973025 0.414583
vt 0.726272 0.998999
vt 0.013988 0.806196
vt 0.206791 0.310687
vt 0.206791 0.975027
vt 0.416585 0.570428
vt 0.023972 0.806196
vt 0.208793 0.001001
vt 0.206791 0.986012
vt 0.936066 0.936066
vt 0.013988 0.829167
vt 0.440557 0.570428
vt 0.468533 0.726272
vt 0.960038 0.936066
vt 0.975027 0.936066
vt 0.312689 0.998999
vt 0.622376 0.414583
vt 0.973025 0.208793
vt 0.208793 0.206791
vt 0.985011 0.936066
vt 0.001001 0.986012
vt 0.312689 0.988014
vt 0.001001 0.310687
vt 0.975027 0.946050
vt 0.962040 0.208793
vt 0.001001 0.975027
s 0
usemtl gunTank
f 4/14/1 22/87/1 18/69/1
f 19/74/2 16/62/2 24/93/2
f 11/42/3 20/78/3 23/89/3
f 15/59/4 8/31/4 2/5/4
f 6/22/5 7/27/5 10/37/5
f 1/1/6 2/6/6 3/9/6
f 4/13/7 5/17/7 6/21/7
f 7/25/8 8/29/8 9/33/8
f 10/38/9 11/41/9 12/45/9
f 13/49/10 14/53/10 15/57/10
f 16/61/11 17/65/11 18/70/11
f 19/73/12 20/77/12 21/81/12
f 22/85/13 23/90/13 24/94/13
f 22/88/14 16/63/14 18/71/14
f 4/15/15 17/67/15 5/18/15
f 6/23/16 1/2/16 3/10/16
f 20/79/17 24/96/17 23/91/17
f 9/35/18 10/39/18 7/26/18
f 13/50/19 16/64/19 14/54/19
f 21/84/20 9/36/20 8/30/20
f 8/32/21 3/12/21 2/7/21
f 12/48/22 23/92/22 22/86/22
f 15/60/23 19/76/23 21/82/23
f 2/8/24 13/51/24 15/58/24
f 4/16/25 10/40/25 12/46/25
f 13/52/26 5/20/26 17/66/26
f 4/14/1 12/47/1 22/87/1
f 19/74/2 14/55/2 16/62/2
f 11/42/3 9/34/3 20/78/3
f 15/59/4 21/83/4 8/31/4
f 6/22/5 3/11/5 7/27/5
f 22/88/14 24/95/14 16/63/14
f 4/15/15 18/72/15 17/67/15
f 6/23/16 5/19/16 1/2/16
f 20/79/17 19/75/17 24/96/17
f 9/35/18 11/43/18 10/39/18
f 13/50/19 17/68/19 16/64/19
f 21/84/20 20/80/20 9/36/20
f 8/32/21 7/28/21 3/12/21
f 12/48/22 11/44/22 23/92/22
f 15/60/23 14/56/23 19/76/23
f 2/8/24 1/3/24 13/51/24
f 4/16/25 6/24/25 10/40/25
f 13/52/26 1/4/26 5/20/26
