# Blender v2.79 (sub 0) OBJ File: 'Armor_Leather.blend'
# www.blender.org
mtllib Armor_Leather.mtl
o Armor_Leather_Cylinder.048
v 0.413564 -0.044113 0.131679
v 0.313318 -0.011412 0.259482
v 0.413222 -0.062015 -0.119643
v 0.290972 -0.149700 -0.255084
v 0.251270 -0.418248 0.271173
v 0.478845 0.331180 0.084778
v 0.426380 0.256932 0.202409
v 0.470656 0.228789 -0.223842
v 0.487711 0.321581 -0.067341
v 0.458564 0.094196 -0.233606
v 0.381281 0.372795 0.057743
v 0.372959 0.349419 -0.187550
v 0.404334 0.372561 -0.069319
v 0.302402 0.335088 -0.263137
v 0.411094 0.149726 0.237563
v 0.365754 0.065702 -0.286323
v 0.352217 0.227825 -0.277715
v 0.264399 -0.354663 -0.200732
v 0.325171 -0.393638 0.097584
v 0.314649 -0.378298 -0.070609
v 0.427729 0.058388 0.228116
v 0.286251 0.296595 0.125113
v 0.297140 0.238644 0.206343
v 0.316375 0.120892 0.263175
v 0.213831 0.391857 0.039960
v 0.218014 0.386612 -0.157864
v 0.170007 0.383014 -0.236971
v 0.231632 0.393515 -0.051976
v 0.151215 0.348938 0.096018
v -0.413564 -0.044113 0.131679
v -0.313318 -0.011412 0.259482
v -0.413222 -0.062015 -0.119643
v -0.290972 -0.149700 -0.255084
v -0.251270 -0.418248 0.271173
v -0.478845 0.331180 0.084778
v -0.426380 0.256932 0.202409
v -0.470656 0.228789 -0.223842
v -0.487711 0.321581 -0.067341
v -0.458564 0.094196 -0.233606
v -0.381281 0.372795 0.057743
v -0.372959 0.349419 -0.187550
v -0.404334 0.372561 -0.069319
v -0.302402 0.335088 -0.263137
v -0.411094 0.149726 0.237563
v -0.365754 0.065702 -0.286323
v -0.352217 0.227825 -0.277715
v -0.264399 -0.354663 -0.200732
v -0.325171 -0.393638 0.097584
v -0.314649 -0.378298 -0.070609
v -0.427729 0.058388 0.228116
v -0.286251 0.296595 0.125113
v -0.297140 0.238644 0.206343
v -0.316375 0.120892 0.263175
v -0.213831 0.391857 0.039960
v -0.218014 0.386612 -0.157864
v -0.170007 0.383014 -0.236971
v -0.231632 0.393515 -0.051976
v -0.151215 0.348938 0.096018
v 0.000000 0.281440 0.180287
v 0.000000 0.325046 -0.301324
v 0.000000 0.244947 -0.335211
v 0.000000 0.065702 -0.316127
v 0.000000 -0.150545 -0.289770
v 0.000000 -0.354663 -0.239921
v 0.000000 0.215429 0.223747
v 0.000000 -0.426957 0.335211
v 0.000000 -0.024997 0.289818
v 0.000000 0.091009 0.268203
v 0.000000 0.313585 0.168106
v 0.000000 0.374211 -0.261919
v 0.396107 -0.037420 0.124580
v 0.305161 -0.008976 0.241385
v 0.395940 -0.054860 -0.112565
v 0.281511 -0.143839 -0.238467
v 0.241021 -0.417188 0.254032
v 0.474433 0.313185 0.077247
v 0.426504 0.243932 0.187212
v 0.460126 0.220921 -0.208769
v 0.476875 0.305310 -0.063123
v 0.446720 0.097505 -0.217834
v 0.377840 0.354339 0.050851
v 0.364856 0.333409 -0.178718
v 0.397031 0.354165 -0.066448
v 0.296970 0.322321 -0.248732
v 0.408172 0.145537 0.218227
v 0.357421 0.069407 -0.268524
v 0.345751 0.223622 -0.259262
v 0.253180 -0.348591 -0.185329
v 0.306406 -0.388952 0.092498
v 0.296031 -0.372532 -0.066124
v 0.419536 0.064197 0.210822
v 0.285790 0.282052 0.111391
v 0.297208 0.226919 0.190142
v 0.314201 0.117161 0.243647
v 0.212168 0.374334 0.030465
v 0.214225 0.367496 -0.153368
v 0.167404 0.367852 -0.224191
v 0.228978 0.373727 -0.050791
v 0.148886 0.336050 0.080903
v -0.396107 -0.037420 0.124580
v -0.305161 -0.008976 0.241385
v -0.395940 -0.054860 -0.112565
v -0.281511 -0.143839 -0.238467
v -0.241021 -0.417188 0.254032
v -0.474433 0.313185 0.077247
v -0.426504 0.243932 0.187212
v -0.460126 0.220921 -0.208769
v -0.476875 0.305310 -0.063123
v -0.446720 0.097505 -0.217834
v -0.377840 0.354339 0.050851
v -0.364856 0.333409 -0.178718
v -0.397031 0.354165 -0.066448
v -0.296970 0.322321 -0.248732
v -0.408172 0.145537 0.218227
v -0.357421 0.069407 -0.268524
v -0.345751 0.223622 -0.259262
v -0.253180 -0.348591 -0.185329
v -0.306406 -0.388952 0.092498
v -0.296031 -0.372532 -0.066124
v -0.419536 0.064197 0.210822
v -0.285790 0.282052 0.111391
v -0.297208 0.226919 0.190142
v -0.314201 0.117161 0.243647
v -0.212168 0.374334 0.030465
v -0.214225 0.367496 -0.153368
v -0.167404 0.367852 -0.224191
v -0.228978 0.373727 -0.050791
v -0.148886 0.336050 0.080903
v 0.000000 0.267965 0.165509
v 0.000000 0.315893 -0.283542
v 0.000000 0.242272 -0.315391
v 0.000000 0.067446 -0.296203
v 0.000000 -0.146519 -0.270180
v 0.000000 -0.349569 -0.220580
v 0.000000 0.204447 0.207032
v 0.000000 -0.428114 0.315245
v 0.000000 -0.026285 0.269860
v 0.000000 0.086566 0.248703
v 0.000000 0.301044 0.152527
v 0.000000 0.361591 -0.246403
vn 0.1168 0.9928 0.0282
vn 0.2225 0.9342 -0.2788
vn -0.0959 0.8042 0.5866
vn 0.9624 -0.2708 -0.0233
vn 0.8325 -0.2931 -0.4701
vn 0.5894 0.7019 -0.4001
vn 0.1417 0.2831 -0.9486
vn 0.7139 -0.4428 -0.5426
vn 0.1201 -0.0257 -0.9924
vn 0.1524 0.6197 0.7699
vn 0.4433 0.0575 -0.8945
vn 0.4720 0.4718 -0.7448
vn 0.0968 -0.1481 -0.9842
vn 0.1280 -0.2526 -0.9591
vn 0.0423 0.3788 0.9245
vn -0.0087 0.7792 0.6267
vn 0.4529 0.8913 0.0204
vn 0.5347 -0.6171 0.5773
vn 0.1624 0.0571 0.9851
vn 0.0003 0.3859 0.9225
vn 0.0510 0.0713 0.9962
vn 0.0407 0.7104 0.7027
vn 0.0496 0.6863 0.7256
vn 0.0783 0.6291 -0.7734
vn 0.1500 0.9755 -0.1609
vn 0.8490 -0.1835 0.4955
vn 0.2799 -0.0394 0.9592
vn -0.1168 0.9928 0.0282
vn -0.2225 0.9342 -0.2788
vn 0.0959 0.8042 0.5866
vn -0.9624 -0.2708 -0.0233
vn -0.8325 -0.2931 -0.4701
vn -0.5894 0.7019 -0.4001
vn -0.1417 0.2831 -0.9486
vn -0.7139 -0.4428 -0.5426
vn -0.1201 -0.0257 -0.9924
vn -0.1524 0.6197 0.7699
vn -0.4433 0.0575 -0.8945
vn -0.4720 0.4718 -0.7448
vn -0.0968 -0.1481 -0.9842
vn -0.1280 -0.2526 -0.9591
vn -0.0423 0.3788 0.9245
vn 0.0087 0.7792 0.6267
vn -0.4529 0.8913 0.0204
vn -0.5347 -0.6171 0.5773
vn -0.1624 0.0571 0.9851
vn -0.0003 0.3859 0.9225
vn -0.0510 0.0713 0.9962
vn -0.0407 0.7104 0.7027
vn -0.0496 0.6863 0.7256
vn -0.0783 0.6291 -0.7734
vn -0.1500 0.9755 -0.1609
vn -0.8490 -0.1835 0.4955
vn -0.2799 -0.0394 0.9592
vn -0.1174 -0.9929 -0.0174
vn -0.2225 -0.9415 0.2530
vn 0.0933 -0.8092 -0.5801
vn -0.9617 0.2730 0.0249
vn -0.8381 0.2934 0.4599
vn -0.5878 -0.7040 0.3985
vn -0.1398 -0.2736 0.9516
vn -0.7187 0.4464 0.5332
vn -0.1177 0.0258 0.9927
vn -0.1519 -0.6222 -0.7680
vn -0.4385 -0.0565 0.8969
vn -0.4729 -0.4662 0.7477
vn -0.0926 0.1458 0.9850
vn -0.1220 0.2504 0.9604
vn -0.0412 -0.3757 -0.9258
vn 0.0135 -0.7748 -0.6321
vn -0.4530 -0.8914 -0.0102
vn -0.5448 0.6121 -0.5732
vn -0.1588 -0.0580 -0.9856
vn 0.0004 -0.3857 -0.9226
vn -0.0480 -0.0769 -0.9959
vn -0.0405 -0.7132 -0.6998
vn -0.0422 -0.6776 -0.7342
vn -0.0775 -0.6316 0.7714
vn -0.1447 -0.9774 0.1544
vn -0.8567 0.1858 -0.4813
vn -0.2781 0.0416 -0.9596
vn 0.1174 -0.9929 -0.0174
vn 0.2225 -0.9415 0.2530
vn -0.0933 -0.8092 -0.5801
vn 0.9617 0.2730 0.0249
vn 0.8381 0.2934 0.4599
vn 0.5878 -0.7040 0.3985
vn 0.1398 -0.2736 0.9516
vn 0.7187 0.4464 0.5332
vn 0.1177 0.0258 0.9927
vn 0.1519 -0.6222 -0.7680
vn 0.4385 -0.0565 0.8969
vn 0.4729 -0.4662 0.7477
vn 0.0926 0.1458 0.9850
vn 0.1220 0.2504 0.9604
vn 0.0412 -0.3757 -0.9258
vn -0.0135 -0.7748 -0.6321
vn 0.4530 -0.8914 -0.0102
vn 0.5448 0.6121 -0.5732
vn 0.1588 -0.0580 -0.9856
vn -0.0004 -0.3857 -0.9226
vn 0.0480 -0.0769 -0.9959
vn 0.0405 -0.7132 -0.6998
vn 0.0422 -0.6776 -0.7342
vn 0.0775 -0.6316 0.7714
vn 0.1447 -0.9774 0.1544
vn 0.8567 0.1858 -0.4813
vn 0.2781 0.0416 -0.9596
vn 0.3695 0.9268 -0.0674
vn 0.9292 -0.2934 0.2249
vn 0.8119 -0.5387 0.2251
vn 0.8119 -0.1219 0.5709
vn 0.6531 0.2927 0.6984
vn -0.3867 -0.9217 -0.0315
vn -0.2673 -0.9606 -0.0763
vn 0.7281 0.3778 -0.5720
vn 0.9869 -0.1613 0.0003
vn 0.9434 0.1801 -0.2783
vn -0.0405 -0.9550 0.2938
vn 0.9098 -0.4106 0.0597
vn 0.0379 -0.9993 -0.0079
vn -0.4325 0.7102 -0.5555
vn -0.7254 0.4881 -0.4854
vn -0.7818 0.3907 0.4860
vn -0.1281 0.7135 0.6888
vn -0.9762 0.1794 0.1216
vn -0.9689 0.1550 -0.1927
vn -0.0575 -0.9822 -0.1788
vn -0.3695 0.9268 -0.0674
vn -0.9292 -0.2934 0.2249
vn -0.8119 -0.5387 0.2251
vn -0.8119 -0.1219 0.5709
vn -0.6531 0.2927 0.6984
vn 0.3867 -0.9217 -0.0315
vn 0.2673 -0.9606 -0.0763
vn -0.7281 0.3778 -0.5720
vn -0.9869 -0.1613 0.0003
vn -0.9434 0.1801 -0.2783
vn 0.0405 -0.9550 0.2938
vn -0.9098 -0.4106 0.0597
vn -0.0379 -0.9993 -0.0079
vn 0.4325 0.7102 -0.5555
vn 0.7254 0.4881 -0.4854
vn 0.7818 0.3907 0.4860
vn 0.1281 0.7135 0.6888
vn 0.9762 0.1794 0.1216
vn 0.9689 0.1550 -0.1927
vn 0.0575 -0.9822 -0.1788
usemtl Brown
s off
f 28//1 25//1 11//1 13//1
f 26//2 12//2 14//2 27//2
f 23//3 7//3 22//3
f 20//4 3//4 1//4 19//4
f 18//5 4//5 3//5 20//5
f 8//6 12//6 13//6 9//6
f 14//7 17//7 61//7 60//7
f 4//8 16//8 10//8 3//8
f 17//9 16//9 62//9 61//9
f 29//10 69//10 59//10 22//10
f 8//11 10//11 16//11 17//11
f 12//12 8//12 17//12 14//12
f 63//13 62//13 16//13 4//13
f 64//14 63//14 4//14 18//14
f 23//15 24//15 15//15 7//15
f 6//16 11//16 22//16 7//16
f 13//17 11//17 6//17 9//17
f 21//18 2//18 1//18
f 5//19 2//19 67//19 66//19
f 65//20 68//20 24//20 23//20
f 2//21 24//21 68//21 67//21
f 23//22 22//22 59//22 65//22
f 11//23 25//23 29//23 22//23
f 60//24 70//24 27//24 14//24
f 12//25 26//25 28//25 13//25
f 5//26 19//26 1//26 2//26
f 2//27 21//27 15//27 24//27
f 57//28 42//28 40//28 54//28
f 55//29 56//29 43//29 41//29
f 52//30 51//30 36//30
f 49//31 48//31 30//31 32//31
f 47//32 49//32 32//32 33//32
f 37//33 38//33 42//33 41//33
f 43//34 60//34 61//34 46//34
f 33//35 32//35 39//35 45//35
f 46//36 61//36 62//36 45//36
f 58//37 51//37 59//37 69//37
f 37//38 46//38 45//38 39//38
f 41//39 43//39 46//39 37//39
f 63//40 33//40 45//40 62//40
f 64//41 47//41 33//41 63//41
f 52//42 36//42 44//42 53//42
f 35//43 36//43 51//43 40//43
f 42//44 38//44 35//44 40//44
f 50//45 30//45 31//45
f 34//46 66//46 67//46 31//46
f 65//47 52//47 53//47 68//47
f 31//48 67//48 68//48 53//48
f 52//49 65//49 59//49 51//49
f 40//50 51//50 58//50 54//50
f 60//51 43//51 56//51 70//51
f 41//52 42//52 57//52 55//52
f 34//53 31//53 30//53 48//53
f 31//54 53//54 44//54 50//54
f 98//55 83//55 81//55 95//55
f 96//56 97//56 84//56 82//56
f 93//57 92//57 77//57
f 90//58 89//58 71//58 73//58
f 88//59 90//59 73//59 74//59
f 78//60 79//60 83//60 82//60
f 84//61 130//61 131//61 87//61
f 74//62 73//62 80//62 86//62
f 87//63 131//63 132//63 86//63
f 99//64 92//64 129//64 139//64
f 78//65 87//65 86//65 80//65
f 82//66 84//66 87//66 78//66
f 133//67 74//67 86//67 132//67
f 134//68 88//68 74//68 133//68
f 93//69 77//69 85//69 94//69
f 76//70 77//70 92//70 81//70
f 83//71 79//71 76//71 81//71
f 91//72 71//72 72//72
f 75//73 136//73 137//73 72//73
f 135//74 93//74 94//74 138//74
f 72//75 137//75 138//75 94//75
f 93//76 135//76 129//76 92//76
f 81//77 92//77 99//77 95//77
f 130//78 84//78 97//78 140//78
f 82//79 83//79 98//79 96//79
f 75//80 72//80 71//80 89//80
f 72//81 94//81 85//81 91//81
f 127//82 124//82 110//82 112//82
f 125//83 111//83 113//83 126//83
f 122//84 106//84 121//84
f 119//85 102//85 100//85 118//85
f 117//86 103//86 102//86 119//86
f 107//87 111//87 112//87 108//87
f 113//88 116//88 131//88 130//88
f 103//89 115//89 109//89 102//89
f 116//90 115//90 132//90 131//90
f 128//91 139//91 129//91 121//91
f 107//92 109//92 115//92 116//92
f 111//93 107//93 116//93 113//93
f 133//94 132//94 115//94 103//94
f 134//95 133//95 103//95 117//95
f 122//96 123//96 114//96 106//96
f 105//97 110//97 121//97 106//97
f 112//98 110//98 105//98 108//98
f 120//99 101//99 100//99
f 104//100 101//100 137//100 136//100
f 135//101 138//101 123//101 122//101
f 101//102 123//102 138//102 137//102
f 122//103 121//103 129//103 135//103
f 110//104 124//104 128//104 121//104
f 130//105 140//105 126//105 113//105
f 111//106 125//106 127//106 112//106
f 104//107 118//107 100//107 101//107
f 101//108 120//108 114//108 123//108
f 1//109 3//109 73//109 71//109
f 6//110 7//110 77//110 76//110
f 8//111 9//111 79//111 78//111
f 10//112 8//112 78//112 80//112
f 3//113 10//113 80//113 73//113
f 18//114 20//114 90//114 88//114
f 20//115 19//115 89//115 90//115
f 21//116 1//116 71//116 91//116
f 7//117 15//117 85//117 77//117
f 15//118 21//118 91//118 85//118
f 64//119 18//119 88//119 134//119
f 9//120 6//120 76//120 79//120
f 5//121 66//121 136//121 75//121
f 69//122 29//122 99//122 139//122
f 29//123 25//123 95//123 99//123
f 26//124 27//124 97//124 96//124
f 27//125 70//125 140//125 97//125
f 28//126 26//126 96//126 98//126
f 25//127 28//127 98//127 95//127
f 19//128 5//128 75//128 89//128
f 32//129 30//129 100//129 102//129
f 36//130 35//130 105//130 106//130
f 38//131 37//131 107//131 108//131
f 37//132 39//132 109//132 107//132
f 39//133 32//133 102//133 109//133
f 49//134 47//134 117//134 119//134
f 48//135 49//135 119//135 118//135
f 30//136 50//136 120//136 100//136
f 44//137 36//137 106//137 114//137
f 50//138 44//138 114//138 120//138
f 47//139 64//139 134//139 117//139
f 35//140 38//140 108//140 105//140
f 66//141 34//141 104//141 136//141
f 58//142 69//142 139//142 128//142
f 54//143 58//143 128//143 124//143
f 56//144 55//144 125//144 126//144
f 70//145 56//145 126//145 140//145
f 55//146 57//146 127//146 125//146
f 57//147 54//147 124//147 127//147
f 34//148 48//148 118//148 104//148
