# Blender v2.79 (sub 0) OBJ File: 'Arrow.blend'
# www.blender.org
mtllib Arrow.mtl
o Arrow_Cylinder.030
v 0.005098 -0.686575 -0.002086
v 0.045325 -0.727992 0.068192
v -0.003306 -0.686575 0.002724
v 0.036921 -0.727992 0.073003
v 0.005098 -0.497564 -0.002086
v 0.023116 -0.535717 0.029392
v -0.003306 -0.497564 0.002725
v 0.014712 -0.535717 0.034203
v -0.003306 -0.551255 0.002725
v -0.003306 -0.571470 0.002725
v -0.003306 -0.591685 0.002725
v -0.003306 -0.611901 0.002725
v -0.003306 -0.632116 0.002725
v -0.003306 -0.652331 0.002725
v 0.029659 -0.673995 0.060316
v 0.012386 -0.647776 0.030138
v 0.028390 -0.654546 0.058097
v 0.023238 -0.600793 0.049098
v 0.010736 -0.576627 0.027256
v 0.020592 -0.578748 0.044475
v 0.005098 -0.652331 -0.002086
v 0.005098 -0.632116 -0.002086
v 0.005098 -0.611901 -0.002086
v 0.005098 -0.591685 -0.002086
v 0.005098 -0.571470 -0.002086
v 0.005098 -0.551255 -0.002086
v 0.028996 -0.578748 0.039664
v 0.019140 -0.576627 0.022446
v 0.031642 -0.600793 0.044287
v 0.036793 -0.654546 0.053287
v 0.020789 -0.647776 0.025328
v 0.038063 -0.673995 0.055506
v -0.002915 -0.686575 -0.003026
v 0.037834 -0.727992 -0.073003
v 0.005452 -0.686575 0.001847
v 0.046201 -0.727992 -0.068130
v -0.002915 -0.497564 -0.003026
v 0.015336 -0.535717 -0.034369
v 0.005452 -0.497564 0.001847
v 0.023704 -0.535717 -0.029496
v 0.005452 -0.551255 0.001847
v 0.005452 -0.571470 0.001847
v 0.005452 -0.591685 0.001847
v 0.005452 -0.611901 0.001847
v 0.005452 -0.632116 0.001847
v 0.005452 -0.652331 0.001847
v 0.038845 -0.673995 -0.055498
v 0.021347 -0.647776 -0.025449
v 0.037559 -0.654546 -0.053289
v 0.032341 -0.600793 -0.044328
v 0.019676 -0.576627 -0.022580
v 0.029660 -0.578748 -0.039724
v -0.002915 -0.652331 -0.003026
v -0.002915 -0.632116 -0.003026
v -0.002915 -0.611901 -0.003026
v -0.002915 -0.591685 -0.003026
v -0.002915 -0.571470 -0.003026
v -0.002915 -0.551255 -0.003026
v 0.021292 -0.578748 -0.044597
v 0.011309 -0.576627 -0.027453
v 0.023973 -0.600793 -0.049200
v 0.029191 -0.654546 -0.058161
v 0.012980 -0.647776 -0.030322
v 0.030478 -0.673995 -0.060370
v 0.000277 -0.686575 0.004384
v -0.080699 -0.727992 0.004083
v 0.000313 -0.686575 -0.005299
v -0.080663 -0.727992 -0.005601
v 0.000277 -0.497564 0.004384
v -0.035993 -0.535717 0.004249
v 0.000313 -0.497564 -0.005299
v -0.035957 -0.535717 -0.005434
v 0.000313 -0.551255 -0.005299
v 0.000313 -0.571470 -0.005299
v 0.000313 -0.591685 -0.005299
v 0.000313 -0.611901 -0.005299
v 0.000313 -0.632116 -0.005299
v 0.000313 -0.652331 -0.005299
v -0.066045 -0.673995 -0.005546
v -0.031273 -0.647776 -0.005417
v -0.063489 -0.654546 -0.005537
v -0.053119 -0.600793 -0.005498
v -0.027953 -0.576627 -0.005404
v -0.047792 -0.578748 -0.005478
v 0.000277 -0.652331 0.004384
v 0.000277 -0.632116 0.004384
v 0.000277 -0.611901 0.004384
v 0.000277 -0.591685 0.004384
v 0.000277 -0.571470 0.004384
v 0.000277 -0.551255 0.004384
v -0.047828 -0.578748 0.004205
v -0.027989 -0.576627 0.004279
v -0.053155 -0.600793 0.004185
v -0.063525 -0.654546 0.004146
v -0.031309 -0.647776 0.004266
v -0.066081 -0.673995 0.004137
v 0.000820 0.502689 -0.012415
v 0.000820 -0.708561 -0.012415
v -0.009722 0.502689 -0.006329
v -0.009722 -0.708561 -0.006329
v -0.009722 0.502689 0.005844
v -0.009722 -0.708561 0.005844
v 0.000820 0.502689 0.011930
v 0.000820 -0.708561 0.011930
v 0.011362 0.502689 0.005844
v 0.011362 -0.708561 0.005844
v 0.011362 0.502689 -0.006329
v 0.011362 -0.708561 -0.006329
v 0.000820 0.523690 -0.012415
v -0.034413 0.523690 -0.006329
v -0.034413 0.523690 0.005844
v 0.000820 0.523690 0.011930
v 0.036053 0.523690 0.005844
v 0.036053 0.523690 -0.006329
v 0.000820 0.727992 -0.004027
v -0.002881 0.727992 -0.002135
v -0.002881 0.727992 0.001650
v 0.000820 0.727992 0.003542
v 0.004520 0.727992 0.001650
v 0.004520 0.727992 -0.002135
vn -0.5000 -0.0000 -0.8660
vn -1.0000 -0.0000 -0.0000
vn -0.5000 -0.0000 0.8660
vn 0.5000 0.0000 0.8660
vn 0.0000 -1.0000 0.0000
vn 1.0000 0.0000 0.0000
vn 0.5000 0.0000 -0.8660
vn -0.2541 -0.1494 0.9556
vn -0.2005 0.0456 -0.9786
vn 0.2541 -0.1494 -0.9556
vn 0.2541 -0.1494 0.9556
vn -0.2541 -0.1494 -0.9556
vn 0.2005 0.0456 -0.9786
vn 0.2005 0.0456 0.9786
vn -0.2005 0.0456 0.9786
vn -0.6479 -0.7617 0.0000
vn 0.6479 -0.7617 0.0000
vn 0.0000 1.0000 0.0000
vn -0.9883 0.1525 -0.0000
vn 0.9883 0.1525 0.0000
vn -0.2262 -0.8903 -0.3952
vn -0.8679 0.0000 0.4968
vn 0.3600 0.6890 0.6290
vn 0.8679 -0.0000 -0.4968
vn -0.4968 0.0000 -0.8679
vn 0.4795 0.2613 0.8377
vn 0.4790 0.2652 0.8368
vn -0.0528 -0.9943 -0.0922
vn 0.3441 0.7213 0.6011
vn 0.4878 0.1894 0.8522
vn -0.1022 -0.9786 -0.1785
vn 0.2991 0.7985 0.5225
vn -0.2292 -0.8903 0.3935
vn 0.8642 -0.0000 0.5032
vn 0.3647 0.6890 -0.6263
vn -0.8642 0.0000 -0.5032
vn -0.5032 0.0000 0.8642
vn 0.4857 0.2613 -0.8341
vn 0.4852 0.2652 -0.8332
vn -0.0535 -0.9943 0.0918
vn 0.3485 0.7213 -0.5985
vn 0.4941 0.1894 -0.8485
vn -0.1035 -0.9786 0.1777
vn 0.3030 0.7985 -0.5203
vn 0.4554 -0.8903 0.0017
vn 0.0037 -0.0000 -1.0000
vn -0.7248 0.6890 -0.0027
vn -0.0037 -0.0000 1.0000
vn 1.0000 0.0000 0.0037
vn -0.9652 0.2613 -0.0036
vn -0.9642 0.2652 -0.0036
vn 0.1063 -0.9943 0.0004
vn -0.6926 0.7213 -0.0026
vn -0.9819 0.1894 -0.0037
vn 0.2057 -0.9786 0.0008
vn -0.6020 0.7985 -0.0022
usemtl LightWood
s off
f 97//1 98//1 100//1 99//1
f 99//2 100//2 102//2 101//2
f 101//3 102//3 104//3 103//3
f 103//4 104//4 106//4 105//4
f 100//5 98//5 108//5 106//5 104//5 102//5
f 105//6 106//6 108//6 107//6
f 107//7 108//7 98//7 97//7
usemtl Steel
f 101//8 103//8 112//8 111//8
f 109//9 110//9 116//9 115//9
f 107//10 97//10 109//10 114//10
f 103//11 105//11 113//11 112//11
f 97//12 99//12 110//12 109//12
f 114//13 109//13 115//13 120//13
f 112//14 113//14 119//14 118//14
f 111//15 112//15 118//15 117//15
usemtl LightSteel
f 99//16 101//16 111//16 110//16
f 105//17 107//17 114//17 113//17
f 115//18 116//18 117//18 118//18 119//18 120//18
f 110//19 111//19 117//19 116//19
f 113//20 114//20 120//20 119//20
usemtl DarkRed
f 1//21 2//21 4//21 3//21
f 9//22 20//22 8//22 7//22
f 7//23 8//23 6//23 5//23
f 21//24 32//24 2//24 1//24
f 9//25 7//25 5//25 26//25
f 15//26 4//26 2//26 32//26
f 8//27 20//27 27//27 6//27
f 20//28 19//28 28//28 27//28
f 19//29 18//29 29//29 28//29
f 18//30 17//30 30//30 29//30
f 17//31 16//31 31//31 30//31
f 16//32 15//32 32//32 31//32
f 3//25 14//25 21//25 1//25
f 14//25 13//25 22//25 21//25
f 13//25 12//25 23//25 22//25
f 12//25 11//25 24//25 23//25
f 11//25 10//25 25//25 24//25
f 10//25 9//25 26//25 25//25
f 5//24 6//24 27//24 26//24
f 26//24 27//24 28//24 25//24
f 25//24 28//24 29//24 24//24
f 24//24 29//24 30//24 23//24
f 23//24 30//24 31//24 22//24
f 22//24 31//24 32//24 21//24
f 3//22 4//22 15//22 14//22
f 14//22 15//22 16//22 13//22
f 13//22 16//22 17//22 12//22
f 12//22 17//22 18//22 11//22
f 11//22 18//22 19//22 10//22
f 10//22 19//22 20//22 9//22
f 33//33 34//33 36//33 35//33
f 41//34 52//34 40//34 39//34
f 39//35 40//35 38//35 37//35
f 53//36 64//36 34//36 33//36
f 41//37 39//37 37//37 58//37
f 47//38 36//38 34//38 64//38
f 40//39 52//39 59//39 38//39
f 52//40 51//40 60//40 59//40
f 51//41 50//41 61//41 60//41
f 50//42 49//42 62//42 61//42
f 49//43 48//43 63//43 62//43
f 48//44 47//44 64//44 63//44
f 35//37 46//37 53//37 33//37
f 46//37 45//37 54//37 53//37
f 45//37 44//37 55//37 54//37
f 44//37 43//37 56//37 55//37
f 43//37 42//37 57//37 56//37
f 42//37 41//37 58//37 57//37
f 37//36 38//36 59//36 58//36
f 58//36 59//36 60//36 57//36
f 57//36 60//36 61//36 56//36
f 56//36 61//36 62//36 55//36
f 55//36 62//36 63//36 54//36
f 54//36 63//36 64//36 53//36
f 35//34 36//34 47//34 46//34
f 46//34 47//34 48//34 45//34
f 45//34 48//34 49//34 44//34
f 44//34 49//34 50//34 43//34
f 43//34 50//34 51//34 42//34
f 42//34 51//34 52//34 41//34
f 65//45 66//45 68//45 67//45
f 73//46 84//46 72//46 71//46
f 71//47 72//47 70//47 69//47
f 85//48 96//48 66//48 65//48
f 73//49 71//49 69//49 90//49
f 79//50 68//50 66//50 96//50
f 72//51 84//51 91//51 70//51
f 84//52 83//52 92//52 91//52
f 83//53 82//53 93//53 92//53
f 82//54 81//54 94//54 93//54
f 81//55 80//55 95//55 94//55
f 80//56 79//56 96//56 95//56
f 67//49 78//49 85//49 65//49
f 78//49 77//49 86//49 85//49
f 77//49 76//49 87//49 86//49
f 76//49 75//49 88//49 87//49
f 75//49 74//49 89//49 88//49
f 74//49 73//49 90//49 89//49
f 69//48 70//48 91//48 90//48
f 90//48 91//48 92//48 89//48
f 89//48 92//48 93//48 88//48
f 88//48 93//48 94//48 87//48
f 87//48 94//48 95//48 86//48
f 86//48 95//48 96//48 85//48
f 67//46 68//46 79//46 78//46
f 78//46 79//46 80//46 77//46
f 77//46 80//46 81//46 76//46
f 76//46 81//46 82//46 75//46
f 75//46 82//46 83//46 74//46
f 74//46 83//46 84//46 73//46
