# Blender v2.79 (sub 0) OBJ File: 'Bone.blend'
# www.blender.org
mtllib Bone.mtl
o Bone_Cube.011
v -0.425520 0.017200 -0.000000
v -0.246698 0.044468 -0.059538
v -0.246698 0.044468 0.059538
v -0.246698 -0.076967 -0.000000
v -0.246698 0.084947 -0.000000
v -0.246698 -0.036488 0.059538
v -0.246698 -0.036488 -0.059538
v -0.445583 -0.015349 -0.000000
v -0.473516 0.121151 -0.000000
v -0.380341 0.154084 -0.000000
v -0.402930 0.085642 -0.078154
v -0.402930 0.085642 0.078154
v -0.472030 -0.117452 -0.000000
v -0.358792 -0.157936 -0.000000
v -0.402187 -0.086642 -0.088390
v -0.402187 -0.086642 0.088390
v -0.317545 -0.113134 -0.000000
v -0.328579 0.057594 0.063443
v -0.322932 0.111316 -0.000000
v -0.328394 -0.058699 -0.066002
v -0.246698 -0.066847 -0.044653
v -0.246698 0.074827 -0.044653
v -0.177068 -0.027921 -0.073624
v -0.177068 -0.064961 -0.000000
v -0.177068 0.083202 -0.000000
v -0.177068 -0.027921 0.073624
v -0.246698 -0.066847 0.044653
v -0.246698 0.074827 0.044653
v -0.328394 -0.058699 0.066002
v -0.328579 0.057594 -0.063443
v -0.177068 0.046161 -0.073624
v -0.177068 0.046161 0.073624
v -0.246698 0.003990 0.059538
v -0.246698 0.003990 -0.059538
v -0.383948 -0.000962 -0.000000
v -0.455870 0.112274 0.068673
v -0.427633 0.171334 -0.000000
v -0.455870 0.112274 -0.068673
v -0.484107 0.053213 -0.000000
v -0.419873 0.034311 0.058616
v -0.419873 0.034311 -0.058616
v -0.385988 0.136973 -0.058616
v -0.385988 0.136973 0.058616
v -0.400325 -0.172375 -0.000000
v -0.454569 -0.109749 -0.081467
v -0.454569 -0.109749 0.081467
v -0.508814 -0.047124 -0.000000
v -0.434734 -0.033172 -0.066292
v -0.434734 -0.033172 0.066292
v -0.369641 -0.140113 0.066292
v -0.369641 -0.140113 -0.066292
v -0.320257 -0.099525 0.049501
v -0.324344 0.097885 0.047582
v -0.320257 -0.099525 -0.049501
v -0.324344 0.097885 -0.047582
v -0.177068 -0.055701 0.055218
v -0.177068 0.073941 0.055218
v -0.177068 -0.055701 -0.055218
v -0.177068 0.073941 -0.055218
v -0.343930 -0.001330 0.055963
v -0.343930 -0.001330 -0.055963
v -0.177068 0.009120 -0.073624
v -0.177068 0.009120 0.073624
v -0.459714 0.063911 0.047889
v -0.424575 0.146828 0.047889
v -0.424575 0.146828 -0.047889
v -0.459714 0.063911 -0.047889
v -0.407237 -0.147435 -0.055850
v -0.407237 -0.147435 0.055850
v -0.474741 -0.060082 -0.055850
v -0.474741 -0.060082 0.055850
v 0.425520 0.017200 -0.000000
v 0.246698 0.044468 -0.059538
v 0.246698 0.044468 0.059538
v 0.246698 -0.076967 -0.000000
v 0.246698 0.084947 -0.000000
v 0.246698 -0.036488 0.059538
v 0.246698 -0.036488 -0.059538
v 0.445583 -0.015349 -0.000000
v 0.473516 0.121151 -0.000000
v 0.380341 0.154084 -0.000000
v 0.402930 0.085642 -0.078154
v 0.402930 0.085642 0.078154
v 0.472030 -0.117452 -0.000000
v 0.358792 -0.157936 -0.000000
v 0.402187 -0.086642 -0.088390
v 0.402187 -0.086642 0.088390
v 0.317545 -0.113134 -0.000000
v 0.328579 0.057594 0.063443
v 0.322932 0.111316 -0.000000
v 0.328394 -0.058699 -0.066002
v 0.246698 -0.066847 -0.044653
v 0.246698 0.074827 -0.044653
v 0.177068 -0.027921 -0.073624
v 0.177068 -0.064961 -0.000000
v 0.177068 0.083202 -0.000000
v 0.177068 -0.027921 0.073624
v 0.246698 -0.066847 0.044653
v 0.246698 0.074827 0.044653
v 0.328394 -0.058699 0.066002
v 0.328579 0.057594 -0.063443
v 0.177068 0.046161 -0.073624
v 0.177068 0.046161 0.073624
v 0.246698 0.003990 0.059538
v 0.246698 0.003990 -0.059538
v 0.383948 -0.000962 -0.000000
v 0.455870 0.112274 0.068673
v 0.427633 0.171334 -0.000000
v 0.455870 0.112274 -0.068673
v 0.484107 0.053213 -0.000000
v 0.419873 0.034311 0.058616
v 0.419873 0.034311 -0.058616
v 0.385988 0.136973 -0.058616
v 0.385988 0.136973 0.058616
v 0.400325 -0.172375 -0.000000
v 0.454569 -0.109749 -0.081467
v 0.454569 -0.109749 0.081467
v 0.508814 -0.047124 -0.000000
v 0.434734 -0.033172 -0.066292
v 0.434734 -0.033172 0.066292
v 0.369641 -0.140113 0.066292
v 0.369641 -0.140113 -0.066292
v 0.320257 -0.099525 0.049501
v 0.324344 0.097885 0.047582
v 0.320257 -0.099525 -0.049501
v 0.324344 0.097885 -0.047582
v 0.177068 -0.055701 0.055218
v 0.177068 0.073941 0.055218
v 0.177068 -0.055701 -0.055218
v 0.177068 0.073941 -0.055218
v 0.343930 -0.001330 0.055963
v 0.343930 -0.001330 -0.055963
v 0.177068 0.009120 -0.073624
v 0.177068 0.009120 0.073624
v 0.459714 0.063911 0.047889
v 0.424575 0.146828 0.047889
v 0.424575 0.146828 -0.047889
v 0.459714 0.063911 -0.047889
v 0.407237 -0.147435 -0.055850
v 0.407237 -0.147435 0.055850
v 0.474741 -0.060082 -0.055850
v 0.474741 -0.060082 0.055850
v 0.000000 -0.027921 -0.073624
v 0.000000 -0.064961 -0.000000
v 0.000000 0.083202 -0.000000
v 0.000000 -0.027921 0.073624
v 0.000000 0.046161 -0.073624
v 0.000000 0.046161 0.073624
v 0.000000 -0.055701 0.055218
v 0.000000 0.073941 0.055218
v 0.000000 -0.055701 -0.055218
v 0.000000 0.073941 -0.055218
v 0.000000 0.009120 -0.073624
v 0.000000 0.009120 0.073624
vn -0.3937 -0.8740 -0.2846
vn -0.3937 -0.8740 0.2846
vn -0.5454 -0.7605 0.3524
vn -0.5454 -0.7605 -0.3524
vn -0.0014 -0.0748 -0.9972
vn 0.1274 0.3893 -0.9122
vn -0.1546 0.4909 -0.8574
vn -0.1983 0.0000 -0.9801
vn -0.1983 0.0000 0.9801
vn -0.1546 0.4909 0.8574
vn 0.1274 0.3893 0.9122
vn -0.0014 -0.0748 0.9972
vn 0.4249 -0.8748 -0.2327
vn 0.1471 -0.9710 -0.1884
vn 0.1471 -0.9710 0.1884
vn 0.4249 -0.8748 0.2327
vn 0.0041 0.9817 -0.1905
vn 0.3010 0.9229 -0.2402
vn 0.3010 0.9229 0.2402
vn 0.0041 0.9817 0.1905
vn -0.0830 -0.4952 0.8648
vn 0.0003 0.1021 0.9948
vn 0.1989 -0.3762 0.9049
vn 0.1989 -0.3762 -0.9049
vn 0.0003 0.1021 -0.9948
vn -0.0830 -0.4952 -0.8648
vn -0.2656 0.9314 0.2491
vn -0.2656 0.9314 -0.2491
vn -0.4862 0.7881 -0.3774
vn -0.4862 0.7881 0.3774
vn -0.9395 0.0562 0.3380
vn -0.6628 0.6804 0.3126
vn -0.6628 0.6804 -0.3126
vn -0.9395 0.0562 -0.3380
vn 0.5631 0.7835 0.2628
vn 0.5631 0.7835 -0.2628
vn 0.2400 0.9022 -0.3584
vn 0.2400 0.9022 0.3584
vn 0.3100 0.2794 -0.9087
vn 0.0101 -0.2408 -0.9705
vn -0.3646 -0.2828 -0.8872
vn -0.0247 0.4362 -0.8995
vn 0.0101 -0.2408 0.9705
vn 0.3100 0.2794 0.9087
vn -0.0247 0.4362 0.8995
vn -0.3646 -0.2828 0.8872
vn -0.5658 -0.7913 0.2316
vn -0.8812 -0.3505 0.3173
vn -0.8812 -0.3505 -0.3173
vn -0.5658 -0.7913 -0.2316
vn 0.6869 -0.6771 -0.2642
vn 0.6869 -0.6771 0.2642
vn 0.2052 -0.9141 0.3499
vn 0.2052 -0.9141 -0.3499
vn 0.0766 0.3081 -0.9483
vn 0.3950 -0.1969 -0.8973
vn -0.0109 -0.4712 -0.8820
vn -0.3134 0.2621 -0.9127
vn 0.3950 -0.1969 0.8973
vn 0.0766 0.3081 0.9483
vn -0.3134 0.2621 0.9127
vn -0.0109 -0.4712 0.8820
vn 0.0000 0.0000 1.0000
vn 0.0000 -0.9862 0.1654
vn 0.0000 0.5523 -0.8336
vn 0.0000 -0.9862 -0.1654
vn 0.0000 0.0000 -1.0000
vn 0.0000 -0.5523 0.8336
vn 0.0000 0.9862 -0.1654
vn 0.0000 0.5523 0.8336
vn 0.0000 -0.5523 -0.8336
vn 0.0000 0.9862 0.1654
vn 0.3937 -0.8740 -0.2846
vn 0.3937 -0.8740 0.2846
vn 0.5454 -0.7605 0.3524
vn 0.5454 -0.7605 -0.3524
vn 0.0014 -0.0748 -0.9972
vn -0.1274 0.3893 -0.9122
vn 0.1546 0.4909 -0.8574
vn 0.1983 0.0000 -0.9801
vn 0.1983 0.0000 0.9801
vn 0.1546 0.4909 0.8574
vn -0.1274 0.3893 0.9122
vn 0.0014 -0.0748 0.9972
vn -0.4249 -0.8748 -0.2327
vn -0.1471 -0.9710 -0.1884
vn -0.1471 -0.9710 0.1884
vn -0.4249 -0.8748 0.2327
vn -0.0041 0.9817 -0.1905
vn -0.3010 0.9229 -0.2402
vn -0.3010 0.9229 0.2402
vn -0.0041 0.9817 0.1905
vn 0.0830 -0.4952 0.8648
vn -0.0003 0.1021 0.9948
vn -0.1989 -0.3762 0.9049
vn -0.1989 -0.3762 -0.9049
vn -0.0003 0.1021 -0.9948
vn 0.0830 -0.4952 -0.8648
vn 0.2656 0.9314 0.2491
vn 0.2656 0.9314 -0.2491
vn 0.4862 0.7881 -0.3774
vn 0.4862 0.7881 0.3774
vn 0.9395 0.0562 0.3380
vn 0.6628 0.6804 0.3126
vn 0.6628 0.6804 -0.3126
vn 0.9395 0.0562 -0.3380
vn -0.5631 0.7835 0.2628
vn -0.5631 0.7835 -0.2628
vn -0.2400 0.9022 -0.3584
vn -0.2400 0.9022 0.3584
vn -0.3100 0.2794 -0.9087
vn -0.0101 -0.2408 -0.9705
vn 0.3646 -0.2828 -0.8872
vn 0.0247 0.4362 -0.8995
vn -0.0101 -0.2408 0.9705
vn -0.3100 0.2794 0.9087
vn 0.0247 0.4362 0.8995
vn 0.3646 -0.2828 0.8872
vn 0.5658 -0.7913 0.2316
vn 0.8812 -0.3505 0.3173
vn 0.8812 -0.3505 -0.3173
vn 0.5658 -0.7913 -0.2316
vn -0.6869 -0.6771 -0.2642
vn -0.6869 -0.6771 0.2642
vn -0.2052 -0.9141 0.3499
vn -0.2052 -0.9141 -0.3499
vn -0.0766 0.3081 -0.9483
vn -0.3950 -0.1969 -0.8973
vn 0.0109 -0.4712 -0.8820
vn 0.3134 0.2621 -0.9127
vn -0.3950 -0.1969 0.8973
vn -0.0766 0.3081 0.9483
vn 0.3134 0.2621 0.9127
vn 0.0109 -0.4712 0.8820
usemtl Beige
s off
f 1//1 41//1 61//1 35//1
f 1//2 35//2 60//2 40//2
f 1//3 40//3 64//3 39//3
f 1//4 39//4 67//4 41//4
f 2//5 34//5 61//5 30//5
f 2//6 30//6 55//6 22//6
f 2//7 22//7 59//7 31//7
f 2//8 31//8 62//8 34//8
f 3//9 33//9 63//9 32//9
f 3//10 32//10 57//10 28//10
f 3//11 28//11 53//11 18//11
f 3//12 18//12 60//12 33//12
f 4//13 17//13 54//13 21//13
f 4//14 21//14 58//14 24//14
f 4//15 24//15 56//15 27//15
f 4//16 27//16 52//16 17//16
f 5//17 25//17 59//17 22//17
f 5//18 22//18 55//18 19//18
f 5//19 19//19 53//19 28//19
f 5//20 28//20 57//20 25//20
f 6//21 27//21 56//21 26//21
f 6//9 26//9 63//9 33//9
f 6//22 33//22 60//22 29//22
f 6//23 29//23 52//23 27//23
f 7//24 21//24 54//24 20//24
f 7//25 20//25 61//25 34//25
f 7//8 34//8 62//8 23//8
f 7//26 23//26 58//26 21//26
f 8//27 49//27 60//27 35//27
f 8//28 35//28 61//28 48//28
f 8//29 48//29 70//29 47//29
f 8//30 47//30 71//30 49//30
f 9//31 39//31 64//31 36//31
f 9//32 36//32 65//32 37//32
f 9//33 37//33 66//33 38//33
f 9//34 38//34 67//34 39//34
f 10//35 43//35 53//35 19//35
f 10//36 19//36 55//36 42//36
f 10//37 42//37 66//37 37//37
f 10//38 37//38 65//38 43//38
f 11//39 42//39 55//39 30//39
f 11//40 30//40 61//40 41//40
f 11//41 41//41 67//41 38//41
f 11//42 38//42 66//42 42//42
f 12//43 40//43 60//43 18//43
f 12//44 18//44 53//44 43//44
f 12//45 43//45 65//45 36//45
f 12//46 36//46 64//46 40//46
f 13//47 44//47 69//47 46//47
f 13//48 46//48 71//48 47//48
f 13//49 47//49 70//49 45//49
f 13//50 45//50 68//50 44//50
f 14//51 51//51 54//51 17//51
f 14//52 17//52 52//52 50//52
f 14//53 50//53 69//53 44//53
f 14//54 44//54 68//54 51//54
f 15//55 48//55 61//55 20//55
f 15//56 20//56 54//56 51//56
f 15//57 51//57 68//57 45//57
f 15//58 45//58 70//58 48//58
f 16//59 50//59 52//59 29//59
f 16//60 29//60 60//60 49//60
f 16//61 49//61 71//61 46//61
f 16//62 46//62 69//62 50//62
f 32//63 63//63 154//63 148//63
f 56//64 24//64 144//64 149//64
f 31//65 59//65 152//65 147//65
f 63//63 26//63 146//63 154//63
f 24//66 58//66 151//66 144//66
f 62//67 31//67 147//67 153//67
f 23//67 62//67 153//67 143//67
f 26//68 56//68 149//68 146//68
f 59//69 25//69 145//69 152//69
f 57//70 32//70 148//70 150//70
f 58//71 23//71 143//71 151//71
f 25//72 57//72 150//72 145//72
f 72//73 106//73 132//73 112//73
f 72//74 111//74 131//74 106//74
f 72//75 110//75 135//75 111//75
f 72//76 112//76 138//76 110//76
f 73//77 101//77 132//77 105//77
f 73//78 93//78 126//78 101//78
f 73//79 102//79 130//79 93//79
f 73//80 105//80 133//80 102//80
f 74//81 103//81 134//81 104//81
f 74//82 99//82 128//82 103//82
f 74//83 89//83 124//83 99//83
f 74//84 104//84 131//84 89//84
f 75//85 92//85 125//85 88//85
f 75//86 95//86 129//86 92//86
f 75//87 98//87 127//87 95//87
f 75//88 88//88 123//88 98//88
f 76//89 93//89 130//89 96//89
f 76//90 90//90 126//90 93//90
f 76//91 99//91 124//91 90//91
f 76//92 96//92 128//92 99//92
f 77//93 97//93 127//93 98//93
f 77//81 104//81 134//81 97//81
f 77//94 100//94 131//94 104//94
f 77//95 98//95 123//95 100//95
f 78//96 91//96 125//96 92//96
f 78//97 105//97 132//97 91//97
f 78//80 94//80 133//80 105//80
f 78//98 92//98 129//98 94//98
f 79//99 106//99 131//99 120//99
f 79//100 119//100 132//100 106//100
f 79//101 118//101 141//101 119//101
f 79//102 120//102 142//102 118//102
f 80//103 107//103 135//103 110//103
f 80//104 108//104 136//104 107//104
f 80//105 109//105 137//105 108//105
f 80//106 110//106 138//106 109//106
f 81//107 90//107 124//107 114//107
f 81//108 113//108 126//108 90//108
f 81//109 108//109 137//109 113//109
f 81//110 114//110 136//110 108//110
f 82//111 101//111 126//111 113//111
f 82//112 112//112 132//112 101//112
f 82//113 109//113 138//113 112//113
f 82//114 113//114 137//114 109//114
f 83//115 89//115 131//115 111//115
f 83//116 114//116 124//116 89//116
f 83//117 107//117 136//117 114//117
f 83//118 111//118 135//118 107//118
f 84//119 117//119 140//119 115//119
f 84//120 118//120 142//120 117//120
f 84//121 116//121 141//121 118//121
f 84//122 115//122 139//122 116//122
f 85//123 88//123 125//123 122//123
f 85//124 121//124 123//124 88//124
f 85//125 115//125 140//125 121//125
f 85//126 122//126 139//126 115//126
f 86//127 91//127 132//127 119//127
f 86//128 122//128 125//128 91//128
f 86//129 116//129 139//129 122//129
f 86//130 119//130 141//130 116//130
f 87//131 100//131 123//131 121//131
f 87//132 120//132 131//132 100//132
f 87//133 117//133 142//133 120//133
f 87//134 121//134 140//134 117//134
f 103//63 148//63 154//63 134//63
f 127//64 149//64 144//64 95//64
f 102//65 147//65 152//65 130//65
f 134//63 154//63 146//63 97//63
f 95//66 144//66 151//66 129//66
f 133//67 153//67 147//67 102//67
f 94//67 143//67 153//67 133//67
f 97//68 146//68 149//68 127//68
f 130//69 152//69 145//69 96//69
f 128//70 150//70 148//70 103//70
f 129//71 151//71 143//71 94//71
f 96//72 145//72 150//72 128//72
