# Blender v2.79 (sub 0) OBJ File: 'Book1_Open.blend'
# www.blender.org
mtllib Book1_Open.mtl
o Book1_Open_Cube.106
v 0.098734 0.050643 -0.316143
v 0.098734 0.050643 0.332916
v 0.187316 0.059255 -0.316143
v 0.187316 0.059255 0.332916
v 0.329380 0.043754 -0.316143
v 0.329380 0.043754 0.332916
v 0.358218 0.048786 -0.315602
v 0.358218 0.048786 0.333456
v 0.258348 0.058500 0.332916
v 0.258348 0.058500 -0.316143
v -0.003218 0.015336 -0.316143
v -0.003218 0.015336 0.332916
v -0.105170 0.050643 -0.316143
v -0.105170 0.050643 0.332916
v -0.193751 0.059255 -0.316143
v -0.193751 0.059255 0.332916
v -0.277218 0.055213 -0.324289
v -0.336338 0.055213 0.322401
v -0.305381 0.063147 -0.326007
v -0.364501 0.063147 0.320682
v -0.311744 0.058500 0.324375
v -0.252624 0.058500 -0.322314
v -0.003218 0.007542 0.332916
v -0.003218 0.007542 -0.316143
v 0.098734 0.043803 0.332916
v 0.098734 0.043803 -0.316143
v 0.187316 0.052647 0.332916
v 0.187316 0.052647 -0.316143
v 0.329380 0.036727 0.332916
v 0.329380 0.036727 -0.316143
v 0.258348 0.051872 0.332916
v 0.258348 0.051872 -0.316143
v 0.358218 0.041895 0.333456
v 0.358218 0.041895 -0.315602
v -0.105170 0.043803 0.332916
v -0.105170 0.043803 -0.316143
v -0.193751 0.052647 0.332916
v -0.193751 0.052647 -0.316143
v -0.336338 0.048496 0.322401
v -0.277218 0.048496 -0.324289
v -0.311744 0.051872 0.324375
v -0.252624 0.051872 -0.322314
v -0.364501 0.056644 0.320682
v -0.305381 0.056644 -0.326007
v -0.421224 0.010649 0.275691
v -0.130947 -0.016191 0.276304
v -0.344016 0.003584 -0.007511
v -0.111763 -0.017894 0.062164
v -0.429053 0.014931 -0.266088
v -0.301722 -0.000310 0.014973
v -0.168580 -0.022124 -0.284922
v -0.146652 -0.022646 -0.061622
v -0.399596 0.027407 -0.250957
v -0.297092 0.015025 0.014816
v -0.138910 -0.009503 -0.284776
v -0.116983 -0.010025 -0.061467
v -0.421549 0.007131 0.275690
v -0.131272 -0.019710 0.276303
v -0.344342 0.000066 -0.007512
v -0.112089 -0.021412 0.062163
v -0.429391 0.011414 -0.266096
v -0.302060 -0.003827 0.014963
v -0.168918 -0.025641 -0.284930
v -0.146990 -0.026163 -0.061631
v -0.399920 0.023889 -0.250937
v -0.297416 0.011507 0.014838
v -0.139234 -0.013021 -0.284756
v -0.117307 -0.013543 -0.061445
v 0.436108 0.011771 -0.237131
v 0.219265 -0.017674 -0.237701
v 0.360198 0.004007 0.026915
v 0.201501 -0.019554 -0.037747
v 0.402274 0.029353 -0.195722
v 0.170011 -0.002022 -0.226148
v 0.375940 0.008782 0.035337
v 0.162949 -0.014554 -0.035891
v 0.399869 0.012191 0.270735
v 0.353946 -0.003310 -0.039585
v 0.195704 -0.018355 0.286883
v 0.190464 -0.018928 0.080267
v 0.436500 0.008513 -0.237131
v 0.219657 -0.020932 -0.237700
v 0.360589 0.000750 0.026915
v 0.201893 -0.022812 -0.037747
v 0.402697 0.026099 -0.195722
v 0.170434 -0.005276 -0.226148
v 0.376363 0.005528 0.035337
v 0.163373 -0.017808 -0.035891
v 0.400260 0.008933 0.270735
v 0.354337 -0.006568 -0.039585
v 0.196095 -0.021612 0.286883
v 0.190856 -0.022185 0.080267
v 0.430061 -0.063147 0.370063
v 0.430061 -0.063147 -0.370063
v 0.430061 -0.045004 -0.370063
v 0.430061 -0.045004 0.370063
v 0.430061 -0.045004 -0.322173
v 0.430061 -0.063147 -0.322173
v 0.430061 -0.063147 0.339122
v 0.430061 -0.045004 0.339122
v 0.394728 -0.063147 0.370063
v 0.394728 -0.045004 0.370063
v 0.394728 -0.063147 -0.322173
v 0.394728 -0.063147 0.339122
v 0.394728 -0.063147 -0.370063
v 0.394728 -0.045004 -0.370063
v 0.394728 -0.045004 -0.322173
v 0.394728 -0.045004 0.339122
v 0.362490 0.039158 -0.322173
v 0.362490 0.039158 0.339122
v 0.295241 -0.063147 -0.370063
v 0.195754 -0.063147 -0.370063
v 0.043583 -0.055763 -0.370063
v 0.295241 -0.045004 -0.370063
v 0.195754 -0.045004 -0.370063
v 0.043583 -0.037620 -0.370063
v 0.295241 -0.045004 -0.322173
v 0.195754 -0.045004 -0.322173
v 0.043583 -0.037620 -0.322173
v 0.295241 -0.045004 0.339122
v 0.195754 -0.045004 0.339122
v 0.043583 -0.037620 0.339122
v 0.043583 -0.055763 0.370063
v 0.195754 -0.063147 0.370063
v 0.295241 -0.063147 0.370063
v 0.043583 -0.037620 0.370063
v 0.195754 -0.045004 0.370063
v 0.295241 -0.045004 0.370063
v 0.043583 -0.055763 -0.322173
v 0.195754 -0.063147 -0.322173
v 0.295241 -0.063147 -0.322173
v 0.043583 -0.055763 0.339122
v 0.195754 -0.063147 0.339122
v 0.295241 -0.063147 0.339122
v 0.321822 0.035066 -0.322173
v 0.096268 0.025612 -0.322173
v 0.321822 0.035067 0.339122
v 0.096268 0.025612 0.339122
v 0.058937 -0.045004 0.370063
v 0.058937 -0.063147 0.370063
v 0.058937 -0.045004 0.339122
v 0.058937 -0.045004 -0.322173
v 0.058937 -0.045004 -0.370063
v 0.058937 -0.063147 -0.370063
v 0.394428 -0.027247 -0.322173
v 0.394428 -0.027247 0.339122
v 0.096268 -0.035220 0.339122
v 0.296723 -0.046103 0.339122
v 0.296723 -0.046103 -0.322173
v 0.096268 -0.035220 -0.322173
v 0.261446 0.040204 -0.322173
v 0.261446 0.040204 0.339122
v 0.246238 -0.035114 -0.322173
v 0.246238 -0.035114 0.339122
v 0.221977 0.045065 -0.322173
v 0.169536 0.044342 -0.322173
v 0.221977 0.045065 0.339122
v 0.169536 0.044342 0.339122
v 0.169536 -0.025308 0.339122
v 0.221977 -0.028697 0.339122
v 0.221977 -0.028697 -0.322173
v 0.169536 -0.025308 -0.322173
v 0.058937 -0.063147 -0.322173
v 0.058937 -0.063147 0.339122
v -0.436500 -0.063147 0.370063
v -0.436500 -0.063147 -0.370063
v -0.436500 -0.045004 -0.370063
v -0.436500 -0.045004 0.370063
v -0.436500 -0.045004 -0.322173
v -0.436500 -0.063147 -0.322173
v -0.436500 -0.063147 0.339122
v -0.436500 -0.045004 0.339122
v -0.003219 -0.055763 0.370063
v -0.003219 -0.055763 -0.370063
v -0.003219 -0.037620 0.370063
v -0.003219 -0.037620 -0.370063
v -0.003219 -0.055763 -0.322173
v -0.003219 -0.037620 -0.322173
v -0.003219 -0.037620 0.339122
v -0.003219 -0.055763 0.339122
v -0.401166 -0.063147 0.370063
v -0.401166 -0.045004 0.370063
v -0.401166 -0.063147 -0.322173
v -0.401166 -0.063147 0.339122
v -0.401166 -0.063147 -0.370063
v -0.401166 -0.045004 -0.370063
v -0.401166 -0.045004 -0.322173
v -0.401166 -0.045004 0.339122
v -0.368929 0.039158 -0.322173
v -0.003219 0.013864 -0.322173
v -0.368929 0.039158 0.339122
v -0.003219 0.013864 0.339122
v -0.301680 -0.063147 -0.370063
v -0.202193 -0.063147 -0.370063
v -0.050022 -0.055763 -0.370063
v -0.301680 -0.045004 -0.370063
v -0.202193 -0.045004 -0.370063
v -0.050022 -0.037620 -0.370063
v -0.301680 -0.045004 -0.322173
v -0.202193 -0.045004 -0.322173
v -0.050022 -0.037620 -0.322173
v -0.301680 -0.045004 0.339122
v -0.202193 -0.045004 0.339122
v -0.050022 -0.037620 0.339122
v -0.050022 -0.055763 0.370063
v -0.202193 -0.063147 0.370063
v -0.301680 -0.063147 0.370063
v -0.050022 -0.037620 0.370063
v -0.202193 -0.045004 0.370063
v -0.301680 -0.045004 0.370063
v -0.050022 -0.055763 -0.322173
v -0.202193 -0.063147 -0.322173
v -0.301680 -0.063147 -0.322173
v -0.050022 -0.055763 0.339122
v -0.202193 -0.063147 0.339122
v -0.301680 -0.063147 0.339122
v -0.328261 0.035066 -0.322173
v -0.102706 0.025612 -0.322173
v -0.328261 0.035067 0.339122
v -0.102706 0.025612 0.339122
v -0.065376 -0.045004 0.370063
v -0.065376 -0.063147 0.370063
v -0.065376 -0.045004 0.339122
v -0.065376 -0.045004 -0.322173
v -0.065376 -0.045004 -0.370063
v -0.065376 -0.063147 -0.370063
v -0.003219 -0.026268 -0.322173
v -0.400866 -0.027247 -0.322173
v -0.400866 -0.027247 0.339122
v -0.003219 -0.026268 0.339122
v -0.102706 -0.035220 0.339122
v -0.303161 -0.046103 0.339122
v -0.303161 -0.046103 -0.322173
v -0.102706 -0.035220 -0.322173
v -0.267885 0.040204 -0.322173
v -0.267885 0.040204 0.339122
v -0.252677 -0.035114 -0.322173
v -0.252677 -0.035114 0.339122
v -0.228416 0.045065 -0.322173
v -0.175975 0.044342 -0.322173
v -0.228416 0.045065 0.339122
v -0.175975 0.044342 0.339122
v -0.175975 -0.025308 0.339122
v -0.228416 -0.028697 0.339122
v -0.228416 -0.028697 -0.322173
v -0.175975 -0.025308 -0.322173
v -0.065376 -0.063147 -0.322173
v -0.065376 -0.063147 0.339122
vn 0.0000 1.0000 0.0000
vn 0.0000 -1.0000 0.0000
vn 0.0000 0.0000 -1.0000
vn 1.0000 0.0000 0.0000
vn 0.0000 0.0000 1.0000
vn -0.4334 -0.9012 0.0000
vn 0.4334 0.9012 -0.0000
vn -1.0000 0.0000 0.0000
vn 0.4334 -0.9012 0.0000
vn -0.4334 0.9012 -0.0000
vn -0.3272 0.9449 -0.0000
vn -0.0968 0.9953 -0.0000
vn 0.2033 0.9791 -0.0000
vn -0.1719 0.9851 -0.0000
vn 0.0106 0.9999 -0.0000
vn 0.3272 0.9449 -0.0000
vn 0.0968 0.9953 -0.0000
vn -0.1315 0.9912 -0.0120
vn 0.2697 0.9626 0.0247
vn -0.0085 1.0000 -0.0004
vn 0.3351 -0.9422 0.0000
vn 0.0993 -0.9951 0.0000
vn -0.2085 -0.9780 0.0000
vn 0.1764 -0.9843 0.0000
vn -0.0109 -0.9999 0.0000
vn -0.3351 -0.9422 0.0000
vn -0.0993 -0.9951 0.0000
vn 0.1350 -0.9908 0.0123
vn -0.2764 -0.9607 -0.0253
vn 0.0087 -1.0000 0.0004
vn 0.0800 0.0000 -0.9968
vn -0.9958 0.0000 -0.0910
vn -0.0187 -0.0000 0.9998
vn -0.0609 0.0000 0.9981
vn 0.0187 0.0000 -0.9998
vn 0.0609 0.0000 -0.9981
vn -0.0800 0.0000 0.9968
vn 0.1043 0.0000 -0.9946
vn -0.0722 0.0000 0.9974
vn 0.0920 0.9958 0.0003
vn 0.1392 0.9902 -0.0102
vn 0.1371 0.9905 -0.0087
vn -0.0920 -0.9958 -0.0003
vn -0.1392 -0.9902 0.0102
vn -0.1371 -0.9905 0.0087
vn -0.9604 0.0888 -0.2640
vn -0.0021 -0.0000 1.0000
vn 0.9918 -0.0917 0.0896
vn 0.2850 -0.0262 -0.9582
vn -0.0708 0.0092 -0.9974
vn -0.9057 0.0861 0.4150
vn 0.4373 -0.0444 0.8982
vn 0.9907 -0.0950 -0.0975
vn -0.1278 0.0060 -0.9918
vn -0.9280 0.0876 0.3620
vn 0.3863 -0.0299 0.9219
vn 0.9910 -0.0918 -0.0975
vn -0.1385 0.9903 -0.0074
vn -0.1367 0.9884 0.0668
vn -0.1311 0.9912 -0.0178
vn 0.1385 -0.9903 0.0074
vn 0.1367 -0.9884 -0.0668
vn 0.1311 -0.9912 0.0178
vn 0.9538 0.1148 0.2776
vn 0.0026 0.0001 -1.0000
vn -0.9889 -0.1190 -0.0890
vn -0.3713 -0.0445 0.9274
vn 0.9840 0.1280 0.1236
vn 0.1277 0.0167 -0.9917
vn -0.9906 -0.1289 -0.0453
vn -0.3129 -0.0407 0.9489
vn 0.0775 0.0093 0.9970
vn 0.9815 0.1179 -0.1511
vn -0.5854 -0.0704 -0.8077
vn -0.9925 -0.1193 0.0255
vn -0.1001 0.9950 -0.0000
vn 0.9012 0.4334 -0.0000
vn -0.2557 -0.9668 0.0000
vn -0.1173 0.9931 -0.0000
vn 0.0848 0.9964 -0.0000
vn -0.2477 0.9688 -0.0000
vn -0.2127 -0.9771 0.0000
vn 0.1895 -0.9819 0.0000
vn 0.0455 -0.9990 0.0000
vn 0.1341 -0.9910 0.0000
vn -0.0138 0.9999 -0.0000
vn -0.0645 -0.9979 0.0000
vn 0.1222 0.9925 -0.0000
vn 0.1001 0.9950 -0.0000
vn -0.9012 0.4334 -0.0000
vn 0.2557 -0.9668 0.0000
vn 0.1173 0.9931 -0.0000
vn -0.0848 0.9964 -0.0000
vn 0.2477 0.9688 -0.0000
vn 0.2127 -0.9771 0.0000
vn -0.1895 -0.9819 0.0000
vn -0.0455 -0.9990 0.0000
vn -0.1341 -0.9910 0.0000
vn 0.0138 0.9999 -0.0000
vn 0.0645 -0.9979 0.0000
vn -0.1222 0.9925 -0.0000
usemtl DarkRed
s off
f 107//1 97//1 95//1 106//1
f 103//2 105//2 94//2 98//2
f 105//3 106//3 95//3 94//3
f 99//4 100//4 96//4 93//4
f 94//4 95//4 97//4 98//4
f 104//2 103//2 98//2 99//2
f 108//1 100//1 97//1 107//1
f 102//1 96//1 100//1 108//1
f 101//2 104//2 99//2 93//2
f 98//4 97//4 100//4 99//4
f 123//5 126//5 175//5 173//5
f 93//5 96//5 102//5 101//5
f 125//2 134//2 104//2 101//2
f 128//1 102//1 108//1 120//1
f 134//2 131//2 103//2 104//2
f 111//3 114//3 106//3 105//3
f 131//2 111//2 105//2 103//2
f 117//1 107//1 106//1 114//1
f 178//1 119//1 116//1 176//1
f 142//1 118//1 115//1 143//1
f 118//1 117//1 114//1 115//1
f 177//2 174//2 113//2 129//2
f 163//2 144//2 112//2 130//2
f 130//2 112//2 111//2 131//2
f 174//3 176//3 116//3 113//3
f 144//3 143//3 115//3 112//3
f 112//3 115//3 114//3 111//3
f 180//2 177//2 129//2 132//2
f 164//2 163//2 130//2 133//2
f 133//2 130//2 131//2 134//2
f 175//1 126//1 122//1 179//1
f 139//1 127//1 121//1 141//1
f 127//1 128//1 120//1 121//1
f 173//2 180//2 132//2 123//2
f 140//2 164//2 133//2 124//2
f 124//2 133//2 134//2 125//2
f 101//5 102//5 128//5 125//5
f 125//5 128//5 127//5 124//5
f 140//5 139//5 126//5 123//5
f 123//6 132//6 164//6 140//6
f 124//5 127//5 139//5 140//5
f 107//1 117//1 118//1 142//1 141//1 121//1 120//1 108//1
f 141//7 142//7 119//7 122//7
f 126//7 139//7 141//7 122//7
f 132//6 129//6 163//6 164//6
f 113//3 116//3 143//3 144//3
f 129//6 113//6 144//6 163//6
f 119//7 142//7 143//7 116//7
f 187//1 186//1 167//1 169//1
f 183//2 170//2 166//2 185//2
f 185//3 166//3 167//3 186//3
f 171//8 165//8 168//8 172//8
f 166//8 170//8 169//8 167//8
f 184//2 171//2 170//2 183//2
f 188//1 187//1 169//1 172//1
f 182//1 188//1 172//1 168//1
f 181//2 165//2 171//2 184//2
f 170//8 171//8 172//8 169//8
f 205//5 173//5 175//5 208//5
f 165//5 181//5 182//5 168//5
f 207//2 181//2 184//2 216//2
f 210//1 202//1 188//1 182//1
f 216//2 184//2 183//2 213//2
f 193//3 185//3 186//3 196//3
f 213//2 183//2 185//2 193//2
f 199//1 196//1 186//1 187//1
f 178//1 176//1 198//1 201//1
f 224//1 225//1 197//1 200//1
f 200//1 197//1 196//1 199//1
f 177//2 211//2 195//2 174//2
f 247//2 212//2 194//2 226//2
f 212//2 213//2 193//2 194//2
f 174//3 195//3 198//3 176//3
f 226//3 194//3 197//3 225//3
f 194//3 193//3 196//3 197//3
f 180//2 214//2 211//2 177//2
f 248//2 215//2 212//2 247//2
f 215//2 216//2 213//2 212//2
f 175//1 179//1 204//1 208//1
f 221//1 223//1 203//1 209//1
f 209//1 203//1 202//1 210//1
f 173//2 205//2 214//2 180//2
f 222//2 206//2 215//2 248//2
f 206//2 207//2 216//2 215//2
f 181//5 207//5 210//5 182//5
f 207//5 206//5 209//5 210//5
f 222//5 205//5 208//5 221//5
f 205//9 222//9 248//9 214//9
f 206//5 222//5 221//5 209//5
f 187//1 188//1 202//1 203//1 223//1 224//1 200//1 199//1
f 223//10 204//10 201//10 224//10
f 208//10 204//10 223//10 221//10
f 214//9 248//9 247//9 211//9
f 195//3 226//3 225//3 198//3
f 211//9 247//9 226//9 195//9
f 201//10 198//10 225//10 224//10
usemtl Beige
f 12//11 2//11 1//11 11//11
f 2//12 4//12 3//12 1//12
f 9//13 6//13 5//13 10//13
f 6//14 8//14 7//14 5//14
f 4//15 9//15 10//15 3//15
f 12//16 11//16 13//16 14//16
f 14//17 13//17 15//17 16//17
f 21//18 22//18 17//18 18//18
f 18//19 17//19 19//19 20//19
f 16//20 15//20 22//20 21//20
f 23//21 24//21 26//21 25//21
f 25//22 26//22 28//22 27//22
f 31//23 32//23 30//23 29//23
f 29//24 30//24 34//24 33//24
f 27//25 28//25 32//25 31//25
f 23//26 35//26 36//26 24//26
f 35//27 37//27 38//27 36//27
f 41//28 39//28 40//28 42//28
f 39//29 43//29 44//29 40//29
f 37//30 41//30 42//30 38//30
f 10//3 5//3 30//3 32//3
f 17//31 22//31 42//31 40//31
f 2//5 12//5 23//5 25//5
f 12//5 14//5 35//5 23//5
f 7//4 8//4 33//4 34//4
f 20//32 19//32 44//32 43//32
f 11//3 1//3 26//3 24//3
f 13//3 11//3 24//3 36//3
f 8//33 6//33 29//33 33//33
f 18//34 20//34 43//34 39//34
f 5//35 7//35 34//35 30//35
f 19//36 17//36 40//36 44//36
f 4//5 2//5 25//5 27//5
f 14//5 16//5 37//5 35//5
f 6//5 9//5 31//5 29//5
f 21//37 18//37 39//37 41//37
f 1//3 3//3 28//3 26//3
f 15//3 13//3 36//3 38//3
f 3//3 10//3 32//3 28//3
f 22//38 15//38 38//38 42//38
f 9//5 4//5 27//5 31//5
f 16//39 21//39 41//39 37//39
f 45//40 46//40 48//40 47//40
f 49//41 50//41 52//41 51//41
f 53//42 54//42 56//42 55//42
f 57//43 59//43 60//43 58//43
f 61//44 63//44 64//44 62//44
f 65//45 67//45 68//45 66//45
f 45//46 47//46 59//46 57//46
f 46//47 45//47 57//47 58//47
f 48//48 46//48 58//48 60//48
f 47//49 48//49 60//49 59//49
f 49//50 51//50 63//50 61//50
f 50//51 49//51 61//51 62//51
f 52//52 50//52 62//52 64//52
f 51//53 52//53 64//53 63//53
f 53//54 55//54 67//54 65//54
f 54//55 53//55 65//55 66//55
f 56//56 54//56 66//56 68//56
f 55//57 56//57 68//57 67//57
f 69//58 70//58 72//58 71//58
f 73//59 74//59 76//59 75//59
f 77//60 78//60 80//60 79//60
f 81//61 83//61 84//61 82//61
f 85//62 87//62 88//62 86//62
f 89//63 91//63 92//63 90//63
f 69//64 71//64 83//64 81//64
f 70//65 69//65 81//65 82//65
f 72//66 70//66 82//66 84//66
f 71//67 72//67 84//67 83//67
f 73//68 75//68 87//68 85//68
f 74//69 73//69 85//69 86//69
f 76//70 74//70 86//70 88//70
f 75//71 76//71 88//71 87//71
f 77//72 79//72 91//72 89//72
f 78//73 77//73 89//73 90//73
f 80//74 78//74 90//74 92//74
f 79//75 80//75 92//75 91//75
f 150//3 227//3 190//3 136//3
f 137//76 110//76 109//76 135//76
f 148//5 146//5 110//5 137//5
f 146//77 145//77 109//77 110//77
f 230//5 147//5 138//5 192//5
f 160//78 161//78 153//78 154//78
f 154//5 148//5 137//5 152//5
f 192//79 138//79 136//79 190//79
f 160//5 154//5 152//5 157//5
f 152//80 137//80 135//80 151//80
f 145//3 149//3 135//3 109//3
f 138//81 158//81 156//81 136//81
f 153//3 161//3 155//3 151//3
f 179//5 122//5 147//5 230//5
f 154//82 153//82 149//82 148//82
f 148//83 149//83 145//83 146//83
f 119//3 178//3 227//3 150//3
f 147//84 122//84 119//84 150//84
f 147//85 150//85 162//85 159//85
f 149//3 153//3 151//3 135//3
f 162//3 150//3 136//3 156//3
f 147//5 159//5 158//5 138//5
f 160//5 157//5 158//5 159//5
f 157//86 155//86 156//86 158//86
f 162//3 156//3 155//3 161//3
f 161//87 160//87 159//87 162//87
f 157//88 152//88 151//88 155//88
f 234//3 218//3 190//3 227//3
f 219//89 217//89 189//89 191//89
f 232//5 219//5 191//5 229//5
f 229//90 191//90 189//90 228//90
f 230//5 192//5 220//5 231//5
f 244//91 238//91 237//91 245//91
f 238//5 236//5 219//5 232//5
f 192//92 190//92 218//92 220//92
f 244//5 241//5 236//5 238//5
f 236//93 235//93 217//93 219//93
f 228//3 189//3 217//3 233//3
f 220//94 218//94 240//94 242//94
f 237//3 235//3 239//3 245//3
f 179//5 230//5 231//5 204//5
f 238//95 232//95 233//95 237//95
f 232//96 229//96 228//96 233//96
f 201//3 234//3 227//3 178//3
f 231//97 234//97 201//97 204//97
f 231//98 243//98 246//98 234//98
f 233//3 217//3 235//3 237//3
f 246//3 240//3 218//3 234//3
f 231//5 220//5 242//5 243//5
f 244//5 243//5 242//5 241//5
f 241//99 242//99 240//99 239//99
f 246//3 245//3 239//3 240//3
f 245//100 246//100 243//100 244//100
f 241//101 239//101 235//101 236//101
