# Blender v2.79 (sub 0) OBJ File: 'Book3_Open.blend'
# www.blender.org
mtllib Book3_Open.mtl
o Book3_Open_Cube.118
v 0.432205 -0.093608 0.369940
v 0.432205 -0.093608 -0.370187
v 0.432205 -0.075464 -0.370187
v 0.432205 -0.075464 0.369940
v 0.432205 -0.075464 -0.322296
v 0.432205 -0.093608 -0.322296
v 0.432205 -0.093608 0.338998
v 0.432205 -0.075464 0.338998
v 0.396872 -0.093608 0.369940
v 0.396872 -0.075464 0.369940
v 0.396872 -0.093608 -0.322296
v 0.396872 -0.093608 0.338998
v 0.396872 -0.093608 -0.370187
v 0.396872 -0.075464 -0.370187
v 0.396872 -0.075464 -0.322296
v 0.396872 -0.075464 0.338998
v 0.364634 0.071898 -0.322296
v 0.364634 0.071898 0.338998
v 0.297385 -0.093608 -0.370187
v 0.197898 -0.093608 -0.370187
v 0.045727 -0.086224 -0.370187
v 0.297385 -0.075464 -0.370187
v 0.197898 -0.075464 -0.370187
v 0.045727 -0.068080 -0.370187
v 0.297385 -0.075464 -0.322296
v 0.197898 -0.075464 -0.322296
v 0.045727 -0.068080 -0.322296
v 0.297385 -0.075464 0.338998
v 0.197898 -0.075464 0.338998
v 0.045727 -0.068080 0.338998
v 0.045727 -0.086224 0.369940
v 0.197898 -0.093608 0.369940
v 0.297385 -0.093608 0.369940
v 0.045727 -0.068080 0.369940
v 0.197898 -0.075464 0.369940
v 0.297385 -0.075464 0.369940
v 0.045727 -0.086224 -0.322296
v 0.197898 -0.093608 -0.322296
v 0.297385 -0.093608 -0.322296
v 0.045727 -0.086224 0.338998
v 0.197898 -0.093608 0.338998
v 0.297385 -0.093608 0.338998
v 0.323966 0.067807 -0.322296
v 0.098412 0.058353 -0.322296
v 0.323966 0.067807 0.338998
v 0.098412 0.058353 0.338998
v 0.061081 -0.075464 0.369940
v 0.061081 -0.093608 0.369940
v 0.061081 -0.075464 0.338998
v 0.061081 -0.075464 -0.322296
v 0.061081 -0.075464 -0.370187
v 0.061081 -0.093608 -0.370187
v 0.396572 -0.057708 -0.322296
v 0.396572 -0.057708 0.338998
v 0.098412 -0.065680 0.338998
v 0.298867 -0.076564 0.338998
v 0.298867 -0.076564 -0.322296
v 0.098412 -0.065680 -0.322296
v 0.263591 0.072944 -0.322296
v 0.263591 0.072944 0.338998
v 0.248382 -0.065574 -0.322296
v 0.248382 -0.065574 0.338998
v 0.224121 0.077805 -0.322296
v 0.171680 0.077083 -0.322296
v 0.224121 0.077805 0.338998
v 0.171680 0.077083 0.338998
v 0.171680 -0.055769 0.338998
v 0.224121 -0.059158 0.338998
v 0.224121 -0.059158 -0.322296
v 0.171680 -0.055769 -0.322296
v 0.061081 -0.093608 -0.322296
v 0.061081 -0.093608 0.338998
v -0.434356 -0.093608 0.369940
v -0.434356 -0.093608 -0.370187
v -0.434356 -0.075464 -0.370187
v -0.434356 -0.075464 0.369940
v -0.434356 -0.075464 -0.322296
v -0.434356 -0.093608 -0.322296
v -0.434356 -0.093608 0.338998
v -0.434356 -0.075464 0.338998
v -0.001075 -0.086224 0.369940
v -0.001075 -0.086224 -0.370187
v -0.001075 -0.068080 0.369940
v -0.001075 -0.068080 -0.370187
v -0.001075 -0.086224 -0.322296
v -0.001075 -0.068080 -0.322296
v -0.001075 -0.068080 0.338998
v -0.001075 -0.086224 0.338998
v -0.399022 -0.093608 0.369940
v -0.399022 -0.075464 0.369940
v -0.399022 -0.093608 -0.322296
v -0.399022 -0.093608 0.338998
v -0.399022 -0.093608 -0.370187
v -0.399022 -0.075464 -0.370187
v -0.399022 -0.075464 -0.322296
v -0.399022 -0.075464 0.338998
v -0.366785 0.071898 -0.322296
v -0.001075 0.046605 -0.322296
v -0.366785 0.071898 0.338998
v -0.001075 0.046605 0.338998
v -0.299536 -0.093608 -0.370187
v -0.200049 -0.093608 -0.370187
v -0.047878 -0.086224 -0.370187
v -0.299536 -0.075464 -0.370187
v -0.200049 -0.075464 -0.370187
v -0.047878 -0.068080 -0.370187
v -0.299536 -0.075464 -0.322296
v -0.200049 -0.075464 -0.322296
v -0.047878 -0.068080 -0.322296
v -0.299536 -0.075464 0.338998
v -0.200049 -0.075464 0.338998
v -0.047878 -0.068080 0.338998
v -0.047878 -0.086224 0.369940
v -0.200049 -0.093608 0.369940
v -0.299536 -0.093608 0.369940
v -0.047878 -0.068080 0.369940
v -0.200049 -0.075464 0.369940
v -0.299536 -0.075464 0.369940
v -0.047878 -0.086224 -0.322296
v -0.200049 -0.093608 -0.322296
v -0.299536 -0.093608 -0.322296
v -0.047878 -0.086224 0.338998
v -0.200049 -0.093608 0.338998
v -0.299536 -0.093608 0.338998
v -0.326117 0.067807 -0.322296
v -0.100562 0.058353 -0.322296
v -0.326117 0.067807 0.338998
v -0.100562 0.058353 0.338998
v -0.063232 -0.075464 0.369940
v -0.063232 -0.093608 0.369940
v -0.063232 -0.075464 0.338998
v -0.063232 -0.075464 -0.322296
v -0.063232 -0.075464 -0.370187
v -0.063232 -0.093608 -0.370187
v -0.001075 -0.056728 -0.322296
v -0.398722 -0.057708 -0.322296
v -0.398722 -0.057708 0.338998
v -0.001075 -0.056728 0.338998
v -0.100562 -0.065680 0.338998
v -0.301017 -0.076564 0.338998
v -0.301017 -0.076564 -0.322296
v -0.100562 -0.065680 -0.322296
v -0.265741 0.072944 -0.322296
v -0.265741 0.072944 0.338998
v -0.250533 -0.065574 -0.322296
v -0.250533 -0.065574 0.338998
v -0.226272 0.077805 -0.322296
v -0.173831 0.077083 -0.322296
v -0.226272 0.077805 0.338998
v -0.173831 0.077083 0.338998
v -0.173831 -0.055769 0.338998
v -0.226272 -0.059158 0.338998
v -0.226272 -0.059158 -0.322296
v -0.173831 -0.055769 -0.322296
v -0.063232 -0.093608 -0.322296
v -0.063232 -0.093608 0.338998
v 0.100878 0.084757 -0.316266
v 0.100878 0.084757 0.332792
v 0.189460 0.093369 -0.316266
v 0.189460 0.093369 0.332792
v 0.331524 0.077868 -0.316266
v 0.331524 0.077868 0.332792
v 0.360362 0.082900 -0.315725
v 0.360362 0.082900 0.333333
v 0.260492 0.092615 0.332792
v 0.260492 0.092615 -0.316266
v -0.001074 0.049450 -0.316266
v -0.001074 0.049450 0.332792
v -0.103026 0.084757 -0.316266
v -0.103026 0.084757 0.332792
v -0.191607 0.093369 -0.316266
v -0.191607 0.093369 0.332792
v -0.275074 0.089328 -0.324412
v -0.334195 0.089328 0.322278
v -0.303237 0.097261 -0.326130
v -0.362357 0.097261 0.320559
v -0.309600 0.092615 0.324252
v -0.250480 0.092615 -0.322437
v -0.001074 0.041656 0.332792
v -0.001074 0.041656 -0.316266
v 0.100878 0.077917 0.332792
v 0.100878 0.077917 -0.316266
v 0.189460 0.086761 0.332792
v 0.189460 0.086761 -0.316266
v 0.331524 0.070842 0.332792
v 0.331524 0.070842 -0.316266
v 0.260492 0.085986 0.332792
v 0.260492 0.085986 -0.316266
v 0.360362 0.076009 0.333333
v 0.360362 0.076009 -0.315725
v -0.103026 0.077917 0.332792
v -0.103026 0.077917 -0.316266
v -0.191607 0.086761 0.332792
v -0.191607 0.086761 -0.316266
v -0.334195 0.082611 0.322278
v -0.275074 0.082611 -0.324412
v -0.309600 0.085986 0.324252
v -0.250480 0.085986 -0.322437
v -0.362357 0.090759 0.320559
v -0.303237 0.090759 -0.326130
v -0.432281 0.044124 0.105954
v -0.142003 0.017283 0.106609
v -0.355073 0.037059 -0.195732
v -0.122820 0.015580 -0.126056
v -0.089576 -0.051873 0.079535
v -0.308763 -0.030395 -0.024161
v -0.143413 -0.050170 0.287409
v -0.430313 -0.023330 0.262546
v -0.397452 -0.003054 -0.251080
v -0.294948 -0.015436 0.014703
v -0.136766 -0.039963 -0.284899
v -0.114839 -0.040486 -0.061580
v -0.432606 0.040606 0.105953
v -0.142328 0.013765 0.106608
v -0.355398 0.033540 -0.195733
v -0.123145 0.012062 -0.126057
v -0.089255 -0.048355 0.079585
v -0.308442 -0.026877 -0.024112
v -0.143092 -0.046652 0.287456
v -0.429992 -0.019811 0.262595
v -0.397776 -0.006572 -0.251060
v -0.295272 -0.018954 0.014724
v -0.137090 -0.043482 -0.284879
v -0.115163 -0.044004 -0.061559
v 0.394668 0.019125 -0.060135
v 0.372758 0.018111 -0.283545
v 0.213248 0.031507 0.016148
v 0.110128 0.036684 -0.249726
v 0.404418 -0.001108 -0.195835
v 0.172155 -0.032483 -0.226271
v 0.378084 -0.021678 0.035223
v 0.165093 -0.045014 -0.036005
v 0.078918 0.021222 0.264019
v 0.366994 0.014529 0.288790
v 0.200665 0.022682 -0.022688
v 0.420818 0.016599 0.081009
v 0.394745 0.022658 -0.060157
v 0.372835 0.021644 -0.283565
v 0.213325 0.035039 0.016126
v 0.110205 0.040216 -0.249746
v 0.404841 -0.004362 -0.195836
v 0.172578 -0.035737 -0.226271
v 0.378507 -0.024932 0.035223
v 0.165517 -0.048268 -0.036005
v 0.078844 0.017690 0.263970
v 0.366920 0.010997 0.288743
v 0.200590 0.019150 -0.022738
v 0.420743 0.013067 0.080959
v -0.438281 -0.097261 0.376031
v -0.304655 -0.097261 0.376031
v -0.438281 -0.097261 0.205360
v -0.438281 -0.082122 0.376031
v -0.304655 -0.082122 0.376031
v -0.438281 -0.082122 0.205360
v -0.437507 -0.097261 -0.373361
v -0.303881 -0.097261 -0.373361
v -0.437507 -0.097261 -0.202511
v -0.437507 -0.082122 -0.373361
v -0.303881 -0.082122 -0.373361
v -0.437507 -0.082122 -0.202511
v 0.438281 -0.097261 0.373361
v 0.304655 -0.097261 0.373361
v 0.438281 -0.097261 0.202511
v 0.438281 -0.082122 0.373361
v 0.304655 -0.082122 0.373361
v 0.438281 -0.082122 0.202511
v 0.437507 -0.097261 -0.376031
v 0.303881 -0.097261 -0.376031
v 0.437506 -0.097261 -0.192445
v 0.437507 -0.082122 -0.376031
v 0.303881 -0.082122 -0.376031
v 0.437506 -0.082122 -0.192445
v -0.216501 -0.051873 -0.280304
v -0.429017 -0.030395 -0.182354
v -0.064046 -0.050170 -0.122315
v -0.268026 -0.023330 0.084212
v -0.216272 -0.048355 -0.280521
v -0.428788 -0.026877 -0.182585
v -0.063817 -0.046652 -0.122546
v -0.267798 -0.019811 0.083981
v 0.264338 -0.014580 -0.202722
v 0.050840 -0.008030 -0.099566
v 0.416300 -0.002211 -0.039527
v 0.210941 0.010287 0.167000
v 0.264320 -0.011055 -0.202939
v 0.050822 -0.004505 -0.099797
v 0.416282 0.001315 -0.039758
v 0.210923 0.013812 0.166769
vn 0.0000 0.0000 -1.0000
vn -0.1001 0.9950 -0.0000
vn 0.0000 0.0000 1.0000
vn 0.9710 0.2393 -0.0000
vn -0.2557 -0.9668 0.0000
vn -0.1173 0.9931 -0.0000
vn 0.0848 0.9964 -0.0000
vn -0.2477 0.9688 -0.0000
vn -0.2127 -0.9771 0.0000
vn 0.1895 -0.9819 0.0000
vn 0.0455 -0.9990 0.0000
vn 0.1341 -0.9910 0.0000
vn -0.0138 0.9999 -0.0000
vn -0.0645 -0.9979 0.0000
vn 0.1222 0.9925 -0.0000
vn 0.1001 0.9950 -0.0000
vn -0.9710 0.2393 -0.0000
vn 0.2557 -0.9668 0.0000
vn 0.1173 0.9931 -0.0000
vn -0.0848 0.9964 -0.0000
vn 0.2477 0.9688 -0.0000
vn 0.2127 -0.9771 0.0000
vn -0.1895 -0.9819 0.0000
vn -0.0455 -0.9990 0.0000
vn -0.1341 -0.9910 0.0000
vn 0.0138 0.9999 -0.0000
vn 0.0645 -0.9979 0.0000
vn -0.1222 0.9925 -0.0000
vn -0.3272 0.9449 -0.0000
vn -0.0968 0.9953 -0.0000
vn 0.2033 0.9791 -0.0000
vn -0.1719 0.9851 -0.0000
vn 0.0106 0.9999 -0.0000
vn 0.3272 0.9449 -0.0000
vn 0.0968 0.9953 -0.0000
vn -0.1315 0.9912 -0.0120
vn 0.2697 0.9626 0.0247
vn -0.0085 1.0000 -0.0004
vn 0.3351 -0.9422 0.0000
vn 0.0993 -0.9951 0.0000
vn -0.2085 -0.9780 0.0000
vn 0.1764 -0.9843 0.0000
vn -0.0109 -0.9999 0.0000
vn -0.3351 -0.9422 0.0000
vn -0.0993 -0.9951 0.0000
vn 0.1350 -0.9908 0.0123
vn -0.2764 -0.9607 -0.0253
vn 0.0087 -1.0000 0.0004
vn 0.0800 -0.0000 -0.9968
vn 1.0000 0.0000 -0.0000
vn -0.9958 0.0000 -0.0910
vn -0.0187 -0.0000 0.9998
vn -0.0609 0.0000 0.9981
vn 0.0187 0.0000 -0.9998
vn 0.0609 -0.0000 -0.9981
vn -0.0800 0.0000 0.9968
vn 0.1043 0.0000 -0.9946
vn -0.0722 0.0000 0.9974
vn 0.0920 0.9958 0.0003
vn 0.9638 -0.0914 0.2504
vn 0.1371 0.9905 -0.0087
vn -0.0920 -0.9958 -0.0003
vn 0.0913 0.9957 0.0147
vn -0.1371 -0.9905 0.0087
vn -0.9644 0.0892 -0.2489
vn -0.0023 -0.0000 1.0000
vn 0.9924 -0.0917 0.0825
vn 0.2850 -0.0262 -0.9582
vn 0.4254 -0.0262 -0.9046
vn -0.0869 -0.0056 0.9962
vn -0.9162 0.0892 -0.3906
vn -0.0913 -0.9957 -0.0147
vn -0.1278 0.0060 -0.9918
vn -0.9281 0.0876 0.3620
vn 0.3863 -0.0299 0.9219
vn 0.9910 -0.0918 -0.0975
vn 0.3874 -0.0028 0.9219
vn -0.1367 0.9884 0.0668
vn -0.0859 -0.0117 0.9962
vn 0.0674 0.9977 -0.0087
vn 0.1367 -0.9884 -0.0668
vn 0.9678 -0.0238 0.2505
vn 0.9950 -0.0222 -0.0975
vn -0.9319 0.0224 0.3619
vn -0.1279 -0.0029 -0.9918
vn -0.0214 -0.9997 -0.0147
vn 0.9840 0.1280 0.1236
vn 0.1277 0.0167 -0.9917
vn -0.9906 -0.1289 -0.0453
vn -0.3129 -0.0407 0.9489
vn -0.9202 0.0248 -0.3906
vn 0.4262 0.0037 -0.9046
vn -0.0674 -0.9977 0.0087
vn 0.0214 0.9997 0.0147
vn 0.7171 -0.0906 -0.6910
vn 0.0652 0.9955 -0.0687
vn -0.4209 -0.0304 -0.9066
vn 0.7115 -0.0000 0.7027
vn -0.8536 0.0892 0.5132
vn -0.0652 -0.9955 0.0687
vn 0.7328 -0.0393 -0.6794
vn -0.0048 0.9977 -0.0678
vn -0.4357 -0.0594 -0.8981
vn 0.7097 0.0498 0.7027
vn -0.8578 0.0292 0.5132
vn 0.0048 -0.9977 0.0678
vn 0.0000 1.0000 0.0000
vn 0.0000 -1.0000 0.0000
vn -0.4334 -0.9012 0.0000
vn 0.4334 0.9012 -0.0000
vn -1.0000 0.0000 0.0000
vn 0.4334 -0.9012 0.0000
vn -0.4334 0.9012 -0.0000
vn 0.7874 0.0000 -0.6165
vn 0.7877 0.0000 0.6161
vn -0.7877 0.0000 -0.6161
vn -0.8085 0.0000 0.5885
usemtl Beige
s off
f 58//1 135//1 98//1 44//1
f 45//2 18//2 17//2 43//2
f 56//3 54//3 18//3 45//3
f 54//4 53//4 17//4 18//4
f 138//3 55//3 46//3 100//3
f 68//5 69//5 61//5 62//5
f 62//3 56//3 45//3 60//3
f 100//6 46//6 44//6 98//6
f 68//3 62//3 60//3 65//3
f 60//7 45//7 43//7 59//7
f 53//1 57//1 43//1 17//1
f 46//8 66//8 64//8 44//8
f 61//1 69//1 63//1 59//1
f 87//3 30//3 55//3 138//3
f 62//9 61//9 57//9 56//9
f 56//10 57//10 53//10 54//10
f 27//1 86//1 135//1 58//1
f 55//11 30//11 27//11 58//11
f 55//12 58//12 70//12 67//12
f 57//1 61//1 59//1 43//1
f 70//1 58//1 44//1 64//1
f 55//3 67//3 66//3 46//3
f 68//3 65//3 66//3 67//3
f 65//13 63//13 64//13 66//13
f 70//1 64//1 63//1 69//1
f 69//14 68//14 67//14 70//14
f 65//15 60//15 59//15 63//15
f 142//1 126//1 98//1 135//1
f 127//16 125//16 97//16 99//16
f 140//3 127//3 99//3 137//3
f 137//17 99//17 97//17 136//17
f 138//3 100//3 128//3 139//3
f 152//18 146//18 145//18 153//18
f 146//3 144//3 127//3 140//3
f 100//19 98//19 126//19 128//19
f 152//3 149//3 144//3 146//3
f 144//20 143//20 125//20 127//20
f 136//1 97//1 125//1 141//1
f 128//21 126//21 148//21 150//21
f 145//1 143//1 147//1 153//1
f 87//3 138//3 139//3 112//3
f 146//22 140//22 141//22 145//22
f 140//23 137//23 136//23 141//23
f 109//1 142//1 135//1 86//1
f 139//24 142//24 109//24 112//24
f 139//25 151//25 154//25 142//25
f 141//1 125//1 143//1 145//1
f 154//1 148//1 126//1 142//1
f 139//3 128//3 150//3 151//3
f 152//3 151//3 150//3 149//3
f 149//26 150//26 148//26 147//26
f 154//1 153//1 147//1 148//1
f 153//27 154//27 151//27 152//27
f 149//28 147//28 143//28 144//28
f 168//29 158//29 157//29 167//29
f 158//30 160//30 159//30 157//30
f 165//31 162//31 161//31 166//31
f 162//32 164//32 163//32 161//32
f 160//33 165//33 166//33 159//33
f 168//34 167//34 169//34 170//34
f 170//35 169//35 171//35 172//35
f 177//36 178//36 173//36 174//36
f 174//37 173//37 175//37 176//37
f 172//38 171//38 178//38 177//38
f 179//39 180//39 182//39 181//39
f 181//40 182//40 184//40 183//40
f 187//41 188//41 186//41 185//41
f 185//42 186//42 190//42 189//42
f 183//43 184//43 188//43 187//43
f 179//44 191//44 192//44 180//44
f 191//45 193//45 194//45 192//45
f 197//46 195//46 196//46 198//46
f 195//47 199//47 200//47 196//47
f 193//48 197//48 198//48 194//48
f 166//1 161//1 186//1 188//1
f 173//49 178//49 198//49 196//49
f 158//3 168//3 179//3 181//3
f 168//3 170//3 191//3 179//3
f 163//50 164//50 189//50 190//50
f 176//51 175//51 200//51 199//51
f 167//1 157//1 182//1 180//1
f 169//1 167//1 180//1 192//1
f 164//52 162//52 185//52 189//52
f 174//53 176//53 199//53 195//53
f 161//54 163//54 190//54 186//54
f 175//55 173//55 196//55 200//55
f 160//3 158//3 181//3 183//3
f 170//3 172//3 193//3 191//3
f 162//3 165//3 187//3 185//3
f 177//56 174//56 195//56 197//56
f 157//1 159//1 184//1 182//1
f 171//1 169//1 192//1 194//1
f 159//1 166//1 188//1 184//1
f 178//57 171//57 194//57 198//57
f 165//3 160//3 183//3 187//3
f 172//58 177//58 197//58 193//58
f 201//59 202//59 204//59 203//59
f 217//60 219//60 207//60 205//60
f 209//61 210//61 212//61 211//61
f 213//62 215//62 216//62 214//62
f 220//63 219//63 217//63 218//63
f 221//64 223//64 224//64 222//64
f 201//65 203//65 215//65 213//65
f 202//66 201//66 213//66 214//66
f 204//67 202//67 214//67 216//67
f 203//68 204//68 216//68 215//68
f 218//69 217//69 205//69 206//69
f 219//70 220//70 208//70 207//70
f 220//71 218//71 206//71 208//71
f 208//72 206//72 205//72 207//72
f 209//73 211//73 223//73 221//73
f 210//74 209//74 221//74 222//74
f 212//75 210//75 222//75 224//75
f 211//76 212//76 224//76 223//76
f 237//77 239//77 227//77 225//77
f 229//78 230//78 232//78 231//78
f 234//79 233//79 245//79 246//79
f 240//80 239//80 237//80 238//80
f 241//81 243//81 244//81 242//81
f 236//82 234//82 246//82 248//82
f 238//83 237//83 225//83 226//83
f 239//84 240//84 228//84 227//84
f 240//85 238//85 226//85 228//85
f 245//86 247//86 248//86 246//86
f 229//87 231//87 243//87 241//87
f 230//88 229//88 241//88 242//88
f 232//89 230//89 242//89 244//89
f 231//90 232//90 244//90 243//90
f 233//91 235//91 247//91 245//91
f 235//92 236//92 248//92 247//92
f 228//93 226//93 225//93 227//93
f 233//94 234//94 236//94 235//94
f 277//95 279//95 275//95 273//95
f 280//96 279//96 277//96 278//96
f 278//97 277//97 273//97 274//97
f 279//98 280//98 276//98 275//98
f 280//99 278//99 274//99 276//99
f 276//100 274//100 273//100 275//100
f 285//101 287//101 283//101 281//101
f 288//102 287//102 285//102 286//102
f 286//103 285//103 281//103 282//103
f 287//104 288//104 284//104 283//104
f 288//105 286//105 282//105 284//105
f 284//106 282//106 281//106 283//106
usemtl DarkBrown
f 15//107 5//107 3//107 14//107
f 11//108 13//108 2//108 6//108
f 13//1 14//1 3//1 2//1
f 7//50 8//50 4//50 1//50
f 2//50 3//50 5//50 6//50
f 12//108 11//108 6//108 7//108
f 16//107 8//107 5//107 15//107
f 10//107 4//107 8//107 16//107
f 9//108 12//108 7//108 1//108
f 6//50 5//50 8//50 7//50
f 31//3 34//3 83//3 81//3
f 1//3 4//3 10//3 9//3
f 33//108 42//108 12//108 9//108
f 36//107 10//107 16//107 28//107
f 42//108 39//108 11//108 12//108
f 19//1 22//1 14//1 13//1
f 39//108 19//108 13//108 11//108
f 25//107 15//107 14//107 22//107
f 86//107 27//107 24//107 84//107
f 50//107 26//107 23//107 51//107
f 26//107 25//107 22//107 23//107
f 85//108 82//108 21//108 37//108
f 71//108 52//108 20//108 38//108
f 38//108 20//108 19//108 39//108
f 82//1 84//1 24//1 21//1
f 52//1 51//1 23//1 20//1
f 20//1 23//1 22//1 19//1
f 88//108 85//108 37//108 40//108
f 72//108 71//108 38//108 41//108
f 41//108 38//108 39//108 42//108
f 83//107 34//107 30//107 87//107
f 47//107 35//107 29//107 49//107
f 35//107 36//107 28//107 29//107
f 81//108 88//108 40//108 31//108
f 48//108 72//108 41//108 32//108
f 32//108 41//108 42//108 33//108
f 9//3 10//3 36//3 33//3
f 33//3 36//3 35//3 32//3
f 48//3 47//3 34//3 31//3
f 31//109 40//109 72//109 48//109
f 32//3 35//3 47//3 48//3
f 15//107 25//107 26//107 50//107 49//107 29//107 28//107 16//107
f 49//110 50//110 27//110 30//110
f 34//110 47//110 49//110 30//110
f 40//109 37//109 71//109 72//109
f 21//1 24//1 51//1 52//1
f 37//109 21//109 52//109 71//109
f 27//110 50//110 51//110 24//110
f 95//107 94//107 75//107 77//107
f 91//108 78//108 74//108 93//108
f 93//1 74//1 75//1 94//1
f 79//111 73//111 76//111 80//111
f 74//111 78//111 77//111 75//111
f 92//108 79//108 78//108 91//108
f 96//107 95//107 77//107 80//107
f 90//107 96//107 80//107 76//107
f 89//108 73//108 79//108 92//108
f 78//111 79//111 80//111 77//111
f 113//3 81//3 83//3 116//3
f 73//3 89//3 90//3 76//3
f 115//108 89//108 92//108 124//108
f 118//107 110//107 96//107 90//107
f 124//108 92//108 91//108 121//108
f 101//1 93//1 94//1 104//1
f 121//108 91//108 93//108 101//108
f 107//107 104//107 94//107 95//107
f 86//107 84//107 106//107 109//107
f 132//107 133//107 105//107 108//107
f 108//107 105//107 104//107 107//107
f 85//108 119//108 103//108 82//108
f 155//108 120//108 102//108 134//108
f 120//108 121//108 101//108 102//108
f 82//1 103//1 106//1 84//1
f 134//1 102//1 105//1 133//1
f 102//1 101//1 104//1 105//1
f 88//108 122//108 119//108 85//108
f 156//108 123//108 120//108 155//108
f 123//108 124//108 121//108 120//108
f 83//107 87//107 112//107 116//107
f 129//107 131//107 111//107 117//107
f 117//107 111//107 110//107 118//107
f 81//108 113//108 122//108 88//108
f 130//108 114//108 123//108 156//108
f 114//108 115//108 124//108 123//108
f 89//3 115//3 118//3 90//3
f 115//3 114//3 117//3 118//3
f 130//3 113//3 116//3 129//3
f 113//112 130//112 156//112 122//112
f 114//3 130//3 129//3 117//3
f 95//107 96//107 110//107 111//107 131//107 132//107 108//107 107//107
f 131//113 112//113 109//113 132//113
f 116//113 112//113 131//113 129//113
f 122//112 156//112 155//112 119//112
f 103//1 134//1 133//1 106//1
f 119//112 155//112 134//112 103//112
f 109//113 106//113 133//113 132//113
usemtl Gold
f 250//108 249//108 251//108
f 253//107 254//107 252//107
f 251//114 254//114 253//114 250//114
f 249//111 252//111 254//111 251//111
f 250//3 253//3 252//3 249//3
f 256//108 257//108 255//108
f 259//107 258//107 260//107
f 257//115 256//115 259//115 260//115
f 255//111 257//111 260//111 258//111
f 256//1 255//1 258//1 259//1
f 262//108 263//108 261//108
f 265//107 264//107 266//107
f 263//116 262//116 265//116 266//116
f 261//50 263//50 266//50 264//50
f 262//3 261//3 264//3 265//3
f 268//108 267//108 269//108
f 271//107 272//107 270//107
f 269//117 272//117 271//117 268//117
f 267//50 270//50 272//50 269//50
f 268//1 271//1 270//1 267//1
