# Blender v2.79 (sub 0) OBJ File: 'Book4_Open.blend'
# www.blender.org
mtllib Book4_Open.mtl
o Book4_Open_Cube.119
v 0.452720 -0.084540 0.369940
v 0.452720 -0.084540 -0.370187
v 0.452720 -0.066396 -0.370187
v 0.452720 -0.066396 0.369940
v 0.452720 -0.066396 -0.322296
v 0.452720 -0.084540 -0.322296
v 0.452720 -0.084540 0.338998
v 0.452720 -0.066396 0.338998
v 0.417386 -0.084540 0.369940
v 0.417386 -0.066396 0.369940
v 0.417386 -0.084540 -0.322296
v 0.417386 -0.084540 0.338998
v 0.417386 -0.084540 -0.370187
v 0.417386 -0.066396 -0.370187
v 0.417386 -0.066396 -0.322296
v 0.417386 -0.066396 0.338998
v 0.385149 0.062830 -0.322296
v 0.385149 0.062830 0.338998
v 0.317900 -0.084540 -0.370187
v 0.218413 -0.084540 -0.370187
v 0.066242 -0.077156 -0.370187
v 0.317900 -0.066396 -0.370187
v 0.218413 -0.066396 -0.370187
v 0.066242 -0.059013 -0.370187
v 0.317900 -0.066396 -0.322296
v 0.218413 -0.066396 -0.322296
v 0.066242 -0.059013 -0.322296
v 0.317900 -0.066396 0.338998
v 0.218413 -0.066396 0.338998
v 0.066242 -0.059012 0.338998
v 0.066242 -0.077156 0.369940
v 0.218413 -0.084540 0.369940
v 0.317900 -0.084540 0.369940
v 0.066242 -0.059012 0.369940
v 0.218413 -0.066396 0.369940
v 0.317900 -0.066396 0.369940
v 0.066242 -0.077156 -0.322296
v 0.218413 -0.084540 -0.322296
v 0.317900 -0.084540 -0.322296
v 0.066242 -0.077156 0.338998
v 0.218413 -0.084540 0.338998
v 0.317900 -0.084540 0.338998
v 0.344481 0.058739 -0.322296
v 0.118926 0.049285 -0.322296
v 0.344481 0.058739 0.338998
v 0.118926 0.049285 0.338998
v 0.081595 -0.066396 0.369940
v 0.081595 -0.084540 0.369940
v 0.081595 -0.066396 0.338998
v 0.081595 -0.066396 -0.322296
v 0.081595 -0.066396 -0.370187
v 0.081595 -0.084540 -0.370187
v 0.417086 -0.048640 -0.322296
v 0.417086 -0.048640 0.338998
v 0.118926 -0.056612 0.338998
v 0.319381 -0.067496 0.338998
v 0.319381 -0.067496 -0.322296
v 0.118926 -0.056612 -0.322296
v 0.284105 0.063876 -0.322296
v 0.284105 0.063876 0.338998
v 0.268897 -0.056506 -0.322296
v 0.268897 -0.056506 0.338998
v 0.244636 0.068737 -0.322296
v 0.192195 0.068015 -0.322296
v 0.244636 0.068737 0.338998
v 0.192195 0.068015 0.338998
v 0.192195 -0.046701 0.338998
v 0.244636 -0.050090 0.338998
v 0.244636 -0.050090 -0.322296
v 0.192195 -0.046701 -0.322296
v 0.081595 -0.084540 -0.322296
v 0.081595 -0.084540 0.338998
v -0.413841 -0.084540 0.369940
v -0.413841 -0.084540 -0.370187
v -0.413841 -0.066396 -0.370187
v -0.413841 -0.066396 0.369940
v -0.413841 -0.066396 -0.322296
v -0.413841 -0.084540 -0.322296
v -0.413841 -0.084540 0.338998
v -0.413841 -0.066396 0.338998
v 0.019439 -0.077156 0.369940
v 0.019439 -0.077156 -0.370187
v 0.019439 -0.059012 0.369940
v 0.019439 -0.059012 -0.370187
v 0.019439 -0.077156 -0.322296
v 0.019439 -0.059012 -0.322296
v 0.019439 -0.059012 0.338998
v 0.019439 -0.077156 0.338998
v -0.378508 -0.084540 0.369940
v -0.378508 -0.066396 0.369940
v -0.378508 -0.084540 -0.322296
v -0.378508 -0.084540 0.338998
v -0.378508 -0.084540 -0.370187
v -0.378508 -0.066396 -0.370187
v -0.378508 -0.066396 -0.322296
v -0.378508 -0.066396 0.338998
v -0.346270 0.062830 -0.322296
v 0.019439 0.037537 -0.322296
v -0.346270 0.062830 0.338998
v 0.019439 0.037537 0.338998
v -0.279021 -0.084540 -0.370187
v -0.179534 -0.084540 -0.370187
v -0.027363 -0.077156 -0.370187
v -0.279021 -0.066396 -0.370187
v -0.179534 -0.066396 -0.370187
v -0.027363 -0.059013 -0.370187
v -0.279021 -0.066396 -0.322296
v -0.179534 -0.066396 -0.322296
v -0.027363 -0.059013 -0.322296
v -0.279021 -0.066396 0.338998
v -0.179534 -0.066396 0.338998
v -0.027363 -0.059012 0.338998
v -0.027363 -0.077156 0.369940
v -0.179534 -0.084540 0.369940
v -0.279021 -0.084540 0.369940
v -0.027363 -0.059012 0.369940
v -0.179534 -0.066396 0.369940
v -0.279021 -0.066396 0.369940
v -0.027363 -0.077156 -0.322296
v -0.179534 -0.084540 -0.322296
v -0.279021 -0.084540 -0.322296
v -0.027363 -0.077156 0.338998
v -0.179534 -0.084540 0.338998
v -0.279021 -0.084540 0.338998
v -0.305602 0.058739 -0.322296
v -0.080048 0.049285 -0.322296
v -0.305602 0.058739 0.338998
v -0.080048 0.049285 0.338998
v -0.042717 -0.066396 0.369940
v -0.042717 -0.084540 0.369940
v -0.042717 -0.066396 0.338998
v -0.042717 -0.066396 -0.322296
v -0.042717 -0.066396 -0.370187
v -0.042717 -0.084540 -0.370187
v 0.019439 -0.047660 -0.322296
v -0.378208 -0.048640 -0.322296
v -0.378208 -0.048640 0.338998
v 0.019439 -0.047660 0.338998
v -0.080048 -0.056612 0.338998
v -0.280503 -0.067496 0.338998
v -0.280503 -0.067496 -0.322296
v -0.080048 -0.056612 -0.322296
v -0.245226 0.063876 -0.322296
v -0.245226 0.063876 0.338998
v -0.230018 -0.056506 -0.322296
v -0.230018 -0.056506 0.338998
v -0.205757 0.068737 -0.322296
v -0.153316 0.068015 -0.322296
v -0.205757 0.068737 0.338998
v -0.153316 0.068015 0.338998
v -0.153316 -0.046701 0.338998
v -0.205757 -0.050090 0.338998
v -0.205757 -0.050090 -0.322296
v -0.153316 -0.046701 -0.322296
v -0.042717 -0.084540 -0.322296
v -0.042717 -0.084540 0.338998
v -0.458642 -0.006462 0.307244
v -0.133981 -0.021703 0.319492
v -0.365170 -0.043517 0.083910
v -0.136727 -0.044039 0.168000
v -0.376938 0.006014 -0.251080
v -0.274433 -0.006368 0.014703
v -0.116252 -0.030895 -0.284899
v -0.094325 -0.031418 -0.061580
v -0.458795 -0.009979 0.307527
v -0.134134 -0.025220 0.319774
v -0.365323 -0.047034 0.084212
v -0.136880 -0.047556 0.168302
v -0.377262 0.002496 -0.251060
v -0.274757 -0.009886 0.014724
v -0.116576 -0.034414 -0.284879
v -0.094649 -0.034936 -0.061559
v 0.443634 0.029271 -0.277349
v 0.226792 -0.000174 -0.277918
v 0.367724 0.021508 -0.015984
v 0.209028 -0.002054 -0.080646
v 0.422527 -0.009202 0.270612
v 0.376604 -0.024703 -0.039698
v 0.218363 -0.039747 0.286760
v 0.213123 -0.040320 0.080154
v 0.444026 0.026014 -0.277348
v 0.227184 -0.003431 -0.277917
v 0.368116 0.018250 -0.015983
v 0.209420 -0.005311 -0.080645
v 0.422919 -0.012459 0.270612
v 0.376996 -0.027960 -0.039698
v 0.218754 -0.043005 0.286760
v 0.213515 -0.043578 0.080154
v -0.417766 -0.088193 0.376031
v -0.284140 -0.088193 0.376031
v -0.417766 -0.088193 0.205360
v -0.417766 -0.073054 0.376031
v -0.284140 -0.073054 0.376031
v -0.417766 -0.073054 0.205360
v -0.416992 -0.088193 -0.373361
v -0.283366 -0.088193 -0.373361
v -0.416992 -0.088193 -0.202511
v -0.416992 -0.073054 -0.373361
v -0.283366 -0.073054 -0.373361
v -0.416992 -0.073054 -0.202511
v 0.458795 -0.088193 0.373361
v 0.325169 -0.088193 0.373361
v 0.458795 -0.088193 0.202511
v 0.458795 -0.073054 0.373361
v 0.325169 -0.073054 0.373361
v 0.458795 -0.073054 0.202511
v 0.458021 -0.088193 -0.376031
v 0.324395 -0.088193 -0.376031
v 0.458021 -0.088193 -0.192445
v 0.458021 -0.073054 -0.376031
v 0.324395 -0.073054 -0.376031
v 0.458021 -0.073054 -0.192445
v -0.082359 0.075689 -0.316266
v -0.082359 0.075689 0.332792
v -0.170940 0.084301 -0.316266
v -0.170940 0.084301 0.332792
v -0.336676 0.068800 -0.335908
v -0.313005 0.068800 0.332792
v -0.365151 0.073832 -0.340215
v -0.341843 0.073832 0.333333
v -0.241973 0.083547 0.332792
v -0.266791 0.083547 -0.323991
v 0.019593 0.040382 -0.316266
v 0.019593 0.040382 0.332792
v 0.121545 0.075689 -0.316266
v 0.121545 0.075689 0.332792
v 0.210126 0.084301 -0.316266
v 0.210126 0.084301 0.332792
v 0.293593 0.080260 -0.324412
v 0.360834 0.080260 0.343316
v 0.321756 0.088193 -0.326130
v 0.388480 0.088193 0.348635
v 0.336558 0.083547 0.339128
v 0.268999 0.083547 -0.322437
v 0.019593 0.032588 0.332792
v 0.019593 0.032588 -0.316266
v -0.082359 0.068849 0.332792
v -0.082359 0.068849 -0.316266
v -0.170941 0.077693 0.332792
v -0.170941 0.077693 -0.316266
v -0.313005 0.061774 0.332792
v -0.336676 0.061774 -0.335908
v -0.241973 0.076918 0.332792
v -0.266791 0.076918 -0.323991
v -0.341843 0.066941 0.333333
v -0.365151 0.066941 -0.340215
v 0.121545 0.068849 0.332792
v 0.121545 0.068849 -0.316266
v 0.210126 0.077693 0.332792
v 0.210126 0.077693 -0.316266
v 0.360834 0.073543 0.343316
v 0.293593 0.073543 -0.324412
v 0.336558 0.076918 0.339128
v 0.268999 0.076918 -0.322437
v 0.388480 0.081691 0.348635
v 0.321756 0.081691 -0.326130
vn -0.0000 -1.0000 0.0000
vn 0.0000 1.0000 -0.0000
vn 0.7874 -0.0000 -0.6165
vn -1.0000 0.0000 -0.0000
vn -0.0000 0.0000 1.0000
vn 0.7877 0.0000 0.6161
vn -0.0000 0.0000 -1.0000
vn -0.7877 0.0000 -0.6161
vn 1.0000 0.0000 0.0000
vn -0.8085 0.0000 0.5885
vn -0.1001 0.9950 -0.0000
vn 0.9613 0.2754 -0.0000
vn -0.2557 -0.9668 0.0000
vn -0.1173 0.9931 -0.0000
vn 0.0848 0.9964 -0.0000
vn -0.2477 0.9688 -0.0000
vn -0.2127 -0.9771 0.0000
vn 0.1895 -0.9819 0.0000
vn 0.0455 -0.9990 0.0000
vn 0.1341 -0.9910 0.0000
vn -0.0138 0.9999 -0.0000
vn -0.0645 -0.9979 0.0000
vn 0.1222 0.9925 -0.0000
vn 0.1001 0.9950 -0.0000
vn -0.9613 0.2754 -0.0000
vn 0.2557 -0.9668 0.0000
vn 0.1173 0.9931 -0.0000
vn -0.0848 0.9964 -0.0000
vn 0.2477 0.9688 -0.0000
vn 0.2127 -0.9771 0.0000
vn -0.1895 -0.9819 0.0000
vn -0.0455 -0.9990 0.0000
vn -0.1341 -0.9910 0.0000
vn 0.0138 0.9999 -0.0000
vn 0.0645 -0.9979 0.0000
vn -0.1222 0.9925 -0.0000
vn 0.0532 0.9882 -0.1437
vn 0.1371 0.9905 -0.0087
vn -0.0532 -0.9882 0.1437
vn -0.1371 -0.9905 0.0087
vn -0.9220 0.0080 -0.3872
vn -0.0337 0.0815 0.9961
vn 0.9989 -0.0445 -0.0115
vn 0.3437 -0.0951 -0.9343
vn -0.1278 0.0060 -0.9918
vn -0.9281 0.0876 0.3620
vn 0.3863 -0.0299 0.9219
vn 0.9910 -0.0918 -0.0975
vn -0.1385 0.9903 -0.0075
vn -0.1311 0.9912 -0.0178
vn 0.1385 -0.9903 0.0075
vn 0.1311 -0.9912 0.0178
vn 0.9531 0.1147 0.2802
vn 0.0026 0.0001 -1.0000
vn -0.9888 -0.1190 -0.0902
vn -0.3713 -0.0445 0.9274
vn 0.0775 0.0093 0.9970
vn 0.9815 0.1179 -0.1511
vn -0.5854 -0.0704 -0.8077
vn -0.9925 -0.1193 0.0255
vn 0.3272 0.9449 -0.0000
vn 0.0968 0.9953 -0.0000
vn -0.2055 0.9786 0.0075
vn 0.1733 0.9848 -0.0061
vn -0.0090 1.0000 0.0002
vn -0.3272 0.9449 -0.0000
vn -0.0968 0.9953 -0.0000
vn 0.1339 0.9909 -0.0136
vn -0.2750 0.9610 0.0274
vn 0.0081 1.0000 -0.0004
vn -0.3351 -0.9422 0.0000
vn -0.0993 -0.9951 0.0000
vn 0.2108 -0.9775 -0.0077
vn -0.1779 -0.9840 0.0062
vn 0.0093 -1.0000 -0.0002
vn 0.3351 -0.9422 0.0000
vn 0.0993 -0.9951 0.0000
vn -0.1375 -0.9904 0.0139
vn 0.2819 -0.9590 -0.0281
vn -0.0084 -1.0000 0.0004
vn 0.1681 0.0000 -0.9858
vn -0.0800 0.0000 -0.9968
vn -0.9994 0.0000 0.0346
vn 0.9951 0.0000 -0.0984
vn 0.0187 -0.0000 0.9998
vn -0.1889 -0.0000 0.9820
vn 0.1495 0.0000 -0.9888
vn -0.0609 0.0000 -0.9981
vn -0.1700 -0.0000 0.9854
vn 0.0803 -0.0000 -0.9968
vn -0.1043 0.0000 -0.9946
vn -0.0500 -0.0000 0.9987
vn -0.4334 -0.9012 0.0000
vn 0.4334 0.9012 -0.0000
vn 0.4334 -0.9012 0.0000
vn -0.4334 0.9012 -0.0000
usemtl DarkRed
s off
f 190//1 189//1 191//1
f 193//2 194//2 192//2
f 191//3 194//3 193//3 190//3
f 189//4 192//4 194//4 191//4
f 190//5 193//5 192//5 189//5
f 196//1 197//1 195//1
f 199//2 198//2 200//2
f 197//6 196//6 199//6 200//6
f 195//4 197//4 200//4 198//4
f 196//7 195//7 198//7 199//7
f 202//1 203//1 201//1
f 205//2 204//2 206//2
f 203//8 202//8 205//8 206//8
f 201//9 203//9 206//9 204//9
f 202//5 201//5 204//5 205//5
f 208//1 207//1 209//1
f 211//2 212//2 210//2
f 209//10 212//10 211//10 208//10
f 207//9 210//9 212//9 209//9
f 208//7 211//7 210//7 207//7
usemtl Beige
f 58//7 135//7 98//7 44//7
f 45//11 18//11 17//11 43//11
f 56//5 54//5 18//5 45//5
f 54//12 53//12 17//12 18//12
f 138//5 55//5 46//5 100//5
f 68//13 69//13 61//13 62//13
f 62//5 56//5 45//5 60//5
f 100//14 46//14 44//14 98//14
f 68//5 62//5 60//5 65//5
f 60//15 45//15 43//15 59//15
f 53//7 57//7 43//7 17//7
f 46//16 66//16 64//16 44//16
f 61//7 69//7 63//7 59//7
f 87//5 30//5 55//5 138//5
f 62//17 61//17 57//17 56//17
f 56//18 57//18 53//18 54//18
f 27//7 86//7 135//7 58//7
f 55//19 30//19 27//19 58//19
f 55//20 58//20 70//20 67//20
f 57//7 61//7 59//7 43//7
f 70//7 58//7 44//7 64//7
f 55//5 67//5 66//5 46//5
f 68//5 65//5 66//5 67//5
f 65//21 63//21 64//21 66//21
f 70//7 64//7 63//7 69//7
f 69//22 68//22 67//22 70//22
f 65//23 60//23 59//23 63//23
f 142//7 126//7 98//7 135//7
f 127//24 125//24 97//24 99//24
f 140//5 127//5 99//5 137//5
f 137//25 99//25 97//25 136//25
f 138//5 100//5 128//5 139//5
f 152//26 146//26 145//26 153//26
f 146//5 144//5 127//5 140//5
f 100//27 98//27 126//27 128//27
f 152//5 149//5 144//5 146//5
f 144//28 143//28 125//28 127//28
f 136//7 97//7 125//7 141//7
f 128//29 126//29 148//29 150//29
f 145//7 143//7 147//7 153//7
f 87//5 138//5 139//5 112//5
f 146//30 140//30 141//30 145//30
f 140//31 137//31 136//31 141//31
f 109//7 142//7 135//7 86//7
f 139//32 142//32 109//32 112//32
f 139//33 151//33 154//33 142//33
f 141//7 125//7 143//7 145//7
f 154//7 148//7 126//7 142//7
f 139//5 128//5 150//5 151//5
f 152//5 151//5 150//5 149//5
f 149//34 150//34 148//34 147//34
f 154//7 153//7 147//7 148//7
f 153//35 154//35 151//35 152//35
f 149//36 147//36 143//36 144//36
f 157//37 158//37 160//37 159//37
f 161//38 162//38 164//38 163//38
f 165//39 167//39 168//39 166//39
f 169//40 171//40 172//40 170//40
f 157//41 159//41 167//41 165//41
f 158//42 157//42 165//42 166//42
f 160//43 158//43 166//43 168//43
f 159//44 160//44 168//44 167//44
f 161//45 163//45 171//45 169//45
f 162//46 161//46 169//46 170//46
f 164//47 162//47 170//47 172//47
f 163//48 164//48 172//48 171//48
f 173//49 174//49 176//49 175//49
f 177//50 178//50 180//50 179//50
f 181//51 183//51 184//51 182//51
f 185//52 187//52 188//52 186//52
f 173//53 175//53 183//53 181//53
f 174//54 173//54 181//54 182//54
f 176//55 174//55 182//55 184//55
f 175//56 176//56 184//56 183//56
f 177//57 179//57 187//57 185//57
f 178//58 177//58 185//58 186//58
f 180//59 178//59 186//59 188//59
f 179//60 180//60 188//60 187//60
f 224//61 223//61 213//61 214//61
f 214//62 213//62 215//62 216//62
f 221//63 222//63 217//63 218//63
f 218//64 217//64 219//64 220//64
f 216//65 215//65 222//65 221//65
f 224//66 226//66 225//66 223//66
f 226//67 228//67 227//67 225//67
f 233//68 230//68 229//68 234//68
f 230//69 232//69 231//69 229//69
f 228//70 233//70 234//70 227//70
f 235//71 237//71 238//71 236//71
f 237//72 239//72 240//72 238//72
f 243//73 241//73 242//73 244//73
f 241//74 245//74 246//74 242//74
f 239//75 243//75 244//75 240//75
f 235//76 236//76 248//76 247//76
f 247//77 248//77 250//77 249//77
f 253//78 254//78 252//78 251//78
f 251//79 252//79 256//79 255//79
f 249//80 250//80 254//80 253//80
f 222//81 244//81 242//81 217//81
f 229//82 252//82 254//82 234//82
f 214//5 237//5 235//5 224//5
f 224//5 235//5 247//5 226//5
f 219//83 246//83 245//83 220//83
f 232//84 255//84 256//84 231//84
f 223//7 236//7 238//7 213//7
f 225//7 248//7 236//7 223//7
f 220//85 245//85 241//85 218//85
f 230//86 251//86 255//86 232//86
f 217//87 242//87 246//87 219//87
f 231//88 256//88 252//88 229//88
f 216//5 239//5 237//5 214//5
f 226//5 247//5 249//5 228//5
f 218//5 241//5 243//5 221//5
f 233//89 253//89 251//89 230//89
f 213//7 238//7 240//7 215//7
f 227//7 250//7 248//7 225//7
f 215//90 240//90 244//90 222//90
f 234//91 254//91 250//91 227//91
f 221//5 243//5 239//5 216//5
f 228//92 249//92 253//92 233//92
usemtl Teal
f 15//2 5//2 3//2 14//2
f 11//1 13//1 2//1 6//1
f 13//7 14//7 3//7 2//7
f 7//9 8//9 4//9 1//9
f 2//9 3//9 5//9 6//9
f 12//1 11//1 6//1 7//1
f 16//2 8//2 5//2 15//2
f 10//2 4//2 8//2 16//2
f 9//1 12//1 7//1 1//1
f 6//9 5//9 8//9 7//9
f 31//5 34//5 83//5 81//5
f 1//5 4//5 10//5 9//5
f 33//1 42//1 12//1 9//1
f 36//2 10//2 16//2 28//2
f 42//1 39//1 11//1 12//1
f 19//7 22//7 14//7 13//7
f 39//1 19//1 13//1 11//1
f 25//2 15//2 14//2 22//2
f 86//2 27//2 24//2 84//2
f 50//2 26//2 23//2 51//2
f 26//2 25//2 22//2 23//2
f 85//1 82//1 21//1 37//1
f 71//1 52//1 20//1 38//1
f 38//1 20//1 19//1 39//1
f 82//7 84//7 24//7 21//7
f 52//7 51//7 23//7 20//7
f 20//7 23//7 22//7 19//7
f 88//1 85//1 37//1 40//1
f 72//1 71//1 38//1 41//1
f 41//1 38//1 39//1 42//1
f 83//2 34//2 30//2 87//2
f 47//2 35//2 29//2 49//2
f 35//2 36//2 28//2 29//2
f 81//1 88//1 40//1 31//1
f 48//1 72//1 41//1 32//1
f 32//1 41//1 42//1 33//1
f 9//5 10//5 36//5 33//5
f 33//5 36//5 35//5 32//5
f 48//5 47//5 34//5 31//5
f 31//93 40//93 72//93 48//93
f 32//5 35//5 47//5 48//5
f 15//2 25//2 26//2 50//2 49//2 29//2 28//2 16//2
f 49//94 50//94 27//94 30//94
f 34//94 47//94 49//94 30//94
f 40//93 37//93 71//93 72//93
f 21//7 24//7 51//7 52//7
f 37//93 21//93 52//93 71//93
f 27//94 50//94 51//94 24//94
f 95//2 94//2 75//2 77//2
f 91//1 78//1 74//1 93//1
f 93//7 74//7 75//7 94//7
f 79//4 73//4 76//4 80//4
f 74//4 78//4 77//4 75//4
f 92//1 79//1 78//1 91//1
f 96//2 95//2 77//2 80//2
f 90//2 96//2 80//2 76//2
f 89//1 73//1 79//1 92//1
f 78//4 79//4 80//4 77//4
f 113//5 81//5 83//5 116//5
f 73//5 89//5 90//5 76//5
f 115//1 89//1 92//1 124//1
f 118//2 110//2 96//2 90//2
f 124//1 92//1 91//1 121//1
f 101//7 93//7 94//7 104//7
f 121//1 91//1 93//1 101//1
f 107//2 104//2 94//2 95//2
f 86//2 84//2 106//2 109//2
f 132//2 133//2 105//2 108//2
f 108//2 105//2 104//2 107//2
f 85//1 119//1 103//1 82//1
f 155//1 120//1 102//1 134//1
f 120//1 121//1 101//1 102//1
f 82//7 103//7 106//7 84//7
f 134//7 102//7 105//7 133//7
f 102//7 101//7 104//7 105//7
f 88//1 122//1 119//1 85//1
f 156//1 123//1 120//1 155//1
f 123//1 124//1 121//1 120//1
f 83//2 87//2 112//2 116//2
f 129//2 131//2 111//2 117//2
f 117//2 111//2 110//2 118//2
f 81//1 113//1 122//1 88//1
f 130//1 114//1 123//1 156//1
f 114//1 115//1 124//1 123//1
f 89//5 115//5 118//5 90//5
f 115//5 114//5 117//5 118//5
f 130//5 113//5 116//5 129//5
f 113//95 130//95 156//95 122//95
f 114//5 130//5 129//5 117//5
f 95//2 96//2 110//2 111//2 131//2 132//2 108//2 107//2
f 131//96 112//96 109//96 132//96
f 116//96 112//96 131//96 129//96
f 122//95 156//95 155//95 119//95
f 103//7 134//7 133//7 106//7
f 119//95 155//95 134//95 103//95
f 109//96 106//96 133//96 132//96
