# Blender v2.79 (sub 0) OBJ File: 'Book2_Open.blend'
# www.blender.org
mtllib Book2_Open.mtl
o Book2_Open_Cube.117
v 0.124325 0.067102 -0.293634
v 0.124325 0.067102 0.312758
v 0.199377 0.077946 -0.293634
v 0.199377 0.077946 0.312758
v 0.350589 0.058427 -0.293634
v 0.350589 0.058427 0.312758
v 0.381283 0.064763 -0.293018
v 0.381283 0.064763 0.313374
v 0.274983 0.076996 0.312758
v 0.274983 0.076996 -0.293634
v -0.004052 0.022644 -0.293634
v -0.004052 0.022644 0.312758
v -0.132428 0.067102 -0.293634
v -0.132428 0.067102 0.312758
v -0.243969 0.077946 -0.293634
v -0.243969 0.077946 0.312758
v -0.295068 0.072857 -0.302921
v -0.357995 0.072857 0.300769
v -0.325044 0.082847 -0.304881
v -0.387971 0.082847 0.298809
v -0.331817 0.076996 0.303020
v -0.268890 0.076996 -0.300670
v -0.004052 0.012830 0.312758
v -0.004052 0.012829 -0.293634
v 0.124325 0.058489 0.312758
v 0.124325 0.058489 -0.293634
v 0.199377 0.069625 0.312758
v 0.199377 0.069625 -0.293634
v 0.350589 0.049579 0.312758
v 0.350589 0.049579 -0.293634
v 0.274983 0.068650 0.312758
v 0.274983 0.068650 -0.293634
v 0.381283 0.056086 0.313374
v 0.381283 0.056086 -0.293018
v -0.132428 0.058489 0.312758
v -0.132428 0.058489 -0.293634
v -0.243969 0.069625 0.312758
v -0.243969 0.069625 -0.293634
v -0.357995 0.064399 0.300769
v -0.295068 0.064399 -0.302921
v -0.331817 0.068650 0.303020
v -0.268890 0.068650 -0.300670
v -0.387972 0.074659 0.298809
v -0.325044 0.074659 -0.304881
v -0.448347 0.016743 0.307300
v -0.164886 -0.017055 0.308000
v -0.366167 0.007846 -0.015041
v -0.140731 -0.019199 0.059405
v -0.456680 0.022134 -0.310419
v -0.321150 0.002943 0.008983
v -0.212273 -0.024525 -0.331893
v -0.184662 -0.025182 -0.072856
v -0.425326 0.037844 -0.293167
v -0.316222 0.022253 0.008816
v -0.174914 -0.008632 -0.331727
v -0.147304 -0.009290 -0.072690
v -0.448693 0.012313 0.307299
v -0.165295 -0.021485 0.307999
v -0.366514 0.003416 -0.015041
v -0.141140 -0.023629 0.059404
v -0.457040 0.017706 -0.310429
v -0.321510 -0.001485 0.008973
v -0.212699 -0.028954 -0.331903
v -0.185088 -0.029611 -0.072866
v -0.425671 0.033414 -0.293144
v -0.316566 0.017823 0.008839
v -0.175322 -0.013063 -0.331704
v -0.147712 -0.013720 -0.072667
v 0.464189 0.018154 -0.277404
v 0.233384 -0.018922 -0.278053
v 0.383391 0.008379 0.021743
v 0.214476 -0.021289 -0.047347
v 0.428177 0.040293 -0.216137
v 0.180958 0.000787 -0.264881
v 0.400146 0.014391 0.030741
v 0.173442 -0.014993 -0.045364
v 0.425616 0.018683 0.301650
v 0.376736 -0.000835 -0.049310
v 0.208306 -0.019779 0.320061
v 0.202728 -0.020500 0.078748
v 0.464606 0.014052 -0.277403
v 0.233801 -0.023024 -0.278052
v 0.383808 0.004277 0.021743
v 0.214893 -0.025391 -0.047346
v 0.428627 0.036196 -0.216137
v 0.181409 -0.003310 -0.264881
v 0.400597 0.010294 0.030741
v 0.173892 -0.019090 -0.045364
v 0.426033 0.014582 0.301650
v 0.377153 -0.004937 -0.049310
v 0.208722 -0.023881 0.320061
v 0.203145 -0.024602 0.078748
v 0.457753 -0.076181 0.355112
v 0.457753 -0.076181 -0.355112
v 0.457753 -0.053335 -0.355112
v 0.457753 -0.053335 0.355112
v 0.457753 -0.053335 -0.300509
v 0.457753 -0.076181 -0.300509
v 0.457753 -0.076181 0.319834
v 0.457753 -0.053335 0.319834
v 0.420144 -0.076181 0.355112
v 0.420144 -0.053335 0.355112
v 0.420144 -0.076181 -0.300509
v 0.420144 -0.076181 0.319834
v 0.420144 -0.076181 -0.355112
v 0.420144 -0.053335 -0.355112
v 0.420144 -0.053335 -0.300509
v 0.420144 -0.053335 0.319834
v 0.385831 0.052640 -0.300509
v 0.385831 0.052640 0.319834
v 0.314252 -0.076181 -0.355112
v 0.208359 -0.076181 -0.355112
v 0.054879 -0.066883 -0.355112
v 0.314252 -0.053335 -0.355112
v 0.208359 -0.053335 -0.355112
v 0.054879 -0.044037 -0.355112
v 0.314252 -0.053335 -0.300509
v 0.208359 -0.053335 -0.300509
v 0.054879 -0.044037 -0.300509
v 0.314252 -0.053335 0.319834
v 0.208359 -0.053335 0.319834
v 0.054879 -0.044037 0.319834
v 0.054879 -0.066883 0.355112
v 0.208359 -0.076181 0.355112
v 0.314252 -0.076181 0.355112
v 0.054879 -0.044037 0.355112
v 0.208359 -0.053335 0.355112
v 0.314252 -0.053335 0.355112
v 0.054879 -0.066883 -0.300509
v 0.208359 -0.076181 -0.300509
v 0.314252 -0.076181 -0.300509
v 0.054879 -0.066883 0.319834
v 0.208359 -0.076181 0.319834
v 0.314252 -0.076181 0.319834
v 0.342545 0.047488 -0.300509
v 0.121219 0.035584 -0.300509
v 0.342545 0.047488 0.319834
v 0.121219 0.035584 0.319834
v 0.074213 -0.053335 0.355112
v 0.074213 -0.076181 0.355112
v 0.074213 -0.053335 0.319834
v 0.074213 -0.053335 -0.300509
v 0.074213 -0.053335 -0.355112
v 0.074213 -0.076181 -0.355112
v 0.419825 -0.030977 -0.300509
v 0.419825 -0.030977 0.319834
v 0.121219 -0.041015 0.319834
v 0.315829 -0.054719 0.319834
v 0.315829 -0.054719 -0.300509
v 0.121219 -0.041015 -0.300509
v 0.278281 0.053957 -0.300509
v 0.278281 0.053957 0.319834
v 0.262094 -0.040882 -0.300509
v 0.262094 -0.040882 0.319834
v 0.236270 0.060078 -0.300509
v 0.180453 0.059168 -0.300509
v 0.236270 0.060078 0.319834
v 0.180453 0.059169 0.319834
v 0.180453 -0.028535 0.319834
v 0.236270 -0.032802 0.319834
v 0.236270 -0.032802 -0.300509
v 0.180453 -0.028535 -0.300509
v 0.074213 -0.076181 -0.300509
v 0.074213 -0.076181 0.319834
v -0.464606 -0.076180 0.355112
v -0.464606 -0.076180 -0.355112
v -0.464606 -0.053334 -0.355112
v -0.464606 -0.053334 0.355112
v -0.464606 -0.053334 -0.300509
v -0.464606 -0.076180 -0.300509
v -0.464606 -0.076180 0.319834
v -0.464606 -0.053334 0.319834
v -0.004054 -0.066883 0.355112
v -0.004054 -0.066883 -0.355112
v -0.004054 -0.044037 0.355112
v -0.004054 -0.044037 -0.355112
v -0.004054 -0.066883 -0.300509
v -0.004054 -0.044037 -0.300509
v -0.004054 -0.044037 0.319834
v -0.004054 -0.066883 0.319834
v -0.426997 -0.076180 0.355112
v -0.426997 -0.053334 0.355112
v -0.426997 -0.076180 -0.300509
v -0.426997 -0.076180 0.319834
v -0.426997 -0.076180 -0.355112
v -0.426997 -0.053334 -0.355112
v -0.426997 -0.053334 -0.300509
v -0.426997 -0.053334 0.319834
v -0.392684 0.052640 -0.300509
v -0.004054 0.020791 -0.300509
v -0.392684 0.052641 0.319834
v -0.004054 0.020791 0.319834
v -0.321105 -0.076180 -0.355112
v -0.254598 -0.076180 -0.355112
v -0.062987 -0.066883 -0.355112
v -0.321105 -0.053334 -0.355112
v -0.254598 -0.053334 -0.355112
v -0.062987 -0.044037 -0.355112
v -0.321105 -0.053334 -0.300509
v -0.254598 -0.053334 -0.300509
v -0.062987 -0.044037 -0.300509
v -0.321105 -0.053334 0.319834
v -0.254598 -0.053334 0.319834
v -0.062987 -0.044037 0.319834
v -0.062987 -0.066883 0.355112
v -0.254598 -0.076180 0.355112
v -0.321105 -0.076180 0.355112
v -0.062987 -0.044037 0.355112
v -0.254598 -0.053334 0.355112
v -0.321105 -0.053334 0.355112
v -0.062987 -0.066883 -0.300509
v -0.254598 -0.076180 -0.300509
v -0.321105 -0.076180 -0.300509
v -0.062987 -0.066883 0.319834
v -0.254598 -0.076180 0.319834
v -0.321105 -0.076180 0.319834
v -0.349398 0.047489 -0.300509
v -0.129326 0.035584 -0.300509
v -0.349398 0.047489 0.319834
v -0.129326 0.035584 0.319834
v -0.082320 -0.053334 0.355112
v -0.082320 -0.076180 0.355112
v -0.082320 -0.053334 0.319834
v -0.082320 -0.053335 -0.300509
v -0.082320 -0.053335 -0.355112
v -0.082320 -0.076181 -0.355112
v -0.004054 -0.029743 -0.300509
v -0.426678 -0.030976 -0.300509
v -0.426678 -0.030976 0.319834
v -0.004054 -0.029743 0.319834
v -0.129326 -0.041015 0.319834
v -0.322682 -0.054719 0.319834
v -0.322682 -0.054719 -0.300509
v -0.129326 -0.041015 -0.300509
v -0.285134 0.053957 -0.300509
v -0.285134 0.053957 0.319834
v -0.268947 -0.040881 -0.300509
v -0.268947 -0.040881 0.319834
v -0.287618 0.060078 -0.300509
v -0.221585 0.059169 -0.300509
v -0.287618 0.060078 0.319834
v -0.221585 0.059169 0.319834
v -0.221585 -0.028534 0.319834
v -0.287618 -0.032802 0.319834
v -0.287618 -0.032802 -0.300509
v -0.221585 -0.028534 -0.300509
v -0.082320 -0.076181 -0.300509
v -0.082320 -0.076180 0.319834
v -0.444281 -0.082847 0.329511
v -0.444281 -0.082847 -0.335752
v -0.089468 -0.082847 0.329511
v -0.089468 -0.082847 -0.335752
v -0.430171 -0.082847 -0.319120
v -0.430171 -0.082847 0.312880
v -0.106160 -0.082847 0.312880
v -0.106160 -0.082847 -0.319120
v -0.418548 -0.082847 0.228321
v -0.418548 -0.082847 0.299865
v -0.374380 -0.082847 0.299865
v -0.418548 -0.082847 -0.233382
v -0.418548 -0.082847 -0.304926
v -0.374380 -0.082847 -0.304926
v -0.121641 -0.082847 0.228321
v -0.121641 -0.082847 0.299865
v -0.173892 -0.082847 0.299865
v -0.121641 -0.082847 -0.233382
v -0.121641 -0.082847 -0.304926
v -0.173892 -0.082847 -0.304926
v -0.444281 -0.066948 -0.335752
v -0.444281 -0.066948 0.329511
v -0.089468 -0.066948 0.329511
v -0.089468 -0.066948 -0.335752
v -0.430171 -0.066948 -0.319120
v -0.430171 -0.066948 0.312880
v -0.106160 -0.066948 0.312880
v -0.106160 -0.066948 -0.319120
v -0.418548 -0.066948 0.228321
v -0.418548 -0.066948 0.299865
v -0.374380 -0.066948 0.299865
v -0.418548 -0.066948 -0.233382
v -0.418548 -0.066948 -0.304926
v -0.374380 -0.066948 -0.304926
v -0.121641 -0.066948 0.228321
v -0.121641 -0.066948 0.299865
v -0.173892 -0.066948 0.299865
v -0.121641 -0.066948 -0.233382
v -0.121641 -0.066948 -0.304926
v -0.173892 -0.066948 -0.304926
v 0.083774 -0.082847 0.329511
v 0.083774 -0.082847 -0.335752
v 0.439468 -0.082847 0.329511
v 0.439468 -0.082847 -0.335752
v 0.100466 -0.082847 -0.319120
v 0.100466 -0.082847 0.312880
v 0.425358 -0.082847 0.312880
v 0.425358 -0.082847 -0.319120
v 0.114216 -0.082847 0.228321
v 0.114216 -0.082847 0.299865
v 0.166467 -0.082847 0.299865
v 0.114216 -0.082847 -0.233382
v 0.114216 -0.082847 -0.304926
v 0.166467 -0.082847 -0.304926
v 0.412272 -0.082847 0.228321
v 0.412272 -0.082847 0.299865
v 0.368104 -0.082847 0.299865
v 0.412272 -0.082847 -0.233382
v 0.412272 -0.082847 -0.304926
v 0.368104 -0.082847 -0.304926
v 0.083774 -0.066948 -0.335752
v 0.083774 -0.066948 0.329511
v 0.439468 -0.066948 0.329511
v 0.439468 -0.066948 -0.335752
v 0.100466 -0.066948 -0.319120
v 0.100466 -0.066948 0.312880
v 0.425358 -0.066948 0.312880
v 0.425358 -0.066948 -0.319120
v 0.114216 -0.066948 0.228321
v 0.114216 -0.066948 0.299865
v 0.166467 -0.066948 0.299865
v 0.114216 -0.066948 -0.233382
v 0.114216 -0.066948 -0.304926
v 0.166467 -0.066948 -0.304926
v 0.412272 -0.066948 0.228321
v 0.412272 -0.066948 0.299865
v 0.368104 -0.066948 0.299865
v 0.412272 -0.066948 -0.233382
v 0.412272 -0.066948 -0.304926
v 0.368104 -0.066948 -0.304926
vn 0.0000 1.0000 0.0000
vn -0.0000 -1.0000 0.0000
vn 0.0000 0.0000 -1.0000
vn 1.0000 -0.0000 0.0000
vn 0.0000 0.0000 1.0000
vn -0.4334 -0.9012 0.0000
vn 0.4334 0.9012 -0.0000
vn -1.0000 0.0000 0.0000
vn 0.4334 -0.9012 0.0000
vn -0.4334 0.9012 -0.0000
vn -0.3272 0.9449 -0.0000
vn -0.1430 0.9897 -0.0000
vn 0.2385 0.9711 -0.0000
vn -0.2022 0.9794 -0.0000
vn 0.0126 0.9999 -0.0000
vn 0.3272 0.9449 -0.0000
vn 0.0968 0.9953 -0.0000
vn -0.1548 0.9878 -0.0161
vn 0.3141 0.9488 0.0327
vn -0.0167 0.9999 -0.0009
vn 0.3351 -0.9422 0.0000
vn 0.1468 -0.9892 0.0000
vn -0.2446 -0.9696 0.0000
vn 0.2074 -0.9783 0.0000
vn -0.0129 -0.9999 0.0000
vn -0.3351 -0.9422 0.0000
vn -0.0993 -0.9951 0.0000
vn 0.1589 -0.9872 0.0166
vn -0.3217 -0.9463 -0.0335
vn 0.0172 -0.9999 0.0009
vn 0.0857 -0.0000 -0.9963
vn -0.9946 0.0000 -0.1037
vn -0.0201 0.0000 0.9998
vn -0.0652 0.0000 0.9979
vn 0.0201 0.0000 -0.9998
vn 0.0652 -0.0000 -0.9979
vn -0.0857 0.0000 0.9963
vn 0.2717 -0.0000 -0.9624
vn -0.1102 0.0000 0.9939
vn 0.1183 0.9930 0.0028
vn 0.1876 0.9821 -0.0192
vn 0.1787 0.9838 -0.0151
vn -0.1183 -0.9930 -0.0028
vn -0.1877 -0.9820 0.0192
vn -0.1788 -0.9838 0.0151
vn -0.9657 0.0755 -0.2483
vn -0.0025 0.0000 1.0000
vn 0.9911 -0.0916 0.0971
vn 0.3107 -0.0263 -0.9502
vn -0.0857 0.0098 -0.9963
vn -0.9165 0.0736 0.3933
vn 0.5067 -0.0468 0.8609
vn 0.9899 -0.0949 -0.1058
vn -0.1508 0.0076 -0.9885
vn -0.9366 0.0747 0.3423
vn 0.4296 -0.0318 0.9025
vn 0.9902 -0.0917 -0.1058
vn -0.1633 0.9865 -0.0081
vn -0.1629 0.9838 0.0755
vn -0.1541 0.9879 -0.0196
vn 0.1633 -0.9865 0.0081
vn 0.1629 -0.9838 -0.0755
vn 0.1541 -0.9879 0.0196
vn 0.9600 0.0977 0.2625
vn 0.0028 0.0001 -1.0000
vn -0.9915 -0.1009 -0.0823
vn -0.3726 -0.0377 0.9272
vn 0.9864 0.1085 0.1234
vn 0.1902 0.0210 -0.9815
vn -0.9931 -0.1092 -0.0419
vn -0.3140 -0.0345 0.9488
vn 0.0829 0.0084 0.9965
vn 0.9847 0.1000 -0.1427
vn -0.5873 -0.0597 -0.8072
vn -0.9946 -0.1010 0.0233
vn -0.1182 0.9930 -0.0000
vn 0.9264 0.3766 -0.0000
vn -0.2986 -0.9544 0.0000
vn -0.1173 0.9931 -0.0000
vn 0.1002 0.9950 -0.0000
vn -0.3699 0.9291 -0.0000
vn -0.2494 -0.9684 0.0000
vn 0.2226 -0.9749 0.0000
vn 0.0455 -0.9990 0.0000
vn 0.2062 -0.9785 0.0000
vn -0.0163 0.9999 -0.0000
vn -0.0762 -0.9971 0.0000
vn 0.1442 0.9896 -0.0000
vn 0.1182 0.9930 -0.0000
vn -0.9264 0.3766 -0.0000
vn 0.3972 0.9178 -0.0000
vn 0.1173 0.9931 -0.0000
vn -0.1002 0.9950 -0.0000
vn 0.2477 0.9688 -0.0000
vn 0.2494 -0.9684 0.0000
vn -0.2226 -0.9749 0.0000
vn -0.0455 -0.9990 0.0000
vn -0.1341 -0.9910 0.0000
vn 0.0138 0.9999 -0.0000
vn 0.0645 -0.9979 0.0000
vn -0.9266 -0.3760 0.0000
vn 0.8509 -0.0000 0.5253
vn -0.8076 0.0000 -0.5898
vn 0.8509 -0.0000 -0.5253
vn -0.8076 0.0000 0.5898
vn 0.8076 -0.0000 0.5898
vn -0.8509 0.0000 -0.5253
vn 0.8076 -0.0000 -0.5898
vn -0.8509 0.0000 0.5253
usemtl DarkRed
s off
f 107//1 97//1 95//1 106//1
f 103//2 105//2 94//2 98//2
f 105//3 106//3 95//3 94//3
f 99//4 100//4 96//4 93//4
f 94//4 95//4 97//4 98//4
f 104//2 103//2 98//2 99//2
f 108//1 100//1 97//1 107//1
f 102//1 96//1 100//1 108//1
f 101//2 104//2 99//2 93//2
f 98//4 97//4 100//4 99//4
f 123//5 126//5 175//5 173//5
f 93//5 96//5 102//5 101//5
f 125//2 134//2 104//2 101//2
f 128//1 102//1 108//1 120//1
f 134//2 131//2 103//2 104//2
f 111//3 114//3 106//3 105//3
f 131//2 111//2 105//2 103//2
f 117//1 107//1 106//1 114//1
f 178//1 119//1 116//1 176//1
f 142//1 118//1 115//1 143//1
f 118//1 117//1 114//1 115//1
f 177//2 174//2 113//2 129//2
f 163//2 144//2 112//2 130//2
f 130//2 112//2 111//2 131//2
f 174//3 176//3 116//3 113//3
f 144//3 143//3 115//3 112//3
f 112//3 115//3 114//3 111//3
f 180//2 177//2 129//2 132//2
f 164//2 163//2 130//2 133//2
f 133//2 130//2 131//2 134//2
f 175//1 126//1 122//1 179//1
f 139//1 127//1 121//1 141//1
f 127//1 128//1 120//1 121//1
f 173//2 180//2 132//2 123//2
f 140//2 164//2 133//2 124//2
f 124//2 133//2 134//2 125//2
f 101//5 102//5 128//5 125//5
f 125//5 128//5 127//5 124//5
f 140//5 139//5 126//5 123//5
f 123//6 132//6 164//6 140//6
f 124//5 127//5 139//5 140//5
f 107//1 117//1 118//1 142//1 141//1 121//1 120//1 108//1
f 141//7 142//7 119//7 122//7
f 126//7 139//7 141//7 122//7
f 132//6 129//6 163//6 164//6
f 113//3 116//3 143//3 144//3
f 129//6 113//6 144//6 163//6
f 119//7 142//7 143//7 116//7
f 187//1 186//1 167//1 169//1
f 183//2 170//2 166//2 185//2
f 185//3 166//3 167//3 186//3
f 171//8 165//8 168//8 172//8
f 166//8 170//8 169//8 167//8
f 184//2 171//2 170//2 183//2
f 188//1 187//1 169//1 172//1
f 182//1 188//1 172//1 168//1
f 181//2 165//2 171//2 184//2
f 170//8 171//8 172//8 169//8
f 205//5 173//5 175//5 208//5
f 165//5 181//5 182//5 168//5
f 207//2 181//2 184//2 216//2
f 210//1 202//1 188//1 182//1
f 216//2 184//2 183//2 213//2
f 193//3 185//3 186//3 196//3
f 213//2 183//2 185//2 193//2
f 199//1 196//1 186//1 187//1
f 178//1 176//1 198//1 201//1
f 224//1 225//1 197//1 200//1
f 200//1 197//1 196//1 199//1
f 177//2 211//2 195//2 174//2
f 247//2 212//2 194//2 226//2
f 212//2 213//2 193//2 194//2
f 174//3 195//3 198//3 176//3
f 226//3 194//3 197//3 225//3
f 194//3 193//3 196//3 197//3
f 180//2 214//2 211//2 177//2
f 248//2 215//2 212//2 247//2
f 215//2 216//2 213//2 212//2
f 175//1 179//1 204//1 208//1
f 221//1 223//1 203//1 209//1
f 209//1 203//1 202//1 210//1
f 173//2 205//2 214//2 180//2
f 222//2 206//2 215//2 248//2
f 206//2 207//2 216//2 215//2
f 181//5 207//5 210//5 182//5
f 207//5 206//5 209//5 210//5
f 222//5 205//5 208//5 221//5
f 205//9 222//9 248//9 214//9
f 206//5 222//5 221//5 209//5
f 187//1 188//1 202//1 203//1 223//1 224//1 200//1 199//1
f 223//10 204//10 201//10 224//10
f 208//10 204//10 223//10 221//10
f 214//9 248//9 247//9 211//9
f 195//3 226//3 225//3 198//3
f 211//9 247//9 226//9 195//9
f 201//10 198//10 225//10 224//10
usemtl Beige
f 12//11 2//11 1//11 11//11
f 2//12 4//12 3//12 1//12
f 9//13 6//13 5//13 10//13
f 6//14 8//14 7//14 5//14
f 4//15 9//15 10//15 3//15
f 12//16 11//16 13//16 14//16
f 14//17 13//17 15//17 16//17
f 21//18 22//18 17//18 18//18
f 18//19 17//19 19//19 20//19
f 16//20 15//20 22//20 21//20
f 23//21 24//21 26//21 25//21
f 25//22 26//22 28//22 27//22
f 31//23 32//23 30//23 29//23
f 29//24 30//24 34//24 33//24
f 27//25 28//25 32//25 31//25
f 23//26 35//26 36//26 24//26
f 35//27 37//27 38//27 36//27
f 41//28 39//28 40//28 42//28
f 39//29 43//29 44//29 40//29
f 37//30 41//30 42//30 38//30
f 10//3 5//3 30//3 32//3
f 17//31 22//31 42//31 40//31
f 2//5 12//5 23//5 25//5
f 12//5 14//5 35//5 23//5
f 7//4 8//4 33//4 34//4
f 20//32 19//32 44//32 43//32
f 11//3 1//3 26//3 24//3
f 13//3 11//3 24//3 36//3
f 8//33 6//33 29//33 33//33
f 18//34 20//34 43//34 39//34
f 5//35 7//35 34//35 30//35
f 19//36 17//36 40//36 44//36
f 4//5 2//5 25//5 27//5
f 14//5 16//5 37//5 35//5
f 6//5 9//5 31//5 29//5
f 21//37 18//37 39//37 41//37
f 1//3 3//3 28//3 26//3
f 15//3 13//3 36//3 38//3
f 3//3 10//3 32//3 28//3
f 22//38 15//38 38//38 42//38
f 9//5 4//5 27//5 31//5
f 16//39 21//39 41//39 37//39
f 45//40 46//40 48//40 47//40
f 49//41 50//41 52//41 51//41
f 53//42 54//42 56//42 55//42
f 57//43 59//43 60//43 58//43
f 61//44 63//44 64//44 62//44
f 65//45 67//45 68//45 66//45
f 45//46 47//46 59//46 57//46
f 46//47 45//47 57//47 58//47
f 48//48 46//48 58//48 60//48
f 47//49 48//49 60//49 59//49
f 49//50 51//50 63//50 61//50
f 50//51 49//51 61//51 62//51
f 52//52 50//52 62//52 64//52
f 51//53 52//53 64//53 63//53
f 53//54 55//54 67//54 65//54
f 54//55 53//55 65//55 66//55
f 56//56 54//56 66//56 68//56
f 55//57 56//57 68//57 67//57
f 69//58 70//58 72//58 71//58
f 73//59 74//59 76//59 75//59
f 77//60 78//60 80//60 79//60
f 81//61 83//61 84//61 82//61
f 85//62 87//62 88//62 86//62
f 89//63 91//63 92//63 90//63
f 69//64 71//64 83//64 81//64
f 70//65 69//65 81//65 82//65
f 72//66 70//66 82//66 84//66
f 71//67 72//67 84//67 83//67
f 73//68 75//68 87//68 85//68
f 74//69 73//69 85//69 86//69
f 76//70 74//70 86//70 88//70
f 75//71 76//71 88//71 87//71
f 77//72 79//72 91//72 89//72
f 78//73 77//73 89//73 90//73
f 80//74 78//74 90//74 92//74
f 79//75 80//75 92//75 91//75
f 150//3 227//3 190//3 136//3
f 137//76 110//76 109//76 135//76
f 148//5 146//5 110//5 137//5
f 146//77 145//77 109//77 110//77
f 230//5 147//5 138//5 192//5
f 160//78 161//78 153//78 154//78
f 154//5 148//5 137//5 152//5
f 192//79 138//79 136//79 190//79
f 160//5 154//5 152//5 157//5
f 152//80 137//80 135//80 151//80
f 145//3 149//3 135//3 109//3
f 138//81 158//81 156//81 136//81
f 153//3 161//3 155//3 151//3
f 179//5 122//5 147//5 230//5
f 154//82 153//82 149//82 148//82
f 148//83 149//83 145//83 146//83
f 119//3 178//3 227//3 150//3
f 147//84 122//84 119//84 150//84
f 147//85 150//85 162//85 159//85
f 149//3 153//3 151//3 135//3
f 162//3 150//3 136//3 156//3
f 147//5 159//5 158//5 138//5
f 160//5 157//5 158//5 159//5
f 157//86 155//86 156//86 158//86
f 162//3 156//3 155//3 161//3
f 161//87 160//87 159//87 162//87
f 157//88 152//88 151//88 155//88
f 234//3 218//3 190//3 227//3
f 219//89 217//89 189//89 191//89
f 232//5 219//5 191//5 229//5
f 229//90 191//90 189//90 228//90
f 230//5 192//5 220//5 231//5
f 244//91 238//91 237//91 245//91
f 238//5 236//5 219//5 232//5
f 192//92 190//92 218//92 220//92
f 244//3 241//3 236//3 238//3
f 236//93 235//93 217//93 219//93
f 228//3 189//3 217//3 233//3
f 220//94 218//94 240//94 242//94
f 237//5 235//5 239//5 245//5
f 179//5 230//5 231//5 204//5
f 238//95 232//95 233//95 237//95
f 232//96 229//96 228//96 233//96
f 201//3 234//3 227//3 178//3
f 231//97 234//97 201//97 204//97
f 231//98 243//98 246//98 234//98
f 233//3 217//3 235//3 237//3
f 246//3 240//3 218//3 234//3
f 231//5 220//5 242//5 243//5
f 244//5 243//5 242//5 241//5
f 241//99 242//99 240//99 239//99
f 246//3 245//3 239//3 240//3
f 245//100 246//100 243//100 244//100
f 241//101 239//101 235//101 236//101
usemtl Golden
f 250//2 252//2 256//2 253//2
f 252//2 251//2 255//2 256//2
f 249//2 250//2 253//2 254//2
f 251//2 249//2 254//2 255//2
f 258//2 257//2 259//2
f 261//2 262//2 260//2
f 264//2 265//2 263//2
f 267//2 266//2 268//2
f 269//1 273//1 276//1 272//1
f 272//1 276//1 275//1 271//1
f 270//1 274//1 273//1 269//1
f 271//1 275//1 274//1 270//1
f 278//1 279//1 277//1
f 281//1 280//1 282//1
f 284//1 283//1 285//1
f 287//1 288//1 286//1
f 250//3 269//3 272//3 252//3
f 262//102 282//102 280//102 260//102
f 252//4 272//4 271//4 251//4
f 263//4 283//4 284//4 264//4
f 253//4 273//4 274//4 254//4
f 264//5 284//5 285//5 265//5
f 258//8 278//8 277//8 257//8
f 254//3 274//3 275//3 255//3
f 265//103 285//103 283//103 263//103
f 259//5 279//5 278//5 258//5
f 256//5 276//5 273//5 253//5
f 267//4 287//4 286//4 266//4
f 257//104 277//104 279//104 259//104
f 255//8 275//8 276//8 256//8
f 268//3 288//3 287//3 267//3
f 249//8 270//8 269//8 250//8
f 260//8 280//8 281//8 261//8
f 266//105 286//105 288//105 268//105
f 251//5 271//5 270//5 249//5
f 261//3 281//3 282//3 262//3
f 290//2 292//2 296//2 293//2
f 292//2 291//2 295//2 296//2
f 289//2 290//2 293//2 294//2
f 291//2 289//2 294//2 295//2
f 298//2 297//2 299//2
f 301//2 302//2 300//2
f 304//2 305//2 303//2
f 307//2 306//2 308//2
f 309//1 313//1 316//1 312//1
f 312//1 316//1 315//1 311//1
f 310//1 314//1 313//1 309//1
f 311//1 315//1 314//1 310//1
f 318//1 319//1 317//1
f 321//1 320//1 322//1
f 324//1 323//1 325//1
f 327//1 328//1 326//1
f 290//3 309//3 312//3 292//3
f 302//106 322//106 320//106 300//106
f 292//4 312//4 311//4 291//4
f 303//4 323//4 324//4 304//4
f 293//4 313//4 314//4 294//4
f 304//5 324//5 325//5 305//5
f 298//8 318//8 317//8 297//8
f 294//3 314//3 315//3 295//3
f 305//107 325//107 323//107 303//107
f 299//5 319//5 318//5 298//5
f 296//5 316//5 313//5 293//5
f 307//4 327//4 326//4 306//4
f 297//108 317//108 319//108 299//108
f 295//8 315//8 316//8 296//8
f 308//3 328//3 327//3 307//3
f 289//8 310//8 309//8 290//8
f 300//8 320//8 321//8 301//8
f 306//109 326//109 328//109 308//109
f 291//5 311//5 310//5 289//5
f 301//3 321//3 322//3 302//3
