# Blender v2.79 (sub 0) OBJ File: 'Chalice.blend'
# www.blender.org
mtllib Chalice.mtl
o Chalice_Cube.023
v 0.068337 0.360507 0.000000
v 0.108689 0.533088 -0.112363
v 0.134792 0.064017 0.000000
v -0.076357 0.360789 0.000000
v -0.004010 0.360648 0.072347
v -0.004010 0.360648 -0.072347
v 0.108689 0.533088 0.112363
v -0.143967 0.064561 0.000000
v -0.004587 0.064289 0.139380
v -0.004587 0.064289 -0.139380
v -0.116036 0.533526 -0.112363
v -0.116036 0.533526 0.112363
v -0.003674 0.533307 0.149817
v 0.146143 0.533015 0.000000
v -0.003674 0.533307 -0.149817
v -0.153490 0.533599 0.000000
v -0.004321 0.200995 -0.048105
v -0.004321 0.200995 0.048105
v -0.052426 0.201089 0.000000
v 0.043783 0.200901 0.000000
v -0.153320 0.620878 0.000000
v -0.003504 0.620586 -0.149817
v -0.246110 0.742448 0.000000
v 0.146313 0.620295 0.000000
v -0.003504 0.620586 0.149817
v -0.003267 0.741975 -0.242844
v -0.115866 0.620805 0.112363
v -0.115866 0.620805 -0.112363
v 0.239576 0.741502 0.000000
v 0.108859 0.620368 0.112363
v 0.108859 0.620368 -0.112363
v -0.003267 0.741975 0.242844
v -0.109562 0.400744 0.000000
v -0.003932 0.400538 -0.105630
v 0.101697 0.400332 0.000000
v -0.003932 0.400538 0.105630
v 0.164021 0.741649 -0.167288
v 0.164021 0.741649 0.167289
v -0.170555 0.742301 -0.167288
v -0.170555 0.742301 0.167289
v -0.049310 0.312074 0.000000
v -0.004105 0.311986 -0.045205
v 0.041100 0.311897 0.000000
v -0.004105 0.311986 0.045205
v 0.050250 0.360542 0.054260
v 0.050250 0.360542 -0.054260
v -0.058270 0.360753 -0.054260
v -0.058270 0.360753 0.054260
v -0.209990 0.019832 0.000000
v -0.004675 0.019432 -0.205315
v 0.200640 0.019032 0.000000
v -0.004675 0.019432 0.205315
v 0.099947 0.064085 0.104535
v 0.031757 0.200925 -0.036078
v -0.109122 0.064493 -0.104535
v -0.040399 0.201065 0.036079
v -0.003267 0.741975 0.223051
v 0.219784 0.741541 0.000000
v -0.003267 0.741975 -0.223051
v -0.226318 0.742410 0.000000
v -0.039466 0.287560 0.000000
v -0.004153 0.287492 0.035314
v -0.004153 0.287492 -0.035314
v 0.031161 0.287423 0.000000
v 0.022333 0.287440 -0.026485
v -0.030638 0.287543 0.026485
v 0.022333 0.287440 0.026485
v -0.030638 0.287543 -0.026485
v 0.032573 0.223609 0.000000
v -0.031915 0.223734 0.027638
v 0.023361 0.223627 -0.027638
v -0.004277 0.223680 0.036851
v 0.031757 0.200925 0.036079
v 0.099947 0.064085 -0.104535
v -0.040400 0.201065 -0.036078
v -0.109122 0.064493 0.104535
v -0.004472 0.123689 -0.075290
v -0.004472 0.123689 0.075290
v -0.079762 0.123835 0.000000
v 0.070818 0.123542 0.000000
v 0.023361 0.223627 0.027638
v -0.185400 0.742330 0.182133
v -0.004277 0.223680 -0.036850
v -0.185400 0.742330 -0.182133
v -0.031915 0.223734 -0.027638
v 0.178866 0.741620 0.182133
v -0.041127 0.223752 0.000000
v 0.178866 0.741620 -0.182133
v -0.083154 0.400693 -0.079222
v -0.083154 0.400693 0.079222
v 0.075290 0.400384 -0.079222
v 0.075290 0.400384 0.079222
v -0.038009 0.312052 -0.033904
v -0.038009 0.312052 0.033904
v 0.029799 0.311920 -0.033904
v 0.029799 0.311920 0.033904
v -0.158661 0.019732 -0.153986
v -0.158661 0.019732 0.153986
v 0.149311 0.019132 -0.153986
v 0.149311 0.019132 0.153986
v -0.004289 0.217542 -0.047672
v -0.004289 0.217542 0.047672
v -0.051961 0.217635 0.000000
v 0.043383 0.217449 0.000000
v 0.031465 0.217472 -0.035754
v -0.040043 0.217611 0.035754
v -0.040043 0.217611 -0.035754
v 0.031465 0.217472 0.035754
v 0.051996 0.123579 0.056468
v 0.051996 0.123579 -0.056468
v -0.060939 0.123799 -0.056468
v -0.060939 0.123799 0.056468
v -0.158706 -0.003681 -0.153986
v -0.210035 -0.003581 0.000000
v -0.158706 -0.003681 0.153986
v 0.149266 -0.004281 -0.153986
v -0.004721 -0.003981 -0.205315
v 0.149266 -0.004281 0.153986
v 0.200594 -0.004381 0.000000
v -0.004721 -0.003981 0.205315
v -0.220431 0.717588 0.000000
v -0.166152 0.717482 0.162837
v -0.038404 0.293697 -0.034263
v -0.166152 0.717482 -0.162837
v -0.202719 0.679420 0.000000
v -0.003315 0.717165 -0.217116
v 0.030123 0.293564 0.034263
v 0.159521 0.716847 -0.162837
v -0.003390 0.679031 -0.199330
v 0.213800 0.716742 0.000000
v -0.038404 0.293697 0.034263
v 0.159521 0.716847 0.162837
v 0.195940 0.678643 0.000000
v -0.003315 0.717165 0.217116
v 0.030123 0.293564 -0.034263
v -0.003390 0.679031 0.199330
v -0.138241 0.449442 0.000000
v -0.178541 0.474823 0.000000
v -0.104640 0.449376 -0.100803
v -0.095992 0.424263 0.000000
v -0.104640 0.449376 0.100803
v -0.003719 0.509884 0.197928
v 0.144726 0.509595 0.148446
v -0.003626 0.557620 0.206002
v -0.152165 0.510173 0.148446
v -0.003788 0.474482 0.174753
v 0.130566 0.448918 0.000000
v 0.170964 0.474142 0.000000
v 0.096965 0.448984 0.100803
v 0.088220 0.423904 0.000000
v 0.096965 0.448984 -0.100803
v -0.003838 0.449180 0.134404
v -0.003886 0.424084 0.092106
v -0.003838 0.449180 -0.134404
v -0.003788 0.474482 -0.174753
v -0.003886 0.424084 -0.092106
v 0.194208 0.509498 0.000000
v 0.144726 0.509595 -0.148446
v 0.202375 0.557218 0.000000
v -0.003719 0.509884 -0.197928
v -0.152165 0.510173 -0.148446
v -0.003626 0.557620 -0.206002
v -0.201647 0.510269 0.000000
v -0.209628 0.558021 0.000000
v -0.003505 0.619926 0.201047
v 0.147280 0.619632 0.150785
v -0.154290 0.620220 0.150785
v 0.197542 0.619534 0.000000
v 0.147280 0.619632 -0.150785
v -0.003505 0.619926 -0.201047
v -0.154290 0.620220 -0.150785
v -0.204551 0.620318 0.000000
v -0.134853 0.474738 -0.131065
v -0.134853 0.474738 0.131065
v -0.152887 0.679323 0.149497
v 0.041544 0.293541 0.000000
v -0.049825 0.293719 0.000000
v -0.158127 0.557921 -0.154501
v 0.127276 0.474227 -0.131065
v -0.004141 0.293630 0.045685
v 0.150875 0.557319 -0.154501
v 0.127276 0.474227 0.131065
v -0.004141 0.293630 -0.045684
v 0.150875 0.557319 0.154501
v -0.072966 0.424218 -0.069080
v -0.072966 0.424218 0.069080
v 0.065193 0.423949 -0.069080
v 0.065193 0.423949 0.069080
v -0.158127 0.557921 0.154501
v -0.152887 0.679323 -0.149497
v 0.146107 0.678740 -0.149497
v 0.146107 0.678740 0.149497
vn 0.9487 -0.0018 -0.3162
vn -0.3162 0.0006 -0.9487
vn 0.3162 -0.0006 0.9487
vn -0.9487 0.0018 -0.3162
vn 0.9487 -0.0018 0.3162
vn 0.3162 -0.0006 -0.9487
vn -0.3162 0.0006 0.9487
vn -0.9487 0.0018 0.3162
vn 0.2754 0.4962 -0.8234
vn -0.8224 0.4983 -0.2745
vn -0.2735 0.4973 0.8234
vn 0.8243 0.4951 0.2745
vn -0.2735 0.4973 -0.8234
vn -0.8224 0.4983 0.2745
vn 0.2754 0.4962 0.8234
vn 0.8243 0.4951 -0.2745
vn 0.0019 1.0000 0.0000
vn 0.7427 -0.6221 -0.2480
vn 0.7427 -0.6221 0.2480
vn 0.8376 -0.4693 0.2795
vn 0.8376 -0.4693 -0.2795
vn 0.1640 0.8580 0.4869
vn 0.5005 -0.8494 -0.1674
vn -0.1606 0.8586 -0.4869
vn -0.4852 0.8592 -0.1623
vn 0.1657 -0.8487 -0.5022
vn 0.4885 0.8573 0.1623
vn -0.1691 -0.8481 -0.5022
vn 0.4885 0.8573 -0.1623
vn 0.9485 0.0210 0.3161
vn 0.9485 0.0210 -0.3161
vn -0.3161 0.0235 0.9484
vn -0.9484 0.0247 0.3161
vn 0.6643 0.7140 -0.2210
vn 0.6643 0.7140 0.2210
vn 0.5544 0.8116 0.1843
vn 0.5544 0.8116 -0.1843
vn -0.7451 -0.6192 0.2480
vn -0.7451 -0.6192 -0.2480
vn -0.8394 -0.4661 -0.2795
vn -0.8394 -0.4661 0.2795
vn 0.2467 -0.6211 0.7439
vn -0.2492 -0.6201 0.7439
vn -0.2804 -0.4672 0.8385
vn 0.2786 -0.4682 0.8385
vn -0.2492 -0.6201 -0.7439
vn 0.2467 -0.6211 -0.7439
vn 0.2786 -0.4682 -0.8385
vn -0.2804 -0.4672 -0.8385
vn 0.3162 0.0222 -0.9484
vn 0.3162 0.0222 0.9484
vn -0.3161 0.0235 -0.9484
vn -0.9484 0.0247 -0.3161
vn -0.6616 0.7166 0.2210
vn -0.6616 0.7166 -0.2210
vn -0.5513 0.8137 -0.1843
vn -0.5513 0.8137 0.1843
vn 0.2224 0.7149 0.6630
vn -0.2196 0.7157 0.6630
vn -0.1827 0.8130 0.5529
vn 0.1859 0.8123 0.5529
vn -0.2196 0.7157 -0.6630
vn 0.2224 0.7149 -0.6630
vn 0.1859 0.8123 -0.5529
vn -0.1827 0.8130 -0.5529
vn -0.9483 0.0266 -0.3161
vn -0.3161 0.0254 -0.9484
vn 0.3162 0.0242 0.9484
vn 0.3162 0.0242 -0.9484
vn -0.9483 0.0266 0.3161
vn -0.3161 0.0254 0.9484
vn 0.9484 0.0229 -0.3161
vn -0.6777 -0.7000 0.2254
vn -0.2767 0.4790 0.8330
vn -0.1691 -0.8481 0.5022
vn 0.8340 0.4768 -0.2777
vn 0.8340 0.4768 0.2777
vn -0.1606 0.8586 0.4869
vn -0.2767 0.4790 -0.8330
vn 0.9484 0.0229 0.3161
vn 0.2786 0.4779 -0.8330
vn 0.1657 -0.8487 0.5022
vn -0.8321 0.4801 0.2777
vn -0.5039 -0.8474 -0.1674
vn -0.4852 0.8592 0.1623
vn -0.8321 0.4801 -0.2777
vn 0.2786 0.4779 0.8330
vn -0.5039 -0.8474 0.1674
vn 0.1640 0.8580 -0.4869
vn 0.3006 0.3159 -0.8999
vn -0.2994 0.3171 -0.8999
vn -0.2994 0.3171 0.8999
vn 0.3006 0.3159 0.8999
vn -0.8993 0.3182 -0.3000
vn -0.8993 0.3182 0.3000
vn 0.9005 0.3147 0.3000
vn 0.9005 0.3147 -0.3000
vn -0.0019 -1.0000 0.0000
vn -0.8683 -0.4029 0.2892
vn -0.6776 -0.7000 -0.2254
vn -0.2268 -0.7009 -0.6763
vn -0.8683 -0.4029 -0.2892
vn -0.2900 -0.4041 -0.8675
vn 0.2241 -0.7017 -0.6763
vn 0.6749 -0.7026 -0.2254
vn 0.2884 -0.4052 -0.8675
vn 0.8668 -0.4063 -0.2892
vn 0.6749 -0.7026 0.2254
vn 0.2241 -0.7017 0.6763
vn 0.8668 -0.4063 0.2892
vn 0.2884 -0.4052 0.8675
vn -0.2268 -0.7009 0.6763
vn 0.5005 -0.8494 0.1674
vn -0.2900 -0.4041 0.8675
vn -0.5248 -0.8332 0.1744
vn -0.5248 -0.8332 -0.1744
vn -0.5047 -0.8469 -0.1677
vn -0.5047 -0.8469 0.1677
vn 0.2676 -0.5281 0.8059
vn 0.3119 -0.1590 0.9367
vn -0.3125 -0.1578 0.9367
vn -0.2697 -0.5271 0.8059
vn 0.5215 -0.8352 -0.1744
vn 0.5215 -0.8352 0.1744
vn 0.5014 -0.8488 0.1677
vn 0.5014 -0.8488 -0.1677
vn 0.1728 -0.8346 0.5231
vn -0.1760 -0.8339 0.5231
vn -0.1693 -0.8475 0.5030
vn 0.1660 -0.8482 0.5030
vn -0.1760 -0.8339 -0.5231
vn 0.1728 -0.8346 -0.5231
vn 0.1660 -0.8482 -0.5030
vn -0.1693 -0.8475 -0.5030
vn 0.8049 -0.5291 -0.2686
vn 0.9364 -0.1603 -0.3122
vn 0.9364 -0.1603 0.3122
vn 0.8049 -0.5291 0.2686
vn -0.2697 -0.5271 -0.8059
vn -0.3125 -0.1578 -0.9367
vn 0.3119 -0.1590 -0.9367
vn 0.2676 -0.5281 -0.8059
vn -0.8069 -0.5260 0.2686
vn -0.9370 -0.1566 0.3122
vn -0.9370 -0.1566 -0.3122
vn -0.8069 -0.5260 -0.2686
vn 0.3155 0.0746 0.9460
vn 0.3162 0.0269 0.9483
vn -0.3161 0.0282 0.9483
vn -0.3152 0.0758 0.9460
vn 0.9461 0.0734 -0.3153
vn 0.9484 0.0257 -0.3161
vn 0.9484 0.0257 0.3161
vn 0.9461 0.0734 0.3153
vn -0.3152 0.0758 -0.9460
vn -0.3161 0.0282 -0.9483
vn 0.3162 0.0269 -0.9483
vn 0.3155 0.0746 -0.9460
vn -0.9458 0.0771 0.3153
vn -0.9483 0.0294 0.3161
vn -0.9483 0.0294 -0.3161
vn -0.9458 0.0771 -0.3153
usemtl Gold
s off
f 21//1 27//1 12//1 16//1
f 25//2 30//2 7//2 13//2
f 22//3 28//3 11//3 15//3
f 30//4 24//4 14//4 7//4
f 28//5 21//5 16//5 11//5
f 27//6 25//6 13//6 12//6
f 31//7 22//7 15//7 2//7
f 24//8 31//8 2//8 14//8
f 40//9 57//9 25//9 27//9
f 38//10 58//10 24//10 30//10
f 37//11 59//11 22//11 31//11
f 39//12 60//12 21//12 28//12
f 57//13 38//13 30//13 25//13
f 58//14 37//14 31//14 24//14
f 59//15 39//15 28//15 22//15
f 60//16 40//16 27//16 21//16
f 82//17 32//17 57//17 40//17
f 84//17 23//17 60//17 39//17
f 29//17 88//17 37//17 58//17
f 88//17 26//17 59//17 37//17
f 32//17 86//17 38//17 57//17
f 23//17 82//17 40//17 60//17
f 86//17 29//17 58//17 38//17
f 26//17 84//17 39//17 59//17
f 1//18 46//18 91//18 35//18
f 1//19 35//19 92//19 45//19
f 1//20 45//20 96//20 43//20
f 1//21 43//21 95//21 46//21
f 102//22 108//22 81//22 72//22
f 135//23 176//23 64//23 65//23
f 101//24 107//24 85//24 83//24
f 107//25 103//25 87//25 85//25
f 183//26 135//26 65//26 63//26
f 108//27 104//27 69//27 81//27
f 123//28 183//28 63//28 68//28
f 104//29 105//29 71//29 69//29
f 69//30 64//30 67//30 81//30
f 69//31 71//31 65//31 64//31
f 72//32 62//32 66//32 70//32
f 87//33 70//33 66//33 61//33
f 3//34 74//34 110//34 80//34
f 3//35 80//35 109//35 53//35
f 3//36 53//36 100//36 51//36
f 3//37 51//37 99//37 74//37
f 4//38 48//38 90//38 33//38
f 4//39 33//39 89//39 47//39
f 4//40 47//40 93//40 41//40
f 4//41 41//41 94//41 48//41
f 5//42 45//42 92//42 36//42
f 5//43 36//43 90//43 48//43
f 5//44 48//44 94//44 44//44
f 5//45 44//45 96//45 45//45
f 6//46 47//46 89//46 34//46
f 6//47 34//47 91//47 46//47
f 6//48 46//48 95//48 42//48
f 6//49 42//49 93//49 47//49
f 83//50 63//50 65//50 71//50
f 72//51 81//51 67//51 62//51
f 83//52 85//52 68//52 63//52
f 87//53 61//53 68//53 85//53
f 8//54 76//54 112//54 79//54
f 8//55 79//55 111//55 55//55
f 8//56 55//56 97//56 49//56
f 8//57 49//57 98//57 76//57
f 9//58 53//58 109//58 78//58
f 9//59 78//59 112//59 76//59
f 9//60 76//60 98//60 52//60
f 9//61 52//61 100//61 53//61
f 10//62 55//62 111//62 77//62
f 10//63 77//63 110//63 74//63
f 10//64 74//64 99//64 50//64
f 10//65 50//65 97//65 55//65
f 19//66 103//66 107//66 75//66
f 17//67 75//67 107//67 101//67
f 18//68 73//68 108//68 102//68
f 17//69 101//69 105//69 54//69
f 19//70 56//70 106//70 103//70
f 18//71 102//71 106//71 56//71
f 20//72 54//72 105//72 104//72
f 82//73 23//73 121//73 122//73
f 90//74 36//74 153//74 186//74
f 180//75 131//75 66//75 62//75
f 35//76 91//76 187//76 150//76
f 92//77 35//77 150//77 188//77
f 106//78 102//78 72//78 70//78
f 34//79 89//79 185//79 156//79
f 20//80 104//80 108//80 73//80
f 91//81 34//81 156//81 187//81
f 127//82 180//82 62//82 67//82
f 33//83 90//83 186//83 140//83
f 177//84 123//84 68//84 61//84
f 103//85 106//85 70//85 87//85
f 89//86 33//86 140//86 185//86
f 36//87 92//87 188//87 153//87
f 131//88 177//88 61//88 66//88
f 105//89 101//89 83//89 71//89
f 183//67 123//67 93//67 42//67
f 183//69 42//69 95//69 135//69
f 17//90 54//90 110//90 77//90
f 17//91 77//91 111//91 75//91
f 180//68 127//68 96//68 44//68
f 180//71 44//71 94//71 131//71
f 18//92 56//92 112//92 78//92
f 18//93 78//93 109//93 73//93
f 177//70 131//70 94//70 41//70
f 177//66 41//66 93//66 123//66
f 19//94 75//94 111//94 79//94
f 19//95 79//95 112//95 56//95
f 176//72 135//72 95//72 43//72
f 176//80 43//80 96//80 127//80
f 20//96 73//96 109//96 80//96
f 20//97 80//97 110//97 54//97
f 100//3 52//3 120//3 118//3
f 113//98 117//98 116//98 119//98 118//98 120//98 115//98 114//98
f 99//1 51//1 119//1 116//1
f 97//2 50//2 117//2 113//2
f 98//8 49//8 114//8 115//8
f 52//7 98//7 115//7 120//7
f 51//5 100//5 118//5 119//5
f 50//6 99//6 116//6 117//6
f 49//4 97//4 113//4 114//4
f 121//99 125//99 175//99 122//99
f 23//100 84//100 124//100 121//100
f 84//101 26//101 126//101 124//101
f 121//102 124//102 190//102 125//102
f 126//103 129//103 190//103 124//103
f 26//104 88//104 128//104 126//104
f 88//105 29//105 130//105 128//105
f 126//106 128//106 191//106 129//106
f 130//107 133//107 191//107 128//107
f 29//108 86//108 132//108 130//108
f 86//109 32//109 134//109 132//109
f 130//110 132//110 192//110 133//110
f 134//111 136//111 192//111 132//111
f 32//112 82//112 122//112 134//112
f 176//113 127//113 67//113 64//113
f 134//114 122//114 175//114 136//114
f 137//115 141//115 174//115 138//115
f 137//116 138//116 173//116 139//116
f 137//117 139//117 185//117 140//117
f 137//118 140//118 186//118 141//118
f 142//119 146//119 182//119 143//119
f 142//120 143//120 184//120 144//120
f 142//121 144//121 189//121 145//121
f 142//122 145//122 174//122 146//122
f 147//123 151//123 179//123 148//123
f 147//124 148//124 182//124 149//124
f 147//125 149//125 188//125 150//125
f 147//126 150//126 187//126 151//126
f 152//127 149//127 182//127 146//127
f 152//128 146//128 174//128 141//128
f 152//129 141//129 186//129 153//129
f 152//130 153//130 188//130 149//130
f 154//131 139//131 173//131 155//131
f 154//132 155//132 179//132 151//132
f 154//133 151//133 187//133 156//133
f 154//134 156//134 185//134 139//134
f 157//135 148//135 179//135 158//135
f 157//136 158//136 181//136 159//136
f 157//137 159//137 184//137 143//137
f 157//138 143//138 182//138 148//138
f 160//139 155//139 173//139 161//139
f 160//140 161//140 178//140 162//140
f 160//141 162//141 181//141 158//141
f 160//142 158//142 179//142 155//142
f 163//143 138//143 174//143 145//143
f 163//144 145//144 189//144 164//144
f 163//145 164//145 178//145 161//145
f 163//146 161//146 173//146 138//146
f 165//147 144//147 184//147 166//147
f 165//148 166//148 192//148 136//148
f 165//149 136//149 175//149 167//149
f 165//150 167//150 189//150 144//150
f 168//151 159//151 181//151 169//151
f 168//152 169//152 191//152 133//152
f 168//153 133//153 192//153 166//153
f 168//154 166//154 184//154 159//154
f 170//155 162//155 178//155 171//155
f 170//156 171//156 190//156 129//156
f 170//157 129//157 191//157 169//157
f 170//158 169//158 181//158 162//158
f 172//159 164//159 189//159 167//159
f 172//160 167//160 175//160 125//160
f 172//161 125//161 190//161 171//161
f 172//162 171//162 178//162 164//162
f 13//17 7//17 14//17 2//17 15//17 11//17 16//17 12//17
