# Blender v2.79 (sub 0) OBJ File: 'Crystal5.blend'
# www.blender.org
mtllib Crystal5.mtl
o Crystal5_Cylinder.004
v 0.174366 0.066643 -0.262576
v 0.121171 0.213887 -0.182470
v 0.314580 0.089639 0.019717
v 0.218609 0.213887 0.013702
v 0.140215 0.081200 0.282293
v 0.097439 0.213887 0.196172
v -0.174366 0.066699 0.262576
v -0.121171 0.213887 0.182470
v -0.314580 0.081200 -0.019717
v -0.218609 0.213887 -0.013702
v -0.140215 0.081200 -0.282293
v -0.097439 0.213887 -0.196172
v -0.000000 -0.216945 -0.000000
vn 0.7532 0.5228 -0.3992
vn 0.6943 0.5439 0.4713
vn -0.0676 0.5113 0.8567
vn -0.7634 0.5113 0.3947
vn 0.0000 1.0000 -0.0000
vn -0.7056 0.5316 -0.4686
vn 0.0677 0.5113 -0.8568
vn 0.6282 -0.6700 0.3956
vn -0.6144 -0.6753 -0.4080
vn 0.6787 -0.6782 -0.2818
vn -0.0142 -0.6839 0.7294
vn 0.0141 -0.6840 -0.7294
vn -0.6668 -0.6839 0.2960
usemtl Cyan
s off
f 1//1 2//1 4//1 3//1
f 3//2 4//2 6//2 5//2
f 5//3 6//3 8//3 7//3
f 7//4 8//4 10//4 9//4
f 4//5 2//5 12//5 10//5 8//5 6//5
f 9//6 10//6 12//6 11//6
f 11//7 12//7 2//7 1//7
f 3//8 5//8 13//8
f 9//9 11//9 13//9
f 1//10 3//10 13//10
f 5//11 7//11 13//11
f 11//12 1//12 13//12
f 7//13 9//13 13//13
