# Blender v2.79 (sub 0) OBJ File: 'Crystal3_Damaged.blend'
# www.blender.org
mtllib Crystal3_Damaged.mtl
o Crystal3_Damaged_Cylinder.003
v -0.023070 -0.368762 -0.000738
v -0.000853 -0.395717 -0.000492
v -0.012174 -0.368762 0.019610
v 0.010895 -0.368762 0.020348
v 0.010895 -0.368762 -0.020348
v -0.010895 -0.368762 -0.020348
v 0.023070 -0.368762 -0.000738
v -0.075832 0.000000 -0.141623
v 0.075832 0.000000 -0.141623
v 0.160565 0.000000 -0.005139
v 0.075832 0.000000 0.141623
v -0.084734 0.000000 0.136484
v -0.160565 0.000000 -0.005139
v -0.023070 0.368762 -0.000738
v -0.000853 0.395717 -0.000492
v -0.012174 0.368762 0.019610
v 0.010895 0.368762 0.020348
v 0.010895 0.368762 -0.020348
v -0.010895 0.368762 -0.020348
v 0.023070 0.368762 -0.000738
v 0.030842 0.255487 -0.057601
v 0.056640 0.253320 -0.002090
v 0.030842 0.255487 0.057601
v -0.034463 0.255487 0.055511
v -0.065305 0.255487 -0.002090
v -0.030842 0.255487 -0.057601
v 0.035622 0.228341 -0.066529
v 0.035622 0.228341 0.066529
v -0.075427 0.228341 -0.002414
v 0.075427 0.228341 -0.002414
v -0.039804 0.228341 0.064114
v -0.035622 0.228341 -0.066529
v 0.041162 0.196881 -0.076875
v 0.039382 0.198274 0.080957
v -0.079936 0.193270 -0.002790
v 0.087157 0.196881 -0.002790
v -0.045994 0.196881 0.074085
v -0.041162 0.196881 -0.076875
v 0.070684 -0.018938 -0.124949
v 0.140147 -0.027593 -0.006898
v 0.071764 -0.023101 0.134026
v -0.080322 -0.024498 0.131486
v -0.142411 -0.023101 -0.000523
v -0.071764 -0.023101 -0.134026
v 0.124054 -0.097924 -0.003971
v -0.065466 -0.097924 0.105448
v -0.058588 -0.097924 -0.109419
v 0.058588 -0.097924 -0.109419
v 0.058588 -0.097924 0.109419
v -0.124054 -0.097924 -0.003971
vt 0.037098 0.247774
vt 0.840381 0.243047
vt 0.840381 0.243047
vt 0.037098 0.247774
vt 0.615490 0.243047
vt 0.500000 0.247774
vt 0.500000 0.247774
vt 0.615490 0.243047
vt 0.372042 0.243047
vt 0.159619 0.243047
vt 0.159619 0.243047
vt 0.372042 0.243047
vt 0.040939 0.243047
vt 0.040939 0.243047
vt 0.490722 0.243047
vt 0.490722 0.243047
vt 0.721701 0.047003
vt 0.506701 0.241590
vt 0.265830 0.047003
vt 0.278299 0.047003
vt 0.037098 0.247774
vt 0.037098 0.247774
vt 0.840381 0.243047
vt 0.840381 0.243047
vt 0.615490 0.243047
vt 0.615490 0.243047
vt 0.500000 0.247774
vt 0.500000 0.247774
vt 0.372042 0.243047
vt 0.372042 0.243047
vt 0.159619 0.243047
vt 0.159619 0.243047
vt 0.040939 0.243047
vt 0.040939 0.243047
vt 0.490722 0.243047
vt 0.490722 0.243047
vt 0.721701 0.047003
vt 0.506701 0.241590
vt 0.265830 0.047003
vt 0.278299 0.047003
vt 0.490722 0.243047
vt 0.372042 0.243047
vt 0.840381 0.243047
vt 0.615490 0.243047
vt 0.159619 0.243047
vt 0.040939 0.243047
vt 0.500000 0.247774
vt 0.037098 0.247774
vt 0.037098 0.247774
vt 0.840381 0.243047
vt 0.615490 0.243047
vt 0.500000 0.247774
vt 0.372042 0.243047
vt 0.159619 0.243047
vt 0.040939 0.243047
vt 0.490722 0.243047
vt 0.490722 0.243047
vt 0.372042 0.243047
vt 0.840381 0.243047
vt 0.615490 0.243047
vt 0.159619 0.243047
vt 0.040939 0.243047
vt 0.500000 0.247774
vt 0.037098 0.247774
vt 0.372042 0.243047
vt 0.490722 0.243047
vt 0.615490 0.243047
vt 0.840381 0.243047
vt 0.040939 0.243047
vt 0.159619 0.243047
vt 0.500000 0.247774
vt 0.037098 0.247774
vn 0.8256 -0.3021 0.4766
vn -0.8389 -0.3074 0.4492
vn -0.0000 -0.3124 -0.9499
vn 0.8084 -0.3074 -0.5019
vn -0.0304 -0.3074 0.9511
vn -0.8084 -0.3074 -0.5019
vn -0.0255 -0.6045 0.7962
vn -0.7146 -0.5855 0.3827
vn -0.0000 -0.5931 -0.8051
vn -0.6943 -0.5762 -0.4311
vn 0.6882 -0.6071 0.3973
vn 0.6768 -0.6045 -0.4202
vn 0.8746 0.2681 0.4040
vn -0.8389 0.3074 0.4492
vn -0.0000 0.3124 -0.9499
vn 0.8615 0.2738 -0.4276
vn -0.0304 0.3074 0.9511
vn -0.8084 0.3074 -0.5019
vn -0.0255 0.6045 0.7962
vn -0.7146 0.5855 0.3827
vn -0.0000 0.5931 -0.8051
vn -0.6943 0.5762 -0.4311
vn 0.6882 0.6071 0.3973
vn 0.6768 0.6045 -0.4202
vn 0.7931 0.4344 -0.4270
vn 0.8066 0.4314 0.4041
vn 0.8245 0.3149 0.4701
vn -0.8830 0.2030 0.4232
vn 0.8084 0.3074 -0.5019
vn -0.0568 0.3700 0.9273
vn -0.8529 0.2061 -0.4796
vn -0.8186 0.3235 -0.4746
vn -0.0483 0.2973 0.9536
vn -0.8475 0.3240 0.4204
vn 0.8278 0.3001 0.4740
vn -0.7598 -0.4811 -0.4373
vn -0.0226 -0.2559 0.9664
vn 0.7136 -0.5365 -0.4505
vn 0.0338 -0.5004 -0.8651
vn -0.8219 -0.3930 0.4123
vn 0.7826 -0.4562 0.4236
vn -0.8424 -0.2453 -0.4798
vn -0.0207 -0.3234 0.9460
vn 0.8313 -0.2200 -0.5104
vn 0.0379 -0.2521 -0.9670
vn -0.8599 -0.2778 0.4282
vn 0.8571 -0.2408 0.4554
usemtl Green
s off
f 45/1/1 49/2/1 4/3/1 7/4/1
f 46/5/2 50/6/2 1/7/2 3/8/2
f 47/9/3 48/10/3 5/11/3 6/12/3
f 48/10/4 45/13/4 7/14/4 5/11/4
f 49/2/5 46/5/5 3/8/5 4/3/5
f 50/15/6 47/9/6 6/12/6 1/16/6
f 3/8/7 2/17/7 4/3/7
f 1/18/8 2/17/8 3/8/8
f 5/11/9 2/19/9 6/12/9
f 6/12/10 2/20/10 1/16/10
f 2/19/11 7/14/11 4/3/11
f 2/19/12 5/11/12 7/14/12
f 22/21/13 20/22/13 17/23/13 23/24/13
f 24/25/14 16/26/14 14/27/14 25/28/14
f 26/29/15 19/30/15 18/31/15 21/32/15
f 21/32/16 18/31/16 20/33/16 22/34/16
f 23/24/17 17/23/17 16/26/17 24/25/17
f 25/35/18 14/36/18 19/30/18 26/29/18
f 16/26/19 17/23/19 15/37/19
f 14/38/20 16/26/20 15/37/20
f 18/31/21 19/30/21 15/39/21
f 19/30/22 14/36/22 15/40/22
f 15/39/23 17/23/23 20/33/23
f 15/39/24 20/33/24 18/31/24
f 29/41/18 25/35/18 26/29/18 32/42/18
f 28/43/17 23/24/17 24/25/17 31/44/17
f 27/45/25 21/32/25 22/34/25 30/46/25
f 32/42/15 26/29/15 21/32/15 27/45/15
f 31/44/14 24/25/14 25/28/14 29/47/14
f 30/48/26 22/21/26 23/24/26 28/43/26
f 36/49/27 30/48/27 28/43/27 34/50/27
f 37/51/28 31/44/28 29/47/28 35/52/28
f 38/53/15 32/42/15 27/45/15 33/54/15
f 33/54/29 27/45/29 30/46/29 36/55/29
f 34/50/30 28/43/30 31/44/30 37/51/30
f 35/56/31 29/41/31 32/42/31 38/53/31
f 13/57/32 35/56/32 38/53/32 8/58/32
f 11/59/33 34/50/33 37/51/33 12/60/33
f 9/61/29 33/54/29 36/55/29 10/62/29
f 8/58/15 38/53/15 33/54/15 9/61/15
f 12/60/34 37/51/34 35/52/34 13/63/34
f 10/64/35 36/49/35 34/50/35 11/59/35
f 13/57/36 8/58/36 44/65/36 43/66/36
f 11/59/37 12/60/37 42/67/37 41/68/37
f 9/61/38 10/62/38 40/69/38 39/70/38
f 8/58/39 9/61/39 39/70/39 44/65/39
f 12/60/40 13/63/40 43/71/40 42/67/40
f 10/64/41 11/59/41 41/68/41 40/72/41
f 43/66/42 44/65/42 47/9/42 50/15/42
f 41/68/43 42/67/43 46/5/43 49/2/43
f 39/70/44 40/69/44 45/13/44 48/10/44
f 44/65/45 39/70/45 48/10/45 47/9/45
f 42/67/46 43/71/46 50/6/46 46/5/46
f 40/72/47 41/68/47 49/2/47 45/1/47
