# Blender v2.79 (sub 0) OBJ File: 'Crystal5_Damaged.blend'
# www.blender.org
mtllib Crystal5_Damaged.mtl
o Crystal5_Damaged_Cylinder.005
v 0.174366 0.066643 -0.262576
v 0.121171 0.213887 -0.182470
v 0.314580 0.075404 0.019717
v 0.218609 0.213887 0.013702
v 0.140215 0.070722 0.282293
v 0.097439 0.213887 0.196172
v -0.174366 0.066699 0.262576
v -0.121171 0.213887 0.182470
v -0.314580 0.081200 -0.019717
v -0.210981 0.209528 -0.013702
v -0.140215 0.068702 -0.282293
v -0.097439 0.213887 -0.196172
v 0.165322 0.091675 -0.248958
v 0.280830 0.101974 0.018694
v 0.125581 0.097543 0.273424
v -0.165322 0.091721 0.248958
v -0.287368 0.118469 -0.018694
v -0.131767 0.089169 -0.265717
v 0.149041 0.136743 -0.224439
v 0.268890 0.148791 0.016853
v 0.119850 0.144369 0.241293
v -0.149041 0.136772 0.224439
v -0.268890 0.144369 -0.016853
v -0.119850 0.144369 -0.241293
v 0.022168 -0.198805 -0.033382
v 0.039994 -0.198237 0.002507
v 0.017826 -0.197861 0.035889
v -0.022168 -0.198801 0.033382
v -0.039994 -0.197861 -0.002507
v -0.017826 -0.198671 -0.035889
v -0.000000 -0.217192 -0.000000
v -0.095667 -0.069162 0.142251
v 0.098267 -0.066081 -0.147979
v -0.177287 -0.058331 -0.011112
v -0.079020 -0.064985 -0.159091
v 0.177287 -0.061417 0.011112
v 0.079020 -0.058331 0.159091
v -0.065147 -0.112722 0.091641
v -0.052051 -0.113603 -0.099346
v 0.056072 -0.110655 0.112890
v 0.069729 -0.115852 -0.105005
v -0.125802 -0.110655 -0.007885
v 0.111680 -0.112724 0.007885
vn 0.7576 0.5229 -0.3907
vn 0.6963 0.5439 0.4683
vn -0.0617 0.5114 0.8571
vn -0.7505 0.5517 0.3638
vn -0.0067 1.0000 -0.0004
vn -0.6926 0.5710 -0.4408
vn 0.0617 0.5113 -0.8572
vn -0.6823 -0.6236 0.3816
vn -0.0244 -0.6252 -0.7801
vn -0.1039 -0.6137 0.7826
vn 0.7293 -0.6254 -0.2775
vn -0.6288 -0.6237 -0.4643
vn 0.6794 -0.6198 0.3928
vn 0.0492 0.5527 -0.8319
vn -0.6724 0.5621 -0.4815
vn -0.7551 0.5202 0.3991
vn -0.0733 0.3902 0.9178
vn 0.6343 0.6518 0.4157
vn 0.6817 0.6482 -0.3394
vn 0.0572 0.4399 -0.8962
vn -0.7408 0.4416 -0.5061
vn -0.7669 0.5031 0.3985
vn -0.0751 0.5296 0.8449
vn 0.7927 0.3345 0.5096
vn 0.8413 0.3583 -0.4048
vn 0.3978 -0.8756 0.2740
vn -0.4086 -0.8778 -0.2500
vn 0.4298 -0.8806 -0.1996
vn -0.0093 -0.8784 0.4778
vn 0.0264 -0.8829 -0.4688
vn -0.4367 -0.8784 0.1939
vn 0.6216 -0.6674 0.4102
vn -0.6418 -0.6570 -0.3955
vn 0.6789 -0.6622 -0.3171
vn -0.0343 -0.6776 0.7346
vn 0.0424 -0.6666 -0.7442
vn -0.6832 -0.6614 0.3094
vn 0.6047 -0.6989 0.3820
vn -0.5894 -0.7046 -0.3952
vn 0.6499 -0.7110 -0.2687
vn -0.0591 -0.7116 0.7001
vn 0.0045 -0.7222 -0.6917
vn -0.6352 -0.7022 0.3216
usemtl Cyan
s off
f 19//1 2//1 4//1 20//1
f 20//2 4//2 6//2 21//2
f 21//3 6//3 8//3 22//3
f 22//4 8//4 10//4 23//4
f 4//5 2//5 12//5 10//5 8//5 6//5
f 23//6 10//6 12//6 24//6
f 24//7 12//7 2//7 19//7
f 38//8 42//8 29//8 28//8
f 39//9 41//9 25//9 30//9
f 40//10 38//10 28//10 27//10
f 41//11 43//11 26//11 25//11
f 42//12 39//12 30//12 29//12
f 43//13 40//13 27//13 26//13
f 11//14 18//14 13//14 1//14
f 9//15 17//15 18//15 11//15
f 7//16 16//16 17//16 9//16
f 5//17 15//17 16//17 7//17
f 3//18 14//18 15//18 5//18
f 1//19 13//19 14//19 3//19
f 18//20 24//20 19//20 13//20
f 17//21 23//21 24//21 18//21
f 16//22 22//22 23//22 17//22
f 15//23 21//23 22//23 16//23
f 14//24 20//24 21//24 15//24
f 13//25 19//25 20//25 14//25
f 26//26 27//26 31//26
f 29//27 30//27 31//27
f 25//28 26//28 31//28
f 27//29 28//29 31//29
f 30//30 25//30 31//30
f 28//31 29//31 31//31
f 3//32 5//32 37//32 36//32
f 9//33 11//33 35//33 34//33
f 1//34 3//34 36//34 33//34
f 5//35 7//35 32//35 37//35
f 11//36 1//36 33//36 35//36
f 7//37 9//37 34//37 32//37
f 36//38 37//38 40//38 43//38
f 34//39 35//39 39//39 42//39
f 33//40 36//40 43//40 41//40
f 37//41 32//41 38//41 40//41
f 35//42 33//42 41//42 39//42
f 32//43 34//43 42//43 38//43
