# Blender v2.79 (sub 0) OBJ File: 'Dart_Golden.blend'
# www.blender.org
mtllib Dart_Golden.mtl
o Dart_Golden_Cylinder.006
v 0.005098 -0.323773 -0.002086
v 0.045325 -0.365190 0.068192
v -0.003306 -0.323773 0.002724
v 0.036921 -0.365190 0.073003
v 0.005098 -0.134762 -0.002086
v 0.023116 -0.172914 0.029392
v -0.003306 -0.134762 0.002725
v 0.014712 -0.172914 0.034203
v -0.003306 -0.188452 0.002725
v -0.003306 -0.208668 0.002725
v -0.003306 -0.228883 0.002725
v -0.003306 -0.249098 0.002725
v -0.003306 -0.269314 0.002725
v -0.003306 -0.289529 0.002725
v 0.029659 -0.311192 0.060316
v 0.012386 -0.284974 0.030138
v 0.028390 -0.291744 0.058097
v 0.023238 -0.237991 0.049098
v 0.010736 -0.213825 0.027256
v 0.020592 -0.215945 0.044475
v 0.005098 -0.289529 -0.002086
v 0.005098 -0.269314 -0.002086
v 0.005098 -0.249098 -0.002086
v 0.005098 -0.228883 -0.002086
v 0.005098 -0.208668 -0.002086
v 0.005098 -0.188452 -0.002086
v 0.028996 -0.215945 0.039664
v 0.019140 -0.213825 0.022446
v 0.031642 -0.237991 0.044287
v 0.036793 -0.291744 0.053287
v 0.020789 -0.284974 0.025328
v 0.038063 -0.311192 0.055506
v -0.002915 -0.323773 -0.003026
v 0.037834 -0.365190 -0.073003
v 0.005452 -0.323773 0.001847
v 0.046201 -0.365190 -0.068130
v -0.002915 -0.134762 -0.003026
v 0.015336 -0.172914 -0.034369
v 0.005452 -0.134762 0.001847
v 0.023704 -0.172914 -0.029496
v 0.005452 -0.188452 0.001847
v 0.005452 -0.208668 0.001847
v 0.005452 -0.228883 0.001847
v 0.005452 -0.249098 0.001847
v 0.005452 -0.269314 0.001847
v 0.005452 -0.289529 0.001847
v 0.038845 -0.311192 -0.055498
v 0.021347 -0.284974 -0.025449
v 0.037559 -0.291744 -0.053289
v 0.032341 -0.237991 -0.044328
v 0.019676 -0.213825 -0.022580
v 0.029660 -0.215945 -0.039724
v -0.002915 -0.289529 -0.003026
v -0.002915 -0.269314 -0.003026
v -0.002915 -0.249098 -0.003026
v -0.002915 -0.228883 -0.003026
v -0.002915 -0.208668 -0.003026
v -0.002915 -0.188452 -0.003026
v 0.021292 -0.215945 -0.044597
v 0.011309 -0.213825 -0.027453
v 0.023973 -0.237991 -0.049200
v 0.029191 -0.291744 -0.058161
v 0.012980 -0.284974 -0.030322
v 0.030478 -0.311192 -0.060370
v 0.000277 -0.323773 0.004384
v -0.080699 -0.365190 0.004083
v 0.000313 -0.323773 -0.005299
v -0.080663 -0.365190 -0.005601
v 0.000277 -0.134762 0.004384
v -0.035993 -0.172914 0.004249
v 0.000313 -0.134762 -0.005299
v -0.035957 -0.172914 -0.005434
v 0.000313 -0.188452 -0.005299
v 0.000313 -0.208668 -0.005299
v 0.000313 -0.228883 -0.005299
v 0.000313 -0.249098 -0.005299
v 0.000313 -0.269314 -0.005299
v 0.000313 -0.289529 -0.005299
v -0.066045 -0.311192 -0.005546
v -0.031273 -0.284974 -0.005417
v -0.063489 -0.291744 -0.005537
v -0.053119 -0.237991 -0.005498
v -0.027953 -0.213825 -0.005404
v -0.047792 -0.215945 -0.005478
v 0.000277 -0.289529 0.004384
v 0.000277 -0.269314 0.004384
v 0.000277 -0.249098 0.004384
v 0.000277 -0.228883 0.004384
v 0.000277 -0.208668 0.004384
v 0.000277 -0.188452 0.004384
v -0.047828 -0.215945 0.004205
v -0.027989 -0.213825 0.004279
v -0.053155 -0.237991 0.004185
v -0.063525 -0.291744 0.004146
v -0.031309 -0.284974 0.004266
v -0.066081 -0.311192 0.004137
v 0.000820 0.128627 -0.012415
v 0.000820 -0.345758 -0.012415
v -0.009722 0.128627 -0.006329
v -0.009722 -0.345758 -0.006329
v -0.009722 0.128627 0.005844
v -0.009722 -0.345758 0.005844
v 0.000820 0.128627 0.011930
v 0.000820 -0.345758 0.011930
v 0.011362 0.128627 0.005844
v 0.011362 -0.345758 0.005844
v 0.011362 0.128627 -0.006329
v 0.011362 -0.345758 -0.006329
v 0.000820 0.149629 -0.012415
v -0.034413 0.149629 -0.006329
v -0.034413 0.149629 0.005844
v 0.000820 0.149629 0.011930
v 0.036053 0.149629 0.005844
v 0.036053 0.149629 -0.006329
v 0.000820 0.353931 -0.004027
v -0.002881 0.353931 -0.002135
v -0.002881 0.353931 0.001650
v 0.000820 0.353931 0.003542
v 0.004520 0.353931 0.001650
v 0.004520 0.353931 -0.002135
vn -0.5000 -0.0000 -0.8660
vn -1.0000 -0.0000 -0.0000
vn -0.5000 -0.0000 0.8660
vn 0.5000 0.0000 0.8660
vn 0.0000 -1.0000 0.0000
vn 1.0000 0.0000 0.0000
vn 0.5000 0.0000 -0.8660
vn -0.2262 -0.8903 -0.3952
vn -0.8679 0.0000 0.4968
vn 0.3600 0.6890 0.6290
vn 0.8679 -0.0000 -0.4968
vn -0.4968 0.0000 -0.8679
vn 0.4795 0.2613 0.8377
vn 0.4790 0.2652 0.8368
vn -0.0528 -0.9943 -0.0922
vn 0.3441 0.7213 0.6011
vn 0.4878 0.1894 0.8522
vn -0.1022 -0.9786 -0.1785
vn 0.2991 0.7985 0.5225
vn -0.2292 -0.8903 0.3935
vn 0.8642 -0.0000 0.5032
vn 0.3647 0.6890 -0.6263
vn -0.8642 0.0000 -0.5032
vn -0.5032 0.0000 0.8642
vn 0.4857 0.2613 -0.8341
vn 0.4852 0.2652 -0.8332
vn -0.0535 -0.9943 0.0918
vn 0.3485 0.7213 -0.5985
vn 0.4941 0.1894 -0.8485
vn -0.1035 -0.9786 0.1777
vn 0.3030 0.7985 -0.5203
vn 0.4554 -0.8903 0.0017
vn 0.0037 -0.0000 -1.0000
vn -0.7248 0.6890 -0.0027
vn -0.0037 -0.0000 1.0000
vn 1.0000 0.0000 0.0037
vn -0.9652 0.2613 -0.0036
vn -0.9642 0.2652 -0.0036
vn 0.1063 -0.9943 0.0004
vn -0.6926 0.7213 -0.0026
vn -0.9819 0.1894 -0.0037
vn 0.2057 -0.9786 0.0008
vn -0.6020 0.7985 -0.0022
vn -0.2541 -0.1494 0.9556
vn -0.2005 0.0456 -0.9786
vn 0.2541 -0.1494 -0.9556
vn 0.2541 -0.1494 0.9556
vn -0.6479 -0.7617 0.0000
vn 0.6479 -0.7617 0.0000
vn -0.2541 -0.1494 -0.9556
vn 0.0000 1.0000 -0.0000
vn 0.2005 0.0456 -0.9786
vn 0.2005 0.0456 0.9786
vn -0.9883 0.1525 -0.0000
vn 0.9883 0.1525 0.0000
vn -0.2005 0.0456 0.9786
usemtl LightWood
s off
f 97//1 98//1 100//1 99//1
f 99//2 100//2 102//2 101//2
f 101//3 102//3 104//3 103//3
f 103//4 104//4 106//4 105//4
f 100//5 98//5 108//5 106//5 104//5 102//5
f 105//6 106//6 108//6 107//6
f 107//7 108//7 98//7 97//7
usemtl Golden
f 1//8 2//8 4//8 3//8
f 9//9 20//9 8//9 7//9
f 7//10 8//10 6//10 5//10
f 21//11 32//11 2//11 1//11
f 9//12 7//12 5//12 26//12
f 15//13 4//13 2//13 32//13
f 8//14 20//14 27//14 6//14
f 20//15 19//15 28//15 27//15
f 19//16 18//16 29//16 28//16
f 18//17 17//17 30//17 29//17
f 17//18 16//18 31//18 30//18
f 16//19 15//19 32//19 31//19
f 3//12 14//12 21//12 1//12
f 14//12 13//12 22//12 21//12
f 13//12 12//12 23//12 22//12
f 12//12 11//12 24//12 23//12
f 11//12 10//12 25//12 24//12
f 10//12 9//12 26//12 25//12
f 5//11 6//11 27//11 26//11
f 26//11 27//11 28//11 25//11
f 25//11 28//11 29//11 24//11
f 24//11 29//11 30//11 23//11
f 23//11 30//11 31//11 22//11
f 22//11 31//11 32//11 21//11
f 3//9 4//9 15//9 14//9
f 14//9 15//9 16//9 13//9
f 13//9 16//9 17//9 12//9
f 12//9 17//9 18//9 11//9
f 11//9 18//9 19//9 10//9
f 10//9 19//9 20//9 9//9
f 33//20 34//20 36//20 35//20
f 41//21 52//21 40//21 39//21
f 39//22 40//22 38//22 37//22
f 53//23 64//23 34//23 33//23
f 41//24 39//24 37//24 58//24
f 47//25 36//25 34//25 64//25
f 40//26 52//26 59//26 38//26
f 52//27 51//27 60//27 59//27
f 51//28 50//28 61//28 60//28
f 50//29 49//29 62//29 61//29
f 49//30 48//30 63//30 62//30
f 48//31 47//31 64//31 63//31
f 35//24 46//24 53//24 33//24
f 46//24 45//24 54//24 53//24
f 45//24 44//24 55//24 54//24
f 44//24 43//24 56//24 55//24
f 43//24 42//24 57//24 56//24
f 42//24 41//24 58//24 57//24
f 37//23 38//23 59//23 58//23
f 58//23 59//23 60//23 57//23
f 57//23 60//23 61//23 56//23
f 56//23 61//23 62//23 55//23
f 55//23 62//23 63//23 54//23
f 54//23 63//23 64//23 53//23
f 35//21 36//21 47//21 46//21
f 46//21 47//21 48//21 45//21
f 45//21 48//21 49//21 44//21
f 44//21 49//21 50//21 43//21
f 43//21 50//21 51//21 42//21
f 42//21 51//21 52//21 41//21
f 65//32 66//32 68//32 67//32
f 73//33 84//33 72//33 71//33
f 71//34 72//34 70//34 69//34
f 85//35 96//35 66//35 65//35
f 73//36 71//36 69//36 90//36
f 79//37 68//37 66//37 96//37
f 72//38 84//38 91//38 70//38
f 84//39 83//39 92//39 91//39
f 83//40 82//40 93//40 92//40
f 82//41 81//41 94//41 93//41
f 81//42 80//42 95//42 94//42
f 80//43 79//43 96//43 95//43
f 67//36 78//36 85//36 65//36
f 78//36 77//36 86//36 85//36
f 77//36 76//36 87//36 86//36
f 76//36 75//36 88//36 87//36
f 75//36 74//36 89//36 88//36
f 74//36 73//36 90//36 89//36
f 69//35 70//35 91//35 90//35
f 90//35 91//35 92//35 89//35
f 89//35 92//35 93//35 88//35
f 88//35 93//35 94//35 87//35
f 87//35 94//35 95//35 86//35
f 86//35 95//35 96//35 85//35
f 67//33 68//33 79//33 78//33
f 78//33 79//33 80//33 77//33
f 77//33 80//33 81//33 76//33
f 76//33 81//33 82//33 75//33
f 75//33 82//33 83//33 74//33
f 74//33 83//33 84//33 73//33
f 101//44 103//44 112//44 111//44
f 109//45 110//45 116//45 115//45
f 107//46 97//46 109//46 114//46
f 103//47 105//47 113//47 112//47
f 99//48 101//48 111//48 110//48
f 105//49 107//49 114//49 113//49
f 97//50 99//50 110//50 109//50
f 115//51 116//51 117//51 118//51 119//51 120//51
f 114//52 109//52 115//52 120//52
f 112//53 113//53 119//53 118//53
f 110//54 111//54 117//54 116//54
f 113//55 114//55 120//55 119//55
f 111//56 112//56 118//56 117//56
