# Blender v2.79 (sub 0) OBJ File: 'Gold_Ingots.blend'
# www.blender.org
mtllib Gold_Ingots.mtl
o Gold_Ingots_Cube.045
v -0.418478 -0.001022 0.284400
v -0.417524 0.007004 0.300079
v -0.424606 0.007004 0.281958
v -0.418187 0.001329 0.296468
v -0.422143 0.002370 0.293777
v -0.422520 0.007004 0.294741
v -0.423195 0.001329 0.283654
v -0.402123 0.144753 0.260674
v -0.401283 0.152780 0.240403
v -0.409206 0.144753 0.242553
v -0.401517 0.150429 0.253816
v -0.405706 0.149387 0.251720
v -0.406525 0.150429 0.241002
v -0.407120 0.144753 0.255336
v -0.418478 -0.001022 -0.284400
v -0.424606 0.007004 -0.281958
v -0.417524 0.007004 -0.300079
v -0.423195 0.001329 -0.283654
v -0.422143 0.002370 -0.293777
v -0.422520 0.007004 -0.294741
v -0.418187 0.001329 -0.296468
v -0.401283 0.152780 -0.240403
v -0.402123 0.144753 -0.260674
v -0.409206 0.144753 -0.242553
v -0.401517 0.150429 -0.253816
v -0.405706 0.149387 -0.251720
v -0.407120 0.144753 -0.255336
v -0.406525 0.150429 -0.241002
v -0.196176 -0.001022 0.284400
v -0.190048 0.007004 0.281958
v -0.197130 0.007004 0.300079
v -0.191459 0.001329 0.283654
v -0.192511 0.002370 0.293777
v -0.192134 0.007004 0.294741
v -0.196467 0.001329 0.296468
v -0.213371 0.152780 0.240403
v -0.212531 0.144753 0.260674
v -0.205449 0.144753 0.242553
v -0.213137 0.150429 0.253816
v -0.208948 0.149387 0.251720
v -0.207535 0.144753 0.255336
v -0.208129 0.150429 0.241002
v -0.196176 -0.001022 -0.284400
v -0.197130 0.007004 -0.300079
v -0.190048 0.007004 -0.281958
v -0.196467 0.001329 -0.296468
v -0.192511 0.002370 -0.293777
v -0.192134 0.007004 -0.294741
v -0.191459 0.001329 -0.283654
v -0.213371 0.152780 -0.240403
v -0.205449 0.144753 -0.242553
v -0.212531 0.144753 -0.260674
v -0.208129 0.150429 -0.241002
v -0.208948 0.149387 -0.251720
v -0.207535 0.144753 -0.255336
v -0.213137 0.150429 -0.253816
v -0.176477 -0.001022 0.284400
v -0.175522 0.007004 0.300079
v -0.182605 0.007004 0.281958
v -0.176185 0.001329 0.296468
v -0.180142 0.002370 0.293777
v -0.180519 0.007004 0.294741
v -0.181193 0.001329 0.283654
v -0.160122 0.144753 0.260674
v -0.159282 0.152780 0.240403
v -0.167204 0.144753 0.242553
v -0.159516 0.150429 0.253816
v -0.163705 0.149387 0.251720
v -0.164524 0.150429 0.241002
v -0.165118 0.144753 0.255336
v -0.176477 -0.001022 -0.284400
v -0.182605 0.007004 -0.281958
v -0.175522 0.007004 -0.300079
v -0.181193 0.001329 -0.283654
v -0.180142 0.002370 -0.293777
v -0.180519 0.007004 -0.294741
v -0.176185 0.001329 -0.296468
v -0.159282 0.152780 -0.240403
v -0.160122 0.144753 -0.260674
v -0.167204 0.144753 -0.242553
v -0.159516 0.150429 -0.253816
v -0.163705 0.149387 -0.251720
v -0.165118 0.144753 -0.255336
v -0.164524 0.150429 -0.241002
v 0.045826 -0.001022 0.284400
v 0.051953 0.007004 0.281958
v 0.044871 0.007004 0.300079
v 0.050542 0.001329 0.283654
v 0.049490 0.002370 0.293777
v 0.049867 0.007004 0.294741
v 0.045534 0.001329 0.296468
v 0.028630 0.152780 0.240403
v 0.029471 0.144753 0.260674
v 0.036553 0.144753 0.242553
v 0.028865 0.150429 0.253816
v 0.033054 0.149387 0.251720
v 0.034467 0.144753 0.255336
v 0.033873 0.150429 0.241002
v 0.045826 -0.001022 -0.284400
v 0.044871 0.007004 -0.300079
v 0.051953 0.007004 -0.281958
v 0.045534 0.001329 -0.296468
v 0.049490 0.002370 -0.293777
v 0.049867 0.007004 -0.294741
v 0.050542 0.001329 -0.283654
v 0.028630 0.152780 -0.240403
v 0.036553 0.144753 -0.242553
v 0.029471 0.144753 -0.260674
v 0.033873 0.150429 -0.241002
v 0.033054 0.149387 -0.251720
v 0.034467 0.144753 -0.255336
v 0.028865 0.150429 -0.253816
v 0.067009 -0.001022 0.284400
v 0.067964 0.007004 0.300079
v 0.060882 0.007004 0.281958
v 0.067301 0.001329 0.296468
v 0.063345 0.002370 0.293777
v 0.062968 0.007004 0.294741
v 0.062293 0.001329 0.283654
v 0.083364 0.144753 0.260674
v 0.084205 0.152780 0.240403
v 0.076282 0.144753 0.242553
v 0.083970 0.150429 0.253816
v 0.079781 0.149387 0.251720
v 0.078962 0.150429 0.241002
v 0.078368 0.144753 0.255336
v 0.067009 -0.001022 -0.284400
v 0.060882 0.007004 -0.281958
v 0.067964 0.007004 -0.300079
v 0.062293 0.001329 -0.283654
v 0.063345 0.002370 -0.293777
v 0.062968 0.007004 -0.294741
v 0.067301 0.001329 -0.296468
v 0.084205 0.152780 -0.240403
v 0.083364 0.144753 -0.260674
v 0.076282 0.144753 -0.242553
v 0.083970 0.150429 -0.253816
v 0.079781 0.149387 -0.251720
v 0.078368 0.144753 -0.255336
v 0.078962 0.150429 -0.241002
v 0.289312 -0.001022 0.284400
v 0.295440 0.007004 0.281958
v 0.288357 0.007004 0.300079
v 0.294028 0.001329 0.283654
v 0.292977 0.002370 0.293777
v 0.293354 0.007004 0.294741
v 0.289021 0.001329 0.296468
v 0.272117 0.152780 0.240403
v 0.272957 0.144753 0.260674
v 0.280039 0.144753 0.242553
v 0.272351 0.150429 0.253816
v 0.276540 0.149387 0.251720
v 0.277953 0.144753 0.255336
v 0.277359 0.150429 0.241002
v 0.289312 -0.001022 -0.284400
v 0.288357 0.007004 -0.300079
v 0.295440 0.007004 -0.281958
v 0.289021 0.001329 -0.296468
v 0.292977 0.002370 -0.293777
v 0.293354 0.007004 -0.294741
v 0.294028 0.001329 -0.283654
v 0.272117 0.152780 -0.240403
v 0.280039 0.144753 -0.242553
v 0.272957 0.144753 -0.260674
v 0.277359 0.150429 -0.241002
v 0.276540 0.149387 -0.251720
v 0.277953 0.144753 -0.255336
v 0.272351 0.150429 -0.253816
v 0.170211 0.152666 -0.291448
v 0.169257 0.160693 -0.307127
v 0.176339 0.160693 -0.289005
v 0.169920 0.155017 -0.303516
v 0.173876 0.156059 -0.300824
v 0.174253 0.160693 -0.301789
v 0.174928 0.155017 -0.290702
v 0.153856 0.298441 -0.267722
v 0.153016 0.306468 -0.247450
v 0.160938 0.298441 -0.249601
v 0.153250 0.304117 -0.260864
v 0.157439 0.303076 -0.258768
v 0.158258 0.304117 -0.248050
v 0.158852 0.298441 -0.262384
v 0.170211 0.152666 0.277352
v 0.176339 0.160693 0.274910
v 0.169256 0.160693 0.293031
v 0.174928 0.155017 0.276607
v 0.173876 0.156059 0.286729
v 0.174253 0.160693 0.287693
v 0.169920 0.155017 0.289420
v 0.153016 0.306468 0.233355
v 0.153856 0.298441 0.253626
v 0.160938 0.298441 0.235505
v 0.153250 0.304117 0.246768
v 0.157439 0.303076 0.244673
v 0.158852 0.298441 0.248288
v 0.158258 0.304117 0.233954
v -0.052091 0.152666 -0.291448
v -0.058219 0.160693 -0.289005
v -0.051137 0.160693 -0.307127
v -0.056808 0.155017 -0.290702
v -0.055756 0.156059 -0.300824
v -0.056133 0.160693 -0.301789
v -0.051800 0.155017 -0.303516
v -0.034896 0.306468 -0.247451
v -0.035737 0.298441 -0.267722
v -0.042819 0.298441 -0.249601
v -0.035131 0.304117 -0.260864
v -0.039319 0.303076 -0.258768
v -0.040733 0.298441 -0.262384
v -0.040138 0.304117 -0.248050
v -0.052092 0.152666 0.277352
v -0.051137 0.160693 0.293031
v -0.058219 0.160693 0.274910
v -0.051800 0.155017 0.289420
v -0.055756 0.156059 0.286729
v -0.056133 0.160693 0.287693
v -0.056808 0.155017 0.276607
v -0.034896 0.306468 0.233355
v -0.042819 0.298441 0.235505
v -0.035737 0.298441 0.253626
v -0.040139 0.304117 0.233954
v -0.039319 0.303076 0.244673
v -0.040733 0.298441 0.248288
v -0.035131 0.304117 0.246768
v -0.079965 0.152666 -0.291448
v -0.080919 0.160693 -0.307127
v -0.073837 0.160693 -0.289005
v -0.080256 0.155017 -0.303516
v -0.076300 0.156059 -0.300824
v -0.075923 0.160693 -0.301789
v -0.075248 0.155017 -0.290702
v -0.096320 0.298441 -0.267722
v -0.097160 0.306468 -0.247451
v -0.089238 0.298441 -0.249601
v -0.096926 0.304117 -0.260864
v -0.092737 0.303076 -0.258768
v -0.091918 0.304117 -0.248050
v -0.091324 0.298441 -0.262384
v -0.079965 0.152666 0.277352
v -0.073837 0.160693 0.274910
v -0.080919 0.160693 0.293031
v -0.075248 0.155017 0.276607
v -0.076300 0.156059 0.286729
v -0.075923 0.160693 0.287693
v -0.080256 0.155017 0.289420
v -0.097160 0.306468 0.233355
v -0.096320 0.298441 0.253626
v -0.089238 0.298441 0.235505
v -0.096926 0.304117 0.246768
v -0.092737 0.303076 0.244673
v -0.091324 0.298441 0.248288
v -0.091918 0.304117 0.233954
v -0.302267 0.152666 -0.291448
v -0.308395 0.160693 -0.289005
v -0.301313 0.160693 -0.307127
v -0.306984 0.155017 -0.290702
v -0.305932 0.156059 -0.300824
v -0.306309 0.160693 -0.301789
v -0.301976 0.155017 -0.303516
v -0.285072 0.306468 -0.247451
v -0.285913 0.298441 -0.267722
v -0.292995 0.298441 -0.249601
v -0.285306 0.304117 -0.260864
v -0.289495 0.303076 -0.258768
v -0.290909 0.298441 -0.262384
v -0.290314 0.304117 -0.248050
v -0.302267 0.152666 0.277352
v -0.301313 0.160693 0.293031
v -0.308395 0.160693 0.274910
v -0.301976 0.155017 0.289420
v -0.305932 0.156059 0.286729
v -0.306309 0.160693 0.287693
v -0.306984 0.155017 0.276607
v -0.285072 0.306468 0.233355
v -0.292995 0.298441 0.235505
v -0.285913 0.298441 0.253626
v -0.290315 0.304117 0.233954
v -0.289495 0.303076 0.244673
v -0.290909 0.298441 0.248288
v -0.285307 0.304117 0.246768
v -0.176477 0.296870 0.284400
v -0.175522 0.304897 0.300079
v -0.182605 0.304897 0.281958
v -0.176185 0.299221 0.296468
v -0.180142 0.300262 0.293777
v -0.180519 0.304897 0.294741
v -0.181193 0.299221 0.283654
v -0.160122 0.442645 0.260674
v -0.159282 0.450672 0.240403
v -0.167204 0.442645 0.242553
v -0.159516 0.448321 0.253816
v -0.163705 0.447279 0.251720
v -0.164524 0.448321 0.241002
v -0.165118 0.442645 0.255336
v -0.176477 0.296870 -0.284400
v -0.182605 0.304897 -0.281958
v -0.175522 0.304897 -0.300079
v -0.181193 0.299221 -0.283654
v -0.180142 0.300262 -0.293777
v -0.180519 0.304897 -0.294741
v -0.176185 0.299221 -0.296468
v -0.159282 0.450672 -0.240403
v -0.160122 0.442645 -0.260674
v -0.167204 0.442645 -0.242553
v -0.159516 0.448321 -0.253816
v -0.163705 0.447279 -0.251720
v -0.165118 0.442645 -0.255336
v -0.164524 0.448321 -0.241002
v 0.045826 0.296870 0.284400
v 0.051953 0.304897 0.281958
v 0.044871 0.304897 0.300079
v 0.050542 0.299221 0.283654
v 0.049490 0.300262 0.293777
v 0.049867 0.304897 0.294741
v 0.045534 0.299221 0.296468
v 0.028630 0.450672 0.240403
v 0.029471 0.442645 0.260674
v 0.036553 0.442645 0.242553
v 0.028865 0.448321 0.253816
v 0.033054 0.447279 0.251720
v 0.034467 0.442645 0.255336
v 0.033873 0.448321 0.241002
v 0.045826 0.296870 -0.284400
v 0.044871 0.304897 -0.300079
v 0.051953 0.304897 -0.281958
v 0.045534 0.299221 -0.296468
v 0.049490 0.300262 -0.293777
v 0.049867 0.304897 -0.294741
v 0.050542 0.299221 -0.283654
v 0.028630 0.450672 -0.240403
v 0.036553 0.442645 -0.242553
v 0.029471 0.442645 -0.260674
v 0.033873 0.448321 -0.241002
v 0.033054 0.447279 -0.251720
v 0.034467 0.442645 -0.255336
v 0.028865 0.448321 -0.253816
vn 0.0000 0.2750 0.9614
vn 0.9938 0.1111 -0.0000
vn 0.0000 1.0000 0.0000
vn -0.9938 0.1111 0.0000
vn 0.0000 0.2750 -0.9614
vn -0.4145 -0.8955 0.1620
vn -0.6574 -0.2903 0.6953
vn -0.9771 -0.1594 0.1411
vn -0.5176 0.6575 0.5475
vn -0.3546 0.9247 0.1386
vn -0.8976 0.4213 0.1296
vn -0.4145 -0.8955 -0.1620
vn -0.9771 -0.1595 -0.1411
vn -0.6574 -0.2903 -0.6953
vn -0.3546 0.9247 -0.1386
vn -0.5176 0.6575 -0.5475
vn -0.8976 0.4213 -0.1296
vn 0.4145 -0.8955 0.1620
vn 0.9771 -0.1595 0.1411
vn 0.6574 -0.2903 0.6953
vn 0.3546 0.9247 0.1386
vn 0.5176 0.6575 0.5475
vn 0.8976 0.4213 0.1296
vn 0.4145 -0.8955 -0.1620
vn 0.6574 -0.2903 -0.6953
vn 0.9771 -0.1594 -0.1411
vn 0.3546 0.9247 -0.1386
vn 0.8976 0.4213 -0.1296
vn 0.5176 0.6575 -0.5475
vn -0.4461 -0.8950 0.0000
vn -0.9704 -0.2413 0.0000
vn -0.7036 0.2670 0.6585
vn -0.9751 0.1545 0.1591
vn -0.4092 0.9124 0.0000
vn -0.9042 0.4270 0.0000
vn -0.7036 0.2670 -0.6585
vn -0.9751 0.1545 -0.1591
vn 0.0000 -0.9815 -0.1912
vn 0.0000 -0.5368 -0.8437
vn 0.0000 0.9850 -0.1726
vn 0.0000 0.7704 -0.6376
vn 0.9751 0.1545 -0.1591
vn 0.7036 0.2670 -0.6585
vn 0.4461 -0.8950 0.0000
vn 0.9704 -0.2413 -0.0000
vn 0.4092 0.9124 0.0000
vn 0.9042 0.4270 0.0000
vn 0.7036 0.2670 0.6585
vn 0.9751 0.1545 0.1591
vn 0.0000 -0.9815 0.1912
vn 0.0000 -0.5368 0.8437
vn 0.0000 0.9850 0.1726
vn 0.0000 0.7704 0.6376
vn 0.0000 -1.0000 0.0000
vn 0.9705 -0.2413 -0.0000
vn -0.9771 -0.1595 0.1411
vn 0.9771 -0.1595 -0.1411
vn -0.9705 -0.2413 0.0000
vn -0.5176 0.6575 0.5474
vn -0.4092 0.9125 -0.0000
vn 0.9771 -0.1594 0.1411
usemtl Gold
s off
f 31//1 37//1 8//1 2//1
f 45//2 51//2 38//2 30//2
f 50//3 22//3 9//3 36//3
f 3//4 10//4 24//4 16//4
f 17//5 23//5 52//5 44//5
f 1//6 4//6 5//6 7//6
f 2//7 6//7 5//7 4//7
f 3//8 7//8 5//8 6//8
f 8//9 11//9 12//9 14//9
f 9//10 13//10 12//10 11//10
f 10//11 14//11 12//11 13//11
f 15//12 18//12 19//12 21//12
f 16//13 20//13 19//13 18//13
f 17//14 21//14 19//14 20//14
f 22//15 25//15 26//15 28//15
f 23//16 27//16 26//16 25//16
f 24//17 28//17 26//17 27//17
f 29//18 32//18 33//18 35//18
f 30//19 34//19 33//19 32//19
f 31//20 35//20 33//20 34//20
f 36//21 39//21 40//21 42//21
f 37//22 41//22 40//22 39//22
f 38//23 42//23 40//23 41//23
f 43//24 46//24 47//24 49//24
f 44//25 48//25 47//25 46//25
f 45//26 49//26 47//26 48//26
f 50//27 53//27 54//27 56//27
f 51//28 55//28 54//28 53//28
f 52//29 56//29 54//29 55//29
f 15//30 1//30 7//30 18//30
f 18//31 7//31 3//31 16//31
f 2//32 8//32 14//32 6//32
f 6//33 14//33 10//33 3//33
f 9//34 22//34 28//34 13//34
f 13//35 28//35 24//35 10//35
f 23//36 17//36 20//36 27//36
f 27//37 20//37 16//37 24//37
f 43//38 15//38 21//38 46//38
f 46//39 21//39 17//39 44//39
f 22//40 50//40 56//40 25//40
f 25//41 56//41 52//41 23//41
f 51//42 45//42 48//42 55//42
f 55//43 48//43 44//43 52//43
f 29//44 43//44 49//44 32//44
f 32//45 49//45 45//45 30//45
f 50//46 36//46 42//46 53//46
f 53//47 42//47 38//47 51//47
f 37//48 31//48 34//48 41//48
f 41//49 34//49 30//49 38//49
f 1//50 29//50 35//50 4//50
f 4//51 35//51 31//51 2//51
f 36//52 9//52 11//52 39//52
f 39//53 11//53 8//53 37//53
f 15//54 43//54 29//54 1//54
f 87//1 93//1 64//1 58//1
f 101//2 107//2 94//2 86//2
f 106//3 78//3 65//3 92//3
f 59//4 66//4 80//4 72//4
f 73//5 79//5 108//5 100//5
f 57//6 60//6 61//6 63//6
f 58//7 62//7 61//7 60//7
f 59//8 63//8 61//8 62//8
f 64//9 67//9 68//9 70//9
f 65//10 69//10 68//10 67//10
f 66//11 70//11 68//11 69//11
f 71//12 74//12 75//12 77//12
f 72//13 76//13 75//13 74//13
f 73//14 77//14 75//14 76//14
f 78//15 81//15 82//15 84//15
f 79//16 83//16 82//16 81//16
f 80//17 84//17 82//17 83//17
f 85//18 88//18 89//18 91//18
f 86//19 90//19 89//19 88//19
f 87//20 91//20 89//20 90//20
f 92//21 95//21 96//21 98//21
f 93//22 97//22 96//22 95//22
f 94//23 98//23 96//23 97//23
f 99//24 102//24 103//24 105//24
f 100//25 104//25 103//25 102//25
f 101//26 105//26 103//26 104//26
f 106//27 109//27 110//27 112//27
f 107//28 111//28 110//28 109//28
f 108//29 112//29 110//29 111//29
f 71//30 57//30 63//30 74//30
f 74//31 63//31 59//31 72//31
f 58//32 64//32 70//32 62//32
f 62//33 70//33 66//33 59//33
f 65//34 78//34 84//34 69//34
f 69//35 84//35 80//35 66//35
f 79//36 73//36 76//36 83//36
f 83//37 76//37 72//37 80//37
f 99//38 71//38 77//38 102//38
f 102//39 77//39 73//39 100//39
f 78//40 106//40 112//40 81//40
f 81//41 112//41 108//41 79//41
f 107//42 101//42 104//42 111//42
f 111//43 104//43 100//43 108//43
f 85//44 99//44 105//44 88//44
f 88//55 105//55 101//55 86//55
f 106//46 92//46 98//46 109//46
f 109//47 98//47 94//47 107//47
f 93//48 87//48 90//48 97//48
f 97//49 90//49 86//49 94//49
f 57//50 85//50 91//50 60//50
f 60//51 91//51 87//51 58//51
f 92//52 65//52 67//52 95//52
f 95//53 67//53 64//53 93//53
f 71//54 99//54 85//54 57//54
f 143//1 149//1 120//1 114//1
f 157//2 163//2 150//2 142//2
f 162//3 134//3 121//3 148//3
f 115//4 122//4 136//4 128//4
f 129//5 135//5 164//5 156//5
f 113//6 116//6 117//6 119//6
f 114//7 118//7 117//7 116//7
f 115//56 119//56 117//56 118//56
f 120//9 123//9 124//9 126//9
f 121//10 125//10 124//10 123//10
f 122//11 126//11 124//11 125//11
f 127//12 130//12 131//12 133//12
f 128//13 132//13 131//13 130//13
f 129//14 133//14 131//14 132//14
f 134//15 137//15 138//15 140//15
f 135//16 139//16 138//16 137//16
f 136//17 140//17 138//17 139//17
f 141//18 144//18 145//18 147//18
f 142//19 146//19 145//19 144//19
f 143//20 147//20 145//20 146//20
f 148//21 151//21 152//21 154//21
f 149//22 153//22 152//22 151//22
f 150//23 154//23 152//23 153//23
f 155//24 158//24 159//24 161//24
f 156//25 160//25 159//25 158//25
f 157//57 161//57 159//57 160//57
f 162//27 165//27 166//27 168//27
f 163//28 167//28 166//28 165//28
f 164//29 168//29 166//29 167//29
f 127//30 113//30 119//30 130//30
f 130//58 119//58 115//58 128//58
f 114//32 120//32 126//32 118//32
f 118//33 126//33 122//33 115//33
f 121//34 134//34 140//34 125//34
f 125//35 140//35 136//35 122//35
f 135//36 129//36 132//36 139//36
f 139//37 132//37 128//37 136//37
f 155//38 127//38 133//38 158//38
f 158//39 133//39 129//39 156//39
f 134//40 162//40 168//40 137//40
f 137//41 168//41 164//41 135//41
f 163//42 157//42 160//42 167//42
f 167//43 160//43 156//43 164//43
f 141//44 155//44 161//44 144//44
f 144//45 161//45 157//45 142//45
f 162//46 148//46 154//46 165//46
f 165//47 154//47 150//47 163//47
f 149//48 143//48 146//48 153//48
f 153//49 146//49 142//49 150//49
f 113//50 141//50 147//50 116//50
f 116//51 147//51 143//51 114//51
f 148//52 121//52 123//52 151//52
f 151//53 123//53 120//53 149//53
f 127//54 155//54 141//54 113//54
f 199//5 205//5 176//5 170//5
f 213//4 219//4 206//4 198//4
f 218//3 190//3 177//3 204//3
f 171//2 178//2 192//2 184//2
f 185//1 191//1 220//1 212//1
f 169//24 172//24 173//24 175//24
f 170//25 174//25 173//25 172//25
f 171//57 175//57 173//57 174//57
f 176//29 179//29 180//29 182//29
f 177//27 181//27 180//27 179//27
f 178//28 182//28 180//28 181//28
f 183//18 186//18 187//18 189//18
f 184//19 188//19 187//19 186//19
f 185//20 189//20 187//20 188//20
f 190//21 193//21 194//21 196//21
f 191//22 195//22 194//22 193//22
f 192//23 196//23 194//23 195//23
f 197//12 200//12 201//12 203//12
f 198//13 202//13 201//13 200//13
f 199//14 203//14 201//14 202//14
f 204//15 207//15 208//15 210//15
f 205//16 209//16 208//16 207//16
f 206//17 210//17 208//17 209//17
f 211//6 214//6 215//6 217//6
f 212//7 216//7 215//7 214//7
f 213//56 217//56 215//56 216//56
f 218//10 221//10 222//10 224//10
f 219//11 223//11 222//11 221//11
f 220//59 224//59 222//59 223//59
f 183//44 169//44 175//44 186//44
f 186//45 175//45 171//45 184//45
f 170//43 176//43 182//43 174//43
f 174//42 182//42 178//42 171//42
f 177//46 190//46 196//46 181//46
f 181//47 196//47 192//47 178//47
f 191//48 185//48 188//48 195//48
f 195//49 188//49 184//49 192//49
f 211//50 183//50 189//50 214//50
f 214//51 189//51 185//51 212//51
f 190//52 218//52 224//52 193//52
f 193//53 224//53 220//53 191//53
f 219//33 213//33 216//33 223//33
f 223//32 216//32 212//32 220//32
f 197//30 211//30 217//30 200//30
f 200//31 217//31 213//31 198//31
f 218//60 204//60 210//60 221//60
f 221//35 210//35 206//35 219//35
f 205//36 199//36 202//36 209//36
f 209//37 202//37 198//37 206//37
f 169//38 197//38 203//38 172//38
f 172//39 203//39 199//39 170//39
f 204//40 177//40 179//40 207//40
f 207//41 179//41 176//41 205//41
f 183//54 211//54 197//54 169//54
f 255//5 261//5 232//5 226//5
f 269//4 275//4 262//4 254//4
f 274//3 246//3 233//3 260//3
f 227//2 234//2 248//2 240//2
f 241//1 247//1 276//1 268//1
f 225//24 228//24 229//24 231//24
f 226//25 230//25 229//25 228//25
f 227//57 231//57 229//57 230//57
f 232//29 235//29 236//29 238//29
f 233//27 237//27 236//27 235//27
f 234//28 238//28 236//28 237//28
f 239//18 242//18 243//18 245//18
f 240//19 244//19 243//19 242//19
f 241//20 245//20 243//20 244//20
f 246//21 249//21 250//21 252//21
f 247//22 251//22 250//22 249//22
f 248//23 252//23 250//23 251//23
f 253//12 256//12 257//12 259//12
f 254//13 258//13 257//13 256//13
f 255//14 259//14 257//14 258//14
f 260//15 263//15 264//15 266//15
f 261//16 265//16 264//16 263//16
f 262//17 266//17 264//17 265//17
f 267//6 270//6 271//6 273//6
f 268//7 272//7 271//7 270//7
f 269//56 273//56 271//56 272//56
f 274//10 277//10 278//10 280//10
f 275//11 279//11 278//11 277//11
f 276//9 280//9 278//9 279//9
f 239//44 225//44 231//44 242//44
f 242//45 231//45 227//45 240//45
f 226//43 232//43 238//43 230//43
f 230//42 238//42 234//42 227//42
f 233//46 246//46 252//46 237//46
f 237//47 252//47 248//47 234//47
f 247//48 241//48 244//48 251//48
f 251//49 244//49 240//49 248//49
f 267//50 239//50 245//50 270//50
f 270//51 245//51 241//51 268//51
f 246//52 274//52 280//52 249//52
f 249//53 280//53 276//53 247//53
f 275//33 269//33 272//33 279//33
f 279//32 272//32 268//32 276//32
f 253//30 267//30 273//30 256//30
f 256//31 273//31 269//31 254//31
f 274//60 260//60 266//60 277//60
f 277//35 266//35 262//35 275//35
f 261//36 255//36 258//36 265//36
f 265//37 258//37 254//37 262//37
f 225//38 253//38 259//38 228//38
f 228//39 259//39 255//39 226//39
f 260//40 233//40 235//40 263//40
f 263//41 235//41 232//41 261//41
f 239//54 267//54 253//54 225//54
f 311//1 317//1 288//1 282//1
f 325//2 331//2 318//2 310//2
f 330//3 302//3 289//3 316//3
f 283//4 290//4 304//4 296//4
f 297//5 303//5 332//5 324//5
f 281//6 284//6 285//6 287//6
f 282//7 286//7 285//7 284//7
f 283//8 287//8 285//8 286//8
f 288//9 291//9 292//9 294//9
f 289//10 293//10 292//10 291//10
f 290//11 294//11 292//11 293//11
f 295//12 298//12 299//12 301//12
f 296//13 300//13 299//13 298//13
f 297//14 301//14 299//14 300//14
f 302//15 305//15 306//15 308//15
f 303//16 307//16 306//16 305//16
f 304//17 308//17 306//17 307//17
f 309//18 312//18 313//18 315//18
f 310//61 314//61 313//61 312//61
f 311//20 315//20 313//20 314//20
f 316//21 319//21 320//21 322//21
f 317//22 321//22 320//22 319//22
f 318//23 322//23 320//23 321//23
f 323//24 326//24 327//24 329//24
f 324//25 328//25 327//25 326//25
f 325//26 329//26 327//26 328//26
f 330//27 333//27 334//27 336//27
f 331//28 335//28 334//28 333//28
f 332//29 336//29 334//29 335//29
f 295//30 281//30 287//30 298//30
f 298//31 287//31 283//31 296//31
f 282//32 288//32 294//32 286//32
f 286//33 294//33 290//33 283//33
f 289//34 302//34 308//34 293//34
f 293//35 308//35 304//35 290//35
f 303//36 297//36 300//36 307//36
f 307//37 300//37 296//37 304//37
f 323//38 295//38 301//38 326//38
f 326//39 301//39 297//39 324//39
f 302//40 330//40 336//40 305//40
f 305//41 336//41 332//41 303//41
f 331//42 325//42 328//42 335//42
f 335//43 328//43 324//43 332//43
f 309//44 323//44 329//44 312//44
f 312//55 329//55 325//55 310//55
f 330//46 316//46 322//46 333//46
f 333//47 322//47 318//47 331//47
f 317//48 311//48 314//48 321//48
f 321//49 314//49 310//49 318//49
f 281//50 309//50 315//50 284//50
f 284//51 315//51 311//51 282//51
f 316//52 289//52 291//52 319//52
f 319//53 291//53 288//53 317//53
f 295//54 323//54 309//54 281//54
