# Blender v2.79 (sub 0) OBJ File: 'Heart_Half.blend'
# www.blender.org
mtllib Heart_Half.mtl
o Heart_Half_Cube.005
v 0.304662 0.214455 -0.185649
v 0.273109 0.184176 -0.194814
v 0.291657 0.260855 -0.178068
v 0.345266 0.193563 -0.176161
v 0.319242 0.128371 -0.181894
v 0.236550 0.243407 -0.183471
v 0.342378 0.252507 -0.159966
v 0.418845 0.157614 -0.000000
v 0.410601 0.159675 -0.075127
v 0.417101 0.241538 -0.000000
v 0.410601 0.159675 0.075127
v 0.394918 0.061135 -0.000000
v 0.386665 0.065516 -0.078422
v 0.408370 0.238112 -0.067758
v 0.408370 0.238112 0.067758
v 0.386665 0.065516 0.078422
v 0.047864 0.250003 0.000000
v 0.052932 0.240652 -0.079699
v 0.030125 0.215577 0.000000
v 0.052932 0.240652 0.079699
v 0.076579 0.282121 -0.000000
v 0.083128 0.271781 -0.079747
v 0.032870 0.207649 -0.079684
v 0.032870 0.207649 0.079684
v 0.083128 0.271781 0.079747
v 0.122620 0.106439 0.196231
v 0.174820 0.123156 0.195289
v 0.093476 0.165849 0.181975
v 0.070282 0.092908 0.196374
v 0.149236 0.040415 0.193849
v 0.214152 0.049536 0.189088
v 0.135516 0.189058 0.182211
v 0.054827 0.144226 0.181896
v 0.083708 0.034092 0.194751
v 0.136517 -0.128100 0.151828
v 0.156052 -0.086794 0.167266
v 0.087476 -0.144822 0.148681
v 0.162914 -0.149569 0.137313
v 0.212743 -0.092913 0.154328
v 0.089443 -0.089327 0.168154
v 0.094932 -0.189602 0.124107
v 0.136517 -0.128100 -0.151828
v 0.087476 -0.144822 -0.148681
v 0.156052 -0.086794 -0.167266
v 0.162914 -0.149569 -0.137313
v 0.094932 -0.189602 -0.124107
v 0.089443 -0.089327 -0.168154
v 0.212743 -0.092913 -0.154328
v 0.203372 -0.187218 -0.000000
v 0.199267 -0.182585 -0.056886
v 0.283324 -0.116676 -0.000000
v 0.199267 -0.182585 0.056886
v 0.113183 -0.248736 -0.000000
v 0.111155 -0.242166 -0.048492
v 0.277041 -0.112237 -0.067682
v 0.277041 -0.112237 0.067682
v 0.111155 -0.242166 0.048492
v 0.304662 0.214455 0.185649
v 0.345266 0.193563 0.176161
v 0.291657 0.260855 0.178068
v 0.273109 0.184176 0.194814
v 0.319242 0.128371 0.181894
v 0.342378 0.252507 0.159966
v 0.236550 0.243407 0.183471
v 0.264412 0.346451 0.000000
v 0.266417 0.336850 -0.077411
v 0.188890 0.334821 0.000000
v 0.266417 0.336850 0.077411
v 0.334760 0.337870 -0.000000
v 0.331518 0.328022 -0.069270
v 0.194186 0.324664 -0.079999
v 0.194186 0.324664 0.079999
v 0.331518 0.328022 0.069270
v 0.122620 0.106439 -0.196231
v 0.070282 0.092908 -0.196374
v 0.093476 0.165849 -0.181975
v 0.174820 0.123156 -0.195289
v 0.149236 0.040415 -0.193849
v 0.083708 0.034092 -0.194751
v 0.054827 0.144226 -0.181896
v 0.135516 0.189058 -0.182211
v 0.214152 0.049536 -0.189088
v 0.210072 0.294193 -0.145866
v 0.274732 0.308250 -0.141281
v 0.330991 0.299296 -0.126579
v 0.381499 0.295878 -0.063434
v 0.389226 0.304444 -0.000000
v 0.381499 0.295878 0.063434
v 0.105072 -0.222454 0.091642
v 0.186073 -0.169698 0.105435
v 0.254684 -0.102966 0.123184
v 0.254684 -0.102966 -0.123184
v 0.186073 -0.169698 -0.105435
v 0.105072 -0.222454 -0.091642
v 0.102773 0.240760 0.145236
v 0.068136 0.212601 0.145118
v 0.041104 0.183866 0.145079
v 0.017874 0.173709 -0.079684
v 0.017874 0.179998 0.000000
v 0.017874 0.173709 0.079684
v 0.017874 -0.296362 -0.041300
v 0.017874 -0.305742 0.000000
v 0.017874 -0.296362 0.041300
v 0.017874 -0.096186 0.163017
v 0.050798 -0.150525 0.140461
v 0.017874 -0.221323 0.112806
v 0.017874 -0.096186 -0.163017
v 0.050798 -0.150525 -0.140461
v 0.017874 -0.221323 -0.112806
v 0.383141 0.238285 -0.124689
v 0.386024 0.170208 -0.137949
v 0.361557 0.085611 -0.143501
v 0.383141 0.238285 0.124689
v 0.386024 0.170208 0.137949
v 0.361557 0.085611 0.143501
v 0.017874 0.123396 0.181896
v 0.063369 0.083366 0.196117
v 0.017874 0.029166 0.193724
v 0.017874 0.123396 -0.181896
v 0.063369 0.083366 -0.196117
v 0.017874 0.029166 -0.193724
v 0.340749 -0.029932 -0.076366
v 0.348638 -0.034697 -0.000000
v 0.340749 -0.029932 0.076366
v 0.041104 0.183866 -0.145079
v 0.068136 0.212601 -0.145118
v 0.102773 0.240760 -0.145236
v 0.330991 0.299296 0.126579
v 0.274732 0.308250 0.141281
v 0.210072 0.294192 0.145866
v 0.182642 0.214646 0.182684
v 0.225458 0.147567 0.194499
v 0.272729 0.074504 0.183944
v 0.128523 0.300097 -0.079841
v 0.121758 0.310778 -0.000000
v 0.128523 0.300097 0.079841
v 0.233472 -0.024817 0.172477
v 0.163616 -0.026053 0.181852
v 0.091348 -0.028046 0.183265
v 0.091348 -0.028046 -0.183265
v 0.163616 -0.026053 -0.181852
v 0.233472 -0.024817 -0.172477
v 0.182642 0.214646 -0.182684
v 0.225458 0.147567 -0.194499
v 0.272729 0.074504 -0.183944
v 0.366695 0.279466 0.106868
v 0.366695 0.279466 -0.106868
v 0.050798 -0.249666 -0.079827
v 0.017874 0.154842 -0.145079
v 0.050798 -0.249666 0.079827
v 0.017874 0.154842 0.145079
v 0.310767 -0.011654 -0.148803
v 0.310767 -0.011654 0.148803
v -0.017683 -0.034442 0.180697
v -0.017683 -0.034442 -0.180697
v 0.148818 0.268053 -0.145472
v 0.148818 0.268053 0.145472
v 0.017874 0.165653 0.000000
v 0.017874 -0.289424 0.000000
v 0.017874 -0.094769 0.000000
v 0.050798 -0.146313 0.000000
v 0.017874 -0.214583 0.000000
v 0.017874 0.115473 0.000000
v 0.063369 0.077247 0.000000
v 0.017874 0.025251 0.000000
v 0.050798 -0.240931 0.000000
v 0.017874 0.145581 0.000000
v -0.017683 -0.035822 -0.000000
vn 0.2503 0.0002 -0.9682
vn 0.1128 -0.0984 -0.9887
vn 0.6058 -0.1453 -0.7823
vn 0.4269 -0.2324 -0.8739
vn 0.0540 0.2006 -0.9782
vn -0.0843 0.5778 -0.8118
vn -0.0907 0.1242 -0.9881
vn -0.2346 0.4738 -0.8488
vn 0.3538 0.2564 -0.8995
vn 0.7043 0.1906 -0.6838
vn 0.3194 0.6260 -0.7114
vn 0.6381 0.5281 -0.5603
vn 0.9641 -0.2401 -0.1136
vn 0.8900 -0.2213 -0.3987
vn 0.8939 -0.4322 -0.1188
vn 0.8078 -0.3981 -0.4347
vn 0.9925 0.0297 -0.1182
vn 0.8983 0.4129 -0.1504
vn 0.9226 0.0852 -0.3761
vn 0.8067 0.4412 -0.3932
vn 0.9925 0.0297 0.1182
vn 0.9226 0.0852 0.3761
vn 0.8983 0.4129 0.1504
vn 0.8067 0.4412 0.3932
vn 0.9641 -0.2401 0.1136
vn 0.8939 -0.4322 0.1188
vn 0.8900 -0.2213 0.3987
vn 0.8078 -0.3981 0.4347
vn -0.7250 0.6752 -0.1362
vn -0.6012 0.6561 -0.4561
vn -0.5262 0.8363 -0.1541
vn -0.4529 0.7417 -0.4947
vn -0.8683 0.4868 -0.0953
vn -0.9299 0.3645 -0.0485
vn -0.7427 0.5662 -0.3574
vn -0.8343 0.5065 -0.2177
vn -0.8683 0.4868 0.0953
vn -0.7427 0.5662 0.3574
vn -0.9299 0.3645 0.0485
vn -0.8343 0.5065 0.2177
vn -0.7250 0.6752 0.1362
vn -0.5262 0.8363 0.1541
vn -0.6012 0.6561 0.4561
vn -0.4529 0.7417 0.4947
vn 0.0563 -0.0348 0.9978
vn 0.0832 -0.0645 0.9944
vn 0.1158 -0.1711 0.9784
vn 0.2592 -0.2112 0.9424
vn -0.0677 0.1772 0.9818
vn -0.3051 0.4496 0.8395
vn -0.0694 0.1420 0.9874
vn -0.2579 0.4428 0.8587
vn -0.0838 0.2186 0.9722
vn -0.1478 0.2053 0.9675
vn -0.3805 0.4944 0.7815
vn -0.4831 0.5832 0.6530
vn 0.0135 -0.0277 0.9995
vn 0.0271 -0.1751 0.9842
vn -0.0112 -0.0323 0.9994
vn -0.0079 -0.1896 0.9818
vn 0.1602 -0.4108 0.8976
vn 0.1566 -0.2754 0.9485
vn 0.4059 -0.5870 0.7005
vn 0.3892 -0.4135 0.8231
vn 0.0394 -0.3467 0.9371
vn -0.0707 -0.3738 0.9248
vn 0.0238 -0.2382 0.9709
vn -0.0218 -0.2631 0.9645
vn 0.1031 -0.4658 0.8788
vn 0.2865 -0.6616 0.6930
vn -0.0226 -0.4076 0.9129
vn 0.1686 -0.6622 0.7301
vn 0.1031 -0.4658 -0.8788
vn -0.0226 -0.4076 -0.9129
vn 0.2865 -0.6616 -0.6930
vn 0.1686 -0.6622 -0.7301
vn 0.0394 -0.3467 -0.9371
vn 0.0238 -0.2382 -0.9709
vn -0.0707 -0.3738 -0.9248
vn -0.0218 -0.2631 -0.9645
vn 0.1602 -0.4108 -0.8976
vn 0.4059 -0.5870 -0.7005
vn 0.1566 -0.2754 -0.9485
vn 0.3892 -0.4135 -0.8231
vn 0.5539 -0.8239 -0.1198
vn 0.4762 -0.7922 -0.3817
vn 0.4966 -0.8526 -0.1627
vn 0.3630 -0.7778 -0.5131
vn 0.6580 -0.7450 -0.1091
vn 0.7782 -0.6173 -0.1160
vn 0.6003 -0.7155 -0.3575
vn 0.7094 -0.5711 -0.4132
vn 0.6580 -0.7450 0.1091
vn 0.6003 -0.7155 0.3575
vn 0.7782 -0.6173 0.1160
vn 0.7094 -0.5711 0.4132
vn 0.5539 -0.8239 0.1198
vn 0.4966 -0.8526 0.1627
vn 0.4762 -0.7922 0.3817
vn 0.3630 -0.7778 0.5131
vn 0.2503 0.0002 0.9682
vn 0.6058 -0.1453 0.7823
vn 0.1128 -0.0984 0.9887
vn 0.4269 -0.2324 0.8739
vn 0.3538 0.2564 0.8995
vn 0.3194 0.6260 0.7114
vn 0.7043 0.1906 0.6838
vn 0.6381 0.5281 0.5603
vn 0.0540 0.2006 0.9782
vn -0.0907 0.1242 0.9881
vn -0.0843 0.5778 0.8118
vn -0.2346 0.4738 0.8488
vn 0.1341 0.9822 -0.1314
vn 0.2070 0.8894 -0.4075
vn 0.5313 0.8321 -0.1594
vn 0.5593 0.7214 -0.4083
vn -0.1556 0.9792 -0.1301
vn -0.3402 0.9288 -0.1468
vn -0.1478 0.8894 -0.4325
vn -0.3277 0.8151 -0.4777
vn -0.1556 0.9792 0.1301
vn -0.1478 0.8894 0.4325
vn -0.3402 0.9288 0.1468
vn -0.3277 0.8151 0.4777
vn 0.1341 0.9822 0.1314
vn 0.5313 0.8321 0.1594
vn 0.2070 0.8894 0.4075
vn 0.5593 0.7214 0.4083
vn 0.0135 -0.0277 -0.9995
vn -0.0112 -0.0323 -0.9994
vn 0.0271 -0.1751 -0.9842
vn -0.0079 -0.1896 -0.9818
vn -0.0838 0.2186 -0.9722
vn -0.3805 0.4944 -0.7815
vn -0.1478 0.2053 -0.9675
vn -0.4831 0.5832 -0.6531
vn -0.0677 0.1772 -0.9818
vn -0.0694 0.1420 -0.9874
vn -0.3051 0.4496 -0.8395
vn -0.2579 0.4428 -0.8587
vn 0.0563 -0.0348 -0.9978
vn 0.1158 -0.1711 -0.9784
vn 0.0832 -0.0645 -0.9944
vn 0.2592 -0.2112 -0.9424
vn -0.8683 0.4960 0.0070
vn -0.8501 -0.5266 -0.0098
vn -1.0000 0.0000 0.0000
vn -0.9051 0.4249 0.0184
vn -0.6543 -0.7557 0.0281
vn -0.6555 -0.7528 -0.0605
vn -0.7591 0.6508 -0.0167
vn -0.8335 0.5479 -0.0709
vn -0.8616 -0.5077 0.0001
vn -0.8683 0.4960 -0.0070
vn -0.8501 -0.5266 0.0098
vn -0.9051 0.4249 -0.0184
vn -0.6543 -0.7557 -0.0281
vn -0.8335 0.5479 0.0709
vn -0.6555 -0.7528 0.0605
vn -0.7591 0.6508 0.0167
vn -0.8616 -0.5077 -0.0001
usemtl Red
s off
f 1//1 4//1 5//1 2//1
f 2//2 5//2 145//2 144//2
f 4//3 111//3 112//3 5//3
f 5//4 112//4 152//4 145//4
f 1//5 2//5 6//5 3//5
f 3//6 6//6 83//6 84//6
f 2//7 144//7 143//7 6//7
f 6//8 143//8 156//8 83//8
f 1//9 3//9 7//9 4//9
f 4//10 7//10 110//10 111//10
f 3//11 84//11 85//11 7//11
f 7//12 85//12 147//12 110//12
f 8//13 12//13 13//13 9//13
f 9//14 13//14 112//14 111//14
f 12//15 123//15 122//15 13//15
f 13//16 122//16 152//16 112//16
f 8//17 9//17 14//17 10//17
f 10//18 14//18 86//18 87//18
f 9//19 111//19 110//19 14//19
f 14//20 110//20 147//20 86//20
f 8//21 10//21 15//21 11//21
f 11//22 15//22 113//22 114//22
f 10//23 87//23 88//23 15//23
f 15//24 88//24 146//24 113//24
f 8//25 11//25 16//25 12//25
f 12//26 16//26 124//26 123//26
f 11//27 114//27 115//27 16//27
f 16//28 115//28 153//28 124//28
f 17//29 21//29 22//29 18//29
f 18//30 22//30 127//30 126//30
f 21//31 135//31 134//31 22//31
f 22//32 134//32 156//32 127//32
f 17//33 18//33 23//33 19//33
f 19//34 23//34 98//34 99//34
f 18//35 126//35 125//35 23//35
f 23//36 125//36 149//36 98//36
f 17//37 19//37 24//37 20//37
f 20//38 24//38 97//38 96//38
f 19//39 99//39 100//39 24//39
f 24//40 100//40 151//40 97//40
f 17//41 20//41 25//41 21//41
f 21//42 25//42 136//42 135//42
f 20//43 96//43 95//43 25//43
f 25//44 95//44 157//44 136//44
f 26//45 30//45 31//45 27//45
f 27//46 31//46 133//46 132//46
f 30//47 138//47 137//47 31//47
f 31//48 137//48 153//48 133//48
f 26//49 27//49 32//49 28//49
f 28//50 32//50 95//50 96//50
f 27//51 132//51 131//51 32//51
f 32//52 131//52 157//52 95//52
f 26//53 28//53 33//53 29//53
f 29//54 33//54 116//54 117//54
f 28//55 96//55 97//55 33//55
f 33//56 97//56 151//56 116//56
f 26//57 29//57 34//57 30//57
f 30//58 34//58 139//58 138//58
f 29//59 117//59 118//59 34//59
f 34//60 118//60 154//60 139//60
f 35//61 38//61 39//61 36//61
f 36//62 39//62 137//62 138//62
f 38//63 90//63 91//63 39//63
f 39//64 91//64 153//64 137//64
f 35//65 36//65 40//65 37//65
f 37//66 40//66 104//66 105//66
f 36//67 138//67 139//67 40//67
f 40//68 139//68 154//68 104//68
f 35//69 37//69 41//69 38//69
f 38//70 41//70 89//70 90//70
f 37//71 105//71 106//71 41//71
f 41//72 106//72 150//72 89//72
f 42//73 45//73 46//73 43//73
f 43//74 46//74 109//74 108//74
f 45//75 93//75 94//75 46//75
f 46//76 94//76 148//76 109//76
f 42//77 43//77 47//77 44//77
f 44//78 47//78 140//78 141//78
f 43//79 108//79 107//79 47//79
f 47//80 107//80 155//80 140//80
f 42//81 44//81 48//81 45//81
f 45//82 48//82 92//82 93//82
f 44//83 141//83 142//83 48//83
f 48//84 142//84 152//84 92//84
f 49//85 53//85 54//85 50//85
f 50//86 54//86 94//86 93//86
f 53//87 102//87 101//87 54//87
f 54//88 101//88 148//88 94//88
f 49//89 50//89 55//89 51//89
f 51//90 55//90 122//90 123//90
f 50//91 93//91 92//91 55//91
f 55//92 92//92 152//92 122//92
f 49//93 51//93 56//93 52//93
f 52//94 56//94 91//94 90//94
f 51//95 123//95 124//95 56//95
f 56//96 124//96 153//96 91//96
f 49//97 52//97 57//97 53//97
f 53//98 57//98 103//98 102//98
f 52//99 90//99 89//99 57//99
f 57//100 89//100 150//100 103//100
f 58//101 61//101 62//101 59//101
f 59//102 62//102 115//102 114//102
f 61//103 132//103 133//103 62//103
f 62//104 133//104 153//104 115//104
f 58//105 59//105 63//105 60//105
f 60//106 63//106 128//106 129//106
f 59//107 114//107 113//107 63//107
f 63//108 113//108 146//108 128//108
f 58//109 60//109 64//109 61//109
f 61//110 64//110 131//110 132//110
f 60//111 129//111 130//111 64//111
f 64//112 130//112 157//112 131//112
f 65//113 69//113 70//113 66//113
f 66//114 70//114 85//114 84//114
f 69//115 87//115 86//115 70//115
f 70//116 86//116 147//116 85//116
f 65//117 66//117 71//117 67//117
f 67//118 71//118 134//118 135//118
f 66//119 84//119 83//119 71//119
f 71//120 83//120 156//120 134//120
f 65//121 67//121 72//121 68//121
f 68//122 72//122 130//122 129//122
f 67//123 135//123 136//123 72//123
f 72//124 136//124 157//124 130//124
f 65//125 68//125 73//125 69//125
f 69//126 73//126 88//126 87//126
f 68//127 129//127 128//127 73//127
f 73//128 128//128 146//128 88//128
f 74//129 78//129 79//129 75//129
f 75//130 79//130 121//130 120//130
f 78//131 141//131 140//131 79//131
f 79//132 140//132 155//132 121//132
f 74//133 75//133 80//133 76//133
f 76//134 80//134 125//134 126//134
f 75//135 120//135 119//135 80//135
f 80//136 119//136 149//136 125//136
f 74//137 76//137 81//137 77//137
f 77//138 81//138 143//138 144//138
f 76//139 126//139 127//139 81//139
f 81//140 127//140 156//140 143//140
f 74//141 77//141 82//141 78//141
f 78//142 82//142 142//142 141//142
f 77//143 144//143 145//143 82//143
f 82//144 145//144 152//144 142//144
f 121//145 155//145 168//145 165//145
f 105//146 104//146 160//146 161//146
f 116//147 151//147 167//147 163//147
f 100//147 99//147 158//147
f 106//148 105//148 161//148 162//148
f 117//149 116//149 163//149 164//149
f 151//147 100//147 158//147 167//147
f 150//150 106//150 162//150 166//150
f 118//151 117//151 164//151 165//151
f 148//152 101//152 159//152 166//152
f 155//153 107//153 160//153 168//153
f 154//154 118//154 165//154 168//154
f 101//147 102//147 159//147
f 107//155 108//155 161//155 160//155
f 149//147 119//147 163//147 167//147
f 102//147 103//147 159//147
f 108//156 109//156 162//156 161//156
f 119//157 120//157 164//157 163//157
f 103//158 150//158 166//158 159//158
f 98//147 149//147 167//147 158//147
f 109//159 148//159 166//159 162//159
f 120//160 121//160 165//160 164//160
f 104//161 154//161 168//161 160//161
f 99//147 98//147 158//147
