# Blender v2.79 (sub 0) OBJ File: 'Key1.blend'
# www.blender.org
mtllib Key1.mtl
o Key1_Cube.008
v 0.017578 -0.021957 0.234549
v 0.012841 0.024484 0.234606
v 0.096383 -0.013918 0.234412
v 0.091645 0.032524 0.234469
v 0.017906 -0.022143 0.413215
v 0.013169 0.024299 0.413272
v 0.096711 -0.014104 0.413078
v 0.091973 0.032338 0.413135
v 0.146621 -0.008977 0.384435
v 0.141884 0.037465 0.384492
v 0.141660 0.037591 0.262939
v 0.146398 -0.008851 0.262882
v 0.096436 -0.013948 0.262969
v 0.012893 0.024455 0.263162
v 0.091698 0.032494 0.263026
v 0.017631 -0.021987 0.263105
v 0.091921 0.032368 0.384579
v 0.017854 -0.022114 0.384658
v 0.096659 -0.014074 0.384522
v 0.013116 0.024328 0.384715
v 0.035518 0.003762 -0.112982
v 0.020344 -0.030040 -0.112989
v -0.016516 -0.033800 -0.112925
v -0.038203 -0.003759 -0.112854
v -0.023029 0.030043 -0.112847
v 0.013831 0.033804 -0.112911
v 0.037740 0.003861 -0.008583
v 0.021730 -0.031803 -0.008590
v -0.017160 -0.035771 -0.008523
v -0.040041 -0.004074 -0.008448
v -0.024032 0.031589 -0.008440
v 0.014859 0.035557 -0.008508
v 0.021664 -0.031766 -0.044508
v 0.021641 -0.031753 -0.057284
v -0.017226 -0.035733 -0.044440
v -0.017249 -0.035720 -0.057216
v -0.040107 -0.004037 -0.044365
v -0.040130 -0.004024 -0.057141
v -0.024098 0.031627 -0.044358
v -0.024121 0.031640 -0.057134
v 0.014793 0.035594 -0.044425
v 0.014769 0.035607 -0.057201
v 0.037650 0.003911 -0.057276
v 0.037674 0.003898 -0.044500
v 0.037130 0.003906 -0.096261
v 0.021305 -0.031346 -0.096269
v 0.027742 -0.040214 -0.063360
v -0.017136 -0.035268 -0.096202
v -0.021537 -0.045241 -0.063275
v -0.039754 -0.003937 -0.096128
v -0.050531 -0.005077 -0.063180
v -0.023929 0.031315 -0.096121
v -0.030245 0.040114 -0.063170
v 0.014513 0.035237 -0.096187
v 0.019035 0.045141 -0.063256
v 0.048071 0.004953 -0.039897
v 0.048118 0.004926 -0.014249
v 0.019125 0.045090 -0.014154
v -0.030155 0.040063 -0.014068
v -0.050441 -0.005128 -0.014078
v -0.021447 -0.045292 -0.014173
v 0.027832 -0.040265 -0.014258
v 0.027785 -0.040238 -0.039907
v -0.021494 -0.045265 -0.039822
v -0.050488 -0.005102 -0.039727
v -0.030202 0.040089 -0.039717
v 0.019078 0.045117 -0.039802
v 0.048028 0.004977 -0.063351
v 0.035179 0.003783 -0.158433
v 0.020111 -0.029785 -0.158440
v -0.016494 -0.033519 -0.158377
v -0.038031 -0.003685 -0.158306
v -0.022962 0.029883 -0.158299
v 0.013643 0.033617 -0.158362
v 0.022979 0.001764 0.472695
v 0.038598 0.003374 0.459049
v 0.013410 -0.019554 0.472690
v 0.022589 -0.032290 0.459041
v -0.009836 -0.021925 0.472730
v -0.016301 -0.036257 0.459109
v -0.023513 -0.002979 0.472775
v -0.039182 -0.004561 0.459184
v -0.013944 0.018338 0.472780
v -0.023173 0.031103 0.459192
v 0.009302 0.020710 0.472739
v 0.015717 0.035070 0.459124
v 0.137338 0.049994 -0.272204
v 0.124407 0.048770 -0.349376
v 0.039384 0.040151 -0.393723
v -0.048029 0.031233 -0.393572
v -0.132888 0.022521 -0.348931
v -0.145536 0.021136 -0.271714
v -0.132605 0.022361 -0.194542
v -0.047582 0.030980 -0.150195
v 0.039831 0.039897 -0.150346
v 0.124691 0.048609 -0.194987
v 0.097360 0.045916 -0.272135
v 0.088085 0.045038 -0.327494
v 0.040855 0.040259 -0.359330
v -0.049373 0.031054 -0.359174
v -0.096486 0.026208 -0.327174
v -0.105558 0.025215 -0.271783
v -0.096282 0.026093 -0.216424
v -0.049053 0.030872 -0.184588
v 0.041176 0.040077 -0.184744
v 0.088288 0.044922 -0.216744
v 0.131043 -0.016272 -0.349456
v 0.143973 -0.015048 -0.272284
v 0.046019 -0.024891 -0.393803
v -0.041393 -0.033809 -0.393652
v -0.126253 -0.042521 -0.349011
v -0.138900 -0.043906 -0.271794
v -0.125970 -0.042681 -0.194622
v -0.040946 -0.034062 -0.150274
v 0.046466 -0.025145 -0.150426
v 0.131326 -0.016433 -0.195067
v 0.094720 -0.020004 -0.327574
v 0.103996 -0.019126 -0.272214
v 0.047490 -0.024783 -0.359410
v -0.042738 -0.033988 -0.359254
v -0.089850 -0.038834 -0.327254
v -0.098923 -0.039827 -0.271863
v -0.089647 -0.038949 -0.216504
v -0.042417 -0.034170 -0.184668
v 0.047811 -0.024965 -0.184824
v 0.094923 -0.020120 -0.216824
v -0.003875 0.035439 -0.150270
v -0.003967 0.035491 -0.200394
v 0.002760 -0.029603 -0.150350
v 0.002668 -0.029551 -0.200474
v -0.004322 0.035692 -0.393648
v -0.004237 0.035644 -0.347225
v 0.002313 -0.029350 -0.393728
v 0.002398 -0.029398 -0.347305
v 0.045916 0.004821 -0.111214
v 0.026463 -0.038514 -0.111224
v -0.020792 -0.043335 -0.111142
v -0.021014 -0.043896 -0.097990
v -0.048594 -0.004821 -0.111051
v 0.026839 -0.039014 -0.098073
v -0.029142 0.038514 -0.111041
v 0.018114 0.043334 -0.111123
v -0.029469 0.038987 -0.097888
v -0.049168 -0.004896 -0.097898
v 0.046538 0.004868 -0.098063
v 0.018384 0.043869 -0.097971
vn -0.0018 0.0010 -1.0000
vn 0.9948 0.1015 -0.0017
vn 0.0018 -0.0010 1.0000
vn -0.9948 -0.1015 0.0017
vn 0.1015 -0.9948 -0.0012
vn -0.1015 0.9948 0.0012
vn 0.8108 0.5853 -0.0009
vn -0.8108 -0.5853 0.0009
vn -0.9123 0.4095 0.0021
vn 0.9123 -0.4095 -0.0021
vn 0.1015 -0.9948 -0.0061
vn 0.0553 -0.5278 0.8475
vn 0.1552 0.1143 -0.9812
vn -0.0549 0.5527 0.8316
vn 0.5092 -0.2287 0.8297
vn -0.4279 -0.3109 0.8487
vn -0.4167 0.1873 -0.8895
vn 0.0234 -0.2129 0.9768
vn -0.4817 0.2160 0.8493
vn -0.5061 0.2270 0.8321
vn -0.0522 0.5261 0.8488
vn -0.1784 0.0803 -0.9807
vn -0.3705 -0.2654 -0.8901
vn 0.8765 -0.3934 -0.2774
vn 0.0971 -0.9561 -0.2766
vn -0.7800 -0.5624 -0.2746
vn -0.8775 0.3940 -0.2734
vn -0.0981 0.9566 -0.2742
vn 0.7789 0.5630 -0.2763
vn 0.4134 -0.1854 -0.8915
vn -0.0478 0.4536 -0.8899
vn 0.4848 -0.2178 0.8471
vn 0.0580 -0.5544 0.8302
vn -0.0198 0.2108 0.9773
vn 0.0178 -0.1916 -0.9813
vn 0.4527 0.3248 0.8304
vn 0.0445 -0.4517 -0.8911
vn 0.3673 0.2672 -0.8909
vn -0.1709 -0.1257 0.9772
vn -0.4496 -0.3266 0.8314
vn 0.4310 0.3092 0.8477
vn -0.1015 0.9948 -0.0037
vn 0.9123 -0.4095 -0.0070
vn -0.8108 -0.5853 -0.0040
vn 0.8108 0.5853 -0.0058
vn -0.9123 0.4095 -0.0028
vn 0.6464 -0.2903 0.7056
vn 0.0731 -0.7042 0.7062
vn -0.5720 -0.4146 0.7077
vn -0.6438 0.2888 0.7086
vn -0.0705 0.7027 0.7080
vn 0.5746 0.4131 0.7065
vn -0.3277 -0.0323 -0.9442
vn -0.9810 -0.1003 0.1660
vn -0.4614 -0.0460 -0.8860
vn -0.5571 -0.0558 -0.8286
vn -0.5540 -0.0575 0.8305
vn -0.9816 -0.0999 -0.1626
vn 0.2568 0.0250 0.9661
vn 0.5571 0.0558 0.8286
vn -0.4581 -0.0478 0.8876
vn 0.9816 0.0999 0.1626
vn 0.9810 0.1003 -0.1660
vn 0.4614 0.0460 0.8860
vn 0.4581 0.0478 -0.8876
vn 0.5540 0.0575 -0.8305
vn 0.3243 0.0342 -0.9454
vn -0.2533 -0.0270 0.9670
vn -0.1015 0.9941 -0.0383
vn 0.1013 -0.9940 -0.0407
vn -0.9117 0.4092 -0.0374
vn -0.8102 -0.5848 -0.0386
vn 0.9115 -0.4092 -0.0416
vn 0.8101 0.5849 -0.0404
vn 0.1748 -0.0783 -0.9815
vn -0.1925 0.0862 0.9775
vn -0.1588 -0.1123 -0.9809
vn 0.1745 0.1236 0.9769
vn 0.1961 -0.0882 0.9766
vn -0.0214 0.1936 -0.9808
usemtl Brown
s off
f 1//1 2//1 4//1 3//1
f 19//2 17//2 8//2 7//2
f 7//3 8//3 6//3 5//3
f 16//4 14//4 2//4 1//4
f 19//5 7//5 5//5 18//5
f 15//6 4//6 2//6 14//6
f 15//6 14//6 20//6 17//6
f 19//5 18//5 16//5 13//5
f 20//4 14//4 16//4 18//4
f 15//6 17//6 10//6 11//6
f 3//2 4//2 15//2 13//2
f 3//5 13//5 16//5 1//5
f 5//4 6//4 20//4 18//4
f 8//6 17//6 20//6 6//6
f 32//7 86//7 76//7 27//7
f 29//8 80//8 82//8 30//8
f 30//9 82//9 84//9 31//9
f 31//6 84//6 86//6 32//6
f 27//10 76//10 78//10 28//10
f 28//5 78//5 80//5 29//5
f 22//11 23//11 71//11 70//11
f 28//12 29//12 61//12 62//12
f 21//13 26//13 142//13 135//13
f 40//14 42//14 55//14 53//14
f 43//15 34//15 47//15 68//15
f 29//16 30//16 60//16 61//16
f 39//17 37//17 65//17 66//17
f 46//18 48//18 138//18 140//18
f 43//10 44//10 33//10 34//10
f 30//19 31//19 59//19 60//19
f 34//5 33//5 35//5 36//5
f 38//20 40//20 53//20 51//20
f 36//8 35//8 37//8 38//8
f 31//21 32//21 58//21 59//21
f 38//9 37//9 39//9 40//9
f 25//22 24//22 139//22 141//22
f 40//6 39//6 41//6 42//6
f 37//23 35//23 64//23 65//23
f 42//7 41//7 44//7 43//7
f 67//7 58//7 57//7 56//7
f 66//6 59//6 58//6 67//6
f 65//9 60//9 59//9 66//9
f 64//8 61//8 60//8 65//8
f 63//5 62//5 61//5 64//5
f 56//10 57//10 62//10 63//10
f 45//24 68//24 47//24 46//24
f 46//25 47//25 49//25 48//25
f 48//26 49//26 51//26 50//26
f 50//27 51//27 53//27 52//27
f 52//28 53//28 55//28 54//28
f 54//29 55//29 68//29 45//29
f 33//30 44//30 56//30 63//30
f 41//31 39//31 66//31 67//31
f 27//32 28//32 62//32 57//32
f 34//33 36//33 49//33 47//33
f 52//34 54//34 146//34 143//34
f 23//35 22//35 136//35 137//35
f 42//36 43//36 68//36 55//36
f 35//37 33//37 63//37 64//37
f 44//38 41//38 67//38 56//38
f 48//39 50//39 144//39 138//39
f 36//40 38//40 51//40 49//40
f 32//41 27//41 57//41 58//41
f 25//42 26//42 74//42 73//42
f 21//43 22//43 70//43 69//43
f 23//44 24//44 72//44 71//44
f 26//45 21//45 69//45 74//45
f 24//46 25//46 73//46 72//46
f 70//1 71//1 74//1 69//1
f 71//1 72//1 73//1 74//1
f 78//47 76//47 75//47 77//47
f 80//48 78//48 77//48 79//48
f 82//49 80//49 79//49 81//49
f 84//50 82//50 81//50 83//50
f 86//51 84//51 83//51 85//51
f 76//52 86//52 85//52 75//52
f 77//3 75//3 85//3 83//3 81//3 79//3
f 13//1 15//1 11//1 12//1
f 17//3 19//3 9//3 10//3
f 19//5 13//5 12//5 9//5
f 9//2 12//2 11//2 10//2
f 92//6 93//6 103//6 102//6
f 131//6 90//6 100//6 132//6
f 96//6 87//6 97//6 106//6
f 93//6 94//6 104//6 103//6
f 90//6 91//6 101//6 100//6
f 87//6 88//6 98//6 97//6
f 127//6 95//6 105//6 128//6
f 91//6 92//6 102//6 101//6
f 88//6 89//6 99//6 98//6
f 95//6 96//6 106//6 105//6
f 112//5 122//5 123//5 113//5
f 133//5 134//5 120//5 110//5
f 116//5 126//5 118//5 108//5
f 113//5 123//5 124//5 114//5
f 110//5 120//5 121//5 111//5
f 108//5 118//5 117//5 107//5
f 129//5 130//5 125//5 115//5
f 111//5 121//5 122//5 112//5
f 107//5 117//5 119//5 109//5
f 115//5 125//5 126//5 116//5
f 131//1 133//1 110//1 90//1
f 128//53 130//53 124//53 104//53
f 98//54 117//54 118//54 97//54
f 90//55 110//55 111//55 91//55
f 106//56 126//56 125//56 105//56
f 99//57 119//57 117//57 98//57
f 91//58 111//58 112//58 92//58
f 97//58 118//58 126//58 106//58
f 132//59 134//59 119//59 99//59
f 92//54 112//54 113//54 93//54
f 101//60 121//60 120//60 100//60
f 93//61 113//61 114//61 94//61
f 102//62 122//62 121//62 101//62
f 127//3 129//3 115//3 95//3
f 87//63 108//63 107//63 88//63
f 103//63 123//63 122//63 102//63
f 95//64 115//64 116//64 96//64
f 88//65 107//65 109//65 89//65
f 104//66 124//66 123//66 103//66
f 96//62 116//62 108//62 87//62
f 94//3 114//3 129//3 127//3
f 105//67 125//67 130//67 128//67
f 114//5 124//5 130//5 129//5
f 94//6 127//6 128//6 104//6
f 100//68 120//68 134//68 132//68
f 89//1 109//1 133//1 131//1
f 109//5 119//5 134//5 133//5
f 89//6 131//6 132//6 99//6
f 142//69 141//69 143//69 146//69
f 137//70 136//70 140//70 138//70
f 141//71 139//71 144//71 143//71
f 139//72 137//72 138//72 144//72
f 136//73 135//73 145//73 140//73
f 135//74 142//74 146//74 145//74
f 22//75 21//75 135//75 136//75
f 50//76 52//76 143//76 144//76
f 24//77 23//77 137//77 139//77
f 54//78 45//78 145//78 146//78
f 45//79 46//79 140//79 145//79
f 26//80 25//80 141//80 142//80
