# Blender v2.79 (sub 0) OBJ File: 'Padlock.blend'
# www.blender.org
mtllib Padlock.mtl
o Padlock_Cube.123
v -0.061664 0.572742 0.004961
v -0.126672 0.531112 0.004961
v -0.170408 0.378775 0.061796
v -0.170408 0.378775 -0.051874
v -0.130016 0.381516 0.004961
v -0.210801 0.376035 0.004961
v -0.184687 0.570385 0.004961
v -0.155680 0.550748 0.061796
v -0.155680 0.550748 -0.051874
v -0.079287 0.656261 0.004961
v -0.070475 0.614502 0.061796
v -0.070475 0.614502 -0.051874
v 0.061664 0.572742 0.004961
v 0.126672 0.531112 0.004961
v 0.170408 0.378775 0.061796
v 0.170408 0.378775 -0.051874
v 0.130016 0.381516 0.004961
v 0.210801 0.376035 0.004961
v 0.184687 0.570385 0.004961
v 0.155680 0.550748 0.061796
v 0.155680 0.550748 -0.051874
v 0.079287 0.656261 0.004961
v 0.070475 0.614502 0.061796
v 0.070475 0.614502 -0.051874
v -0.210801 0.259622 0.004961
v -0.170408 0.262363 -0.051874
v -0.130016 0.265103 0.004961
v -0.170408 0.262363 0.061796
v -0.204273 0.482829 0.004961
v -0.166726 0.479975 -0.051874
v -0.129180 0.477121 0.004961
v -0.166726 0.479975 0.061796
v -0.140114 0.380831 0.047587
v -0.200703 0.376720 0.047587
v -0.200703 0.376720 -0.037665
v -0.140114 0.380831 -0.037665
v -0.145281 0.630823 0.004961
v -0.127014 0.594467 -0.051874
v -0.108748 0.558111 0.004961
v -0.127014 0.594467 0.061796
v -0.133924 0.536021 -0.037665
v -0.133924 0.536021 0.047587
v -0.177435 0.565476 0.047587
v -0.177435 0.565476 -0.037665
v 0.000000 0.660230 0.004961
v 0.000000 0.618598 -0.051874
v 0.000000 0.576966 0.004961
v 0.000000 0.618598 0.061796
v -0.063867 0.583182 -0.037665
v -0.063867 0.583182 0.047587
v -0.077084 0.645821 0.047587
v -0.077084 0.645821 -0.037665
v 0.210801 0.259622 0.004961
v 0.170408 0.262363 -0.051874
v 0.130016 0.265103 0.004961
v 0.170408 0.262363 0.061796
v 0.204273 0.482829 0.004961
v 0.166726 0.479975 -0.051874
v 0.129180 0.477121 0.004961
v 0.166726 0.479975 0.061796
v 0.140114 0.380831 0.047587
v 0.200703 0.376720 0.047587
v 0.200703 0.376720 -0.037665
v 0.140114 0.380831 -0.037665
v 0.145281 0.630823 0.004961
v 0.127014 0.594467 -0.051874
v 0.108748 0.558111 0.004961
v 0.127014 0.594467 0.061796
v 0.133924 0.536021 -0.037665
v 0.133924 0.536021 0.047587
v 0.177435 0.565476 0.047587
v 0.177435 0.565476 -0.037665
v 0.063867 0.583182 -0.037665
v 0.063867 0.583182 0.047587
v 0.077084 0.645821 0.047587
v 0.077084 0.645821 -0.037665
v -0.200703 0.260307 0.047587
v -0.200703 0.260307 -0.037665
v -0.140114 0.264418 0.047587
v -0.140114 0.264418 -0.037665
v -0.194886 0.482115 0.047587
v -0.194886 0.482115 -0.037665
v -0.138566 0.477834 -0.037665
v -0.138566 0.477834 0.047587
v -0.140714 0.621734 0.047587
v -0.140714 0.621734 -0.037665
v -0.113314 0.567200 -0.037665
v -0.113314 0.567200 0.047587
v 0.200703 0.260307 0.047587
v 0.200703 0.260307 -0.037665
v 0.140114 0.264418 0.047587
v 0.140114 0.264418 -0.037665
v 0.194886 0.482115 0.047587
v 0.194886 0.482115 -0.037665
v 0.138566 0.477834 -0.037665
v 0.138566 0.477834 0.047587
v 0.140714 0.621734 0.047587
v 0.140714 0.621734 -0.037665
v 0.113314 0.567200 -0.037665
v 0.113314 0.567200 0.047587
v 0.000000 0.649822 0.047587
v 0.000000 0.649822 -0.037665
v 0.000000 0.587374 -0.037665
v 0.000000 0.587374 0.047587
v -0.254626 0.222149 0.117271
v -0.254626 -0.216865 0.117271
v -0.179681 0.222149 0.117271
v -0.217153 0.222149 0.154744
v -0.217153 0.184676 0.117271
v -0.217153 0.259622 0.117271
v -0.179681 -0.216865 0.117271
v -0.217153 -0.216865 0.154744
v -0.217153 -0.254337 0.117271
v -0.217153 -0.179392 0.117271
v 0.174522 0.222149 0.117271
v 0.174522 -0.216865 0.117271
v 0.249468 0.222149 0.117271
v 0.211995 0.222149 0.154744
v 0.211995 0.184676 0.117271
v 0.211995 0.259622 0.117271
v 0.249468 -0.216865 0.117271
v 0.211995 -0.216865 0.154744
v 0.211995 -0.254337 0.117271
v 0.211995 -0.179392 0.117271
v 0.249468 0.222149 -0.119501
v 0.249468 -0.216865 -0.119501
v 0.174522 0.222149 -0.119501
v 0.211995 0.222149 -0.156974
v 0.211995 0.184676 -0.119501
v 0.211995 0.259622 -0.119501
v 0.174522 -0.216865 -0.119501
v 0.211995 -0.216865 -0.156974
v 0.211995 -0.254337 -0.119501
v 0.211995 -0.179392 -0.119501
v -0.179681 0.222149 -0.119501
v -0.179681 -0.216865 -0.119501
v -0.254626 0.222149 -0.119501
v -0.217153 0.222149 -0.156974
v -0.217153 0.184676 -0.119501
v -0.217153 0.259622 -0.119501
v -0.254626 -0.216865 -0.119501
v -0.217153 -0.216865 -0.156974
v -0.217153 -0.254337 -0.119501
v -0.217153 -0.179392 -0.119501
v -0.245258 0.194045 0.117271
v -0.245258 0.222149 0.145375
v -0.245258 0.250254 0.117271
v -0.254626 0.222149 0.079798
v -0.217153 0.184676 0.079798
v -0.217153 0.259622 0.079798
v -0.179681 0.222149 0.079798
v -0.189049 0.194045 0.117271
v -0.189049 0.250254 0.117271
v -0.189049 0.222149 0.145375
v -0.217153 0.194045 0.145375
v -0.217153 0.250254 0.145375
v -0.245258 -0.244969 0.117271
v -0.245258 -0.216865 0.145375
v -0.245258 -0.188760 0.117271
v -0.254626 -0.216865 0.079798
v -0.217153 -0.254337 0.079798
v -0.217153 -0.179392 0.079798
v -0.179681 -0.216865 0.079798
v -0.189049 -0.244969 0.117271
v -0.189049 -0.188760 0.117271
v -0.189049 -0.216865 0.145375
v -0.217153 -0.244969 0.145375
v -0.217153 -0.188760 0.145375
v 0.183890 0.194045 0.117271
v 0.183890 0.222149 0.145375
v 0.183890 0.250254 0.117271
v 0.174522 0.222149 0.079798
v 0.211995 0.184676 0.079798
v 0.211995 0.259622 0.079798
v 0.249468 0.222149 0.079798
v 0.240100 0.194045 0.117271
v 0.240100 0.250254 0.117271
v 0.240100 0.222149 0.145375
v 0.211995 0.194045 0.145375
v 0.211995 0.250254 0.145375
v 0.183890 -0.244969 0.117271
v 0.183890 -0.216865 0.145375
v 0.183890 -0.188760 0.117271
v 0.174522 -0.216865 0.079798
v 0.211995 -0.254337 0.079798
v 0.211995 -0.179392 0.079798
v 0.249468 -0.216865 0.079798
v 0.240100 -0.244969 0.117271
v 0.240100 -0.188760 0.117271
v 0.240100 -0.216865 0.145375
v 0.211995 -0.244969 0.145375
v 0.211995 -0.188760 0.145375
v 0.240100 0.194045 -0.119501
v 0.240100 0.222149 -0.147605
v 0.240100 0.250254 -0.119501
v 0.249468 0.222149 -0.082028
v 0.211995 0.184676 -0.082028
v 0.211995 0.259622 -0.082028
v 0.174522 0.222149 -0.082028
v 0.183890 0.194045 -0.119501
v 0.183890 0.250254 -0.119501
v 0.183890 0.222149 -0.147605
v 0.211995 0.194045 -0.147605
v 0.211995 0.250254 -0.147605
v 0.240100 -0.244969 -0.119501
v 0.240100 -0.216865 -0.147605
v 0.240100 -0.188760 -0.119501
v 0.249468 -0.216865 -0.082028
v 0.211995 -0.254337 -0.082028
v 0.211995 -0.179392 -0.082028
v 0.174522 -0.216865 -0.082028
v 0.183890 -0.244969 -0.119501
v 0.183890 -0.188760 -0.119501
v 0.183890 -0.216865 -0.147605
v 0.211995 -0.244969 -0.147605
v 0.211995 -0.188760 -0.147605
v -0.189049 0.194045 -0.119501
v -0.189049 0.222149 -0.147605
v -0.189049 0.250254 -0.119501
v -0.179681 0.222149 -0.082028
v -0.217153 0.184676 -0.082028
v -0.217153 0.259622 -0.082028
v -0.254626 0.222149 -0.082028
v -0.245258 0.194045 -0.119501
v -0.245258 0.250254 -0.119501
v -0.245258 0.222149 -0.147605
v -0.217153 0.194045 -0.147605
v -0.217153 0.250254 -0.147605
v -0.189049 -0.244969 -0.119501
v -0.189049 -0.216865 -0.147605
v -0.189049 -0.188760 -0.119501
v -0.179681 -0.216865 -0.082028
v -0.217153 -0.254337 -0.082028
v -0.217153 -0.179392 -0.082028
v -0.254626 -0.216865 -0.082028
v -0.245258 -0.244969 -0.119501
v -0.245258 -0.188760 -0.119501
v -0.245258 -0.216865 -0.147605
v -0.217153 -0.244969 -0.147605
v -0.217153 -0.188760 -0.147605
v -0.237972 0.201331 0.138089
v -0.237972 0.242968 0.138089
v -0.245258 0.194045 0.079798
v -0.245258 0.250254 0.079798
v -0.196335 0.201331 0.138089
v -0.196335 0.242968 0.138089
v -0.189049 0.194045 0.079798
v -0.189049 0.250254 0.079798
v -0.237972 -0.237683 0.138089
v -0.237972 -0.196046 0.138089
v -0.245258 -0.244969 0.079798
v -0.245258 -0.188760 0.079798
v -0.196335 -0.237683 0.138089
v -0.196335 -0.196046 0.138089
v -0.189049 -0.244969 0.079798
v -0.189049 -0.188760 0.079798
v 0.191177 0.201331 0.138089
v 0.191177 0.242968 0.138089
v 0.183890 0.194045 0.079798
v 0.183890 0.250254 0.079798
v 0.232813 0.201331 0.138089
v 0.232813 0.242968 0.138089
v 0.240100 0.194045 0.079798
v 0.240100 0.250254 0.079798
v 0.191177 -0.237683 0.138089
v 0.191177 -0.196046 0.138089
v 0.183890 -0.244969 0.079798
v 0.183890 -0.188760 0.079798
v 0.232813 -0.237683 0.138089
v 0.232813 -0.196046 0.138089
v 0.240100 -0.244969 0.079798
v 0.240100 -0.188760 0.079798
v 0.232813 0.201331 -0.140319
v 0.232813 0.242968 -0.140319
v 0.240100 0.194045 -0.082028
v 0.240100 0.250254 -0.082028
v 0.191177 0.201331 -0.140319
v 0.191177 0.242968 -0.140319
v 0.183890 0.194045 -0.082028
v 0.183890 0.250254 -0.082028
v 0.232813 -0.237683 -0.140319
v 0.232813 -0.196046 -0.140319
v 0.240100 -0.244969 -0.082028
v 0.240100 -0.188760 -0.082028
v 0.191177 -0.237683 -0.140319
v 0.191177 -0.196046 -0.140319
v 0.183890 -0.244969 -0.082028
v 0.183890 -0.188760 -0.082028
v -0.196335 0.201331 -0.140319
v -0.196335 0.242968 -0.140319
v -0.189049 0.194045 -0.082028
v -0.189049 0.250254 -0.082028
v -0.237972 0.201331 -0.140319
v -0.237972 0.242968 -0.140319
v -0.245258 0.194045 -0.082028
v -0.245258 0.250254 -0.082028
v -0.196335 -0.237683 -0.140319
v -0.196335 -0.196046 -0.140319
v -0.189049 -0.244969 -0.082028
v -0.189049 -0.188760 -0.082028
v -0.237972 -0.237683 -0.140319
v -0.237972 -0.196046 -0.140319
v -0.245258 -0.244969 -0.082028
v -0.245258 -0.188760 -0.082028
v -0.083626 -0.040654 0.030924
v -0.083626 0.040654 0.030924
v 0.083626 -0.040654 0.030924
v 0.083626 0.040654 0.030924
v 0.027875 -0.067189 0.030924
v -0.027875 -0.067189 0.030924
v -0.027875 0.067189 0.030924
v 0.027875 0.067189 0.030924
v 0.053907 -0.163137 0.030924
v -0.053907 -0.163137 0.030924
v 0.083626 -0.040654 0.120357
v 0.027875 0.067189 0.120357
v 0.027875 -0.067189 0.120357
v -0.027875 0.067189 0.120357
v -0.027875 -0.067189 0.120357
v -0.083626 -0.040654 0.120357
v 0.083626 0.040654 0.120357
v -0.083626 0.040654 0.120357
v -0.053907 -0.163137 0.120357
v 0.053907 -0.163137 0.120357
v -0.307659 -0.223878 0.120357
v -0.223383 -0.308342 0.120357
v -0.253500 -0.243629 0.120357
v -0.223383 0.308342 0.120357
v -0.307659 0.223878 0.120357
v -0.223383 -0.308342 -0.115027
v -0.307659 -0.223878 -0.115027
v -0.307659 0.223878 -0.115027
v -0.223383 0.308342 -0.115027
v 0.223383 -0.308342 0.120357
v 0.307659 -0.223878 0.120357
v 0.307659 0.223878 0.120357
v 0.223383 0.308342 0.120357
v 0.253500 0.243629 0.120357
v 0.307659 -0.223878 -0.115027
v 0.223383 -0.308342 -0.115027
v 0.223383 0.308342 -0.115027
v 0.307659 0.223878 -0.115027
vn 0.0000 0.0000 1.0000
vn -1.0000 0.0000 0.0000
vn -0.4297 0.9029 0.0000
vn 0.4297 -0.9029 0.0000
vn -0.4297 -0.9029 -0.0000
vn 0.0000 -1.0000 -0.0000
vn 0.4297 0.9029 -0.0000
vn -0.9651 -0.2618 0.0000
vn 0.0000 1.0000 0.0000
vn 1.0000 0.0000 0.0000
vn 0.0000 0.0000 -1.0000
vn 0.9651 -0.2618 -0.0000
vn -0.7079 -0.7063 0.0000
vn -0.7079 0.7063 0.0000
vn 0.7079 -0.7063 0.0000
vn 0.7079 0.7063 0.0000
vn 0.2938 -0.9264 0.2355
vn 0.2938 -0.9264 -0.2355
vn 0.0650 -0.9689 -0.2386
vn 0.0650 -0.9689 0.2386
vn 0.9788 -0.0624 0.1951
vn 0.9788 -0.0624 -0.1951
vn 0.8165 -0.5408 -0.2020
vn 0.8165 -0.5408 0.2020
vn -0.4246 0.0000 0.9054
vn 0.4246 0.0000 0.9054
vn 0.4372 -0.0115 0.8993
vn -0.4371 0.0201 0.8992
vn 0.4246 0.0000 -0.9054
vn -0.4246 0.0000 -0.9054
vn -0.4371 0.0201 -0.8992
vn 0.4372 -0.0115 -0.8993
vn 0.9731 0.0000 0.2305
vn 0.9731 0.0000 -0.2305
vn 0.9748 -0.0121 -0.2228
vn 0.9748 -0.0121 0.2228
vn -0.9731 0.0000 -0.2305
vn -0.9731 0.0000 0.2305
vn -0.9733 0.0566 0.2225
vn -0.9733 0.0566 -0.2225
vn -0.9575 0.2075 -0.2005
vn -0.9575 0.2075 0.2005
vn -0.8203 0.5352 0.2016
vn -0.8203 0.5352 -0.2016
vn -0.4705 0.0870 0.8781
vn 0.4790 -0.0583 0.8759
vn 0.3965 -0.2609 0.8802
vn -0.3975 0.2599 0.8800
vn 0.4790 -0.0583 -0.8759
vn -0.4705 0.0870 -0.8781
vn -0.3975 0.2599 -0.8800
vn 0.3965 -0.2609 -0.8802
vn -0.3469 0.9079 -0.2355
vn -0.3469 0.9079 0.2355
vn -0.0494 0.9699 0.2385
vn -0.0494 0.9699 -0.2385
vn -0.1436 0.3912 0.9091
vn 0.1341 -0.3945 0.9091
vn 0.0254 -0.4113 0.9111
vn -0.0226 0.4116 0.9111
vn 0.1341 -0.3945 -0.9091
vn -0.1436 0.3912 -0.9091
vn -0.0226 0.4116 -0.9111
vn 0.0254 -0.4113 -0.9111
vn -0.2938 -0.9264 0.2355
vn -0.0650 -0.9689 0.2386
vn -0.0650 -0.9689 -0.2386
vn -0.2938 -0.9264 -0.2355
vn -0.9788 -0.0624 0.1951
vn -0.8165 -0.5408 0.2020
vn -0.8165 -0.5408 -0.2020
vn -0.9788 -0.0624 -0.1951
vn 0.4371 0.0201 0.8992
vn -0.4372 -0.0115 0.8993
vn -0.4372 -0.0115 -0.8993
vn 0.4371 0.0201 -0.8992
vn -0.9748 -0.0121 0.2228
vn -0.9748 -0.0121 -0.2228
vn 0.9733 0.0566 -0.2225
vn 0.9733 0.0566 0.2225
vn 0.9575 0.2075 -0.2005
vn 0.8203 0.5352 -0.2016
vn 0.8203 0.5352 0.2016
vn 0.9575 0.2075 0.2005
vn 0.4705 0.0870 0.8781
vn 0.3975 0.2599 0.8800
vn -0.3965 -0.2609 0.8802
vn -0.4790 -0.0583 0.8759
vn -0.4790 -0.0583 -0.8759
vn -0.3965 -0.2609 -0.8802
vn 0.3975 0.2599 -0.8800
vn 0.4705 0.0870 -0.8781
vn 0.3469 0.9079 -0.2355
vn 0.0494 0.9699 -0.2385
vn 0.0494 0.9699 0.2385
vn 0.3469 0.9079 0.2355
vn 0.1436 0.3912 0.9091
vn 0.0226 0.4116 0.9111
vn -0.0254 -0.4113 0.9111
vn -0.1341 -0.3945 0.9091
vn -0.1341 -0.3945 -0.9091
vn -0.0254 -0.4113 -0.9111
vn 0.0226 0.4116 -0.9111
vn 0.1436 0.3912 -0.9091
vn -0.8704 -0.3482 0.3482
vn -0.8704 0.3482 0.3482
vn -0.9487 0.3162 0.0000
vn -0.9487 -0.3162 -0.0000
vn 0.9487 -0.3162 -0.0000
vn 0.9487 0.3162 0.0000
vn 0.8704 0.3482 0.3482
vn 0.8704 -0.3482 0.3482
vn 0.3482 -0.3482 0.8704
vn 0.3482 0.3482 0.8704
vn -0.3482 0.3482 0.8704
vn -0.3482 -0.3482 0.8704
vn -0.3162 -0.9487 0.0000
vn 0.3162 -0.9487 0.0000
vn 0.3482 -0.8704 0.3482
vn -0.3482 -0.8704 0.3482
vn 0.3162 0.9487 0.0000
vn -0.3162 0.9487 0.0000
vn -0.3482 0.8704 0.3482
vn 0.3482 0.8704 0.3482
vn 0.8704 -0.3482 -0.3482
vn 0.8704 0.3482 -0.3482
vn -0.8704 0.3482 -0.3482
vn -0.8704 -0.3482 -0.3482
vn -0.3482 -0.3482 -0.8704
vn -0.3482 0.3482 -0.8704
vn 0.3482 0.3482 -0.8704
vn 0.3482 -0.3482 -0.8704
vn -0.3482 -0.8704 -0.3482
vn 0.3482 -0.8704 -0.3482
vn 0.3482 0.8704 -0.3482
vn -0.3482 0.8704 -0.3482
usemtl Grey
s off
f 309//1 307//1 308//1 312//1
f 307//2 315//2 321//2 308//2
f 309//3 317//3 315//3 307//3
f 311//4 318//4 322//4 306//4
f 308//5 321//5 316//5 312//5
f 312//6 316//6 318//6 311//6
f 305//7 320//7 319//7 310//7
f 309//8 313//8 324//8 317//8
f 305//1 310//1 311//1 306//1
f 310//1 309//1 312//1 311//1
f 314//9 323//9 324//9 313//9
f 310//1 314//1 313//1 309//1
f 334//1 335//1 336//1 338//1 321//1 315//1 317//1 324//1 323//1 319//1 320//1 327//1 326//1
f 339//10 342//10 336//10 335//10
f 325//1 327//1 320//1 322//1 318//1 316//1 321//1 338//1 337//1 328//1 329//1
f 325//2 329//2 332//2 331//2
f 330//11 331//11 332//11 333//11 341//11 342//11 339//11 340//11
f 323//12 314//12 310//12 319//12
f 341//9 333//9 328//9 337//9
f 320//10 305//10 306//10 322//10
f 325//1 326//1 327//1
f 336//1 337//1 338//1
f 330//13 326//13 325//13 331//13
f 328//14 333//14 332//14 329//14
f 334//15 340//15 339//15 335//15
f 341//16 337//16 336//16 342//16
f 330//6 340//6 334//6 326//6
usemtl Black
f 1//17 50//17 88//17 39//17
f 1//18 39//18 87//18 49//18
f 1//19 49//19 103//19 47//19
f 1//20 47//20 104//20 50//20
f 2//21 42//21 84//21 31//21
f 2//22 31//22 83//22 41//22
f 2//23 41//23 87//23 39//23
f 2//24 39//24 88//24 42//24
f 3//25 34//25 77//25 28//25
f 3//26 28//26 79//26 33//26
f 3//27 33//27 84//27 32//27
f 3//28 32//28 81//28 34//28
f 4//29 36//29 80//29 26//29
f 4//30 26//30 78//30 35//30
f 4//31 35//31 82//31 30//31
f 4//32 30//32 83//32 36//32
f 5//33 33//33 79//33 27//33
f 5//34 27//34 80//34 36//34
f 5//35 36//35 83//35 31//35
f 5//36 31//36 84//36 33//36
f 6//37 35//37 78//37 25//37
f 6//38 25//38 77//38 34//38
f 6//39 34//39 81//39 29//39
f 6//40 29//40 82//40 35//40
f 7//41 44//41 82//41 29//41
f 7//42 29//42 81//42 43//42
f 7//43 43//43 85//43 37//43
f 7//44 37//44 86//44 44//44
f 8//45 43//45 81//45 32//45
f 8//46 32//46 84//46 42//46
f 8//47 42//47 88//47 40//47
f 8//48 40//48 85//48 43//48
f 9//49 41//49 83//49 30//49
f 9//50 30//50 82//50 44//50
f 9//51 44//51 86//51 38//51
f 9//52 38//52 87//52 41//52
f 10//53 52//53 86//53 37//53
f 10//54 37//54 85//54 51//54
f 10//55 51//55 101//55 45//55
f 10//56 45//56 102//56 52//56
f 11//57 51//57 85//57 40//57
f 11//58 40//58 88//58 50//58
f 11//59 50//59 104//59 48//59
f 11//60 48//60 101//60 51//60
f 12//61 49//61 87//61 38//61
f 12//62 38//62 86//62 52//62
f 12//63 52//63 102//63 46//63
f 12//64 46//64 103//64 49//64
f 13//65 67//65 100//65 74//65
f 13//66 74//66 104//66 47//66
f 13//67 47//67 103//67 73//67
f 13//68 73//68 99//68 67//68
f 14//69 59//69 96//69 70//69
f 14//70 70//70 100//70 67//70
f 14//71 67//71 99//71 69//71
f 14//72 69//72 95//72 59//72
f 15//26 56//26 89//26 62//26
f 15//73 62//73 93//73 60//73
f 15//74 60//74 96//74 61//74
f 15//25 61//25 91//25 56//25
f 16//30 54//30 92//30 64//30
f 16//75 64//75 95//75 58//75
f 16//76 58//76 94//76 63//76
f 16//29 63//29 90//29 54//29
f 17//38 55//38 91//38 61//38
f 17//77 61//77 96//77 59//77
f 17//78 59//78 95//78 64//78
f 17//37 64//37 92//37 55//37
f 18//34 53//34 90//34 63//34
f 18//79 63//79 94//79 57//79
f 18//80 57//80 93//80 62//80
f 18//33 62//33 89//33 53//33
f 19//81 57//81 94//81 72//81
f 19//82 72//82 98//82 65//82
f 19//83 65//83 97//83 71//83
f 19//84 71//84 93//84 57//84
f 20//85 60//85 93//85 71//85
f 20//86 71//86 97//86 68//86
f 20//87 68//87 100//87 70//87
f 20//88 70//88 96//88 60//88
f 21//89 58//89 95//89 69//89
f 21//90 69//90 99//90 66//90
f 21//91 66//91 98//91 72//91
f 21//92 72//92 94//92 58//92
f 22//93 65//93 98//93 76//93
f 22//94 76//94 102//94 45//94
f 22//95 45//95 101//95 75//95
f 22//96 75//96 97//96 65//96
f 23//97 68//97 97//97 75//97
f 23//98 75//98 101//98 48//98
f 23//99 48//99 104//99 74//99
f 23//100 74//100 100//100 68//100
f 24//101 66//101 99//101 73//101
f 24//102 73//102 103//102 46//102
f 24//103 46//103 102//103 76//103
f 24//104 76//104 98//104 66//104
f 105//105 145//105 241//105 146//105
f 105//106 146//106 242//106 147//106
f 105//107 147//107 244//107 148//107
f 105//108 148//108 243//108 145//108
f 106//105 157//105 249//105 158//105
f 106//106 158//106 250//106 159//106
f 106//107 159//107 252//107 160//107
f 106//108 160//108 251//108 157//108
f 107//109 152//109 247//109 151//109
f 107//110 151//110 248//110 153//110
f 107//111 153//111 246//111 154//111
f 107//112 154//112 245//112 152//112
f 108//113 155//113 245//113 154//113
f 108//114 154//114 246//114 156//114
f 108//115 156//115 242//115 146//115
f 108//116 146//116 241//116 155//116
f 109//117 145//117 243//117 149//117
f 109//118 149//118 247//118 152//118
f 109//119 152//119 245//119 155//119
f 109//120 155//120 241//120 145//120
f 110//121 153//121 248//121 150//121
f 110//122 150//122 244//122 147//122
f 110//123 147//123 242//123 156//123
f 110//124 156//124 246//124 153//124
f 111//109 164//109 255//109 163//109
f 111//110 163//110 256//110 165//110
f 111//111 165//111 254//111 166//111
f 111//112 166//112 253//112 164//112
f 112//113 167//113 253//113 166//113
f 112//114 166//114 254//114 168//114
f 112//115 168//115 250//115 158//115
f 112//116 158//116 249//116 167//116
f 113//117 157//117 251//117 161//117
f 113//118 161//118 255//118 164//118
f 113//119 164//119 253//119 167//119
f 113//120 167//120 249//120 157//120
f 114//121 165//121 256//121 162//121
f 114//122 162//122 252//122 159//122
f 114//123 159//123 250//123 168//123
f 114//124 168//124 254//124 165//124
f 115//105 169//105 257//105 170//105
f 115//106 170//106 258//106 171//106
f 115//107 171//107 260//107 172//107
f 115//108 172//108 259//108 169//108
f 116//105 181//105 265//105 182//105
f 116//106 182//106 266//106 183//106
f 116//107 183//107 268//107 184//107
f 116//108 184//108 267//108 181//108
f 117//109 176//109 263//109 175//109
f 117//110 175//110 264//110 177//110
f 117//111 177//111 262//111 178//111
f 117//112 178//112 261//112 176//112
f 118//113 179//113 261//113 178//113
f 118//114 178//114 262//114 180//114
f 118//115 180//115 258//115 170//115
f 118//116 170//116 257//116 179//116
f 119//117 169//117 259//117 173//117
f 119//118 173//118 263//118 176//118
f 119//119 176//119 261//119 179//119
f 119//120 179//120 257//120 169//120
f 120//121 177//121 264//121 174//121
f 120//122 174//122 260//122 171//122
f 120//123 171//123 258//123 180//123
f 120//124 180//124 262//124 177//124
f 121//109 188//109 271//109 187//109
f 121//110 187//110 272//110 189//110
f 121//111 189//111 270//111 190//111
f 121//112 190//112 269//112 188//112
f 122//113 191//113 269//113 190//113
f 122//114 190//114 270//114 192//114
f 122//115 192//115 266//115 182//115
f 122//116 182//116 265//116 191//116
f 123//117 181//117 267//117 185//117
f 123//118 185//118 271//118 188//118
f 123//119 188//119 269//119 191//119
f 123//120 191//120 265//120 181//120
f 124//121 189//121 272//121 186//121
f 124//122 186//122 268//122 183//122
f 124//123 183//123 266//123 192//123
f 124//124 192//124 270//124 189//124
f 125//125 193//125 273//125 194//125
f 125//126 194//126 274//126 195//126
f 125//110 195//110 276//110 196//110
f 125//109 196//109 275//109 193//109
f 126//125 205//125 281//125 206//125
f 126//126 206//126 282//126 207//126
f 126//110 207//110 284//110 208//110
f 126//109 208//109 283//109 205//109
f 127//108 200//108 279//108 199//108
f 127//107 199//107 280//107 201//107
f 127//127 201//127 278//127 202//127
f 127//128 202//128 277//128 200//128
f 128//129 203//129 277//129 202//129
f 128//130 202//130 278//130 204//130
f 128//131 204//131 274//131 194//131
f 128//132 194//132 273//132 203//132
f 129//118 193//118 275//118 197//118
f 129//117 197//117 279//117 200//117
f 129//133 200//133 277//133 203//133
f 129//134 203//134 273//134 193//134
f 130//122 201//122 280//122 198//122
f 130//121 198//121 276//121 195//121
f 130//135 195//135 274//135 204//135
f 130//136 204//136 278//136 201//136
f 131//108 212//108 287//108 211//108
f 131//107 211//107 288//107 213//107
f 131//127 213//127 286//127 214//127
f 131//128 214//128 285//128 212//128
f 132//129 215//129 285//129 214//129
f 132//130 214//130 286//130 216//130
f 132//131 216//131 282//131 206//131
f 132//132 206//132 281//132 215//132
f 133//118 205//118 283//118 209//118
f 133//117 209//117 287//117 212//117
f 133//133 212//133 285//133 215//133
f 133//134 215//134 281//134 205//134
f 134//122 213//122 288//122 210//122
f 134//121 210//121 284//121 207//121
f 134//135 207//135 282//135 216//135
f 134//136 216//136 286//136 213//136
f 135//125 217//125 289//125 218//125
f 135//126 218//126 290//126 219//126
f 135//110 219//110 292//110 220//110
f 135//109 220//109 291//109 217//109
f 136//125 229//125 297//125 230//125
f 136//126 230//126 298//126 231//126
f 136//110 231//110 300//110 232//110
f 136//109 232//109 299//109 229//109
f 137//108 224//108 295//108 223//108
f 137//107 223//107 296//107 225//107
f 137//127 225//127 294//127 226//127
f 137//128 226//128 293//128 224//128
f 138//129 227//129 293//129 226//129
f 138//130 226//130 294//130 228//130
f 138//131 228//131 290//131 218//131
f 138//132 218//132 289//132 227//132
f 139//118 217//118 291//118 221//118
f 139//117 221//117 295//117 224//117
f 139//133 224//133 293//133 227//133
f 139//134 227//134 289//134 217//134
f 140//122 225//122 296//122 222//122
f 140//121 222//121 292//121 219//121
f 140//135 219//135 290//135 228//135
f 140//136 228//136 294//136 225//136
f 141//108 236//108 303//108 235//108
f 141//107 235//107 304//107 237//107
f 141//127 237//127 302//127 238//127
f 141//128 238//128 301//128 236//128
f 142//129 239//129 301//129 238//129
f 142//130 238//130 302//130 240//130
f 142//131 240//131 298//131 230//131
f 142//132 230//132 297//132 239//132
f 143//118 229//118 299//118 233//118
f 143//117 233//117 303//117 236//117
f 143//133 236//133 301//133 239//133
f 143//134 239//134 297//134 229//134
f 144//122 237//122 304//122 234//122
f 144//121 234//121 300//121 231//121
f 144//135 231//135 298//135 240//135
f 144//136 240//136 302//136 237//136
