# Blender v2.79 (sub 0) OBJ File: 'Ring1.blend'
# www.blender.org
mtllib Ring1.mtl
o Ring1_Torus.016
v 0.328187 -0.033853 -0.000000
v 0.320752 -0.033085 -0.059263
v 0.287840 -0.029690 -0.063989
v 0.287840 -0.029690 0.063989
v 0.320752 -0.033085 0.059263
v 0.285545 -0.165538 -0.000000
v 0.279028 -0.161935 -0.059263
v 0.250296 -0.145629 -0.063989
v 0.250296 -0.145629 0.063990
v 0.279028 -0.161935 0.059263
v 0.192904 -0.268534 0.000000
v 0.188381 -0.262713 -0.059263
v 0.168732 -0.236309 -0.063989
v 0.168732 -0.236309 0.063989
v 0.188381 -0.262713 0.059263
v 0.066282 -0.325032 -0.000000
v 0.064487 -0.317995 -0.059263
v 0.057252 -0.286051 -0.063989
v 0.057252 -0.286051 0.063989
v 0.064487 -0.317995 0.059263
v -0.072425 -0.325263 -0.000000
v -0.071234 -0.318221 -0.059263
v -0.064869 -0.286255 -0.063989
v -0.064869 -0.286255 0.063990
v -0.071234 -0.318221 0.059263
v -0.199234 -0.269187 -0.000000
v -0.195313 -0.263352 -0.059263
v -0.176515 -0.236884 -0.063989
v -0.176515 -0.236884 0.063989
v -0.195313 -0.263352 0.059263
v -0.292220 -0.166500 0.000000
v -0.286296 -0.162877 -0.059263
v -0.258382 -0.146476 -0.063989
v -0.258382 -0.146476 0.063990
v -0.286296 -0.162877 0.059263
v -0.335303 -0.034958 0.000000
v -0.328451 -0.034167 -0.059263
v -0.296313 -0.030663 -0.063989
v -0.296313 -0.030663 0.063990
v -0.328451 -0.034167 0.059263
v -0.321035 0.102695 0.000000
v -0.314490 0.100522 -0.059263
v -0.283751 0.090531 -0.063989
v -0.283751 0.090531 0.063989
v -0.314490 0.100522 0.059263
v -0.251882 0.222658 -0.000000
v -0.246826 0.217901 -0.059263
v -0.222867 0.196148 -0.063990
v -0.222867 0.196148 0.063989
v -0.246826 0.217901 0.059263
v -0.139801 0.304187 -0.000000
v -0.137159 0.297674 -0.059263
v -0.124189 0.267928 -0.063989
v -0.124189 0.267928 0.063989
v -0.137159 0.297674 0.059263
v -0.004173 0.333185 -0.000000
v -0.004452 0.326048 -0.059263
v -0.004778 0.293459 -0.063990
v -0.004778 0.293459 0.063989
v -0.004452 0.326048 0.059263
v 0.131552 0.304639 -0.000000
v 0.128350 0.298117 -0.059263
v 0.114716 0.268326 -0.063989
v 0.114716 0.268326 0.063989
v 0.128350 0.298117 0.059263
v 0.243904 0.223484 -0.000000
v 0.238283 0.218709 -0.059263
v 0.213634 0.196875 -0.063989
v 0.213634 0.196875 0.063989
v 0.238283 0.218709 0.059263
v 0.313458 0.103752 -0.000000
v 0.306340 0.101556 -0.059263
v 0.274872 0.091461 -0.063989
v 0.274872 0.091461 0.063989
v 0.306340 0.101556 0.059263
vt 0.000000 0.000000
vt 0.000000 0.000000
vt 0.000000 0.000000
vt 0.000000 0.000000
vt 0.000000 0.000000
vt 0.000000 0.000000
vt 0.000000 0.000000
vt 0.000000 0.000000
vt 0.000000 0.000000
vt 0.000000 0.000000
vt 0.000000 0.000000
vt 0.000000 0.000000
vt 0.000000 0.000000
vt 0.000000 0.000000
vt 0.000000 0.000000
vt 0.000000 0.000000
vt 0.000000 0.000000
vt 0.000000 0.000000
vt 0.000000 0.000000
vt 0.000000 0.000000
vt 0.000000 0.000000
vt 0.000000 0.000000
vt 0.000000 0.000000
vt 0.000000 0.000000
vt 0.000000 0.000000
vt 0.000000 0.000000
vt 0.000000 0.000000
vt 0.000000 0.000000
vt 0.000000 0.000000
vt 0.000000 0.000000
vt 0.000000 0.000000
vt 0.000000 0.000000
vt 0.000000 0.000000
vt 0.000000 0.000000
vt 0.000000 0.000000
vt 0.000000 0.000000
vt 0.000000 0.000000
vt 0.000000 0.000000
vt 0.000000 0.000000
vt 0.000000 0.000000
vt 0.000000 0.000000
vt 0.000000 0.000000
vt 0.000000 0.000000
vt 0.000000 0.000000
vt 0.000000 0.000000
vt 0.000000 0.000000
vt 0.000000 0.000000
vt 0.000000 0.000000
vt 0.000000 0.000000
vt 0.000000 0.000000
vt 0.000000 0.000000
vt 0.000000 0.000000
vt 0.000000 0.000000
vt 0.000000 0.000000
vt 0.000000 0.000000
vt 0.000000 0.000000
vt 0.000000 0.000000
vt 0.000000 0.000000
vt 0.000000 0.000000
vt 0.000000 0.000000
vt 0.000000 0.000000
vt 0.000000 0.000000
vt 0.000000 0.000000
vt 0.000000 0.000000
vt 0.000000 0.000000
vt 0.000000 0.000000
vt 0.000000 0.000000
vt 0.000000 0.000000
vt 0.000000 0.000000
vt 0.000000 0.000000
vt 0.000000 0.000000
vt 0.000000 0.000000
vt 0.000000 0.000000
vt 0.000000 0.000000
vt 0.000000 0.000000
vn 0.9442 -0.3058 -0.1224
vn 0.1375 -0.0445 -0.9895
vn 0.1375 -0.0445 0.9895
vn 0.9442 -0.3058 0.1224
vn 0.7380 -0.6638 -0.1215
vn 0.1078 -0.0969 -0.9894
vn -0.4075 0.9132 0.0000
vn 0.1078 -0.0969 0.9894
vn 0.7380 -0.6638 0.1215
vn 0.4045 -0.9066 -0.1199
vn 0.0593 -0.1329 -0.9893
vn -0.2058 -0.9786 -0.0000
vn 0.0593 -0.1329 0.9893
vn 0.4045 -0.9066 0.1199
vn 0.0017 -0.9930 -0.1180
vn 0.0002 -0.1463 -0.9892
vn 0.2091 -0.9779 -0.0000
vn 0.0002 -0.1463 0.9892
vn 0.0017 -0.9930 0.1180
vn -0.4017 -0.9084 -0.1160
vn -0.0594 -0.1344 -0.9891
vn -0.7435 0.6687 0.0000
vn -0.0594 -0.1344 0.9891
vn -0.4017 -0.9084 0.1160
vn -0.7364 -0.6668 -0.1144
vn -0.1093 -0.0990 -0.9891
vn -0.0017 1.0000 0.0000
vn -0.1093 -0.0990 0.9891
vn -0.7364 -0.6668 0.1144
vn -0.9442 -0.3092 -0.1133
vn -0.1404 -0.0460 -0.9890
vn 0.7413 0.6712 0.0000
vn -0.1404 -0.0460 0.9890
vn -0.9442 -0.3092 0.1133
vn -0.9883 0.1024 -0.1129
vn -0.1471 0.0152 -0.9890
vn 0.4044 0.9146 0.0000
vn -0.1471 0.0152 0.9890
vn -0.9883 0.1024 0.1129
vn -0.8608 0.4962 -0.1133
vn -0.1281 0.0738 -0.9890
vn 0.5882 -0.8087 0.0000
vn -0.1281 0.0738 0.9890
vn -0.8608 0.4962 0.1133
vn -0.5844 0.8034 -0.1143
vn -0.0868 0.1193 -0.9891
vn 0.9947 -0.1031 0.0000
vn -0.0868 0.1193 0.9891
vn -0.5844 0.8034 0.1143
vn -0.2077 0.9713 -0.1160
vn -0.0307 0.1438 -0.9891
vn -0.5855 -0.8106 0.0000
vn -0.0307 0.1438 0.9891
vn -0.2077 0.9713 0.1160
vn 0.2044 0.9718 -0.1180
vn 0.0301 0.1432 -0.9892
vn -0.8647 -0.5023 0.0000
vn 0.0301 0.1432 0.9892
vn 0.2044 0.9718 0.1180
vn 0.5813 0.8048 -0.1200
vn 0.0852 0.1180 -0.9894
vn -0.9943 -0.1064 0.0000
vn 0.0852 0.1180 0.9894
vn 0.5813 0.8048 0.1200
vn 0.8583 0.4986 -0.1216
vn 0.1253 0.0728 -0.9895
vn -0.9514 0.3081 0.0000
vn 0.1253 0.0728 0.9895
vn 0.8583 0.4986 0.1216
vn 0.9868 0.1056 -0.1224
vn 0.1437 0.0154 -0.9895
vn 0.8664 -0.4994 0.0000
vn 0.1437 0.0154 0.9895
vn 0.9868 0.1056 0.1224
vn 0.9503 0.3113 0.0000
usemtl Golden
s off
f 1/1/1 6/2/1 7/3/1 2/4/1
f 2/4/2 7/3/2 8/5/2 3/6/2
f 4/7/3 9/8/3 10/9/3 5/10/3
f 5/10/4 10/9/4 6/2/4 1/1/4
f 6/2/5 11/11/5 12/12/5 7/3/5
f 7/3/6 12/12/6 13/13/6 8/5/6
f 18/14/7 19/15/7 14/16/7 13/13/7
f 9/8/8 14/16/8 15/17/8 10/9/8
f 10/9/9 15/17/9 11/11/9 6/2/9
f 11/11/10 16/18/10 17/19/10 12/12/10
f 12/12/11 17/19/11 18/14/11 13/13/11
f 64/20/12 59/21/12 58/22/12 63/23/12
f 14/16/13 19/15/13 20/24/13 15/17/13
f 15/17/14 20/24/14 16/18/14 11/11/14
f 16/18/15 21/25/15 22/26/15 17/19/15
f 17/19/16 22/26/16 23/27/16 18/14/16
f 59/21/17 54/28/17 53/29/17 58/22/17
f 19/15/18 24/30/18 25/31/18 20/24/18
f 20/24/19 25/31/19 21/25/19 16/18/19
f 21/25/20 26/32/20 27/33/20 22/26/20
f 22/26/21 27/33/21 28/34/21 23/27/21
f 13/13/22 14/16/22 9/8/22 8/5/22
f 24/30/23 29/35/23 30/36/23 25/31/23
f 25/31/24 30/36/24 26/32/24 21/25/24
f 26/32/25 31/37/25 32/38/25 27/33/25
f 27/33/26 32/38/26 33/39/26 28/34/26
f 23/27/27 24/30/27 19/15/27 18/14/27
f 29/35/28 34/40/28 35/41/28 30/36/28
f 30/36/29 35/41/29 31/37/29 26/32/29
f 31/37/30 36/42/30 37/43/30 32/38/30
f 32/38/31 37/43/31 38/44/31 33/39/31
f 33/39/32 34/40/32 29/35/32 28/34/32
f 34/40/33 39/45/33 40/46/33 35/41/33
f 35/41/34 40/46/34 36/42/34 31/37/34
f 36/42/35 41/47/35 42/48/35 37/43/35
f 37/43/36 42/48/36 43/49/36 38/44/36
f 28/34/37 29/35/37 24/30/37 23/27/37
f 39/45/38 44/50/38 45/51/38 40/46/38
f 40/46/39 45/51/39 41/47/39 36/42/39
f 41/47/40 46/52/40 47/53/40 42/48/40
f 42/48/41 47/53/41 48/54/41 43/49/41
f 53/29/42 54/28/42 49/55/42 48/54/42
f 44/50/43 49/55/43 50/56/43 45/51/43
f 45/51/44 50/56/44 46/52/44 41/47/44
f 46/52/45 51/57/45 52/58/45 47/53/45
f 47/53/46 52/58/46 53/29/46 48/54/46
f 44/50/47 39/45/47 38/44/47 43/49/47
f 49/55/48 54/28/48 55/59/48 50/56/48
f 50/56/49 55/59/49 51/57/49 46/52/49
f 51/57/50 56/60/50 57/61/50 52/58/50
f 52/58/51 57/61/51 58/22/51 53/29/51
f 68/62/52 69/63/52 64/20/52 63/23/52
f 54/28/53 59/21/53 60/64/53 55/59/53
f 55/59/54 60/64/54 56/60/54 51/57/54
f 56/60/55 61/65/55 62/66/55 57/61/55
f 57/61/56 62/66/56 63/23/56 58/22/56
f 74/67/57 69/63/57 68/62/57 73/68/57
f 59/21/58 64/20/58 65/69/58 60/64/58
f 60/64/59 65/69/59 61/65/59 56/60/59
f 61/65/60 66/70/60 67/71/60 62/66/60
f 62/66/61 67/71/61 68/62/61 63/23/61
f 3/6/62 4/7/62 74/67/62 73/68/62
f 64/20/63 69/63/63 70/72/63 65/69/63
f 65/69/64 70/72/64 66/70/64 61/65/64
f 66/70/65 71/73/65 72/74/65 67/71/65
f 67/71/66 72/74/66 73/68/66 68/62/66
f 9/8/67 4/7/67 3/6/67 8/5/67
f 69/63/68 74/67/68 75/75/68 70/72/68
f 70/72/69 75/75/69 71/73/69 66/70/69
f 71/73/70 1/1/70 2/4/70 72/74/70
f 72/74/71 2/4/71 3/6/71 73/68/71
f 49/55/72 44/50/72 43/49/72 48/54/72
f 74/67/73 4/7/73 5/10/73 75/75/73
f 75/75/74 5/10/74 1/1/74 71/73/74
f 39/45/75 34/40/75 33/39/75 38/44/75
