# Blender v2.79 (sub 0) OBJ File: 'Ring3.blend'
# www.blender.org
mtllib Ring3.mtl
o Ring3_Torus
v 0.338328 0.000000 -0.000000
v 0.325405 -0.000000 -0.085412
v 0.267192 -0.000000 -0.090220
v 0.267192 0.000000 0.090220
v 0.325405 0.000000 0.085412
v 0.309078 -0.137610 0.000000
v 0.297253 -0.132448 -0.085412
v 0.244063 -0.108813 -0.090220
v 0.244063 -0.108813 0.090220
v 0.297253 -0.132448 0.085412
v 0.226385 -0.251427 0.000000
v 0.217662 -0.241995 -0.085412
v 0.178676 -0.198812 -0.090220
v 0.178676 -0.198812 0.090220
v 0.217662 -0.241995 0.085412
v 0.104549 -0.321769 0.000000
v 0.100396 -0.309699 -0.085412
v 0.082335 -0.254434 -0.090220
v 0.082335 -0.254434 0.090220
v 0.100396 -0.309699 0.085412
v -0.035365 -0.336474 0.000000
v -0.034269 -0.323853 -0.085412
v -0.028300 -0.266062 -0.090220
v -0.028300 -0.266062 0.090220
v -0.034269 -0.323853 0.085412
v -0.169164 -0.293001 0.000000
v -0.163049 -0.282010 -0.085412
v -0.134099 -0.231686 -0.090220
v -0.134099 -0.231686 0.090220
v -0.163049 -0.282010 0.085412
v -0.273713 -0.198864 0.000000
v -0.263677 -0.191404 -0.085412
v -0.216770 -0.157249 -0.090220
v -0.216770 -0.157249 0.090220
v -0.263677 -0.191404 0.085412
v -0.330935 -0.070342 0.000000
v -0.318752 -0.067704 -0.085412
v -0.262017 -0.055622 -0.090220
v -0.262017 -0.055622 0.090220
v -0.318752 -0.067704 0.085412
v -0.330935 0.070342 0.000000
v -0.318752 0.067704 -0.085412
v -0.262017 0.055622 -0.090220
v -0.262017 0.055622 0.090220
v -0.318752 0.067704 0.085412
v -0.263677 0.191404 -0.085412
v -0.216770 0.157249 -0.090220
v -0.216770 0.157249 0.090220
v -0.263677 0.191404 0.085412
v -0.163049 0.282010 -0.085412
v -0.134099 0.231686 -0.090220
v -0.134099 0.231686 0.090220
v -0.163049 0.282010 0.085412
v -0.034269 0.323853 -0.085412
v -0.028300 0.266062 -0.090220
v -0.028300 0.266062 0.090220
v -0.034269 0.323853 0.085412
v 0.100396 0.309699 -0.085412
v 0.082335 0.254434 -0.090220
v 0.082335 0.254434 0.090220
v 0.100396 0.309699 0.085412
v 0.217662 0.241995 -0.085412
v 0.178676 0.198812 -0.090220
v 0.178676 0.198812 0.090220
v 0.217662 0.241995 0.085412
v 0.297253 0.132448 -0.085412
v 0.244064 0.108813 -0.090220
v 0.244064 0.108813 0.090220
v 0.297253 0.132448 0.085412
v 0.104549 0.386598 0.000000
v 0.226385 0.386598 -0.000000
v -0.035365 0.386598 0.000000
v -0.034269 0.386598 -0.085412
v -0.034269 0.386598 0.085412
v -0.163049 0.386598 0.085412
v -0.163049 0.386598 -0.085412
v 0.338328 0.386598 0.000000
v 0.325405 0.386598 0.085412
v 0.325405 0.386598 -0.085412
v 0.297253 0.386598 -0.085412
v -0.273713 0.386598 -0.000000
v -0.263677 0.386598 0.085412
v -0.318752 0.386598 0.085412
v 0.100396 0.386598 0.085412
v -0.263677 0.386598 -0.085412
v 0.217662 0.386598 0.085412
v -0.318752 0.386598 -0.085412
v -0.169164 0.386598 0.000000
v 0.100396 0.386598 -0.085412
v 0.217662 0.386598 -0.085412
v -0.330935 0.386598 0.000000
v 0.297253 0.386598 0.085412
v 0.309078 0.386598 0.000000
v -0.031943 0.366944 -0.069024
v -0.031943 0.366944 0.069024
v -0.152834 0.366944 0.069024
v -0.152834 0.366944 -0.069024
v 0.317827 0.366944 -0.000000
v 0.305696 0.366944 0.069024
v 0.305696 0.366944 -0.069024
v 0.279268 0.366944 -0.069024
v -0.247296 0.366944 0.069024
v -0.298997 0.366944 0.069024
v 0.094472 0.366944 0.069024
v -0.247296 0.366944 -0.069024
v 0.204554 0.366944 0.069024
v -0.298997 0.366944 -0.069024
v 0.094472 0.366944 -0.069024
v 0.204554 0.366944 -0.069024
v -0.310434 0.366944 -0.000000
v 0.279268 0.366944 0.069024
v 0.098370 0.466014 -0.000000
v 0.212743 0.466014 -0.000000
v -0.032972 0.466014 -0.000000
v -0.256718 0.466014 -0.000000
v -0.158574 0.466014 -0.000000
v 0.290369 0.466014 -0.000000
v -0.032158 0.466014 -0.054651
v -0.031943 0.450028 -0.069024
v -0.031943 0.450028 0.069024
v -0.032158 0.466014 0.054651
v -0.154029 0.466014 0.054651
v -0.152834 0.450028 0.069024
v -0.152834 0.450028 -0.069024
v -0.154029 0.466014 -0.054651
v 0.317827 0.450028 -0.000000
v 0.301643 0.466014 -0.000000
v 0.292038 0.466014 0.054651
v 0.305696 0.450028 0.069024
v 0.292038 0.466014 -0.054651
v 0.305696 0.450028 -0.069024
v 0.279268 0.450028 -0.069024
v 0.281580 0.466014 -0.054651
v -0.247296 0.450028 0.069024
v -0.249258 0.466014 0.054651
v -0.285217 0.466014 0.054651
v -0.298997 0.450028 0.069024
v 0.094472 0.450028 0.069024
v 0.095284 0.466014 0.054651
v -0.247296 0.450028 -0.069024
v -0.249258 0.466014 -0.054651
v 0.204554 0.450028 0.069024
v 0.206259 0.466014 0.054651
v -0.298997 0.450028 -0.069024
v -0.285217 0.466014 -0.054651
v 0.094472 0.450028 -0.069024
v 0.095284 0.466014 -0.054651
v 0.206259 0.466014 -0.054651
v 0.204554 0.450028 -0.069024
v -0.294272 0.466014 -0.000000
v -0.310434 0.450028 -0.000000
v 0.279268 0.450028 0.069024
v 0.281580 0.466014 0.054651
vn 0.9676 -0.2057 -0.1464
vn 0.0823 -0.0175 -0.9965
vn 0.0823 -0.0175 0.9965
vn 0.9676 -0.2057 0.1464
vn 0.8004 -0.5815 -0.1460
vn 0.0681 -0.0495 -0.9965
vn -0.5000 0.8660 0.0000
vn 0.0681 -0.0495 0.9965
vn 0.8004 -0.5815 0.1460
vn 0.4947 -0.8569 -0.1451
vn 0.0421 -0.0729 -0.9964
vn -0.1045 -0.9945 0.0000
vn 0.0421 -0.0729 0.9964
vn 0.4947 -0.8569 0.1451
vn 0.1034 -0.9841 -0.1441
vn 0.0088 -0.0838 -0.9964
vn 0.3090 -0.9511 0.0000
vn 0.0088 -0.0838 0.9964
vn 0.1034 -0.9841 0.1441
vn -0.3058 -0.9413 -0.1430
vn -0.0261 -0.0802 -0.9964
vn -0.8090 0.5878 0.0000
vn -0.0261 -0.0802 0.9964
vn -0.3058 -0.9413 0.1430
vn -0.6623 -0.7356 -0.1421
vn -0.0565 -0.0627 -0.9964
vn -0.1045 0.9945 0.0000
vn -0.0565 -0.0627 0.9964
vn -0.6623 -0.7356 0.1421
vn -0.9044 -0.4026 -0.1414
vn -0.0771 -0.0343 -0.9964
vn 0.6691 0.7431 0.0000
vn -0.0771 -0.0343 0.9964
vn -0.9044 -0.4026 0.1414
vn -0.9900 0.0000 -0.1412
vn -0.0844 -0.0000 -0.9964
vn 0.3090 0.9511 0.0000
vn -0.0844 0.0000 0.9964
vn -0.9900 0.0000 0.1412
vn -0.0000 0.0000 1.0000
vn -0.0771 0.0343 -0.9964
vn 0.6691 -0.7431 0.0000
vn -0.0771 0.0343 0.9964
vn -0.0565 0.0627 -0.9964
vn 1.0000 -0.0000 0.0000
vn -0.0565 0.0627 0.9964
vn 0.9887 0.0000 0.1496
vn -0.0261 0.0802 -0.9964
vn -0.5000 -0.8660 0.0000
vn -0.0261 0.0802 0.9964
vn 0.0088 0.0838 -0.9964
vn -0.8090 -0.5878 0.0000
vn 0.0088 0.0838 0.9964
vn 0.0000 0.0000 -1.0000
vn 0.0421 0.0729 -0.9964
vn -0.9781 -0.2079 0.0000
vn 0.0421 0.0729 0.9964
vn 0.0681 0.0495 -0.9965
vn -0.9781 0.2079 -0.0000
vn 0.0681 0.0495 0.9965
vn 0.0823 0.0175 -0.9965
vn 0.9135 -0.4067 0.0000
vn 0.0823 0.0175 0.9965
vn 0.9135 0.4067 -0.0000
vn 0.0000 1.0000 0.0000
vn 0.9887 0.0000 -0.1496
vn 0.9849 0.0000 0.1731
vn 0.9849 0.0000 -0.1731
vn -0.9865 0.0000 -0.1635
vn -0.9865 0.0000 0.1635
vn 0.0000 0.6686 0.7436
vn 0.0000 0.6686 -0.7436
vn 0.6974 0.7061 0.1226
vn 0.6974 0.7061 -0.1226
vn -0.6985 0.7062 0.1157
vn -0.6985 0.7062 -0.1157
usemtl Golden
s off
f 1//1 6//1 7//1 2//1
f 2//2 7//2 8//2 3//2
f 4//3 9//3 10//3 5//3
f 5//4 10//4 6//4 1//4
f 6//5 11//5 12//5 7//5
f 7//6 12//6 13//6 8//6
f 18//7 19//7 14//7 13//7
f 9//8 14//8 15//8 10//8
f 10//9 15//9 11//9 6//9
f 11//10 16//10 17//10 12//10
f 12//11 17//11 18//11 13//11
f 60//12 56//12 55//12 59//12
f 14//13 19//13 20//13 15//13
f 15//14 20//14 16//14 11//14
f 16//15 21//15 22//15 17//15
f 17//16 22//16 23//16 18//16
f 56//17 52//17 51//17 55//17
f 19//18 24//18 25//18 20//18
f 20//19 25//19 21//19 16//19
f 21//20 26//20 27//20 22//20
f 22//21 27//21 28//21 23//21
f 13//22 14//22 9//22 8//22
f 24//23 29//23 30//23 25//23
f 25//24 30//24 26//24 21//24
f 26//25 31//25 32//25 27//25
f 27//26 32//26 33//26 28//26
f 23//27 24//27 19//27 18//27
f 29//28 34//28 35//28 30//28
f 30//29 35//29 31//29 26//29
f 31//30 36//30 37//30 32//30
f 32//31 37//31 38//31 33//31
f 33//32 34//32 29//32 28//32
f 34//33 39//33 40//33 35//33
f 35//34 40//34 36//34 31//34
f 36//35 41//35 42//35 37//35
f 37//36 42//36 43//36 38//36
f 28//37 29//37 24//37 23//37
f 39//38 44//38 45//38 40//38
f 40//39 45//39 41//39 36//39
f 69//40 5//40 78//40 92//40
f 42//41 46//41 47//41 43//41
f 51//42 52//42 48//42 47//42
f 44//43 48//43 49//43 45//43
f 61//40 65//40 86//40 84//40
f 41//39 45//39 83//39 91//39
f 46//44 50//44 51//44 47//44
f 44//45 39//45 38//45 43//45
f 48//46 52//46 53//46 49//46
f 5//47 1//47 77//47 78//47
f 65//40 69//40 92//40 86//40
f 50//48 54//48 55//48 51//48
f 63//49 64//49 60//49 59//49
f 52//50 56//50 57//50 53//50
f 49//40 53//40 75//40 82//40
f 53//40 57//40 74//40 75//40
f 54//51 58//51 59//51 55//51
f 68//52 64//52 63//52 67//52
f 56//53 60//53 61//53 57//53
f 50//54 46//54 85//54 76//54
f 57//40 61//40 84//40 74//40
f 58//55 62//55 63//55 59//55
f 3//56 4//56 68//56 67//56
f 60//57 64//57 65//57 61//57
f 66//54 62//54 90//54 80//54
f 58//54 54//54 73//54 89//54
f 62//58 66//58 67//58 63//58
f 9//59 4//59 3//59 8//59
f 64//60 68//60 69//60 65//60
f 42//35 41//35 91//35 87//35
f 45//40 49//40 82//40 83//40
f 66//61 2//61 3//61 67//61
f 48//62 44//62 43//62 47//62
f 68//63 4//63 5//63 69//63
f 2//54 66//54 80//54 79//54
f 39//64 34//64 33//64 38//64
f 91//65 81//65 85//65 87//65
f 83//65 82//65 81//65 91//65
f 81//65 88//65 76//65 85//65
f 82//65 75//65 88//65 81//65
f 88//65 72//65 73//65 76//65
f 75//65 74//65 72//65 88//65
f 72//65 70//65 89//65 73//65
f 74//65 84//65 70//65 72//65
f 70//65 71//65 90//65 89//65
f 84//65 86//65 71//65 70//65
f 71//65 93//65 80//65 90//65
f 86//65 92//65 93//65 71//65
f 93//65 77//65 79//65 80//65
f 92//65 78//65 77//65 93//65
f 62//54 58//54 89//54 90//54
f 1//66 2//66 79//66 77//66
f 54//54 50//54 76//54 73//54
f 46//54 42//54 87//54 85//54
usemtl Red
f 143//65 153//65 117//65 113//65
f 103//40 102//40 134//40 137//40
f 99//67 98//67 126//67 129//67
f 97//54 105//54 140//54 124//54
f 108//54 94//54 119//54 146//54
f 96//40 95//40 120//40 123//40
f 116//65 114//65 118//65 125//65
f 95//40 104//40 138//40 120//40
f 105//54 107//54 144//54 140//54
f 136//65 135//65 115//65 150//65
f 106//40 111//40 152//40 142//40
f 153//65 128//65 127//65 117//65
f 98//68 100//68 131//68 126//68
f 109//54 108//54 146//54 149//54
f 121//65 139//65 112//65 114//65
f 100//54 101//54 132//54 131//54
f 139//65 143//65 113//65 112//65
f 117//65 127//65 130//65 133//65
f 104//40 106//40 142//40 138//40
f 150//65 115//65 141//65 145//65
f 101//54 109//54 149//54 132//54
f 107//69 110//69 151//69 144//69
f 111//40 99//40 129//40 152//40
f 110//70 103//70 137//70 151//70
f 113//65 117//65 133//65 148//65
f 122//65 121//65 114//65 116//65
f 94//54 97//54 124//54 119//54
f 112//65 113//65 148//65 147//65
f 135//65 122//65 116//65 115//65
f 115//65 116//65 125//65 141//65
f 102//40 96//40 123//40 134//40
f 123//71 120//71 121//71 122//71
f 125//72 118//72 119//72 124//72
f 127//73 128//73 129//73 126//73
f 131//72 132//72 133//72 130//72
f 137//71 134//71 135//71 136//71
f 120//71 138//71 139//71 121//71
f 141//72 125//72 124//72 140//72
f 138//71 142//71 143//71 139//71
f 145//72 141//72 140//72 144//72
f 126//74 131//74 130//74 127//74
f 147//72 148//72 149//72 146//72
f 151//75 137//75 136//75 150//75
f 142//71 152//71 153//71 143//71
f 148//72 133//72 132//72 149//72
f 118//72 147//72 146//72 119//72
f 150//76 145//76 144//76 151//76
f 134//71 123//71 122//71 135//71
f 128//71 153//71 152//71 129//71
f 114//65 112//65 147//65 118//65
