# Blender v2.79 (sub 0) OBJ File: 'Snowflake2.blend'
# www.blender.org
mtllib Snowflake2.mtl
o Snowflake2_Cube.041
v 0.052004 -0.021443 0.050417
v 0.438938 -0.022620 0.050417
v 0.052004 -0.021443 -0.050417
v 0.438938 -0.022620 -0.050417
v 0.051935 0.021609 0.050417
v 0.438938 0.022814 0.050417
v 0.051935 0.021609 -0.050417
v 0.438938 0.022814 -0.050417
v -0.021609 0.051935 0.050417
v -0.294381 0.326371 0.050417
v -0.021609 0.051935 -0.050417
v -0.294381 0.326371 -0.050417
v -0.052004 0.021443 0.050417
v -0.326508 0.294244 0.050417
v -0.052004 0.021443 -0.050417
v -0.326508 0.294244 -0.050417
v -0.438938 0.022620 0.050417
v -0.438938 0.022620 -0.050417
v -0.051935 -0.021609 0.050417
v -0.438938 -0.022814 0.050417
v -0.051935 -0.021609 -0.050417
v -0.438938 -0.022814 -0.050417
v -0.326371 -0.294381 0.050417
v -0.326371 -0.294381 -0.050417
v -0.021443 -0.052004 0.050417
v -0.294244 -0.326508 0.050417
v -0.021443 -0.052004 -0.050417
v -0.294244 -0.326508 -0.050417
v -0.022620 -0.438938 0.050417
v -0.022620 -0.438938 -0.050417
v 0.021609 -0.051935 0.050417
v 0.022814 -0.438938 0.050417
v 0.021609 -0.051935 -0.050417
v 0.022814 -0.438938 -0.050417
v 0.294381 -0.326371 0.050417
v 0.294381 -0.326371 -0.050417
v 0.326508 -0.294244 0.050417
v 0.326508 -0.294244 -0.050417
v 0.326371 0.294381 0.050417
v 0.326371 0.294381 -0.050417
v 0.021443 0.052004 0.050417
v 0.294244 0.326508 0.050417
v 0.021443 0.052004 -0.050417
v 0.294244 0.326508 -0.050417
v 0.022620 0.438938 0.050417
v 0.022620 0.438938 -0.050417
v -0.022814 0.438938 0.050417
v -0.022814 0.438938 -0.050417
v 0.185102 -0.158953 0.028962
v 0.185102 -0.158953 -0.028962
v 0.188898 -0.198389 0.036019
v 0.188898 -0.198389 -0.036019
v 0.256246 -0.162015 0.036019
v 0.256246 -0.162015 -0.036019
v 0.253569 -0.202648 -0.036019
v 0.253569 -0.202648 0.036019
v 0.157951 -0.186104 0.028962
v 0.157951 -0.186104 -0.028962
v 0.198441 -0.188846 0.036019
v 0.198441 -0.188846 -0.036019
v 0.162068 -0.256193 0.036019
v 0.162068 -0.256193 -0.036019
v 0.202700 -0.253517 -0.036019
v 0.202701 -0.253517 0.036019
v 0.394432 -0.176407 0.030059
v 0.394432 -0.176407 -0.030059
v 0.392198 -0.210317 -0.030059
v 0.392198 -0.210317 0.030059
v 0.176811 -0.386106 0.029428
v 0.176811 -0.386106 -0.029429
v 0.210009 -0.383920 -0.029429
v 0.210009 -0.383920 0.029428
v 0.019556 -0.244724 0.029446
v 0.019556 -0.244724 -0.029446
v -0.006711 -0.273853 0.036019
v -0.006711 -0.273853 -0.036019
v 0.066631 -0.295755 0.036019
v 0.066631 -0.295755 -0.036019
v 0.036007 -0.322595 -0.036019
v 0.036006 -0.322595 0.036019
v -0.019482 -0.244724 0.029446
v -0.019482 -0.244724 -0.029446
v 0.006785 -0.273853 0.036019
v 0.006785 -0.273853 -0.036019
v -0.066557 -0.295755 0.036019
v -0.066557 -0.295755 -0.036019
v -0.035933 -0.322595 -0.036019
v -0.035933 -0.322595 0.036019
v 0.175644 -0.423349 0.032278
v 0.175644 -0.423349 -0.032278
v 0.148200 -0.447401 -0.032278
v 0.148200 -0.447401 0.032278
v -0.175571 -0.423349 0.032278
v -0.175571 -0.423349 -0.032278
v -0.148127 -0.447401 -0.032278
v -0.148127 -0.447401 0.032278
v 0.247014 0.018772 0.036019
v 0.247014 0.018772 -0.036019
v 0.273853 -0.006711 0.036019
v 0.273853 -0.006711 -0.036019
v 0.295755 0.066631 0.036019
v 0.295755 0.066631 -0.036019
v 0.322595 0.036007 -0.036019
v 0.322595 0.036007 0.036019
v 0.247014 -0.018698 0.036019
v 0.247014 -0.018698 -0.036019
v 0.273853 0.006785 0.036019
v 0.273853 0.006785 -0.036019
v 0.295755 -0.066557 0.036019
v 0.295755 -0.066557 -0.036019
v 0.322595 -0.035933 -0.036019
v 0.322595 -0.035933 0.036019
v 0.423349 0.175644 0.032278
v 0.423349 0.175644 -0.032278
v 0.447401 0.148200 -0.032278
v 0.447401 0.148200 0.032278
v 0.423349 -0.175571 0.032278
v 0.423349 -0.175571 -0.032279
v 0.447401 -0.148127 -0.032278
v 0.447401 -0.148127 0.032278
v 0.155829 0.186763 0.031687
v 0.155829 0.186763 -0.031688
v 0.198389 0.188898 0.036019
v 0.198389 0.188898 -0.036019
v 0.162015 0.256246 0.036019
v 0.162015 0.256246 -0.036019
v 0.202648 0.253569 -0.036019
v 0.202648 0.253569 0.036019
v 0.185535 0.157058 0.031687
v 0.185535 0.157058 -0.031688
v 0.188846 0.198441 0.036019
v 0.188846 0.198441 -0.036019
v 0.256193 0.162068 0.036019
v 0.256193 0.162068 -0.036019
v 0.253517 0.202701 -0.036019
v 0.253517 0.202700 0.036019
v 0.176763 0.386159 0.029428
v 0.176763 0.386159 -0.029428
v 0.209962 0.383972 -0.029428
v 0.209962 0.383972 0.029428
v 0.403286 0.176073 0.030738
v 0.403286 0.176073 -0.030738
v 0.401002 0.210749 -0.030738
v 0.401002 0.210749 0.030738
v -0.019806 0.241035 0.029822
v -0.019806 0.241035 -0.029822
v 0.006711 0.273853 0.036019
v 0.006711 0.273853 -0.036019
v -0.066631 0.295755 0.036019
v -0.066631 0.295755 -0.036019
v -0.036007 0.322595 -0.036019
v -0.036007 0.322595 0.036019
v 0.019732 0.241035 0.029822
v 0.019732 0.241035 -0.029822
v -0.006785 0.273853 0.036019
v -0.006785 0.273853 -0.036019
v 0.066557 0.295755 0.036019
v 0.066557 0.295755 -0.036019
v 0.035933 0.322595 -0.036019
v 0.035933 0.322595 0.036019
v -0.175645 0.423349 0.032278
v -0.175645 0.423349 -0.032278
v -0.148200 0.447401 -0.032278
v -0.148200 0.447401 0.032278
v 0.175570 0.423349 0.032278
v 0.175570 0.423349 -0.032278
v 0.148126 0.447401 -0.032278
v 0.148126 0.447401 0.032278
v -0.179331 0.153500 0.026931
v -0.179331 0.153500 -0.026931
v -0.188898 0.198389 0.036019
v -0.188898 0.198389 -0.036019
v -0.256245 0.162015 0.036019
v -0.256246 0.162015 -0.036019
v -0.253569 0.202648 -0.036019
v -0.253569 0.202648 0.036019
v -0.154084 0.178746 0.026931
v -0.154084 0.178746 -0.026931
v -0.198441 0.188846 0.036019
v -0.198441 0.188846 -0.036019
v -0.162067 0.256193 0.036019
v -0.162067 0.256193 -0.036019
v -0.202700 0.253517 -0.036019
v -0.202700 0.253517 0.036019
v -0.403338 0.176024 0.030738
v -0.403338 0.176024 -0.030738
v -0.401054 0.210699 -0.030738
v -0.401054 0.210699 0.030738
v -0.176598 0.391065 0.029806
v -0.176598 0.391065 -0.029806
v -0.210223 0.388850 -0.029806
v -0.210223 0.388850 0.029806
v -0.247014 -0.019917 0.029990
v -0.247014 -0.019917 -0.029991
v -0.273853 0.006711 0.036019
v -0.273853 0.006711 -0.036019
v -0.295755 -0.066631 0.036019
v -0.295755 -0.066631 -0.036019
v -0.322595 -0.036007 -0.036019
v -0.322595 -0.036007 0.036019
v -0.247014 0.019843 0.029990
v -0.247014 0.019843 -0.029991
v -0.273853 -0.006785 0.036019
v -0.273853 -0.006785 -0.036019
v -0.295755 0.066557 0.036019
v -0.295755 0.066557 -0.036019
v -0.322595 0.035933 -0.036019
v -0.322595 0.035933 0.036019
v -0.423349 -0.175644 0.032278
v -0.423349 -0.175644 -0.032279
v -0.447401 -0.148200 -0.032279
v -0.447401 -0.148200 0.032278
v -0.423349 0.175571 0.032278
v -0.423349 0.175571 -0.032278
v -0.447401 0.148127 -0.032279
v -0.447401 0.148127 0.032278
v -0.158141 -0.183525 0.029747
v -0.158141 -0.183525 -0.029748
v -0.198389 -0.188898 0.036019
v -0.198389 -0.188898 -0.036019
v -0.162015 -0.256246 0.036019
v -0.162015 -0.256245 -0.036019
v -0.202648 -0.253569 -0.036019
v -0.202648 -0.253569 0.036019
v -0.186028 -0.155638 0.029747
v -0.186028 -0.155638 -0.029748
v -0.188846 -0.198441 0.036019
v -0.188846 -0.198441 -0.036019
v -0.256193 -0.162067 0.036019
v -0.256193 -0.162067 -0.036019
v -0.253517 -0.202700 -0.036019
v -0.253517 -0.202700 0.036019
v -0.176550 -0.391117 0.029806
v -0.176550 -0.391117 -0.029807
v -0.210175 -0.388902 -0.029807
v -0.210175 -0.388902 0.029806
v -0.394380 -0.176456 0.030059
v -0.394380 -0.176456 -0.030059
v -0.392146 -0.210365 -0.030059
v -0.392146 -0.210365 0.030059
vn -0.0030 -1.0000 0.0000
vn -0.0000 -0.0000 -1.0000
vn -0.0031 1.0000 0.0000
vn 0.0000 -0.0000 1.0000
vn 1.0000 0.0000 0.0000
vn 0.7093 0.7050 0.0000
vn -0.7049 -0.7093 0.0000
vn -0.7071 0.7071 0.0000
vn 0.0030 1.0000 0.0000
vn 0.0031 -1.0000 -0.0000
vn -1.0000 0.0000 -0.0000
vn -0.7050 0.7093 0.0000
vn 0.7093 -0.7049 -0.0000
vn -0.7071 -0.7071 -0.0000
vn -1.0000 0.0030 0.0000
vn 1.0000 0.0031 -0.0000
vn 0.0000 -1.0000 0.0000
vn -0.7093 -0.7050 -0.0000
vn 0.7049 0.7093 -0.0000
vn 0.7071 -0.7071 -0.0000
vn 0.7050 -0.7093 0.0000
vn -0.7093 0.7049 0.0000
vn 0.7071 0.7071 0.0000
vn 1.0000 -0.0030 -0.0000
vn -1.0000 -0.0031 0.0000
vn 0.0000 1.0000 -0.0000
vn 0.0428 -0.0028 0.9991
vn -0.0470 0.0870 0.9951
vn -0.0470 0.0870 -0.9951
vn -0.0657 -0.9978 0.0000
vn 0.0430 0.9991 0.0000
vn 0.9984 0.0560 -0.0000
vn -0.0865 0.0467 0.9952
vn -0.0865 0.0467 -0.9952
vn 0.9978 0.0657 -0.0000
vn -0.9983 -0.0586 0.0000
vn 0.9978 -0.0657 -0.0000
vn 0.0428 -0.0028 -0.9991
vn -0.0552 -0.9985 0.0000
vn 0.1036 0.9946 0.0000
vn 0.0657 -0.9978 0.0000
vn -0.9936 -0.1128 0.0000
vn 0.0033 -0.0503 0.9987
vn 0.0033 -0.0503 -0.9987
vn 0.0147 -0.0168 0.9998
vn 0.0268 0.0897 0.9956
vn 0.0268 0.0897 -0.9956
vn -0.7521 -0.6591 -0.0000
vn 0.7350 0.6780 -0.0000
vn 0.7437 -0.6685 -0.0000
vn -0.0268 0.0897 0.9956
vn -0.0268 0.0897 -0.9956
vn 0.7521 -0.6591 -0.0000
vn -0.7350 0.6780 0.0000
vn 0.6591 -0.7520 0.0000
vn 0.0147 -0.0168 -0.9998
vn -0.7437 -0.6685 -0.0000
vn 0.7603 0.6496 0.0000
vn -0.6591 -0.7520 -0.0000
vn -0.7603 0.6496 0.0000
vn -0.0147 -0.0168 0.9998
vn -0.0147 -0.0168 -0.9998
vn 0.0168 0.0147 0.9998
vn 0.6591 -0.7521 0.0000
vn -0.7006 0.7135 0.0000
vn 0.6685 0.7437 -0.0000
vn 0.6591 0.7521 0.0000
vn -0.7006 -0.7135 0.0000
vn 0.7521 0.6591 -0.0000
vn 0.0168 0.0147 -0.9998
vn 0.6685 -0.7437 -0.0000
vn -0.6496 0.7603 0.0000
vn 0.7520 -0.6591 -0.0000
vn -0.6496 -0.7603 0.0000
vn 0.0168 -0.0147 0.9998
vn 0.0168 -0.0147 -0.9998
vn 0.0033 0.0503 0.9987
vn -0.0522 -0.0282 0.9982
vn -0.0522 -0.0282 -0.9982
vn -0.9961 0.0887 0.0000
vn -0.0545 0.9985 0.0000
vn -0.0284 -0.0525 0.9982
vn -0.0284 -0.0525 -0.9982
vn -0.0657 0.9978 0.0000
vn 0.0707 -0.9975 0.0000
vn 0.0657 0.9978 0.0000
vn 0.0033 0.0503 -0.9987
vn 0.9984 -0.0560 0.0000
vn -0.9936 0.1128 0.0000
vn 0.0948 -0.9955 0.0000
vn 0.0357 0.0023 0.9994
vn 0.0357 0.0023 -0.9994
vn -0.0147 0.0168 0.9998
vn -0.0240 -0.0805 0.9965
vn -0.0240 -0.0805 -0.9965
vn -0.7598 -0.6502 -0.0000
vn -0.7437 0.6685 0.0000
vn 0.0240 -0.0805 0.9965
vn 0.0240 -0.0805 -0.9965
vn -0.7521 0.6591 0.0000
vn 0.7598 -0.6502 -0.0000
vn -0.6591 0.7521 0.0000
vn -0.0147 0.0168 -0.9998
vn 0.7437 0.6685 -0.0000
vn -0.7603 -0.6496 0.0000
vn 0.6591 0.7520 0.0000
vn 0.7603 -0.6496 -0.0000
vn 0.0147 0.0168 0.9998
vn 0.0147 0.0168 -0.9998
vn -0.0357 0.0023 0.9994
vn 0.0546 -0.1012 0.9934
vn 0.0546 -0.1012 -0.9934
vn -0.1100 -0.9939 0.0000
vn -0.9985 -0.0555 0.0000
vn 0.1014 -0.0548 0.9933
vn 0.1014 -0.0548 -0.9933
vn -0.9978 -0.0657 0.0000
vn 0.9947 0.1025 -0.0000
vn -0.9978 0.0657 0.0000
vn -0.0357 0.0023 -0.9994
vn 0.0545 0.9985 -0.0000
vn -0.0948 -0.9955 -0.0000
vn 0.9942 0.1071 -0.0000
vn -0.0030 0.0457 0.9990
vn -0.0030 0.0457 -0.9990
vn -0.0168 -0.0147 0.9998
vn 0.0848 -0.0253 0.9961
vn 0.0848 -0.0253 -0.9961
vn 0.6919 -0.7220 -0.0000
vn -0.6685 -0.7437 0.0000
vn 0.0848 0.0253 0.9961
vn 0.0848 0.0253 -0.9961
vn -0.6591 -0.7521 0.0000
vn 0.6919 0.7220 -0.0000
vn -0.0168 -0.0147 -0.9998
vn -0.6685 0.7437 0.0000
vn 0.6496 -0.7603 -0.0000
vn -0.7520 0.6591 0.0000
vn 0.6496 0.7603 -0.0000
vn -0.0168 0.0147 0.9998
vn -0.0168 0.0147 -0.9998
vn -0.0030 -0.0457 0.9990
vn 0.0759 0.0410 0.9963
vn 0.0759 0.0410 -0.9963
vn 0.9986 -0.0532 0.0000
vn 0.0552 -0.9985 0.0000
vn 0.0404 0.0748 0.9964
vn 0.0404 0.0748 -0.9964
vn -0.0913 0.9958 0.0000
vn -0.0030 -0.0457 -0.9990
vn -0.9985 0.0555 0.0000
vn 0.9942 -0.1071 -0.0000
vn -0.1036 0.9946 -0.0000
vn -0.0428 -0.0028 0.9991
vn -0.0428 -0.0028 -0.9991
usemtl Snowflake
s off
f 1//1 3//1 4//1 2//1
f 3//2 7//2 8//2 4//2
f 7//3 5//3 6//3 8//3
f 5//4 1//4 2//4 6//4
f 8//5 6//5 2//5 4//5
f 9//6 11//6 12//6 10//6
f 11//2 15//2 16//2 12//2
f 15//7 13//7 14//7 16//7
f 13//4 9//4 10//4 14//4
f 16//8 14//8 10//8 12//8
f 13//9 15//9 18//9 17//9
f 15//2 21//2 22//2 18//2
f 21//10 19//10 20//10 22//10
f 19//4 13//4 17//4 20//4
f 22//11 20//11 17//11 18//11
f 19//12 21//12 24//12 23//12
f 21//2 27//2 28//2 24//2
f 27//13 25//13 26//13 28//13
f 25//4 19//4 23//4 26//4
f 28//14 26//14 23//14 24//14
f 25//15 27//15 30//15 29//15
f 27//2 33//2 34//2 30//2
f 33//16 31//16 32//16 34//16
f 31//4 25//4 29//4 32//4
f 34//17 32//17 29//17 30//17
f 31//18 33//18 36//18 35//18
f 33//2 3//2 38//2 36//2
f 3//19 1//19 37//19 38//19
f 1//4 31//4 35//4 37//4
f 38//20 37//20 35//20 36//20
f 5//21 7//21 40//21 39//21
f 7//2 43//2 44//2 40//2
f 43//22 41//22 42//22 44//22
f 41//4 5//4 39//4 42//4
f 1//4 5//4 41//4 9//4 13//4 19//4 25//4 31//4
f 44//23 42//23 39//23 40//23
f 41//24 43//24 46//24 45//24
f 43//2 11//2 48//2 46//2
f 11//25 9//25 47//25 48//25
f 9//4 41//4 45//4 47//4
f 7//2 3//2 33//2 27//2 21//2 15//2 11//2 43//2
f 48//26 47//26 45//26 46//26
f 53//27 56//27 68//27 65//27
f 49//28 51//28 56//28 53//28
f 52//29 50//29 54//29 55//29
f 51//30 52//30 55//30 56//30
f 50//31 49//31 53//31 54//31
f 63//32 64//32 72//32 71//32
f 57//33 61//33 64//33 59//33
f 60//34 63//34 62//34 58//34
f 59//35 64//35 63//35 60//35
f 58//36 62//36 61//36 57//36
f 67//37 66//37 65//37 68//37
f 55//38 54//38 66//38 67//38
f 56//39 55//39 67//39 68//39
f 54//40 53//40 65//40 66//40
f 71//41 72//41 69//41 70//41
f 61//42 62//42 70//42 69//42
f 64//43 61//43 69//43 72//43
f 62//44 63//44 71//44 70//44
f 77//45 80//45 92//45 89//45
f 73//46 75//46 80//46 77//46
f 76//47 74//47 78//47 79//47
f 75//48 76//48 79//48 80//48
f 74//49 73//49 77//49 78//49
f 87//50 88//50 96//50 95//50
f 81//51 85//51 88//51 83//51
f 84//52 87//52 86//52 82//52
f 83//53 88//53 87//53 84//53
f 82//54 86//54 85//54 81//54
f 91//55 90//55 89//55 92//55
f 79//56 78//56 90//56 91//56
f 80//57 79//57 91//57 92//57
f 78//58 77//58 89//58 90//58
f 95//59 96//59 93//59 94//59
f 85//60 86//60 94//60 93//60
f 88//61 85//61 93//61 96//61
f 86//62 87//62 95//62 94//62
f 101//63 104//63 116//63 113//63
f 97//4 99//4 104//4 101//4
f 100//2 98//2 102//2 103//2
f 99//64 100//64 103//64 104//64
f 98//65 97//65 101//65 102//65
f 111//66 112//66 120//66 119//66
f 105//4 109//4 112//4 107//4
f 108//2 111//2 110//2 106//2
f 107//67 112//67 111//67 108//67
f 106//68 110//68 109//68 105//68
f 115//69 114//69 113//69 116//69
f 103//70 102//70 114//70 115//70
f 104//71 103//71 115//71 116//71
f 102//72 101//72 113//72 114//72
f 119//73 120//73 117//73 118//73
f 109//74 110//74 118//74 117//74
f 112//75 109//75 117//75 120//75
f 110//76 111//76 119//76 118//76
f 125//77 128//77 140//77 137//77
f 121//78 123//78 128//78 125//78
f 124//79 122//79 126//79 127//79
f 123//37 124//37 127//37 128//37
f 122//80 121//80 125//80 126//80
f 135//81 136//81 144//81 143//81
f 129//82 133//82 136//82 131//82
f 132//83 135//83 134//83 130//83
f 131//84 136//84 135//84 132//84
f 130//85 134//85 133//85 129//85
f 139//86 138//86 137//86 140//86
f 127//87 126//87 138//87 139//87
f 128//88 127//88 139//88 140//88
f 126//89 125//89 137//89 138//89
f 143//35 144//35 141//35 142//35
f 133//90 134//90 142//90 141//90
f 136//91 133//91 141//91 144//91
f 134//92 135//92 143//92 142//92
f 149//93 152//93 164//93 161//93
f 145//94 147//94 152//94 149//94
f 148//95 146//95 150//95 151//95
f 147//69 148//69 151//69 152//69
f 146//96 145//96 149//96 150//96
f 159//97 160//97 168//97 167//97
f 153//98 157//98 160//98 155//98
f 156//99 159//99 158//99 154//99
f 155//100 160//100 159//100 156//100
f 154//101 158//101 157//101 153//101
f 163//102 162//102 161//102 164//102
f 151//103 150//103 162//103 163//103
f 152//104 151//104 163//104 164//104
f 150//105 149//105 161//105 162//105
f 167//106 168//106 165//106 166//106
f 157//107 158//107 166//107 165//107
f 160//108 157//108 165//108 168//108
f 158//109 159//109 167//109 166//109
f 173//110 176//110 188//110 185//110
f 169//111 171//111 176//111 173//111
f 172//112 170//112 174//112 175//112
f 171//86 172//86 175//86 176//86
f 170//113 169//113 173//113 174//113
f 183//114 184//114 192//114 191//114
f 177//115 181//115 184//115 179//115
f 180//116 183//116 182//116 178//116
f 179//117 184//117 183//117 180//117
f 178//118 182//118 181//118 177//118
f 187//119 186//119 185//119 188//119
f 175//120 174//120 186//120 187//120
f 176//121 175//121 187//121 188//121
f 174//122 173//122 185//122 186//122
f 191//84 192//84 189//84 190//84
f 181//123 182//123 190//123 189//123
f 184//124 181//124 189//124 192//124
f 182//125 183//125 191//125 190//125
f 197//126 200//126 212//126 209//126
f 193//127 195//127 200//127 197//127
f 196//128 194//128 198//128 199//128
f 195//102 196//102 199//102 200//102
f 194//129 193//129 197//129 198//129
f 207//130 208//130 216//130 215//130
f 201//131 205//131 208//131 203//131
f 204//132 207//132 206//132 202//132
f 203//133 208//133 207//133 204//133
f 202//134 206//134 205//134 201//134
f 211//48 210//48 209//48 212//48
f 199//135 198//135 210//135 211//135
f 200//136 199//136 211//136 212//136
f 198//137 197//137 209//137 210//137
f 215//138 216//138 213//138 214//138
f 205//139 206//139 214//139 213//139
f 208//140 205//140 213//140 216//140
f 206//141 207//141 215//141 214//141
f 221//142 224//142 236//142 233//142
f 217//143 219//143 224//143 221//143
f 220//144 218//144 222//144 223//144
f 219//119 220//119 223//119 224//119
f 218//145 217//145 221//145 222//145
f 231//146 232//146 240//146 239//146
f 225//147 229//147 232//147 227//147
f 228//148 231//148 230//148 226//148
f 227//41 232//41 231//41 228//41
f 226//149 230//149 229//149 225//149
f 235//30 234//30 233//30 236//30
f 223//150 222//150 234//150 235//150
f 224//151 223//151 235//151 236//151
f 222//152 221//152 233//152 234//152
f 239//117 240//117 237//117 238//117
f 229//153 230//153 238//153 237//153
f 232//154 229//154 237//154 240//154
f 230//155 231//155 239//155 238//155
