# Blender v2.81 (sub 16) OBJ File: 'Nature Pack Low Poly.blend'
# www.blender.org
mtllib Flower_2_Snow.mtl
o Flower_2_Snow_Cube.012
v -0.014124 -0.018828 0.018828
v -0.018828 -0.018828 -0.018828
v -0.018828 0.513008 0.152637
v 0.014124 -0.018828 0.018828
v 0.014124 0.490137 0.182552
v 0.018828 -0.018828 -0.018828
v -0.230525 0.296063 0.042075
v -0.227381 0.302972 0.042075
v -0.230525 0.296063 -0.042075
v -0.227381 0.302972 -0.042075
v -0.002625 0.192372 0.016095
v 0.000518 0.199280 0.016095
v -0.002625 0.192372 -0.016095
v 0.000518 0.199280 -0.016095
v -0.091320 0.198962 -0.085046
v -0.167286 0.233525 -0.085046
v -0.164143 0.240434 -0.085046
v -0.088177 0.205870 -0.085046
v -0.167286 0.233525 0.085046
v -0.091320 0.198962 0.085046
v -0.088177 0.205870 0.085046
v -0.164143 0.240434 0.085046
v -0.230525 0.296063 0.000000
v -0.227381 0.302972 0.000000
v -0.002625 0.192372 0.000000
v 0.000518 0.199280 0.000000
v -0.088177 0.205870 0.000000
v -0.164143 0.240434 0.000000
v -0.167286 0.233525 0.000000
v -0.091320 0.198962 0.000000
v 0.144845 0.421469 0.092693
v 0.142902 0.424983 0.095123
v 0.144845 0.391874 0.135496
v 0.142902 0.395388 0.137926
v 0.003912 0.359589 0.069440
v 0.001968 0.363103 0.071869
v 0.003912 0.348268 0.085814
v 0.001968 0.351782 0.088243
v 0.058761 0.327370 0.123204
v 0.105739 0.344951 0.135359
v 0.103795 0.348465 0.137789
v 0.056817 0.330884 0.125633
v 0.105739 0.404772 0.048841
v 0.058761 0.387190 0.036685
v 0.056817 0.390704 0.039115
v 0.103795 0.408285 0.051271
v 0.144845 0.406672 0.114094
v 0.142902 0.410186 0.116524
v 0.003912 0.353928 0.077627
v 0.001968 0.357442 0.080056
v 0.056817 0.360794 0.082374
v 0.103795 0.378375 0.094530
v 0.105739 0.374861 0.092100
v 0.058761 0.357280 0.079944
v -0.000000 0.520838 0.120977
v -0.047042 0.498489 0.146836
v -0.029074 0.462328 0.188676
v 0.029074 0.462328 0.188676
v 0.047042 0.498489 0.146836
v -0.000000 0.535064 0.133272
v -0.047042 0.512715 0.159130
v -0.029074 0.476553 0.200971
v 0.029074 0.476553 0.200971
v 0.047042 0.512715 0.159130
v 0.000000 0.545140 0.162941
v -0.031960 0.529957 0.180509
v -0.019752 0.505389 0.208935
v 0.019752 0.505389 0.208935
v 0.031960 0.529957 0.180509
v 0.000000 0.535210 0.198775
v 0.232387 0.587262 0.107951
v 0.025912 0.685355 -0.005547
v 0.025912 0.670470 -0.018411
v 0.232387 0.572378 0.095087
v -0.127608 0.361513 0.339067
v 0.127609 0.361513 0.339067
v 0.127609 0.376397 0.351931
v -0.127608 0.376397 0.351931
v -0.025912 0.670470 -0.018411
v -0.232387 0.572378 0.095087
v -0.232387 0.587262 0.107951
v -0.025912 0.685355 -0.005547
v 0.169535 0.381432 0.316020
v 0.248402 0.540149 0.132377
v 0.248402 0.555033 0.145241
v 0.169535 0.396316 0.328884
v -0.248402 0.540149 0.132377
v -0.169535 0.381432 0.316020
v -0.169535 0.396316 0.328884
v -0.248402 0.555033 0.145241
v 0.023144 0.230836 0.416290
v -0.023144 0.230836 0.416290
v 0.234310 0.655804 -0.075418
v 0.234310 0.663060 -0.069146
v 0.196863 0.680851 -0.089731
v 0.196863 0.673594 -0.096003
v 0.023144 0.238093 0.422562
v -0.023144 0.238093 0.422562
v -0.234310 0.655804 -0.075418
v -0.196863 0.673594 -0.096003
v -0.234310 0.663060 -0.069146
v -0.196863 0.680851 -0.089731
v 0.355978 0.410949 0.207889
v 0.341674 0.382164 0.241196
v 0.355978 0.418206 0.214161
v 0.341674 0.389421 0.247468
v -0.341674 0.382164 0.241196
v -0.355978 0.410949 0.207890
v -0.341674 0.389421 0.247468
v -0.355978 0.418206 0.214162
v -0.014124 0.270978 0.018828
v -0.018828 0.270978 -0.018828
v 0.018828 0.270978 -0.018828
v 0.014124 0.270978 0.018828
v -0.014124 0.490137 0.182552
v 0.018828 0.513008 0.152637
vt 0.000000 0.000000
vt 0.000000 0.000000
vt 0.000000 0.000000
vt 0.000000 0.000000
vt 0.000000 0.000000
vt 0.000000 0.000000
vt 0.000000 0.000000
vt 0.000000 0.000000
vt 0.000000 0.000000
vt 0.500000 0.000000
vt 0.625000 0.000000
vt 0.625000 0.250000
vt 0.500000 0.250000
vt 0.500000 0.500000
vt 0.625000 0.500000
vt 0.625000 0.750000
vt 0.500000 0.750000
vt 0.625000 1.000000
vt 0.500000 1.000000
vt 0.125000 0.500000
vt 0.375000 0.500000
vt 0.375000 0.750000
vt 0.125000 0.750000
vt 0.375000 0.125000
vt 0.625000 0.125000
vt 0.625000 0.250000
vt 0.375000 0.250000
vt 0.375000 0.416667
vt 0.625000 0.416667
vt 0.625000 0.500000
vt 0.375000 0.500000
vt 0.375000 0.625000
vt 0.625000 0.625000
vt 0.625000 0.750000
vt 0.375000 0.750000
vt 0.375000 0.916667
vt 0.625000 0.916667
vt 0.625000 1.000000
vt 0.375000 1.000000
vt 0.291667 0.625000
vt 0.291667 0.750000
vt 0.125000 0.625000
vt 0.208333 0.625000
vt 0.208333 0.750000
vt 0.125000 0.750000
vt 0.625000 0.833333
vt 0.375000 0.833333
vt 0.625000 0.333333
vt 0.375000 0.333333
vt 0.208333 0.500000
vt 0.291667 0.500000
vt 0.125000 0.500000
vt 0.375000 0.000000
vt 0.625000 0.000000
vt 0.375000 0.125000
vt 0.625000 0.125000
vt 0.625000 0.250000
vt 0.375000 0.250000
vt 0.375000 0.416667
vt 0.625000 0.416667
vt 0.625000 0.500000
vt 0.375000 0.500000
vt 0.375000 0.625000
vt 0.625000 0.625000
vt 0.625000 0.750000
vt 0.375000 0.750000
vt 0.291667 0.625000
vt 0.291667 0.750000
vt 0.125000 0.625000
vt 0.208333 0.625000
vt 0.208333 0.750000
vt 0.125000 0.750000
vt 0.625000 0.833333
vt 0.375000 0.833333
vt 0.625000 0.333333
vt 0.375000 0.333333
vt 0.208333 0.500000
vt 0.291667 0.500000
vt 0.125000 0.500000
vt 0.375000 0.000000
vt 0.625000 0.000000
vt 0.375000 1.000000
vt 0.375000 0.250000
vt 0.375000 0.000000
vt 0.875000 0.500000
vt 0.875000 0.750000
vt 0.000000 0.000000
vt 0.000000 0.000000
vt 0.000000 0.000000
vt 0.000000 0.000000
vt 0.000000 0.000000
vt 0.000000 0.000000
vt 0.000000 0.000000
vt 0.000000 0.000000
vt 0.000000 0.000000
vt 0.000000 0.000000
vt 0.000000 0.000000
vt 0.000000 0.000000
vt 0.000000 0.000000
vt 0.000000 0.000000
vt 0.000000 0.000000
vt 0.000000 0.000000
vt 0.000000 0.000000
vt 0.000000 0.000000
vt 0.000000 0.000000
vt 0.000000 0.000000
vt 0.000000 0.000000
vt 0.000000 0.000000
vt 0.000000 0.000000
vt 0.000000 0.000000
vt 0.000000 0.000000
vt 0.000000 0.000000
vt 0.000000 0.000000
vt 0.000000 0.000000
vt 0.000000 0.000000
vt 0.000000 0.000000
vt 0.000000 0.000000
vt 0.000000 0.000000
vt 0.000000 0.000000
vt 0.000000 0.000000
vt 0.000000 0.000000
vt 0.000000 0.000000
vt 0.000000 0.000000
vt 0.000000 0.000000
vt 0.000000 0.000000
vt 0.000000 0.000000
vt 0.000000 0.000000
vt 0.000000 0.000000
vt 0.000000 0.000000
vt 0.791667 0.625000
vt 0.875000 0.625000
vt 0.875000 0.750000
vt 0.791667 0.750000
vt 0.708333 0.625000
vt 0.708333 0.750000
vt 0.708333 0.500000
vt 0.791667 0.500000
vt 0.875000 0.500000
vt 0.375000 0.916667
vt 0.625000 0.916667
vt 0.625000 1.000000
vt 0.375000 1.000000
vt 0.791667 0.625000
vt 0.875000 0.625000
vt 0.875000 0.750000
vt 0.791667 0.750000
vt 0.708333 0.625000
vt 0.708333 0.750000
vt 0.708333 0.500000
vt 0.791667 0.500000
vt 0.875000 0.500000
vt 0.000000 0.000000
vt 0.000000 0.000000
vt 0.000000 0.000000
vt 0.000000 0.000000
vn 0.0000 -0.2662 0.9639
vn -0.0000 -0.7566 -0.6539
vn -0.9906 -0.0805 0.1107
vn 0.9906 -0.0805 0.1107
vn -0.0000 -0.5985 0.8011
vn 0.0000 -1.0000 -0.0000
vn -0.9102 0.4141 0.0000
vn 0.5797 -0.2638 -0.7709
vn 0.9102 -0.4141 0.0000
vn -0.4167 0.1896 0.8891
vn -0.0741 -0.9973 0.0000
vn -0.7032 -0.7110 0.0000
vn -0.4141 -0.9102 0.0000
vn 0.5797 -0.2638 0.7709
vn -0.0000 0.0000 1.0000
vn -0.4167 0.1896 -0.8891
vn 0.0000 0.0000 -1.0000
vn 0.9102 0.3406 0.2355
vn -0.5797 -0.6554 0.4841
vn -0.9102 -0.3406 -0.2355
vn 0.0741 -0.8203 -0.5672
vn 0.7032 -0.5849 -0.4044
vn 0.4141 -0.7487 -0.5177
vn -0.5797 0.2215 -0.7841
vn 0.4167 -0.3497 0.8391
vn -0.0000 -0.5687 0.8225
vn 0.9923 0.0000 0.1240
vn -0.9923 0.0000 0.1240
vn 0.0000 0.7944 0.6074
vn -0.9511 -0.2021 0.2338
vn 0.9511 -0.2021 0.2338
vn -0.5878 0.5290 -0.6121
vn 0.0000 -0.6539 0.7566
vn 0.5878 0.5290 -0.6121
vn 0.0716 -0.6865 -0.7236
vn -0.9920 0.0827 -0.0957
vn 0.4268 -0.5914 0.6842
vn -0.2990 -0.6547 -0.6942
vn 0.0000 -0.8306 -0.5568
vn 0.8768 0.3144 -0.3638
vn -0.8768 0.3144 -0.3638
vn 0.8092 -0.3842 0.4445
vn -0.0716 -0.6865 -0.7236
vn -0.4268 -0.5913 0.6842
vn 0.9920 0.0827 -0.0957
vn 0.1808 -0.8826 -0.4339
vn 0.1159 -0.7756 -0.6205
vn -0.1863 0.6424 -0.7433
vn -0.7282 -0.4482 0.5185
vn 0.9999 -0.0069 0.0079
vn -0.1159 -0.7756 -0.6205
vn 0.7282 -0.4482 0.5185
vn 0.1863 0.6424 -0.7433
vn -0.9999 -0.0069 0.0079
vn 0.2990 -0.6547 -0.6942
vn 0.0000 -0.5087 -0.8609
vn 0.7963 0.3955 -0.4577
vn -0.3348 0.6161 -0.7129
vn -0.3148 -0.6207 0.7181
vn -0.8092 -0.3842 0.4445
vn -0.1808 -0.8826 -0.4339
vn 0.3348 0.6161 -0.7129
vn 0.3148 -0.6207 0.7181
vn -0.7963 0.3955 -0.4577
vn 0.0000 0.5781 -0.8160
vn 0.7032 0.7110 0.0000
vn 0.0741 0.9973 0.0000
vn 0.4141 0.9102 0.0000
vn 0.4167 0.6616 -0.6235
vn -0.7032 0.5849 0.4044
vn -0.0741 0.8203 0.5672
vn -0.4141 0.7487 0.5177
vn -0.0000 0.5687 -0.8225
vn -0.7032 0.5848 0.4044
vn 0.8592 0.1419 0.4916
vn -0.8592 0.1419 0.4916
vn 0.5310 0.8024 -0.2725
vn -0.5310 0.8024 -0.2725
vn 0.2970 0.9202 0.2550
vn -0.0000 0.3225 0.9466
vn -0.2970 0.9202 0.2550
vn 0.4806 0.5508 0.6824
vn -0.4806 0.5508 0.6824
vn 0.2139 0.8972 0.3863
vn -0.0744 0.6835 0.7261
vn 0.0000 0.8333 0.5528
vn 0.0744 0.6835 0.7261
vn -0.1204 0.7761 0.6190
vn 0.1204 0.7761 0.6190
vn 0.0000 0.4548 0.8906
vn -0.2139 0.8972 0.3863
vn 0.3533 0.6274 0.6940
vn -0.3533 0.6274 0.6940
usemtl Flower_3
s off
f 62/1/1 63/2/1 68/3/1 67/4/1
f 56/5/2 55/6/2 59/7/2 58/8/2 57/9/2
usemtl leaves_dark
f 111/10/3 115/11/3 3/12/3 112/13/3
f 113/14/4 116/15/4 5/16/4 114/17/4
f 114/17/5 5/16/5 115/18/5 111/19/5
f 2/20/6 6/21/6 4/22/6 1/23/6
f 23/24/7 24/25/7 10/26/7 9/27/7
f 15/28/8 18/29/8 14/30/8 13/31/8
f 25/32/9 26/33/9 12/34/9 11/35/9
f 19/36/10 22/37/10 8/38/10 7/39/10
f 30/40/11 25/32/11 11/35/11 20/41/11
f 23/42/12 29/43/12 19/44/12 7/45/12
f 29/43/13 30/40/13 20/41/13 19/44/13
f 11/35/14 12/34/14 21/46/14 20/47/14
f 20/47/15 21/46/15 22/37/15 19/36/15
f 9/27/16 10/26/16 17/48/16 16/49/16
f 16/49/17 17/48/17 18/29/17 15/28/17
f 16/50/13 15/51/13 30/40/13 29/43/13
f 9/52/12 16/50/12 29/43/12 23/42/12
f 15/51/11 13/31/11 25/32/11 30/40/11
f 13/31/9 14/30/9 26/33/9 25/32/9
f 7/53/7 8/54/7 24/25/7 23/24/7
f 47/55/18 48/56/18 34/57/18 33/58/18
f 39/59/19 42/60/19 38/61/19 37/62/19
f 49/63/20 50/64/20 36/65/20 35/66/20
f 54/67/21 49/63/21 35/66/21 44/68/21
f 47/69/22 53/70/22 43/71/22 31/72/22
f 53/70/23 54/67/23 44/68/23 43/71/23
f 35/66/24 36/65/24 45/73/24 44/74/24
f 33/58/25 34/57/25 41/75/25 40/76/25
f 40/76/26 41/75/26 42/60/26 39/59/26
f 40/77/23 39/78/23 54/67/23 53/70/23
f 33/79/22 40/77/22 53/70/22 47/69/22
f 39/78/21 37/62/21 49/63/21 54/67/21
f 37/62/20 38/61/20 50/64/20 49/63/20
f 31/80/18 32/81/18 48/56/18 47/55/18
f 4/22/15 114/17/15 111/19/15 1/82/15
f 6/21/27 113/14/27 114/17/27 4/22/27
f 2/83/17 112/13/17 113/14/17 6/21/17
f 1/84/28 111/10/28 112/13/28 2/83/28
f 116/15/29 3/85/29 115/86/29 5/16/29
usemtl Flower_2
f 108/87/30 107/88/30 109/89/30 110/90/30
f 104/91/31 103/92/31 105/93/31 106/94/31
f 100/95/32 99/96/32 101/97/32 102/98/32
f 92/99/33 91/100/33 97/101/33 98/102/33
f 93/103/34 96/104/34 95/105/34 94/106/34
f 55/6/35 73/107/35 74/108/35 59/7/35
f 60/109/36 72/110/36 73/107/36 55/6/36
f 59/7/37 74/108/37 71/111/37 64/112/37
f 83/113/38 84/114/38 103/92/38 104/91/38
f 58/8/39 76/115/39 75/116/39 57/9/39
f 63/2/40 77/117/40 76/115/40 58/8/40
f 57/9/41 75/116/41 78/118/41 62/1/41
f 76/115/42 77/117/42 97/101/42 91/100/42
f 56/5/43 80/119/43 79/120/43 55/6/43
f 61/121/44 81/122/44 80/119/44 56/5/44
f 55/6/45 79/120/45 82/123/45 60/109/45
f 79/120/46 80/119/46 99/96/46 100/95/46
f 59/7/47 84/114/47 83/113/47 58/8/47
f 64/112/48 85/124/48 84/114/48 59/7/48
f 58/8/49 83/113/49 86/125/49 63/2/49
f 71/111/50 74/108/50 93/103/50 94/106/50
f 57/9/51 88/126/51 87/127/51 56/5/51
f 62/1/52 89/128/52 88/126/52 57/9/52
f 56/5/53 87/127/53 90/129/53 61/121/53
f 80/119/54 81/122/54 101/97/54 99/96/54
f 87/127/55 88/126/55 107/88/55 108/87/55
f 75/116/56 76/115/56 91/100/56 92/99/56
f 84/114/57 85/124/57 105/93/57 103/92/57
f 73/107/58 72/110/58 95/105/58 96/104/58
f 88/126/59 89/128/59 109/89/59 107/88/59
f 78/118/60 75/116/60 92/99/60 98/102/60
f 74/108/61 73/107/61 96/104/61 93/103/61
f 82/123/62 79/120/62 100/95/62 102/98/62
f 86/125/63 83/113/63 104/91/63 106/94/63
f 90/129/64 87/127/64 108/87/64 110/90/64
usemtl Snow
f 112/13/65 3/12/65 116/15/65 113/14/65
f 28/130/66 24/131/66 8/132/66 22/133/66
f 26/33/67 27/134/67 21/135/67 12/34/67
f 27/134/68 28/130/68 22/133/68 21/135/68
f 18/136/68 17/137/68 28/130/68 27/134/68
f 14/30/67 18/136/67 27/134/67 26/33/67
f 17/137/66 10/138/66 24/131/66 28/130/66
f 43/139/69 46/140/69 32/141/69 31/142/69
f 52/143/70 48/144/70 32/145/70 46/146/70
f 50/64/71 51/147/71 45/148/71 36/65/71
f 51/147/72 52/143/72 46/146/72 45/148/72
f 44/74/73 45/73/73 46/140/73 43/139/73
f 42/149/72 41/150/72 52/143/72 51/147/72
f 38/61/71 42/149/71 51/147/71 50/64/71
f 41/150/74 34/151/74 48/144/74 52/143/74
f 63/2/75 64/112/75 69/152/75 68/3/75
f 61/121/76 62/1/76 67/4/76 66/153/76
f 64/112/77 60/109/77 65/154/77 69/152/77
f 60/109/78 61/121/78 66/153/78 65/154/78
f 69/152/79 65/154/79 70/155/79
f 67/4/80 68/3/80 70/155/80
f 65/154/81 66/153/81 70/155/81
f 68/3/82 69/152/82 70/155/82
f 66/153/83 67/4/83 70/155/83
f 72/110/84 71/111/84 94/106/84 95/105/84
f 64/112/85 71/111/85 72/110/85 60/109/85
f 62/1/86 78/118/86 77/117/86 63/2/86
f 60/109/87 82/123/87 81/122/87 61/121/87
f 63/2/88 86/125/88 85/124/88 64/112/88
f 61/121/89 90/129/89 89/128/89 62/1/89
f 77/117/90 78/118/90 98/102/90 97/101/90
f 81/122/91 82/123/91 102/98/91 101/97/91
f 85/124/92 86/125/92 106/94/92 105/93/92
f 89/128/93 90/129/93 110/90/93 109/89/93
