# Blender v2.81 (sub 16) OBJ File: 'Nature Pack Low Poly.blend'
# www.blender.org
mtllib Flower_3_Snow.mtl
o Flower_3_Snow_Cube.013
v -0.014124 -0.018828 0.018828
v -0.014124 0.560784 0.018828
v -0.018828 -0.018828 -0.018828
v -0.018828 0.560784 -0.018828
v 0.014124 -0.018828 0.018828
v 0.014124 0.560784 0.018828
v 0.018828 -0.018828 -0.018828
v 0.018828 0.560784 -0.018828
v -0.320383 0.281395 -0.058854
v -0.315986 0.271731 -0.058854
v -0.320383 0.281395 0.058854
v -0.315986 0.271731 0.058854
v -0.001597 0.196499 -0.016289
v 0.002800 0.186835 -0.016289
v -0.001597 0.196499 0.016289
v 0.002800 0.186835 0.016289
v -0.125663 0.333692 0.118963
v -0.231925 0.368873 0.118963
v -0.227528 0.359210 0.118963
v -0.121266 0.324029 0.118963
v -0.231925 0.368873 -0.118963
v -0.125663 0.333692 -0.118963
v -0.121266 0.324029 -0.118963
v -0.227528 0.359210 -0.118963
v -0.320383 0.281395 -0.000000
v -0.315986 0.271731 -0.000000
v -0.001597 0.196499 0.000000
v 0.002800 0.186835 0.000000
v -0.121266 0.324029 0.000000
v -0.227528 0.359210 -0.000000
v -0.231925 0.368873 -0.000000
v -0.125663 0.333692 0.000000
v 0.298501 0.394721 0.053904
v 0.294474 0.385871 0.053904
v 0.298501 0.394721 -0.053904
v 0.294474 0.385871 -0.053904
v 0.006525 0.297627 0.011791
v 0.002498 0.288777 0.011791
v 0.006525 0.297627 -0.011791
v 0.002498 0.288777 -0.011791
v 0.120157 0.435596 -0.108958
v 0.217482 0.474843 -0.108958
v 0.213455 0.465992 -0.108958
v 0.116130 0.426745 -0.108958
v 0.217482 0.474843 0.108958
v 0.120157 0.435596 0.108958
v 0.116130 0.426745 0.108958
v 0.213455 0.465992 0.108958
v 0.298501 0.394721 -0.000000
v 0.294474 0.385871 -0.000000
v 0.006525 0.297627 0.000000
v 0.002498 0.288777 0.000000
v 0.116130 0.426745 0.000000
v 0.213455 0.465992 -0.000000
v 0.217482 0.474843 -0.000000
v 0.120157 0.435596 0.000000
v -0.002744 0.679636 -0.059670
v 0.049972 0.679636 -0.021369
v -0.002744 0.492321 -0.073116
v -0.002744 0.591855 -0.098769
v 0.062761 0.492321 -0.025524
v 0.087158 0.591855 -0.033452
v 0.037740 0.492321 0.051481
v 0.052819 0.591855 0.072234
v -0.043228 0.492321 0.051481
v -0.058306 0.591855 0.072234
v -0.068248 0.492321 -0.025524
v -0.092646 0.591855 -0.033452
v 0.029836 0.679636 0.040602
v -0.035324 0.679636 0.040602
v -0.055460 0.679636 -0.021369
v -0.002744 0.739886 -0.004241
vt 1.000000 0.500000
vt 1.000000 1.000000
vt 0.800000 1.000000
vt 0.800000 0.500000
vt 0.600000 1.000000
vt 0.600000 0.500000
vt 0.400000 1.000000
vt 0.400000 0.500000
vt 0.200000 1.000000
vt 0.200000 0.500000
vt 0.000000 1.000000
vt 0.000000 0.500000
vt 0.750000 0.490000
vt 0.978254 0.324164
vt 0.891068 0.055836
vt 0.608931 0.055836
vt 0.521746 0.324164
vt 0.375000 0.000000
vt 0.625000 0.000000
vt 0.625000 0.250000
vt 0.375000 0.250000
vt 0.625000 0.500000
vt 0.375000 0.500000
vt 0.625000 0.750000
vt 0.375000 0.750000
vt 0.625000 1.000000
vt 0.375000 1.000000
vt 0.125000 0.500000
vt 0.125000 0.750000
vt 0.875000 0.500000
vt 0.875000 0.750000
vt 0.375000 0.125000
vt 0.625000 0.125000
vt 0.625000 0.250000
vt 0.375000 0.250000
vt 0.375000 0.416667
vt 0.625000 0.416667
vt 0.625000 0.500000
vt 0.375000 0.500000
vt 0.375000 0.625000
vt 0.625000 0.625000
vt 0.625000 0.750000
vt 0.375000 0.750000
vt 0.375000 0.916667
vt 0.625000 0.916667
vt 0.625000 1.000000
vt 0.375000 1.000000
vt 0.791667 0.625000
vt 0.875000 0.625000
vt 0.875000 0.750000
vt 0.791667 0.750000
vt 0.708333 0.625000
vt 0.708333 0.750000
vt 0.625000 0.833333
vt 0.375000 0.833333
vt 0.625000 0.333333
vt 0.375000 0.333333
vt 0.708333 0.500000
vt 0.791667 0.500000
vt 0.875000 0.500000
vt 0.375000 0.000000
vt 0.625000 0.000000
vt 0.375000 0.125000
vt 0.625000 0.125000
vt 0.625000 0.250000
vt 0.375000 0.250000
vt 0.375000 0.416667
vt 0.625000 0.416667
vt 0.625000 0.500000
vt 0.375000 0.500000
vt 0.375000 0.625000
vt 0.625000 0.625000
vt 0.625000 0.750000
vt 0.375000 0.750000
vt 0.375000 0.916667
vt 0.625000 0.916667
vt 0.625000 1.000000
vt 0.375000 1.000000
vt 0.791667 0.625000
vt 0.875000 0.625000
vt 0.875000 0.750000
vt 0.791667 0.750000
vt 0.708333 0.625000
vt 0.708333 0.750000
vt 0.625000 0.833333
vt 0.375000 0.833333
vt 0.625000 0.333333
vt 0.375000 0.333333
vt 0.708333 0.500000
vt 0.791667 0.500000
vt 0.875000 0.500000
vt 0.375000 0.000000
vt 0.625000 0.000000
vt 0.291667 0.625000
vt 0.291667 0.750000
vt 0.125000 0.625000
vt 0.208333 0.625000
vt 0.208333 0.750000
vt 0.125000 0.750000
vt 0.208333 0.500000
vt 0.291667 0.500000
vt 0.125000 0.500000
vt 0.291667 0.625000
vt 0.291667 0.750000
vt 0.125000 0.625000
vt 0.208333 0.625000
vt 0.208333 0.750000
vt 0.125000 0.750000
vt 0.208333 0.500000
vt 0.291667 0.500000
vt 0.125000 0.500000
vt 0.200000 1.000000
vt 0.400000 1.000000
vt 0.200000 1.000000
vt 1.000000 1.000000
vt 0.800000 1.000000
vt 0.600000 1.000000
vt 0.600000 1.000000
vt 0.000000 1.000000
vt 0.000000 1.000000
vt 0.400000 1.000000
vt 0.800000 1.000000
vn 0.5754 -0.2041 -0.7920
vn 0.9310 -0.2041 0.3025
vn 0.0000 -0.2041 0.9789
vn -0.9310 -0.2041 0.3025
vn -0.5754 -0.2041 -0.7920
vn 0.0000 -1.0000 -0.0000
vn -0.9923 0.0000 0.1240
vn 0.0000 0.0000 -1.0000
vn 0.9923 0.0000 0.1240
vn 0.0000 0.0000 1.0000
vn 0.0000 1.0000 0.0000
vn -0.9102 -0.4141 0.0000
vn 0.7987 0.3634 0.4795
vn 0.9102 0.4141 0.0000
vn -0.4167 -0.1896 -0.8891
vn 0.7032 -0.7110 -0.0000
vn -0.7417 -0.6707 0.0000
vn -0.3143 -0.9493 -0.0000
vn 0.7987 0.3634 -0.4796
vn -0.4167 -0.1896 0.8891
vn 0.9102 -0.4141 0.0000
vn -0.8217 0.3739 -0.4301
vn -0.9102 0.4141 0.0000
vn 0.4167 -0.1896 0.8891
vn -0.7032 -0.7110 0.0000
vn 0.7719 -0.6357 0.0000
vn 0.3740 -0.9274 -0.0000
vn -0.8217 0.3739 0.4301
vn 0.4167 -0.1896 -0.8891
vn 0.7417 0.6707 0.0000
vn -0.7032 0.7110 0.0000
vn 0.3143 0.9493 0.0000
vn -0.7719 0.6357 0.0000
vn 0.7032 0.7110 0.0000
vn -0.3740 0.9274 0.0000
vn -0.7629 0.5971 0.2479
vn 0.5530 0.3390 -0.7611
vn 0.7629 0.5971 0.2479
vn 0.8947 0.3390 0.2907
vn -0.5530 0.3390 -0.7611
vn -0.8947 0.3390 0.2907
vn -0.4715 0.5971 -0.6490
vn 0.0000 0.5971 0.8022
vn 0.0000 0.3390 0.9408
vn 0.4715 0.5971 -0.6490
usemtl Flower
s off
f 59/1/1 60/2/1 62/3/1 61/4/1
f 61/4/2 62/3/2 64/5/2 63/6/2
f 63/6/3 64/5/3 66/7/3 65/8/3
f 65/8/4 66/7/4 68/9/4 67/10/4
f 67/10/5 68/9/5 60/11/5 59/12/5
f 59/13/6 61/14/6 63/15/6 65/16/6 67/17/6
usemtl leaves_dark
f 1/18/7 2/19/7 4/20/7 3/21/7
f 3/21/8 4/20/8 8/22/8 7/23/8
f 7/23/9 8/22/9 6/24/9 5/25/9
f 5/25/10 6/24/10 2/26/10 1/27/10
f 3/28/6 7/23/6 5/25/6 1/29/6
f 8/22/11 4/30/11 2/31/11 6/24/11
f 25/32/12 26/33/12 12/34/12 11/35/12
f 17/36/13 20/37/13 16/38/13 15/39/13
f 27/40/14 28/41/14 14/42/14 13/43/14
f 21/44/15 24/45/15 10/46/15 9/47/15
f 30/48/16 26/49/16 10/50/16 24/51/16
f 28/41/17 29/52/17 23/53/17 14/42/17
f 29/52/18 30/48/18 24/51/18 23/53/18
f 13/43/19 14/42/19 23/54/19 22/55/19
f 22/55/8 23/54/8 24/45/8 21/44/8
f 11/35/20 12/34/20 19/56/20 18/57/20
f 18/57/10 19/56/10 20/37/10 17/36/10
f 20/58/18 19/59/18 30/48/18 29/52/18
f 16/38/17 20/58/17 29/52/17 28/41/17
f 19/59/16 12/60/16 26/49/16 30/48/16
f 15/39/14 16/38/14 28/41/14 27/40/14
f 9/61/12 10/62/12 26/33/12 25/32/12
f 49/63/21 50/64/21 36/65/21 35/66/21
f 41/67/22 44/68/22 40/69/22 39/70/22
f 51/71/23 52/72/23 38/73/23 37/74/23
f 45/75/24 48/76/24 34/77/24 33/78/24
f 54/79/25 50/80/25 34/81/25 48/82/25
f 52/72/26 53/83/26 47/84/26 38/73/26
f 53/83/27 54/79/27 48/82/27 47/84/27
f 37/74/28 38/73/28 47/85/28 46/86/28
f 46/86/10 47/85/10 48/76/10 45/75/10
f 35/66/29 36/65/29 43/87/29 42/88/29
f 42/88/8 43/87/8 44/68/8 41/67/8
f 44/89/27 43/90/27 54/79/27 53/83/27
f 40/69/26 44/89/26 53/83/26 52/72/26
f 43/90/25 36/91/25 50/80/25 54/79/25
f 39/70/23 40/69/23 52/72/23 51/71/23
f 33/92/21 34/93/21 50/64/21 49/63/21
usemtl Snow
f 32/94/30 27/40/30 13/43/30 22/95/30
f 25/96/31 31/97/31 21/98/31 9/99/31
f 31/97/32 32/94/32 22/95/32 21/98/32
f 18/100/32 17/101/32 32/94/32 31/97/32
f 11/102/31 18/100/31 31/97/31 25/96/31
f 17/101/30 15/39/30 27/40/30 32/94/30
f 56/103/33 51/71/33 37/74/33 46/104/33
f 49/105/34 55/106/34 45/107/34 33/108/34
f 55/106/35 56/103/35 46/104/35 45/107/35
f 42/109/35 41/110/35 56/103/35 55/106/35
f 35/111/34 42/109/34 55/106/34 49/105/34
f 41/110/33 39/70/33 51/71/33 56/103/33
f 71/112/36 70/113/36 72/114/36
f 62/3/37 60/2/37 57/115/37 58/116/37
f 69/117/38 58/116/38 72/118/38
f 64/5/39 62/3/39 58/116/39 69/117/39
f 60/11/40 68/9/40 71/112/40 57/119/40
f 68/9/41 66/7/41 70/113/41 71/112/41
f 57/119/42 71/112/42 72/120/42
f 70/113/43 69/117/43 72/121/43
f 66/7/44 64/5/44 69/117/44 70/113/44
f 58/116/45 57/115/45 72/122/45
