# Blender v2.81 (sub 16) OBJ File: 'Nature Pack Low Poly.blend'
# www.blender.org
mtllib Flower_5_Snow.mtl
o Flower_5_Snow_Cube.015
v -0.013594 -0.014670 0.017980
v -0.017874 -0.014670 -0.016282
v -0.014624 1.650174 0.155977
v 0.012108 -0.014670 0.017980
v 0.010970 1.594297 0.179212
v 0.018828 -0.014670 -0.018828
v -0.628487 0.944964 -0.042804
v -0.622532 0.931876 -0.042804
v -0.628487 0.944964 0.116621
v -0.622532 0.931876 0.116621
v -0.194802 1.137190 0.026085
v -0.192688 1.132545 0.026085
v -0.194802 1.137190 0.047732
v -0.192688 1.132545 0.047732
v -0.364757 1.128927 0.198032
v -0.508679 1.063445 0.198032
v -0.502724 1.050357 0.198032
v -0.358802 1.115839 0.198032
v -0.508679 1.063445 -0.124215
v -0.364757 1.128927 -0.124215
v -0.358802 1.115839 -0.124215
v -0.502724 1.050357 -0.124215
v -0.628487 0.944964 0.036909
v -0.622532 0.931876 0.036909
v -0.194802 1.137190 0.036908
v -0.192688 1.132545 0.036908
v -0.358802 1.115839 0.036908
v -0.502724 1.050357 0.036908
v -0.508679 1.063445 0.036908
v -0.364757 1.128927 0.036908
v -0.011797 0.896908 0.015726
v -0.015726 0.896908 -0.015726
v 0.015726 0.896908 -0.015726
v 0.011797 0.896908 0.015726
v -0.010970 1.594297 0.179212
v 0.014624 1.650174 0.155977
v -0.154194 1.132316 0.047732
v -0.154169 1.137419 0.047732
v -0.154169 1.137419 0.036908
v -0.154194 1.132316 0.036908
v -0.154194 1.132316 0.026085
v -0.154169 1.137419 0.026085
v -0.013836 1.066487 0.047732
v -0.011675 1.071111 0.047732
v -0.011675 1.071111 0.036908
v -0.013836 1.066487 0.036908
v -0.013836 1.066487 0.026085
v -0.011675 1.071111 0.026085
v 0.618887 0.492956 0.080549
v 0.612932 0.479868 0.080549
v 0.618887 0.492956 -0.078875
v 0.612932 0.479868 -0.078875
v 0.185202 0.685182 0.011660
v 0.183088 0.680536 0.011660
v 0.185202 0.685182 -0.009987
v 0.183088 0.680536 -0.009987
v 0.355158 0.676919 -0.160287
v 0.499079 0.611437 -0.160287
v 0.493124 0.598348 -0.160287
v 0.349203 0.663831 -0.160287
v 0.499079 0.611436 0.161960
v 0.355158 0.676919 0.161960
v 0.349203 0.663831 0.161960
v 0.493124 0.598348 0.161960
v 0.618887 0.492956 0.000837
v 0.612932 0.479868 0.000837
v 0.185202 0.685182 0.000837
v 0.183088 0.680536 0.000837
v 0.349203 0.663831 0.000837
v 0.493124 0.598348 0.000837
v 0.499079 0.611437 0.000837
v 0.355158 0.676919 0.000837
v 0.144594 0.680307 -0.009987
v 0.144569 0.685411 -0.009987
v 0.144569 0.685411 0.000837
v 0.144594 0.680307 0.000837
v 0.144594 0.680307 0.011660
v 0.144569 0.685411 0.011660
v 0.004236 0.614479 -0.009987
v 0.002076 0.619103 -0.009987
v 0.002076 0.619103 0.000837
v 0.004236 0.614479 0.000837
v 0.004236 0.614479 0.011660
v 0.002076 0.619103 0.011660
v 0.079796 1.136660 -0.522763
v 0.079796 1.123572 -0.516808
v -0.079628 1.136660 -0.522763
v -0.079628 1.123572 -0.516808
v 0.010907 1.328886 -0.089078
v 0.010907 1.324241 -0.086964
v -0.010739 1.328886 -0.089078
v -0.010739 1.324241 -0.086964
v -0.161039 1.320623 -0.259033
v -0.161039 1.255141 -0.402955
v -0.161039 1.242053 -0.397000
v -0.161039 1.307535 -0.253078
v 0.161207 1.255141 -0.402955
v 0.161207 1.320623 -0.259033
v 0.161207 1.307535 -0.253078
v 0.161207 1.242053 -0.397000
v 0.000084 1.136660 -0.522763
v 0.000084 1.123572 -0.516808
v 0.000084 1.328886 -0.089078
v 0.000084 1.324241 -0.086964
v 0.000084 1.307535 -0.253078
v 0.000084 1.242053 -0.397000
v 0.000084 1.255141 -0.402955
v 0.000084 1.320623 -0.259033
v -0.010739 1.324011 -0.048470
v -0.010739 1.329115 -0.048445
v 0.000084 1.329115 -0.048445
v 0.000084 1.324011 -0.048470
v 0.010907 1.324011 -0.048470
v 0.010907 1.329115 -0.048445
v -0.010739 1.258183 0.091889
v -0.010739 1.262807 0.094049
v 0.000084 1.262807 0.094049
v 0.000084 1.258183 0.091889
v 0.010907 1.258183 0.091889
v 0.010907 1.262807 0.094049
v -0.004844 1.785796 0.055930
v -0.004843 1.790597 0.099165
v 0.185740 1.665880 0.125163
v 0.169134 1.681129 0.162366
v 0.112943 1.471852 0.237185
v 0.102681 1.504007 0.264627
v -0.122631 1.471852 0.237185
v -0.112368 1.504007 0.264627
v -0.195427 1.665880 0.125163
v -0.178821 1.681129 0.162366
v 0.081375 1.665765 0.192784
v -0.004843 1.720014 0.161464
v 0.048442 1.577989 0.243462
v -0.058129 1.577989 0.243462
v -0.091062 1.665765 0.192784
v -0.004844 1.471852 0.237185
v -0.004843 1.504007 0.264627
v 0.149342 1.568866 0.181174
v 0.135908 1.592568 0.213497
v 0.090448 1.725838 0.090546
v 0.082145 1.735863 0.130765
v -0.100135 1.725838 0.090546
v -0.091832 1.735863 0.130765
v -0.159029 1.568866 0.181174
v -0.145594 1.592568 0.213497
v 0.264897 1.825893 0.090760
v 0.299985 1.475011 0.286206
v -0.118652 1.378234 0.380668
v -0.337356 1.669082 0.222559
v -0.114087 1.925975 0.064430
v 0.108965 1.378234 0.380669
v 0.327669 1.669081 0.222559
v 0.104401 1.925975 0.064430
v -0.274583 1.825893 0.090760
v -0.309672 1.475011 0.286205
vt 0.800000 1.000000
vt 0.900000 1.000000
vt 1.000000 1.000000
vt 1.000000 1.000000
vt 0.800000 1.000000
vt 0.478254 0.324164
vt 0.250000 0.490000
vt 0.021746 0.324164
vt 0.108931 0.055836
vt 0.391068 0.055836
vt 0.400000 1.000000
vt 0.500000 1.000000
vt 0.600000 1.000000
vt 0.600000 1.000000
vt 0.400000 1.000000
vt 0.200000 1.000000
vt 0.300000 1.000000
vt 0.200000 1.000000
vt 0.700000 1.000000
vt 0.000000 1.000000
vt 0.100000 1.000000
vt 0.000000 1.000000
vt 0.500000 0.000000
vt 0.625000 0.000000
vt 0.625000 0.250000
vt 0.500000 0.250000
vt 0.500000 0.500000
vt 0.625000 0.500000
vt 0.625000 0.750000
vt 0.500000 0.750000
vt 0.625000 1.000000
vt 0.500000 1.000000
vt 0.125000 0.500000
vt 0.375000 0.500000
vt 0.375000 0.750000
vt 0.125000 0.750000
vt 0.375000 0.125000
vt 0.625000 0.125000
vt 0.625000 0.250000
vt 0.375000 0.250000
vt 0.375000 0.416667
vt 0.625000 0.416667
vt 0.625000 0.500000
vt 0.375000 0.500000
vt 0.375000 0.916667
vt 0.625000 0.916667
vt 0.625000 1.000000
vt 0.375000 1.000000
vt 0.791667 0.625000
vt 0.875000 0.625000
vt 0.875000 0.750000
vt 0.791667 0.750000
vt 0.625000 0.625000
vt 0.708333 0.625000
vt 0.708333 0.750000
vt 0.625000 0.750000
vt 0.375000 0.750000
vt 0.625000 0.833333
vt 0.375000 0.833333
vt 0.625000 0.333333
vt 0.375000 0.333333
vt 0.708333 0.500000
vt 0.791667 0.500000
vt 0.875000 0.500000
vt 0.375000 0.000000
vt 0.625000 0.000000
vt 0.625000 0.625000
vt 0.625000 0.500000
vt 0.375000 1.000000
vt 0.375000 0.250000
vt 0.375000 0.000000
vt 0.875000 0.500000
vt 0.875000 0.750000
vt 0.375000 0.750000
vt 0.625000 0.750000
vt 0.375000 0.500000
vt 0.625000 0.625000
vt 0.625000 0.750000
vt 0.375000 0.750000
vt 0.375000 0.625000
vt 0.375000 0.500000
vt 0.625000 0.500000
vt 0.375000 0.125000
vt 0.625000 0.125000
vt 0.625000 0.250000
vt 0.375000 0.250000
vt 0.375000 0.416667
vt 0.625000 0.416667
vt 0.625000 0.500000
vt 0.375000 0.500000
vt 0.375000 0.916667
vt 0.625000 0.916667
vt 0.625000 1.000000
vt 0.375000 1.000000
vt 0.791667 0.625000
vt 0.875000 0.625000
vt 0.875000 0.750000
vt 0.791667 0.750000
vt 0.625000 0.625000
vt 0.708333 0.625000
vt 0.708333 0.750000
vt 0.625000 0.750000
vt 0.375000 0.750000
vt 0.625000 0.833333
vt 0.375000 0.833333
vt 0.625000 0.333333
vt 0.375000 0.333333
vt 0.708333 0.500000
vt 0.791667 0.500000
vt 0.875000 0.500000
vt 0.375000 0.000000
vt 0.625000 0.000000
vt 0.625000 0.625000
vt 0.625000 0.500000
vt 0.375000 0.750000
vt 0.625000 0.750000
vt 0.375000 0.500000
vt 0.625000 0.625000
vt 0.625000 0.750000
vt 0.375000 0.750000
vt 0.375000 0.625000
vt 0.375000 0.500000
vt 0.625000 0.500000
vt 0.375000 0.125000
vt 0.625000 0.125000
vt 0.625000 0.250000
vt 0.375000 0.250000
vt 0.375000 0.416667
vt 0.625000 0.416667
vt 0.625000 0.500000
vt 0.375000 0.500000
vt 0.375000 0.916667
vt 0.625000 0.916667
vt 0.625000 1.000000
vt 0.375000 1.000000
vt 0.791667 0.625000
vt 0.875000 0.625000
vt 0.875000 0.750000
vt 0.791667 0.750000
vt 0.625000 0.625000
vt 0.708333 0.625000
vt 0.708333 0.750000
vt 0.625000 0.750000
vt 0.375000 0.750000
vt 0.625000 0.833333
vt 0.375000 0.833333
vt 0.625000 0.333333
vt 0.375000 0.333333
vt 0.708333 0.500000
vt 0.791667 0.500000
vt 0.875000 0.500000
vt 0.375000 0.000000
vt 0.625000 0.000000
vt 0.625000 0.625000
vt 0.625000 0.500000
vt 0.375000 0.750000
vt 0.625000 0.750000
vt 0.375000 0.500000
vt 0.625000 0.625000
vt 0.625000 0.750000
vt 0.375000 0.750000
vt 0.375000 0.625000
vt 0.375000 0.500000
vt 0.625000 0.500000
vt 0.750000 0.490000
vt 0.864127 0.407082
vt 0.978254 0.324164
vt 0.934661 0.190000
vt 0.891068 0.055836
vt 0.750000 0.055836
vt 0.608931 0.055836
vt 0.565339 0.190000
vt 0.521746 0.324164
vt 0.635873 0.407082
vt 0.800000 0.500000
vt 0.800000 1.000000
vt 0.600000 0.500000
vt 0.600000 1.000000
vt 0.700000 0.500000
vt 0.600000 0.500000
vt 0.500000 0.500000
vt 0.500000 0.500000
vt 0.400000 0.500000
vt 0.400000 1.000000
vt 0.400000 0.500000
vt 0.300000 0.500000
vt 0.300000 0.500000
vt 0.200000 0.500000
vt 0.200000 0.500000
vt 0.100000 0.500000
vt 0.100000 0.500000
vt 0.600000 0.500000
vt 0.500000 1.000000
vt 0.500000 0.500000
vt 0.700000 1.000000
vt 0.700000 0.500000
vt 0.900000 0.500000
vt 0.900000 1.000000
vt 0.200000 0.500000
vt 0.100000 0.500000
vt 0.400000 0.500000
vt 0.300000 0.500000
vt 0.291667 0.625000
vt 0.375000 0.625000
vt 0.291667 0.750000
vt 0.125000 0.625000
vt 0.208333 0.625000
vt 0.208333 0.750000
vt 0.125000 0.750000
vt 0.208333 0.500000
vt 0.291667 0.500000
vt 0.125000 0.500000
vt 0.375000 0.625000
vt 0.291667 0.625000
vt 0.375000 0.625000
vt 0.291667 0.750000
vt 0.125000 0.625000
vt 0.208333 0.625000
vt 0.208333 0.750000
vt 0.125000 0.750000
vt 0.208333 0.500000
vt 0.291667 0.500000
vt 0.125000 0.500000
vt 0.375000 0.625000
vt 0.291667 0.625000
vt 0.375000 0.625000
vt 0.291667 0.750000
vt 0.125000 0.625000
vt 0.208333 0.625000
vt 0.208333 0.750000
vt 0.125000 0.750000
vt 0.208333 0.500000
vt 0.291667 0.500000
vt 0.125000 0.500000
vt 0.375000 0.625000
vt 0.900000 0.500000
vt 0.900000 1.000000
vt 0.800000 0.500000
vt 0.700000 0.500000
vt 0.700000 1.000000
vt 0.500000 1.000000
vt 0.300000 1.000000
vt 0.200000 1.000000
vt 0.100000 1.000000
vt 0.000000 0.500000
vt 0.000000 1.000000
vt 0.000000 0.500000
vt 0.600000 1.000000
vt 0.800000 0.500000
vt 0.800000 1.000000
vt 1.000000 0.500000
vt 1.000000 0.500000
vt 1.000000 1.000000
vt 0.900000 0.500000
vt 0.200000 1.000000
vt 0.100000 1.000000
vt 0.400000 1.000000
vt 0.300000 1.000000
vn 0.1425 0.6550 0.7421
vn 0.0000 0.5000 0.8660
vn 0.0000 0.2751 0.9614
vn -0.2306 0.4202 0.8776
vn 0.2306 0.4202 0.8776
vn -0.1425 0.6550 0.7421
vn -0.9933 -0.0247 0.1125
vn 0.9933 -0.0247 0.1125
vn -0.0000 -0.2282 0.9736
vn 0.0000 -1.0000 0.0000
vn -0.9102 -0.4141 0.0000
vn 0.6271 0.2853 0.7248
vn -0.4167 -0.1896 -0.8891
vn 0.7032 -0.7110 0.0000
vn 0.1001 -0.9950 0.0000
vn 0.4141 -0.9102 0.0000
vn 0.6271 0.2853 -0.7248
vn -0.0000 -0.0000 -1.0000
vn -0.4167 -0.1896 0.8891
vn 0.0000 0.0000 1.0000
vn -0.0060 -1.0000 0.0000
vn 0.0000 0.0025 1.0000
vn 0.9880 0.0018 0.1541
vn -0.0373 0.0020 -0.9993
vn -0.9923 0.0023 0.1240
vn 0.0000 0.3840 0.9234
vn 0.9060 -0.4232 0.0000
vn -0.4246 -0.9054 0.0000
vn 0.9102 -0.4141 0.0000
vn -0.6271 0.2853 -0.7248
vn 0.4167 -0.1896 0.8891
vn -0.7032 -0.7110 0.0000
vn -0.1001 -0.9950 0.0000
vn -0.4141 -0.9102 0.0000
vn -0.6271 0.2853 0.7248
vn 0.4167 -0.1896 -0.8891
vn 0.0060 -1.0000 0.0000
vn -0.9060 -0.4232 0.0000
vn 0.4246 -0.9054 0.0000
vn 0.0000 -0.4141 -0.9102
vn -0.7248 0.2853 0.6271
vn 0.8891 -0.1896 -0.4167
vn 0.0000 -0.7110 0.7032
vn 0.0000 -0.9950 0.1001
vn 0.0000 -0.9102 0.4141
vn 0.7248 0.2853 0.6271
vn 1.0000 -0.0000 -0.0000
vn -0.8891 -0.1896 -0.4167
vn -1.0000 0.0000 0.0000
vn 0.0000 -1.0000 -0.0060
vn 0.0000 -0.4233 0.9060
vn 0.0000 -0.9054 -0.4246
vn -0.0000 -0.5000 -0.8660
vn 0.8192 -0.3002 0.4887
vn -0.1773 -0.6710 0.7199
vn 0.2206 -0.5484 -0.8066
vn 0.8308 -0.3613 0.4233
vn -0.9717 0.1845 0.1473
vn -0.0000 -0.8375 -0.5464
vn -0.2589 -0.7245 0.6388
vn -0.4748 -0.5668 -0.6733
vn -0.9765 -0.0404 0.2117
vn 0.9717 0.1844 0.1473
vn -0.8308 -0.3613 0.4233
vn 0.2589 -0.7245 0.6389
vn 0.4748 -0.5668 -0.6733
vn 0.9765 -0.0405 0.2117
vn -0.8192 -0.3002 0.4887
vn -0.1642 -0.2843 -0.9446
vn 0.1773 -0.6710 0.7199
vn -0.2206 -0.5484 -0.8066
vn 0.0000 0.2222 -0.9750
vn -0.0486 0.9988 0.0000
vn -0.7032 0.7110 -0.0000
vn -0.4141 0.9102 -0.0000
vn 0.4219 0.9066 0.0000
vn -0.0056 1.0000 0.0000
vn 0.0486 0.9988 0.0000
vn 0.7032 0.7110 0.0000
vn 0.4141 0.9102 0.0000
vn -0.4219 0.9066 0.0000
vn 0.0056 1.0000 0.0000
vn -0.0000 0.9988 -0.0486
vn 0.0000 0.7110 -0.7032
vn 0.0000 0.9102 -0.4141
vn 0.0000 0.9066 0.4219
vn 0.0000 1.0000 -0.0056
vn -0.4737 0.8266 -0.3038
vn -0.0326 0.4604 0.8871
vn 0.1642 -0.2843 -0.9446
vn 0.6366 0.7238 -0.2662
vn -0.0200 0.5055 0.8626
vn 0.0000 0.6781 0.7350
vn 0.2584 0.5539 0.7915
vn -0.1853 0.9355 -0.3008
vn 0.1248 0.3399 0.9322
vn 0.7849 0.6158 -0.0684
vn -0.2574 -0.1427 -0.9557
vn 0.1853 0.9355 -0.3008
vn -0.2584 0.5539 0.7915
vn -0.7849 0.6158 -0.0684
vn -0.1248 0.3399 0.9322
vn 0.2574 -0.1427 -0.9557
vn 0.0326 0.4604 0.8871
vn 0.4737 0.8266 -0.3038
vn 0.0200 0.5055 0.8626
vn -0.6366 0.7238 -0.2662
usemtl Branch_3
s off
f 124/1/1 141/2/1 122/3/1 132/4/1 131/5/1
f 131/6/2 132/7/2 135/8/2 134/9/2 133/10/2
f 128/11/3 137/12/3 126/13/3 133/14/3 134/15/3
f 130/16/4 145/17/4 128/11/4 134/15/4 135/18/4
f 126/13/5 139/19/5 124/1/5 131/5/5 133/14/5
f 122/20/6 143/21/6 130/16/6 135/18/6 132/22/6
usemtl leaves_dark
f 31/23/7 35/24/7 3/25/7 32/26/7
f 33/27/8 36/28/8 5/29/8 34/30/8
f 34/30/9 5/29/9 35/31/9 31/32/9
f 2/33/10 6/34/10 4/35/10 1/36/10
f 23/37/11 24/38/11 10/39/11 9/40/11
f 15/41/12 18/42/12 14/43/12 13/44/12
f 19/45/13 22/46/13 8/47/13 7/48/13
f 28/49/14 24/50/14 8/51/14 22/52/14
f 26/53/15 27/54/15 21/55/15 12/56/15
f 27/54/16 28/49/16 22/52/16 21/55/16
f 11/57/17 12/56/17 21/58/17 20/59/17
f 20/59/18 21/58/18 22/46/18 19/45/18
f 9/40/19 10/39/19 17/60/19 16/61/19
f 16/61/20 17/60/20 18/42/20 15/41/20
f 18/62/16 17/63/16 28/49/16 27/54/16
f 14/43/15 18/62/15 27/54/15 26/53/15
f 17/63/14 10/64/14 24/50/14 28/49/14
f 7/65/11 8/66/11 24/38/11 23/37/11
f 14/43/21 26/53/21 40/67/21 37/68/21
f 4/35/22 34/30/22 31/32/22 1/69/22
f 6/34/23 33/27/23 34/30/23 4/35/23
f 2/70/24 32/26/24 33/27/24 6/34/24
f 1/71/25 31/23/25 32/26/25 2/70/25
f 36/28/26 3/72/26 35/73/26 5/29/26
f 12/56/18 11/57/18 42/74/18 41/75/18
f 26/53/21 12/56/21 41/75/21 40/67/21
f 13/44/20 14/43/20 37/68/20 38/76/20
f 46/77/27 47/78/27 48/79/27 45/80/27 44/81/27 43/82/27
f 40/67/28 41/75/28 47/78/28 46/77/28
f 38/76/20 37/68/20 43/82/20 44/81/20
f 37/68/28 40/67/28 46/77/28 43/82/28
f 41/75/18 42/74/18 48/79/18 47/78/18
f 65/83/29 66/84/29 52/85/29 51/86/29
f 57/87/30 60/88/30 56/89/30 55/90/30
f 61/91/31 64/92/31 50/93/31 49/94/31
f 70/95/32 66/96/32 50/97/32 64/98/32
f 68/99/33 69/100/33 63/101/33 54/102/33
f 69/100/34 70/95/34 64/98/34 63/101/34
f 53/103/35 54/102/35 63/104/35 62/105/35
f 62/105/20 63/104/20 64/92/20 61/91/20
f 51/86/36 52/85/36 59/106/36 58/107/36
f 58/107/18 59/106/18 60/88/18 57/87/18
f 60/108/34 59/109/34 70/95/34 69/100/34
f 56/89/33 60/108/33 69/100/33 68/99/33
f 59/109/32 52/110/32 66/96/32 70/95/32
f 49/111/29 50/112/29 66/84/29 65/83/29
f 56/89/37 68/99/37 76/113/37 73/114/37
f 54/102/20 53/103/20 78/115/20 77/116/20
f 68/99/37 54/102/37 77/116/37 76/113/37
f 55/90/18 56/89/18 73/114/18 74/117/18
f 82/118/38 83/119/38 84/120/38 81/121/38 80/122/38 79/123/38
f 76/113/39 77/116/39 83/119/39 82/118/39
f 74/117/18 73/114/18 79/123/18 80/122/18
f 73/114/39 76/113/39 82/118/39 79/123/39
f 77/116/20 78/115/20 84/120/20 83/119/20
f 101/124/40 102/125/40 88/126/40 87/127/40
f 93/128/41 96/129/41 92/130/41 91/131/41
f 97/132/42 100/133/42 86/134/42 85/135/42
f 106/136/43 102/137/43 86/138/43 100/139/43
f 104/140/44 105/141/44 99/142/44 90/143/44
f 105/141/45 106/136/45 100/139/45 99/142/45
f 89/144/46 90/143/46 99/145/46 98/146/46
f 98/146/47 99/145/47 100/133/47 97/132/47
f 87/127/48 88/126/48 95/147/48 94/148/48
f 94/148/49 95/147/49 96/129/49 93/128/49
f 96/149/45 95/150/45 106/136/45 105/141/45
f 92/130/44 96/149/44 105/141/44 104/140/44
f 95/150/43 88/151/43 102/137/43 106/136/43
f 85/152/40 86/153/40 102/125/40 101/124/40
f 92/130/50 104/140/50 112/154/50 109/155/50
f 90/143/47 89/144/47 114/156/47 113/157/47
f 104/140/50 90/143/50 113/157/50 112/154/50
f 91/131/49 92/130/49 109/155/49 110/158/49
f 118/159/51 119/160/51 120/161/51 117/162/51 116/163/51 115/164/51
f 112/154/52 113/157/52 119/160/52 118/159/52
f 110/158/49 109/155/49 115/164/49 116/163/49
f 109/155/52 112/154/52 118/159/52 115/164/52
f 113/157/47 114/156/47 120/161/47 119/160/47
f 121/165/53 140/166/53 123/167/53 138/168/53 125/169/53 136/170/53 127/171/53 144/172/53 129/173/53 142/174/53
usemtl Flower_3
f 123/175/54 146/176/54 124/1/54
f 125/177/55 147/178/55 126/13/55
f 138/179/56 147/180/56 125/177/56
f 137/12/57 148/181/57 136/182/57
f 127/183/58 148/184/58 128/11/58
f 136/182/59 148/185/59 127/183/59
f 145/17/60 149/186/60 144/187/60
f 144/187/61 149/188/61 129/189/61
f 143/21/62 150/190/62 142/191/62
f 126/13/63 151/192/63 125/177/63
f 136/182/64 151/193/64 137/12/64
f 125/177/59 151/194/59 136/182/59
f 138/179/65 152/195/65 139/19/65
f 123/175/66 152/196/66 138/179/66
f 140/197/67 153/198/67 141/2/67
f 130/16/68 154/199/68 129/189/68
f 129/189/69 154/200/69 142/191/69
f 128/11/70 155/201/70 127/183/70
f 127/183/71 155/202/71 144/187/71
usemtl Snow
f 32/26/72 3/25/72 36/28/72 33/27/72
f 30/203/73 25/204/73 11/57/73 20/205/73
f 23/206/74 29/207/74 19/208/74 7/209/74
f 29/207/75 30/203/75 20/205/75 19/208/75
f 16/210/75 15/211/75 30/203/75 29/207/75
f 9/212/74 16/210/74 29/207/74 23/206/74
f 15/211/73 13/44/73 25/204/73 30/203/73
f 42/74/76 39/213/76 45/80/76 48/79/76
f 25/204/77 13/44/77 38/76/77 39/213/77
f 11/57/77 25/204/77 39/213/77 42/74/77
f 39/213/76 38/76/76 44/81/76 45/80/76
f 72/214/78 67/215/78 53/103/78 62/216/78
f 65/217/79 71/218/79 61/219/79 49/220/79
f 71/218/80 72/214/80 62/216/80 61/219/80
f 58/221/80 57/222/80 72/214/80 71/218/80
f 51/223/79 58/221/79 71/218/79 65/217/79
f 57/222/78 55/90/78 67/215/78 72/214/78
f 78/115/81 75/224/81 81/121/81 84/120/81
f 67/215/82 55/90/82 74/117/82 75/224/82
f 53/103/82 67/215/82 75/224/82 78/115/82
f 75/224/81 74/117/81 80/122/81 81/121/81
f 108/225/83 103/226/83 89/144/83 98/227/83
f 101/228/84 107/229/84 97/230/84 85/231/84
f 107/229/85 108/225/85 98/227/85 97/230/85
f 94/232/85 93/233/85 108/225/85 107/229/85
f 87/234/84 94/232/84 107/229/84 101/228/84
f 93/233/83 91/131/83 103/226/83 108/225/83
f 114/156/86 111/235/86 117/162/86 120/161/86
f 103/226/87 91/131/87 110/158/87 111/235/87
f 89/144/87 103/226/87 111/235/87 114/156/87
f 111/235/86 110/158/86 116/163/86 117/162/86
f 141/2/88 146/236/88 140/197/88
f 124/1/89 146/237/89 141/2/89
f 140/197/90 146/238/90 123/175/90
f 139/19/91 147/239/91 138/179/91
f 126/13/92 147/240/92 139/19/92
f 128/11/93 148/241/93 137/12/93
f 130/16/94 149/242/94 145/17/94
f 129/189/95 149/243/95 130/16/95
f 122/20/96 150/244/96 143/21/96
f 121/245/97 150/246/97 122/20/97
f 142/191/98 150/247/98 121/245/98
f 137/12/93 151/248/93 126/13/93
f 124/1/99 152/249/99 123/175/99
f 139/19/100 152/250/100 124/1/100
f 122/3/101 153/251/101 121/252/101
f 141/2/102 153/253/102 122/3/102
f 121/252/103 153/254/103 140/197/103
f 143/21/104 154/255/104 130/16/104
f 142/191/105 154/256/105 143/21/105
f 145/17/106 155/257/106 128/11/106
f 144/187/107 155/258/107 145/17/107
