# Blender v2.81 (sub 16) OBJ File: 'Nature Pack Low Poly.blend'
# www.blender.org
mtllib Flower_4.mtl
o Flower_4_Cube.009
v -0.014124 -0.018828 0.018828
v -0.014124 0.643195 0.018828
v -0.018828 -0.018828 -0.018828
v -0.018828 0.643195 -0.018828
v 0.014124 -0.018828 0.018828
v 0.014124 0.643195 0.018828
v 0.018828 -0.018828 -0.018828
v 0.018828 0.643195 -0.018828
v -0.320383 0.281395 -0.058854
v -0.315986 0.271731 -0.058854
v -0.320383 0.281395 0.058854
v -0.315986 0.271731 0.058854
v -0.001597 0.196499 -0.016289
v 0.002800 0.186835 -0.016289
v -0.001597 0.196499 0.016289
v 0.002800 0.186835 0.016289
v -0.125663 0.333692 0.118963
v -0.231925 0.368873 0.118963
v -0.227528 0.359210 0.118963
v -0.121266 0.324029 0.118963
v -0.231925 0.368873 -0.118963
v -0.125663 0.333692 -0.118963
v -0.121266 0.324029 -0.118963
v -0.227528 0.359210 -0.118963
v -0.320383 0.281395 -0.000000
v -0.315986 0.271731 -0.000000
v -0.001597 0.196499 0.000000
v 0.002800 0.186835 0.000000
v -0.121266 0.324029 0.000000
v -0.227528 0.359210 -0.000000
v -0.231925 0.368873 -0.000000
v -0.125663 0.333692 0.000000
v 0.298501 0.394721 0.053904
v 0.294474 0.385871 0.053904
v 0.298501 0.394721 -0.053904
v 0.294474 0.385871 -0.053904
v 0.006525 0.297627 0.011791
v 0.002498 0.288777 0.011791
v 0.006525 0.297627 -0.011791
v 0.002498 0.288777 -0.011791
v 0.120157 0.435596 -0.108958
v 0.217482 0.474843 -0.108958
v 0.213455 0.465992 -0.108958
v 0.116130 0.426745 -0.108958
v 0.217482 0.474843 0.108958
v 0.120157 0.435596 0.108958
v 0.116130 0.426745 0.108958
v 0.213455 0.465992 0.108958
v 0.298501 0.394721 -0.000000
v 0.294474 0.385871 -0.000000
v 0.006525 0.297627 0.000000
v 0.002498 0.288777 0.000000
v 0.116130 0.426745 0.000000
v 0.213455 0.465992 -0.000000
v 0.217482 0.474843 -0.000000
v 0.120157 0.435596 0.000000
v -0.000216 0.622377 -0.050652
v -0.000216 0.674967 -0.072541
v 0.045954 0.622377 -0.017107
v 0.066772 0.674967 -0.023872
v 0.028319 0.622377 0.037169
v 0.041185 0.674967 0.054878
v -0.028751 0.622377 0.037169
v -0.041617 0.674967 0.054878
v -0.046387 0.622377 -0.017107
v -0.067204 0.674967 -0.023872
v 0.093824 0.674967 -0.032661
v -0.000216 0.674967 -0.100985
v 0.057904 0.674967 0.077890
v -0.058336 0.674967 0.077890
v -0.094256 0.674967 -0.032661
v -0.000216 0.706771 -0.088629
v 0.082073 0.706771 -0.028843
v 0.050641 0.706771 0.067893
v -0.051073 0.706771 0.067893
v -0.082505 0.706771 -0.028843
v -0.000216 0.912719 -0.207243
v 0.194881 0.912719 -0.065497
v 0.120360 0.912719 0.163854
v -0.120793 0.912719 0.163854
v -0.195313 0.912719 -0.065496
v 0.247600 0.912719 -0.082626
v -0.000216 0.912719 -0.262675
v 0.152943 0.912719 0.208700
v -0.153375 0.912719 0.208700
v -0.248032 0.912719 -0.082626
v -0.000216 0.736961 -0.063925
v 0.058577 0.736961 -0.021209
v 0.036120 0.736961 0.047907
v -0.036553 0.736961 0.047907
v -0.059010 0.736961 -0.021209
vt 0.250000 0.393851
vt 0.113189 0.294453
vt 0.113189 0.294453
vt 0.250000 0.393851
vt 0.386811 0.294453
vt 0.250000 0.393851
vt 0.386811 0.294453
vt 0.165446 0.133622
vt 0.334554 0.133622
vt 0.334554 0.133622
vt 0.165446 0.133622
vt 0.386811 0.294453
vt 0.183434 0.158380
vt 0.316566 0.158380
vt 0.316566 0.158380
vt 0.183434 0.158380
vt 0.165446 0.133622
vt 0.113189 0.294453
vt 0.334554 0.133622
vt 0.250000 0.363249
vt 0.357706 0.284996
vt 0.142294 0.284996
vt 0.250000 0.363249
vt 0.357706 0.284996
vt 0.142294 0.284996
vt 0.375000 0.000000
vt 0.625000 0.000000
vt 0.625000 0.250000
vt 0.375000 0.250000
vt 0.625000 0.500000
vt 0.375000 0.500000
vt 0.625000 0.750000
vt 0.375000 0.750000
vt 0.625000 1.000000
vt 0.375000 1.000000
vt 0.125000 0.500000
vt 0.125000 0.750000
vt 0.875000 0.500000
vt 0.875000 0.750000
vt 0.375000 0.125000
vt 0.625000 0.125000
vt 0.625000 0.250000
vt 0.375000 0.250000
vt 0.375000 0.416667
vt 0.625000 0.416667
vt 0.625000 0.500000
vt 0.375000 0.500000
vt 0.375000 0.625000
vt 0.625000 0.625000
vt 0.625000 0.750000
vt 0.375000 0.750000
vt 0.375000 0.916667
vt 0.625000 0.916667
vt 0.625000 1.000000
vt 0.375000 1.000000
vt 0.291667 0.625000
vt 0.291667 0.750000
vt 0.791667 0.625000
vt 0.875000 0.625000
vt 0.875000 0.750000
vt 0.791667 0.750000
vt 0.708333 0.625000
vt 0.708333 0.750000
vt 0.125000 0.625000
vt 0.208333 0.625000
vt 0.208333 0.750000
vt 0.125000 0.750000
vt 0.625000 0.833333
vt 0.375000 0.833333
vt 0.625000 0.333333
vt 0.375000 0.333333
vt 0.208333 0.500000
vt 0.291667 0.500000
vt 0.125000 0.500000
vt 0.708333 0.500000
vt 0.791667 0.500000
vt 0.875000 0.500000
vt 0.375000 0.000000
vt 0.625000 0.000000
vt 0.375000 0.125000
vt 0.625000 0.125000
vt 0.625000 0.250000
vt 0.375000 0.250000
vt 0.375000 0.416667
vt 0.625000 0.416667
vt 0.625000 0.500000
vt 0.375000 0.500000
vt 0.375000 0.625000
vt 0.625000 0.625000
vt 0.625000 0.750000
vt 0.375000 0.750000
vt 0.375000 0.916667
vt 0.625000 0.916667
vt 0.625000 1.000000
vt 0.375000 1.000000
vt 0.291667 0.625000
vt 0.291667 0.750000
vt 0.791667 0.625000
vt 0.875000 0.625000
vt 0.875000 0.750000
vt 0.791667 0.750000
vt 0.708333 0.625000
vt 0.708333 0.750000
vt 0.125000 0.625000
vt 0.208333 0.625000
vt 0.208333 0.750000
vt 0.125000 0.750000
vt 0.625000 0.833333
vt 0.375000 0.833333
vt 0.625000 0.333333
vt 0.375000 0.333333
vt 0.208333 0.500000
vt 0.291667 0.500000
vt 0.125000 0.500000
vt 0.708333 0.500000
vt 0.791667 0.500000
vt 0.875000 0.500000
vt 0.375000 0.000000
vt 0.625000 0.000000
vt 1.000000 0.500000
vt 1.000000 1.000000
vt 0.800000 1.000000
vt 0.800000 0.500000
vt 0.600000 1.000000
vt 0.600000 0.500000
vt 0.400000 1.000000
vt 0.400000 0.500000
vt 0.200000 1.000000
vt 0.200000 0.500000
vt 0.000000 1.000000
vt 0.000000 0.500000
vt 0.750000 0.490000
vt 0.978254 0.324164
vt 0.891068 0.055836
vt 0.608931 0.055836
vt 0.521746 0.324164
vt 0.478254 0.324164
vt 0.250000 0.490000
vt 0.391068 0.055836
vt 0.108931 0.055836
vt 0.021746 0.324164
vn -0.5440 -0.3787 -0.7487
vn 0.4852 -0.5644 -0.6678
vn 0.0000 -0.3787 0.9255
vn 0.5440 -0.3787 -0.7487
vn -0.8802 -0.3787 0.2860
vn 0.8802 -0.3787 0.2860
vn -0.0000 0.5507 -0.8347
vn -0.7851 -0.5644 0.2551
vn 0.7851 -0.5644 0.2551
vn -0.4852 -0.5644 -0.6678
vn 0.0000 -0.5644 0.8255
vn 0.0000 1.0000 0.0000
vn -0.4906 0.5507 0.6753
vn 0.7939 0.5507 -0.2579
vn -0.7939 0.5507 -0.2579
vn 0.4906 0.5507 0.6753
vn -0.9923 0.0000 0.1240
vn 0.0000 0.0000 -1.0000
vn 0.9923 0.0000 0.1240
vn 0.0000 0.0000 1.0000
vn 0.0000 -1.0000 -0.0000
vn -0.9102 -0.4141 0.0000
vn 0.7987 0.3634 0.4795
vn 0.9102 0.4141 0.0000
vn -0.4167 -0.1896 -0.8891
vn 0.7417 0.6707 0.0000
vn 0.7032 -0.7110 -0.0000
vn -0.7417 -0.6707 0.0000
vn -0.3143 -0.9493 -0.0000
vn -0.7032 0.7110 0.0000
vn 0.3143 0.9493 0.0000
vn 0.7987 0.3634 -0.4796
vn -0.4167 -0.1896 0.8891
vn 0.9102 -0.4141 0.0000
vn -0.8217 0.3739 -0.4301
vn -0.9102 0.4141 0.0000
vn 0.4167 -0.1896 0.8891
vn -0.7719 0.6357 0.0000
vn -0.7032 -0.7110 0.0000
vn 0.7719 -0.6357 0.0000
vn 0.3740 -0.9274 -0.0000
vn 0.7032 0.7110 0.0000
vn -0.3740 0.9274 0.0000
vn -0.8217 0.3739 0.4301
vn 0.4167 -0.1896 -0.8891
vn 0.4648 -0.6122 -0.6397
vn 0.7520 -0.6122 0.2443
vn 0.0000 -0.6122 0.7907
vn -0.7520 -0.6122 0.2443
vn -0.4648 -0.6122 -0.6397
usemtl Flower_2
s off
f 58/1/1 66/2/1 76/3/1 72/4/1
f 73/5/2 72/4/2 83/6/2 82/7/2
f 64/8/3 62/9/3 74/10/3 75/11/3
f 60/12/4 58/1/4 72/4/4 73/5/4
f 66/2/5 64/8/5 75/11/5 76/3/5
f 62/9/6 60/12/6 73/5/6 74/10/6
f 80/13/7 79/14/7 89/15/7 90/16/7
f 76/3/8 75/11/8 85/17/8 86/18/8
f 74/10/9 73/5/9 82/7/9 84/19/9
f 72/4/10 76/3/10 86/18/10 83/6/10
f 75/11/11 74/10/11 84/19/11 85/17/11
f 77/20/12 78/21/12 82/7/12 83/6/12
f 78/21/12 79/14/12 84/19/12 82/7/12
f 79/14/12 80/13/12 85/17/12 84/19/12
f 80/13/12 81/22/12 86/18/12 85/17/12
f 81/22/12 77/20/12 83/6/12 86/18/12
f 78/21/13 77/20/13 87/23/13 88/24/13
f 81/22/14 80/13/14 90/16/14 91/25/14
f 79/14/15 78/21/15 88/24/15 89/15/15
f 77/20/16 81/22/16 91/25/16 87/23/16
usemtl leaves_dark
f 1/26/17 2/27/17 4/28/17 3/29/17
f 3/29/18 4/28/18 8/30/18 7/31/18
f 7/31/19 8/30/19 6/32/19 5/33/19
f 5/33/20 6/32/20 2/34/20 1/35/20
f 3/36/21 7/31/21 5/33/21 1/37/21
f 8/30/12 4/38/12 2/39/12 6/32/12
f 25/40/22 26/41/22 12/42/22 11/43/22
f 17/44/23 20/45/23 16/46/23 15/47/23
f 27/48/24 28/49/24 14/50/24 13/51/24
f 21/52/25 24/53/25 10/54/25 9/55/25
f 32/56/26 27/48/26 13/51/26 22/57/26
f 30/58/27 26/59/27 10/60/27 24/61/27
f 28/49/28 29/62/28 23/63/28 14/50/28
f 29/62/29 30/58/29 24/61/29 23/63/29
f 25/64/30 31/65/30 21/66/30 9/67/30
f 31/65/31 32/56/31 22/57/31 21/66/31
f 13/51/32 14/50/32 23/68/32 22/69/32
f 22/69/18 23/68/18 24/53/18 21/52/18
f 11/43/33 12/42/33 19/70/33 18/71/33
f 18/71/20 19/70/20 20/45/20 17/44/20
f 18/72/31 17/73/31 32/56/31 31/65/31
f 11/74/30 18/72/30 31/65/30 25/64/30
f 20/75/29 19/76/29 30/58/29 29/62/29
f 16/46/28 20/75/28 29/62/28 28/49/28
f 19/76/27 12/77/27 26/59/27 30/58/27
f 17/73/26 15/47/26 27/48/26 32/56/26
f 15/47/24 16/46/24 28/49/24 27/48/24
f 9/78/22 10/79/22 26/41/22 25/40/22
f 49/80/34 50/81/34 36/82/34 35/83/34
f 41/84/35 44/85/35 40/86/35 39/87/35
f 51/88/36 52/89/36 38/90/36 37/91/36
f 45/92/37 48/93/37 34/94/37 33/95/37
f 56/96/38 51/88/38 37/91/38 46/97/38
f 54/98/39 50/99/39 34/100/39 48/101/39
f 52/89/40 53/102/40 47/103/40 38/90/40
f 53/102/41 54/98/41 48/101/41 47/103/41
f 49/104/42 55/105/42 45/106/42 33/107/42
f 55/105/43 56/96/43 46/97/43 45/106/43
f 37/91/44 38/90/44 47/108/44 46/109/44
f 46/109/20 47/108/20 48/93/20 45/92/20
f 35/83/45 36/82/45 43/110/45 42/111/45
f 42/111/18 43/110/18 44/85/18 41/84/18
f 42/112/43 41/113/43 56/96/43 55/105/43
f 35/114/42 42/112/42 55/105/42 49/104/42
f 44/115/41 43/116/41 54/98/41 53/102/41
f 40/86/40 44/115/40 53/102/40 52/89/40
f 43/116/39 36/117/39 50/99/39 54/98/39
f 41/113/38 39/87/38 51/88/38 56/96/38
f 39/87/36 40/86/36 52/89/36 51/88/36
f 33/118/34 34/119/34 50/81/34 49/80/34
f 57/120/46 68/121/46 67/122/46 59/123/46
f 59/123/47 67/122/47 69/124/47 61/125/47
f 61/125/48 69/124/48 70/126/48 63/127/48
f 63/127/49 70/126/49 71/128/49 65/129/49
f 65/129/50 71/128/50 68/130/50 57/131/50
f 57/132/21 59/133/21 61/134/21 63/135/21 65/136/21
f 58/1/12 60/12/12 67/137/12 68/138/12
f 60/12/12 62/9/12 69/139/12 67/137/12
f 62/9/12 64/8/12 70/140/12 69/139/12
f 64/8/12 66/2/12 71/141/12 70/140/12
f 66/2/12 58/1/12 68/138/12 71/141/12
usemtl Flower_3
f 88/24/12 87/23/12 91/25/12 90/16/12 89/15/12
