# Blender v2.81 (sub 16) OBJ File: 'Nature Pack Low Poly.blend'
# www.blender.org
mtllib Flower_1_Snow.mtl
o Flower_1_Snow_Cube.011
v -0.014124 -0.018828 0.018828
v -0.014124 0.560784 0.018828
v -0.018828 -0.018828 -0.018828
v -0.018828 0.560784 -0.018828
v 0.014124 -0.018828 0.018828
v 0.014124 0.560784 0.018828
v 0.018828 -0.018828 -0.018828
v 0.018828 0.560784 -0.018828
v -0.230525 0.296063 0.042075
v -0.227381 0.302972 0.042075
v -0.230525 0.296063 -0.042075
v -0.227381 0.302972 -0.042075
v -0.002625 0.192372 0.016095
v 0.000518 0.199280 0.016095
v -0.002625 0.192372 -0.016095
v 0.000518 0.199280 -0.016095
v -0.091320 0.198962 -0.085046
v -0.167286 0.233525 -0.085046
v -0.164143 0.240434 -0.085046
v -0.088177 0.205870 -0.085046
v -0.167286 0.233525 0.085046
v -0.091320 0.198962 0.085046
v -0.088177 0.205870 0.085046
v -0.164143 0.240434 0.085046
v -0.230525 0.296063 0.000000
v -0.227381 0.302972 0.000000
v -0.002625 0.192372 0.000000
v 0.000518 0.199280 0.000000
v -0.088177 0.205870 0.000000
v -0.164143 0.240434 0.000000
v -0.167286 0.233525 0.000000
v -0.091320 0.198962 0.000000
v 0.144845 0.334934 0.026019
v 0.142902 0.330662 0.026019
v 0.144845 0.334934 -0.026019
v 0.142902 0.330662 -0.026019
v 0.003912 0.399057 0.009953
v 0.001968 0.394785 0.009953
v 0.003912 0.399057 -0.009953
v 0.001968 0.394785 -0.009953
v 0.058761 0.394982 -0.052593
v 0.105739 0.373608 -0.052593
v 0.103795 0.369336 -0.052593
v 0.056817 0.390710 -0.052593
v 0.105739 0.373608 0.052593
v 0.058761 0.394982 0.052593
v 0.056817 0.390710 0.052593
v 0.103795 0.369336 0.052593
v 0.144845 0.334934 -0.000000
v 0.142902 0.330662 -0.000000
v 0.003912 0.399057 0.000000
v 0.001968 0.394785 0.000000
v 0.056817 0.390710 0.000000
v 0.103795 0.369336 -0.000000
v 0.105739 0.373608 -0.000000
v 0.058761 0.394982 0.000000
v -0.000000 0.558080 -0.049463
v -0.047042 0.558080 -0.015285
v -0.029074 0.558080 0.040017
v 0.029074 0.558080 0.040017
v 0.047042 0.558080 -0.015285
v -0.000000 0.576882 -0.049463
v -0.047042 0.576882 -0.015285
v -0.029074 0.576882 0.040017
v 0.029074 0.576882 0.040017
v 0.047042 0.576882 -0.015285
v 0.000000 0.603907 -0.033605
v -0.031960 0.603907 -0.010384
v -0.019752 0.603907 0.027187
v 0.019752 0.603907 0.027187
v 0.031960 0.603907 -0.010384
v 0.000000 0.619826 0.000000
v 0.232387 0.599818 -0.102753
v 0.025912 0.599818 -0.252766
v 0.025912 0.580145 -0.252766
v 0.232387 0.580145 -0.102753
v -0.127608 0.580145 0.219723
v 0.127609 0.580145 0.219723
v 0.127609 0.599818 0.219723
v -0.127608 0.599818 0.219723
v -0.025912 0.580145 -0.252766
v -0.232387 0.580145 -0.102753
v -0.232387 0.599818 -0.102753
v -0.025912 0.599818 -0.252766
v 0.169535 0.580145 0.189261
v 0.248402 0.580145 -0.053465
v 0.248402 0.599818 -0.053465
v 0.169535 0.599818 0.189261
v -0.248402 0.580145 -0.053465
v -0.169535 0.580145 0.189261
v -0.169535 0.599818 0.189261
v -0.248402 0.599818 -0.053465
v 0.023144 0.631121 0.366778
v -0.023144 0.631121 0.366778
v 0.234310 0.631121 -0.283126
v 0.234310 0.640713 -0.283126
v 0.196863 0.640713 -0.310333
v 0.196863 0.631121 -0.310333
v 0.023144 0.640713 0.366778
v -0.023144 0.640713 0.366778
v -0.234310 0.631121 -0.283126
v -0.196863 0.631121 -0.310333
v -0.234310 0.640713 -0.283126
v -0.196863 0.640713 -0.310333
v 0.355978 0.631121 0.091330
v 0.341674 0.631121 0.135351
v 0.355978 0.640713 0.091330
v 0.341674 0.640713 0.135351
v -0.341674 0.631121 0.135351
v -0.355978 0.631121 0.091330
v -0.341674 0.640713 0.135351
v -0.355978 0.640713 0.091330
vt 0.000000 0.000000
vt 0.000000 0.000000
vt 0.000000 0.000000
vt 0.000000 0.000000
vt 0.000000 0.000000
vt 0.000000 0.000000
vt 0.000000 0.000000
vt 0.000000 0.000000
vt 0.000000 0.000000
vt 0.000000 0.000000
vt 0.000000 0.000000
vt 0.000000 0.000000
vt 0.000000 0.000000
vt 0.000000 0.000000
vt 0.000000 0.000000
vt 0.000000 0.000000
vt 0.000000 0.000000
vt 0.000000 0.000000
vt 0.000000 0.000000
vt 0.000000 0.000000
vt 0.000000 0.000000
vt 0.000000 0.000000
vt 0.000000 0.000000
vt 0.000000 0.000000
vt 0.000000 0.000000
vt 0.000000 0.000000
vt 0.000000 0.000000
vt 0.000000 0.000000
vt 0.000000 0.000000
vt 0.000000 0.000000
vt 0.000000 0.000000
vt 0.000000 0.000000
vt 0.000000 0.000000
vt 0.000000 0.000000
vt 0.000000 0.000000
vt 0.000000 0.000000
vt 0.000000 0.000000
vt 0.000000 0.000000
vt 0.000000 0.000000
vt 0.000000 0.000000
vt 0.000000 0.000000
vt 0.000000 0.000000
vt 0.000000 0.000000
vt 0.000000 0.000000
vt 0.000000 0.000000
vt 0.000000 0.000000
vt 0.000000 0.000000
vt 0.000000 0.000000
vt 0.000000 0.000000
vt 0.000000 0.000000
vt 0.000000 0.000000
vt 0.000000 0.000000
vt 0.000000 0.000000
vt 0.000000 0.000000
vt 0.000000 0.000000
vt 0.375000 0.000000
vt 0.625000 0.000000
vt 0.625000 0.250000
vt 0.375000 0.250000
vt 0.625000 0.500000
vt 0.375000 0.500000
vt 0.625000 0.750000
vt 0.375000 0.750000
vt 0.625000 1.000000
vt 0.375000 1.000000
vt 0.125000 0.500000
vt 0.125000 0.750000
vt 0.875000 0.500000
vt 0.875000 0.750000
vt 0.375000 0.125000
vt 0.625000 0.125000
vt 0.625000 0.250000
vt 0.375000 0.250000
vt 0.375000 0.416667
vt 0.625000 0.416667
vt 0.625000 0.500000
vt 0.375000 0.500000
vt 0.375000 0.625000
vt 0.625000 0.625000
vt 0.625000 0.750000
vt 0.375000 0.750000
vt 0.375000 0.916667
vt 0.625000 0.916667
vt 0.625000 1.000000
vt 0.375000 1.000000
vt 0.291667 0.625000
vt 0.291667 0.750000
vt 0.125000 0.625000
vt 0.208333 0.625000
vt 0.208333 0.750000
vt 0.125000 0.750000
vt 0.625000 0.833333
vt 0.375000 0.833333
vt 0.625000 0.333333
vt 0.375000 0.333333
vt 0.208333 0.500000
vt 0.291667 0.500000
vt 0.125000 0.500000
vt 0.375000 0.000000
vt 0.625000 0.000000
vt 0.375000 0.125000
vt 0.625000 0.125000
vt 0.625000 0.250000
vt 0.375000 0.250000
vt 0.375000 0.416667
vt 0.625000 0.416667
vt 0.625000 0.500000
vt 0.375000 0.500000
vt 0.375000 0.625000
vt 0.625000 0.625000
vt 0.625000 0.750000
vt 0.375000 0.750000
vt 0.375000 0.916667
vt 0.625000 0.916667
vt 0.625000 1.000000
vt 0.375000 1.000000
vt 0.791667 0.625000
vt 0.875000 0.625000
vt 0.875000 0.750000
vt 0.791667 0.750000
vt 0.708333 0.625000
vt 0.708333 0.750000
vt 0.625000 0.833333
vt 0.375000 0.833333
vt 0.625000 0.333333
vt 0.375000 0.333333
vt 0.708333 0.500000
vt 0.791667 0.500000
vt 0.875000 0.500000
vt 0.375000 0.000000
vt 0.625000 0.000000
vt 0.791667 0.625000
vt 0.875000 0.625000
vt 0.875000 0.750000
vt 0.791667 0.750000
vt 0.708333 0.625000
vt 0.708333 0.750000
vt 0.708333 0.500000
vt 0.791667 0.500000
vt 0.875000 0.500000
vt 0.291667 0.625000
vt 0.291667 0.750000
vt 0.125000 0.625000
vt 0.208333 0.625000
vt 0.208333 0.750000
vt 0.125000 0.750000
vt 0.208333 0.500000
vt 0.291667 0.500000
vt 0.125000 0.500000
vt 0.000000 0.000000
vn -0.9511 0.0000 0.3090
vn 0.9511 0.0000 0.3090
vn -0.5878 0.0000 -0.8090
vn 0.0000 0.0000 1.0000
vn 0.5878 0.0000 -0.8090
vn 0.0716 -0.9925 -0.0986
vn -0.9920 0.0000 -0.1264
vn 0.4268 0.0000 0.9044
vn 0.3115 -0.9448 0.1012
vn 0.0000 -0.9925 0.1219
vn 0.8768 0.0000 -0.4808
vn -0.8768 0.0000 -0.4808
vn 0.8152 0.0000 0.5791
vn -0.0716 -0.9925 -0.0986
vn -0.4268 0.0000 0.9044
vn 0.9920 0.0000 -0.1264
vn -0.1925 -0.9448 -0.2650
vn 0.1159 -0.9925 0.0377
vn -0.1863 0.0000 -0.9825
vn -0.7282 0.0000 0.6854
vn 0.9999 0.0000 0.0107
vn -0.1159 -0.9925 0.0377
vn 0.7282 0.0000 0.6854
vn 0.1863 0.0000 -0.9825
vn -0.9999 0.0000 0.0107
vn -0.3115 -0.9448 0.1012
vn 0.0000 -0.9448 0.3275
vn 0.8027 0.0000 -0.5964
vn -0.3191 0.0000 -0.9477
vn -0.2989 0.0000 0.9543
vn -0.8152 0.0000 0.5791
vn 0.1925 -0.9448 -0.2650
vn 0.3191 0.0000 -0.9477
vn 0.2989 0.0000 0.9543
vn -0.8027 0.0000 -0.5964
vn 0.8592 0.4289 0.2792
vn -0.8592 0.4289 0.2792
vn 0.5310 0.4289 -0.7308
vn 0.0000 0.4289 0.9034
vn -0.5310 0.4289 -0.7308
vn 0.0000 -1.0000 0.0000
vn -0.9923 0.0000 0.1240
vn 0.0000 0.0000 -1.0000
vn 0.9923 0.0000 0.1240
vn 0.0000 1.0000 0.0000
vn -0.9102 0.4141 0.0000
vn 0.5797 -0.2638 -0.7709
vn 0.9102 -0.4141 0.0000
vn -0.4167 0.1896 0.8891
vn -0.0741 -0.9973 0.0000
vn -0.7032 -0.7110 0.0000
vn -0.4141 -0.9102 0.0000
vn 0.5797 -0.2638 0.7709
vn -0.4167 0.1896 -0.8891
vn -0.5797 0.2638 -0.7709
vn 0.4167 -0.1896 0.8891
vn -0.5797 0.2638 0.7709
vn 0.4167 -0.1896 -0.8891
vn 0.7032 0.7110 0.0000
vn 0.0741 0.9973 0.0000
vn 0.4141 0.9102 0.0000
vn 0.2970 0.8630 -0.4088
vn 0.0000 0.8630 0.5053
vn -0.2970 0.8629 -0.4088
vn 0.4806 0.8630 0.1561
vn -0.4806 0.8630 0.1561
vn -0.1575 0.9634 0.2168
vn -0.0744 0.9920 0.1024
vn -0.0000 0.9920 -0.1266
vn 0.0744 0.9920 0.1024
vn -0.1204 0.9920 -0.0391
vn 0.1204 0.9920 -0.0391
vn 0.0000 0.9634 -0.2679
vn 0.1575 0.9634 0.2168
vn -0.2548 0.9634 -0.0828
vn 0.2548 0.9634 -0.0828
usemtl Flower
s off
f 110/1/1 109/2/1 111/3/1 112/4/1
f 106/5/2 105/6/2 107/7/2 108/8/2
f 102/9/3 101/10/3 103/11/3 104/12/3
f 94/13/4 93/14/4 99/15/4 100/16/4
f 95/17/5 98/18/5 97/19/5 96/20/5
f 57/21/6 75/22/6 76/23/6 61/24/6
f 62/25/7 74/26/7 75/22/7 57/21/7
f 61/24/8 76/23/8 73/27/8 66/28/8
f 85/29/9 86/30/9 105/6/9 106/5/9
f 60/31/10 78/32/10 77/33/10 59/34/10
f 65/35/11 79/36/11 78/32/11 60/31/11
f 59/34/12 77/33/12 80/37/12 64/38/12
f 78/32/13 79/36/13 99/15/13 93/14/13
f 58/39/14 82/40/14 81/41/14 57/21/14
f 63/42/15 83/43/15 82/40/15 58/39/15
f 57/21/16 81/41/16 84/44/16 62/25/16
f 81/41/17 82/40/17 101/10/17 102/9/17
f 61/24/18 86/30/18 85/29/18 60/31/18
f 66/28/19 87/45/19 86/30/19 61/24/19
f 60/31/20 85/29/20 88/46/20 65/35/20
f 73/27/21 76/23/21 95/17/21 96/20/21
f 59/34/22 90/47/22 89/48/22 58/39/22
f 64/38/23 91/49/23 90/47/23 59/34/23
f 58/39/24 89/48/24 92/50/24 63/42/24
f 82/40/25 83/43/25 103/11/25 101/10/25
f 89/48/26 90/47/26 109/2/26 110/1/26
f 77/33/27 78/32/27 93/14/27 94/13/27
f 86/30/28 87/45/28 107/7/28 105/6/28
f 75/22/29 74/26/29 97/19/29 98/18/29
f 90/47/30 91/49/30 111/3/30 109/2/30
f 80/37/31 77/33/31 94/13/31 100/16/31
f 76/23/32 75/22/32 98/18/32 95/17/32
f 84/44/33 81/41/33 102/9/33 104/12/33
f 88/46/34 85/29/34 106/5/34 108/8/34
f 92/50/35 89/48/35 110/1/35 112/4/35
usemtl Flower_3
f 65/35/36 66/28/36 71/51/36 70/52/36
f 63/42/37 64/38/37 69/53/37 68/54/37
f 66/28/38 62/25/38 67/55/38 71/51/38
f 64/38/39 65/35/39 70/52/39 69/53/39
f 62/25/40 63/42/40 68/54/40 67/55/40
f 58/39/41 57/21/41 61/24/41 60/31/41 59/34/41
usemtl leaves_dark
f 1/56/42 2/57/42 4/58/42 3/59/42
f 3/59/43 4/58/43 8/60/43 7/61/43
f 7/61/44 8/60/44 6/62/44 5/63/44
f 5/63/4 6/62/4 2/64/4 1/65/4
f 3/66/41 7/61/41 5/63/41 1/67/41
f 8/60/45 4/68/45 2/69/45 6/62/45
f 25/70/46 26/71/46 12/72/46 11/73/46
f 17/74/47 20/75/47 16/76/47 15/77/47
f 27/78/48 28/79/48 14/80/48 13/81/48
f 21/82/49 24/83/49 10/84/49 9/85/49
f 32/86/50 27/78/50 13/81/50 22/87/50
f 25/88/51 31/89/51 21/90/51 9/91/51
f 31/89/52 32/86/52 22/87/52 21/90/52
f 13/81/53 14/80/53 23/92/53 22/93/53
f 22/93/4 23/92/4 24/83/4 21/82/4
f 11/73/54 12/72/54 19/94/54 18/95/54
f 18/95/43 19/94/43 20/75/43 17/74/43
f 18/96/52 17/97/52 32/86/52 31/89/52
f 11/98/51 18/96/51 31/89/51 25/88/51
f 17/97/50 15/77/50 27/78/50 32/86/50
f 15/77/48 16/76/48 28/79/48 27/78/48
f 9/99/46 10/100/46 26/71/46 25/70/46
f 49/101/48 50/102/48 36/103/48 35/104/48
f 41/105/55 44/106/55 40/107/55 39/108/55
f 51/109/46 52/110/46 38/111/46 37/112/46
f 45/113/56 48/114/56 34/115/56 33/116/56
f 54/117/51 50/118/51 34/119/51 48/120/51
f 52/110/50 53/121/50 47/122/50 38/111/50
f 53/121/52 54/117/52 48/120/52 47/122/52
f 37/112/57 38/111/57 47/123/57 46/124/57
f 46/124/4 47/123/4 48/114/4 45/113/4
f 35/104/58 36/103/58 43/125/58 42/126/58
f 42/126/43 43/125/43 44/106/43 41/105/43
f 44/127/52 43/128/52 54/117/52 53/121/52
f 40/107/50 44/127/50 53/121/50 52/110/50
f 43/128/51 36/129/51 50/118/51 54/117/51
f 39/108/46 40/107/46 52/110/46 51/109/46
f 33/130/48 34/131/48 50/102/48 49/101/48
usemtl Snow
f 30/132/59 26/133/59 10/134/59 24/135/59
f 28/79/60 29/136/60 23/137/60 14/80/60
f 29/136/61 30/132/61 24/135/61 23/137/61
f 20/138/61 19/139/61 30/132/61 29/136/61
f 16/76/60 20/138/60 29/136/60 28/79/60
f 19/139/59 12/140/59 26/133/59 30/132/59
f 56/141/60 51/109/60 37/112/60 46/142/60
f 49/143/59 55/144/59 45/145/59 33/146/59
f 55/144/61 56/141/61 46/142/61 45/145/61
f 42/147/61 41/148/61 56/141/61 55/144/61
f 35/149/59 42/147/59 55/144/59 49/143/59
f 41/148/60 39/108/60 51/109/60 56/141/60
f 71/51/62 67/55/62 72/150/62
f 69/53/63 70/52/63 72/150/63
f 67/55/64 68/54/64 72/150/64
f 70/52/65 71/51/65 72/150/65
f 68/54/66 69/53/66 72/150/66
f 74/26/67 73/27/67 96/20/67 97/19/67
f 66/28/68 73/27/68 74/26/68 62/25/68
f 64/38/69 80/37/69 79/36/69 65/35/69
f 62/25/70 84/44/70 83/43/70 63/42/70
f 65/35/71 88/46/71 87/45/71 66/28/71
f 63/42/72 92/50/72 91/49/72 64/38/72
f 79/36/73 80/37/73 100/16/73 99/15/73
f 83/43/74 84/44/74 104/12/74 103/11/74
f 87/45/75 88/46/75 108/8/75 107/7/75
f 91/49/76 92/50/76 112/4/76 111/3/76
