# Blender v2.81 (sub 16) OBJ File: 'Nature Pack Low Poly.blend'
# www.blender.org
mtllib Mushroom_4_Snow.mtl
o Mushroom_4_Snow_Cylinder.024
v -0.000000 -0.039976 -0.023446
v -0.000000 0.372713 0.042762
v 0.022298 -0.039976 -0.007245
v 0.010266 0.370223 0.049793
v 0.013781 -0.039976 0.018968
v 0.006345 0.366193 0.061170
v -0.013781 -0.039976 0.018968
v -0.006346 0.366193 0.061170
v -0.022298 -0.039976 -0.007245
v -0.010267 0.370223 0.049793
v 0.085667 0.355836 0.018706
v -0.000000 0.376619 -0.039963
v 0.052945 0.322209 0.113634
v -0.052946 0.322209 0.113634
v -0.085668 0.355836 0.018706
v 0.103553 0.400581 0.028391
v -0.000000 0.425703 -0.042527
v 0.063999 0.359933 0.143139
v -0.064000 0.359933 0.143139
v -0.103554 0.400581 0.028391
v 0.070234 0.474326 0.065999
v -0.000000 0.491365 0.017900
v 0.043407 0.446757 0.143826
v -0.043408 0.446757 0.143826
v -0.070235 0.474326 0.065999
v 0.011152 0.547872 0.112418
v -0.000000 0.550578 0.104780
v 0.006892 0.543495 0.124776
v -0.006893 0.543495 0.124776
v -0.011153 0.547872 0.112418
v -0.000000 0.182185 -0.014827
v 0.014101 0.182185 -0.004582
v 0.008715 0.182185 0.011996
v -0.008716 0.182185 0.011996
v -0.014102 0.182185 -0.004582
vt 0.600000 1.000000
vt 0.800000 1.000000
vt 0.800000 1.000000
vt 0.600000 1.000000
vt 0.200000 1.000000
vt 0.400000 1.000000
vt 0.400000 1.000000
vt 0.200000 1.000000
vt 0.000000 1.000000
vt 0.200000 1.000000
vt 0.000000 1.000000
vt 1.000000 1.000000
vt 1.000000 1.000000
vt 0.400000 1.000000
vt 0.800000 1.000000
vt 0.600000 1.000000
vt 0.000000 1.000000
vt 1.000000 1.000000
vt 0.800000 0.840634
vt 0.600000 0.840634
vt 0.400000 0.840634
vt 0.200000 0.840634
vt 0.750000 0.490000
vt 0.978254 0.324164
vt 0.891068 0.055836
vt 0.608932 0.055836
vt 0.521746 0.324164
vt 0.200000 0.500000
vt 0.000000 0.840634
vt 0.000000 0.500000
vt 0.400000 0.500000
vt 0.600000 0.500000
vt 0.800000 0.500000
vt 1.000000 0.500000
vt 1.000000 0.840634
vt 0.200000 1.000000
vt 0.000000 1.000000
vt 0.400000 1.000000
vt 0.400000 1.000000
vt 0.200000 1.000000
vt 0.600000 1.000000
vt 1.000000 1.000000
vt 0.800000 1.000000
vt 0.478254 0.324164
vt 0.250000 0.490000
vt 0.021746 0.324164
vt 0.108932 0.055836
vt 0.391068 0.055836
vt 0.800000 1.000000
vt 0.600000 1.000000
vt 0.000000 1.000000
vt 1.000000 1.000000
vn -0.3326 -0.8470 -0.4147
vn -0.9018 -0.3973 0.1701
vn 0.2055 -0.9776 -0.0461
vn -0.2055 -0.9776 -0.0462
vn 0.0000 -0.7663 -0.6424
vn 0.3326 -0.8470 -0.4147
vn 0.9018 -0.3973 0.1701
vn -0.5573 -0.0433 -0.8292
vn 0.0000 -0.6161 0.7877
vn 0.5573 -0.0433 -0.8292
vn 0.9495 -0.0694 0.3061
vn -0.0000 -0.2582 0.9661
vn -0.9495 -0.0694 0.3061
vn 0.0000 -1.0000 0.0000
vn -0.5875 0.0314 -0.8086
vn -0.9506 0.0314 0.3089
vn -0.0000 0.0314 0.9995
vn 0.9506 0.0314 0.3089
vn 0.5875 0.0314 -0.8086
vn 0.5779 0.2368 -0.7810
vn -0.5779 0.2368 -0.7810
vn -0.5556 0.5630 -0.6118
vn -0.8182 0.3917 0.4208
vn 0.0000 -0.0079 1.0000
vn 0.5556 0.5630 -0.6118
vn -0.8990 0.2102 0.3843
vn 0.8990 0.2102 0.3843
vn 0.0000 0.9426 0.3339
vn 0.8182 0.3917 0.4208
vn -0.5057 0.7129 -0.4859
vn 0.0000 0.1932 0.9812
vn 0.5057 0.7129 -0.4859
usemtl Branch
s off
f 6/1/1 4/2/1 11/3/1 13/4/1
f 15/5/2 14/6/2 19/7/2 20/8/2
f 2/9/3 10/10/3 15/5/3 12/11/3
f 4/2/4 2/12/4 12/13/4 11/3/4
f 8/14/5 6/1/5 13/4/5 14/6/5
f 10/10/6 8/14/6 14/6/6 15/5/6
f 13/4/7 11/3/7 16/15/7 18/16/7
f 12/11/8 15/5/8 20/8/8 17/17/8
f 14/6/9 13/4/9 18/16/9 19/7/9
f 11/3/10 12/13/10 17/18/10 16/15/10
usemtl Branch_2
f 32/19/11 4/2/11 6/1/11 33/20/11
f 33/20/12 6/1/12 8/14/12 34/21/12
f 34/21/13 8/14/13 10/10/13 35/22/13
f 1/23/14 3/24/14 5/25/14 7/26/14 9/27/14
f 9/28/15 35/22/15 31/29/15 1/30/15
f 7/31/16 34/21/16 35/22/16 9/28/16
f 5/32/17 33/20/17 34/21/17 7/31/17
f 3/33/18 32/19/18 33/20/18 5/32/18
f 1/34/19 31/35/19 32/19/19 3/33/19
usemtl Snow
f 31/35/20 2/12/20 4/2/20 32/19/20
f 35/22/21 10/10/21 2/9/21 31/29/21
f 17/17/22 20/8/22 25/36/22 22/37/22
f 25/36/23 24/38/23 29/39/23 30/40/23
f 19/7/24 18/16/24 23/41/24 24/38/24
f 16/15/25 17/18/25 22/42/25 21/43/25
f 20/8/26 19/7/26 24/38/26 25/36/26
f 18/16/27 16/15/27 21/43/27 23/41/27
f 26/44/28 27/45/28 30/46/28 29/47/28 28/48/28
f 23/41/29 21/43/29 26/49/29 28/50/29
f 22/37/30 25/36/30 30/40/30 27/51/30
f 24/38/31 23/41/31 28/50/31 29/39/31
f 21/43/32 22/42/32 27/52/32 26/49/32
