# Blender v2.81 (sub 16) OBJ File: 'Nature Pack Low Poly.blend'
# www.blender.org
mtllib Mushroom_1_Snow.mtl
o Mushroom_1_Snow_Cylinder.022
v -0.000000 -0.039976 -0.094308
v -0.000000 0.165066 -0.063272
v 0.089693 -0.039976 -0.029143
v 0.060175 0.165066 -0.019552
v 0.055433 -0.039976 0.076297
v 0.037190 0.165066 0.051188
v -0.055433 -0.039976 0.076297
v -0.037190 0.165066 0.051188
v -0.089693 -0.039976 -0.029143
v -0.060175 0.165066 -0.019552
v 0.195555 0.128562 -0.063540
v -0.000000 0.128562 -0.205619
v 0.120860 0.128562 0.166349
v -0.120860 0.128562 0.166349
v -0.195555 0.128562 -0.063540
v 0.195555 0.170689 -0.063540
v -0.000000 0.170689 -0.205619
v 0.120860 0.170689 0.166349
v -0.120860 0.170689 0.166349
v -0.195555 0.170689 -0.063540
v 0.132634 0.243928 -0.043095
v -0.000000 0.243928 -0.139459
v 0.081972 0.243928 0.112825
v -0.081972 0.243928 0.112825
v -0.132634 0.243928 -0.043095
v 0.021060 0.303781 -0.006843
v -0.000000 0.303781 -0.022144
v 0.013016 0.303781 0.017915
v -0.013016 0.303781 0.017915
v -0.021061 0.303781 -0.006843
vt 0.600000 1.000000
vt 0.800000 1.000000
vt 0.800000 1.000000
vt 0.600000 1.000000
vt 0.200000 1.000000
vt 0.400000 1.000000
vt 0.400000 1.000000
vt 0.200000 1.000000
vt 0.000000 1.000000
vt 0.200000 1.000000
vt 0.000000 1.000000
vt 1.000000 1.000000
vt 1.000000 1.000000
vt 0.400000 1.000000
vt 0.800000 1.000000
vt 0.600000 1.000000
vt 0.000000 1.000000
vt 1.000000 1.000000
vt 1.000000 0.500000
vt 0.800000 0.500000
vt 0.600000 0.500000
vt 0.400000 0.500000
vt 0.200000 0.500000
vt 0.000000 0.500000
vt 0.750000 0.490000
vt 0.978254 0.324164
vt 0.891068 0.055836
vt 0.608932 0.055836
vt 0.521746 0.324164
vt 0.200000 1.000000
vt 0.000000 1.000000
vt 0.400000 1.000000
vt 0.400000 1.000000
vt 0.200000 1.000000
vt 0.600000 1.000000
vt 1.000000 1.000000
vt 0.800000 1.000000
vt 0.478254 0.324164
vt 0.250000 0.490000
vt 0.021746 0.324164
vt 0.108932 0.055836
vt 0.391068 0.055836
vt 0.800000 1.000000
vt 0.600000 1.000000
vt 0.000000 1.000000
vt 1.000000 1.000000
vn -0.2874 -0.9533 -0.0934
vn -0.9511 0.0000 0.3090
vn 0.1776 -0.9533 0.2445
vn -0.1776 -0.9533 0.2445
vn 0.0000 -0.9533 -0.3022
vn 0.2874 -0.9533 -0.0934
vn 0.9511 0.0000 0.3090
vn -0.5878 0.0000 -0.8090
vn 0.0000 0.0000 1.0000
vn 0.5878 0.0000 -0.8090
vn 0.5834 0.1215 -0.8030
vn 0.9440 0.1215 0.3067
vn -0.0000 0.1215 0.9926
vn -0.9440 0.1215 0.3067
vn -0.5834 0.1215 -0.8030
vn 0.0000 -1.0000 -0.0000
vn -0.4746 0.5900 -0.6532
vn -0.5073 0.8459 0.1648
vn 0.0000 0.5900 0.8074
vn 0.4746 0.5900 -0.6532
vn -0.7679 0.5900 0.2495
vn 0.7679 0.5900 0.2495
vn 0.0000 1.0000 0.0000
vn 0.5073 0.8459 0.1648
vn -0.3135 0.8459 -0.4315
vn -0.0000 0.8459 0.5334
vn 0.3135 0.8459 -0.4315
usemtl Flower
s off
f 6/1/1 4/2/1 11/3/1 13/4/1
f 15/5/2 14/6/2 19/7/2 20/8/2
f 2/9/3 10/10/3 15/5/3 12/11/3
f 4/2/4 2/12/4 12/13/4 11/3/4
f 8/14/5 6/1/5 13/4/5 14/6/5
f 10/10/6 8/14/6 14/6/6 15/5/6
f 13/4/7 11/3/7 16/15/7 18/16/7
f 12/11/8 15/5/8 20/8/8 17/17/8
f 14/6/9 13/4/9 18/16/9 19/7/9
f 11/3/10 12/13/10 17/18/10 16/15/10
usemtl Branch_2
f 1/19/11 2/12/11 4/2/11 3/20/11
f 3/20/12 4/2/12 6/1/12 5/21/12
f 5/21/13 6/1/13 8/14/13 7/22/13
f 7/22/14 8/14/14 10/10/14 9/23/14
f 9/23/15 10/10/15 2/9/15 1/24/15
f 1/25/16 3/26/16 5/27/16 7/28/16 9/29/16
usemtl Snow
f 17/17/17 20/8/17 25/30/17 22/31/17
f 25/30/18 24/32/18 29/33/18 30/34/18
f 19/7/19 18/16/19 23/35/19 24/32/19
f 16/15/20 17/18/20 22/36/20 21/37/20
f 20/8/21 19/7/21 24/32/21 25/30/21
f 18/16/22 16/15/22 21/37/22 23/35/22
f 26/38/23 27/39/23 30/40/23 29/41/23 28/42/23
f 23/35/24 21/37/24 26/43/24 28/44/24
f 22/31/25 25/30/25 30/34/25 27/45/25
f 24/32/26 23/35/26 28/44/26 29/33/26
f 21/37/27 22/36/27 27/46/27 26/43/27
