# Blender 3.5.0
# www.blender.org
mtllib Arm_R.mtl
o P_Arm_R
v -1.041666 0.027907 -0.005081
v -1.016806 0.011808 -0.029845
v -1.000346 -0.010364 -0.056568
v -1.009675 -0.030679 -0.084585
v -1.045447 -0.050853 -0.111311
v -1.094783 -0.079012 -0.131648
v -1.132763 -0.127021 -0.143101
v -1.158968 -0.190040 -0.147028
v -1.170294 -0.264724 -0.143230
v -1.161420 -0.348039 -0.129256
v -1.159286 -0.418982 -0.106527
v -1.180950 -0.464108 -0.080487
v -1.221479 -0.484186 -0.054374
v -1.259225 -0.492892 -0.029282
v -1.292534 -0.493006 -0.005053
v -1.032055 0.022189 0.017861
v -1.001964 -0.002861 0.017861
v -0.984746 -0.033464 0.017861
v -0.993038 -0.061209 0.017861
v -1.024082 -0.086617 0.017861
v -1.065391 -0.115294 0.017861
v -1.096008 -0.157236 0.017861
v -1.116836 -0.209505 0.017861
v -1.125420 -0.270589 0.017861
v -1.117671 -0.339948 0.017861
v -1.118277 -0.402650 0.017861
v -1.142685 -0.447772 0.017861
v -1.187808 -0.473159 0.017861
v -1.234679 -0.488115 0.017861
v -1.280038 -0.492954 0.017861
v -1.043568 0.025266 0.039955
v -1.024440 0.003177 0.061634
v -1.016202 -0.025257 0.082763
v -1.032375 -0.050714 0.102921
v -1.069565 -0.073776 0.120790
v -1.114395 -0.100750 0.133792
v -1.147005 -0.141762 0.140932
v -1.168787 -0.193728 0.143343
v -1.177929 -0.255119 0.140932
v -1.169942 -0.325490 0.132076
v -1.166834 -0.389904 0.117427
v -1.184440 -0.436834 0.099870
v -1.220895 -0.464393 0.080997
v -1.257470 -0.482077 0.061146
v -1.291657 -0.489876 0.039927
v -1.071398 0.032697 0.049107
v -1.078861 0.017753 0.079765
v -1.091193 -0.006379 0.109646
v -1.115375 -0.033997 0.138154
v -1.150775 -0.063744 0.163424
v -1.188079 -0.099516 0.181812
v -1.217070 -0.145426 0.191910
v -1.239889 -0.197783 0.195320
v -1.256902 -0.253665 0.191910
v -1.263583 -0.313350 0.179386
v -1.269891 -0.368277 0.158669
v -1.285007 -0.410573 0.133839
v -1.300775 -0.443233 0.107148
v -1.312492 -0.467501 0.079075
v -1.319707 -0.482446 0.049068
v -1.099278 0.040128 0.039955
v -1.133491 0.032329 0.061634
v -1.170164 0.014645 0.082763
v -1.207819 -0.012243 0.102921
v -1.244899 -0.047302 0.120790
v -1.279936 -0.089186 0.133792
v -1.311678 -0.136283 0.140932
v -1.339136 -0.186786 0.143343
v -1.361106 -0.238752 0.140932
v -1.376709 -0.290184 0.132076
v -1.385342 -0.339107 0.117427
v -1.386675 -0.383640 0.099870
v -1.380655 -0.422072 0.080997
v -1.367514 -0.452925 0.061146
v -1.347757 -0.475015 0.039927
v -1.110840 0.043206 0.017861
v -1.156174 0.038366 0.017861
v -1.203084 0.023410 0.017861
v -1.249724 -0.001087 0.017861
v -1.294232 -0.034184 0.017861
v -1.334834 -0.074610 0.017861
v -1.370051 -0.120810 0.017861
v -1.398688 -0.171009 0.017861
v -1.419517 -0.223278 0.017861
v -1.431731 -0.275609 0.017861
v -1.434861 -0.325989 0.017861
v -1.428787 -0.372484 0.017861
v -1.413743 -0.413307 0.017861
v -1.390305 -0.446888 0.017861
v -1.359376 -0.471937 0.017861
v -1.099278 0.040128 -0.004234
v -1.131713 0.037729 -0.028078
v -1.166650 0.032941 -0.056670
v -1.207110 0.012930 -0.084805
v -1.250248 -0.019585 -0.111652
v -1.293321 -0.064782 -0.132173
v -1.333125 -0.120090 -0.143762
v -1.367285 -0.181479 -0.147711
v -1.393342 -0.244920 -0.143766
v -1.408980 -0.305934 -0.129515
v -1.413323 -0.360038 -0.106628
v -1.407600 -0.404551 -0.080523
v -1.393693 -0.438565 -0.054374
v -1.373651 -0.462580 -0.029282
v -1.349262 -0.477978 -0.005053
v -1.322143 -0.487492 0.017861
v -1.068884 0.037743 0.017861
v -1.069821 0.035398 -0.014327
v -1.073238 0.027292 -0.048871
v -1.077633 0.016268 -0.090055
v -1.095677 0.001467 -0.137372
v -1.132857 -0.021761 -0.184679
v -1.180091 -0.064512 -0.214707
v -1.218259 -0.124313 -0.230058
v -1.248556 -0.193625 -0.235209
v -1.271145 -0.267804 -0.230732
v -1.279858 -0.346713 -0.213433
v -1.287410 -0.417215 -0.183237
v -1.302247 -0.458748 -0.138944
v -1.313787 -0.477895 -0.092705
v -1.319553 -0.485816 -0.051534
v -1.321746 -0.487661 -0.014972
vn 0.6514 0.2728 -0.7080
vn 0.5798 0.1586 -0.7991
vn 0.6698 0.3060 -0.6766
vn 0.2406 -0.8178 -0.5228
vn 0.2334 -0.9508 -0.2039
vn -0.2725 -0.8911 -0.3628
vn 0.6308 -0.2582 -0.7317
vn 0.6612 -0.4940 -0.5646
vn 0.6672 -0.2650 -0.6962
vn 0.0704 -0.9923 -0.1022
vn -0.2633 -0.9497 -0.1693
vn 0.7703 -0.3732 -0.5171
vn 0.6850 -0.2522 -0.6835
vn -0.0924 -0.9956 -0.0156
vn -0.2588 -0.9652 -0.0380
vn 0.8271 -0.2356 -0.5104
vn 0.6700 -0.2245 -0.7076
vn 0.2056 0.9626 -0.1764
vn 0.2463 0.9682 0.0435
vn 0.3998 0.9124 -0.0874
vn -0.2585 -0.9625 0.0818
vn 0.8262 -0.1119 -0.5522
vn 0.6411 -0.2349 -0.7306
vn 0.2320 0.9332 -0.2745
vn 0.5846 0.7881 -0.1925
vn 0.5837 -0.2736 -0.7645
vn 0.5410 -0.1973 -0.8176
vn 0.4416 0.7445 -0.5007
vn 0.3031 0.8811 -0.3630
vn 0.5230 -0.3440 -0.7798
vn 0.4946 -0.2517 -0.8319
vn 0.4975 0.6537 -0.5703
vn 0.5360 0.7257 -0.4314
vn 0.3343 -0.6321 -0.6991
vn 0.5113 -0.7609 -0.3994
vn 0.9603 -0.1773 -0.2154
vn 0.9326 -0.2487 -0.2615
vn 0.9655 -0.1610 -0.2048
vn 0.9280 -0.2565 -0.2703
vn 0.6828 -0.7305 -0.0132
vn 0.6249 -0.7189 -0.3046
vn 0.5751 -0.7571 -0.3099
vn 0.5842 -0.7538 -0.3007
vn 0.4107 -0.8999 0.1467
vn 0.6706 -0.6784 -0.3001
vn 0.2231 -0.9658 0.1319
vn 0.8430 -0.4588 -0.2808
vn 0.0099 -0.9953 0.0958
vn 0.9304 -0.2467 -0.2711
vn 0.5384 0.8365 0.1019
vn 0.9604 -0.0193 -0.2780
vn 0.7904 0.6001 0.1228
vn 0.9609 0.0127 -0.2765
vn 0.9543 0.0418 -0.2960
vn 0.8478 0.5096 0.1467
vn 0.8099 0.5865 0.0123
vn 0.9358 -0.2133 -0.2805
vn 0.8850 -0.2371 0.4006
vn 0.6993 -0.3358 0.6310
vn 0.7491 -0.2123 0.6276
vn 0.4470 0.8524 0.2714
vn -0.0628 -0.9638 0.2593
vn 0.7389 -0.1040 0.6658
vn 0.9153 -0.0128 0.4025
vn 0.5936 0.6631 0.4560
vn 0.9146 0.0207 0.4038
vn 0.9066 0.0341 0.4206
vn 0.8109 0.4817 0.3321
vn 0.8717 -0.2142 0.4407
vn 0.8608 -0.2271 0.4554
vn 0.8616 -0.2462 0.4439
vn 0.8729 -0.2219 0.4345
vn 0.8761 -0.2148 0.4317
vn 0.7782 -0.4465 0.4417
vn 0.7831 -0.4236 0.4552
vn 0.5715 -0.7422 0.3501
vn 0.6064 -0.7097 0.3587
vn 0.5698 -0.7483 0.3396
vn 0.4505 -0.8230 0.3460
vn 0.2283 -0.8110 0.5386
vn 0.6392 -0.6798 0.3597
vn 0.6882 -0.6262 0.3664
vn 0.0953 -0.8990 0.4274
vn 0.8031 -0.4491 0.3917
vn 0.2599 -0.3384 0.9044
vn -0.1210 -0.5123 0.8502
vn 0.1525 -0.5105 0.8462
vn 0.4232 0.0111 0.9060
vn 0.4539 0.2334 0.8599
vn 0.5077 -0.0925 0.8566
vn -0.1787 -0.6311 0.7548
vn 0.4712 -0.2519 0.8453
vn 0.5594 -0.1980 0.8049
vn -0.2137 -0.7683 0.6033
vn 0.5841 -0.2020 0.7861
vn -0.2453 -0.9012 0.3574
vn 0.5646 -0.1881 0.8037
vn 0.2475 0.9019 0.3540
vn 0.5260 -0.2213 0.8212
vn 0.2210 0.7774 0.5889
vn 0.4464 -0.2570 0.8571
vn 0.3887 -0.1705 0.9055
vn 0.3991 0.5271 0.7502
vn 0.2181 0.6439 0.7333
vn 0.2970 -0.4236 0.8557
vn 0.4083 0.3288 0.8516
vn 0.0640 0.9645 0.2562
vn -0.4417 -0.8545 0.2733
vn -0.4509 -0.0098 0.8925
vn -0.4281 0.1824 0.8851
vn -0.4157 0.0201 0.9093
vn -0.0921 0.9050 0.4153
vn -0.4287 -0.1925 0.8827
vn -0.3912 -0.1396 0.9097
vn -0.2211 0.8325 0.5080
vn -0.4015 -0.3049 0.8636
vn -0.3788 -0.2708 0.8850
vn -0.0756 0.7162 0.6937
vn -0.3391 0.7582 0.5569
vn -0.3815 -0.3883 0.8389
vn -0.1723 0.6640 0.7277
vn -0.4540 0.6669 0.5909
vn -0.3870 -0.5198 0.7616
vn -0.3118 0.5322 0.7871
vn -0.5516 0.5487 0.6283
vn -0.5668 -0.6818 0.4625
vn -0.4120 0.3475 0.8423
vn -0.4200 0.3171 0.8503
vn -0.4456 0.1818 0.8766
vn -0.5381 0.8331 0.1277
vn -0.6555 0.7447 0.1256
vn -0.8813 -0.2183 0.4191
vn -0.8849 -0.4392 0.1549
vn -0.8244 -0.4254 0.3734
vn -0.6933 0.5971 0.4036
vn -0.7422 -0.6549 0.1423
vn -0.7554 0.5020 0.4212
vn -0.7587 0.4960 0.4223
vn -0.5320 -0.8404 0.1033
vn -0.8103 0.3939 0.4340
vn -0.8129 0.3879 0.4345
vn -0.0056 0.9995 0.0308
vn -0.8568 0.2683 0.4404
vn -0.8564 0.2662 0.4424
vn -0.2106 0.9727 0.0977
vn -0.8893 0.1213 0.4410
vn -0.8849 0.1286 0.4477
vn -0.3968 0.9092 0.1260
vn -0.8992 -0.0411 0.4355
vn -0.8947 -0.0267 0.4459
vn -0.9624 -0.2221 0.1565
vn -0.8842 0.4245 -0.1947
vn -0.9377 0.2887 -0.1931
vn -0.9354 0.2975 -0.1913
vn 0.0033 0.9869 -0.1616
vn -0.9728 0.1492 -0.1771
vn -0.9761 0.1194 -0.1817
vn -0.1661 0.9604 -0.2237
vn -0.9878 -0.0244 -0.1539
vn -0.9843 -0.0780 -0.1586
vn -0.3551 0.8877 -0.2931
vn -0.9477 -0.2952 -0.1211
vn -0.5097 0.7812 -0.3604
vn -0.7294 -0.6292 -0.2684
vn -0.6308 0.6425 -0.4351
vn -0.7479 0.6431 -0.1642
vn -0.5965 -0.7921 -0.1297
vn -0.8183 0.5442 -0.1850
vn -0.8222 0.5382 -0.1854
vn -0.4279 -0.9035 -0.0232
vn -0.8834 0.4264 -0.1946
vn 0.0856 0.9862 -0.1416
vn -0.5935 -0.5439 -0.5933
vn -0.4249 0.6528 -0.6272
vn -0.5351 0.4241 -0.7306
vn -0.5300 0.4049 -0.7451
vn -0.5693 0.2347 -0.7879
vn -0.5502 0.2386 -0.8002
vn -0.5850 0.0226 -0.8108
vn -0.5626 0.0386 -0.8259
vn -0.5858 -0.1820 -0.7898
vn -0.5740 -0.1686 -0.8013
vn -0.5957 -0.3630 -0.7165
vn -0.5989 -0.3615 -0.7146
vn -0.0401 0.9273 -0.3721
vn -0.6051 -0.5573 -0.5685
vn -0.2262 0.8464 -0.4821
vn 0.5510 0.1175 -0.8262
vn 0.5248 -0.3638 -0.7695
vn 0.3377 -0.7404 -0.5811
vn 0.9203 -0.2750 -0.2783
vn 0.6008 -0.7341 -0.3163
vn 0.8568 -0.2560 0.4476
vn 0.5904 -0.7214 0.3620
vt 0.625000 0.937500
vt 0.625000 0.875000
vt 0.625000 0.812500
vt 0.625000 0.750000
vt 0.625000 0.687500
vt 0.625000 0.625000
vt 0.625000 0.562500
vt 0.625000 0.500000
vt 0.625000 0.437500
vt 0.625000 0.375000
vt 0.625000 0.312500
vt 0.625000 0.250000
vt 0.625000 0.187500
vt 0.625000 0.125000
vt 0.625000 0.062500
vt 0.500000 0.937500
vt 0.500000 0.875000
vt 0.500000 0.812500
vt 0.500000 0.750000
vt 0.500000 0.687500
vt 0.500000 0.625000
vt 0.500000 0.562500
vt 0.500000 0.500000
vt 0.500000 0.437500
vt 0.500000 0.375000
vt 0.500000 0.312500
vt 0.500000 0.250000
vt 0.500000 0.187500
vt 0.500000 0.125000
vt 0.500000 0.062500
vt 0.375000 0.937500
vt 0.375000 0.875000
vt 0.375000 0.812500
vt 0.375000 0.750000
vt 0.375000 0.687500
vt 0.375000 0.625000
vt 0.375000 0.562500
vt 0.375000 0.500000
vt 0.375000 0.437500
vt 0.375000 0.375000
vt 0.375000 0.312500
vt 0.375000 0.250000
vt 0.375000 0.187500
vt 0.375000 0.125000
vt 0.375000 0.062500
vt 0.250000 0.937500
vt 0.250000 0.875000
vt 0.250000 0.812500
vt 0.250000 0.750000
vt 0.250000 0.687500
vt 0.250000 0.625000
vt 0.250000 0.562500
vt 0.250000 0.500000
vt 0.250000 0.437500
vt 0.250000 0.375000
vt 0.250000 0.312500
vt 0.250000 0.250000
vt 0.250000 0.187500
vt 0.250000 0.125000
vt 0.250000 0.062500
vt 0.125000 0.937500
vt 0.125000 0.875000
vt 0.125000 0.812500
vt 0.125000 0.750000
vt 0.125000 0.687500
vt 0.125000 0.625000
vt 0.125000 0.562500
vt 0.125000 0.500000
vt 0.125000 0.437500
vt 0.125000 0.375000
vt 0.125000 0.312500
vt 0.125000 0.250000
vt 0.125000 0.187500
vt 0.125000 0.125000
vt 0.125000 0.062500
vt 0.000000 0.937500
vt 1.000000 0.937500
vt 0.000000 0.875000
vt 1.000000 0.875000
vt 0.000000 0.812500
vt 1.000000 0.812500
vt 0.000000 0.750000
vt 1.000000 0.750000
vt 0.000000 0.687500
vt 1.000000 0.687500
vt 0.000000 0.625000
vt 1.000000 0.625000
vt 0.000000 0.562500
vt 1.000000 0.562500
vt 0.000000 0.500000
vt 1.000000 0.500000
vt 0.000000 0.437500
vt 1.000000 0.437500
vt 0.000000 0.375000
vt 1.000000 0.375000
vt 0.000000 0.312500
vt 1.000000 0.312500
vt 0.000000 0.250000
vt 1.000000 0.250000
vt 0.000000 0.187500
vt 1.000000 0.187500
vt 0.000000 0.125000
vt 1.000000 0.125000
vt 0.000000 0.062500
vt 1.000000 0.062500
vt 0.875000 0.937500
vt 0.875000 0.875000
vt 0.875000 0.812500
vt 0.875000 0.750000
vt 0.875000 0.687500
vt 0.875000 0.625000
vt 0.875000 0.562500
vt 0.875000 0.500000
vt 0.875000 0.437500
vt 0.875000 0.375000
vt 0.875000 0.312500
vt 0.875000 0.250000
vt 0.875000 0.187500
vt 0.875000 0.125000
vt 0.875000 0.062500
vt 0.687500 0.000000
vt 0.562500 0.000000
vt 0.437500 0.000000
vt 0.312500 0.000000
vt 0.187500 0.000000
vt 0.062500 0.000000
vt 0.937500 0.000000
vt 0.812500 0.000000
vt 0.687500 1.000000
vt 0.562500 1.000000
vt 0.437500 1.000000
vt 0.312500 1.000000
vt 0.187500 1.000000
vt 0.062500 1.000000
vt 0.937500 1.000000
vt 0.812500 1.000000
vt 0.750000 0.937500
vt 0.750000 0.875000
vt 0.750000 0.812500
vt 0.750000 0.750000
vt 0.750000 0.687500
vt 0.750000 0.625000
vt 0.750000 0.562500
vt 0.750000 0.500000
vt 0.750000 0.437500
vt 0.750000 0.375000
vt 0.750000 0.312500
vt 0.750000 0.250000
vt 0.750000 0.187500
vt 0.750000 0.125000
vt 0.750000 0.062500
s 1
usemtl Body
f 111/140/1 5/5/2 112/141/3
f 119/148/4 13/13/5 120/149/6
f 112/141/7 6/6/8 113/142/9
f 120/149/6 14/14/10 121/150/11
f 113/142/9 7/7/12 114/143/13
f 121/150/11 15/15/14 122/151/15
f 114/143/13 8/8/16 115/144/17
f 108/137/18 107/129/19 1/1/20
f 106/121/21 122/151/15 15/15/14
f 115/144/17 9/9/22 116/145/23
f 109/138/24 1/1/20 2/2/25
f 117/146/26 9/9/22 10/10/27
f 109/138/24 3/3/28 110/139/29
f 118/147/30 10/10/27 11/11/31
f 110/139/29 4/4/32 111/140/33
f 119/148/4 11/11/34 12/12/35
f 3/3/36 19/19/37 4/4/38
f 11/11/39 27/27/40 12/12/35
f 4/4/41 20/20/42 5/5/43
f 12/12/35 28/28/44 13/13/5
f 5/5/43 21/21/45 6/6/8
f 13/13/5 29/29/46 14/14/10
f 6/6/8 22/22/47 7/7/12
f 14/14/10 30/30/48 15/15/14
f 8/8/16 22/22/47 23/23/49
f 1/1/20 107/130/19 16/16/50
f 106/122/21 15/15/14 30/30/48
f 9/9/22 23/23/49 24/24/51
f 2/2/25 16/16/50 17/17/52
f 10/10/53 24/24/51 25/25/54
f 2/2/25 18/18/55 3/3/56
f 11/11/39 25/25/54 26/26/57
f 23/23/58 37/37/59 38/38/60
f 16/16/50 107/131/19 31/31/61
f 106/123/21 30/30/48 45/45/62
f 23/23/58 39/39/63 24/24/64
f 16/16/50 32/32/65 17/17/52
f 24/24/64 40/40/66 25/25/67
f 18/18/55 32/32/65 33/33/68
f 25/25/67 41/41/69 26/26/70
f 19/19/71 33/33/72 34/34/73
f 26/26/70 42/42/74 27/27/75
f 20/20/76 34/34/77 35/35/78
f 28/28/44 42/42/79 43/43/80
f 21/21/81 35/35/78 36/36/82
f 29/29/46 43/43/80 44/44/83
f 22/22/84 36/36/82 37/37/59
f 30/30/48 44/44/83 45/45/62
f 41/41/85 57/57/86 42/42/87
f 35/35/88 49/49/89 50/50/90
f 43/43/80 57/57/86 58/58/91
f 36/36/92 50/50/90 51/51/93
f 44/44/83 58/58/91 59/59/94
f 37/37/59 51/51/93 52/52/95
f 45/45/62 59/59/94 60/60/96
f 38/38/60 52/52/95 53/53/97
f 31/31/61 107/132/19 46/46/98
f 106/124/21 45/45/62 60/60/96
f 39/39/63 53/53/97 54/54/99
f 31/31/61 47/47/100 32/32/65
f 39/39/63 55/55/101 40/40/102
f 33/33/103 47/47/100 48/48/104
f 40/40/102 56/56/105 41/41/85
f 34/34/106 48/48/104 49/49/89
f 46/46/98 107/133/19 61/61/107
f 106/125/21 60/60/96 75/75/108
f 54/54/109 68/68/110 69/69/111
f 47/47/100 61/61/107 62/62/112
f 55/55/113 69/69/111 70/70/114
f 48/48/104 62/62/112 63/63/115
f 56/56/116 70/70/114 71/71/117
f 49/49/118 63/63/115 64/64/119
f 57/57/86 71/71/117 72/72/120
f 50/50/121 64/64/119 65/65/122
f 58/58/91 72/72/120 73/73/123
f 51/51/124 65/65/122 66/66/125
f 58/58/91 74/74/126 59/59/94
f 52/52/127 66/66/125 67/67/128
f 59/59/94 75/75/108 60/60/96
f 53/53/129 67/67/128 68/68/110
f 65/65/122 79/82/130 80/84/131
f 72/72/132 88/100/133 73/73/134
f 66/66/125 80/84/131 81/86/135
f 73/73/134 89/102/136 74/74/126
f 67/67/137 81/86/135 82/88/138
f 74/74/126 90/104/139 75/75/108
f 68/68/140 82/88/138 83/90/141
f 61/61/107 107/134/19 76/76/142
f 106/126/21 75/75/108 90/104/139
f 69/69/143 83/90/141 84/92/144
f 62/62/112 76/76/142 77/78/145
f 70/70/146 84/92/144 85/94/147
f 63/63/115 77/78/145 78/80/148
f 71/71/149 85/94/147 86/96/150
f 64/64/119 78/80/148 79/82/130
f 72/72/132 86/96/150 87/98/151
f 83/91/152 99/114/153 84/93/154
f 76/77/142 92/107/155 77/79/145
f 85/95/156 99/114/153 100/115/157
f 77/79/145 93/108/158 78/81/148
f 86/97/159 100/115/157 101/116/160
f 78/81/148 94/109/161 79/83/130
f 87/99/151 101/116/160 102/117/162
f 79/83/130 95/110/163 80/85/131
f 88/101/133 102/117/162 103/118/164
f 80/85/131 96/111/165 81/87/166
f 89/103/136 103/118/164 104/119/167
f 81/87/166 97/112/168 82/89/169
f 90/105/139 104/119/167 105/120/170
f 82/89/169 98/113/171 83/91/152
f 76/77/142 107/135/19 91/106/172
f 106/127/21 90/105/139 105/120/170
f 102/117/173 120/149/6 103/118/164
f 95/110/163 113/142/174 96/111/165
f 104/119/167 120/149/6 121/150/11
f 96/111/165 114/143/175 97/112/176
f 105/120/170 121/150/11 122/151/15
f 97/112/176 115/144/177 98/113/178
f 91/106/172 107/136/19 108/137/18
f 106/128/21 105/120/170 122/151/15
f 98/113/178 116/145/179 99/114/180
f 91/106/172 109/138/24 92/107/155
f 99/114/180 117/146/181 100/115/182
f 92/107/155 110/139/29 93/108/158
f 101/116/183 117/146/181 118/147/184
f 93/108/158 111/140/185 94/109/161
f 101/116/183 119/148/186 102/117/173
f 94/109/161 112/141/187 95/110/163
f 111/140/1 4/4/188 5/5/2
f 119/148/4 12/12/35 13/13/5
f 112/141/7 5/5/189 6/6/8
f 120/149/6 13/13/5 14/14/10
f 113/142/9 6/6/8 7/7/12
f 121/150/11 14/14/10 15/15/14
f 114/143/13 7/7/12 8/8/16
f 115/144/17 8/8/16 9/9/22
f 109/138/24 108/137/18 1/1/20
f 117/146/26 116/145/23 9/9/22
f 109/138/24 2/2/25 3/3/28
f 118/147/30 117/146/26 10/10/27
f 110/139/29 3/3/28 4/4/32
f 119/148/4 118/147/190 11/11/34
f 3/3/36 18/18/191 19/19/37
f 11/11/39 26/26/57 27/27/40
f 4/4/41 19/19/192 20/20/42
f 12/12/35 27/27/40 28/28/44
f 5/5/43 20/20/42 21/21/45
f 13/13/5 28/28/44 29/29/46
f 6/6/8 21/21/45 22/22/47
f 14/14/10 29/29/46 30/30/48
f 8/8/16 7/7/12 22/22/47
f 9/9/22 8/8/16 23/23/49
f 2/2/25 1/1/20 16/16/50
f 10/10/53 9/9/22 24/24/51
f 2/2/25 17/17/52 18/18/55
f 11/11/39 10/10/53 25/25/54
f 23/23/58 22/22/84 37/37/59
f 23/23/58 38/38/60 39/39/63
f 16/16/50 31/31/61 32/32/65
f 24/24/64 39/39/63 40/40/66
f 18/18/55 17/17/52 32/32/65
f 25/25/67 40/40/66 41/41/69
f 19/19/71 18/18/193 33/33/72
f 26/26/70 41/41/69 42/42/74
f 20/20/76 19/19/194 34/34/77
f 28/28/44 27/27/40 42/42/79
f 21/21/81 20/20/76 35/35/78
f 29/29/46 28/28/44 43/43/80
f 22/22/84 21/21/81 36/36/82
f 30/30/48 29/29/46 44/44/83
f 41/41/85 56/56/105 57/57/86
f 35/35/88 34/34/106 49/49/89
f 43/43/80 42/42/87 57/57/86
f 36/36/92 35/35/88 50/50/90
f 44/44/83 43/43/80 58/58/91
f 37/37/59 36/36/92 51/51/93
f 45/45/62 44/44/83 59/59/94
f 38/38/60 37/37/59 52/52/95
f 39/39/63 38/38/60 53/53/97
f 31/31/61 46/46/98 47/47/100
f 39/39/63 54/54/99 55/55/101
f 33/33/103 32/32/65 47/47/100
f 40/40/102 55/55/101 56/56/105
f 34/34/106 33/33/103 48/48/104
f 54/54/109 53/53/129 68/68/110
f 47/47/100 46/46/98 61/61/107
f 55/55/113 54/54/109 69/69/111
f 48/48/104 47/47/100 62/62/112
f 56/56/116 55/55/113 70/70/114
f 49/49/118 48/48/104 63/63/115
f 57/57/86 56/56/116 71/71/117
f 50/50/121 49/49/118 64/64/119
f 58/58/91 57/57/86 72/72/120
f 51/51/124 50/50/121 65/65/122
f 58/58/91 73/73/123 74/74/126
f 52/52/127 51/51/124 66/66/125
f 59/59/94 74/74/126 75/75/108
f 53/53/129 52/52/127 67/67/128
f 65/65/122 64/64/119 79/82/130
f 72/72/132 87/98/151 88/100/133
f 66/66/125 65/65/122 80/84/131
f 73/73/134 88/100/133 89/102/136
f 67/67/137 66/66/125 81/86/135
f 74/74/126 89/102/136 90/104/139
f 68/68/140 67/67/137 82/88/138
f 69/69/143 68/68/140 83/90/141
f 62/62/112 61/61/107 76/76/142
f 70/70/146 69/69/143 84/92/144
f 63/63/115 62/62/112 77/78/145
f 71/71/149 70/70/146 85/94/147
f 64/64/119 63/63/115 78/80/148
f 72/72/132 71/71/149 86/96/150
f 83/91/152 98/113/171 99/114/153
f 76/77/142 91/106/172 92/107/155
f 85/95/156 84/93/154 99/114/153
f 77/79/145 92/107/155 93/108/158
f 86/97/159 85/95/156 100/115/157
f 78/81/148 93/108/158 94/109/161
f 87/99/151 86/97/159 101/116/160
f 79/83/130 94/109/161 95/110/163
f 88/101/133 87/99/151 102/117/162
f 80/85/131 95/110/163 96/111/165
f 89/103/136 88/101/133 103/118/164
f 81/87/166 96/111/165 97/112/168
f 90/105/139 89/103/136 104/119/167
f 82/89/169 97/112/168 98/113/171
f 102/117/173 119/148/186 120/149/6
f 95/110/163 112/141/187 113/142/174
f 104/119/167 103/118/164 120/149/6
f 96/111/165 113/142/174 114/143/175
f 105/120/170 104/119/167 121/150/11
f 97/112/176 114/143/175 115/144/177
f 98/113/178 115/144/177 116/145/179
f 91/106/172 108/137/18 109/138/24
f 99/114/180 116/145/179 117/146/181
f 92/107/155 109/138/24 110/139/29
f 101/116/183 100/115/182 117/146/181
f 93/108/158 110/139/29 111/140/185
f 101/116/183 118/147/184 119/148/186
f 94/109/161 111/140/185 112/141/187
