# Blender 3.5.0
# www.blender.org
mtllib Ground.mtl
o Ground
v -0.850000 -1.000000 0.850000
v -0.850000 -0.850000 1.000000
v -1.000000 -0.850000 0.850000
v -0.850000 -0.988582 0.907403
v -0.850000 -0.956066 0.956066
v -0.907403 -0.988582 0.850000
v -0.908841 -0.974802 0.908841
v -0.905856 -0.948438 0.948438
v -0.936603 -0.936603 0.936603
v -0.907403 -0.850000 0.988582
v -0.956066 -0.850000 0.956066
v -0.850000 -0.907403 0.988582
v -0.908841 -0.908841 0.974802
v -0.948438 -0.905856 0.948438
v -0.988582 -0.907403 0.850000
v -0.956066 -0.956066 0.850000
v -0.988582 -0.850000 0.907403
v -0.974802 -0.908841 0.908841
v -0.948438 -0.948438 0.905856
v -0.850000 0.850000 1.000000
v -0.850000 1.000000 0.850000
v -1.000000 0.850000 0.850000
v -0.850000 0.907403 0.988582
v -0.850000 0.956066 0.956066
v -0.907403 0.850000 0.988582
v -0.908841 0.908841 0.974802
v -0.905856 0.948438 0.948438
v -0.936603 0.936603 0.936603
v -0.907403 0.988582 0.850000
v -0.956066 0.956066 0.850000
v -0.850000 0.988582 0.907403
v -0.908841 0.974802 0.908841
v -0.948438 0.948438 0.905856
v -0.988582 0.850000 0.907403
v -0.956066 0.850000 0.956066
v -0.988582 0.907403 0.850000
v -0.974802 0.908841 0.908841
v -0.948438 0.905856 0.948438
v -0.850000 -1.000000 -0.850000
v -1.000000 -0.850000 -0.850000
v -0.850000 -0.850000 -1.000000
v -0.907403 -0.988582 -0.850000
v -0.956066 -0.956066 -0.850000
v -0.850000 -0.988582 -0.907403
v -0.908841 -0.974802 -0.908841
v -0.948438 -0.948438 -0.905856
v -0.936603 -0.936603 -0.936603
v -0.988582 -0.850000 -0.907403
v -0.956066 -0.850000 -0.956066
v -0.988582 -0.907403 -0.850000
v -0.974802 -0.908841 -0.908841
v -0.948438 -0.905856 -0.948438
v -0.850000 -0.907403 -0.988582
v -0.850000 -0.956066 -0.956066
v -0.907403 -0.850000 -0.988582
v -0.908841 -0.908841 -0.974802
v -0.905856 -0.948438 -0.948438
v -0.850000 1.000000 -0.850000
v -0.850000 0.850000 -1.000000
v -1.000000 0.850000 -0.850000
v -0.850000 0.988582 -0.907403
v -0.850000 0.956066 -0.956066
v -0.907403 0.988582 -0.850000
v -0.908841 0.974802 -0.908841
v -0.905856 0.948438 -0.948438
v -0.936603 0.936603 -0.936603
v -0.907403 0.850000 -0.988582
v -0.956066 0.850000 -0.956066
v -0.850000 0.907403 -0.988582
v -0.908841 0.908841 -0.974802
v -0.948438 0.905856 -0.948438
v -0.988582 0.907403 -0.850000
v -0.956066 0.956066 -0.850000
v -0.988582 0.850000 -0.907403
v -0.974802 0.908841 -0.908841
v -0.948438 0.948438 -0.905856
v 0.850000 -1.000000 0.850000
v 1.000000 -0.850000 0.850000
v 0.850000 -0.850000 1.000000
v 0.907403 -0.988582 0.850000
v 0.956066 -0.956066 0.850000
v 0.850000 -0.988582 0.907403
v 0.908841 -0.974802 0.908841
v 0.948438 -0.948438 0.905856
v 0.936603 -0.936603 0.936603
v 0.988582 -0.850000 0.907403
v 0.956066 -0.850000 0.956066
v 0.988582 -0.907403 0.850000
v 0.974802 -0.908841 0.908841
v 0.948438 -0.905856 0.948438
v 0.850000 -0.907403 0.988582
v 0.850000 -0.956066 0.956066
v 0.907403 -0.850000 0.988582
v 0.908841 -0.908841 0.974802
v 0.905856 -0.948438 0.948438
v 0.850000 1.000000 0.850000
v 0.850000 0.850000 1.000000
v 1.000000 0.850000 0.850000
v 0.850000 0.988582 0.907403
v 0.850000 0.956066 0.956066
v 0.907403 0.988582 0.850000
v 0.908841 0.974802 0.908841
v 0.905856 0.948438 0.948438
v 0.936603 0.936603 0.936603
v 0.907403 0.850000 0.988582
v 0.956066 0.850000 0.956066
v 0.850000 0.907403 0.988582
v 0.908841 0.908841 0.974802
v 0.948438 0.905856 0.948438
v 0.988582 0.907403 0.850000
v 0.956066 0.956066 0.850000
v 0.988582 0.850000 0.907403
v 0.974802 0.908841 0.908841
v 0.948438 0.948438 0.905856
v 0.850000 -1.000000 -0.850000
v 0.850000 -0.850000 -1.000000
v 1.000000 -0.850000 -0.850000
v 0.850000 -0.988582 -0.907403
v 0.850000 -0.956066 -0.956066
v 0.907403 -0.988582 -0.850000
v 0.908841 -0.974802 -0.908841
v 0.905856 -0.948438 -0.948438
v 0.936603 -0.936603 -0.936603
v 0.907403 -0.850000 -0.988582
v 0.956066 -0.850000 -0.956066
v 0.850000 -0.907403 -0.988582
v 0.908841 -0.908841 -0.974802
v 0.948438 -0.905856 -0.948438
v 0.988582 -0.907403 -0.850000
v 0.956066 -0.956066 -0.850000
v 0.988582 -0.850000 -0.907403
v 0.974802 -0.908841 -0.908841
v 0.948438 -0.948438 -0.905856
v 0.850000 1.000000 -0.850000
v 1.000000 0.850000 -0.850000
v 0.850000 0.850000 -1.000000
v 0.907403 0.988582 -0.850000
v 0.956066 0.956066 -0.850000
v 0.850000 0.988582 -0.907403
v 0.908841 0.974802 -0.908841
v 0.948438 0.948438 -0.905856
v 0.936603 0.936603 -0.936603
v 0.988582 0.850000 -0.907403
v 0.956066 0.850000 -0.956066
v 0.988582 0.907403 -0.850000
v 0.974802 0.908841 -0.908841
v 0.948438 0.905856 -0.948438
v 0.850000 0.907403 -0.988582
v 0.850000 0.956066 -0.956066
v 0.907403 0.850000 -0.988582
v 0.908841 0.908841 -0.974802
v 0.905856 0.948438 -0.948438
vn 0.0970 0.0970 0.9905
vn -0.0970 -0.0970 0.9905
vn 0.0970 -0.0970 0.9905
vn 0.9905 0.0970 -0.0970
vn 0.9905 -0.0970 0.0970
vn 0.9905 -0.0970 -0.0970
vn -0.0970 0.9905 -0.0970
vn 0.0970 0.9905 0.0970
vn 0.0970 0.9905 -0.0970
vn -0.9905 0.0970 0.0970
vn -0.9905 -0.0970 -0.0970
vn -0.9905 -0.0970 0.0970
vn -0.0970 0.0970 -0.9905
vn 0.0970 -0.0970 -0.9905
vn -0.0970 -0.0970 -0.9905
vn -0.0972 -0.9206 0.3783
vn -0.3783 -0.9206 0.0972
vn -0.0970 -0.9905 0.0970
vn -0.0919 -0.7041 0.7041
vn -0.3703 -0.8519 0.3703
vn -0.7041 -0.7041 0.0919
vn -0.5774 -0.5774 0.5774
vn -0.6683 -0.6683 0.3266
vn -0.3783 -0.0972 0.9206
vn -0.0972 -0.3783 0.9206
vn -0.7041 -0.0919 0.7041
vn -0.3703 -0.3703 0.8519
vn -0.3266 -0.6683 0.6683
vn -0.9206 -0.3783 0.0972
vn -0.9206 -0.0972 0.3783
vn -0.8519 -0.3703 0.3703
vn -0.6683 -0.3266 0.6683
vn -0.0972 0.3783 0.9206
vn -0.3783 0.0972 0.9206
vn -0.0970 0.0970 0.9905
vn -0.0919 0.7041 0.7041
vn -0.3703 0.3703 0.8519
vn -0.7041 0.0919 0.7041
vn -0.5774 0.5774 0.5774
vn -0.6683 0.3266 0.6683
vn -0.3783 0.9206 0.0972
vn -0.0972 0.9206 0.3783
vn -0.0970 0.9905 0.0970
vn -0.7041 0.7041 0.0919
vn -0.3703 0.8519 0.3703
vn -0.3266 0.6683 0.6683
vn -0.9206 0.0972 0.3783
vn -0.9206 0.3783 0.0972
vn -0.8519 0.3703 0.3703
vn -0.6683 0.6683 0.3266
vn -0.3783 -0.9206 -0.0972
vn -0.0972 -0.9206 -0.3783
vn -0.0970 -0.9905 -0.0970
vn -0.7041 -0.7041 -0.0919
vn -0.3703 -0.8519 -0.3703
vn -0.0919 -0.7041 -0.7041
vn -0.5774 -0.5774 -0.5774
vn -0.3266 -0.6683 -0.6683
vn -0.9206 -0.0972 -0.3783
vn -0.9206 -0.3783 -0.0972
vn -0.7041 -0.0919 -0.7041
vn -0.8519 -0.3703 -0.3703
vn -0.6683 -0.6683 -0.3266
vn -0.0972 -0.3783 -0.9206
vn -0.3783 -0.0972 -0.9206
vn -0.3703 -0.3703 -0.8519
vn -0.6683 -0.3266 -0.6683
vn -0.0972 0.9206 -0.3783
vn -0.3783 0.9206 -0.0972
vn -0.0919 0.7041 -0.7041
vn -0.3703 0.8519 -0.3703
vn -0.7041 0.7041 -0.0919
vn -0.5774 0.5774 -0.5774
vn -0.6683 0.6683 -0.3266
vn -0.3783 0.0972 -0.9206
vn -0.0972 0.3783 -0.9206
vn -0.7041 0.0919 -0.7041
vn -0.3703 0.3703 -0.8519
vn -0.3266 0.6683 -0.6683
vn -0.9206 0.3783 -0.0972
vn -0.9206 0.0972 -0.3783
vn -0.9905 0.0970 -0.0970
vn -0.8519 0.3703 -0.3703
vn -0.6683 0.3266 -0.6683
vn 0.3783 -0.9206 0.0972
vn 0.0972 -0.9206 0.3783
vn 0.0970 -0.9905 0.0970
vn 0.7041 -0.7041 0.0919
vn 0.3703 -0.8519 0.3703
vn 0.0919 -0.7041 0.7041
vn 0.5774 -0.5774 0.5774
vn 0.3266 -0.6683 0.6683
vn 0.9206 -0.0972 0.3783
vn 0.9206 -0.3783 0.0972
vn 0.7041 -0.0919 0.7041
vn 0.8519 -0.3703 0.3703
vn 0.6683 -0.6683 0.3266
vn 0.0972 -0.3783 0.9206
vn 0.3783 -0.0972 0.9206
vn 0.3703 -0.3703 0.8519
vn 0.6683 -0.3266 0.6683
vn 0.0972 0.9206 0.3783
vn 0.3783 0.9206 0.0972
vn 0.0919 0.7041 0.7041
vn 0.3703 0.8519 0.3703
vn 0.7041 0.7041 0.0919
vn 0.5774 0.5774 0.5774
vn 0.6683 0.6683 0.3266
vn 0.3783 0.0972 0.9206
vn 0.0972 0.3783 0.9206
vn 0.7041 0.0919 0.7041
vn 0.3703 0.3703 0.8519
vn 0.3266 0.6683 0.6683
vn 0.9206 0.3783 0.0972
vn 0.9206 0.0972 0.3783
vn 0.9905 0.0970 0.0970
vn 0.8519 0.3703 0.3703
vn 0.6683 0.3266 0.6683
vn 0.0972 -0.9206 -0.3783
vn 0.3783 -0.9206 -0.0972
vn 0.0970 -0.9905 -0.0970
vn 0.0919 -0.7041 -0.7041
vn 0.3703 -0.8519 -0.3703
vn 0.7041 -0.7041 -0.0919
vn 0.5774 -0.5774 -0.5774
vn 0.6683 -0.6683 -0.3266
vn 0.3783 -0.0972 -0.9206
vn 0.0972 -0.3783 -0.9206
vn 0.7041 -0.0919 -0.7041
vn 0.3703 -0.3703 -0.8519
vn 0.3266 -0.6683 -0.6683
vn 0.9206 -0.3783 -0.0972
vn 0.9206 -0.0972 -0.3783
vn 0.8519 -0.3703 -0.3703
vn 0.6683 -0.3266 -0.6683
vn 0.3783 0.9206 -0.0972
vn 0.0972 0.9206 -0.3783
vn 0.7041 0.7041 -0.0919
vn 0.3703 0.8519 -0.3703
vn 0.0919 0.7041 -0.7041
vn 0.5774 0.5774 -0.5774
vn 0.3266 0.6683 -0.6683
vn 0.9206 0.0972 -0.3783
vn 0.9206 0.3783 -0.0972
vn 0.7041 0.0919 -0.7041
vn 0.8519 0.3703 -0.3703
vn 0.6683 0.6683 -0.3266
vn 0.0972 0.3783 -0.9206
vn 0.3783 0.0972 -0.9206
vn 0.0970 0.0970 -0.9905
vn 0.3703 0.3703 -0.8519
vn 0.6683 0.3266 -0.6683
vt 0.143750 0.731250
vt 0.393750 0.981250
vt 0.393750 0.018750
vt 0.143750 0.738425
vt 0.375000 0.981250
vt 0.143750 0.750000
vt 0.136575 0.731250
vt 0.136395 0.738605
vt 0.136768 0.750000
vt 0.375000 0.988232
vt 0.132925 0.750000
vt 0.382925 1.000000
vt 0.375000 0.007925
vt 0.393750 0.988425
vt 0.393750 0.000000
vt 0.393750 1.000000
vt 0.386575 0.981250
vt 0.386395 0.988605
vt 0.386768 1.000000
vt 0.386768 0.000000
vt 0.386575 0.018750
vt 0.125000 0.731250
vt 0.375000 0.018750
vt 0.393750 0.011575
vt 0.386395 0.011395
vt 0.125000 0.738232
vt 0.375000 0.011768
vt 0.606250 0.981250
vt 0.856250 0.731250
vt 0.606250 0.018750
vt 0.613425 0.981250
vt 0.856250 0.750000
vt 0.625000 0.981250
vt 0.606250 0.988425
vt 0.613605 0.988605
vt 0.625000 0.988232
vt 0.863232 0.750000
vt 0.625000 0.992075
vt 0.875000 0.742075
vt 0.617075 0.000000
vt 0.863425 0.731250
vt 0.625000 0.018750
vt 0.875000 0.731250
vt 0.856250 0.738425
vt 0.863605 0.738605
vt 0.875000 0.738232
vt 0.625000 0.011768
vt 0.606250 0.011575
vt 0.606250 1.000000
vt 0.606250 0.000000
vt 0.613425 0.018750
vt 0.613605 0.011395
vt 0.613232 1.000000
vt 0.613232 0.000000
vt 0.143750 0.518750
vt 0.393750 0.231250
vt 0.393750 0.268750
vt 0.136575 0.518750
vt 0.375000 0.231250
vt 0.125000 0.518750
vt 0.143750 0.511575
vt 0.136395 0.511395
vt 0.125000 0.511768
vt 0.375000 0.238232
vt 0.125000 0.507925
vt 0.382925 0.250000
vt 0.375000 0.257925
vt 0.393750 0.238425
vt 0.393750 0.250000
vt 0.386575 0.231250
vt 0.386395 0.238605
vt 0.386768 0.250000
vt 0.386575 0.268750
vt 0.143750 0.500000
vt 0.375000 0.268750
vt 0.393750 0.261575
vt 0.386395 0.261395
vt 0.136768 0.500000
vt 0.375000 0.261768
vt 0.856250 0.518750
vt 0.606250 0.268750
vt 0.606250 0.231250
vt 0.856250 0.511575
vt 0.625000 0.268750
vt 0.856250 0.500000
vt 0.863425 0.518750
vt 0.863605 0.511395
vt 0.863232 0.500000
vt 0.625000 0.261768
vt 0.867075 0.500000
vt 0.617075 0.250000
vt 0.625000 0.242075
vt 0.606250 0.261575
vt 0.606250 0.250000
vt 0.613425 0.268750
vt 0.613605 0.261395
vt 0.613232 0.250000
vt 0.613425 0.231250
vt 0.875000 0.518750
vt 0.625000 0.231250
vt 0.606250 0.238425
vt 0.613605 0.238605
vt 0.875000 0.511768
vt 0.625000 0.238232
vt 0.356250 0.731250
vt 0.393750 0.731250
vt 0.393750 0.768750
vt 0.363425 0.731250
vt 0.375000 0.731250
vt 0.356250 0.738425
vt 0.363605 0.738605
vt 0.375000 0.738232
vt 0.377642 0.750000
vt 0.393750 0.738425
vt 0.393750 0.750000
vt 0.386575 0.731250
vt 0.386395 0.738605
vt 0.386768 0.750000
vt 0.386575 0.768750
vt 0.356250 0.750000
vt 0.375000 0.768750
vt 0.393750 0.761575
vt 0.386395 0.761395
vt 0.363232 0.750000
vt 0.375000 0.761768
vt 0.643750 0.731250
vt 0.606250 0.768750
vt 0.606250 0.731250
vt 0.643750 0.738425
vt 0.625000 0.768750
vt 0.643750 0.750000
vt 0.636575 0.731250
vt 0.636395 0.738605
vt 0.636768 0.750000
vt 0.625000 0.761768
vt 0.625000 0.747359
vt 0.606250 0.761575
vt 0.606250 0.750000
vt 0.613425 0.768750
vt 0.613605 0.761395
vt 0.613232 0.750000
vt 0.613425 0.731250
vt 0.625000 0.731250
vt 0.606250 0.738425
vt 0.613605 0.738605
vt 0.625000 0.738232
vt 0.356250 0.518750
vt 0.393750 0.481250
vt 0.393750 0.518750
vt 0.356250 0.511575
vt 0.375000 0.481250
vt 0.356250 0.500000
vt 0.363425 0.518750
vt 0.363605 0.511395
vt 0.363232 0.500000
vt 0.375000 0.488232
vt 0.375000 0.502642
vt 0.393750 0.488425
vt 0.393750 0.500000
vt 0.386575 0.481250
vt 0.386395 0.488605
vt 0.386768 0.500000
vt 0.386575 0.518750
vt 0.375000 0.518750
vt 0.393750 0.511575
vt 0.386395 0.511395
vt 0.375000 0.511768
vt 0.643750 0.518750
vt 0.606250 0.518750
vt 0.606250 0.481250
vt 0.636575 0.518750
vt 0.625000 0.518750
vt 0.643750 0.511575
vt 0.636395 0.511395
vt 0.625000 0.511768
vt 0.622358 0.500000
vt 0.606250 0.511575
vt 0.606250 0.500000
vt 0.613425 0.518750
vt 0.613605 0.511395
vt 0.613232 0.500000
vt 0.613425 0.481250
vt 0.643750 0.500000
vt 0.625000 0.481250
vt 0.606250 0.488425
vt 0.613605 0.488605
vt 0.636768 0.500000
vt 0.625000 0.488232
s 1
usemtl マテリアル
f 97/127/1 2/2/2 79/107/3
f 135/169/4 78/106/5 117/149/6
f 58/80/7 96/126/8 134/168/9
f 22/30/10 40/56/11 3/3/12
f 59/81/13 116/148/14 41/57/15
f 4/4/16 6/7/17 1/1/18
f 5/6/19 7/8/20 4/4/16
f 7/8/20 16/22/21 6/7/17
f 7/8/20 9/11/22 19/26/23
f 10/14/24 12/17/25 2/2/2
f 11/16/26 13/18/27 10/14/24
f 13/18/27 5/5/19 12/17/25
f 13/18/27 9/12/22 8/10/28
f 15/21/29 17/24/30 3/3/12
f 16/23/21 18/25/31 15/21/29
f 18/25/31 11/15/26 17/24/30
f 18/25/31 9/13/22 14/20/32
f 23/31/33 25/34/34 20/28/35
f 24/33/36 26/35/37 23/31/33
f 26/35/37 35/49/38 25/34/34
f 26/35/37 28/38/39 38/53/40
f 29/41/41 31/44/42 21/29/43
f 30/43/44 32/45/45 29/41/41
f 32/45/45 24/32/36 31/44/42
f 32/45/45 28/39/39 27/37/46
f 34/48/47 36/51/48 22/30/10
f 35/50/38 37/52/49 34/48/47
f 37/52/49 30/42/44 36/51/48
f 37/52/49 28/40/39 33/47/50
f 42/58/51 44/61/52 39/55/53
f 43/60/54 45/62/55 42/58/51
f 45/62/55 54/74/56 44/61/52
f 45/62/55 47/65/57 57/78/58
f 48/68/59 50/70/60 40/56/11
f 49/69/61 51/71/62 48/68/59
f 51/71/62 43/59/54 50/70/60
f 51/71/62 47/66/57 46/64/63
f 53/73/64 55/76/65 41/57/15
f 54/75/56 56/77/66 53/73/64
f 56/77/66 49/69/61 55/76/65
f 56/77/66 47/67/57 52/72/67
f 61/83/68 63/86/69 58/80/7
f 62/85/70 64/87/71 61/83/68
f 64/87/71 73/99/72 63/86/69
f 64/87/71 66/90/73 76/103/74
f 67/93/75 69/95/76 59/81/13
f 68/94/77 70/96/78 67/93/75
f 70/96/78 62/84/70 69/95/76
f 70/96/78 66/91/73 65/89/79
f 72/98/80 74/101/81 60/82/82
f 73/100/72 75/102/83 72/98/80
f 75/102/83 68/94/77 74/101/81
f 75/102/83 66/92/73 71/97/84
f 80/108/85 82/110/86 77/105/87
f 81/109/88 83/111/89 80/108/85
f 83/111/89 92/120/90 82/110/86
f 83/111/89 85/113/91 95/124/92
f 86/114/93 88/116/94 78/106/5
f 87/115/95 89/117/96 86/114/93
f 89/117/96 81/109/88 88/116/94
f 89/117/96 85/113/91 84/112/97
f 91/119/98 93/122/99 79/107/3
f 92/121/90 94/123/100 91/119/98
f 94/123/100 87/115/95 93/122/99
f 94/123/100 85/113/91 90/118/101
f 99/129/102 101/132/103 96/126/8
f 100/131/104 102/133/105 99/129/102
f 102/133/105 111/143/106 101/132/103
f 102/133/105 104/136/107 114/146/108
f 105/137/109 107/139/110 97/127/1
f 106/138/111 108/140/112 105/137/109
f 108/140/112 100/130/104 107/139/110
f 108/140/112 104/136/107 103/135/113
f 110/142/114 112/144/115 98/128/116
f 111/143/106 113/145/117 110/142/114
f 113/145/117 106/138/111 112/144/115
f 113/145/117 104/136/107 109/141/118
f 118/150/119 120/153/120 115/147/121
f 119/152/122 121/154/123 118/150/119
f 121/154/123 130/164/124 120/153/120
f 121/154/123 123/157/125 133/167/126
f 124/158/127 126/160/128 116/148/14
f 125/159/129 127/161/130 124/158/127
f 127/161/130 119/151/122 126/160/128
f 127/161/130 123/157/125 122/156/131
f 129/163/132 131/165/133 117/149/6
f 130/164/124 132/166/134 129/163/132
f 132/166/134 125/159/129 131/165/133
f 132/166/134 123/157/125 128/162/135
f 137/171/136 139/173/137 134/168/9
f 138/172/138 140/174/139 137/171/136
f 140/174/139 149/183/140 139/173/137
f 140/174/139 142/176/141 152/187/142
f 143/177/143 145/179/144 135/169/4
f 144/178/145 146/180/146 143/177/143
f 146/180/146 138/172/138 145/179/144
f 146/180/146 142/176/141 141/175/147
f 148/182/148 150/185/149 136/170/150
f 149/184/140 151/186/151 148/182/148
f 151/186/151 144/178/145 150/185/149
f 151/186/151 142/176/141 147/181/152
f 1/1/18 42/58/51 39/55/53
f 6/7/17 43/60/54 42/58/51
f 16/23/21 50/70/60 43/59/54
f 15/21/29 40/56/11 50/70/60
f 20/28/35 10/14/24 2/2/2
f 25/34/34 11/16/26 10/14/24
f 35/50/38 17/24/30 11/15/26
f 34/48/47 3/3/12 17/24/30
f 58/80/7 29/41/41 21/29/43
f 63/86/69 30/43/44 29/41/41
f 73/100/72 36/51/48 30/42/44
f 72/98/80 22/30/10 36/51/48
f 41/57/15 67/93/75 59/81/13
f 55/76/65 68/94/77 67/93/75
f 49/69/61 74/101/81 68/94/77
f 48/68/59 60/82/82 74/101/81
f 39/55/53 118/150/119 115/147/121
f 44/61/52 119/152/122 118/150/119
f 54/75/56 126/160/128 119/151/122
f 53/73/64 116/148/14 126/160/128
f 134/168/9 61/83/68 58/80/7
f 139/173/137 62/85/70 61/83/68
f 149/184/140 69/95/76 62/84/70
f 148/182/148 59/81/13 69/95/76
f 117/149/6 143/177/143 135/169/4
f 131/165/133 144/178/145 143/177/143
f 125/159/129 150/185/149 144/178/145
f 124/158/127 136/170/150 150/185/149
f 115/147/121 80/108/85 77/105/87
f 120/153/120 81/109/88 80/108/85
f 130/164/124 88/116/94 81/109/88
f 129/163/132 78/106/5 88/116/94
f 96/126/8 137/171/136 134/168/9
f 101/132/103 138/172/138 137/171/136
f 111/143/106 145/179/144 138/172/138
f 110/142/114 135/169/4 145/179/144
f 79/107/3 105/137/109 97/127/1
f 93/122/99 106/138/111 105/137/109
f 87/115/95 112/144/115 106/138/111
f 86/114/93 98/128/116 112/144/115
f 77/105/87 4/4/16 1/1/18
f 82/110/86 5/6/19 4/4/16
f 92/121/90 12/17/25 5/5/19
f 91/119/98 2/2/2 12/17/25
f 21/29/43 99/129/102 96/126/8
f 31/44/42 100/131/104 99/129/102
f 24/33/36 107/139/110 100/130/104
f 23/31/33 97/127/1 107/139/110
f 115/147/121 1/1/18 39/55/53
f 97/127/1 20/28/35 2/2/2
f 135/169/4 98/128/116 78/106/5
f 58/80/7 21/29/43 96/126/8
f 22/30/10 60/82/82 40/56/11
f 59/81/13 136/170/150 116/148/14
f 4/4/16 7/8/20 6/7/17
f 5/6/19 8/9/28 7/8/20
f 7/8/20 19/26/23 16/22/21
f 7/8/20 8/9/28 9/11/22
f 10/14/24 13/18/27 12/17/25
f 11/16/26 14/19/32 13/18/27
f 13/18/27 8/10/28 5/5/19
f 13/18/27 14/19/32 9/12/22
f 15/21/29 18/25/31 17/24/30
f 16/23/21 19/27/23 18/25/31
f 18/25/31 14/20/32 11/15/26
f 18/25/31 19/27/23 9/13/22
f 23/31/33 26/35/37 25/34/34
f 24/33/36 27/36/46 26/35/37
f 26/35/37 38/53/40 35/49/38
f 26/35/37 27/36/46 28/38/39
f 29/41/41 32/45/45 31/44/42
f 30/43/44 33/46/50 32/45/45
f 32/45/45 27/37/46 24/32/36
f 32/45/45 33/46/50 28/39/39
f 34/48/47 37/52/49 36/51/48
f 35/50/38 38/54/40 37/52/49
f 37/52/49 33/47/50 30/42/44
f 37/52/49 38/54/40 28/40/39
f 42/58/51 45/62/55 44/61/52
f 43/60/54 46/63/63 45/62/55
f 45/62/55 57/78/58 54/74/56
f 45/62/55 46/63/63 47/65/57
f 48/68/59 51/71/62 50/70/60
f 49/69/61 52/72/67 51/71/62
f 51/71/62 46/64/63 43/59/54
f 51/71/62 52/72/67 47/66/57
f 53/73/64 56/77/66 55/76/65
f 54/75/56 57/79/58 56/77/66
f 56/77/66 52/72/67 49/69/61
f 56/77/66 57/79/58 47/67/57
f 61/83/68 64/87/71 63/86/69
f 62/85/70 65/88/79 64/87/71
f 64/87/71 76/103/74 73/99/72
f 64/87/71 65/88/79 66/90/73
f 67/93/75 70/96/78 69/95/76
f 68/94/77 71/97/84 70/96/78
f 70/96/78 65/89/79 62/84/70
f 70/96/78 71/97/84 66/91/73
f 72/98/80 75/102/83 74/101/81
f 73/100/72 76/104/74 75/102/83
f 75/102/83 71/97/84 68/94/77
f 75/102/83 76/104/74 66/92/73
f 80/108/85 83/111/89 82/110/86
f 81/109/88 84/112/97 83/111/89
f 83/111/89 95/124/92 92/120/90
f 83/111/89 84/112/97 85/113/91
f 86/114/93 89/117/96 88/116/94
f 87/115/95 90/118/101 89/117/96
f 89/117/96 84/112/97 81/109/88
f 89/117/96 90/118/101 85/113/91
f 91/119/98 94/123/100 93/122/99
f 92/121/90 95/125/92 94/123/100
f 94/123/100 90/118/101 87/115/95
f 94/123/100 95/125/92 85/113/91
f 99/129/102 102/133/105 101/132/103
f 100/131/104 103/134/113 102/133/105
f 102/133/105 114/146/108 111/143/106
f 102/133/105 103/134/113 104/136/107
f 105/137/109 108/140/112 107/139/110
f 106/138/111 109/141/118 108/140/112
f 108/140/112 103/135/113 100/130/104
f 108/140/112 109/141/118 104/136/107
f 110/142/114 113/145/117 112/144/115
f 111/143/106 114/146/108 113/145/117
f 113/145/117 109/141/118 106/138/111
f 113/145/117 114/146/108 104/136/107
f 118/150/119 121/154/123 120/153/120
f 119/152/122 122/155/131 121/154/123
f 121/154/123 133/167/126 130/164/124
f 121/154/123 122/155/131 123/157/125
f 124/158/127 127/161/130 126/160/128
f 125/159/129 128/162/135 127/161/130
f 127/161/130 122/156/131 119/151/122
f 127/161/130 128/162/135 123/157/125
f 129/163/132 132/166/134 131/165/133
f 130/164/124 133/167/126 132/166/134
f 132/166/134 128/162/135 125/159/129
f 132/166/134 133/167/126 123/157/125
f 137/171/136 140/174/139 139/173/137
f 138/172/138 141/175/147 140/174/139
f 140/174/139 152/187/142 149/183/140
f 140/174/139 141/175/147 142/176/141
f 143/177/143 146/180/146 145/179/144
f 144/178/145 147/181/152 146/180/146
f 146/180/146 141/175/147 138/172/138
f 146/180/146 147/181/152 142/176/141
f 148/182/148 151/186/151 150/185/149
f 149/184/140 152/188/142 151/186/151
f 151/186/151 147/181/152 144/178/145
f 151/186/151 152/188/142 142/176/141
f 1/1/18 6/7/17 42/58/51
f 6/7/17 16/22/21 43/60/54
f 16/23/21 15/21/29 50/70/60
f 15/21/29 3/3/12 40/56/11
f 20/28/35 25/34/34 10/14/24
f 25/34/34 35/49/38 11/16/26
f 35/50/38 34/48/47 17/24/30
f 34/48/47 22/30/10 3/3/12
f 58/80/7 63/86/69 29/41/41
f 63/86/69 73/99/72 30/43/44
f 73/100/72 72/98/80 36/51/48
f 72/98/80 60/82/82 22/30/10
f 41/57/15 55/76/65 67/93/75
f 55/76/65 49/69/61 68/94/77
f 49/69/61 48/68/59 74/101/81
f 48/68/59 40/56/11 60/82/82
f 39/55/53 44/61/52 118/150/119
f 44/61/52 54/74/56 119/152/122
f 54/75/56 53/73/64 126/160/128
f 53/73/64 41/57/15 116/148/14
f 134/168/9 139/173/137 61/83/68
f 139/173/137 149/183/140 62/85/70
f 149/184/140 148/182/148 69/95/76
f 148/182/148 136/170/150 59/81/13
f 117/149/6 131/165/133 143/177/143
f 131/165/133 125/159/129 144/178/145
f 125/159/129 124/158/127 150/185/149
f 124/158/127 116/148/14 136/170/150
f 115/147/121 120/153/120 80/108/85
f 120/153/120 130/164/124 81/109/88
f 130/164/124 129/163/132 88/116/94
f 129/163/132 117/149/6 78/106/5
f 96/126/8 101/132/103 137/171/136
f 101/132/103 111/143/106 138/172/138
f 111/143/106 110/142/114 145/179/144
f 110/142/114 98/128/116 135/169/4
f 79/107/3 93/122/99 105/137/109
f 93/122/99 87/115/95 106/138/111
f 87/115/95 86/114/93 112/144/115
f 86/114/93 78/106/5 98/128/116
f 77/105/87 82/110/86 4/4/16
f 82/110/86 92/120/90 5/6/19
f 92/121/90 91/119/98 12/17/25
f 91/119/98 79/107/3 2/2/2
f 21/29/43 31/44/42 99/129/102
f 31/44/42 24/32/36 100/131/104
f 24/33/36 23/31/33 107/139/110
f 23/31/33 20/28/35 97/127/1
f 115/147/121 77/105/87 1/1/18
