# Blender 3.5.0
# www.blender.org
mtllib Ground.mtl
o Ground
v -0.850000 -1.000000 0.850000
v -0.850000 -0.850000 1.000000
v -1.000000 -0.850000 0.850000
v -0.850000 -0.988582 0.907403
v -0.850000 -0.956066 0.956066
v -0.907403 -0.988582 0.850000
v -0.908841 -0.974802 0.908841
v -0.905856 -0.948438 0.948438
v -0.936603 -0.936603 0.936603
v -0.907403 -0.850000 0.988582
v -0.956066 -0.850000 0.956066
v -0.850000 -0.907403 0.988582
v -0.908841 -0.908841 0.974802
v -0.948438 -0.905856 0.948438
v -0.988582 -0.907403 0.850000
v -0.956066 -0.956066 0.850000
v -0.988582 -0.850000 0.907403
v -0.974802 -0.908841 0.908841
v -0.948438 -0.948438 0.905856
v -0.850000 0.850000 1.000000
v -0.850000 1.000000 0.850000
v -1.000000 0.850000 0.850000
v -0.850000 0.907403 0.988582
v -0.850000 0.956066 0.956066
v -0.907403 0.850000 0.988582
v -0.908841 0.908841 0.974802
v -0.905856 0.948438 0.948438
v -0.936603 0.936603 0.936603
v -0.907403 0.988582 0.850000
v -0.956066 0.956066 0.850000
v -0.850000 0.988582 0.907403
v -0.908841 0.974802 0.908841
v -0.948438 0.948438 0.905856
v -0.988582 0.850000 0.907403
v -0.956066 0.850000 0.956066
v -0.988582 0.907403 0.850000
v -0.974802 0.908841 0.908841
v -0.948438 0.905856 0.948438
v -0.850000 -1.000000 -0.850000
v -1.000000 -0.850000 -0.850000
v -0.850000 -0.850000 -1.000000
v -0.907403 -0.988582 -0.850000
v -0.956066 -0.956066 -0.850000
v -0.850000 -0.988582 -0.907403
v -0.908841 -0.974802 -0.908841
v -0.948438 -0.948438 -0.905856
v -0.936603 -0.936603 -0.936603
v -0.988582 -0.850000 -0.907403
v -0.956066 -0.850000 -0.956066
v -0.988582 -0.907403 -0.850000
v -0.974802 -0.908841 -0.908841
v -0.948438 -0.905856 -0.948438
v -0.850000 -0.907403 -0.988582
v -0.850000 -0.956066 -0.956066
v -0.907403 -0.850000 -0.988582
v -0.908841 -0.908841 -0.974802
v -0.905856 -0.948438 -0.948438
v -0.850000 1.000000 -0.850000
v -0.850000 0.850000 -1.000000
v -1.000000 0.850000 -0.850000
v -0.850000 0.988582 -0.907403
v -0.850000 0.956066 -0.956066
v -0.907403 0.988582 -0.850000
v -0.908841 0.974802 -0.908841
v -0.905856 0.948438 -0.948438
v -0.936603 0.936603 -0.936603
v -0.907403 0.850000 -0.988582
v -0.956066 0.850000 -0.956066
v -0.850000 0.907403 -0.988582
v -0.908841 0.908841 -0.974802
v -0.948438 0.905856 -0.948438
v -0.988582 0.907403 -0.850000
v -0.956066 0.956066 -0.850000
v -0.988582 0.850000 -0.907403
v -0.974802 0.908841 -0.908841
v -0.948438 0.948438 -0.905856
v 0.850000 -1.000000 0.850000
v 1.000000 -0.850000 0.850000
v 0.850000 -0.850000 1.000000
v 0.907403 -0.988582 0.850000
v 0.956066 -0.956066 0.850000
v 0.850000 -0.988582 0.907403
v 0.908841 -0.974802 0.908841
v 0.948438 -0.948438 0.905856
v 0.936603 -0.936603 0.936603
v 0.988582 -0.850000 0.907403
v 0.956066 -0.850000 0.956066
v 0.988582 -0.907403 0.850000
v 0.974802 -0.908841 0.908841
v 0.948438 -0.905856 0.948438
v 0.850000 -0.907403 0.988582
v 0.850000 -0.956066 0.956066
v 0.907403 -0.850000 0.988582
v 0.908841 -0.908841 0.974802
v 0.905856 -0.948438 0.948438
v 0.850000 1.000000 0.850000
v 0.850000 0.850000 1.000000
v 1.000000 0.850000 0.850000
v 0.850000 0.988582 0.907403
v 0.850000 0.956066 0.956066
v 0.907403 0.988582 0.850000
v 0.908841 0.974802 0.908841
v 0.905856 0.948438 0.948438
v 0.936603 0.936603 0.936603
v 0.907403 0.850000 0.988582
v 0.956066 0.850000 0.956066
v 0.850000 0.907403 0.988582
v 0.908841 0.908841 0.974802
v 0.948438 0.905856 0.948438
v 0.988582 0.907403 0.850000
v 0.956066 0.956066 0.850000
v 0.988582 0.850000 0.907403
v 0.974802 0.908841 0.908841
v 0.948438 0.948438 0.905856
v 0.850000 -1.000000 -0.850000
v 0.850000 -0.850000 -1.000000
v 1.000000 -0.850000 -0.850000
v 0.850000 -0.988582 -0.907403
v 0.850000 -0.956066 -0.956066
v 0.907403 -0.988582 -0.850000
v 0.908841 -0.974802 -0.908841
v 0.905856 -0.948438 -0.948438
v 0.936603 -0.936603 -0.936603
v 0.907403 -0.850000 -0.988582
v 0.956066 -0.850000 -0.956066
v 0.850000 -0.907403 -0.988582
v 0.908841 -0.908841 -0.974802
v 0.948438 -0.905856 -0.948438
v 0.988582 -0.907403 -0.850000
v 0.956066 -0.956066 -0.850000
v 0.988582 -0.850000 -0.907403
v 0.974802 -0.908841 -0.908841
v 0.948438 -0.948438 -0.905856
v 0.850000 1.000000 -0.850000
v 1.000000 0.850000 -0.850000
v 0.850000 0.850000 -1.000000
v 0.907403 0.988582 -0.850000
v 0.956066 0.956066 -0.850000
v 0.850000 0.988582 -0.907403
v 0.908841 0.974802 -0.908841
v 0.948438 0.948438 -0.905856
v 0.936603 0.936603 -0.936603
v 0.988582 0.850000 -0.907403
v 0.956066 0.850000 -0.956066
v 0.988582 0.907403 -0.850000
v 0.974802 0.908841 -0.908841
v 0.948438 0.905856 -0.948438
v 0.850000 0.907403 -0.988582
v 0.850000 0.956066 -0.956066
v 0.907403 0.850000 -0.988582
v 0.908841 0.908841 -0.974802
v 0.905856 0.948438 -0.948438
vn -0.0000 -0.0000 1.0000
vn 1.0000 -0.0000 -0.0000
vn -0.0000 1.0000 -0.0000
vn -1.0000 -0.0000 -0.0000
vn -0.0000 -0.0000 -1.0000
vn -0.1915 -0.9626 0.1915
vn -0.1782 -0.8182 0.5467
vn -0.5467 -0.8182 0.1782
vn -0.5127 -0.7164 0.4731
vn -0.1915 -0.1915 0.9626
vn -0.5467 -0.1782 0.8182
vn -0.1782 -0.5467 0.8182
vn -0.4731 -0.5127 0.7164
vn -0.9626 -0.1915 0.1915
vn -0.8182 -0.5467 0.1782
vn -0.8182 -0.1782 0.5467
vn -0.7164 -0.4731 0.5127
vn -0.1915 0.1915 0.9626
vn -0.1782 0.5467 0.8182
vn -0.5467 0.1782 0.8182
vn -0.5127 0.4731 0.7164
vn -0.1915 0.9626 0.1915
vn -0.5467 0.8182 0.1782
vn -0.1782 0.8182 0.5467
vn -0.4731 0.7164 0.5127
vn -0.9626 0.1915 0.1915
vn -0.8182 0.1782 0.5467
vn -0.8182 0.5467 0.1782
vn -0.7164 0.5127 0.4731
vn -0.1915 -0.9626 -0.1915
vn -0.5467 -0.8182 -0.1782
vn -0.1782 -0.8182 -0.5467
vn -0.4731 -0.7164 -0.5127
vn -0.9626 -0.1915 -0.1915
vn -0.8182 -0.1782 -0.5467
vn -0.8182 -0.5467 -0.1782
vn -0.7164 -0.5127 -0.4731
vn -0.1915 -0.1915 -0.9626
vn -0.1782 -0.5467 -0.8182
vn -0.5467 -0.1782 -0.8182
vn -0.5127 -0.4731 -0.7164
vn -0.1915 0.9626 -0.1915
vn -0.1782 0.8182 -0.5467
vn -0.5467 0.8182 -0.1782
vn -0.5127 0.7164 -0.4731
vn -0.1915 0.1915 -0.9626
vn -0.5467 0.1782 -0.8182
vn -0.1782 0.5467 -0.8182
vn -0.4731 0.5127 -0.7164
vn -0.9626 0.1915 -0.1915
vn -0.8182 0.5467 -0.1782
vn -0.8182 0.1782 -0.5467
vn -0.7164 0.4731 -0.5127
vn 0.1915 -0.9626 0.1915
vn 0.5467 -0.8182 0.1782
vn 0.1782 -0.8182 0.5467
vn 0.4731 -0.7164 0.5127
vn 0.9626 -0.1915 0.1915
vn 0.8182 -0.1782 0.5467
vn 0.8182 -0.5467 0.1782
vn 0.7164 -0.5127 0.4731
vn 0.1915 -0.1915 0.9626
vn 0.1782 -0.5467 0.8182
vn 0.5467 -0.1782 0.8182
vn 0.5127 -0.4731 0.7164
vn 0.1915 0.9626 0.1915
vn 0.1782 0.8182 0.5467
vn 0.5467 0.8182 0.1782
vn 0.5127 0.7164 0.4731
vn 0.1915 0.1915 0.9626
vn 0.5467 0.1782 0.8182
vn 0.1782 0.5467 0.8182
vn 0.4731 0.5127 0.7164
vn 0.9626 0.1915 0.1915
vn 0.8182 0.5467 0.1782
vn 0.8182 0.1782 0.5467
vn 0.7164 0.4731 0.5127
vn 0.1915 -0.9626 -0.1915
vn 0.1782 -0.8182 -0.5467
vn 0.5467 -0.8182 -0.1782
vn 0.5127 -0.7164 -0.4731
vn 0.1915 -0.1915 -0.9626
vn 0.5467 -0.1782 -0.8182
vn 0.1782 -0.5467 -0.8182
vn 0.4731 -0.5127 -0.7164
vn 0.9626 -0.1915 -0.1915
vn 0.8182 -0.5467 -0.1782
vn 0.8182 -0.1782 -0.5467
vn 0.7164 -0.4731 -0.5127
vn 0.1915 0.9626 -0.1915
vn 0.5467 0.8182 -0.1782
vn 0.1782 0.8182 -0.5467
vn 0.4731 0.7164 -0.5127
vn 0.9626 0.1915 -0.1915
vn 0.8182 0.1782 -0.5467
vn 0.8182 0.5467 -0.1782
vn 0.7164 0.5127 -0.4731
vn 0.1915 0.1915 -0.9626
vn 0.1782 0.5467 -0.8182
vn 0.5467 0.1782 -0.8182
vn 0.5127 0.4731 -0.7164
vn -0.1951 -0.9808 -0.0000
vn -0.5556 -0.8315 -0.0000
vn -0.8315 -0.5556 -0.0000
vn -0.9808 -0.1951 -0.0000
vn -0.1951 -0.0000 0.9808
vn -0.5556 -0.0000 0.8315
vn -0.8315 -0.0000 0.5556
vn -0.9808 -0.0000 0.1951
vn -0.1951 0.9808 -0.0000
vn -0.5556 0.8315 -0.0000
vn -0.8315 0.5556 -0.0000
vn -0.9808 0.1951 -0.0000
vn -0.1951 -0.0000 -0.9808
vn -0.5556 -0.0000 -0.8315
vn -0.8315 -0.0000 -0.5556
vn -0.9808 -0.0000 -0.1951
vn -0.0000 -0.9808 -0.1951
vn -0.0000 -0.8315 -0.5556
vn -0.0000 -0.5556 -0.8315
vn -0.0000 -0.1951 -0.9808
vn -0.0000 0.9808 -0.1951
vn -0.0000 0.8315 -0.5556
vn -0.0000 0.5556 -0.8315
vn -0.0000 0.1951 -0.9808
vn 0.9808 -0.0000 -0.1951
vn 0.8315 -0.0000 -0.5556
vn 0.5556 -0.0000 -0.8315
vn 0.1951 -0.0000 -0.9808
vn 0.1951 -0.9808 -0.0000
vn 0.5556 -0.8315 -0.0000
vn 0.8315 -0.5556 -0.0000
vn 0.9808 -0.1951 -0.0000
vn 0.1951 0.9808 -0.0000
vn 0.5556 0.8315 -0.0000
vn 0.8315 0.5556 -0.0000
vn 0.9808 0.1951 -0.0000
vn 0.1951 -0.0000 0.9808
vn 0.5556 -0.0000 0.8315
vn 0.8315 -0.0000 0.5556
vn 0.9808 -0.0000 0.1951
vn -0.0000 -0.9808 0.1951
vn -0.0000 -0.8315 0.5556
vn -0.0000 -0.5556 0.8315
vn -0.0000 -0.1951 0.9808
vn -0.0000 0.9808 0.1951
vn -0.0000 0.8315 0.5556
vn -0.0000 0.5556 0.8315
vn -0.0000 0.1951 0.9808
vn -0.0000 -1.0000 -0.0000
vn -0.2175 -0.9515 0.2175
vn -0.1865 -0.8112 0.5542
vn -0.5542 -0.8112 0.1865
vn -0.4731 -0.7164 0.5127
vn -0.2175 -0.2175 0.9515
vn -0.5542 -0.1865 0.8112
vn -0.1865 -0.5542 0.8112
vn -0.5127 -0.4731 0.7164
vn -0.9515 -0.2175 0.2175
vn -0.8112 -0.5542 0.1865
vn -0.8112 -0.1865 0.5542
vn -0.7164 -0.5127 0.4731
vn -0.2175 0.2175 0.9515
vn -0.1865 0.5542 0.8112
vn -0.5542 0.1865 0.8112
vn -0.4731 0.5127 0.7164
vn -0.2175 0.9515 0.2175
vn -0.5542 0.8112 0.1865
vn -0.1865 0.8112 0.5542
vn -0.5127 0.7164 0.4731
vn -0.9515 0.2175 0.2175
vn -0.8112 0.1865 0.5542
vn -0.8112 0.5542 0.1865
vn -0.7164 0.4731 0.5127
vn -0.2175 -0.9515 -0.2175
vn -0.5542 -0.8112 -0.1865
vn -0.1865 -0.8112 -0.5542
vn -0.5127 -0.7164 -0.4731
vn -0.9515 -0.2175 -0.2175
vn -0.8112 -0.1865 -0.5542
vn -0.8112 -0.5542 -0.1865
vn -0.7164 -0.4731 -0.5127
vn -0.2175 -0.2175 -0.9515
vn -0.1865 -0.5542 -0.8112
vn -0.5542 -0.1865 -0.8112
vn -0.4731 -0.5127 -0.7164
vn -0.2175 0.9515 -0.2175
vn -0.1865 0.8112 -0.5542
vn -0.5542 0.8112 -0.1865
vn -0.4731 0.7164 -0.5127
vn -0.2175 0.2175 -0.9515
vn -0.5542 0.1865 -0.8112
vn -0.1865 0.5542 -0.8112
vn -0.5127 0.4731 -0.7164
vn -0.9515 0.2175 -0.2175
vn -0.8112 0.5542 -0.1865
vn -0.8112 0.1865 -0.5542
vn -0.7164 0.5127 -0.4731
vn 0.2175 -0.9515 0.2175
vn 0.5542 -0.8112 0.1865
vn 0.1865 -0.8112 0.5542
vn 0.5127 -0.7164 0.4731
vn 0.9515 -0.2175 0.2175
vn 0.8112 -0.1865 0.5542
vn 0.8112 -0.5542 0.1865
vn 0.7164 -0.4731 0.5127
vn 0.2175 -0.2175 0.9515
vn 0.1865 -0.5542 0.8112
vn 0.5542 -0.1865 0.8112
vn 0.4731 -0.5127 0.7164
vn 0.2175 0.9515 0.2175
vn 0.1865 0.8112 0.5542
vn 0.5542 0.8112 0.1865
vn 0.4731 0.7164 0.5127
vn 0.2175 0.2175 0.9515
vn 0.5542 0.1865 0.8112
vn 0.1865 0.5542 0.8112
vn 0.5127 0.4731 0.7164
vn 0.9515 0.2175 0.2175
vn 0.8112 0.5542 0.1865
vn 0.8112 0.1865 0.5542
vn 0.7164 0.5127 0.4731
vn 0.2175 -0.9515 -0.2175
vn 0.1865 -0.8112 -0.5542
vn 0.5542 -0.8112 -0.1865
vn 0.4731 -0.7164 -0.5127
vn 0.2175 -0.2175 -0.9515
vn 0.5542 -0.1865 -0.8112
vn 0.1865 -0.5542 -0.8112
vn 0.5127 -0.4731 -0.7164
vn 0.9515 -0.2175 -0.2175
vn 0.8112 -0.5542 -0.1865
vn 0.8112 -0.1865 -0.5542
vn 0.7164 -0.5127 -0.4731
vn 0.2175 0.9515 -0.2175
vn 0.5542 0.8112 -0.1865
vn 0.1865 0.8112 -0.5542
vn 0.5127 0.7164 -0.4731
vn 0.9515 0.2175 -0.2175
vn 0.8112 0.1865 -0.5542
vn 0.8112 0.5542 -0.1865
vn 0.7164 0.4731 -0.5127
vn 0.2175 0.2175 -0.9515
vn 0.1865 0.5542 -0.8112
vn 0.5542 0.1865 -0.8112
vn 0.4731 0.5127 -0.7164
vt 0.143750 0.731250
vt 0.393750 0.981250
vt 0.393750 0.018750
vt 0.143750 0.738425
vt 0.375000 0.981250
vt 0.143750 0.750000
vt 0.136575 0.731250
vt 0.136395 0.738605
vt 0.136768 0.750000
vt 0.375000 0.988232
vt 0.132925 0.750000
vt 0.382925 1.000000
vt 0.375000 0.007925
vt 0.393750 0.988425
vt 0.393750 0.000000
vt 0.393750 1.000000
vt 0.386575 0.981250
vt 0.386395 0.988605
vt 0.386768 1.000000
vt 0.386768 0.000000
vt 0.386575 0.018750
vt 0.125000 0.731250
vt 0.375000 0.018750
vt 0.393750 0.011575
vt 0.386395 0.011395
vt 0.125000 0.738232
vt 0.375000 0.011768
vt 0.606250 0.981250
vt 0.856250 0.731250
vt 0.606250 0.018750
vt 0.613425 0.981250
vt 0.856250 0.750000
vt 0.625000 0.981250
vt 0.606250 0.988425
vt 0.613605 0.988605
vt 0.625000 0.988232
vt 0.863232 0.750000
vt 0.625000 0.992075
vt 0.875000 0.742075
vt 0.617075 0.000000
vt 0.863425 0.731250
vt 0.625000 0.018750
vt 0.875000 0.731250
vt 0.856250 0.738425
vt 0.863605 0.738605
vt 0.875000 0.738232
vt 0.625000 0.011768
vt 0.606250 0.011575
vt 0.606250 1.000000
vt 0.606250 0.000000
vt 0.613425 0.018750
vt 0.613605 0.011395
vt 0.613232 1.000000
vt 0.613232 0.000000
vt 0.143750 0.518750
vt 0.393750 0.231250
vt 0.393750 0.268750
vt 0.136575 0.518750
vt 0.375000 0.231250
vt 0.125000 0.518750
vt 0.143750 0.511575
vt 0.136395 0.511395
vt 0.125000 0.511768
vt 0.375000 0.238232
vt 0.125000 0.507925
vt 0.382925 0.250000
vt 0.375000 0.257925
vt 0.393750 0.238425
vt 0.393750 0.250000
vt 0.386575 0.231250
vt 0.386395 0.238605
vt 0.386768 0.250000
vt 0.386575 0.268750
vt 0.143750 0.500000
vt 0.375000 0.268750
vt 0.393750 0.261575
vt 0.386395 0.261395
vt 0.136768 0.500000
vt 0.375000 0.261768
vt 0.856250 0.518750
vt 0.606250 0.268750
vt 0.606250 0.231250
vt 0.856250 0.511575
vt 0.625000 0.268750
vt 0.856250 0.500000
vt 0.863425 0.518750
vt 0.863605 0.511395
vt 0.863232 0.500000
vt 0.625000 0.261768
vt 0.867075 0.500000
vt 0.617075 0.250000
vt 0.625000 0.242075
vt 0.606250 0.261575
vt 0.606250 0.250000
vt 0.613425 0.268750
vt 0.613605 0.261395
vt 0.613232 0.250000
vt 0.613425 0.231250
vt 0.875000 0.518750
vt 0.625000 0.231250
vt 0.606250 0.238425
vt 0.613605 0.238605
vt 0.875000 0.511768
vt 0.625000 0.238232
vt 0.356250 0.731250
vt 0.393750 0.731250
vt 0.393750 0.768750
vt 0.363425 0.731250
vt 0.375000 0.731250
vt 0.356250 0.738425
vt 0.363605 0.738605
vt 0.375000 0.738232
vt 0.377642 0.750000
vt 0.393750 0.738425
vt 0.393750 0.750000
vt 0.386575 0.731250
vt 0.386395 0.738605
vt 0.386768 0.750000
vt 0.386575 0.768750
vt 0.356250 0.750000
vt 0.375000 0.768750
vt 0.393750 0.761575
vt 0.386395 0.761395
vt 0.363232 0.750000
vt 0.375000 0.761768
vt 0.643750 0.731250
vt 0.606250 0.768750
vt 0.606250 0.731250
vt 0.643750 0.738425
vt 0.625000 0.768750
vt 0.643750 0.750000
vt 0.636575 0.731250
vt 0.636395 0.738605
vt 0.636768 0.750000
vt 0.625000 0.761768
vt 0.625000 0.747359
vt 0.606250 0.761575
vt 0.606250 0.750000
vt 0.613425 0.768750
vt 0.613605 0.761395
vt 0.613232 0.750000
vt 0.613425 0.731250
vt 0.625000 0.731250
vt 0.606250 0.738425
vt 0.613605 0.738605
vt 0.625000 0.738232
vt 0.356250 0.518750
vt 0.393750 0.481250
vt 0.393750 0.518750
vt 0.356250 0.511575
vt 0.375000 0.481250
vt 0.356250 0.500000
vt 0.363425 0.518750
vt 0.363605 0.511395
vt 0.363232 0.500000
vt 0.375000 0.488232
vt 0.375000 0.502642
vt 0.393750 0.488425
vt 0.393750 0.500000
vt 0.386575 0.481250
vt 0.386395 0.488605
vt 0.386768 0.500000
vt 0.386575 0.518750
vt 0.375000 0.518750
vt 0.393750 0.511575
vt 0.386395 0.511395
vt 0.375000 0.511768
vt 0.643750 0.518750
vt 0.606250 0.518750
vt 0.606250 0.481250
vt 0.636575 0.518750
vt 0.625000 0.518750
vt 0.643750 0.511575
vt 0.636395 0.511395
vt 0.625000 0.511768
vt 0.622358 0.500000
vt 0.606250 0.511575
vt 0.606250 0.500000
vt 0.613425 0.518750
vt 0.613605 0.511395
vt 0.613232 0.500000
vt 0.613425 0.481250
vt 0.643750 0.500000
vt 0.625000 0.481250
vt 0.606250 0.488425
vt 0.613605 0.488605
vt 0.636768 0.500000
vt 0.625000 0.488232
s 0
usemtl マテリアル
f 97/127/1 2/2/1 79/107/1
f 135/169/2 78/106/2 117/149/2
f 58/80/3 96/126/3 134/168/3
f 22/30/4 40/56/4 3/3/4
f 59/81/5 116/148/5 41/57/5
f 4/4/6 6/7/6 1/1/6
f 5/6/7 7/8/7 4/4/7
f 7/8/8 16/22/8 6/7/8
f 7/8/9 9/11/9 19/26/9
f 10/14/10 12/17/10 2/2/10
f 11/16/11 13/18/11 10/14/11
f 13/18/12 5/5/12 12/17/12
f 13/18/13 9/12/13 8/10/13
f 15/21/14 17/24/14 3/3/14
f 16/23/15 18/25/15 15/21/15
f 18/25/16 11/15/16 17/24/16
f 18/25/17 9/13/17 14/20/17
f 23/31/18 25/34/18 20/28/18
f 24/33/19 26/35/19 23/31/19
f 26/35/20 35/49/20 25/34/20
f 26/35/21 28/38/21 38/53/21
f 29/41/22 31/44/22 21/29/22
f 30/43/23 32/45/23 29/41/23
f 32/45/24 24/32/24 31/44/24
f 32/45/25 28/39/25 27/37/25
f 34/48/26 36/51/26 22/30/26
f 35/50/27 37/52/27 34/48/27
f 37/52/28 30/42/28 36/51/28
f 37/52/29 28/40/29 33/47/29
f 42/58/30 44/61/30 39/55/30
f 43/60/31 45/62/31 42/58/31
f 45/62/32 54/74/32 44/61/32
f 45/62/33 47/65/33 57/78/33
f 48/68/34 50/70/34 40/56/34
f 49/69/35 51/71/35 48/68/35
f 51/71/36 43/59/36 50/70/36
f 51/71/37 47/66/37 46/64/37
f 53/73/38 55/76/38 41/57/38
f 54/75/39 56/77/39 53/73/39
f 56/77/40 49/69/40 55/76/40
f 56/77/41 47/67/41 52/72/41
f 61/83/42 63/86/42 58/80/42
f 62/85/43 64/87/43 61/83/43
f 64/87/44 73/99/44 63/86/44
f 64/87/45 66/90/45 76/103/45
f 67/93/46 69/95/46 59/81/46
f 68/94/47 70/96/47 67/93/47
f 70/96/48 62/84/48 69/95/48
f 70/96/49 66/91/49 65/89/49
f 72/98/50 74/101/50 60/82/50
f 73/100/51 75/102/51 72/98/51
f 75/102/52 68/94/52 74/101/52
f 75/102/53 66/92/53 71/97/53
f 80/108/54 82/110/54 77/105/54
f 81/109/55 83/111/55 80/108/55
f 83/111/56 92/120/56 82/110/56
f 83/111/57 85/113/57 95/124/57
f 86/114/58 88/116/58 78/106/58
f 87/115/59 89/117/59 86/114/59
f 89/117/60 81/109/60 88/116/60
f 89/117/61 85/113/61 84/112/61
f 91/119/62 93/122/62 79/107/62
f 92/121/63 94/123/63 91/119/63
f 94/123/64 87/115/64 93/122/64
f 94/123/65 85/113/65 90/118/65
f 99/129/66 101/132/66 96/126/66
f 100/131/67 102/133/67 99/129/67
f 102/133/68 111/143/68 101/132/68
f 102/133/69 104/136/69 114/146/69
f 105/137/70 107/139/70 97/127/70
f 106/138/71 108/140/71 105/137/71
f 108/140/72 100/130/72 107/139/72
f 108/140/73 104/136/73 103/135/73
f 110/142/74 112/144/74 98/128/74
f 111/143/75 113/145/75 110/142/75
f 113/145/76 106/138/76 112/144/76
f 113/145/77 104/136/77 109/141/77
f 118/150/78 120/153/78 115/147/78
f 119/152/79 121/154/79 118/150/79
f 121/154/80 130/164/80 120/153/80
f 121/154/81 123/157/81 133/167/81
f 124/158/82 126/160/82 116/148/82
f 125/159/83 127/161/83 124/158/83
f 127/161/84 119/151/84 126/160/84
f 127/161/85 123/157/85 122/156/85
f 129/163/86 131/165/86 117/149/86
f 130/164/87 132/166/87 129/163/87
f 132/166/88 125/159/88 131/165/88
f 132/166/89 123/157/89 128/162/89
f 137/171/90 139/173/90 134/168/90
f 138/172/91 140/174/91 137/171/91
f 140/174/92 149/183/92 139/173/92
f 140/174/93 142/176/93 152/187/93
f 143/177/94 145/179/94 135/169/94
f 144/178/95 146/180/95 143/177/95
f 146/180/96 138/172/96 145/179/96
f 146/180/97 142/176/97 141/175/97
f 148/182/98 150/185/98 136/170/98
f 149/184/99 151/186/99 148/182/99
f 151/186/100 144/178/100 150/185/100
f 151/186/101 142/176/101 147/181/101
f 1/1/102 42/58/102 39/55/102
f 6/7/103 43/60/103 42/58/103
f 16/23/104 50/70/104 43/59/104
f 15/21/105 40/56/105 50/70/105
f 20/28/106 10/14/106 2/2/106
f 25/34/107 11/16/107 10/14/107
f 35/50/108 17/24/108 11/15/108
f 34/48/109 3/3/109 17/24/109
f 58/80/110 29/41/110 21/29/110
f 63/86/111 30/43/111 29/41/111
f 73/100/112 36/51/112 30/42/112
f 72/98/113 22/30/113 36/51/113
f 41/57/114 67/93/114 59/81/114
f 55/76/115 68/94/115 67/93/115
f 49/69/116 74/101/116 68/94/116
f 48/68/117 60/82/117 74/101/117
f 39/55/118 118/150/118 115/147/118
f 44/61/119 119/152/119 118/150/119
f 54/75/120 126/160/120 119/151/120
f 53/73/121 116/148/121 126/160/121
f 134/168/122 61/83/122 58/80/122
f 139/173/123 62/85/123 61/83/123
f 149/184/124 69/95/124 62/84/124
f 148/182/125 59/81/125 69/95/125
f 117/149/126 143/177/126 135/169/126
f 131/165/127 144/178/127 143/177/127
f 125/159/128 150/185/128 144/178/128
f 124/158/129 136/170/129 150/185/129
f 115/147/130 80/108/130 77/105/130
f 120/153/131 81/109/131 80/108/131
f 130/164/132 88/116/132 81/109/132
f 129/163/133 78/106/133 88/116/133
f 96/126/134 137/171/134 134/168/134
f 101/132/135 138/172/135 137/171/135
f 111/143/136 145/179/136 138/172/136
f 110/142/137 135/169/137 145/179/137
f 79/107/138 105/137/138 97/127/138
f 93/122/139 106/138/139 105/137/139
f 87/115/140 112/144/140 106/138/140
f 86/114/141 98/128/141 112/144/141
f 77/105/142 4/4/142 1/1/142
f 82/110/143 5/6/143 4/4/143
f 92/121/144 12/17/144 5/5/144
f 91/119/145 2/2/145 12/17/145
f 21/29/146 99/129/146 96/126/146
f 31/44/147 100/131/147 99/129/147
f 24/33/148 107/139/148 100/130/148
f 23/31/149 97/127/149 107/139/149
f 115/147/150 1/1/150 39/55/150
f 97/127/1 20/28/1 2/2/1
f 135/169/2 98/128/2 78/106/2
f 58/80/3 21/29/3 96/126/3
f 22/30/4 60/82/4 40/56/4
f 59/81/5 136/170/5 116/148/5
f 4/4/151 7/8/151 6/7/151
f 5/6/152 8/9/152 7/8/152
f 7/8/153 19/26/153 16/22/153
f 7/8/154 8/9/154 9/11/154
f 10/14/155 13/18/155 12/17/155
f 11/16/156 14/19/156 13/18/156
f 13/18/157 8/10/157 5/5/157
f 13/18/158 14/19/158 9/12/158
f 15/21/159 18/25/159 17/24/159
f 16/23/160 19/27/160 18/25/160
f 18/25/161 14/20/161 11/15/161
f 18/25/162 19/27/162 9/13/162
f 23/31/163 26/35/163 25/34/163
f 24/33/164 27/36/164 26/35/164
f 26/35/165 38/53/165 35/49/165
f 26/35/166 27/36/166 28/38/166
f 29/41/167 32/45/167 31/44/167
f 30/43/168 33/46/168 32/45/168
f 32/45/169 27/37/169 24/32/169
f 32/45/170 33/46/170 28/39/170
f 34/48/171 37/52/171 36/51/171
f 35/50/172 38/54/172 37/52/172
f 37/52/173 33/47/173 30/42/173
f 37/52/174 38/54/174 28/40/174
f 42/58/175 45/62/175 44/61/175
f 43/60/176 46/63/176 45/62/176
f 45/62/177 57/78/177 54/74/177
f 45/62/178 46/63/178 47/65/178
f 48/68/179 51/71/179 50/70/179
f 49/69/180 52/72/180 51/71/180
f 51/71/181 46/64/181 43/59/181
f 51/71/182 52/72/182 47/66/182
f 53/73/183 56/77/183 55/76/183
f 54/75/184 57/79/184 56/77/184
f 56/77/185 52/72/185 49/69/185
f 56/77/186 57/79/186 47/67/186
f 61/83/187 64/87/187 63/86/187
f 62/85/188 65/88/188 64/87/188
f 64/87/189 76/103/189 73/99/189
f 64/87/190 65/88/190 66/90/190
f 67/93/191 70/96/191 69/95/191
f 68/94/192 71/97/192 70/96/192
f 70/96/193 65/89/193 62/84/193
f 70/96/194 71/97/194 66/91/194
f 72/98/195 75/102/195 74/101/195
f 73/100/196 76/104/196 75/102/196
f 75/102/197 71/97/197 68/94/197
f 75/102/198 76/104/198 66/92/198
f 80/108/199 83/111/199 82/110/199
f 81/109/200 84/112/200 83/111/200
f 83/111/201 95/124/201 92/120/201
f 83/111/202 84/112/202 85/113/202
f 86/114/203 89/117/203 88/116/203
f 87/115/204 90/118/204 89/117/204
f 89/117/205 84/112/205 81/109/205
f 89/117/206 90/118/206 85/113/206
f 91/119/207 94/123/207 93/122/207
f 92/121/208 95/125/208 94/123/208
f 94/123/209 90/118/209 87/115/209
f 94/123/210 95/125/210 85/113/210
f 99/129/211 102/133/211 101/132/211
f 100/131/212 103/134/212 102/133/212
f 102/133/213 114/146/213 111/143/213
f 102/133/214 103/134/214 104/136/214
f 105/137/215 108/140/215 107/139/215
f 106/138/216 109/141/216 108/140/216
f 108/140/217 103/135/217 100/130/217
f 108/140/218 109/141/218 104/136/218
f 110/142/219 113/145/219 112/144/219
f 111/143/220 114/146/220 113/145/220
f 113/145/221 109/141/221 106/138/221
f 113/145/222 114/146/222 104/136/222
f 118/150/223 121/154/223 120/153/223
f 119/152/224 122/155/224 121/154/224
f 121/154/225 133/167/225 130/164/225
f 121/154/226 122/155/226 123/157/226
f 124/158/227 127/161/227 126/160/227
f 125/159/228 128/162/228 127/161/228
f 127/161/229 122/156/229 119/151/229
f 127/161/230 128/162/230 123/157/230
f 129/163/231 132/166/231 131/165/231
f 130/164/232 133/167/232 132/166/232
f 132/166/233 128/162/233 125/159/233
f 132/166/234 133/167/234 123/157/234
f 137/171/235 140/174/235 139/173/235
f 138/172/236 141/175/236 140/174/236
f 140/174/237 152/187/237 149/183/237
f 140/174/238 141/175/238 142/176/238
f 143/177/239 146/180/239 145/179/239
f 144/178/240 147/181/240 146/180/240
f 146/180/241 141/175/241 138/172/241
f 146/180/242 147/181/242 142/176/242
f 148/182/243 151/186/243 150/185/243
f 149/184/244 152/188/244 151/186/244
f 151/186/245 147/181/245 144/178/245
f 151/186/246 152/188/246 142/176/246
f 1/1/102 6/7/102 42/58/102
f 6/7/103 16/22/103 43/60/103
f 16/23/104 15/21/104 50/70/104
f 15/21/105 3/3/105 40/56/105
f 20/28/106 25/34/106 10/14/106
f 25/34/107 35/49/107 11/16/107
f 35/50/108 34/48/108 17/24/108
f 34/48/109 22/30/109 3/3/109
f 58/80/110 63/86/110 29/41/110
f 63/86/111 73/99/111 30/43/111
f 73/100/112 72/98/112 36/51/112
f 72/98/113 60/82/113 22/30/113
f 41/57/114 55/76/114 67/93/114
f 55/76/115 49/69/115 68/94/115
f 49/69/116 48/68/116 74/101/116
f 48/68/117 40/56/117 60/82/117
f 39/55/118 44/61/118 118/150/118
f 44/61/119 54/74/119 119/152/119
f 54/75/120 53/73/120 126/160/120
f 53/73/121 41/57/121 116/148/121
f 134/168/122 139/173/122 61/83/122
f 139/173/123 149/183/123 62/85/123
f 149/184/124 148/182/124 69/95/124
f 148/182/125 136/170/125 59/81/125
f 117/149/126 131/165/126 143/177/126
f 131/165/127 125/159/127 144/178/127
f 125/159/128 124/158/128 150/185/128
f 124/158/129 116/148/129 136/170/129
f 115/147/130 120/153/130 80/108/130
f 120/153/131 130/164/131 81/109/131
f 130/164/132 129/163/132 88/116/132
f 129/163/133 117/149/133 78/106/133
f 96/126/134 101/132/134 137/171/134
f 101/132/135 111/143/135 138/172/135
f 111/143/136 110/142/136 145/179/136
f 110/142/137 98/128/137 135/169/137
f 79/107/138 93/122/138 105/137/138
f 93/122/139 87/115/139 106/138/139
f 87/115/140 86/114/140 112/144/140
f 86/114/141 78/106/141 98/128/141
f 77/105/142 82/110/142 4/4/142
f 82/110/143 92/120/143 5/6/143
f 92/121/144 91/119/144 12/17/144
f 91/119/145 79/107/145 2/2/145
f 21/29/146 31/44/146 99/129/146
f 31/44/147 24/32/147 100/131/147
f 24/33/148 23/31/148 107/139/148
f 23/31/149 20/28/149 97/127/149
f 115/147/150 77/105/150 1/1/150
