# Blender v2.81 (sub 16) OBJ File: 'Nature Pack Low Poly.blend'
# www.blender.org
mtllib Pine_Tree_1_Spring.mtl
o Pine_Tree_1_Spring_Cylinder.010
v -0.078607 1.551072 -0.108194
v -0.154009 1.542957 -0.050041
v -0.127189 1.551072 0.041327
v -0.095183 1.542958 0.131008
v 0.000000 6.065287 0.000000
v -0.000000 1.551072 0.133735
v 0.095183 1.542958 0.131008
v 0.127189 1.551072 0.041326
v 0.154009 1.542958 -0.050041
v 0.078607 1.551072 -0.108194
v -0.000000 1.542958 -0.161935
v -0.110245 5.173872 0.151739
v -0.277666 4.204980 0.382174
v -0.342099 3.570972 0.470859
v -0.549605 2.578215 0.756466
v -0.573627 1.964744 0.789530
v -0.000000 5.020373 0.242445
v -0.000000 4.373287 0.384657
v -0.000000 3.391316 0.703564
v -0.000000 2.768093 0.779318
v -0.000000 1.765585 1.167233
v 0.000000 1.964744 -0.975913
v -0.000000 2.578215 -0.935043
v 0.000000 3.570971 -0.582013
v 0.000000 4.204980 -0.472393
v -0.000000 5.173873 -0.187560
v 0.178380 5.173872 -0.057959
v 0.449273 4.204980 -0.145978
v 0.553528 3.570971 -0.179852
v 0.889279 2.578215 -0.288944
v 0.928148 1.964744 -0.301574
v 0.110245 5.173872 0.151739
v 0.277666 4.204980 0.382174
v 0.342099 3.570971 0.470859
v 0.549604 2.578215 0.756466
v 0.573627 1.964744 0.789530
v 0.230579 5.020373 0.074920
v 0.365830 4.373287 0.118866
v 0.669129 3.391316 0.217413
v 0.741175 2.768094 0.240823
v 1.110104 1.765585 0.360695
v -0.230579 5.020373 0.074920
v -0.365830 4.373287 0.118866
v -0.669129 3.391316 0.217413
v -0.741175 2.768094 0.240823
v -1.110104 1.765585 0.360695
v 0.142506 5.020373 -0.196142
v 0.226096 4.373287 -0.311194
v 0.413545 3.391316 -0.569195
v 0.458072 2.768093 -0.630481
v 0.686082 1.765585 -0.944311
v -0.178380 5.173872 -0.057959
v -0.449273 4.204980 -0.145978
v -0.553528 3.570972 -0.179852
v -0.889279 2.578215 -0.288944
v -0.928148 1.964745 -0.301574
v -0.142506 5.020373 -0.196142
v -0.226095 4.373287 -0.311194
v -0.413544 3.391316 -0.569195
v -0.458071 2.768093 -0.630482
v -0.686082 1.765585 -0.944311
v -0.447683 2.266709 0.616182
v -0.000000 2.257313 0.746142
v 0.724366 2.266709 -0.235361
v 0.447682 2.266709 0.616182
v 0.709623 2.257313 0.230571
v -0.709623 2.257313 0.230571
v 0.438571 2.257313 -0.603642
v -0.724366 2.266709 -0.235361
v -0.000000 2.266709 -0.761643
v -0.438571 2.257313 -0.603642
v -0.347062 3.040676 0.477690
v -0.000000 3.040676 -0.590458
v 0.561559 3.040676 -0.182461
v -0.000000 3.048477 0.603386
v 0.347062 3.040676 0.477690
v 0.573854 3.048477 0.186457
v -0.573854 3.048477 0.186457
v 0.354662 3.048477 -0.488150
v -0.561559 3.040676 -0.182462
v -0.354661 3.048478 -0.488150
v -0.000000 3.823164 0.405104
v -0.244380 3.831122 0.336360
v 0.000000 3.831122 -0.415764
v 0.395415 3.831122 -0.128478
v 0.244380 3.831122 0.336360
v 0.385277 3.823164 0.125184
v -0.385277 3.823164 0.125184
v 0.238114 3.823164 -0.327736
v -0.395415 3.831122 -0.128478
v -0.238114 3.823164 -0.327736
v -0.148917 4.511000 0.204967
v 0.000000 4.511000 -0.253353
v 0.240954 4.511000 -0.078290
v -0.000000 4.521977 0.263568
v 0.148917 4.511000 0.204967
v 0.250668 4.521977 0.081447
v -0.250668 4.521976 0.081447
v 0.154922 4.521977 -0.213231
v -0.240953 4.511000 -0.078291
v -0.154921 4.521977 -0.213231
v 0.000000 5.245238 -0.113229
v 0.000000 5.234226 0.105219
v 0.107687 5.245238 -0.034990
v -0.066554 5.245238 0.091604
v 0.066554 5.245238 0.091604
v 0.100069 5.234226 0.032515
v -0.100069 5.234226 0.032515
v 0.061846 5.234226 -0.085124
v -0.107687 5.245238 -0.034990
v -0.061846 5.234226 -0.085124
v -1.109435 1.149704 0.360477
v -1.336406 0.964646 -0.434225
v -0.825945 0.964646 1.136815
v -0.000000 0.964646 -1.405181
v 0.685668 1.149704 -0.943741
v -0.000000 1.149704 1.166529
v 0.825945 0.964646 1.136815
v 1.109435 1.149704 0.360477
v 1.336407 0.964646 -0.434225
v -0.685668 1.149704 -0.943742
v -0.185323 -0.075059 0.060215
v -0.226889 -0.075059 -0.073721
v -0.140225 -0.075059 0.193003
v -0.000000 -0.075059 -0.238565
v 0.114536 -0.075059 -0.157645
v -0.000000 -0.075059 0.194860
v 0.140225 -0.075059 0.193003
v 0.185323 -0.075059 0.060215
v 0.226889 -0.075059 -0.073721
v -0.114536 -0.075059 -0.157645
vt 0.400000 0.583333
vt 0.400000 0.583333
vt 0.300000 0.583333
vt 0.300000 0.583333
vt 0.300000 0.750000
vt 0.300000 0.750000
vt 0.200000 0.750000
vt 0.200000 0.750000
vt 0.100000 0.750000
vt 0.100000 0.750000
vt 0.300000 0.666667
vt 0.300000 0.666667
vt 0.200000 0.666667
vt 0.200000 0.666667
vt 0.400000 0.750000
vt 0.400000 0.750000
vt 0.300000 0.833333
vt 0.300000 0.833333
vt 0.200000 0.833333
vt 0.200000 0.833333
vt 0.100000 0.833333
vt 0.100000 0.833333
vt 0.200000 0.583333
vt 0.200000 0.583333
vt 0.100000 0.583333
vt 0.100000 0.583333
vt 1.000000 0.916667
vt 0.900000 1.000000
vt 0.900000 0.916667
vt 0.900000 0.916667
vt 0.800000 1.000000
vt 0.800000 0.916667
vt 0.400000 0.833333
vt 0.400000 0.833333
vt 0.100000 0.916667
vt 0.100000 0.916667
vt -0.000000 0.916667
vt -0.000000 0.916667
vt 0.800000 0.916667
vt 0.700000 1.000000
vt 0.700000 0.916667
vt 0.700000 0.916667
vt 0.600000 1.000000
vt 0.600000 0.916667
vt 0.300000 0.916667
vt 0.300000 0.916667
vt 0.200000 0.916667
vt 0.200000 0.916667
vt 0.100000 0.666667
vt 0.100000 0.666667
vt 0.600000 0.916667
vt 0.500000 1.000000
vt 0.500000 0.916667
vt -0.000000 0.833333
vt -0.000000 0.833333
vt -0.000000 0.750000
vt -0.000000 0.750000
vt 0.500000 0.916667
vt 0.400000 1.000000
vt 0.400000 0.916667
vt 0.400000 0.916667
vt 0.300000 1.000000
vt -0.000000 0.666667
vt -0.000000 0.666667
vt 0.200000 1.000000
vt -0.000000 0.583333
vt -0.000000 0.583333
vt 0.100000 1.000000
vt 0.400000 0.666667
vt 0.400000 0.666667
vt -0.000000 1.000000
vt 0.400000 0.916667
vt 0.500000 0.583333
vt 0.500000 0.583333
vt 0.400000 0.583333
vt 0.400000 0.583333
vt 0.500000 0.666667
vt 0.500000 0.666667
vt 0.400000 0.666667
vt 0.400000 0.666667
vt 0.500000 0.750000
vt 0.500000 0.750000
vt 0.400000 0.750000
vt 0.400000 0.750000
vt 0.500000 0.833333
vt 0.500000 0.833333
vt 0.400000 0.833333
vt 0.400000 0.833333
vt 0.500000 0.916667
vt 0.400000 0.916667
vt 0.600000 0.583333
vt 0.600000 0.583333
vt 0.500000 0.583333
vt 0.500000 0.583333
vt 0.600000 0.666667
vt 0.600000 0.666667
vt 0.500000 0.666667
vt 0.500000 0.666667
vt 0.600000 0.750000
vt 0.600000 0.750000
vt 0.500000 0.750000
vt 0.500000 0.750000
vt 0.600000 0.833333
vt 0.600000 0.833333
vt 0.500000 0.833333
vt 0.500000 0.833333
vt 0.600000 0.916667
vt 0.500000 0.916667
vt 0.700000 0.583333
vt 0.700000 0.583333
vt 0.600000 0.583333
vt 0.600000 0.583333
vt 0.700000 0.666667
vt 0.700000 0.666667
vt 0.600000 0.666667
vt 0.600000 0.666667
vt 0.700000 0.750000
vt 0.700000 0.750000
vt 0.600000 0.750000
vt 0.600000 0.750000
vt 0.700000 0.833333
vt 0.700000 0.833333
vt 0.600000 0.833333
vt 0.600000 0.833333
vt 0.700000 0.916667
vt 0.600000 0.916667
vt 0.800000 0.583333
vt 0.800000 0.583333
vt 0.700000 0.583333
vt 0.700000 0.583333
vt 0.800000 0.666667
vt 0.800000 0.666667
vt 0.700000 0.666667
vt 0.700000 0.666667
vt 0.800000 0.750000
vt 0.800000 0.750000
vt 0.700000 0.750000
vt 0.700000 0.750000
vt 0.800000 0.833333
vt 0.800000 0.833333
vt 0.700000 0.833333
vt 0.700000 0.833333
vt 0.800000 0.916667
vt 0.700000 0.916667
vt 0.900000 0.583333
vt 0.900000 0.583333
vt 0.800000 0.583333
vt 0.800000 0.583333
vt 0.900000 0.666667
vt 0.900000 0.666667
vt 0.800000 0.666667
vt 0.800000 0.666667
vt 0.900000 0.750000
vt 0.900000 0.750000
vt 0.800000 0.750000
vt 0.800000 0.750000
vt 0.900000 0.833333
vt 0.900000 0.833333
vt 0.800000 0.833333
vt 0.800000 0.833333
vt 0.900000 0.916667
vt 0.800000 0.916667
vt 1.000000 0.583333
vt 1.000000 0.583333
vt 0.900000 0.583333
vt 0.900000 0.583333
vt 1.000000 0.666667
vt 1.000000 0.666667
vt 0.900000 0.666667
vt 0.900000 0.666667
vt 1.000000 0.750000
vt 1.000000 0.750000
vt 0.900000 0.750000
vt 0.900000 0.750000
vt 1.000000 0.833333
vt 1.000000 0.833333
vt 0.900000 0.833333
vt 0.900000 0.833333
vt 1.000000 0.916667
vt 0.900000 0.916667
vt 1.000000 0.500000
vt 0.900000 0.500000
vt 0.900000 0.500000
vt 0.800000 0.500000
vt 0.800000 0.500000
vt 0.700000 0.500000
vt 0.700000 0.500000
vt 0.600000 0.500000
vt 0.600000 0.500000
vt 0.500000 0.500000
vt 0.500000 0.500000
vt 0.400000 0.500000
vt 0.100000 0.500000
vt -0.000000 0.500000
vt 0.300000 0.500000
vt 0.200000 0.500000
vt 0.400000 0.500000
vt 0.705156 0.264571
vt 0.713335 0.238087
vt 0.521746 0.175836
vt 0.521746 0.324164
vt 0.722285 0.211854
vt 0.608932 0.055836
vt 0.772660 0.281189
vt 0.750000 0.297152
vt 0.750000 0.490000
vt 0.891068 0.444164
vt 0.750000 0.211448
vt 0.750000 0.010000
vt 0.777715 0.211854
vt 0.891068 0.055836
vt 0.786665 0.238087
vt 0.978254 0.175836
vt 0.794844 0.264571
vt 0.978254 0.324164
vt 0.727340 0.281189
vt 0.608932 0.444164
vt 0.722285 0.211854
vt 0.750000 0.211448
vt 0.794844 0.264571
vt 0.786665 0.238087
vt 0.777715 0.211854
vt 0.713335 0.238087
vt 0.705156 0.264571
vt 0.727340 0.281189
vt 0.750000 0.297152
vt 0.772660 0.281189
vn 0.6403 -0.6054 -0.4727
vn 0.8421 -0.5390 -0.0189
vn 0.6702 -0.5390 0.5103
vn 0.8323 -0.5544 -0.0038
vn 0.6924 -0.5390 -0.4797
vn 0.8070 -0.5811 0.1052
vn 0.7147 -0.5811 0.3892
vn 0.6474 -0.6054 0.4629
vn 0.4377 0.2032 0.8759
vn 0.9682 0.2032 -0.1456
vn 0.5910 -0.5811 -0.5595
vn 0.5160 -0.5646 0.6442
vn 0.8689 0.2032 -0.4513
vn 0.6977 0.2032 0.6869
vn 0.7721 -0.5646 -0.2917
vn 0.6711 -0.5544 0.4923
vn -0.4377 0.2032 0.8759
vn 0.1493 -0.5811 0.8000
vn 0.2782 -0.5390 0.7951
vn 0.1607 0.2032 -0.9658
vn -0.6977 0.2032 0.6869
vn 0.7959 -0.6054 0.0060
vn 0.2608 -0.5544 0.7903
vn -0.9682 0.2032 -0.1456
vn 0.2402 -0.6054 0.7588
vn -0.8689 0.2032 -0.4513
vn 0.6756 -0.5544 -0.4861
vn 0.4532 -0.5646 0.6898
vn -0.1607 0.2032 -0.9658
vn 0.7961 -0.5646 -0.2178
vn -0.2402 -0.6054 0.7588
vn -0.2608 -0.5544 0.7903
vn -0.2782 -0.5390 0.7951
vn -0.1493 -0.5811 0.8000
vn -0.5160 -0.5646 0.6442
vn 0.2517 -0.6054 -0.7551
vn 0.2535 -0.5544 -0.7927
vn 0.2423 -0.5390 -0.8067
vn 0.3495 -0.5811 -0.7350
vn -0.0388 -0.5646 -0.8245
vn -0.6403 -0.6054 -0.4727
vn -0.6756 -0.5544 -0.4861
vn -0.6924 -0.5390 -0.4797
vn -0.5910 -0.5811 -0.5595
vn -0.7961 -0.5646 -0.2178
vn -0.6474 -0.6054 0.4629
vn -0.6711 -0.5544 0.4923
vn -0.6702 -0.5390 0.5103
vn -0.7147 -0.5811 0.3892
vn -0.4532 -0.5646 0.6898
vn -0.7959 -0.6054 0.0060
vn -0.8323 -0.5544 -0.0038
vn -0.8421 -0.5390 -0.0189
vn -0.8070 -0.5811 0.1052
vn -0.7721 -0.5646 -0.2917
vn -0.2517 -0.6054 -0.7551
vn -0.2535 -0.5544 -0.7927
vn -0.2423 -0.5390 -0.8067
vn -0.3495 -0.5811 -0.7350
vn 0.0388 -0.5646 -0.8245
vn 0.1666 0.3813 0.9093
vn 0.9163 0.3813 0.1226
vn 0.6693 0.3813 -0.6377
vn 0.8133 0.3813 0.4394
vn -0.1666 0.3813 0.9093
vn 0.3997 0.3813 -0.8336
vn -0.3997 0.3813 -0.8336
vn -0.9163 0.3813 0.1226
vn -0.6693 0.3813 -0.6377
vn -0.8134 0.3813 0.4394
vn 0.3913 0.3531 0.8498
vn 0.9292 0.3531 -0.1095
vn 0.8161 0.3531 -0.4576
vn 0.6873 0.3531 0.6347
vn -0.3913 0.3531 0.8498
vn 0.1830 0.3531 -0.9175
vn -0.6873 0.3531 0.6347
vn -0.1830 0.3531 -0.9175
vn -0.8161 0.3531 -0.4576
vn -0.9292 0.3531 -0.1095
vn 0.1846 0.3416 0.9216
vn 0.9335 0.3416 0.1092
vn 0.6910 0.3416 -0.6371
vn 0.8194 0.3416 0.4603
vn -0.1846 0.3416 0.9216
vn 0.3924 0.3416 -0.8540
vn -0.3924 0.3416 -0.8540
vn -0.8194 0.3416 0.4603
vn -0.6910 0.3416 -0.6371
vn -0.9335 0.3416 0.1092
vn 0.3956 0.3292 0.8574
vn 0.9377 0.3292 -0.1113
vn 0.8240 0.3292 -0.4611
vn 0.6932 0.3292 0.6412
vn -0.3956 0.3292 0.8574
vn 0.1839 0.3292 -0.9262
vn -0.1839 0.3292 -0.9262
vn -0.6932 0.3292 0.6412
vn -0.8240 0.3292 -0.4611
vn -0.9377 0.3292 -0.1113
vn 0.1813 0.3008 0.9363
vn 0.9465 0.3008 0.1169
vn 0.6970 0.3008 -0.6509
vn 0.8345 0.3008 0.4617
vn -0.1813 0.3008 0.9363
vn 0.4037 0.3008 -0.8640
vn -0.8345 0.3008 0.4617
vn -0.6970 0.3008 -0.6509
vn -0.9465 0.3008 0.1169
vn -0.4037 0.3008 -0.8640
vn 0.4089 -0.9090 0.0810
vn 0.2832 -0.9090 -0.3059
vn -0.0493 -0.9090 0.4140
vn 0.2034 -0.9090 -0.3639
vn -0.2034 -0.9090 -0.3639
vn -0.2832 -0.9090 -0.3059
vn -0.4089 -0.9090 0.0810
vn -0.3785 -0.9090 0.1748
vn 0.3785 -0.9090 0.1748
vn 0.0493 -0.9090 0.4140
vn -0.0208 0.0382 0.9991
vn 0.0000 -1.0000 -0.0000
vn -0.9566 0.0382 0.2890
vn 0.6040 0.0382 -0.7960
vn 0.0208 0.0382 0.9991
vn -0.9437 0.0382 0.3285
vn -0.6040 0.0382 -0.7960
vn 0.9437 0.0382 0.3285
vn 0.5704 0.0382 -0.8205
vn -0.5704 0.0382 -0.8205
vn 0.9566 0.0382 0.2890
usemtl leaves
s off
f 62/1/1 16/2/1 46/3/1 67/4/1
f 88/5/2 44/6/2 54/7/2 90/8/2
f 90/8/3 54/7/3 59/9/3 91/10/3
f 78/11/4 45/12/4 55/13/4 80/14/4
f 83/15/5 14/16/5 44/6/5 88/5/5
f 98/17/6 43/18/6 53/19/6 100/20/6
f 100/20/7 53/19/7 58/21/7 101/22/7
f 69/23/8 56/24/8 61/25/8 71/26/8
f 32/27/9 5/28/9 17/29/9
f 27/30/10 5/31/10 37/32/10
f 92/33/11 13/34/11 43/18/11 98/17/11
f 111/35/12 57/36/12 26/37/12 102/38/12
f 47/39/13 5/40/13 27/41/13
f 37/42/14 5/43/14 32/44/14
f 108/45/15 42/46/15 52/47/15 110/48/15
f 80/14/16 55/13/16 60/49/16 81/50/16
f 17/51/17 5/52/17 12/53/17
f 101/22/18 58/21/18 25/54/18 93/55/18
f 91/10/19 59/9/19 24/56/19 84/57/19
f 26/58/20 5/59/20 47/60/20
f 12/61/21 5/62/21 42/46/21
f 67/4/22 46/3/22 56/24/22 69/23/22
f 81/50/23 60/49/23 23/63/23 73/64/23
f 42/46/24 5/65/24 52/47/24
f 71/26/25 61/25/25 22/66/25 70/67/25
f 52/47/26 5/68/26 57/36/26
f 72/69/27 15/70/27 45/12/27 78/11/27
f 110/48/28 52/47/28 57/36/28 111/35/28
f 57/36/29 5/71/29 26/37/29
f 105/72/30 12/61/30 42/46/30 108/45/30
f 70/73/31 22/74/31 51/75/31 68/76/31
f 73/77/32 23/78/32 50/79/32 79/80/32
f 84/81/33 24/82/33 49/83/33 89/84/33
f 93/85/34 25/86/34 48/87/34 99/88/34
f 102/89/35 26/58/35 47/60/35 109/90/35
f 63/91/36 21/92/36 16/93/36 62/94/36
f 75/95/37 20/96/37 15/97/37 72/98/37
f 82/99/38 19/100/38 14/101/38 83/102/38
f 95/103/39 18/104/39 13/105/39 92/106/39
f 103/107/40 17/51/40 12/53/40 105/108/40
f 66/109/41 41/110/41 36/111/41 65/112/41
f 77/113/42 40/114/42 35/115/42 76/116/42
f 87/117/43 39/118/43 34/119/43 86/120/43
f 97/121/44 38/122/44 33/123/44 96/124/44
f 107/125/45 37/42/45 32/44/45 106/126/45
f 68/127/46 51/128/46 31/129/46 64/130/46
f 79/131/47 50/132/47 30/133/47 74/134/47
f 89/135/48 49/136/48 29/137/48 85/138/48
f 99/139/49 48/140/49 28/141/49 94/142/49
f 109/143/50 47/39/50 27/41/50 104/144/50
f 64/145/51 31/146/51 41/147/51 66/148/51
f 74/149/52 30/150/52 40/151/52 77/152/52
f 85/153/53 29/154/53 39/155/53 87/156/53
f 94/157/54 28/158/54 38/159/54 97/160/54
f 104/161/55 27/30/55 37/32/55 107/162/55
f 65/163/56 36/164/56 21/165/56 63/166/56
f 76/167/57 35/168/57 20/169/57 75/170/57
f 86/171/58 34/172/58 19/173/58 82/174/58
f 96/175/59 33/176/59 18/177/59 95/178/59
f 106/179/60 32/27/60 17/29/60 103/180/60
f 118/181/61 65/163/61 63/166/61 117/182/61
f 120/183/62 64/145/62 66/148/62 119/184/62
f 116/185/63 68/127/63 64/130/63 120/186/63
f 119/187/64 66/109/64 65/112/64 118/188/64
f 117/189/65 63/91/65 62/94/65 114/190/65
f 115/191/66 70/73/66 68/76/66 116/192/66
f 121/193/67 71/26/67 70/67/67 115/194/67
f 112/195/68 67/4/68 69/23/68 113/196/68
f 113/196/69 69/23/69 71/26/69 121/193/69
f 114/197/70 62/1/70 67/4/70 112/195/70
f 36/164/71 76/167/71 75/170/71 21/165/71
f 31/146/72 74/149/72 77/152/72 41/147/72
f 51/128/73 79/131/73 74/134/73 31/129/73
f 41/110/74 77/113/74 76/116/74 36/111/74
f 21/92/75 75/95/75 72/98/75 16/93/75
f 22/74/76 73/77/76 79/80/76 51/75/76
f 16/2/77 72/69/77 78/11/77 46/3/77
f 61/25/78 81/50/78 73/64/78 22/66/78
f 56/24/79 80/14/79 81/50/79 61/25/79
f 46/3/80 78/11/80 80/14/80 56/24/80
f 35/168/81 86/171/81 82/174/81 20/169/81
f 30/150/82 85/153/82 87/156/82 40/151/82
f 50/132/83 89/135/83 85/138/83 30/133/83
f 40/114/84 87/117/84 86/120/84 35/115/84
f 20/96/85 82/99/85 83/102/85 15/97/85
f 23/78/86 84/81/86 89/84/86 50/79/86
f 60/49/87 91/10/87 84/57/87 23/63/87
f 15/70/88 83/15/88 88/5/88 45/12/88
f 55/13/89 90/8/89 91/10/89 60/49/89
f 45/12/90 88/5/90 90/8/90 55/13/90
f 34/172/91 96/175/91 95/178/91 19/173/91
f 29/154/92 94/157/92 97/160/92 39/155/92
f 49/136/93 99/139/93 94/142/93 29/137/93
f 39/118/94 97/121/94 96/124/94 34/119/94
f 19/100/95 95/103/95 92/106/95 14/101/95
f 24/82/96 93/85/96 99/88/96 49/83/96
f 59/9/97 101/22/97 93/55/97 24/56/97
f 14/16/98 92/33/98 98/17/98 44/6/98
f 54/7/99 100/20/99 101/22/99 59/9/99
f 44/6/100 98/17/100 100/20/100 54/7/100
f 33/176/101 106/179/101 103/180/101 18/177/101
f 28/158/102 104/161/102 107/162/102 38/159/102
f 48/140/103 109/143/103 104/144/103 28/141/103
f 38/122/104 107/125/104 106/126/104 33/123/104
f 18/104/105 103/107/105 105/108/105 13/105/105
f 25/86/106 102/89/106 109/90/106 48/87/106
f 13/34/107 105/72/107 108/45/107 43/18/107
f 53/19/108 110/48/108 111/35/108 58/21/108
f 43/18/109 108/45/109 110/48/109 53/19/109
f 58/21/110 111/35/110 102/38/110 25/54/110
f 2/198/111 3/199/111 112/200/111 113/201/111
f 3/199/112 4/202/112 114/203/112 112/200/112
f 10/204/113 11/205/113 115/206/113 116/207/113
f 4/202/114 6/208/114 117/209/114 114/203/114
f 6/208/115 7/210/115 118/211/115 117/209/115
f 7/210/116 8/212/116 119/213/116 118/211/116
f 8/212/117 9/214/117 120/215/117 119/213/117
f 9/214/118 10/204/118 116/207/118 120/215/118
f 1/216/119 2/198/119 113/201/119 121/217/119
f 11/205/120 1/216/120 121/217/120 115/206/120
usemtl Branch
f 6/208/121 4/202/121 124/218/121 127/219/121
f 130/220/122 129/221/122 128/222/122 127/219/122 124/218/122 122/223/122 123/224/122 131/225/122 125/226/122 126/227/122
f 3/199/123 2/198/123 123/224/123 122/223/123
f 10/204/124 9/214/124 130/220/124 126/227/124
f 7/210/125 6/208/125 127/219/125 128/222/125
f 4/202/126 3/199/126 122/223/126 124/218/126
f 2/198/127 1/216/127 131/225/127 123/224/127
f 8/212/128 7/210/128 128/222/128 129/221/128
f 11/205/129 10/204/129 126/227/129 125/226/129
f 1/216/130 11/205/130 125/226/130 131/225/130
f 9/214/131 8/212/131 129/221/131 130/220/131
