# Blender v2.81 (sub 16) OBJ File: 'Nature Pack Low Poly.blend'
# www.blender.org
mtllib Pine_Tree_1_Winter.mtl
o Pine_Tree_1_Winter_Cylinder.042
v -0.115206 1.551072 -0.158568
v -0.225715 1.542957 -0.073339
v -0.186408 1.551072 0.060568
v -0.139500 1.542958 0.192005
v 0.000000 6.065287 0.000000
v -0.000000 1.551072 0.196001
v 0.139500 1.542958 0.192005
v 0.186408 1.551072 0.060568
v 0.225715 1.542958 -0.073339
v 0.115206 1.551072 -0.158568
v -0.000000 1.542958 -0.237331
v -0.161574 5.173872 0.222388
v -0.805496 2.578215 1.108671
v -0.000000 5.020373 0.355326
v -0.000000 2.768093 1.142163
v -0.000000 1.765585 1.710687
v 0.000000 3.570971 -0.852994
v 0.000000 4.204980 -0.692336
v -0.000000 5.173873 -0.274886
v 0.261432 5.173872 -0.084945
v 1.303320 2.578215 -0.423474
v -0.491216 4.472626 0.159606
v 0.491216 4.472626 0.159606
v 0.371245 4.325010 0.510975
v 0.805496 2.578215 1.108671
v 0.840704 1.964744 1.157130
v 0.337935 5.020373 0.109802
v -0.371245 4.325010 0.510975
v 0.600687 4.325010 -0.195175
v 1.086261 2.768094 0.352948
v 1.626960 1.765585 0.528632
v -0.000000 4.472626 0.516495
v 0.000000 4.325010 -0.631599
v -0.980671 3.391316 0.318639
v -0.303588 4.472626 -0.417854
v -1.626960 1.765585 0.528632
v -0.600686 4.325010 -0.195175
v 0.331364 4.373287 -0.456083
v 0.303588 4.472626 -0.417853
v 0.550347 3.557590 -0.757488
v 0.890481 3.557590 0.289335
v 0.459742 3.709211 0.632780
v -0.658451 4.204980 -0.213944
v -0.811246 3.570972 -0.263590
v -0.000000 3.557590 0.936307
v -1.360287 1.964745 -0.441984
v 0.743877 3.709211 -0.241700
v -0.331364 4.373287 -0.456084
v -0.606088 3.391316 -0.834209
v -0.671346 2.768093 -0.924029
v -0.459742 3.709211 0.632780
v -0.656120 2.266709 0.903072
v -0.000000 2.257313 1.093540
v 1.061625 2.266709 -0.344943
v 0.656120 2.266709 0.903072
v 1.040019 2.257313 0.337923
v -1.040019 2.257313 0.337923
v 0.642767 2.257313 -0.884693
v -1.061625 2.266709 -0.344943
v -0.000000 2.266709 -1.116258
v -0.642767 2.257313 -0.884693
v -0.508652 3.040676 0.700099
v -0.000000 3.040676 -0.865370
v 0.823016 3.040676 -0.267414
v -0.000000 3.048477 0.884319
v 0.508652 3.040676 0.700099
v 0.841037 3.048477 0.273269
v -0.841037 3.048477 0.273270
v 0.519789 3.048477 -0.715429
v -0.823016 3.040676 -0.267414
v -0.519789 3.048478 -0.715429
v -0.000000 3.823164 0.593717
v -0.358162 3.831122 0.492967
v 0.000000 3.831122 -0.609341
v 0.579518 3.831122 -0.188297
v 0.358162 3.831122 0.492967
v 0.564659 3.823164 0.183469
v -0.564659 3.823164 0.183469
v 0.348978 3.823164 -0.480327
v -0.579518 3.831122 -0.188297
v -0.348978 3.823164 -0.480327
v -0.218252 4.511000 0.300399
v 0.000000 4.511000 -0.371313
v 0.353140 4.511000 -0.114742
v -0.000000 4.521977 0.386284
v 0.218252 4.511000 0.300399
v 0.367378 4.521977 0.119368
v -0.367377 4.521976 0.119368
v 0.227052 4.521977 -0.312510
v -0.353140 4.511000 -0.114742
v -0.227052 4.521977 -0.312510
v 0.000000 5.245238 -0.165948
v 0.000000 5.234226 0.154208
v 0.157826 5.245238 -0.051281
v -0.097541 5.245238 0.134254
v 0.097542 5.245238 0.134254
v 0.146661 5.234226 0.047653
v -0.146661 5.234226 0.047653
v 0.090641 5.234226 -0.124757
v -0.157825 5.245238 -0.051281
v -0.090641 5.234226 -0.124757
v -1.625979 1.149704 0.528313
v -1.958627 0.964646 -0.636397
v -1.210499 0.964646 1.666108
v -0.000000 0.964646 -2.059423
v 0.000000 3.709211 -0.782159
v -0.550347 3.557590 -0.757488
v -0.743877 3.709211 -0.241701
v 1.625979 1.149704 0.528313
v 1.958628 0.964646 -0.636397
v -1.004910 1.149704 -1.383141
v -0.185323 -0.075059 0.060215
v -0.226889 -0.075059 -0.073721
v -0.140225 -0.075059 0.193003
v -0.000000 -0.075059 -0.238565
v 0.114536 -0.075059 -0.157645
v -0.000000 -0.075059 0.194860
v 0.140225 -0.075059 0.193003
v 0.185323 -0.075059 0.060215
v 0.226889 -0.075059 -0.073721
v -0.114536 -0.075059 -0.157645
v -0.890481 3.557590 0.289335
v 0.000000 2.757202 -1.261670
v -1.199920 2.757202 -0.389878
v 0.625294 2.918818 -0.860643
v 0.161574 5.173872 0.222388
v -1.011747 2.918818 0.328737
v -0.337935 5.020373 0.109802
v 0.208855 5.020373 -0.287465
v -0.261432 5.173872 -0.084945
v -0.208855 5.020373 -0.287465
v -0.406945 4.204980 0.560112
v -0.000000 4.373287 0.563750
v -0.625293 2.918818 -0.860643
v 0.658451 4.204980 -0.213944
v 0.406945 4.204980 0.560112
v 0.536158 4.373287 0.174208
v -0.536158 4.373287 0.174208
v 1.011747 2.918818 0.328736
v 0.741591 2.757202 1.020713
v 1.199920 2.757202 -0.389878
v -0.501378 3.570972 0.690087
v -0.000000 3.391316 1.031138
v -0.741592 2.757202 1.020713
v 0.811246 3.570971 -0.263590
v 0.501378 3.570971 0.690087
v 0.980671 3.391316 0.318639
v -0.000000 2.918818 1.063813
v 0.606088 3.391316 -0.834208
v 0.000000 2.146395 -1.334915
v -0.923510 1.982177 -1.271104
v 0.923511 1.982177 -1.271104
v 1.269579 2.146395 -0.412511
v -0.000000 2.578215 -1.370392
v -0.784643 2.146395 1.079968
v -1.269579 2.146395 -0.412512
v -1.494272 1.982177 0.485519
v -1.086261 2.768094 0.352948
v 0.671346 2.768093 -0.924029
v -1.303320 2.578215 -0.423475
v 1.494272 1.982177 0.485518
v -0.840704 1.964744 1.157129
v 0.784643 2.146395 1.079969
v 0.000000 1.964744 -1.430291
v 1.360287 1.964744 -0.441984
v -0.000000 1.982177 1.571170
v 0.958967 1.290222 -1.319905
v 1.140167 1.129833 1.569305
v 1.005517 1.765585 -1.383975
v -0.000000 1.290222 1.631492
v -1.005516 1.765585 -1.383975
v -0.000000 1.129833 -1.939768
v -0.958966 1.290222 -1.319905
v -1.844829 1.129833 -0.599421
v -1.551641 1.290222 0.504159
v 1.004910 1.149704 -1.383140
v -0.000000 1.149704 1.709656
v 1.210498 0.964646 1.666108
v 1.551641 1.290222 0.504159
v 1.844829 1.129833 -0.599421
v -1.140167 1.129833 1.569305
vt 0.400000 0.583333
vt 0.400000 0.583333
vt 0.300000 0.583333
vt 0.300000 0.583333
vt 0.300000 0.750000
vt 0.300000 0.750000
vt 0.200000 0.750000
vt 0.200000 0.750000
vt 0.100000 0.750000
vt 0.100000 0.750000
vt 0.300000 0.666667
vt 0.300000 0.666667
vt 0.200000 0.666667
vt 0.200000 0.666667
vt 0.400000 0.750000
vt 0.400000 0.750000
vt 0.300000 0.833333
vt 0.300000 0.833333
vt 0.200000 0.833333
vt 0.200000 0.833333
vt 0.100000 0.833333
vt 0.100000 0.833333
vt 0.200000 0.583333
vt 0.200000 0.583333
vt 0.100000 0.583333
vt 0.100000 0.583333
vt 0.400000 0.833333
vt 0.400000 0.833333
vt 0.100000 0.916667
vt 0.100000 0.916667
vt -0.000000 0.916667
vt -0.000000 0.916667
vt 0.300000 0.916667
vt 0.300000 0.916667
vt 0.200000 0.916667
vt 0.200000 0.916667
vt 0.100000 0.666667
vt 0.100000 0.666667
vt -0.000000 0.833333
vt -0.000000 0.833333
vt -0.000000 0.750000
vt -0.000000 0.750000
vt -0.000000 0.666667
vt -0.000000 0.666667
vt -0.000000 0.583333
vt -0.000000 0.583333
vt 0.400000 0.666667
vt 0.400000 0.666667
vt 0.400000 0.916667
vt 0.400000 0.916667
vt 0.500000 0.583333
vt 0.500000 0.583333
vt 0.400000 0.583333
vt 0.400000 0.583333
vt 0.500000 0.666667
vt 0.500000 0.666667
vt 0.400000 0.666667
vt 0.400000 0.666667
vt 0.500000 0.750000
vt 0.500000 0.750000
vt 0.400000 0.750000
vt 0.400000 0.750000
vt 0.500000 0.833333
vt 0.500000 0.833333
vt 0.400000 0.833333
vt 0.400000 0.833333
vt 0.500000 0.916667
vt 0.500000 0.916667
vt 0.400000 0.916667
vt 0.400000 0.916667
vt 0.600000 0.583333
vt 0.600000 0.583333
vt 0.500000 0.583333
vt 0.500000 0.583333
vt 0.600000 0.666667
vt 0.600000 0.666667
vt 0.500000 0.666667
vt 0.500000 0.666667
vt 0.600000 0.750000
vt 0.600000 0.750000
vt 0.500000 0.750000
vt 0.500000 0.750000
vt 0.600000 0.833333
vt 0.600000 0.833333
vt 0.500000 0.833333
vt 0.500000 0.833333
vt 0.600000 0.916667
vt 0.600000 0.916667
vt 0.500000 0.916667
vt 0.500000 0.916667
vt 0.700000 0.583333
vt 0.700000 0.583333
vt 0.600000 0.583333
vt 0.600000 0.583333
vt 0.700000 0.666667
vt 0.700000 0.666667
vt 0.600000 0.666667
vt 0.600000 0.666667
vt 0.700000 0.750000
vt 0.700000 0.750000
vt 0.600000 0.750000
vt 0.600000 0.750000
vt 0.700000 0.833333
vt 0.700000 0.833333
vt 0.600000 0.833333
vt 0.600000 0.833333
vt 0.700000 0.916667
vt 0.700000 0.916667
vt 0.600000 0.916667
vt 0.600000 0.916667
vt 0.800000 0.583333
vt 0.800000 0.583333
vt 0.700000 0.583333
vt 0.700000 0.583333
vt 0.800000 0.666667
vt 0.800000 0.666667
vt 0.700000 0.666667
vt 0.700000 0.666667
vt 0.800000 0.750000
vt 0.800000 0.750000
vt 0.700000 0.750000
vt 0.700000 0.750000
vt 0.800000 0.833333
vt 0.800000 0.833333
vt 0.700000 0.833333
vt 0.700000 0.833333
vt 0.800000 0.916667
vt 0.800000 0.916667
vt 0.700000 0.916667
vt 0.700000 0.916667
vt 0.900000 0.583333
vt 0.900000 0.583333
vt 0.800000 0.583333
vt 0.800000 0.583333
vt 0.900000 0.666667
vt 0.900000 0.666667
vt 0.800000 0.666667
vt 0.800000 0.666667
vt 0.900000 0.750000
vt 0.900000 0.750000
vt 0.800000 0.750000
vt 0.800000 0.750000
vt 0.900000 0.833333
vt 0.900000 0.833333
vt 0.800000 0.833333
vt 0.800000 0.833333
vt 0.900000 0.916667
vt 0.900000 0.916667
vt 0.800000 0.916667
vt 0.800000 0.916667
vt 1.000000 0.583333
vt 1.000000 0.583333
vt 0.900000 0.583333
vt 0.900000 0.583333
vt 1.000000 0.666667
vt 1.000000 0.666667
vt 0.900000 0.666667
vt 0.900000 0.666667
vt 1.000000 0.750000
vt 1.000000 0.750000
vt 0.900000 0.750000
vt 0.900000 0.750000
vt 1.000000 0.833333
vt 1.000000 0.833333
vt 0.900000 0.833333
vt 0.900000 0.833333
vt 1.000000 0.916667
vt 1.000000 0.916667
vt 0.900000 0.916667
vt 0.900000 0.916667
vt 0.705156 0.264571
vt 0.713335 0.238087
vt 0.521746 0.175836
vt 0.521746 0.324164
vt 0.722285 0.211854
vt 0.608932 0.055836
vt 0.772660 0.281189
vt 0.750000 0.297152
vt 0.750000 0.490000
vt 0.891068 0.444164
vt 0.750000 0.211448
vt 0.750000 0.010000
vt 0.777715 0.211854
vt 0.891068 0.055836
vt 0.786665 0.238087
vt 0.978254 0.175836
vt 0.794844 0.264571
vt 0.978254 0.324164
vt 0.727340 0.281189
vt 0.608932 0.444164
vt 1.000000 0.842949
vt 0.900000 0.842949
vt 0.900000 0.842949
vt 0.800000 0.842949
vt 0.800000 0.842949
vt 0.700000 0.842949
vt 0.700000 0.842949
vt 0.600000 0.842949
vt 0.600000 0.842949
vt 0.500000 0.842949
vt 0.500000 0.842949
vt 0.400000 0.842949
vt 0.400000 0.842949
vt 0.300000 0.842949
vt 0.200000 0.842949
vt 0.100000 0.842949
vt -0.000000 0.842949
vt 1.000000 0.762255
vt 0.900000 0.762255
vt 0.900000 0.762255
vt 0.800000 0.762255
vt 0.800000 0.762255
vt 0.700000 0.762255
vt 0.700000 0.762255
vt 0.600000 0.762255
vt 0.600000 0.762255
vt 0.500000 0.762255
vt 0.500000 0.762255
vt 0.400000 0.762255
vt 0.100000 0.762255
vt -0.000000 0.762255
vt 0.400000 0.762255
vt 0.300000 0.762255
vt 0.200000 0.762255
vt 1.000000 0.678571
vt 0.900000 0.678571
vt 0.900000 0.678571
vt 0.800000 0.678571
vt 0.800000 0.678571
vt 0.700000 0.678571
vt 0.700000 0.678571
vt 0.600000 0.678571
vt 0.600000 0.678571
vt 0.500000 0.678571
vt 0.500000 0.678571
vt 0.400000 0.678571
vt 0.100000 0.678571
vt -0.000000 0.678571
vt 0.400000 0.678571
vt 0.300000 0.678571
vt 0.200000 0.678571
vt 1.000000 0.597403
vt 0.900000 0.597403
vt 0.900000 0.597403
vt 0.800000 0.597403
vt 0.800000 0.597403
vt 0.700000 0.597403
vt 0.700000 0.597403
vt 0.600000 0.597403
vt 0.600000 0.597403
vt 0.500000 0.597403
vt 0.500000 0.597403
vt 0.400000 0.597403
vt 0.400000 0.597403
vt 0.300000 0.597403
vt 0.100000 0.597403
vt -0.000000 0.597403
vt 0.200000 0.597402
vt 1.000000 0.500000
vt 1.000000 0.510572
vt 0.900000 0.510572
vt 0.900000 0.500000
vt 0.900000 0.500000
vt 0.900000 0.510572
vt 0.800000 0.510572
vt 0.800000 0.500000
vt 0.800000 0.500000
vt 0.800000 0.510572
vt 0.700000 0.510572
vt 0.700000 0.500000
vt 0.700000 0.500000
vt 0.700000 0.510572
vt 0.600000 0.510572
vt 0.600000 0.500000
vt 0.600000 0.500000
vt 0.600000 0.510572
vt 0.500000 0.510572
vt 0.500000 0.500000
vt 0.500000 0.500000
vt 0.500000 0.510572
vt 0.400000 0.510572
vt 0.400000 0.500000
vt 0.100000 0.500000
vt 0.100000 0.510572
vt -0.000000 0.510572
vt -0.000000 0.500000
vt 0.300000 0.500000
vt 0.300000 0.510572
vt 0.200000 0.510572
vt 0.200000 0.500000
vt 0.400000 0.500000
vt 0.400000 0.510572
vt 0.722285 0.211854
vt 0.750000 0.211448
vt 0.794844 0.264571
vt 0.786665 0.238087
vt 0.777715 0.211854
vt 0.713335 0.238087
vt 0.705156 0.264571
vt 0.727340 0.281189
vt 0.750000 0.297152
vt 0.772660 0.281189
vt 0.900000 1.000000
vt 0.800000 1.000000
vt 0.700000 1.000000
vt 0.600000 1.000000
vt 0.500000 1.000000
vt 0.400000 1.000000
vt 0.300000 1.000000
vt 0.200000 1.000000
vt 0.100000 1.000000
vt -0.000000 1.000000
vn 0.5372 -0.7444 -0.3966
vn 0.7293 -0.6840 -0.0164
vn 0.5804 -0.6840 0.4419
vn 0.7156 -0.6985 -0.0033
vn 0.5996 -0.6840 -0.4154
vn 0.6851 -0.7230 0.0893
vn 0.6067 -0.7230 0.3304
vn 0.5432 -0.7444 0.3884
vn 0.5017 -0.7230 -0.4749
vn 0.4415 -0.7080 0.5512
vn 0.6607 -0.7080 -0.2496
vn 0.5770 -0.6985 0.4233
vn 0.1267 -0.7230 0.6791
vn 0.2409 -0.6840 0.6885
vn 0.6677 -0.7444 0.0051
vn 0.2243 -0.6985 0.6795
vn 0.2015 -0.7444 0.6366
vn 0.5808 -0.6985 -0.4179
vn 0.3878 -0.7080 0.5903
vn 0.6812 -0.7080 -0.1864
vn -0.2015 -0.7444 0.6366
vn -0.2243 -0.6985 0.6795
vn -0.2409 -0.6840 0.6885
vn -0.1267 -0.7230 0.6791
vn -0.4415 -0.7080 0.5512
vn 0.2111 -0.7444 -0.6335
vn 0.2180 -0.6985 -0.6816
vn 0.2098 -0.6840 -0.6986
vn 0.2967 -0.7230 -0.6239
vn -0.0332 -0.7080 -0.7055
vn -0.5372 -0.7444 -0.3966
vn -0.5808 -0.6985 -0.4179
vn -0.5996 -0.6840 -0.4154
vn -0.5017 -0.7230 -0.4750
vn -0.6812 -0.7080 -0.1864
vn -0.5432 -0.7444 0.3884
vn -0.5770 -0.6985 0.4233
vn -0.5804 -0.6840 0.4419
vn -0.6067 -0.7230 0.3304
vn -0.3878 -0.7080 0.5903
vn -0.6677 -0.7444 0.0051
vn -0.7156 -0.6985 -0.0033
vn -0.7293 -0.6840 -0.0164
vn -0.6851 -0.7230 0.0893
vn -0.6607 -0.7080 -0.2496
vn -0.2111 -0.7444 -0.6335
vn -0.2180 -0.6985 -0.6816
vn -0.2098 -0.6840 -0.6986
vn -0.2967 -0.7230 -0.6239
vn 0.0332 -0.7080 -0.7055
vn 0.2930 -0.9544 0.0581
vn 0.2029 -0.9544 -0.2192
vn -0.0353 -0.9544 0.2966
vn 0.1457 -0.9544 -0.2607
vn -0.1457 -0.9544 -0.2607
vn -0.2029 -0.9544 -0.2192
vn -0.2930 -0.9544 0.0581
vn -0.2711 -0.9544 0.1252
vn 0.2711 -0.9544 0.1252
vn 0.0353 -0.9544 0.2966
vn 0.1810 0.4202 0.8892
vn 0.9016 0.4202 0.1026
vn 0.6691 0.4202 -0.6130
vn 0.7897 0.4202 0.4470
vn -0.1810 0.4202 0.8892
vn 0.3762 0.4202 -0.8258
vn -0.7897 0.4202 0.4470
vn -0.6691 0.4202 -0.6130
vn -0.9016 0.4202 0.1026
vn -0.3762 0.4202 -0.8258
vn 0.3829 0.4542 0.8044
vn 0.8833 0.4542 -0.1156
vn 0.7826 0.4542 -0.4257
vn 0.6467 0.4542 0.6127
vn -0.3829 0.4542 0.8044
vn 0.1630 0.4542 -0.8758
vn -0.1630 0.4542 -0.8758
vn -0.6467 0.4542 0.6127
vn -0.7826 0.4542 -0.4257
vn -0.8833 0.4542 -0.1156
vn 0.1495 0.4682 0.8709
vn 0.8744 0.4682 0.1269
vn 0.6328 0.4682 -0.6167
vn 0.7820 0.4682 0.4113
vn -0.1495 0.4682 0.8709
vn 0.3909 0.4682 -0.7924
vn -0.3909 0.4682 -0.7924
vn -0.7820 0.4682 0.4113
vn -0.6328 0.4682 -0.6167
vn -0.8744 0.4682 0.1269
vn 0.3953 0.4813 0.7824
vn 0.8662 0.4813 -0.1342
vn 0.7797 0.4813 -0.4006
vn 0.6219 0.4813 0.6177
vn -0.3953 0.4813 0.7824
vn 0.1401 0.4813 -0.8653
vn -0.6219 0.4813 0.6177
vn -0.1401 0.4813 -0.8653
vn -0.7797 0.4813 -0.4006
vn -0.8662 0.4813 -0.1342
vn 0.1137 0.5131 0.8508
vn 0.8443 0.5131 0.1548
vn 0.5920 0.5131 -0.6215
vn 0.7740 0.5131 0.3710
vn -0.1137 0.5131 0.8508
vn 0.4081 0.5131 -0.7551
vn -0.4081 0.5131 -0.7551
vn -0.8443 0.5131 0.1548
vn -0.5920 0.5131 -0.6215
vn -0.7740 0.5131 0.3710
vn -0.0209 -0.0000 0.9998
vn 0.0000 -1.0000 -0.0000
vn -0.9573 -0.0000 0.2891
vn 0.6046 -0.0000 -0.7965
vn 0.0209 -0.0000 0.9998
vn -0.9444 -0.0000 0.3288
vn -0.6046 -0.0000 -0.7965
vn 0.9444 -0.0000 0.3288
vn 0.5707 -0.0000 -0.8211
vn -0.5707 -0.0000 -0.8211
vn 0.9573 -0.0000 0.2891
vn 0.4277 0.2910 0.8558
vn 0.9461 0.2910 -0.1423
vn 0.8490 0.2910 -0.4410
vn 0.6818 0.2910 0.6712
vn -0.4277 0.2910 0.8558
vn 0.1571 0.2910 -0.9437
vn -0.6818 0.2910 0.6712
vn -0.9461 0.2910 -0.1423
vn -0.8490 0.2910 -0.4410
vn -0.1571 0.2910 -0.9437
vn 0.1617 0.5180 0.8400
vn 0.8488 0.5180 0.1058
vn 0.6245 0.5180 -0.5845
vn 0.7489 0.5180 0.4133
vn -0.1617 0.5180 0.8400
vn 0.3629 0.5180 -0.7746
vn -0.3629 0.5180 -0.7746
vn -0.8488 0.5180 0.1058
vn -0.6245 0.5180 -0.5845
vn -0.7489 0.5180 0.4133
vn 0.3582 0.4846 0.7980
vn 0.8697 0.4846 -0.0940
vn 0.7588 0.4846 -0.4351
vn 0.6483 0.4846 0.5872
vn -0.3582 0.4846 0.7980
vn 0.1793 0.4846 -0.8561
vn -0.6483 0.4846 0.5872
vn -0.1793 0.4846 -0.8561
vn -0.7588 0.4846 -0.4351
vn -0.8697 0.4846 -0.0940
vn 0.1788 0.4705 0.8641
vn 0.8771 0.4705 0.0970
vn 0.6525 0.4705 -0.5940
vn 0.7666 0.4705 0.4370
vn -0.1788 0.4705 0.8641
vn 0.3633 0.4705 -0.8041
vn -0.3633 0.4705 -0.8041
vn -0.7666 0.4705 0.4370
vn -0.6525 0.4705 -0.5940
vn -0.8771 0.4705 0.0970
vn 0.3706 0.4552 0.8096
vn 0.8845 0.4552 -0.1023
vn 0.7757 0.4552 -0.4372
vn 0.6555 0.4552 0.6026
vn -0.3706 0.4552 0.8096
vn 0.1761 0.4552 -0.8728
vn -0.1761 0.4552 -0.8728
vn -0.6555 0.4552 0.6026
vn -0.7757 0.4552 -0.4372
vn -0.8845 0.4552 -0.1023
vn 0.1707 0.4195 0.8915
vn 0.9007 0.4195 0.1132
vn 0.6621 0.4195 -0.6209
vn 0.7952 0.4195 0.4378
vn -0.1707 0.4195 0.8915
vn 0.3859 0.4195 -0.8216
vn -0.7952 0.4195 0.4378
vn -0.6621 0.4195 -0.6209
vn -0.9007 0.4195 0.1132
vn -0.3859 0.4195 -0.8216
usemtl leaves_dark
s off
f 52/1/1 162/2/1 36/3/1 57/4/1
f 78/5/2 34/6/2 44/7/2 80/8/2
f 80/8/3 44/7/3 49/9/3 81/10/3
f 68/11/4 158/12/4 160/13/4 70/14/4
f 73/15/5 142/16/5 34/6/5 78/5/5
f 88/17/6 138/18/6 43/19/6 90/20/6
f 90/20/7 43/19/7 48/21/7 91/22/7
f 59/23/8 46/24/8 171/25/8 61/26/8
f 82/27/9 132/28/9 138/18/9 88/17/9
f 101/29/10 131/30/10 19/31/10 92/32/10
f 98/33/11 128/34/11 130/35/11 100/36/11
f 70/14/12 160/13/12 50/37/12 71/38/12
f 91/22/13 48/21/13 18/39/13 83/40/13
f 81/10/14 49/9/14 17/41/14 74/42/14
f 57/4/15 36/3/15 46/24/15 59/23/15
f 71/38/16 50/37/16 154/43/16 63/44/16
f 61/26/17 171/25/17 164/45/17 60/46/17
f 62/47/18 13/48/18 158/12/18 68/11/18
f 100/36/19 130/35/19 131/30/19 101/29/19
f 95/49/20 12/50/20 128/34/20 98/33/20
f 60/51/21 164/52/21 169/53/21 58/54/21
f 63/55/22 154/56/22 159/57/22 69/58/22
f 74/59/23 17/60/23 149/61/23 79/62/23
f 83/63/24 18/64/24 38/65/24 89/66/24
f 92/67/25 19/68/25 129/69/25 99/70/25
f 53/71/26 16/72/26 162/73/26 52/74/26
f 65/75/27 15/76/27 13/77/27 62/78/27
f 72/79/28 143/80/28 142/81/28 73/82/28
f 85/83/29 133/84/29 132/85/29 82/86/29
f 93/87/30 14/88/30 12/89/30 95/90/30
f 56/91/31 31/92/31 26/93/31 55/94/31
f 67/95/32 30/96/32 25/97/32 66/98/32
f 77/99/33 147/100/33 146/101/33 76/102/33
f 87/103/34 137/104/34 136/105/34 86/106/34
f 97/107/35 27/108/35 126/109/35 96/110/35
f 58/111/36 169/112/36 165/113/36 54/114/36
f 69/115/37 159/116/37 21/117/37 64/118/37
f 79/119/38 149/120/38 145/121/38 75/122/38
f 89/123/39 38/124/39 135/125/39 84/126/39
f 99/127/40 129/128/40 20/129/40 94/130/40
f 54/131/41 165/132/41 31/133/41 56/134/41
f 64/135/42 21/136/42 30/137/42 67/138/42
f 75/139/43 145/140/43 147/141/43 77/142/43
f 84/143/44 135/144/44 137/145/44 87/146/44
f 94/147/45 20/148/45 27/149/45 97/150/45
f 55/151/46 26/152/46 16/153/46 53/154/46
f 66/155/47 25/156/47 15/157/47 65/158/47
f 76/159/48 146/160/48 143/161/48 72/162/48
f 86/163/49 136/164/49 133/165/49 85/166/49
f 96/167/50 126/168/50 14/169/50 93/170/50
f 2/171/51 3/172/51 102/173/51 103/174/51
f 3/172/52 4/175/52 104/176/52 102/173/52
f 10/177/53 11/178/53 105/179/53 176/180/53
f 4/175/54 6/181/54 177/182/54 104/176/54
f 6/181/55 7/183/55 178/184/55 177/182/55
f 7/183/56 8/185/56 109/186/56 178/184/56
f 8/185/57 9/187/57 110/188/57 109/186/57
f 9/187/58 10/177/58 176/180/58 110/188/58
f 1/189/59 2/171/59 103/174/59 111/190/59
f 11/178/60 1/189/60 111/190/60 105/179/60
f 136/164/61 24/191/61 32/192/61 133/165/61
f 135/144/62 29/193/62 23/194/62 137/145/62
f 38/124/63 39/195/63 29/196/63 135/125/63
f 137/104/64 23/197/64 24/198/64 136/105/64
f 133/84/65 32/199/65 28/200/65 132/85/65
f 18/64/66 33/201/66 39/202/66 38/65/66
f 132/28/67 28/203/67 22/204/67 138/18/67
f 43/19/68 37/205/68 35/206/68 48/21/68
f 138/18/69 22/204/69 37/205/69 43/19/69
f 48/21/70 35/206/70 33/207/70 18/39/70
f 146/160/71 42/208/71 45/209/71 143/161/71
f 145/140/72 47/210/72 41/211/72 147/141/72
f 149/120/73 40/212/73 47/213/73 145/121/73
f 147/100/74 41/214/74 42/215/74 146/101/74
f 143/80/75 45/216/75 51/217/75 142/81/75
f 17/60/76 106/218/76 40/219/76 149/61/76
f 49/9/77 107/220/77 106/221/77 17/41/77
f 142/16/78 51/222/78 122/223/78 34/6/78
f 44/7/79 108/224/79 107/220/79 49/9/79
f 34/6/80 122/223/80 108/224/80 44/7/80
f 25/156/81 140/225/81 148/226/81 15/157/81
f 21/136/82 141/227/82 139/228/82 30/137/82
f 159/116/83 125/229/83 141/230/83 21/117/83
f 30/96/84 139/231/84 140/232/84 25/97/84
f 15/76/85 148/233/85 144/234/85 13/77/85
f 154/56/86 123/235/86 125/236/86 159/57/86
f 50/37/87 134/237/87 123/238/87 154/43/87
f 13/48/88 144/239/88 127/240/88 158/12/88
f 160/13/89 124/241/89 134/237/89 50/37/89
f 158/12/90 127/240/90 124/241/90 160/13/90
f 26/152/91 163/242/91 166/243/91 16/153/91
f 165/132/92 153/244/92 161/245/92 31/133/92
f 169/112/93 152/246/93 153/247/93 165/113/93
f 31/92/94 161/248/94 163/249/94 26/93/94
f 16/72/95 166/250/95 155/251/95 162/73/95
f 164/52/96 150/252/96 152/253/96 169/53/96
f 162/2/97 155/254/97 157/255/97 36/3/97
f 171/25/98 151/256/98 150/257/98 164/45/98
f 46/24/99 156/258/99 151/256/99 171/25/99
f 36/3/100 157/255/100 156/258/100 46/24/100
f 178/259/101 168/260/101 170/261/101 177/262/101
f 110/263/102 180/264/102 179/265/102 109/266/102
f 176/267/103 167/268/103 180/269/103 110/270/103
f 109/271/104 179/272/104 168/273/104 178/274/104
f 177/275/105 170/276/105 181/277/105 104/278/105
f 105/279/106 172/280/106 167/281/106 176/282/106
f 111/283/107 173/284/107 172/285/107 105/286/107
f 102/287/108 175/288/108 174/289/108 103/290/108
f 103/290/109 174/289/109 173/284/109 111/283/109
f 104/291/110 181/292/110 175/288/110 102/287/110
usemtl Branch
f 6/181/111 4/175/111 114/293/111 117/294/111
f 120/295/112 119/296/112 118/297/112 117/294/112 114/293/112 112/298/112 113/299/112 121/300/112 115/301/112 116/302/112
f 3/172/113 2/171/113 113/299/113 112/298/113
f 10/177/114 9/187/114 120/295/114 116/302/114
f 7/183/115 6/181/115 117/294/115 118/297/115
f 4/175/116 3/172/116 112/298/116 114/293/116
f 2/171/117 1/189/117 121/300/117 113/299/117
f 8/185/118 7/183/118 118/297/118 119/296/118
f 11/178/119 10/177/119 116/302/119 115/301/119
f 1/189/120 11/178/120 115/301/120 121/300/120
f 9/187/121 8/185/121 119/296/121 120/295/121
usemtl Snow
f 126/168/122 5/303/122 14/169/122
f 20/148/123 5/304/123 27/149/123
f 129/128/124 5/305/124 20/129/124
f 27/108/125 5/306/125 126/109/125
f 14/88/126 5/307/126 12/89/126
f 19/68/127 5/308/127 129/69/127
f 12/50/128 5/309/128 128/34/128
f 128/34/129 5/310/129 130/35/129
f 130/35/130 5/311/130 131/30/130
f 131/30/131 5/312/131 19/31/131
f 168/260/132 55/151/132 53/154/132 170/261/132
f 180/264/133 54/131/133 56/134/133 179/265/133
f 167/268/134 58/111/134 54/114/134 180/269/134
f 179/272/135 56/91/135 55/94/135 168/273/135
f 170/276/136 53/71/136 52/74/136 181/277/136
f 172/280/137 60/51/137 58/54/137 167/281/137
f 173/284/138 61/26/138 60/46/138 172/285/138
f 175/288/139 57/4/139 59/23/139 174/289/139
f 174/289/140 59/23/140 61/26/140 173/284/140
f 181/292/141 52/1/141 57/4/141 175/288/141
f 163/242/142 66/155/142 65/158/142 166/243/142
f 153/244/143 64/135/143 67/138/143 161/245/143
f 152/246/144 69/115/144 64/118/144 153/247/144
f 161/248/145 67/95/145 66/98/145 163/249/145
f 166/250/146 65/75/146 62/78/146 155/251/146
f 150/252/147 63/55/147 69/58/147 152/253/147
f 155/254/148 62/47/148 68/11/148 157/255/148
f 151/256/149 71/38/149 63/44/149 150/257/149
f 156/258/150 70/14/150 71/38/150 151/256/150
f 157/255/151 68/11/151 70/14/151 156/258/151
f 140/225/152 76/159/152 72/162/152 148/226/152
f 141/227/153 75/139/153 77/142/153 139/228/153
f 125/229/154 79/119/154 75/122/154 141/230/154
f 139/231/155 77/99/155 76/102/155 140/232/155
f 148/233/156 72/79/156 73/82/156 144/234/156
f 123/235/157 74/59/157 79/62/157 125/236/157
f 134/237/158 81/10/158 74/42/158 123/238/158
f 144/239/159 73/15/159 78/5/159 127/240/159
f 124/241/160 80/8/160 81/10/160 134/237/160
f 127/240/161 78/5/161 80/8/161 124/241/161
f 42/208/162 86/163/162 85/166/162 45/209/162
f 47/210/163 84/143/163 87/146/163 41/211/163
f 40/212/164 89/123/164 84/126/164 47/213/164
f 41/214/165 87/103/165 86/106/165 42/215/165
f 45/216/166 85/83/166 82/86/166 51/217/166
f 106/218/167 83/63/167 89/66/167 40/219/167
f 107/220/168 91/22/168 83/40/168 106/221/168
f 51/222/169 82/27/169 88/17/169 122/223/169
f 108/224/170 90/20/170 91/22/170 107/220/170
f 122/223/171 88/17/171 90/20/171 108/224/171
f 24/191/172 96/167/172 93/170/172 32/192/172
f 29/193/173 94/147/173 97/150/173 23/194/173
f 39/195/174 99/127/174 94/130/174 29/196/174
f 23/197/175 97/107/175 96/110/175 24/198/175
f 32/199/176 93/87/176 95/90/176 28/200/176
f 33/201/177 92/67/177 99/70/177 39/202/177
f 28/203/178 95/49/178 98/33/178 22/204/178
f 37/205/179 100/36/179 101/29/179 35/206/179
f 22/204/180 98/33/180 100/36/180 37/205/180
f 35/206/181 101/29/181 92/32/181 33/207/181
