# Blender v2.81 (sub 16) OBJ File: 'Nature Pack Low Poly.blend'
# www.blender.org
mtllib Pine_Tree_2_Dead.mtl
o Pine_Tree_2_Dead_Cube.023
v 0.115651 -0.150681 0.161829
v -0.118629 -0.140377 -0.157750
v -0.156175 -0.152413 0.121138
v -0.097104 0.378715 -0.100835
v 0.121309 0.378209 -0.069786
v 0.008954 3.716187 0.018536
v -0.958388 4.720169 0.017670
v -0.913953 4.787601 0.112730
v -0.834210 3.748188 0.016985
v -0.813327 3.822548 0.018714
v -0.766875 3.808938 0.113059
v -0.454121 4.642741 0.021317
v -0.082627 1.840860 1.036515
v -0.104541 1.790540 -1.229976
v -0.114056 3.711662 0.351086
v -0.002492 3.684395 0.553368
v -0.416746 3.602246 -0.265804
v -0.431515 3.684425 -0.239679
v -0.576463 4.660149 0.381635
v -0.531084 4.723180 0.278820
v -0.625528 4.585178 -0.244343
v -0.540381 4.577795 -0.214636
v -0.361298 3.585361 0.217483
v -0.371828 3.664379 0.193116
v 0.214224 2.653642 0.579561
v 0.353536 2.691056 0.819749
v -0.659506 2.773725 -0.570373
v 0.157876 -0.140377 -0.118461
v 0.086145 0.946519 0.114411
v -0.114561 0.934060 0.086418
v -0.086022 0.935307 -0.114442
v 0.114272 0.955949 -0.086463
v -0.038004 1.549077 0.135033
v -0.196139 1.522753 0.111865
v -0.175252 1.538001 -0.048033
v -0.017117 1.564325 -0.024866
v -0.162293 2.732636 -0.050284
v -0.171520 2.732704 0.083076
v -0.304618 2.751024 0.073864
v -0.295392 2.750956 -0.059495
v -0.271279 3.530549 -0.000121
v -0.277612 3.529314 0.097411
v -0.377770 3.552485 0.090926
v -0.369456 3.543278 -0.006789
v -0.420444 3.681788 0.094988
v -0.446654 3.786751 0.091780
v -0.433622 3.789909 -0.000925
v -0.328850 3.710223 0.105200
v -0.660315 4.478461 0.103224
v -0.646407 4.478688 0.010535
v -0.559038 4.482630 0.025855
v -0.573068 4.482872 0.118552
v -0.570576 4.707596 0.032834
v -0.570576 4.707596 0.103468
v -0.637850 4.729123 0.103468
v -0.637850 4.729123 0.032834
v -0.713116 5.134923 0.086648
v -0.311259 1.626083 0.123962
v -0.311259 1.626083 -0.018137
v -0.292722 1.766967 -0.018137
v -0.292722 1.766967 0.123962
v -1.067652 1.750330 0.099730
v -1.067198 1.750258 0.006036
v -1.038614 1.840840 0.099968
v -1.590383 1.928123 0.053141
v -1.038135 1.840740 0.006193
v -0.243388 3.590137 0.004461
v -0.244138 3.589735 0.097292
v -0.278346 3.675643 0.097525
v -0.301640 3.688140 0.008919
v 0.058566 3.633770 0.016341
v 0.057831 3.634282 0.110640
v 0.006608 3.716337 0.112301
v 0.414468 3.754383 0.065906
v -0.726828 4.576170 0.111883
v -0.963122 4.723593 0.111683
v -0.912353 4.786299 0.019887
v -1.094532 4.867561 0.041298
v 0.053433 1.607362 -0.018137
v 0.049882 1.749417 0.123962
v 0.053433 1.607362 0.123962
v 0.049882 1.749417 -0.018137
v 0.849689 1.651845 0.005933
v 0.849996 1.651819 0.099905
v 0.833343 1.744641 0.005990
v 1.768621 1.830159 0.052659
v 0.833775 1.744909 0.099680
v -0.421923 3.608973 0.098180
v -0.834694 3.750575 0.111742
v -0.406594 3.592293 -0.000251
v -1.018338 3.846318 0.066572
v -0.580922 4.631660 0.108283
v -0.581648 4.625622 0.006046
v -0.398050 4.561066 0.019044
v -0.400382 4.559696 0.114979
v -0.161857 4.759644 0.069154
v -0.454018 4.643214 0.113872
v -0.058149 1.623375 0.230493
v -0.201251 1.623375 0.230493
v -0.201251 1.765430 0.213216
v -0.058149 1.765430 0.213216
v -0.082868 1.749244 1.059762
v -0.176584 1.749239 1.059636
v -0.129584 1.772885 1.637879
v -0.176600 1.840851 1.037161
v -0.206643 1.611122 -0.112087
v -0.067570 1.611122 -0.118215
v -0.206391 1.750213 -0.106362
v -0.207883 1.657732 -0.666083
v -0.067317 1.750212 -0.112491
v -0.114246 1.656732 -0.661238
v -0.113383 1.747992 -0.633687
v -0.207222 1.749198 -0.636220
v -0.066211 3.632188 0.386012
v -0.140076 3.635811 0.444564
v -0.181632 3.715985 0.419336
v -0.317521 3.584849 -0.046265
v -0.341140 3.673853 -0.037861
v -0.422672 3.683559 0.003747
v -0.503517 3.604231 -0.235106
v -0.516285 3.654138 -0.399372
v -0.516574 3.686189 -0.206016
v -0.642795 4.559824 0.167363
v -0.495178 4.657718 0.350400
v -0.672418 4.637630 0.128512
v -0.606303 4.735957 0.336370
v -0.501657 4.680854 0.453353
v -0.568350 4.539961 -0.026476
v -0.676016 4.626842 -0.023030
v -0.645003 4.558230 -0.128670
v -0.556414 4.556678 -0.115679
v -0.572893 4.644166 -0.097006
v -0.563974 4.654387 -0.167968
v -0.648719 4.659010 -0.188652
v -0.546438 4.651348 -0.305639
v -0.445580 3.584764 0.176776
v -0.456257 3.667250 0.156867
v -0.542522 3.727395 0.504407
v -0.240180 1.813205 0.024531
v -0.030411 1.823625 0.064752
v -0.155656 1.823625 0.149478
v -0.298270 2.460560 -0.007561
v -0.114935 1.813205 -0.060195
v -0.182245 2.460666 -0.087062
v -0.104652 2.469084 0.030478
v -0.076135 2.525604 0.095082
v -0.223570 2.488550 0.110946
v -0.206355 2.650962 0.171071
v -0.099360 2.650247 0.096415
v 0.278750 2.614038 0.673442
v 0.173512 2.578938 0.639749
v 0.149656 2.654018 0.625926
v -0.360248 2.552225 -0.091864
v -0.260680 2.674037 -0.141473
v -0.369241 2.674771 -0.069237
v -0.660188 2.701737 -0.594058
v -0.251315 2.551620 -0.164144
v -0.593433 2.701232 -0.637014
v -0.593420 2.773278 -0.614328
v -0.759926 2.801327 -0.831195
v -0.727001 4.576173 0.017939
v -0.693576 4.651699 0.019586
v -0.680607 4.646362 0.122800
v -0.347185 3.670419 0.141001
v -0.553269 4.547161 0.125159
v -0.548131 4.536017 0.018350
v -0.656939 4.541513 -0.039467
v -0.387918 3.562161 0.091420
v -0.319378 3.585336 0.143129
vn 0.1114 0.3481 0.9308
vn 0.4145 0.8399 -0.3504
vn 0.5375 -0.8433 -0.0000
vn -0.0355 -0.6645 -0.7464
vn -0.4615 -0.2356 -0.8553
vn 0.5216 -0.8531 -0.0132
vn -0.7738 0.3539 -0.5253
vn -0.1453 -0.2184 0.9650
vn -0.5455 -0.6724 -0.5003
vn -0.2919 0.7104 0.6404
vn 0.4473 0.8012 0.3976
vn 0.6423 0.0925 0.7608
vn 0.6269 0.0309 -0.7785
vn 0.6375 0.0159 -0.7702
vn 0.6917 0.0173 0.7219
vn 0.4806 -0.6400 0.5995
vn 0.4625 -0.6669 -0.5843
vn -0.5331 -0.6564 0.5338
vn 0.4427 0.4783 0.7585
vn 0.9870 0.0554 0.1507
vn -0.0344 0.6228 -0.7816
vn 0.4205 0.7463 -0.5160
vn 0.6787 0.7344 -0.0000
vn -0.6606 0.7507 0.0000
vn 0.5629 -0.2018 -0.8015
vn 0.5401 0.2200 -0.8123
vn 0.6332 0.4063 -0.6588
vn 0.1390 0.4342 -0.8900
vn 0.5615 0.8269 -0.0310
vn 0.9059 0.1519 -0.3953
vn -0.2073 -0.7066 0.6765
vn 0.5112 -0.2816 0.8120
vn 0.8774 -0.2378 -0.4167
vn -0.0247 0.9617 -0.2728
vn 0.1399 0.1022 -0.9849
vn -0.4436 -0.4465 0.7771
vn -0.2654 0.3472 0.8994
vn -0.5108 0.2066 0.8345
vn 0.3919 -0.2127 0.8951
vn 0.9416 -0.3047 0.1433
vn 0.9794 -0.1907 0.0670
vn -0.8178 0.4922 0.2982
vn -0.7680 -0.1492 0.6228
vn 0.4437 0.4354 -0.7833
vn 0.6043 0.1895 -0.7738
vn 0.7474 0.6624 0.0514
vn 0.2807 -0.0988 -0.9547
vn -0.8674 0.4794 0.1338
vn 0.2575 -0.7807 0.5694
vn 0.0441 -0.0393 -0.9983
vn 0.9342 0.2985 0.1955
vn -0.1552 -0.0661 0.9857
vn -0.9463 -0.2900 -0.1427
vn 0.0446 0.1395 -0.9892
vn -0.0803 0.0275 -0.9964
vn -0.0809 0.0233 0.9965
vn 0.1071 0.0908 -0.9901
vn 0.3200 -0.9474 0.0076
vn -0.0777 0.0874 -0.9931
vn -0.2820 0.2013 0.9381
vn 0.0058 1.0000 -0.0000
vn 0.0298 0.0076 0.9995
vn 0.1905 -0.9817 -0.0009
vn 0.0492 0.0110 0.9987
vn 0.0490 0.0092 -0.9988
vn -0.3193 -0.9413 0.1098
vn 0.3341 0.9421 -0.0286
vn -0.2173 0.0836 -0.9725
vn -0.1564 0.1598 0.9747
vn 0.1181 0.1086 -0.9870
vn 0.1164 0.0879 0.9893
vn 0.9967 0.0176 0.0798
vn -0.9966 0.0195 0.0802
vn 0.9963 0.0017 -0.0855
vn 0.0130 0.9999 -0.0054
vn 0.0014 -0.9734 -0.2290
vn 0.0109 0.9974 0.0713
vn -0.9842 0.0613 -0.1659
vn 0.7769 0.3108 -0.5475
vn 0.0450 -0.9920 0.1181
vn 0.8463 0.3235 -0.4232
vn 0.1460 -0.9588 0.2435
vn 0.8851 0.2706 -0.3786
vn -0.0356 -0.9987 -0.0361
vn -0.1208 -0.9524 -0.2800
vn 0.8168 0.3029 -0.4910
vn -0.0442 0.9856 -0.1634
vn -0.9167 -0.1680 0.3625
vn -0.1408 0.9115 -0.3864
vn -0.7051 0.1378 0.6956
vn 0.8952 0.4436 -0.0434
vn 0.0186 0.9893 0.1448
vn 0.9670 0.2258 0.1182
vn 0.8698 0.2475 0.4268
vn -0.1638 -0.9213 0.3526
vn -0.9622 -0.1749 -0.2086
vn -0.5580 -0.0910 -0.8248
vn 0.8308 0.0634 -0.5530
vn 0.8435 0.1567 -0.5137
vn 0.1786 -0.9053 0.3853
vn -0.1409 -0.9687 -0.2042
vn 0.8232 0.1704 -0.5416
vn -0.9317 -0.1055 0.3476
vn -0.2034 -0.9303 -0.3052
vn 0.1408 -0.0269 -0.9897
vn -0.9850 0.0266 -0.1706
vn -0.1449 0.0380 0.9887
vn -0.3710 -0.7501 -0.5475
vn 0.1402 0.1023 -0.9848
vn -0.9899 0.0554 -0.1309
vn -0.6932 0.0891 0.7153
vn 0.0188 -0.7732 0.6339
vn 0.9169 0.1126 -0.3830
vn 0.9936 0.0259 0.1098
vn 0.2443 0.0375 0.9690
vn 0.2872 0.2623 -0.9213
vn -0.6128 -0.7860 -0.0821
vn 0.3984 -0.7625 -0.5098
vn 0.8028 0.0217 -0.5958
vn -0.8411 -0.1629 0.5157
vn 0.9909 -0.1345 0.0005
vn 0.0088 -0.9992 -0.0387
vn -0.6837 0.0608 -0.7272
vn -0.4117 0.8596 0.3026
vn 0.1633 0.8401 0.5172
vn 0.1042 -0.7643 -0.6364
vn -0.3252 0.8166 -0.4769
vn 0.2459 0.6597 0.7102
vn -0.1296 0.6951 -0.7071
vn -0.6662 -0.1488 0.7308
vn -0.7995 -0.5977 -0.0596
vn -0.9249 0.2560 0.2812
vn -0.3552 -0.5303 0.7698
vn 0.8895 -0.4559 0.0292
vn 0.1317 -0.6300 -0.7653
vn -0.6882 -0.2884 -0.6658
vn -0.7930 -0.6090 -0.0152
vn -0.7654 0.5935 -0.2489
vn -0.1344 -0.0615 0.9890
vn -0.9815 -0.1299 -0.1404
vn 0.1239 0.1266 -0.9842
vn 0.9700 0.1949 0.1451
vn 0.9891 0.1307 0.0673
vn -0.0720 -0.0277 0.9970
vn -0.9935 -0.0886 -0.0719
vn 0.0781 0.0733 -0.9942
vn -0.9826 -0.1751 -0.0624
vn 0.1418 0.0639 -0.9878
vn -0.1116 0.0025 0.9938
vn -0.9463 -0.2900 -0.1429
vn -0.1621 -0.9868 -0.0000
vn 0.9445 0.2961 0.1422
vn -0.1693 -0.0686 0.9832
vn 0.9486 0.3164 0.0000
vn 0.0141 0.0440 0.9989
vn -0.9832 -0.1824 -0.0000
vn -0.0314 0.0071 -0.9995
vn 0.0985 0.9951 -0.0002
vn -0.0314 0.0054 0.9995
vn 0.1444 -0.9895 0.0017
vn -0.3219 -0.9468 -0.0008
vn 0.1563 0.9877 -0.0003
vn -0.0430 -0.0331 0.9985
vn -0.1175 0.9898 0.0805
vn 0.0287 0.0540 -0.9981
vn -0.5288 -0.8487 0.0026
vn -0.0933 0.9956 -0.0039
vn 0.1085 0.0476 0.9930
vn 0.0125 0.0203 -0.9997
vn 0.5210 0.8535 -0.0127
vn -0.0532 -0.0511 0.9973
vn 0.0558 -0.9984 -0.0002
vn -0.7355 -0.6774 -0.0124
vn 0.4068 0.9135 -0.0058
vn 0.0310 0.0008 0.9995
vn 0.0304 0.0028 -0.9995
vn 0.0062 1.0000 -0.0029
vn 0.0393 -0.0065 0.9992
vn -0.0909 0.9959 -0.0024
vn 0.3450 0.9386 0.0098
vn -0.0266 0.0353 -0.9990
vn -0.3417 -0.9396 0.0219
vn 0.1246 -0.9908 0.0524
vn -0.4660 -0.8845 0.0199
vn 0.1326 0.9882 0.0772
vn 0.0069 0.1097 0.9939
vn -0.1093 0.9935 -0.0327
vn 0.0614 -0.0263 -0.9978
vn -0.0001 -0.9887 0.1501
vn -0.3708 0.9287 -0.0043
vn 0.6429 -0.7659 0.0047
vn -0.9996 0.0049 0.0292
vn -0.0003 0.9958 -0.0912
vn 0.9996 0.0040 0.0293
vn -0.0047 -0.9965 -0.0836
vn 0.0007 0.9937 0.1124
vn 0.0000 -0.9992 0.0409
vn -1.0000 0.0036 0.0021
vn -0.0001 1.0000 -0.0019
vn -0.8122 -0.2540 0.5252
vn 0.9960 0.0172 -0.0881
vn 0.9998 -0.0136 0.0139
vn 0.1164 -0.9885 0.0963
vn -0.0869 0.9914 -0.0981
vn 0.0692 0.9976 0.0010
vn 0.8071 0.2511 -0.5343
vn 0.1272 0.9899 0.0633
vn -0.6051 -0.0639 0.7936
vn -0.1004 -0.9944 -0.0334
vn 0.8817 0.2793 -0.3802
vn -0.8984 -0.2233 0.3782
vn 0.0954 -0.9077 0.4085
vn -0.9857 -0.1663 0.0261
vn 0.9197 0.1859 -0.3457
vn -0.0444 0.8856 -0.4623
vn -0.0354 0.9829 0.1808
vn -0.9206 -0.1462 0.3620
vn 0.0563 -0.9734 0.2223
vn 0.2955 0.9387 0.1778
vn -0.9703 -0.1610 -0.1803
vn 0.0034 -0.9759 -0.2180
vn 0.9704 0.1679 0.1735
vn 0.0499 -0.9841 0.1706
vn -0.9679 -0.1540 -0.1988
vn 0.1527 -0.7636 -0.6274
vn 0.0580 0.9982 -0.0146
vn -0.7182 0.2609 -0.6450
vn -0.8292 -0.2188 -0.5144
vn -0.0030 0.9844 0.1761
vn 0.8462 0.2717 0.4583
vn 0.5630 0.1066 0.8196
vn 0.0964 0.9845 -0.1465
vn 0.8240 0.0649 -0.5628
vn -0.8322 -0.0502 0.5522
vn 0.2766 -0.9604 -0.0327
vn -0.5628 -0.0926 -0.8214
vn -0.7796 -0.1408 0.6102
vn 0.0010 1.0000 -0.0076
vn 0.8320 0.1423 -0.5362
vn 0.0983 0.9856 0.1377
vn -0.0742 0.9910 -0.1113
vn -0.6789 -0.0814 0.7297
vn 0.8226 0.1638 -0.5445
vn -0.8680 -0.1498 0.4735
vn -0.1396 -0.9687 -0.2055
vn 0.0611 0.9948 0.0817
vn 0.7910 0.1836 -0.5836
usemtl Branch
s off
f 54//1 55//1 123//1
f 143//2 140//2 82//2
f 81//3 33//3 79//3
f 117//4 41//4 44//4
f 90//5 117//5 44//5
f 33//6 36//6 79//6
f 129//7 161//7 162//7
f 129//8 167//8 128//8
f 59//9 106//9 35//9
f 48//10 45//10 164//10
f 101//11 80//11 140//11
f 101//12 98//12 80//12
f 110//13 82//13 107//13
f 82//14 79//14 107//14
f 98//15 81//15 80//15
f 98//16 33//16 81//16
f 79//17 36//17 107//17
f 99//18 58//18 34//18
f 69//19 48//19 164//19
f 1//20 28//20 5//20
f 108//21 143//21 110//21
f 143//22 82//22 110//22
f 140//23 80//23 82//23
f 61//24 139//24 60//24
f 117//25 67//25 41//25
f 117//26 118//26 67//26
f 118//27 70//27 67//27
f 129//28 56//28 53//28
f 70//29 48//29 69//29
f 128//30 53//30 166//30
f 43//31 42//31 169//31
f 42//32 68//32 169//32
f 128//33 166//33 51//33
f 70//34 118//34 119//34
f 28//35 2//35 4//35
f 88//36 43//36 169//36
f 55//37 163//37 123//37
f 163//38 75//38 123//38
f 52//39 165//39 123//39
f 52//40 51//40 165//40
f 51//41 166//41 165//41
f 75//42 163//42 55//42
f 147//43 148//43 39//43
f 169//44 168//44 88//44
f 157//45 154//45 37//45
f 38//46 149//46 37//46
f 165//47 92//47 54//47
f 162//48 163//48 55//48
f 147//49 145//49 146//49
f 47//50 70//50 119//50
f 48//51 70//51 51//51
f 46//52 48//52 52//52
f 50//53 46//53 49//53
f 57//54 53//54 56//54
f 66//55 63//55 65//55
f 65//56 62//56 64//56
f 71//57 6//57 74//57
f 74//58 72//58 71//58
f 78//59 77//59 7//59
f 76//60 8//60 78//60
f 82//61 80//61 87//61
f 84//62 87//62 81//62
f 86//63 84//63 83//63
f 87//64 84//64 86//64
f 86//65 83//65 85//65
f 90//66 88//66 89//66
f 11//67 119//67 10//67
f 91//68 10//68 9//68
f 89//69 11//69 91//69
f 94//70 12//70 96//70
f 97//71 95//71 96//71
f 102//72 13//72 104//72
f 104//73 105//73 103//73
f 110//74 107//74 111//74
f 112//75 113//75 110//75
f 14//76 111//76 109//76
f 14//77 113//77 112//77
f 14//78 109//78 113//78
f 68//79 69//79 15//79
f 114//80 115//80 68//80
f 114//81 15//81 16//81
f 16//82 115//82 114//82
f 118//83 117//83 17//83
f 17//84 90//84 120//84
f 121//85 17//85 120//85
f 121//86 18//86 17//86
f 122//87 18//87 121//87
f 125//88 123//88 19//88
f 126//89 20//89 125//89
f 127//90 126//90 19//90
f 124//91 20//91 127//91
f 133//92 134//92 132//92
f 135//93 133//93 22//93
f 23//94 24//94 138//94
f 138//95 136//95 23//95
f 138//96 137//96 136//96
f 143//97 139//97 142//97
f 144//98 145//98 143//98
f 150//99 25//99 26//99
f 26//100 151//100 150//100
f 157//101 153//101 156//101
f 158//102 159//102 157//102
f 156//103 27//103 160//103
f 160//104 158//104 156//104
f 4//105 31//105 32//105 5//105
f 4//106 3//106 30//106 31//106
f 1//107 29//107 30//107 3//107
f 144//108 142//108 153//108 157//108
f 5//109 28//109 4//109
f 4//110 2//110 3//110
f 58//111 99//111 100//111 61//111
f 33//112 98//112 99//112 34//112
f 149//113 146//113 145//113 37//113
f 5//114 32//114 29//114 1//114
f 88//115 168//115 45//115
f 53//116 93//116 129//116
f 34//117 58//117 59//117 35//117
f 92//118 54//118 123//118 125//118
f 37//119 145//119 144//119 157//119
f 39//120 153//120 142//120 147//120
f 53//121 54//121 92//121 93//121
f 28//122 1//122 3//122 2//122
f 108//123 106//123 59//123 60//123
f 141//124 139//124 61//124 100//124
f 101//125 140//125 141//125 100//125
f 107//126 36//126 35//126 106//126
f 108//127 60//127 139//127 143//127
f 38//128 39//128 148//128 149//128
f 40//129 37//129 154//129 155//129
f 53//130 93//130 166//130
f 49//131 75//131 161//131 50//131
f 155//132 153//132 39//132 40//132
f 123//133 75//133 49//133 52//133
f 68//134 42//134 41//134 67//134
f 50//135 167//135 128//135 51//135
f 161//136 129//136 167//136 50//136
f 43//137 88//137 90//137 44//137
f 162//138 55//138 56//138 129//138
f 30//139 29//139 33//139 34//139
f 30//140 34//140 35//140 31//140
f 31//141 35//141 36//141 32//141
f 32//142 36//142 33//142 29//142
f 37//143 41//143 42//143 38//143
f 38//144 42//144 43//144 39//144
f 39//145 43//145 44//145 40//145
f 40//146 44//146 41//146 37//146
f 119//147 45//147 46//147 47//147
f 70//148 47//148 50//148 51//148
f 46//149 45//149 48//149
f 46//150 50//150 47//150
f 58//151 62//151 63//151 59//151
f 52//152 48//152 51//152
f 49//153 46//153 52//153
f 57//154 54//154 53//154
f 57//155 55//155 54//155
f 57//156 56//156 55//156
f 59//157 63//157 66//157 60//157
f 60//158 66//158 64//158 61//158
f 58//159 61//159 64//159 62//159
f 67//160 71//160 72//160 68//160
f 65//161 63//161 62//161
f 65//162 64//162 66//162
f 68//163 72//163 73//163 69//163
f 69//164 73//164 6//164 70//164
f 67//165 70//165 6//165 71//165
f 75//166 76//166 7//166 161//166
f 73//167 74//167 6//167
f 74//168 73//168 72//168
f 161//169 7//169 77//169 162//169
f 162//170 77//170 8//170 163//170
f 75//171 163//171 8//171 76//171
f 79//172 83//172 84//172 81//172
f 76//173 78//173 7//173
f 78//174 8//174 77//174
f 81//175 87//175 80//175
f 82//176 85//176 83//176 79//176
f 85//177 82//177 87//177
f 45//178 11//178 89//178 88//178
f 86//179 85//179 87//179
f 119//180 11//180 45//180
f 90//181 9//181 10//181 119//181
f 9//182 90//182 89//182
f 166//183 94//183 95//183 165//183
f 89//184 91//184 9//184
f 91//185 11//185 10//185
f 165//186 95//186 97//186 92//186
f 92//187 97//187 12//187 93//187
f 166//188 93//188 12//188 94//188
f 98//189 102//189 103//189 99//189
f 97//190 96//190 12//190
f 96//191 95//191 94//191
f 99//192 103//192 105//192 100//192
f 100//193 105//193 13//193 101//193
f 101//194 13//194 102//194 98//194
f 106//195 109//195 111//195 107//195
f 104//196 13//196 105//196
f 104//197 103//197 102//197
f 106//198 108//198 113//198 109//198
f 113//199 108//199 110//199
f 164//200 169//200 115//200 116//200
f 112//201 110//201 111//201
f 14//202 112//202 111//202
f 115//203 169//203 68//203
f 69//204 164//204 116//204 15//204
f 118//205 18//205 122//205 119//205
f 15//206 114//206 68//206
f 116//207 16//207 15//207
f 16//208 116//208 115//208
f 90//209 17//209 117//209
f 17//210 18//210 118//210
f 119//211 122//211 120//211 90//211
f 123//212 165//212 124//212 19//212
f 121//213 120//213 122//213
f 92//214 20//214 124//214 165//214
f 125//215 20//215 92//215
f 129//216 93//216 132//216 134//216
f 19//217 126//217 125//217
f 127//218 19//218 124//218
f 126//219 127//219 20//219
f 129//220 134//220 130//220 167//220
f 130//221 21//221 22//221 131//221
f 131//222 22//222 133//222 132//222
f 168//223 169//223 23//223 136//223
f 134//224 21//224 130//224
f 21//225 135//225 22//225
f 135//226 134//226 133//226
f 135//227 21//227 134//227
f 168//228 136//228 137//228 45//228
f 45//229 137//229 24//229 164//229
f 169//230 164//230 24//230 23//230
f 141//231 140//231 145//231 147//231
f 137//232 138//232 24//232
f 143//233 145//233 140//233
f 139//234 141//234 147//234 142//234
f 146//235 150//235 151//235 147//235
f 144//236 143//236 142//236
f 148//237 147//237 151//237 152//237
f 148//238 152//238 25//238 149//238
f 149//239 25//239 150//239 146//239
f 154//240 159//240 27//240 155//240
f 152//241 26//241 25//241
f 26//242 152//242 151//242
f 159//243 154//243 157//243
f 155//244 27//244 156//244 153//244
f 158//245 157//245 156//245
f 160//246 27//246 159//246
f 160//247 159//247 158//247
l 131 128
