# Blender v2.81 (sub 16) OBJ File: 'Nature Pack Low Poly.blend'
# www.blender.org
mtllib Pine_Tree_2_Winter.mtl
o Pine_Tree_2_Winter_Cylinder.045
v -0.226733 1.509184 -0.170935
v -0.339853 1.501316 -0.085986
v -0.300126 1.509572 0.047976
v -0.251370 1.500888 0.179585
v -1.336962 6.266683 -0.175990
v -0.108550 1.508551 0.183931
v 0.035773 1.499479 0.180425
v 0.083266 1.507604 0.049055
v 0.124802 1.499147 -0.084618
v 0.010083 1.507961 -0.170284
v -0.108300 1.500192 -0.249387
v -1.082738 5.412637 0.099977
v -0.923209 3.706360 0.640278
v -0.952832 1.937849 1.145359
v -0.872728 5.356708 0.241781
v -0.127114 1.931339 -1.444036
v -0.178210 2.611188 -1.388459
v -0.457943 3.768399 -0.904712
v -0.587784 4.494483 -0.764831
v -0.697700 5.588043 -0.207213
v -0.049698 4.713914 -0.293745
v -0.794825 5.559371 0.099657
v -0.935429 4.653357 -0.504996
v -1.165996 4.405244 -0.272931
v -0.398731 4.892074 -0.507232
v 0.731601 1.919134 1.144792
v -0.565126 5.496838 -0.003629
v -0.179729 4.920778 0.091057
v 0.436842 3.670983 0.261833
v -0.345754 4.765548 0.431375
v 1.578250 1.719468 0.523181
v -1.167299 5.189939 -0.002960
v -1.119432 4.506105 0.095043
v -1.300096 3.403593 0.278549
v -1.261462 2.778401 0.339921
v -1.731810 1.731814 0.517141
v -0.669588 5.416675 -0.400043
v -0.980510 4.521422 0.437361
v 0.109827 3.622260 -0.887206
v -0.692952 4.817280 0.434278
v 0.933565 1.720403 -1.392025
v -0.627050 4.602541 -0.715368
v -1.117023 4.606060 0.076894
v -0.248203 4.991211 0.073306
v -0.130828 4.807155 -0.281620
v -1.433548 1.939285 -0.449405
v -1.041751 5.227001 -0.399629
v -0.947192 3.597710 -0.821093
v -1.146672 3.734243 -0.296370
v -0.119974 4.001029 0.580782
v -0.498456 3.726329 0.900473
v -0.781656 2.272990 0.890579
v -0.181954 2.251871 1.074073
v 0.866985 2.237640 -0.366670
v 0.463575 2.247321 0.881995
v 0.846079 2.228349 0.316247
v -1.140730 2.255943 0.327771
v 0.448709 2.241688 -0.905861
v -1.148429 2.262002 -0.353586
v -0.152939 2.271371 -1.131867
v -0.755526 2.261400 -0.895895
v -0.779443 3.137488 0.670784
v -0.294689 3.172761 -0.896148
v 0.427928 3.214802 -0.308181
v -0.357011 3.187002 0.846270
v 0.132414 3.214478 0.661397
v 0.432234 3.232380 0.231083
v -1.101277 3.085035 0.243047
v 0.144968 3.210505 -0.754574
v -1.060433 3.072963 -0.294990
v -0.789032 3.114952 -0.745601
v -0.560616 4.109891 0.528827
v -0.846663 4.027394 0.433619
v -0.511040 4.088724 -0.669248
v -0.043889 4.232217 -0.256431
v -0.245472 4.205520 0.426106
v -0.061520 4.240788 0.115215
v -1.031903 3.942462 0.124158
v -0.231023 4.166972 -0.545550
v -1.028050 3.935606 -0.245718
v -0.829464 3.980776 -0.539915
v -0.876211 4.778408 0.214579
v -0.664086 4.836361 -0.456230
v -0.362887 4.991195 -0.201511
v -0.688913 4.884814 0.299049
v -0.490747 4.958257 0.213470
v -0.354176 5.026637 0.032113
v -1.009903 4.715638 0.033101
v -0.468310 4.945481 -0.398806
v -0.991181 4.697942 -0.200247
v -0.873564 4.753219 -0.398196
v -0.962936 5.526890 -0.292250
v -0.967226 5.533666 0.028002
v -0.824828 5.604759 -0.177894
v -1.057980 5.498906 0.007484
v -0.883565 5.587456 0.007352
v -0.833950 5.593711 -0.078539
v -1.096417 5.461089 -0.078355
v -0.878959 5.559528 -0.250537
v -1.107043 5.461493 -0.177681
v -1.041469 5.477322 -0.250457
v 0.150601 4.023227 -0.311999
v -2.004994 0.918434 -0.641585
v -0.481766 3.891818 -0.852883
v 0.043015 3.775178 -0.830764
v -1.266560 3.555219 0.250184
v -0.031557 1.102897 1.706125
v 1.207558 0.916686 1.665779
v 1.616587 1.102005 0.527262
v 1.957842 0.916600 -0.636485
v -1.068473 1.104185 -1.390253
v -0.185323 -0.123137 0.060215
v -0.226889 -0.123137 -0.073721
v -0.140225 -0.123137 0.193003
v 0.000000 -0.123137 -0.238565
v 0.114536 -0.123137 -0.157645
v 0.000000 -0.123137 0.194860
v 0.140225 -0.123137 0.193003
v 0.185323 -0.123137 0.060215
v 0.226889 -0.123137 -0.073721
v -0.114536 -0.123137 -0.157645
v 0.345428 3.827649 0.235285
v -0.917778 3.830251 0.591082
v -0.925585 5.459029 -0.396549
v -0.841226 2.942468 -0.894565
v -1.324643 2.726532 -0.408030
v 0.298157 2.999359 -0.907076
v 0.656708 2.999786 0.293342
v 0.455122 2.774551 1.002828
v -1.163552 5.350621 -0.206695
v 0.910978 2.763989 -0.429500
v -0.971453 4.407153 0.487614
v -0.660889 4.733533 0.481772
v -0.926753 2.772861 1.016768
v -0.312050 2.990767 1.043230
v -0.282883 4.669466 0.480944
v -0.217806 2.786969 -1.302896
v -1.234151 2.916888 0.314252
v -0.342591 4.814048 -0.537240
v -1.172887 4.281767 -0.284066
v -0.923033 4.557034 -0.534752
v -1.072513 1.931740 -1.301321
v -0.473570 3.574956 0.979058
v -0.129183 1.935919 1.575428
v 0.217696 3.896747 -0.326436
v -0.071526 3.875953 0.628777
v 1.140577 2.108578 -0.431787
v -0.151668 2.113238 -1.363757
v -1.378878 2.105397 -0.426779
v -1.166989 3.608321 -0.308930
v -0.956813 3.446725 -0.876351
v -0.937568 2.603457 1.095513
v -0.278485 2.839647 1.112692
v 0.818016 1.938740 -1.298623
v 1.039917 2.565729 -0.452871
v 0.549726 2.581321 1.080705
v 0.753693 2.832209 0.317396
v -1.639421 1.930094 0.476979
v 0.369614 2.841691 -0.955894
v -1.364693 2.563266 -0.429948
v -0.842815 2.802261 -0.942455
v 1.410330 1.941147 0.480382
v -0.090069 1.721132 1.700610
v 0.643805 2.108934 1.073963
v 1.262925 1.918661 -0.453008
v -0.927426 2.113626 1.075822
v -0.038124 1.102819 -1.934303
v 0.909348 1.258554 -1.319939
v -1.622954 1.262280 0.493748
v -1.177586 1.103389 1.556999
v -1.121181 1.728606 -1.396728
v -1.699484 1.104585 0.520089
v -1.025610 1.262682 -1.322543
v -1.240421 0.917773 1.662760
v -0.019903 0.917369 -2.061650
v 0.982452 1.102531 -1.385653
v -1.887676 1.102455 -0.602139
v 1.511055 1.256273 0.498360
v 1.105659 1.098935 1.558429
v 1.808433 1.097535 -0.599530
v -0.052156 1.260265 1.619557
vt 0.400000 0.583333
vt 0.400000 0.583333
vt 0.300000 0.583333
vt 0.300000 0.583333
vt 0.300000 0.750000
vt 0.300000 0.750000
vt 0.200000 0.750000
vt 0.200000 0.750000
vt 0.100000 0.750000
vt 0.100000 0.750000
vt 0.300000 0.666667
vt 0.300000 0.666667
vt 0.200000 0.666667
vt 0.200000 0.666667
vt 0.400000 0.750000
vt 0.400000 0.750000
vt 0.300000 0.833333
vt 0.300000 0.833333
vt 0.200000 0.833333
vt 0.200000 0.833333
vt 0.100000 0.833333
vt 0.100000 0.833333
vt 0.200000 0.583333
vt 0.200000 0.583333
vt 0.100000 0.583333
vt 0.100000 0.583333
vt 0.400000 0.833333
vt 0.400000 0.833333
vt 0.100000 0.916666
vt 0.100000 0.916667
vt -0.000000 0.916667
vt -0.000000 0.916667
vt 0.300000 0.916667
vt 0.300000 0.916667
vt 0.200000 0.916667
vt 0.200000 0.916667
vt 0.100000 0.666667
vt 0.100000 0.666667
vt -0.000000 0.833333
vt -0.000000 0.833333
vt -0.000000 0.750000
vt -0.000000 0.750000
vt -0.000000 0.666667
vt -0.000000 0.666667
vt -0.000000 0.583333
vt -0.000000 0.583333
vt 0.400000 0.666667
vt 0.400000 0.666667
vt 0.400000 0.916667
vt 0.400000 0.916667
vt 0.500000 0.583333
vt 0.500000 0.583333
vt 0.400000 0.583333
vt 0.400000 0.583333
vt 0.500000 0.666667
vt 0.500000 0.666667
vt 0.400000 0.666667
vt 0.400000 0.666667
vt 0.500000 0.750000
vt 0.500000 0.750000
vt 0.400000 0.750000
vt 0.400000 0.750000
vt 0.500000 0.833333
vt 0.500000 0.833333
vt 0.400000 0.833333
vt 0.400000 0.833333
vt 0.500000 0.916666
vt 0.500000 0.916667
vt 0.400000 0.916667
vt 0.400000 0.916667
vt 0.600000 0.583333
vt 0.600000 0.583333
vt 0.500000 0.583333
vt 0.500000 0.583333
vt 0.600000 0.666667
vt 0.600000 0.666667
vt 0.500000 0.666667
vt 0.500000 0.666667
vt 0.600000 0.750000
vt 0.600000 0.750000
vt 0.500000 0.750000
vt 0.500000 0.750000
vt 0.600000 0.833333
vt 0.600000 0.833333
vt 0.500000 0.833333
vt 0.500000 0.833333
vt 0.600000 0.916667
vt 0.600000 0.916667
vt 0.500000 0.916667
vt 0.500000 0.916667
vt 0.700000 0.583333
vt 0.700000 0.583333
vt 0.600000 0.583333
vt 0.600000 0.583333
vt 0.700000 0.666667
vt 0.700000 0.666667
vt 0.600000 0.666667
vt 0.600000 0.666667
vt 0.700000 0.750000
vt 0.700000 0.750000
vt 0.600000 0.750000
vt 0.600000 0.750000
vt 0.700000 0.833333
vt 0.700000 0.833333
vt 0.600000 0.833333
vt 0.600000 0.833333
vt 0.700000 0.916667
vt 0.700000 0.916667
vt 0.600000 0.916667
vt 0.600000 0.916667
vt 0.800000 0.583333
vt 0.800000 0.583333
vt 0.700000 0.583333
vt 0.700000 0.583333
vt 0.800000 0.666667
vt 0.800000 0.666667
vt 0.700000 0.666667
vt 0.700000 0.666667
vt 0.800000 0.750000
vt 0.800000 0.750000
vt 0.700000 0.750000
vt 0.700000 0.750000
vt 0.800000 0.833333
vt 0.800000 0.833333
vt 0.700000 0.833333
vt 0.700000 0.833333
vt 0.800000 0.916667
vt 0.800000 0.916667
vt 0.700000 0.916666
vt 0.700000 0.916667
vt 0.900000 0.583333
vt 0.900000 0.583333
vt 0.800000 0.583333
vt 0.800000 0.583333
vt 0.900000 0.666667
vt 0.900000 0.666667
vt 0.800000 0.666667
vt 0.800000 0.666667
vt 0.900000 0.750000
vt 0.900000 0.750000
vt 0.800000 0.750000
vt 0.800000 0.750000
vt 0.900000 0.833333
vt 0.900000 0.833333
vt 0.800000 0.833333
vt 0.800000 0.833333
vt 0.900000 0.916667
vt 0.900000 0.916667
vt 0.800000 0.916667
vt 0.800000 0.916667
vt 1.000000 0.583333
vt 1.000000 0.583333
vt 0.900000 0.583333
vt 0.900000 0.583333
vt 1.000000 0.666667
vt 1.000000 0.666667
vt 0.900000 0.666667
vt 0.900000 0.666667
vt 1.000000 0.750000
vt 1.000000 0.750000
vt 0.900000 0.750000
vt 0.900000 0.750000
vt 1.000000 0.833333
vt 1.000000 0.833333
vt 0.900000 0.833333
vt 0.900000 0.833333
vt 1.000000 0.916666
vt 1.000000 0.916667
vt 0.900000 0.916667
vt 0.900000 0.916667
vt 0.705156 0.264571
vt 0.713335 0.238087
vt 0.521747 0.175836
vt 0.521746 0.324164
vt 0.722285 0.211854
vt 0.608931 0.055836
vt 0.772660 0.281189
vt 0.750000 0.297152
vt 0.750000 0.490000
vt 0.891069 0.444164
vt 0.750000 0.211448
vt 0.750000 0.010000
vt 0.777715 0.211854
vt 0.891068 0.055836
vt 0.786665 0.238087
vt 0.978254 0.175836
vt 0.794844 0.264571
vt 0.978253 0.324164
vt 0.727340 0.281189
vt 0.608932 0.444164
vt 1.000000 0.842056
vt 0.900000 0.842056
vt 0.900000 0.842055
vt 0.800000 0.842055
vt 0.800000 0.842055
vt 0.700000 0.842056
vt 0.700000 0.842055
vt 0.600000 0.842056
vt 0.600000 0.842056
vt 0.500000 0.842055
vt 0.500000 0.842056
vt 0.400000 0.842055
vt 0.400000 0.842056
vt 0.300000 0.842056
vt 0.200000 0.842055
vt 0.100000 0.842055
vt -0.000000 0.842055
vt 1.000000 0.759630
vt 0.900000 0.759630
vt 0.900000 0.759631
vt 0.800000 0.759630
vt 0.800000 0.759630
vt 0.700000 0.759630
vt 0.700000 0.759630
vt 0.600000 0.759630
vt 0.600000 0.759630
vt 0.500000 0.759630
vt 0.500000 0.759630
vt 0.400000 0.759630
vt 0.100000 0.759630
vt -0.000000 0.759630
vt 0.400000 0.759630
vt 0.300000 0.759631
vt 0.200000 0.759630
vt 1.000000 0.676581
vt 0.900000 0.676581
vt 0.900000 0.676581
vt 0.800000 0.676581
vt 0.800000 0.676581
vt 0.700000 0.676581
vt 0.700000 0.676581
vt 0.600000 0.676581
vt 0.600000 0.676581
vt 0.500000 0.676581
vt 0.500000 0.676581
vt 0.400000 0.676581
vt 0.100000 0.676581
vt -0.000000 0.676581
vt 0.400000 0.676581
vt 0.300000 0.676581
vt 0.200000 0.676581
vt 1.000000 0.595544
vt 0.900000 0.595544
vt 0.900000 0.595544
vt 0.800000 0.595544
vt 0.800000 0.595544
vt 0.700000 0.595544
vt 0.700000 0.595544
vt 0.600000 0.595544
vt 0.600000 0.595544
vt 0.500000 0.595544
vt 0.500000 0.595544
vt 0.400000 0.595544
vt 0.400000 0.595544
vt 0.300000 0.595544
vt 0.100000 0.595544
vt -0.000000 0.595544
vt 0.200000 0.595544
vt 1.000000 0.500000
vt 1.000000 0.511414
vt 0.900000 0.511414
vt 0.900000 0.500000
vt 0.900000 0.500000
vt 0.900000 0.511414
vt 0.800000 0.511414
vt 0.800000 0.500000
vt 0.800000 0.500000
vt 0.800000 0.511414
vt 0.700000 0.511414
vt 0.700000 0.500000
vt 0.700000 0.500000
vt 0.700000 0.511414
vt 0.600000 0.511414
vt 0.600000 0.500000
vt 0.600000 0.500000
vt 0.600000 0.511414
vt 0.500000 0.511414
vt 0.500000 0.500000
vt 0.500000 0.500000
vt 0.500000 0.511414
vt 0.400000 0.511414
vt 0.400000 0.500000
vt 0.100000 0.500000
vt 0.100000 0.511414
vt -0.000000 0.511414
vt -0.000000 0.500000
vt 0.300000 0.500000
vt 0.300000 0.511414
vt 0.200000 0.511414
vt 0.200000 0.500000
vt 0.400000 0.500000
vt 0.400000 0.511414
vt 0.722285 0.211854
vt 0.750000 0.211448
vt 0.794844 0.264571
vt 0.786665 0.238087
vt 0.777715 0.211854
vt 0.713335 0.238087
vt 0.705156 0.264571
vt 0.727340 0.281189
vt 0.750000 0.297152
vt 0.772660 0.281189
vt 0.900000 1.000000
vt 0.800000 1.000000
vt 0.700000 1.000000
vt 0.600000 1.000000
vt 0.500000 1.000000
vt 0.400000 1.000000
vt 0.300000 1.000000
vt 0.200000 1.000000
vt 0.100000 1.000000
vt -0.000000 1.000000
vn 0.5677 -0.7147 -0.4085
vn 0.9059 -0.4213 0.0425
vn 0.7852 -0.4434 0.4324
vn 0.8674 -0.4956 0.0447
vn 0.7894 -0.4781 -0.3850
vn 0.8989 -0.4225 0.1160
vn 0.8261 -0.4390 0.3532
vn 0.5891 -0.7131 0.3800
vn 0.7629 -0.5032 -0.4060
vn 0.6941 -0.3974 0.6003
vn 0.9226 -0.3316 -0.1972
vn 0.7332 -0.5036 0.4570
vn 0.4002 -0.5722 0.7158
vn 0.4205 -0.5296 0.7366
vn 0.6963 -0.7171 0.0298
vn 0.3226 -0.5716 0.7545
vn 0.2137 -0.7091 0.6720
vn 0.7110 -0.5450 -0.4444
vn 0.6561 -0.4143 0.6308
vn 0.9323 -0.3245 -0.1597
vn -0.2142 -0.7293 0.6498
vn -0.2514 -0.6361 0.7295
vn -0.1779 -0.6009 0.7793
vn 0.1440 -0.6463 0.7494
vn -0.0887 -0.8070 0.5838
vn 0.2250 -0.7051 -0.6725
vn 0.2919 -0.6064 -0.7396
vn 0.3944 -0.5564 -0.7313
vn 0.5883 -0.5732 -0.5704
vn 0.3077 -0.6858 -0.6595
vn -0.4917 -0.7914 -0.3633
vn -0.6322 -0.6547 -0.4143
vn -0.6125 -0.6387 -0.4657
vn -0.3130 -0.7668 -0.5605
vn -0.2755 -0.9534 -0.1232
vn -0.5103 -0.7807 0.3607
vn -0.6184 -0.6556 0.4333
vn -0.6123 -0.6377 0.4674
vn -0.5190 -0.7685 0.3741
vn -0.0298 -0.7730 0.6337
vn -0.5919 -0.8060 0.0038
vn -0.7475 -0.6641 -0.0169
vn -0.7665 -0.6421 0.0156
vn -0.5989 -0.7785 0.1876
vn -0.2457 -0.9444 -0.2186
vn -0.2225 -0.7447 -0.6292
vn -0.2325 -0.6336 -0.7379
vn -0.1410 -0.6234 -0.7691
vn -0.0888 -0.7351 -0.6721
vn 0.3716 -0.6530 -0.6599
vn 0.3047 -0.9505 0.0614
vn 0.2067 -0.9514 -0.2283
vn -0.0369 -0.9537 0.2984
vn 0.1453 -0.9521 -0.2691
vn -0.1431 -0.9563 -0.2549
vn -0.1934 -0.9572 -0.2153
vn -0.2799 -0.9581 0.0606
vn -0.2623 -0.9576 0.1191
vn 0.2807 -0.9506 0.1326
vn 0.0342 -0.9527 0.3019
vn 0.0855 0.5078 0.8572
vn 0.7357 0.6688 -0.1074
vn 0.6155 0.6147 -0.4933
vn 0.5314 0.6424 0.5522
vn -0.3549 0.3535 0.8655
vn 0.1928 0.4673 -0.8628
vn -0.9243 0.0898 0.3711
vn -0.7578 0.1010 -0.6447
vn -0.9925 0.0449 0.1133
vn -0.5325 0.1855 -0.8259
vn 0.3534 0.4653 0.8115
vn 0.8667 0.4793 -0.1381
vn 0.7889 0.4765 -0.3881
vn 0.6323 0.4757 0.6116
vn -0.5037 0.3342 0.7966
vn 0.1287 0.3981 -0.9083
vn -0.2718 0.3376 -0.9012
vn -0.7722 0.2710 0.5747
vn -0.9002 0.1929 -0.3903
vn -0.9713 0.1796 -0.1559
vn 0.1711 0.4407 0.8812
vn 0.8435 0.5212 0.1300
vn 0.6450 0.4832 -0.5920
vn 0.7690 0.5152 0.3783
vn -0.1745 0.4030 0.8984
vn 0.4207 0.4561 -0.7842
vn -0.4721 0.2942 -0.8310
vn -0.8663 0.2533 0.4305
vn -0.7370 0.2459 -0.6296
vn -0.9736 0.2182 0.0671
vn 0.3957 0.4980 0.7716
vn 0.8124 0.5655 -0.1419
vn 0.7484 0.5430 -0.3809
vn 0.5834 0.5320 0.6136
vn -0.4251 0.3919 0.8159
vn 0.1337 0.4335 -0.8912
vn -0.6431 0.3949 0.6561
vn -0.1354 0.4183 -0.8982
vn -0.8587 0.3577 -0.3671
vn -0.9120 0.3585 -0.1991
vn 0.1116 0.5228 0.8451
vn 0.7905 0.5980 0.1322
vn 0.5727 0.5605 -0.5982
vn 0.7222 0.5908 0.3596
vn -0.1118 0.4965 0.8608
vn 0.4017 0.5298 -0.7470
vn -0.4112 0.4718 -0.7800
vn -0.8631 0.4841 0.1438
vn -0.6081 0.4818 -0.6310
vn -0.7872 0.4722 0.3967
vn -0.0221 0.0060 0.9997
vn 0.0000 -1.0000 0.0000
vn -0.9544 -0.0645 0.2916
vn 0.5989 0.0322 -0.8002
vn 0.0191 0.0085 0.9998
vn -0.9412 -0.0627 0.3320
vn -0.5977 -0.0476 -0.8003
vn 0.9413 0.0622 0.3318
vn 0.5653 0.0310 -0.8243
vn -0.5652 -0.0444 -0.8237
vn 0.9537 0.0618 0.2942
vn 0.2264 0.4994 0.8363
vn 0.7148 0.6807 -0.1605
vn 0.6362 0.6204 -0.4586
vn 0.4577 0.6048 0.6517
vn -0.5357 0.1110 0.8371
vn 0.0331 0.2789 -0.9597
vn -0.7572 -0.0144 0.6531
vn -0.9711 -0.1785 -0.1586
vn -0.8767 -0.1506 -0.4569
vn -0.2468 0.1363 -0.9594
vn 0.1655 0.5334 0.8295
vn 0.7937 0.6014 0.0914
vn 0.6044 0.5690 -0.5576
vn 0.7040 0.5925 0.3916
vn -0.1607 0.4977 0.8523
vn 0.3705 0.5302 -0.7626
vn -0.3780 0.4770 -0.7934
vn -0.8677 0.4887 0.0907
vn -0.6496 0.4866 -0.5841
vn -0.7711 0.4758 0.4230
vn 0.3529 0.4953 0.7938
vn 0.8159 0.5704 -0.0952
vn 0.7333 0.5424 -0.4100
vn 0.6204 0.5421 0.5668
vn -0.4126 0.3948 0.8209
vn 0.1720 0.4422 -0.8803
vn -0.6911 0.3951 0.6052
vn -0.2038 0.4169 -0.8858
vn -0.8401 0.3637 -0.4024
vn -0.9192 0.3637 -0.1510
vn 0.1657 0.4394 0.8829
vn 0.8470 0.5233 0.0936
vn 0.6563 0.4865 -0.5768
vn 0.7498 0.5154 0.4149
vn -0.2502 0.3917 0.8854
vn 0.3669 0.4503 -0.8140
vn -0.4620 0.2973 -0.8356
vn -0.8636 0.2545 0.4353
vn -0.7694 0.2416 -0.5913
vn -0.9752 0.2182 0.0380
vn 0.3059 0.4622 0.8323
vn 0.8678 0.4803 -0.1277
vn 0.7698 0.4766 -0.4245
vn 0.6252 0.4743 0.6198
vn -0.5149 0.3308 0.7909
vn 0.1050 0.3924 -0.9138
vn -0.3047 0.3325 -0.8925
vn -0.7879 0.2676 0.5547
vn -0.8894 0.1972 -0.4124
vn -0.9740 0.1813 -0.1356
vn 0.0451 0.4928 0.8689
vn 0.7380 0.6728 -0.0507
vn 0.5817 0.6010 -0.5481
vn 0.5541 0.6482 0.5223
vn -0.3503 0.3551 0.8667
vn 0.2020 0.4704 -0.8590
vn -0.9240 0.0900 0.3716
vn -0.7560 0.1014 -0.6467
vn -0.9927 0.0448 0.1117
vn -0.5363 0.1837 -0.8238
usemtl leaves_dark
s off
f 52/1/1 14/2/1 36/3/1 57/4/1
f 78/5/2 34/6/2 150/7/2 80/8/2
f 80/8/3 150/7/3 151/9/3 81/10/3
f 68/11/4 35/12/4 160/13/4 70/14/4
f 73/15/5 13/16/5 34/6/5 78/5/5
f 88/17/6 33/18/6 140/19/6 90/20/6
f 90/20/7 140/19/7 141/21/7 91/22/7
f 59/23/8 46/24/8 171/25/8 61/26/8
f 82/27/9 132/28/9 33/18/9 88/17/9
f 101/29/10 47/30/10 124/31/10 92/32/10
f 98/33/11 32/34/11 130/35/11 100/36/11
f 70/14/12 160/13/12 161/37/12 71/38/12
f 91/22/13 141/21/13 19/39/13 83/40/13
f 81/10/14 151/9/14 18/41/14 74/42/14
f 57/4/15 36/3/15 46/24/15 59/23/15
f 71/38/16 161/37/16 17/43/16 63/44/16
f 61/26/17 171/25/17 16/45/17 60/46/17
f 62/47/18 152/48/18 35/12/18 68/11/18
f 100/36/19 130/35/19 47/30/19 101/29/19
f 95/49/20 12/50/20 32/34/20 98/33/20
f 60/51/21 16/52/21 41/53/21 58/54/21
f 63/55/22 17/56/22 159/57/22 69/58/22
f 74/59/23 18/60/23 39/61/23 79/62/23
f 83/63/24 19/64/24 139/65/24 89/66/24
f 92/67/25 124/68/25 37/69/25 99/70/25
f 53/71/26 163/72/26 14/73/26 52/74/26
f 65/75/27 153/76/27 152/77/27 62/78/27
f 72/79/28 143/80/28 13/81/28 73/82/28
f 85/83/29 133/84/29 132/85/29 82/86/29
f 93/87/30 15/88/30 12/89/30 95/90/30
f 56/91/31 31/92/31 26/93/31 55/94/31
f 67/95/32 157/96/32 156/97/32 66/98/32
f 77/99/33 29/100/33 146/101/33 76/102/33
f 87/103/34 28/104/34 136/105/34 86/106/34
f 97/107/35 27/108/35 22/109/35 96/110/35
f 58/111/36 41/112/36 165/113/36 54/114/36
f 69/115/37 159/116/37 155/117/37 64/118/37
f 79/119/38 39/120/38 145/121/38 75/122/38
f 89/123/39 139/124/39 21/125/39 84/126/39
f 99/127/40 37/128/40 20/129/40 94/130/40
f 54/131/41 165/132/41 31/133/41 56/134/41
f 64/135/42 155/136/42 157/137/42 67/138/42
f 75/139/43 145/140/43 29/141/43 77/142/43
f 84/143/44 21/144/44 28/145/44 87/146/44
f 94/147/45 20/148/45 27/149/45 97/150/45
f 55/151/46 26/152/46 163/153/46 53/154/46
f 66/155/47 156/156/47 153/157/47 65/158/47
f 76/159/48 146/160/48 143/161/48 72/162/48
f 86/163/49 136/164/49 133/165/49 85/166/49
f 96/167/50 22/168/50 15/169/50 93/170/50
f 2/171/51 3/172/51 172/173/51 103/174/51
f 3/172/52 4/175/52 174/176/52 172/173/52
f 10/177/53 11/178/53 175/179/53 176/180/53
f 4/175/54 6/181/54 107/182/54 174/176/54
f 6/181/55 7/183/55 108/184/55 107/182/55
f 7/183/56 8/185/56 109/186/56 108/184/56
f 8/185/57 9/187/57 110/188/57 109/186/57
f 9/187/58 10/177/58 176/180/58 110/188/58
f 1/189/59 2/171/59 103/174/59 111/190/59
f 11/178/60 1/189/60 111/190/60 175/179/60
f 136/164/61 30/191/61 40/192/61 133/165/61
f 21/144/62 45/193/62 44/194/62 28/145/62
f 139/124/63 25/195/63 45/196/63 21/125/63
f 28/104/64 44/197/64 30/198/64 136/105/64
f 133/84/65 40/199/65 38/200/65 132/85/65
f 19/64/66 42/201/66 25/202/66 139/65/66
f 132/28/67 38/203/67 43/204/67 33/18/67
f 140/19/68 24/205/68 23/206/68 141/21/68
f 33/18/69 43/204/69 24/205/69 140/19/69
f 141/21/70 23/206/70 42/207/70 19/39/70
f 146/160/71 50/208/71 51/209/71 143/161/71
f 145/140/72 102/210/72 122/211/72 29/141/72
f 39/120/73 105/212/73 102/213/73 145/121/73
f 29/100/74 122/214/74 50/215/74 146/101/74
f 143/80/75 51/216/75 123/217/75 13/81/75
f 18/60/76 104/218/76 105/219/76 39/61/76
f 151/9/77 48/220/77 104/221/77 18/41/77
f 13/16/78 123/222/78 106/223/78 34/6/78
f 150/7/79 49/224/79 48/220/79 151/9/79
f 34/6/80 106/223/80 49/224/80 150/7/80
f 156/156/81 129/225/81 135/226/81 153/157/81
f 155/136/82 131/227/82 128/228/82 157/137/82
f 159/116/83 127/229/83 131/230/83 155/117/83
f 157/96/84 128/231/84 129/232/84 156/97/84
f 153/76/85 135/233/85 134/234/85 152/77/85
f 17/56/86 137/235/86 127/236/86 159/57/86
f 161/37/87 125/237/87 137/238/87 17/43/87
f 152/48/88 134/239/88 138/240/88 35/12/88
f 160/13/89 126/241/89 125/237/89 161/37/89
f 35/12/90 138/240/90 126/241/90 160/13/90
f 26/152/91 164/242/91 144/243/91 163/153/91
f 165/132/92 147/244/92 162/245/92 31/133/92
f 41/112/93 154/246/93 147/247/93 165/113/93
f 31/92/94 162/248/94 164/249/94 26/93/94
f 163/72/95 144/250/95 166/251/95 14/73/95
f 16/52/96 148/252/96 154/253/96 41/53/96
f 14/2/97 166/254/97 158/255/97 36/3/97
f 171/25/98 142/256/98 148/257/98 16/45/98
f 46/24/99 149/258/99 142/256/99 171/25/99
f 36/3/100 158/255/100 149/258/100 46/24/100
f 108/259/101 179/260/101 181/261/101 107/262/101
f 110/263/102 180/264/102 178/265/102 109/266/102
f 176/267/103 168/268/103 180/269/103 110/270/103
f 109/271/104 178/272/104 179/273/104 108/274/104
f 107/275/105 181/276/105 170/277/105 174/278/105
f 175/279/106 167/280/106 168/281/106 176/282/106
f 111/283/107 173/284/107 167/285/107 175/286/107
f 172/287/108 169/288/108 177/289/108 103/290/108
f 103/290/109 177/289/109 173/284/109 111/283/109
f 174/291/110 170/292/110 169/288/110 172/287/110
usemtl Branch
f 6/181/111 4/175/111 114/293/111 117/294/111
f 120/295/112 119/296/112 118/297/112 117/294/112 114/293/112 112/298/112 113/299/112 121/300/112 115/301/112 116/302/112
f 3/172/113 2/171/113 113/299/113 112/298/113
f 10/177/114 9/187/114 120/295/114 116/302/114
f 7/183/115 6/181/115 117/294/115 118/297/115
f 4/175/116 3/172/116 112/298/116 114/293/116
f 2/171/117 1/189/117 121/300/117 113/299/117
f 8/185/118 7/183/118 118/297/118 119/296/118
f 11/178/119 10/177/119 116/302/119 115/301/119
f 1/189/120 11/178/120 115/301/120 121/300/120
f 9/187/121 8/185/121 119/296/121 120/295/121
usemtl Snow
f 22/168/122 5/303/122 15/169/122
f 20/148/123 5/304/123 27/149/123
f 37/128/124 5/305/124 20/129/124
f 27/108/125 5/306/125 22/109/125
f 15/88/126 5/307/126 12/89/126
f 124/68/127 5/308/127 37/69/127
f 12/50/128 5/309/128 32/34/128
f 32/34/129 5/310/129 130/35/129
f 130/35/130 5/311/130 47/30/130
f 47/30/131 5/312/131 124/31/131
f 179/260/132 55/151/132 53/154/132 181/261/132
f 180/264/133 54/131/133 56/134/133 178/265/133
f 168/268/134 58/111/134 54/114/134 180/269/134
f 178/272/135 56/91/135 55/94/135 179/273/135
f 181/276/136 53/71/136 52/74/136 170/277/136
f 167/280/137 60/51/137 58/54/137 168/281/137
f 173/284/138 61/26/138 60/46/138 167/285/138
f 169/288/139 57/4/139 59/23/139 177/289/139
f 177/289/140 59/23/140 61/26/140 173/284/140
f 170/292/141 52/1/141 57/4/141 169/288/141
f 164/242/142 66/155/142 65/158/142 144/243/142
f 147/244/143 64/135/143 67/138/143 162/245/143
f 154/246/144 69/115/144 64/118/144 147/247/144
f 162/248/145 67/95/145 66/98/145 164/249/145
f 144/250/146 65/75/146 62/78/146 166/251/146
f 148/252/147 63/55/147 69/58/147 154/253/147
f 166/254/148 62/47/148 68/11/148 158/255/148
f 142/256/149 71/38/149 63/44/149 148/257/149
f 149/258/150 70/14/150 71/38/150 142/256/150
f 158/255/151 68/11/151 70/14/151 149/258/151
f 129/225/152 76/159/152 72/162/152 135/226/152
f 131/227/153 75/139/153 77/142/153 128/228/153
f 127/229/154 79/119/154 75/122/154 131/230/154
f 128/231/155 77/99/155 76/102/155 129/232/155
f 135/233/156 72/79/156 73/82/156 134/234/156
f 137/235/157 74/59/157 79/62/157 127/236/157
f 125/237/158 81/10/158 74/42/158 137/238/158
f 134/239/159 73/15/159 78/5/159 138/240/159
f 126/241/160 80/8/160 81/10/160 125/237/160
f 138/240/161 78/5/161 80/8/161 126/241/161
f 50/208/162 86/163/162 85/166/162 51/209/162
f 102/210/163 84/143/163 87/146/163 122/211/163
f 105/212/164 89/123/164 84/126/164 102/213/164
f 122/214/165 87/103/165 86/106/165 50/215/165
f 51/216/166 85/83/166 82/86/166 123/217/166
f 104/218/167 83/63/167 89/66/167 105/219/167
f 48/220/168 91/22/168 83/40/168 104/221/168
f 123/222/169 82/27/169 88/17/169 106/223/169
f 49/224/170 90/20/170 91/22/170 48/220/170
f 106/223/171 88/17/171 90/20/171 49/224/171
f 30/191/172 96/167/172 93/170/172 40/192/172
f 45/193/173 94/147/173 97/150/173 44/194/173
f 25/195/174 99/127/174 94/130/174 45/196/174
f 44/197/175 97/107/175 96/110/175 30/198/175
f 40/199/176 93/87/176 95/90/176 38/200/176
f 42/201/177 92/67/177 99/70/177 25/202/177
f 38/203/178 95/49/178 98/33/178 43/204/178
f 24/205/179 100/36/179 101/29/179 23/206/179
f 43/204/180 98/33/180 100/36/180 24/205/180
f 23/206/181 101/29/181 92/32/181 42/207/181
