# Blender v2.81 (sub 16) OBJ File: 'Nature Pack Low Poly.blend'
# www.blender.org
mtllib Simple_Tree_2_Winter.mtl
o Simple_Tree_2_Winter_Cylinder.048
v 0.000000 -0.400000 -0.272300
v -0.000000 2.975410 -0.272300
v 0.175031 -0.400000 -0.208594
v 0.175031 2.975410 -0.208594
v 0.268163 -0.400000 -0.047284
v 0.268163 2.975410 -0.047284
v 0.235819 -0.400000 0.136150
v 0.235819 2.975410 0.136150
v 0.093132 -0.400000 0.255879
v 0.093132 2.975410 0.255879
v -0.093132 -0.400000 0.255878
v -0.093132 2.975410 0.255878
v -0.235819 -0.400000 0.136150
v -0.235819 2.975410 0.136150
v -0.268163 -0.400000 -0.047284
v -0.268163 2.975410 -0.047284
v -0.175031 -0.400000 -0.208594
v -0.175031 2.975410 -0.208594
v 1.210841 4.235627 -1.067962
v 1.067962 4.235627 -1.210841
v 1.067962 4.378506 -1.067962
v 1.067962 2.099704 -1.210841
v 1.210841 2.099704 -1.067962
v 1.067962 1.956825 -1.067962
v 1.067962 4.378506 1.067962
v 1.067962 4.235627 1.210841
v 1.210841 4.235627 1.067962
v 1.210841 2.099704 1.067962
v 1.067962 2.099704 1.210841
v 1.067962 1.956825 1.067962
v -1.210841 4.235627 -1.067962
v -1.067962 4.378506 -1.067962
v -1.067962 4.235627 -1.210841
v -1.210841 2.099704 -1.067962
v -1.067962 2.099704 -1.210841
v -1.067962 1.956825 -1.067962
v -1.067962 4.378506 1.067962
v -1.210841 4.235627 1.067962
v -1.067962 4.235627 1.210841
v -1.067962 1.956825 1.067962
v -1.067962 2.099704 1.210841
v -1.210841 2.099704 1.067962
v 0.626662 3.720381 0.519755
v 0.552716 3.794327 0.519755
v 0.626662 2.614949 0.519755
v 0.552716 2.541003 0.519755
v 0.552716 3.794327 1.625187
v 0.552716 3.720381 1.699133
v 0.626662 3.720381 1.625187
v 0.626662 2.614949 1.625187
v 0.552716 2.614949 1.699133
v 0.552716 2.541003 1.625187
v -0.626662 3.720381 0.519755
v -0.552716 3.794327 0.519755
v -0.626662 2.614949 0.519755
v -0.552716 2.541003 0.519755
v -0.552716 3.794327 1.625187
v -0.626662 3.720381 1.625187
v -0.552716 3.720381 1.699133
v -0.552716 2.541003 1.625187
v -0.552716 2.614949 1.699133
v -0.626662 2.614949 1.625187
v 0.506182 4.725189 -0.577407
v 0.446453 4.725189 -0.637136
v 0.446453 4.784918 -0.577407
v 0.446453 3.832284 -0.637136
v 0.506182 3.832284 -0.577407
v 0.446453 4.784918 0.315499
v 0.446453 4.725189 0.375228
v 0.506182 4.725189 0.315499
v 0.506182 3.832284 0.315499
v 0.446453 3.832284 0.375228
v -0.506182 4.725189 -0.577407
v -0.446453 4.784918 -0.577407
v -0.446453 4.725189 -0.637136
v -0.506182 3.832284 -0.577407
v -0.446453 3.832284 -0.637136
v -0.446453 4.784918 0.315499
v -0.506182 4.725189 0.315499
v -0.446453 4.725189 0.375228
v -0.446453 3.832284 0.375228
v -0.506182 3.832284 0.315499
vt 0.389750 0.264750
vt 0.610250 0.264750
vt 0.610250 0.485250
vt 0.389750 0.485250
vt 0.389750 0.014750
vt 0.610250 0.014750
vt 0.610250 0.235250
vt 0.389750 0.235250
vt 0.389750 0.764750
vt 0.610250 0.764750
vt 0.610250 0.985250
vt 0.389750 0.985250
vt 0.139750 0.514750
vt 0.360250 0.514750
vt 0.360250 0.735250
vt 0.139750 0.735250
vt 0.389750 0.500000
vt 0.375000 0.485250
vt 0.389750 0.735250
vt 0.389750 0.750000
vt 0.375000 0.735250
vt 0.389750 0.250000
vt 0.375000 0.235250
vt 0.139750 0.750000
vt 0.125000 0.735250
vt 0.610250 0.514750
vt 0.389750 0.514750
vt 0.125000 0.514750
vt 0.610250 1.000000
vt 0.389750 1.000000
vt 0.360250 0.750000
vt 0.610250 0.735250
vt 0.139750 0.500000
vt 0.360250 0.500000
vt 0.389750 0.014750
vt 0.610250 0.014750
vt 0.610250 0.235250
vt 0.389750 0.235250
vt 0.389750 0.764750
vt 0.610250 0.764750
vt 0.610250 0.985250
vt 0.389750 0.985250
vt 0.139750 0.514750
vt 0.360250 0.514750
vt 0.360250 0.735250
vt 0.139750 0.735250
vt 0.389750 0.735250
vt 0.389750 0.750000
vt 0.375000 0.735250
vt 0.139750 0.750000
vt 0.125000 0.735250
vt 0.125000 0.514750
vt 0.389750 0.514750
vt 0.610250 1.000000
vt 0.389750 1.000000
vt 0.360250 0.750000
vt 0.610250 0.735250
vt 0.610250 0.514750
vt 0.389750 0.264750
vt 0.610250 0.264750
vt 0.610250 0.485250
vt 0.389750 0.485250
vt 0.389750 0.014750
vt 0.610250 0.014750
vt 0.610250 0.235250
vt 0.389750 0.235250
vt 0.389750 0.764750
vt 0.610250 0.764750
vt 0.610250 0.985250
vt 0.389750 0.985250
vt 0.610250 0.514750
vt 0.389750 0.514750
vt 0.610250 1.000000
vt 0.389750 1.000000
vt 0.389750 0.735250
vt 0.610250 0.735250
vt 1.000000 0.500000
vt 1.000000 1.000000
vt 0.888889 1.000000
vt 0.888889 0.500000
vt 0.777778 1.000000
vt 0.777778 0.500000
vt 0.666667 1.000000
vt 0.666667 0.500000
vt 0.555556 1.000000
vt 0.555556 0.500000
vt 0.444444 1.000000
vt 0.444444 0.500000
vt 0.333333 1.000000
vt 0.333333 0.500000
vt 0.222222 1.000000
vt 0.222222 0.500000
vt 0.111111 1.000000
vt 0.111111 0.500000
vt 0.000000 1.000000
vt 0.000000 0.500000
vt 0.750000 0.490000
vt 0.904269 0.433851
vt 0.986354 0.291676
vt 0.957846 0.130000
vt 0.832085 0.024474
vt 0.667915 0.024474
vt 0.542154 0.130000
vt 0.513646 0.291676
vt 0.595731 0.433851
vt 0.639750 0.514750
vt 0.860250 0.514750
vt 0.860250 0.735250
vt 0.639750 0.735250
vt 0.610250 0.500000
vt 0.625000 0.514750
vt 0.639750 0.750000
vt 0.625000 0.735250
vt 0.625000 0.235250
vt 0.610250 0.250000
vt 0.875000 0.735250
vt 0.860250 0.750000
vt 0.875000 0.514750
vt 0.639750 0.500000
vt 0.860250 0.500000
vt 0.639750 0.514750
vt 0.860250 0.514750
vt 0.860250 0.735250
vt 0.639750 0.735250
vt 0.639750 0.750000
vt 0.625000 0.735250
vt 0.875000 0.735250
vt 0.860250 0.750000
vt 0.875000 0.514750
vt 0.639750 0.514750
vt 0.860250 0.514750
vt 0.860250 0.735250
vt 0.639750 0.735250
vt 0.610250 0.500000
vt 0.625000 0.514750
vt 0.639750 0.750000
vt 0.625000 0.735250
vt 0.625000 0.235250
vt 0.610250 0.250000
vt 0.875000 0.735250
vt 0.860250 0.750000
vt 0.875000 0.514750
vt 0.639750 0.500000
vt 0.860250 0.500000
vn 0.0000 0.0000 -1.0000
vn -1.0000 0.0000 0.0000
vn 0.0000 0.0000 1.0000
vn 0.0000 -1.0000 0.0000
vn 0.5773 -0.5774 -0.5774
vn 0.5773 -0.5774 0.5774
vn -0.5773 -0.5774 -0.5774
vn -0.5773 -0.5774 0.5774
vn 0.7071 0.0000 -0.7071
vn -0.7071 -0.7071 0.0000
vn 0.7071 -0.7071 0.0000
vn -0.7071 0.0000 0.7071
vn 0.0000 -0.7071 0.7071
vn 0.7071 0.0000 0.7071
vn 0.0000 -0.7071 -0.7071
vn -0.7071 0.0000 -0.7071
vn 1.0000 0.0000 0.0000
vn 0.5774 -0.5774 0.5774
vn -0.5773 -0.5774 0.5773
vn 0.3420 0.0000 -0.9397
vn 0.8660 0.0000 -0.5000
vn 0.9848 0.0000 0.1736
vn 0.6428 0.0000 0.7660
vn -0.6428 -0.0000 0.7660
vn -0.9848 -0.0000 0.1736
vn -0.8660 -0.0000 -0.5000
vn -0.3420 -0.0000 -0.9397
vn 0.0000 1.0000 0.0000
vn 0.5774 0.5774 -0.5773
vn 0.5774 0.5774 0.5773
vn -0.5774 0.5774 -0.5773
vn -0.5774 0.5774 0.5773
vn -0.7071 0.7071 0.0000
vn 0.0000 0.7071 -0.7071
vn 0.7071 0.7071 0.0000
vn 0.0000 0.7071 0.7071
vn 0.5774 0.5774 0.5774
vn -0.5773 0.5774 0.5773
vn 0.5773 0.5773 -0.5774
vn 0.5773 0.5773 0.5774
vn -0.5773 0.5774 -0.5773
usemtl leaves
s off
f 35/1/1 33/2/1 20/3/1 22/4/1
f 42/5/2 38/6/2 31/7/2 34/8/2
f 29/9/3 26/10/3 39/11/3 41/12/3
f 36/13/4 24/14/4 30/15/4 40/16/4
f 22/4/5 23/17/5 24/18/5
f 28/19/6 29/20/6 30/21/6
f 34/8/7 35/22/7 36/23/7
f 40/16/8 41/24/8 42/25/8
f 19/26/9 23/27/9 22/4/9 20/3/9
f 36/13/10 40/16/10 42/25/10 34/28/10
f 30/15/11 24/14/11 23/27/11 28/19/11
f 41/12/12 39/11/12 38/29/12 42/30/12
f 40/16/13 30/15/13 29/31/13 41/24/13
f 26/10/14 29/9/14 28/19/14 27/32/14
f 24/14/15 36/13/15 35/33/15 22/34/15
f 33/2/16 35/1/16 34/8/16 31/7/16
f 23/27/17 19/26/17 27/32/17 28/19/17
f 62/35/2 58/36/2 53/37/2 55/38/2
f 51/39/3 48/40/3 59/41/3 61/42/3
f 56/43/4 46/44/4 52/45/4 60/46/4
f 50/47/18 51/48/18 52/49/18
f 60/46/19 61/50/19 62/51/19
f 56/43/10 60/46/10 62/51/10 55/52/10
f 52/45/11 46/44/11 45/53/11 50/47/11
f 61/42/12 59/41/12 58/54/12 62/55/12
f 60/46/13 52/45/13 51/56/13 61/50/13
f 48/40/14 51/39/14 50/47/14 49/57/14
f 45/53/17 43/58/17 49/57/17 50/47/17
f 77/59/1 75/60/1 64/61/1 66/62/1
f 82/63/2 79/64/2 73/65/2 76/66/2
f 72/67/3 69/68/3 80/69/3 81/70/3
f 63/71/9 67/72/9 66/62/9 64/61/9
f 81/70/12 80/69/12 79/73/12 82/74/12
f 69/68/14 72/67/14 71/75/14 70/76/14
f 75/60/16 77/59/16 76/66/16 73/65/16
f 67/72/17 63/71/17 70/76/17 71/75/17
usemtl Branch
f 1/77/20 2/78/20 4/79/20 3/80/20
f 3/80/21 4/79/21 6/81/21 5/82/21
f 5/82/22 6/81/22 8/83/22 7/84/22
f 7/84/23 8/83/23 10/85/23 9/86/23
f 9/86/3 10/85/3 12/87/3 11/88/3
f 11/88/24 12/87/24 14/89/24 13/90/24
f 13/90/25 14/89/25 16/91/25 15/92/25
f 15/92/26 16/91/26 18/93/26 17/94/26
f 17/94/27 18/93/27 2/95/27 1/96/27
f 1/97/4 3/98/4 5/99/4 7/100/4 9/101/4 11/102/4 13/103/4 15/104/4 17/105/4
usemtl Snow
f 21/106/28 32/107/28 37/108/28 25/109/28
f 19/26/29 20/110/29 21/111/29
f 25/109/30 26/112/30 27/113/30
f 31/7/31 32/114/31 33/115/31
f 37/108/32 38/116/32 39/117/32
f 37/108/33 32/107/33 31/118/33 38/116/33
f 32/107/34 21/106/34 20/119/34 33/120/34
f 21/106/35 25/109/35 27/32/35 19/26/35
f 25/109/36 37/108/36 39/117/36 26/112/36
f 44/121/28 54/122/28 57/123/28 47/124/28
f 47/124/37 48/125/37 49/126/37
f 57/123/38 58/127/38 59/128/38
f 57/123/33 54/122/33 53/129/33 58/127/33
f 44/121/35 47/124/35 49/57/35 43/58/35
f 47/124/36 57/123/36 59/128/36 48/125/36
f 65/130/28 74/131/28 78/132/28 68/133/28
f 63/71/39 64/134/39 65/135/39
f 68/133/40 69/136/40 70/137/40
f 73/65/41 74/138/41 75/139/41
f 78/132/38 79/140/38 80/141/38
f 78/132/33 74/131/33 73/142/33 79/140/33
f 74/131/34 65/130/34 64/143/34 75/144/34
f 65/130/35 68/133/35 70/76/35 63/71/35
f 68/133/36 78/132/36 80/141/36 69/136/36
