# Blender v2.81 (sub 16) OBJ File: 'Nature Pack Low Poly.blend'
# www.blender.org
mtllib Simple_Tree_7_Winter.mtl
o Simple_Tree_7_Winter_Cylinder.051
v -0.000000 -0.400000 -0.245349
v -0.000000 2.929124 -0.245349
v 0.157707 -0.400000 -0.187948
v 0.157707 2.929124 -0.187948
v 0.241621 -0.400000 -0.042604
v 0.241621 2.929124 -0.042604
v 0.212478 -0.400000 0.122674
v 0.212478 2.929124 0.122674
v 0.083914 -0.400000 0.230553
v 0.083914 2.929124 0.230553
v -0.083914 -0.400000 0.230553
v -0.083914 2.929124 0.230553
v -0.212478 -0.400000 0.122674
v -0.212479 2.929124 0.122674
v -0.241622 -0.400000 -0.042604
v -0.241622 2.929124 -0.042604
v -0.157707 -0.400000 -0.187948
v -0.157707 2.929124 -0.187948
v -0.236698 2.907853 -1.606725
v 0.236698 3.673831 1.606725
v 1.370366 4.135554 0.439119
v 0.142675 4.894302 0.439118
v -0.261991 1.918999 0.806338
v 0.685914 1.918999 0.498340
v -0.005835 2.446126 1.438989
v 1.366758 2.446130 0.450224
v 0.685914 1.918999 -0.498340
v -0.847840 1.919003 0.000000
v -1.370366 2.446128 0.439120
v -0.142675 1.687381 -0.439119
v -1.109837 2.442991 -0.806341
v 0.850546 2.446128 -1.160732
v 1.533763 3.290842 0.498342
v 1.533763 3.290842 -0.498342
v 0.947917 3.290842 1.304694
v -1.533763 3.290842 0.498342
v -0.947917 3.290842 1.304694
v -0.947917 3.290842 -1.304694
v -1.533763 3.290842 -0.498342
v 0.947917 3.290842 -1.304694
v -0.850546 4.135555 1.160732
v -1.366758 4.135553 -0.450223
v 0.005835 4.135558 -1.438989
v 1.109837 4.138691 -0.806341
v 0.847840 4.662680 0.000000
v -0.685914 4.662684 0.498340
v -0.685914 4.662684 -0.498340
v 0.261991 4.662684 -0.806338
v 0.859785 4.093842 0.624663
v -0.328402 4.093841 1.010736
v -1.062751 4.093846 0.000000
v -0.328402 4.093841 -1.010736
v 0.859785 4.093842 -0.624663
v 0.105121 5.806617 0.323532
v 0.312339 4.000547 0.961262
v 1.010734 4.000549 0.000000
v -0.817702 4.000549 0.594093
v -0.817702 4.000549 -0.594093
v 0.312339 4.000547 -0.961262
v 1.240342 4.688899 -0.000000
v 0.698403 4.625225 0.961268
v -0.383288 4.561550 1.179636
v -1.240342 4.561550 0.000000
v 0.698403 4.625225 -0.961268
v -0.383288 4.561550 -1.179636
v 0.619697 5.247591 0.860261
v -0.626663 5.247590 0.855200
v -1.006995 5.247589 -0.331715
v 0.004299 5.247592 -1.060214
v 1.009654 5.247590 -0.323533
v 0.402681 5.763100 -0.292564
v -0.497743 5.763097 -0.000000
v 0.651183 5.368603 0.487562
v -0.229276 5.387321 0.705651
v -0.741966 5.387324 0.000000
v -0.229276 5.387321 -0.705651
v 0.704895 6.192817 0.225877
v 0.073390 6.583105 -0.225875
v 0.218061 5.322187 0.671111
v 0.705650 5.322188 0.000000
v -0.570883 5.322188 0.414769
v -0.570883 5.322188 -0.414769
v 0.218061 5.322187 -0.671111
v 0.865952 5.802764 0.000000
v -0.267595 5.713854 0.823569
v -0.865952 5.713855 -0.000000
v 0.651183 5.368603 -0.487562
v -0.267595 5.713854 -0.823569
v -0.437508 6.192817 0.597063
v -0.703040 6.192816 -0.231588
v 0.003002 6.192819 -0.740194
v 0.195143 6.339599 0.600597
v 0.584814 6.365038 -0.204257
v -0.347501 6.552721 -0.000000
v 0.439490 6.250315 0.329061
v -0.173700 6.247191 0.534603
v -0.562115 6.247194 -0.000000
v -0.173700 6.247191 -0.534603
v -0.474489 6.806586 0.156301
v -0.295279 6.806587 -0.402964
v 0.426210 6.905651 0.000000
v -0.177454 7.074946 -0.000000
v 0.147172 6.218989 0.452940
v 0.476251 6.218990 0.000000
v -0.385296 6.218990 0.279933
v -0.385296 6.218990 -0.279933
v 0.408467 6.253731 -0.294649
v 0.584441 6.543336 0.000000
v 0.147101 6.889201 0.452733
v 0.270398 6.812998 -0.452734
vt 0.818181 0.000000
vt 0.772726 0.078731
vt 0.863635 0.078731
vt 0.090909 0.000000
vt 0.045454 0.078731
vt 0.136363 0.078731
vt 0.386671 0.197360
vt 0.272727 0.157461
vt 0.318182 0.236191
vt 0.681202 0.157461
vt 0.681818 0.236191
vt 0.772726 0.236191
vt 0.863020 0.157461
vt 0.841216 0.275022
vt 0.954545 0.236191
vt 0.135747 0.157461
vt 0.136363 0.236191
vt 0.227273 0.236191
vt 0.499383 0.157461
vt 0.500000 0.236191
vt 0.590909 0.236191
vt 0.590909 0.393651
vt 0.500000 0.393651
vt 0.545454 0.472382
vt 0.409090 0.393651
vt 0.318182 0.393651
vt 0.363636 0.472382
vt 0.227273 0.393651
vt 0.136363 0.393651
vt 0.181818 0.472382
vt 0.545454 0.314921
vt 0.682434 0.314921
vt 0.408475 0.314921
vt 0.226657 0.314921
vt 0.090909 0.314921
vt 0.953929 0.314921
vt 0.045454 0.236191
vt 0.000000 0.157461
vt 0.500000 0.078731
vt 0.431510 0.039899
vt 0.295762 0.039899
vt 0.227273 0.078731
vt 0.590909 0.078731
vt 0.681818 0.078731
vt 0.636363 0.000000
vt 0.727272 0.157461
vt 0.636363 0.157461
vt 0.636363 0.236191
vt 0.909090 0.157461
vt 0.818181 0.157461
vt 0.909090 0.236191
vt 0.181818 0.157461
vt 0.090909 0.157461
vt 0.181818 0.236191
vt 0.363636 0.157461
vt 0.272727 0.157461
vt 0.363636 0.236191
vt 0.545454 0.157461
vt 0.454545 0.157461
vt 0.500000 0.236191
vt 0.772726 0.236191
vt 0.409090 0.393651
vt 0.318182 0.393651
vt 0.363636 0.472382
vt 0.590292 0.314921
vt 0.408475 0.314921
vt 0.226657 0.314921
vt 0.090909 0.314921
vt 0.772110 0.314921
vt 0.953929 0.314921
vt 0.045454 0.236191
vt 0.000000 0.157461
vt 0.727141 0.157235
vt 0.636363 0.157461
vt 0.636363 0.236191
vt 0.909090 0.157461
vt 0.818181 0.157461
vt 0.909090 0.236191
vt 0.181818 0.157461
vt 0.090909 0.157461
vt 0.181818 0.236191
vt 0.363636 0.157461
vt 0.272727 0.157461
vt 0.363636 0.236191
vt 0.568181 0.354286
vt 0.682434 0.314921
vt 0.545585 0.157235
vt 0.408475 0.314921
vt 0.226657 0.314921
vt 0.090909 0.314921
vt 0.841216 0.354819
vt 0.953929 0.314921
vt 0.454545 0.157461
vt 0.045454 0.236191
vt 0.000000 0.157461
vt 0.727141 0.157235
vt 0.636363 0.157461
vt 0.636363 0.236191
vt 0.545850 0.157461
vt 0.500871 0.313928
vt 0.659398 0.354820
vt 0.363636 0.159815
vt 0.318798 0.314921
vt 0.181818 0.159815
vt 0.136979 0.314921
vt 0.909090 0.159815
vt 0.805310 0.335229
vt 1.000000 0.314921
vt 0.272727 0.157461
vt 0.001359 0.159815
vt 0.090909 0.157461
vt 0.818181 0.157461
vt 1.000000 0.500000
vt 1.000000 1.000000
vt 0.888889 1.000000
vt 0.888889 0.500000
vt 0.777778 1.000000
vt 0.777778 0.500000
vt 0.666667 1.000000
vt 0.666667 0.500000
vt 0.555556 1.000000
vt 0.555556 0.500000
vt 0.444444 1.000000
vt 0.444444 0.500000
vt 0.333333 1.000000
vt 0.333333 0.500000
vt 0.222222 1.000000
vt 0.222222 0.500000
vt 0.111111 1.000000
vt 0.111111 0.500000
vt 0.000000 1.000000
vt 0.000000 0.500000
vt 0.750000 0.490000
vt 0.904269 0.433851
vt 0.986354 0.291676
vt 0.957846 0.130000
vt 0.832085 0.024474
vt 0.667915 0.024474
vt 0.542154 0.130000
vt 0.513646 0.291676
vt 0.595731 0.433851
vt 0.750307 0.432483
vt 0.954545 0.393651
vt 0.886055 0.432483
vt 0.681818 0.393651
vt 0.545454 0.393651
vt 0.181818 0.393651
vt 0.954545 0.393651
vt 0.886055 0.432483
vt 0.750307 0.432483
vt 0.681818 0.393651
vt 0.522419 0.432483
vt 0.386671 0.432483
vt 0.318182 0.393651
vt 0.181818 0.393651
vt 0.954545 0.393651
vt 0.909090 0.472382
vt 0.795146 0.354819
vt 0.681818 0.393651
vt 0.727272 0.472382
vt 0.932126 0.432483
vt 0.181675 0.419504
vt 0.613328 0.354820
vt 0.545454 0.472382
vt 0.431510 0.354819
vt 0.348443 0.446067
vt 0.727272 0.472382
vn 0.0611 -0.9802 0.1882
vn -0.2178 -0.9631 0.1582
vn -0.5212 -0.3563 -0.7755
vn 0.7943 -0.1899 0.5771
vn -0.2188 -0.0895 0.9717
vn -0.9818 -0.1899 0.0000
vn 0.7943 -0.1899 -0.5771
vn 0.2178 0.9631 -0.1582
vn -0.0611 0.9802 -0.1882
vn -0.2692 0.9631 0.0000
vn 0.9041 0.3837 -0.1882
vn 0.7947 0.1876 -0.5773
vn 0.4583 0.3837 -0.8017
vn -0.2972 0.1866 -0.9364
vn -0.5162 0.4689 -0.7166
vn -0.9810 0.1940 0.0000
vn -0.8411 0.4689 0.2695
vn -0.3007 0.1938 0.9338
vn 0.5438 0.4524 0.7069
vn 0.7937 0.1939 0.5766
vn 0.2188 0.0895 -0.9717
vn 0.3007 -0.1938 -0.9338
vn -0.7943 0.1899 -0.5771
vn -0.7947 -0.1876 -0.5773
vn -0.9041 -0.3837 -0.1882
vn -0.7943 0.1899 0.5771
vn -0.7937 -0.1939 0.5766
vn -0.5220 -0.4689 0.7124
vn 0.2972 -0.1866 0.9364
vn 0.5162 -0.4689 0.7166
vn 0.9818 0.1899 0.0000
vn 0.9810 -0.1940 0.0000
vn 0.8411 -0.4689 -0.2695
vn 0.1793 -0.7910 -0.5849
vn 0.0029 -0.6912 -0.7227
vn -0.2683 -0.6767 -0.6857
vn -0.4857 -0.7966 -0.3598
vn -0.7640 -0.6255 -0.1582
vn -0.4953 -0.7907 0.3598
vn -0.4886 -0.5628 0.6667
vn 0.7872 -0.5628 -0.2522
vn 0.6122 -0.7907 0.0000
vn 0.2692 -0.9631 0.0000
vn 0.1892 -0.7907 0.5822
vn 0.4831 -0.5628 0.6707
vn 0.9143 -0.3050 0.2665
vn 0.0236 -0.3371 0.9412
vn -0.8878 -0.3371 0.3133
vn -0.5723 -0.3371 -0.7476
vn 0.5346 -0.3304 -0.7779
vn 0.8715 -0.0447 0.4884
vn 0.8715 -0.0447 -0.4884
vn -0.0271 0.9961 -0.0835
vn 0.8668 0.0721 -0.4934
vn 0.5220 0.4689 -0.7124
vn -0.5287 0.4264 -0.7339
vn -0.8614 0.4264 0.2760
vn -0.0037 0.4264 0.9045
vn 0.8503 0.1873 0.4918
vn 0.8240 0.4974 0.2714
vn 0.1941 0.0608 -0.9791
vn 0.2034 -0.1257 -0.9710
vn 0.0236 -0.3371 -0.9412
vn -0.8090 -0.0090 -0.5878
vn -0.8089 0.0130 -0.5877
vn -0.8878 -0.3371 -0.3133
vn -0.8090 -0.0090 0.5878
vn -0.8089 0.0130 0.5877
vn -0.5723 -0.3371 0.7476
vn 0.1844 0.1801 0.9662
vn 0.2034 -0.1257 0.9710
vn 0.5346 -0.3304 0.7779
vn 0.9143 -0.3050 -0.2665
vn 0.9400 -0.3135 0.1349
vn 0.9031 0.4212 -0.0835
vn 0.8127 0.2088 -0.5439
vn 0.6137 0.2535 -0.7477
vn -0.0972 0.3971 0.9126
vn 0.6171 0.2013 0.7607
vn 0.8787 0.0915 0.4685
vn 0.3350 -0.0253 -0.9419
vn 0.3777 0.1105 -0.9193
vn 0.3634 0.0625 0.9295
vn 0.3777 0.1105 0.9193
vn 0.9400 -0.3135 -0.1349
vn 0.8346 0.0510 -0.5485
vn 0.8517 0.3719 -0.3692
vn -0.0881 0.2100 -0.9737
vn -0.9272 0.2282 -0.2971
vn -0.4418 0.3273 0.8353
vn 0.7847 0.2492 0.5676
vn 0.7929 0.3463 0.5014
vn 0.3775 -0.1644 -0.9113
vn -0.8084 -0.0375 -0.5874
vn -0.6435 0.6061 -0.4675
vn -0.8084 -0.0375 0.5874
vn -0.6435 0.6061 0.4675
vn 0.3178 -0.0380 0.9474
vn 0.2424 0.6359 0.7327
vn 0.9191 -0.3066 -0.2476
vn 0.3420 0.0000 -0.9397
vn 0.8660 0.0000 -0.5000
vn 0.9848 0.0000 0.1736
vn 0.6428 0.0000 0.7660
vn -0.0000 -0.0000 1.0000
vn -0.6428 -0.0000 0.7660
vn -0.9848 -0.0000 0.1736
vn -0.8660 -0.0000 -0.5000
vn -0.3420 -0.0000 -0.9397
vn 0.0000 -1.0000 0.0000
vn 0.4012 0.6492 0.6462
vn 0.7640 0.6255 -0.1582
vn 0.4911 0.7947 -0.3568
vn 0.3866 0.6255 -0.6777
vn -0.1892 0.7907 -0.5822
vn -0.4831 0.5628 -0.6707
vn -0.6122 0.7907 0.0000
vn -0.7872 0.5628 0.2522
vn -0.1793 0.7910 0.5849
vn -0.0029 0.6912 0.7227
vn 0.4889 0.7910 0.3678
vn 0.4741 0.5971 -0.6470
vn -0.1598 0.8559 -0.4918
vn -0.3933 0.7398 -0.5459
vn -0.7639 0.5971 0.2448
vn -0.3057 0.8351 0.4573
vn 0.5941 0.7701 0.2325
vn 0.6391 0.7398 0.2105
vn 0.3356 0.7277 -0.5982
vn -0.3439 0.7701 -0.5373
vn 0.0764 0.9594 0.2714
vn -0.2004 0.8521 0.4834
vn 0.3759 0.9024 0.2105
vn 0.4231 0.8757 0.2325
vn -0.3681 0.7373 0.5664
vn -0.7162 0.6591 -0.2295
vn 0.2593 0.9248 -0.2785
vn -0.0572 0.8386 -0.5418
vn 0.2647 0.9439 0.1975
usemtl leaves
s off
f 30/1/1 24/2/1 23/3/1
f 30/4/2 23/5/2 28/6/2
f 19/7/3 31/8/3 38/9/3
f 26/10/4 33/11/4 35/12/4
f 25/13/5 20/14/5 37/15/5
f 29/16/6 36/17/6 39/18/6
f 32/19/7 40/20/7 34/21/7
f 45/22/8 48/23/8 22/24/8
f 48/25/9 47/26/9 22/27/9
f 47/28/10 46/29/10 22/30/10
f 34/21/11 44/31/11 21/32/11
f 34/21/12 40/20/12 44/31/12
f 40/20/13 43/33/13 44/31/13
f 19/7/14 38/9/14 43/33/14
f 38/9/15 42/34/15 43/33/15
f 39/18/16 36/17/16 42/34/16
f 36/17/17 41/35/17 42/34/17
f 37/15/18 20/14/18 41/36/18
f 35/12/19 21/32/19 20/14/19
f 35/12/20 33/11/20 21/32/20
f 40/20/21 19/7/21 43/33/21
f 40/20/22 32/19/22 19/7/22
f 38/9/23 39/18/23 42/34/23
f 38/9/24 31/8/24 39/18/24
f 31/8/25 29/16/25 39/18/25
f 36/17/26 37/37/26 41/35/26
f 36/17/27 29/16/27 37/37/27
f 29/16/28 25/38/28 37/37/28
f 20/14/29 25/13/29 35/12/29
f 25/13/30 26/10/30 35/12/30
f 33/11/31 34/21/31 21/32/31
f 33/11/32 26/10/32 34/21/32
f 26/10/33 32/19/33 34/21/33
f 27/39/34 30/40/34 32/19/34
f 30/40/35 19/7/35 32/19/35
f 30/41/36 31/8/36 19/7/36
f 30/41/37 28/42/37 31/8/37
f 28/42/38 29/16/38 31/8/38
f 28/6/39 23/5/39 29/16/39
f 23/5/40 25/38/40 29/16/40
f 26/10/41 27/43/41 32/19/41
f 26/10/42 24/44/42 27/43/42
f 24/44/43 30/45/43 27/43/43
f 23/3/44 24/2/44 25/13/44
f 24/2/45 26/10/45 25/13/45
f 49/46/46 56/47/46 60/48/46
f 50/49/47 55/50/47 62/51/47
f 51/52/48 57/53/48 63/54/48
f 52/55/49 58/56/49 65/57/49
f 53/58/50 59/59/50 64/60/50
f 49/46/51 60/48/51 61/61/51
f 53/58/52 64/60/52 60/48/52
f 71/62/53 72/63/53 54/64/53
f 60/48/54 64/60/54 70/65/54
f 64/60/55 69/66/55 70/65/55
f 65/57/56 68/67/56 69/66/56
f 63/54/57 67/68/57 68/67/57
f 62/51/58 66/69/58 67/70/58
f 61/61/59 60/48/59 66/69/59
f 60/48/60 70/65/60 66/69/60
f 64/60/61 65/57/61 69/66/61
f 64/60/62 59/59/62 65/57/62
f 59/59/63 52/55/63 65/57/63
f 65/57/64 63/54/64 68/67/64
f 65/57/65 58/56/65 63/54/65
f 58/56/66 51/52/66 63/54/66
f 63/54/67 62/71/67 67/68/67
f 63/54/68 57/53/68 62/71/68
f 57/53/69 50/72/69 62/71/69
f 62/51/70 61/61/70 66/69/70
f 62/51/71 55/50/71 61/61/71
f 55/50/72 49/46/72 61/61/72
f 56/47/73 53/58/73 60/48/73
f 73/73/74 80/74/74 84/75/74
f 74/76/47 79/77/47 85/78/47
f 75/79/48 81/80/48 86/81/48
f 76/82/49 82/83/49 88/84/49
f 84/75/75 93/85/75 77/86/75
f 84/75/76 87/87/76 93/85/76
f 87/87/77 91/88/77 93/85/77
f 88/84/56 90/89/56 91/88/56
f 86/81/57 89/90/57 90/89/57
f 85/78/78 92/91/78 89/92/78
f 73/73/79 77/86/79 92/91/79
f 73/73/80 84/75/80 77/86/80
f 87/87/81 88/84/81 91/88/81
f 87/87/82 83/93/82 88/84/82
f 83/93/63 76/82/63 88/84/63
f 88/84/64 86/81/64 90/89/64
f 88/84/65 82/83/65 86/81/65
f 82/83/66 75/79/66 86/81/66
f 86/81/67 85/94/67 89/90/67
f 86/81/68 81/80/68 85/94/68
f 81/80/69 74/95/69 85/94/69
f 85/78/83 73/73/83 92/91/83
f 85/78/84 79/77/84 73/73/84
f 80/74/85 87/87/85 84/75/85
f 95/96/74 104/97/74 108/98/74
f 107/99/86 110/100/86 108/98/86
f 108/98/87 110/100/87 101/101/87
f 98/102/88 100/103/88 110/100/88
f 97/104/89 99/105/89 100/103/89
f 96/106/90 109/107/90 99/108/90
f 95/96/91 108/98/91 109/107/91
f 108/98/92 101/101/92 109/107/92
f 110/100/93 107/99/93 98/102/93
f 98/102/94 97/104/94 100/103/94
f 98/102/95 106/109/95 97/104/95
f 97/104/96 96/110/96 99/105/96
f 97/104/97 105/111/97 96/110/97
f 96/106/98 95/96/98 109/107/98
f 96/106/99 103/112/99 95/96/99
f 104/97/100 107/99/100 108/98/100
usemtl Branch
f 1/113/101 2/114/101 4/115/101 3/116/101
f 3/116/102 4/115/102 6/117/102 5/118/102
f 5/118/103 6/117/103 8/119/103 7/120/103
f 7/120/104 8/119/104 10/121/104 9/122/104
f 9/122/105 10/121/105 12/123/105 11/124/105
f 11/124/106 12/123/106 14/125/106 13/126/106
f 13/126/107 14/125/107 16/127/107 15/128/107
f 15/128/108 16/127/108 18/129/108 17/130/108
f 17/130/109 18/129/109 2/131/109 1/132/109
f 1/133/110 3/134/110 5/135/110 7/136/110 9/137/110 11/138/110 13/139/110 15/140/110 17/141/110
usemtl Snow
f 20/14/111 21/32/111 22/142/111
f 21/32/112 44/31/112 45/22/112
f 45/22/113 44/31/113 48/23/113
f 44/31/114 43/33/114 48/23/114
f 48/25/115 43/33/115 47/26/115
f 43/33/116 42/34/116 47/26/116
f 47/28/117 42/34/117 46/29/117
f 42/34/118 41/35/118 46/29/118
f 46/143/119 41/36/119 22/144/119
f 41/36/120 20/14/120 22/144/120
f 22/142/121 21/32/121 45/145/121
f 70/65/122 69/66/122 71/146/122
f 71/62/123 69/66/123 72/63/123
f 69/66/124 68/67/124 72/63/124
f 68/67/125 67/68/125 72/147/125
f 72/148/126 67/70/126 54/149/126
f 67/70/120 66/69/120 54/149/120
f 54/150/127 66/69/127 71/151/127
f 66/69/128 70/65/128 71/151/128
f 93/85/129 91/88/129 78/152/129
f 78/153/130 91/88/130 94/154/130
f 91/88/124 90/89/124 94/154/124
f 90/89/125 89/90/125 94/155/125
f 94/156/131 92/91/131 78/157/131
f 94/156/132 89/92/132 92/91/132
f 92/158/133 93/159/133 78/160/133
f 92/158/134 77/86/134 93/159/134
f 99/108/135 109/107/135 102/161/135
f 100/103/136 99/105/136 102/162/136
f 101/163/137 110/100/137 102/164/137
f 110/165/138 100/103/138 102/166/138
f 109/107/139 101/101/139 102/167/139
