# Blender v2.81 (sub 16) OBJ File: 'Nature Pack Low Poly.blend'
# www.blender.org
mtllib Simple_Tree_5.mtl
o Simple_Tree_5_Cylinder.002
v -0.000001 -0.400000 -0.292813
v -0.000001 2.975410 -0.292813
v 0.188216 -0.400000 -0.224308
v 0.188216 2.975410 -0.224308
v 0.288364 -0.400000 -0.050846
v 0.288364 2.975410 -0.050846
v 0.253583 -0.400000 0.146407
v 0.253583 2.975410 0.146407
v 0.100147 -0.400000 0.275155
v 0.100147 2.975410 0.275155
v -0.100149 -0.400000 0.275155
v -0.100149 2.975410 0.275155
v -0.253585 -0.400000 0.146407
v -0.253585 2.975410 0.146407
v -0.288366 -0.400000 -0.050846
v -0.288366 2.975410 -0.050846
v -0.188218 -0.400000 -0.224308
v -0.188218 2.975410 -0.224308
v 0.000000 1.678150 0.000000
v 1.166955 2.569615 0.847833
v -0.445729 2.569614 1.371835
v -1.442433 2.569621 0.000000
v -0.445729 2.569614 -1.371835
v 1.166955 2.569615 -0.847833
v 0.445729 4.276514 1.371835
v -1.166955 4.276513 0.847833
v -1.166955 4.276513 -0.847833
v 0.445729 4.276514 -1.371835
v 1.442433 4.276502 0.000000
v 0.000000 6.759612 0.000000
v -0.261991 1.918999 0.806338
v 0.685914 1.918999 0.498340
v 0.423926 2.442989 1.304686
v 1.371832 2.442992 0.000000
v 0.685914 1.918999 -0.498340
v -0.847840 1.919003 0.000000
v -1.109837 2.442991 0.806341
v -0.261991 1.918999 -0.806338
v -1.109837 2.442991 -0.806341
v 0.423926 2.442989 -1.304686
v 1.533763 3.290842 0.498342
v 1.533763 3.290842 -0.498342
v 0.000000 3.290842 1.612691
v 0.947917 3.290842 1.304694
v -1.533763 3.290842 0.498342
v -0.947917 3.290842 1.304694
v -0.947917 3.290842 -1.304694
v -1.533763 3.290842 -0.498342
v 0.947917 3.290842 -1.304694
v 0.000000 3.290842 -1.612691
v 1.109837 4.525115 0.806341
v -0.423926 4.525121 1.304686
v -1.371832 4.525115 0.000000
v -0.423926 4.525121 -1.304686
v 1.109837 4.525115 -0.806341
v 0.261991 5.875273 0.806338
v 0.847840 5.875259 0.000000
v -0.685914 5.875272 0.498340
v -0.685914 5.875272 -0.498340
v 0.261991 5.875273 -0.806338
vt 0.818181 0.000000
vt 0.772726 0.078731
vt 0.863635 0.078731
vt 0.727272 0.157461
vt 0.681818 0.078731
vt 0.636363 0.157461
vt 0.090909 0.000000
vt 0.045454 0.078731
vt 0.136363 0.078731
vt 0.272727 0.000000
vt 0.227273 0.078731
vt 0.318182 0.078731
vt 0.454545 0.000000
vt 0.409090 0.078731
vt 0.500000 0.078731
vt 0.681818 0.236191
vt 0.909090 0.157461
vt 0.818181 0.157461
vt 0.863635 0.236191
vt 0.181818 0.157461
vt 0.090909 0.157461
vt 0.136363 0.236191
vt 0.363636 0.157461
vt 0.272727 0.157461
vt 0.318182 0.236191
vt 0.545454 0.157461
vt 0.454545 0.157461
vt 0.500000 0.236191
vt 0.772726 0.236191
vt 0.954545 0.236191
vt 0.227273 0.236191
vt 0.409090 0.236191
vt 0.590909 0.236191
vt 0.818181 0.314921
vt 0.727272 0.314921
vt 0.772726 0.393651
vt 1.000000 0.314921
vt 0.909091 0.314921
vt 0.954545 0.393651
vt 0.272727 0.314921
vt 0.181818 0.314921
vt 0.227273 0.393651
vt 0.454545 0.314921
vt 0.363636 0.314921
vt 0.409090 0.393651
vt 0.636363 0.314921
vt 0.545454 0.314921
vt 0.590909 0.393651
vt 0.500000 0.393651
vt 0.545454 0.472382
vt 0.318182 0.393651
vt 0.363636 0.472382
vt 0.136363 0.393651
vt 0.181818 0.472382
vt 0.090909 0.314921
vt 0.863635 0.393651
vt 0.909090 0.472382
vt 0.681818 0.393651
vt 0.727272 0.472382
vt 0.045454 0.236191
vt 0.000000 0.157461
vt 0.590909 0.078731
vt 0.636363 0.000000
vt 1.000000 0.500000
vt 1.000000 1.000000
vt 0.888889 1.000000
vt 0.888889 0.500000
vt 0.777778 1.000000
vt 0.777778 0.500000
vt 0.666667 1.000000
vt 0.666667 0.500000
vt 0.555556 1.000000
vt 0.555556 0.500000
vt 0.444444 1.000000
vt 0.444444 0.500000
vt 0.333333 1.000000
vt 0.333333 0.500000
vt 0.222222 1.000000
vt 0.222222 0.500000
vt 0.111111 1.000000
vt 0.111111 0.500000
vt 0.000000 1.000000
vt 0.000000 0.500000
vt 0.750000 0.490000
vt 0.904269 0.433851
vt 0.986354 0.291676
vt 0.957846 0.130000
vt 0.832085 0.024474
vt 0.667915 0.024474
vt 0.542154 0.130000
vt 0.513646 0.291676
vt 0.595731 0.433851
vn 0.1024 -0.9435 0.3151
vn 0.7002 -0.6617 0.2680
vn -0.2680 -0.9435 0.1947
vn -0.2680 -0.9435 -0.1947
vn 0.1024 -0.9435 -0.3151
vn 0.9050 -0.3304 0.2680
vn 0.0247 -0.3304 0.9435
vn -0.8897 -0.3304 0.3151
vn -0.5746 -0.3304 -0.7488
vn 0.5346 -0.3304 -0.7779
vn 0.8026 -0.1256 0.5831
vn -0.3066 -0.1256 0.9435
vn -0.9921 -0.1256 0.0000
vn -0.3066 -0.1256 -0.9435
vn 0.8026 -0.1256 -0.5831
vn 0.5347 0.3357 0.7755
vn -0.5723 0.3358 0.7481
vn -0.8884 0.3358 -0.3131
vn 0.0233 0.3358 -0.9417
vn 0.9028 0.3357 -0.2689
vn 0.6393 0.6129 -0.4645
vn 0.7213 0.4529 -0.5240
vn 0.5347 0.3357 -0.7755
vn -0.2442 0.6129 -0.7515
vn -0.2755 0.4529 -0.8479
vn -0.5723 0.3358 -0.7481
vn -0.7902 0.6129 0.0000
vn -0.8915 0.4529 0.0000
vn -0.8884 0.3358 0.3131
vn -0.2442 0.6129 0.7515
vn -0.2755 0.4529 0.8479
vn 0.0233 0.3358 0.9417
vn 0.6393 0.6129 0.4645
vn 0.7213 0.4529 0.5240
vn 0.9028 0.3357 0.2689
vn 0.9213 0.2401 -0.3060
vn 0.8021 0.1301 -0.5828
vn 0.5757 0.2401 -0.7816
vn -0.0063 0.2401 -0.9707
vn -0.3064 0.1301 -0.9430
vn -0.5655 0.2401 -0.7891
vn -0.9252 0.2401 -0.2940
vn -0.9915 0.1301 0.0000
vn -0.9252 0.2401 0.2940
vn -0.5655 0.2401 0.7891
vn -0.3064 0.1301 0.9430
vn -0.0063 0.2401 0.9707
vn 0.5757 0.2401 0.7816
vn 0.8021 0.1301 0.5828
vn 0.9213 0.2401 0.3060
vn 0.3077 0.0923 -0.9470
vn 0.3035 -0.1876 -0.9342
vn 0.0247 -0.3304 -0.9435
vn -0.8056 0.0923 -0.5853
vn -0.7947 -0.1876 -0.5773
vn -0.8897 -0.3304 -0.3151
vn -0.8056 0.0923 0.5853
vn -0.7947 -0.1876 0.5773
vn -0.5746 -0.3304 0.7488
vn 0.3077 0.0923 0.9470
vn 0.3035 -0.1876 0.9342
vn 0.5346 -0.3304 0.7779
vn 0.9957 0.0923 0.0000
vn 0.9822 -0.1876 0.0000
vn 0.9050 -0.3304 -0.2680
vn 0.4713 -0.6617 -0.5831
vn 0.1876 -0.7947 -0.5773
vn -0.0385 -0.6617 -0.7488
vn -0.4089 -0.6617 -0.6284
vn -0.4911 -0.7947 -0.3568
vn -0.7240 -0.6617 -0.1947
vn -0.7240 -0.6617 0.1947
vn -0.4911 -0.7947 0.3568
vn -0.4089 -0.6617 0.6284
vn 0.7002 -0.6617 -0.2680
vn 0.6071 -0.7947 0.0000
vn 0.3313 -0.9435 0.0000
vn -0.0385 -0.6617 0.7488
vn 0.1876 -0.7947 0.5773
vn 0.4713 -0.6617 0.5831
vn 0.3420 0.0000 -0.9397
vn 0.8660 0.0000 -0.5000
vn 0.9848 0.0000 0.1736
vn 0.6428 0.0000 0.7660
vn -0.0000 -0.0000 1.0000
vn -0.6428 -0.0000 0.7660
vn -0.9848 -0.0000 0.1736
vn -0.8660 -0.0000 -0.5000
vn -0.3420 -0.0000 -0.9397
vn 0.0000 -1.0000 -0.0000
usemtl leaves
s off
f 19/1/1 32/2/1 31/3/1
f 20/4/2 32/5/2 34/6/2
f 19/7/3 31/8/3 36/9/3
f 19/10/4 36/11/4 38/12/4
f 19/13/5 38/14/5 35/15/5
f 20/4/6 34/6/6 41/16/6
f 21/17/7 33/18/7 43/19/7
f 22/20/8 37/21/8 45/22/8
f 23/23/9 39/24/9 47/25/9
f 24/26/10 40/27/10 49/28/10
f 20/4/11 41/16/11 44/29/11
f 21/17/12 43/19/12 46/30/12
f 22/20/13 45/22/13 48/31/13
f 23/23/14 47/25/14 50/32/14
f 24/26/15 49/28/15 42/33/15
f 25/34/16 51/35/16 56/36/16
f 26/37/17 52/38/17 58/39/17
f 27/40/18 53/41/18 59/42/18
f 28/43/19 54/44/19 60/45/19
f 29/46/20 55/47/20 57/48/20
f 57/48/21 60/49/21 30/50/21
f 57/48/22 55/47/22 60/49/22
f 55/47/23 28/43/23 60/49/23
f 60/45/24 59/51/24 30/52/24
f 60/45/25 54/44/25 59/51/25
f 54/44/26 27/40/26 59/51/26
f 59/42/27 58/53/27 30/54/27
f 59/42/28 53/41/28 58/53/28
f 53/41/29 26/55/29 58/53/29
f 58/39/30 56/56/30 30/57/30
f 58/39/31 52/38/31 56/56/31
f 52/38/32 25/34/32 56/56/32
f 56/36/33 57/58/33 30/59/33
f 56/36/34 51/35/34 57/58/34
f 51/35/35 29/46/35 57/58/35
f 42/33/36 55/47/36 29/46/36
f 42/33/37 49/28/37 55/47/37
f 49/28/38 28/43/38 55/47/38
f 50/32/39 54/44/39 28/43/39
f 50/32/40 47/25/40 54/44/40
f 47/25/41 27/40/41 54/44/41
f 48/31/42 53/41/42 27/40/42
f 48/31/43 45/22/43 53/41/43
f 45/22/44 26/55/44 53/41/44
f 46/30/45 52/38/45 26/37/45
f 46/30/46 43/19/46 52/38/46
f 43/19/47 25/34/47 52/38/47
f 44/29/48 51/35/48 25/34/48
f 44/29/49 41/16/49 51/35/49
f 41/16/50 29/46/50 51/35/50
f 49/28/51 50/32/51 28/43/51
f 49/28/52 40/27/52 50/32/52
f 40/27/53 23/23/53 50/32/53
f 47/25/54 48/31/54 27/40/54
f 47/25/55 39/24/55 48/31/55
f 39/24/56 22/20/56 48/31/56
f 45/22/57 46/60/57 26/55/57
f 45/22/58 37/21/58 46/60/58
f 37/21/59 21/61/59 46/60/59
f 43/19/60 44/29/60 25/34/60
f 43/19/61 33/18/61 44/29/61
f 33/18/62 20/4/62 44/29/62
f 41/16/63 42/33/63 29/46/63
f 41/16/64 34/6/64 42/33/64
f 34/6/65 24/26/65 42/33/65
f 35/15/66 40/27/66 24/26/66
f 35/15/67 38/14/67 40/27/67
f 38/14/68 23/23/68 40/27/68
f 38/12/69 39/24/69 23/23/69
f 38/12/70 36/11/70 39/24/70
f 36/11/71 22/20/71 39/24/71
f 36/9/72 37/21/72 22/20/72
f 36/9/73 31/8/73 37/21/73
f 31/8/74 21/61/74 37/21/74
f 34/6/75 35/62/75 24/26/75
f 34/6/76 32/5/76 35/62/76
f 32/5/77 19/63/77 35/62/77
f 31/3/78 33/18/78 21/17/78
f 31/3/79 32/2/79 33/18/79
f 32/2/80 20/4/80 33/18/80
usemtl Branch
f 1/64/81 2/65/81 4/66/81 3/67/81
f 3/67/82 4/66/82 6/68/82 5/69/82
f 5/69/83 6/68/83 8/70/83 7/71/83
f 7/71/84 8/70/84 10/72/84 9/73/84
f 9/73/85 10/72/85 12/74/85 11/75/85
f 11/75/86 12/74/86 14/76/86 13/77/86
f 13/77/87 14/76/87 16/78/87 15/79/87
f 15/79/88 16/78/88 18/80/88 17/81/88
f 17/81/89 18/80/89 2/82/89 1/83/89
f 1/84/90 3/85/90 5/86/90 7/87/90 9/88/90 11/89/90 13/90/90 15/91/90 17/92/90
