# Blender v2.81 (sub 16) OBJ File: 'Nature Pack Low Poly.blend'
# www.blender.org
mtllib Simple_Tree_6_Winter.mtl
o Simple_Tree_6_Winter_Cylinder.049
v -0.000000 -0.400000 -0.240374
v -0.000000 2.975410 -0.240374
v 0.154510 -0.400000 -0.184137
v 0.154510 2.975410 -0.184137
v 0.236722 -0.400000 -0.041741
v 0.236722 2.975410 -0.041741
v 0.208170 -0.400000 0.120187
v 0.208170 2.975410 0.120187
v 0.082213 -0.400000 0.225878
v 0.082213 2.975410 0.225878
v -0.082213 -0.400000 0.225878
v -0.082213 2.975410 0.225878
v -0.208170 -0.400000 0.120187
v -0.208170 2.975410 0.120187
v -0.236723 -0.400000 -0.041741
v -0.236723 2.975410 -0.041741
v -0.154510 -0.400000 -0.184137
v -0.154510 2.975410 -0.184137
v 0.000000 0.768594 -1.486471
v 0.955485 0.768594 -1.138703
v 1.463889 0.768594 -0.258123
v 1.287322 0.768594 0.743236
v 0.508403 0.768594 1.396826
v 0.000000 6.227959 -0.000000
v -0.508403 0.768594 1.396826
v -1.287322 0.768594 0.743235
v -1.463888 0.768594 -0.258123
v -0.955485 0.768594 -1.138703
v -0.643661 3.498276 0.371618
vt 0.250000 0.490000
vt 0.250000 0.250000
vt 0.404269 0.433851
vt 0.486354 0.291676
vt 0.457846 0.130000
vt 0.332085 0.024474
vt 0.167915 0.024474
vt 0.146077 0.190000
vt 0.042154 0.130000
vt 0.013646 0.291676
vt 0.095731 0.433851
vt 0.750000 0.490000
vt 0.904269 0.433851
vt 0.986354 0.291676
vt 0.957846 0.130000
vt 0.832085 0.024474
vt 0.667915 0.024474
vt 0.542154 0.130000
vt 0.513646 0.291676
vt 0.595731 0.433851
vt 1.000000 0.500000
vt 1.000000 1.000000
vt 0.888889 1.000000
vt 0.888889 0.500000
vt 0.777778 1.000000
vt 0.777778 0.500000
vt 0.666667 1.000000
vt 0.666667 0.500000
vt 0.555556 1.000000
vt 0.555556 0.500000
vt 0.444444 1.000000
vt 0.444444 0.500000
vt 0.333333 1.000000
vt 0.333333 0.500000
vt 0.222222 1.000000
vt 0.222222 0.500000
vt 0.111111 1.000000
vt 0.111111 0.500000
vt 0.000000 1.000000
vt 0.000000 0.500000
vt 0.750000 0.490000
vt 0.904269 0.433851
vt 0.986354 0.291676
vt 0.957846 0.130000
vt 0.832085 0.024474
vt 0.667915 0.024474
vt 0.542154 0.130000
vt 0.513646 0.291676
vt 0.595731 0.433851
vn 0.3313 0.2479 -0.9104
vn 0.8390 0.2479 -0.4844
vn 0.9541 0.2479 0.1682
vn 0.6227 0.2479 0.7421
vn -0.0000 0.2479 0.9688
vn -0.6227 0.2479 0.7421
vn -0.9541 0.2479 0.1682
vn -0.8390 0.2479 -0.4844
vn -0.3313 0.2479 -0.9104
vn 0.0000 -1.0000 0.0000
vn 0.3420 0.0000 -0.9397
vn 0.8660 0.0000 -0.5000
vn 0.9848 0.0000 0.1736
vn 0.6428 0.0000 0.7660
vn -0.0000 -0.0000 1.0000
vn -0.6428 -0.0000 0.7660
vn -0.9848 -0.0000 0.1736
vn -0.8660 -0.0000 -0.5000
vn -0.3420 -0.0000 -0.9397
usemtl Snow
s off
f 19/1/1 24/2/1 20/3/1
f 20/3/2 24/2/2 21/4/2
f 21/4/3 24/2/3 22/5/3
f 22/5/4 24/2/4 23/6/4
f 23/6/5 24/2/5 25/7/5
f 25/7/6 24/2/6 29/8/6 26/9/6
f 26/9/7 29/8/7 24/2/7 27/10/7
f 27/10/8 24/2/8 28/11/8
f 28/11/9 24/2/9 19/1/9
f 19/12/10 20/13/10 21/14/10 22/15/10 23/16/10 25/17/10 26/18/10 27/19/10 28/20/10
usemtl Branch
f 1/21/11 2/22/11 4/23/11 3/24/11
f 3/24/12 4/23/12 6/25/12 5/26/12
f 5/26/13 6/25/13 8/27/13 7/28/13
f 7/28/14 8/27/14 10/29/14 9/30/14
f 9/30/15 10/29/15 12/31/15 11/32/15
f 11/32/16 12/31/16 14/33/16 13/34/16
f 13/34/17 14/33/17 16/35/17 15/36/17
f 15/36/18 16/35/18 18/37/18 17/38/18
f 17/38/19 18/37/19 2/39/19 1/40/19
f 1/41/10 3/42/10 5/43/10 7/44/10 9/45/10 11/46/10 13/47/10 15/48/10 17/49/10
