# Blender v2.81 (sub 16) OBJ File: 'Nature Pack Low Poly.blend'
# www.blender.org
mtllib Tree_1_Summer.mtl
o Tree_1_Summer_Cube.019
v -0.196474 1.218362 -0.192744
v 0.220714 3.777726 -0.063552
v 1.060106 2.729171 0.596759
v 1.549899 3.507102 0.635852
v -0.650951 4.313792 0.121966
v -0.713530 4.209279 0.199294
v -2.095462 4.267332 0.784352
v 0.297582 2.248420 0.052944
v 0.232526 2.317161 0.065497
v 0.196728 2.328403 -0.025744
v 0.208640 3.787170 0.051421
v 0.149116 3.850420 -0.010750
v 0.135736 3.733524 -0.043037
v -0.639268 4.268396 0.207594
v -0.776671 4.296069 0.134950
v -0.738898 4.325226 0.209956
v 0.036013 -0.120022 -0.048804
v -0.683001 4.226766 0.108319
v 0.050418 -0.114194 0.047945
v -0.050726 -0.128066 -0.003308
v -0.273124 1.234687 -0.224617
v -0.224517 1.220075 -0.115842
v -0.302902 1.237093 -0.142199
v 0.301842 2.390183 0.029558
v 0.144556 3.722976 0.049718
v 0.279713 2.254212 -0.054232
v 0.251184 3.770670 -0.003489
v 0.592218 4.793466 -0.287286
v 0.506715 4.814703 -0.336477
v 1.001972 2.753476 0.674074
v 0.972690 2.810192 0.613748
v 1.011261 2.793456 0.562508
v 1.486275 3.566095 0.599826
v -1.113889 5.187860 -0.146067
v -1.061783 5.170457 -0.229353
v -1.011574 5.203609 -0.131002
v -0.975167 5.720671 -0.265863
v -1.012026 5.731392 -0.172428
v -2.127150 4.247855 0.690502
v -2.072680 4.342074 0.745628
v -2.680290 4.809483 0.684916
v -2.090985 4.328234 0.682715
v -2.637546 4.860447 0.765281
v 1.442015 2.784143 -0.060430
v 1.669601 2.458434 0.616989
v 0.873680 3.708148 0.340750
v 1.143890 3.873804 -0.005577
v 1.801112 4.021349 0.183102
v 2.512231 3.051409 0.512648
v 2.235048 2.335160 0.224114
v 1.828184 3.002782 -0.288912
v 0.969459 3.155043 0.273568
v 1.191153 3.428569 -0.249503
v 2.276407 2.949438 -0.095986
v 2.077032 2.301923 0.901475
v 2.374640 2.486868 0.784627
v 1.453501 3.202476 1.437528
v 1.094898 4.204236 0.837099
v 1.143854 3.819473 1.315745
v 2.151166 3.035578 1.252639
v 1.918373 3.901851 0.986927
v 1.622706 3.378772 1.527799
v 1.512419 4.232394 0.992052
v -1.674984 5.904924 -0.893738
v -0.756261 5.317104 0.867812
v -0.955271 6.460576 -0.550116
v 0.782256 4.756011 -0.117907
v 0.669501 5.348821 -0.790405
v 0.076731 5.153935 -1.147790
v -1.236574 5.229792 -0.520451
v -0.677711 5.106524 -1.086118
v 0.220409 6.029552 -0.693297
v 0.484098 4.796495 0.469914
v 0.826946 5.222666 0.086289
v -1.980153 5.766596 -0.515165
v -1.879531 5.846281 0.203185
v -0.697436 5.924062 -1.246674
v -0.052120 5.821692 0.684123
v -0.339578 6.331991 0.414255
v -0.655061 5.662013 0.999931
v -1.535613 5.908760 0.613830
v -1.461214 6.394104 -0.128883
v -2.061403 4.621674 1.222089
v -2.704737 3.675126 -0.098652
v -2.766896 4.866450 -0.064795
v -2.469600 4.668696 1.467703
v -3.276831 3.997965 0.106578
v -3.099515 4.780360 0.695334
v -1.955553 4.780074 0.191258
v -2.259604 5.491752 0.323189
v -2.060071 5.121778 0.016220
v -2.356265 3.708555 0.079160
v -2.414930 4.148029 -0.240710
v -1.962507 5.290231 1.083095
v -2.418149 5.489242 0.764867
v -2.483858 3.453909 0.746664
v -2.889309 3.288811 0.347088
v -3.312189 3.954673 1.008160
v -2.653261 3.785747 1.418193
v -2.864180 3.277819 0.949055
v -3.332696 3.614379 0.591311
v 0.293870 5.219943 -0.343921
v 0.396972 4.410587 -0.924444
v 1.053055 4.074903 -0.660564
v 0.040038 4.496707 -0.442220
v 1.189963 4.407204 -0.730506
v 0.932765 4.909990 -0.538319
v 0.903666 3.921015 -0.027932
v 1.222319 4.215689 -0.039273
v 0.648602 4.139757 0.450701
v -0.361465 4.988928 -0.422850
v 0.374591 4.926997 -0.878093
v 1.105515 4.543179 0.165446
v 0.642114 4.926188 0.195264
v 0.399388 4.479084 0.553942
v -0.173938 4.906730 0.337944
v -0.057116 5.212708 -0.015340
v -0.511345 3.906184 0.844913
v -0.565495 4.398149 -0.368056
v -0.686370 4.756253 -0.046106
v -0.532099 4.373677 0.704030
v -0.159819 3.905275 0.734049
v -0.112437 4.091935 0.472695
v -0.405125 3.899712 0.204002
v -0.979180 3.782652 0.454847
v -0.990964 4.695746 -0.638617
v -1.438141 4.201469 0.167127
v -1.177753 4.786068 -0.084576
v -1.567696 4.356461 -0.363956
v -1.370064 4.639483 -0.570155
v 0.163625 1.930994 -0.130674
v 1.056372 3.293659 0.043785
v -0.175864 2.728133 0.581611
v 0.505679 2.267745 0.642012
v -0.139953 1.978426 0.614870
v -0.077467 2.371233 0.939769
v 0.409640 2.417464 0.928664
v 1.107947 2.956795 0.107831
v 0.291166 3.324784 0.276873
v -0.453919 2.292671 0.305839
v 0.722487 3.156145 0.592661
v -0.279694 1.990161 -0.059129
v 0.933356 3.400332 -0.513201
v 0.063480 3.194166 -0.262142
v 0.309970 2.643994 -0.849044
v 0.694942 3.189220 -0.849093
v 0.506907 3.538333 -0.210848
vt 0.000000 0.000000
vt 0.000000 0.000000
vt 0.000000 0.000000
vt 0.000000 0.000000
vt 0.000000 0.000000
vt 0.000000 0.000000
vt 0.000000 0.000000
vt 0.000000 0.000000
vt 0.000000 0.000000
vt 0.000000 0.000000
vt 0.000000 0.000000
vt 0.000000 0.000000
vt 0.000000 0.000000
vt 0.000000 0.000000
vt 0.000000 0.000000
vt 0.000000 0.000000
vt 0.000000 0.000000
vt 0.000000 0.000000
vt 0.000000 0.000000
vt 0.000000 0.000000
vt 0.000000 0.000000
vt 0.000000 0.000000
vt 0.000000 0.000000
vt 0.000000 0.000000
vt 0.000000 0.000000
vt 0.000000 0.000000
vt 0.000000 0.000000
vt 0.000000 0.000000
vt 0.000000 0.000000
vt 0.000000 0.000000
vt 0.000000 0.000000
vt 0.000000 0.000000
vt 0.000000 0.000000
vt 0.000000 0.000000
vt 0.000000 0.000000
vt 0.000000 0.000000
vt 0.000000 0.000000
vt 0.000000 0.000000
vt 0.000000 0.000000
vt 0.000000 0.000000
vt 0.000000 0.000000
vt 0.000000 0.000000
vt 0.000000 0.000000
vt 0.818181 0.000000
vt 0.743064 0.130107
vt 0.888202 0.121281
vt 0.090909 0.000000
vt 0.020888 0.121281
vt 0.126861 0.095189
vt 0.272727 0.000000
vt 0.227273 0.078731
vt 0.318182 0.078731
vt 0.454545 0.000000
vt 0.425428 0.107028
vt 0.518180 0.110220
vt 0.619927 0.185930
vt 0.680825 0.278631
vt 0.239824 0.157461
vt 0.173170 0.299942
vt 0.376495 0.179733
vt 0.294280 0.293873
vt 0.572728 0.110220
vt 0.490753 0.292178
vt 0.772726 0.236191
vt 0.840215 0.195625
vt 0.983411 0.286188
vt 0.227273 0.393651
vt 0.353284 0.393651
vt 0.566418 0.436071
vt 0.499999 0.393651
vt 0.136363 0.393652
vt 0.181818 0.472382
vt 0.074320 0.286188
vt 0.933586 0.357350
vt 0.834533 0.343244
vt 0.909090 0.472382
vt 0.801829 0.343244
vt 0.706308 0.436071
vt 0.711479 0.130107
vt 0.636363 0.000000
vt 0.684882 0.157461
vt 0.629873 0.252196
vt 0.772726 0.236191
vt 0.193222 0.111600
vt 0.084354 0.285185
vt 0.255382 0.284878
vt 0.505041 0.314921
vt 0.571022 0.428096
vt 0.500000 0.393651
vt 0.380798 0.344646
vt 0.318181 0.393651
vt 0.363636 0.472382
vt 0.200719 0.347658
vt 0.136363 0.393651
vt 0.181818 0.472382
vt 0.945522 0.378024
vt 0.854279 0.377446
vt 0.909090 0.472382
vt 0.500497 0.181350
vt 0.386755 0.197505
vt 0.303025 0.209938
vt 0.982832 0.285185
vt 0.872191 0.221371
vt 0.703034 0.425793
vt 0.000000 0.157461
vt 0.818181 0.157461
vt 0.499999 0.078730
vt 0.431835 0.039335
vt 0.295437 0.039335
vt 0.079688 0.019436
vt 0.628285 0.078730
vt 0.829402 0.019436
vt 0.772726 0.078731
vt 0.272727 0.000000
vt 0.259221 0.134068
vt 0.318182 0.078731
vt 0.454545 0.000000
vt 0.427900 0.111310
vt 0.499999 0.078730
vt 0.380782 0.187158
vt 0.337578 0.269786
vt 0.565721 0.192565
vt 0.502805 0.295721
vt 0.870862 0.314921
vt 0.674058 0.314921
vt 0.716368 0.423414
vt 0.409090 0.393651
vt 0.569668 0.430442
vt 0.500000 0.393651
vt 0.266123 0.342877
vt 0.363636 0.472382
vt 0.233843 0.342877
vt 0.113236 0.353593
vt 0.181818 0.472382
vt 0.977673 0.353593
vt 0.900406 0.457341
vt 0.193793 0.221676
vt 0.933918 0.200464
vt 0.837588 0.191075
vt 0.740136 0.236191
vt 0.024828 0.200464
vt 0.688636 0.157461
vt 0.136363 0.078730
vt 0.075696 0.026351
vt 0.638377 0.078730
vt 0.833394 0.026351
vt 0.772727 0.078731
vt 0.212645 0.089250
vt 0.049235 0.236191
vt 0.234115 0.342313
vt 0.611498 0.271853
vt 0.494141 0.314921
vt 0.569370 0.430957
vt 0.500000 0.393651
vt 0.379388 0.342204
vt 0.297078 0.357098
vt 0.363636 0.472382
vt 0.116889 0.359920
vt 0.181818 0.472382
vt 0.974020 0.359920
vt 0.863635 0.393651
vt 0.909090 0.472382
vt 0.932043 0.275166
vt 0.795282 0.275258
vt 0.749445 0.353326
vt 0.703356 0.430957
vt 0.500826 0.178614
vt 0.332027 0.201858
vt 0.880437 0.207090
vt 0.689682 0.178377
vt 0.000000 0.157461
vt 0.794464 0.116381
vt 0.464119 0.078731
vt 0.304430 0.054911
vt 0.077874 0.022578
vt 0.604660 0.054911
vt 0.681818 0.078731
vt 0.831216 0.022578
vt 0.454545 0.000000
vt 0.321387 0.149869
vt 0.516458 0.107238
vt 0.739241 0.178192
vt 0.655768 0.123851
vt 0.652004 0.265384
vt 0.312620 0.149869
vt 0.089228 0.038734
vt 0.110479 0.331543
vt 0.574450 0.107238
vt 0.475693 0.280905
vt 0.305620 0.279699
vt 0.391203 0.424634
vt 0.536146 0.416887
vt 0.318182 0.393651
vt 0.201727 0.349405
vt 0.181818 0.472382
vt 0.985417 0.340180
vt 0.884489 0.331116
vt 0.909090 0.472382
vt 0.793144 0.358287
vt 0.715906 0.452696
vt 0.866284 0.196737
vt 0.027195 0.204565
vt 0.636363 0.000000
vt 0.830039 0.020539
vt 0.772726 0.078731
vt 0.454545 0.000000
vt 0.409091 0.078731
vt 0.500000 0.078730
vt 0.935820 0.203759
vt 0.818181 0.157461
vt 0.879022 0.262841
vt 0.200543 0.117933
vt 0.034128 0.198422
vt 0.143443 0.330407
vt 0.382647 0.190390
vt 0.340459 0.274777
vt 0.698483 0.157461
vt 0.671775 0.253586
vt 0.777837 0.274916
vt 0.277625 0.323405
vt 0.557100 0.294749
vt 0.572082 0.426260
vt 0.479744 0.358568
vt 0.429346 0.358568
vt 0.363636 0.472382
vt 0.248401 0.323405
vt 0.181818 0.472382
vt 0.969262 0.368160
vt 0.784843 0.274916
vt 0.909090 0.472382
vt 0.700644 0.426261
vt 0.498398 0.188032
vt 0.070348 0.035614
vt 0.638271 0.078731
vt 0.838742 0.035614
vt 0.772726 0.078731
vn -0.3079 0.0532 0.9499
vn 0.9036 -0.3924 -0.1719
vn 0.8257 -0.4703 0.3116
vn 0.0125 -0.1681 0.9857
vn -0.3229 -0.0219 0.9462
vn -0.8484 0.4225 -0.3189
vn -0.9318 -0.0543 0.3589
vn 0.7961 0.0437 0.6037
vn -0.0102 -0.0163 0.9998
vn 0.4057 -0.3356 -0.8501
vn 0.7752 -0.0848 0.6261
vn -0.9027 0.2074 -0.3769
vn 0.5986 -0.7883 -0.1424
vn -0.6280 0.7295 0.2710
vn 0.3618 0.4457 -0.8188
vn 0.2290 -0.8660 0.4445
vn 0.6467 -0.4385 0.6241
vn -0.2864 0.2551 0.9235
vn -0.5977 0.4187 0.6837
vn -0.6487 0.4292 -0.6285
vn 0.3822 -0.1913 -0.9041
vn 0.3551 -0.1775 -0.9178
vn 0.9149 0.3948 0.0845
vn -0.8531 -0.1668 0.4944
vn -0.5441 -0.4676 -0.6966
vn 0.2593 0.4184 0.8705
vn -0.8021 -0.4329 -0.4113
vn 0.8436 0.2003 -0.4982
vn 0.5543 -0.0741 -0.8290
vn -0.1846 0.3053 0.9342
vn 0.8998 -0.1684 -0.4026
vn 0.9310 0.0294 0.3639
vn -0.1569 0.0771 0.9846
vn -0.3817 0.0825 -0.9206
vn -0.0586 0.9784 -0.1982
vn 0.3170 -0.5104 0.7994
vn 0.3538 0.3430 0.8702
vn 0.4859 0.5979 -0.6376
vn 0.3475 0.3457 0.8716
vn 0.9299 0.0298 -0.3667
vn -0.4528 0.0071 0.8916
vn 0.1145 -0.9925 0.0427
vn -0.4382 -0.2133 -0.8732
vn 0.9761 0.1529 -0.1545
vn 0.9161 0.2292 0.3290
vn -0.9227 -0.2037 -0.3274
vn 0.3776 -0.0339 -0.9254
vn -0.8560 0.3514 0.3791
vn -0.1260 0.2296 -0.9651
vn 0.3747 -0.0484 -0.9259
vn 0.4290 0.0370 0.9025
vn -0.9951 -0.0421 0.0898
vn -0.3457 -0.0266 -0.9380
vn -0.2274 -0.0148 -0.9737
vn -0.3849 0.4216 0.8211
vn 0.8008 -0.3925 -0.4524
vn -0.0364 0.2273 -0.9731
vn -0.1181 -0.2222 -0.9678
vn -0.3573 -0.4840 0.7988
vn -0.1828 0.8857 -0.4269
vn -0.7253 0.2898 0.6245
vn 0.6200 0.0541 -0.7827
vn -0.4991 -0.8650 -0.0509
vn -0.5312 -0.7810 -0.3284
vn 0.5121 0.7910 0.3348
vn 0.0800 -0.1694 0.9823
vn -0.8781 0.1248 -0.4619
vn -0.6308 -0.5874 0.5070
vn -0.1127 0.9440 -0.3102
vn -0.3715 -0.1501 -0.9162
vn 0.3146 0.5184 0.7952
vn -0.1033 -0.9698 -0.2211
vn 0.0394 -0.9809 0.1903
vn 0.6301 0.6994 -0.3372
vn -0.0603 -0.0693 -0.9958
vn -0.3911 -0.8739 -0.2888
vn -0.6670 -0.7339 -0.1288
vn -0.7222 -0.4382 -0.5352
vn -0.3052 -0.3755 -0.8751
vn 0.9202 -0.2279 -0.3184
vn -0.9388 -0.1969 0.2826
vn -0.7382 0.6124 -0.2830
vn 0.2226 0.4148 -0.8823
vn 0.9408 -0.3027 -0.1524
vn -0.5791 -0.6740 0.4586
vn -0.9528 0.1814 0.2433
vn 0.4026 0.3937 -0.8264
vn -0.2792 0.7343 0.6188
vn 0.0252 0.9695 -0.2439
vn 0.8111 0.5840 -0.0315
vn 0.6314 0.7751 0.0231
vn 0.4318 0.5188 0.7378
vn 0.1274 0.5390 0.8326
vn -0.4363 -0.0415 0.8989
vn 0.6086 0.3776 0.6979
vn 0.8379 0.3529 0.4164
vn 0.8014 0.4561 -0.3869
vn -0.1017 0.9241 -0.3683
vn 0.0439 -0.4884 0.8715
vn 0.1736 -0.4394 0.8814
vn 0.8988 -0.0079 0.4384
vn 0.1382 0.4871 -0.8623
vn -0.8573 -0.3570 0.3710
vn -0.7421 -0.5821 0.3323
vn 0.5416 -0.4068 0.7356
vn 0.5504 -0.8303 0.0877
vn -0.8169 0.2080 -0.5379
vn -0.8955 -0.1025 -0.4331
vn 0.3055 -0.4561 -0.8358
vn -0.0888 -0.6404 -0.7629
vn -0.2863 -0.9514 -0.1135
vn 0.8282 0.5562 -0.0687
vn -0.5238 -0.8195 0.2328
vn 0.3335 0.9387 -0.0877
vn -0.0132 0.9900 0.1404
vn -0.2063 0.8284 0.5207
vn -0.5986 0.6967 0.3953
vn -0.1227 0.6853 0.7178
vn -0.4407 -0.2054 0.8738
vn 0.2619 0.5623 0.7843
vn 0.2315 0.8103 -0.5384
vn -0.4355 0.8087 -0.3955
vn -0.6543 0.7068 -0.2692
vn -0.7821 0.6218 0.0406
vn -0.6022 -0.5414 0.5867
vn 0.1300 -0.3877 0.9126
vn 0.4528 0.0508 0.8902
vn 0.6870 0.6021 0.4068
vn 0.7037 0.6905 0.1672
vn -0.2477 0.7210 -0.6471
vn -0.5761 -0.7996 0.1694
vn -0.3333 -0.9267 0.1736
vn 0.6316 0.1724 0.7559
vn 0.8488 -0.2781 0.4497
vn 0.9837 -0.0159 -0.1790
vn 0.4380 0.4035 -0.8033
vn -0.0678 -0.1938 -0.9787
vn -0.3301 -0.1896 -0.9247
vn -0.5516 -0.5348 -0.6401
vn -0.5445 -0.7506 -0.3744
vn -0.2338 -0.9721 -0.0191
vn 0.4152 0.3074 -0.8562
vn -0.2089 -0.9772 -0.0387
vn 0.0274 -0.9260 -0.3766
vn 0.5524 -0.5772 -0.6014
vn 0.8254 -0.2560 -0.5032
vn 0.7528 -0.1028 -0.6502
vn 0.3445 -0.7753 -0.5293
vn -0.3795 0.0404 -0.9243
vn -0.6783 0.4066 0.6120
vn -0.6741 -0.5395 -0.5046
vn -0.9704 0.2399 -0.0265
vn -0.9942 0.1017 -0.0341
vn -0.7222 -0.5180 0.4584
vn -0.5883 -0.8086 0.0098
vn -0.5540 -0.4290 0.7135
vn -0.5164 0.0595 0.8543
vn -0.8432 0.4319 -0.3201
vn -0.5325 -0.5180 -0.6694
vn 0.5652 -0.6740 0.4756
vn 0.4968 -0.1513 0.8546
vn 0.5214 0.0991 0.8475
vn -0.6154 0.5347 0.5792
vn -0.3648 -0.0556 -0.9294
vn 0.4051 -0.9136 -0.0336
vn 0.5382 -0.8166 -0.2087
vn 0.7834 -0.4555 0.4227
vn -0.2310 0.6413 0.7317
vn 0.3246 0.9380 0.1218
vn -0.6914 0.6866 -0.2248
vn -0.6763 0.6968 -0.2388
vn 0.0215 0.2477 -0.9686
vn 0.4327 -0.4921 -0.7554
vn 0.9343 -0.3539 0.0436
vn 0.9340 -0.3548 0.0414
vn -0.1232 0.5935 -0.7954
vn 0.9883 -0.1292 0.0816
vn 0.9649 0.2312 -0.1247
vn 0.8052 0.5700 -0.1636
vn -0.6837 -0.7063 0.1837
vn 0.4711 0.8660 0.1675
vn 0.2768 0.9076 0.3157
vn 0.0996 0.7356 0.6700
vn 0.1272 0.5777 0.8062
vn 0.4056 0.4278 0.8078
vn 0.4747 0.0820 0.8763
vn 0.6500 -0.2224 0.7266
vn 0.6285 0.7423 0.2326
vn 0.2861 0.8577 -0.4271
vn -0.2875 0.9137 -0.2870
vn -0.7697 0.5861 0.2531
vn -0.6341 -0.6102 0.4750
vn 0.5674 -0.5916 0.5727
vn 0.9491 0.3122 0.0421
vn 0.8926 0.4506 0.0157
vn -0.2354 0.8367 -0.4944
vn -0.7669 -0.6303 0.1209
vn -0.5752 -0.8153 0.0661
vn 0.6785 -0.7344 -0.0184
vn 0.9017 -0.4039 -0.1541
vn 0.4580 0.5120 -0.7267
vn -0.5220 0.0538 -0.8513
vn -0.7096 -0.5621 -0.4249
vn -0.4757 -0.8568 -0.1991
vn 0.2368 0.0970 -0.9667
vn 0.2263 -0.2890 -0.9302
vn -0.3376 -0.8932 -0.2970
vn 0.7485 -0.3816 -0.5423
vn 0.2887 0.2880 0.9131
vn 0.0285 -0.7497 -0.6612
vn 0.8215 0.5087 -0.2574
vn 0.0241 -0.6534 -0.7566
vn 0.6836 0.6019 -0.4129
vn 0.6301 0.7365 0.2460
vn 0.0707 0.9880 -0.1372
vn 0.0188 0.8922 0.4512
vn -0.1816 0.9590 -0.2176
vn -0.7721 0.6246 0.1172
vn -0.7957 0.5010 0.3403
vn -0.5062 0.5213 0.6870
vn -0.0669 -0.5566 -0.8281
vn -0.6514 -0.7563 -0.0618
vn -0.5280 0.2235 0.8193
vn -0.0653 -0.8386 -0.5408
vn -0.6128 -0.1368 0.7783
vn 0.6551 0.5536 0.5142
vn 0.7079 -0.6292 -0.3210
vn 0.1705 -0.9830 -0.0686
vn 0.0686 -0.9718 0.2255
vn 0.8142 -0.3560 0.4587
vn -0.1307 -0.9914 0.0098
vn 0.7159 -0.5630 -0.4130
vn 0.9746 0.1124 -0.1937
vn -0.8472 0.2413 0.4732
vn 0.7328 -0.5174 -0.4419
vn -0.7387 0.6564 0.1530
vn -0.6167 0.7840 0.0705
vn -0.4829 0.7005 -0.5254
vn -0.0703 0.8663 -0.4946
vn -0.6121 0.4322 -0.6622
vn -0.8450 0.1643 -0.5089
vn -0.8449 0.1373 -0.5171
vn -0.8543 0.5179 0.0437
vn 0.0482 0.9070 0.4184
vn 0.3674 0.9251 0.0960
vn -0.2045 -0.6736 -0.7102
vn 0.2314 0.9012 0.3665
vn 0.8571 -0.2736 -0.4364
vn -0.7688 -0.6220 0.1486
vn -0.8042 -0.2976 0.5145
vn -0.3306 0.6215 0.7102
vn -0.2915 0.6194 0.7289
vn 0.7740 -0.0404 0.6319
vn 0.8056 0.2273 0.5470
vn 0.7392 -0.6726 -0.0341
vn -0.0193 0.4207 0.9070
vn 0.3917 -0.8943 0.2164
vn 0.3305 -0.7866 0.5216
vn 0.0784 -0.6428 0.7620
usemtl Branch_2
s off
f 23/1/1 19/2/1 22/3/1
f 8/4/2 1/5/2 26/6/2
f 8/4/3 22/3/3 1/5/3
f 9/7/4 22/3/4 8/4/4
f 9/7/5 23/1/5 22/3/5
f 10/8/6 21/9/6 23/1/6
f 10/8/7 9/7/7 25/10/7
f 11/11/8 24/12/8 27/13/8
f 11/11/9 25/10/9 24/12/9
f 28/14/10 2/15/10 29/16/10
f 28/14/11 11/11/11 27/13/11
f 29/16/12 13/17/12 12/18/12
f 8/4/13 26/6/13 3/19/13
f 30/20/14 24/12/14 9/7/14
f 32/21/15 26/6/15 24/12/15
f 30/20/16 8/4/16 3/19/16
f 4/22/17 30/20/17 3/19/17
f 33/23/18 30/20/18 4/22/18
f 33/23/19 31/24/19 30/20/19
f 33/23/20 32/21/20 31/24/20
f 33/23/21 3/19/21 32/21/21
f 4/22/22 3/19/22 33/23/22
f 14/25/23 5/26/23 36/27/23
f 34/28/24 15/29/24 16/30/24
f 18/31/25 15/29/25 35/32/25
f 36/27/26 16/30/26 14/25/26
f 34/28/27 35/32/27 15/29/27
f 36/27/28 5/26/28 35/32/28
f 35/32/29 5/26/29 18/31/29
f 34/28/30 16/30/30 36/27/30
f 37/33/31 36/27/31 35/32/31
f 38/34/32 36/27/32 37/33/32
f 38/34/33 34/28/33 36/27/33
f 42/35/34 15/29/34 39/36/34
f 40/37/35 15/29/35 42/35/35
f 6/38/36 14/25/36 7/39/36
f 40/37/37 7/39/37 16/30/37
f 43/40/38 42/35/38 41/41/38
f 43/40/39 7/39/39 40/37/39
f 24/12/40 26/6/40 2/15/40 27/13/40
f 23/1/41 20/42/41 19/2/41
f 17/43/42 19/2/42 20/42/42
f 21/9/43 17/43/43 20/42/43
f 17/43/44 1/5/44 19/2/44
f 22/3/45 19/2/45 1/5/45
f 23/1/46 21/9/46 20/42/46
f 21/9/47 1/5/47 17/43/47
f 9/7/48 10/8/48 23/1/48
f 10/8/49 26/6/49 21/9/49
f 26/6/50 1/5/50 21/9/50
f 25/10/51 9/7/51 24/12/51
f 25/10/52 13/17/52 10/8/52
f 13/17/53 26/6/53 10/8/53
f 13/17/54 2/15/54 26/6/54
f 12/18/55 11/11/55 28/14/55 29/16/55
f 28/14/56 27/13/56 2/15/56
f 12/18/57 13/17/57 18/31/57 5/26/57
f 29/16/58 2/15/58 13/17/58
f 30/20/59 9/7/59 8/4/59
f 31/24/60 32/21/60 24/12/60
f 30/20/61 31/24/61 24/12/61
f 3/19/62 26/6/62 32/21/62
f 6/38/63 13/17/63 25/10/63
f 6/38/64 18/31/64 13/17/64
f 11/11/65 12/18/65 5/26/65 14/25/65
f 11/11/66 14/25/66 6/38/66 25/10/66
f 35/32/67 34/28/67 38/34/67 37/33/67
f 39/36/68 7/39/68 43/40/68 41/41/68
f 40/37/69 16/30/69 15/29/69
f 39/36/70 15/29/70 18/31/70
f 16/30/71 7/39/71 14/25/71
f 39/36/72 18/31/72 6/38/72
f 39/36/73 6/38/73 7/39/73
f 42/35/74 43/40/74 40/37/74
f 41/41/75 42/35/75 39/36/75
usemtl leaves
f 44/44/76 50/45/76 45/46/76
f 44/47/77 45/48/77 52/49/77
f 44/50/78 52/51/78 53/52/78
f 44/53/79 53/54/79 51/55/79
f 50/45/80 54/56/80 49/57/80
f 46/58/81 52/49/81 59/59/81
f 47/60/82 46/58/82 58/61/82
f 51/62/83 53/54/83 48/63/83
f 50/45/84 49/57/84 56/64/84
f 45/46/85 55/65/85 57/66/85
f 46/58/86 59/59/86 58/61/86
f 51/62/87 48/63/87 54/56/87
f 58/61/88 59/59/88 63/67/88
f 48/63/89 58/61/89 63/68/89
f 49/57/90 48/63/90 61/69/90
f 61/69/91 48/63/91 63/70/91
f 63/67/92 62/71/92 61/72/92
f 63/67/93 59/59/93 62/71/93
f 59/59/94 57/73/94 62/71/94
f 62/74/95 60/75/95 61/76/95
f 60/77/96 49/57/96 61/78/96
f 54/56/97 48/63/97 49/57/97
f 47/60/98 58/61/98 48/63/98
f 57/66/99 55/65/99 62/74/99
f 55/65/100 60/75/100 62/74/100
f 56/64/101 49/57/101 60/75/101
f 48/63/102 53/54/102 47/60/102
f 59/59/103 52/49/103 57/73/103
f 52/49/104 45/48/104 57/73/104
f 55/65/105 56/64/105 60/75/105
f 55/65/106 50/45/106 56/64/106
f 53/52/107 46/58/107 47/60/107
f 53/52/108 52/51/108 46/58/108
f 54/56/109 50/79/109 51/62/109
f 50/79/110 44/80/110 51/62/110
f 45/46/111 50/45/111 55/65/111
f 68/81/112 72/82/112 74/83/112
f 70/84/113 65/85/113 76/86/113
f 72/82/114 66/87/114 79/88/114
f 79/88/115 66/87/115 82/89/115
f 82/90/116 81/91/116 79/92/116
f 82/90/117 76/86/117 81/91/117
f 81/93/118 80/94/118 79/95/118
f 81/93/119 65/85/119 80/94/119
f 80/96/120 78/97/120 79/98/120
f 72/82/121 77/99/121 66/87/121
f 64/100/122 82/90/122 66/87/122
f 64/100/123 75/101/123 82/90/123
f 75/101/124 76/86/124 82/90/124
f 76/86/125 65/85/125 81/93/125
f 65/102/126 73/103/126 80/96/126
f 73/103/127 78/97/127 80/96/127
f 74/83/128 79/104/128 78/97/128
f 74/83/129 72/82/129 79/104/129
f 77/99/130 64/100/130 66/87/130
f 75/101/131 70/84/131 76/86/131
f 70/84/132 73/105/132 65/85/132
f 73/103/133 74/83/133 78/97/133
f 73/103/134 67/106/134 74/83/134
f 67/106/135 68/81/135 74/83/135
f 68/81/136 77/99/136 72/82/136
f 69/107/137 71/108/137 77/99/137
f 71/108/138 64/100/138 77/99/138
f 71/109/139 75/101/139 64/100/139
f 71/109/140 70/84/140 75/101/140
f 71/110/141 73/105/141 70/84/141
f 68/81/142 69/111/142 77/99/142
f 71/112/143 67/106/143 73/103/143
f 71/112/144 69/113/144 67/106/144
f 69/113/145 68/81/145 67/106/145
f 89/114/146 92/115/146 93/116/146
f 89/117/147 93/118/147 91/119/147
f 84/120/148 92/115/148 97/121/148
f 85/122/149 93/118/149 87/123/149
f 86/124/150 88/125/150 98/126/150
f 87/123/151 97/121/151 101/127/151
f 88/125/152 87/123/152 98/128/152
f 98/128/153 87/123/153 101/129/153
f 101/127/154 100/130/154 98/131/154
f 101/127/155 97/121/155 100/130/155
f 100/132/156 99/133/156 98/134/156
f 99/135/157 86/124/157 98/136/157
f 85/122/158 87/123/158 88/125/158
f 84/120/159 97/121/159 87/123/159
f 96/137/160 99/133/160 100/130/160
f 83/138/161 86/124/161 99/135/161
f 83/138/162 94/139/162 86/124/162
f 95/140/163 88/125/163 86/124/163
f 87/123/164 93/118/164 84/120/164
f 97/121/165 96/137/165 100/130/165
f 97/121/166 92/115/166 96/137/166
f 96/137/167 83/141/167 99/133/167
f 94/139/168 95/140/168 86/124/168
f 94/139/169 90/142/169 95/140/169
f 95/140/170 85/122/170 88/125/170
f 95/140/171 90/142/171 85/122/171
f 91/119/172 93/118/172 85/122/172
f 93/116/173 92/115/173 84/120/173
f 92/143/174 89/144/174 96/137/174
f 89/144/175 83/141/175 96/137/175
f 90/142/176 91/145/176 85/122/176
f 89/146/177 94/139/177 83/138/177
f 89/146/178 91/147/178 94/139/178
f 91/147/179 90/142/179 94/139/179
f 105/148/180 110/149/180 116/150/180
f 107/151/181 102/152/181 114/153/181
f 114/153/182 102/152/182 117/154/182
f 117/155/183 116/156/183 114/157/183
f 116/150/184 115/158/184 114/159/184
f 115/160/185 113/161/185 114/162/185
f 115/160/186 110/163/186 113/161/186
f 110/163/187 109/164/187 113/161/187
f 113/165/188 107/151/188 114/166/188
f 107/151/189 112/167/189 102/152/189
f 111/168/190 117/155/190 102/152/190
f 111/168/191 116/150/191 117/155/191
f 110/149/192 115/158/192 116/150/192
f 108/169/193 109/164/193 110/163/193
f 109/164/194 106/170/194 113/165/194
f 106/170/195 107/151/195 113/165/195
f 112/167/196 111/168/196 102/152/196
f 111/168/197 105/148/197 116/150/197
f 105/148/198 108/171/198 110/149/198
f 108/169/199 104/172/199 109/164/199
f 104/172/200 106/170/200 109/164/200
f 106/170/201 112/167/201 107/151/201
f 103/173/202 111/168/202 112/167/202
f 103/174/203 105/148/203 111/168/203
f 103/175/204 108/171/204 105/148/204
f 106/170/205 103/176/205 112/167/205
f 106/170/206 104/177/206 103/176/206
f 103/178/207 104/172/207 108/169/207
f 124/179/208 119/180/208 123/181/208
f 118/182/209 122/183/209 121/184/209
f 119/185/210 124/186/210 129/187/210
f 123/188/211 119/180/211 120/189/211
f 119/185/212 129/187/212 126/190/212
f 119/180/213 126/190/213 120/189/213
f 123/188/214 120/189/214 121/184/214
f 120/189/215 126/190/215 128/191/215
f 121/184/216 120/189/216 128/192/216
f 128/191/217 126/190/217 130/193/217
f 130/194/218 129/187/218 128/195/218
f 129/196/219 127/197/219 128/198/219
f 127/199/220 121/184/220 128/200/220
f 126/190/221 129/187/221 130/194/221
f 125/201/222 127/197/222 129/196/222
f 118/182/223 121/184/223 127/197/223
f 129/187/224 124/186/224 125/202/224
f 125/201/225 118/182/225 127/197/225
f 122/183/226 123/188/226 121/184/226
f 122/183/227 124/203/227 123/188/227
f 124/204/228 122/205/228 125/201/228
f 122/205/229 118/182/229 125/201/229
f 134/206/230 138/207/230 137/208/230
f 131/209/231 135/210/231 142/211/231
f 138/212/232 131/213/232 145/214/232
f 132/215/233 138/212/233 143/216/233
f 136/217/234 133/218/234 140/219/234
f 138/212/235 145/214/235 146/220/235
f 133/218/236 139/221/236 144/222/236
f 144/222/237 139/221/237 147/223/237
f 147/224/238 146/220/238 144/225/238
f 147/224/239 143/216/239 146/220/239
f 146/226/240 145/214/240 144/227/240
f 145/228/241 140/229/241 144/230/241
f 145/228/242 142/211/242 140/229/242
f 140/219/243 133/218/243 144/231/243
f 141/232/244 147/223/244 139/221/244
f 132/215/245 143/216/245 147/223/245
f 131/209/246 142/211/246 145/228/246
f 141/232/247 132/215/247 147/223/247
f 143/216/248 138/212/248 146/220/248
f 142/211/249 135/210/249 140/219/249
f 135/210/250 136/217/250 140/219/250
f 133/218/251 136/217/251 139/221/251
f 136/217/252 141/232/252 139/221/252
f 137/208/253 138/207/253 141/232/253
f 138/207/254 132/215/254 141/232/254
f 138/212/255 134/233/255 131/213/255
f 136/217/256 137/234/256 141/232/256
f 134/235/257 135/210/257 131/209/257
f 134/235/258 137/236/258 135/210/258
f 137/236/259 136/217/259 135/210/259
