# Blender v2.81 (sub 16) OBJ File: 'Nature Pack Low Poly.blend'
# www.blender.org
mtllib Tree_1_Dead.mtl
o Tree_1_Dead_Cube.018
v 0.560621 4.753647 -0.310171
v -0.031397 -0.124388 0.041593
v -0.210614 1.219627 -0.209293
v 0.277546 2.233912 -0.038040
v 0.160887 2.148110 0.030385
v 0.326847 2.395872 0.063329
v 0.212857 3.803354 -0.069508
v 0.451258 4.319551 -0.262485
v 0.205223 3.871109 0.036256
v 0.150196 3.885078 -0.035711
v 0.426446 4.377228 -0.239328
v 0.330819 2.301675 0.111273
v 0.347607 2.369781 0.018590
v 0.346422 2.402114 0.125007
v 1.323221 2.984433 0.616909
v 1.027216 2.800076 0.571614
v 1.024734 2.737609 0.667348
v 1.396832 3.201469 0.629760
v 0.063827 3.785715 0.064171
v -0.593040 4.270243 0.115338
v -0.651875 4.303720 0.202735
v -0.798263 4.363066 0.134440
v -0.970536 4.800485 -0.042866
v -1.056827 5.137432 -0.171859
v -1.001239 5.713862 -0.230916
v -0.720730 4.222747 0.218836
v -0.887028 4.308423 0.199088
v -0.779914 4.307273 0.243669
v -2.081234 4.250954 0.765679
v -2.599525 4.716185 0.746197
v 0.366109 2.292025 0.090495
v -0.978866 5.711286 -0.219241
v 0.286359 2.325794 0.096675
v 0.165408 3.612158 -0.052454
v 0.259566 2.169286 0.018136
v 0.146540 2.188850 -0.042991
v 0.250675 2.323324 -0.055804
v 0.191580 2.426296 0.000063
v 0.248478 3.688785 -0.000424
v 0.165053 3.884396 0.011887
v 0.042340 3.775722 0.025936
v 0.288508 3.888710 -0.058474
v 0.188435 3.627787 0.055519
v -0.708385 4.263134 0.231671
v 0.159797 3.837729 -0.069369
v -0.727820 4.402603 0.059320
v -0.800556 4.263421 0.143541
v -0.748272 4.390937 0.188292
v -0.713845 4.207759 0.172813
v -0.821483 4.323545 0.215920
v 0.009105 -0.124012 -0.052036
v -0.618813 4.218754 0.090852
v 0.061113 -0.106307 0.000818
v 0.006415 -0.107496 0.056144
v -0.048781 -0.114871 0.001341
v 0.048292 -0.115904 0.042064
v -0.033190 -0.119933 -0.038096
v -0.195404 1.214951 -0.168964
v -0.250156 1.224379 -0.114253
v -0.306648 1.235221 -0.170118
v -0.253164 1.222624 -0.225624
v -0.209697 1.217850 -0.128721
v -0.293095 1.226800 -0.130557
v -0.291328 1.234189 -0.210595
v 0.302306 2.408205 0.000625
v 0.219465 2.436586 0.055299
v 0.144233 3.608970 0.034279
v 0.207276 2.410186 -0.040106
v 0.295093 2.293898 -0.039681
v 0.284314 2.465347 0.040798
v 0.220083 3.749314 0.051066
v 0.495661 4.371048 -0.267249
v 0.497328 4.486918 -0.300901
v 0.488980 4.339220 -0.217632
v 0.447674 4.386945 -0.206496
v 0.515656 4.622451 -0.274138
v 1.059541 2.724383 0.588582
v 1.064177 2.728501 0.637331
v 0.989661 2.756640 0.653221
v 1.051445 2.751544 0.562847
v 0.985417 2.789427 0.628208
v 1.357558 3.136546 0.592855
v 1.429434 3.171189 0.637693
v 1.421775 3.139614 0.598550
v 1.501875 3.385129 0.627386
v 1.507210 3.501812 0.606746
v 1.508054 3.548934 0.621596
v 0.030350 3.842180 -0.026964
v 0.064651 3.891551 0.022755
v 0.056080 3.782594 -0.017707
v 0.028960 3.890977 -0.011018
v 0.095659 3.860189 0.058428
v -0.823808 4.467485 0.048297
v -0.667576 4.373773 0.133394
v -0.951632 4.939334 -0.074969
v -1.000976 4.968423 -0.176195
v -0.925955 4.921816 -0.129113
v -1.035690 5.184684 -0.221912
v -1.015332 5.196795 -0.164959
v -0.997346 5.184623 -0.204607
v -0.996783 5.726605 -0.209217
v -0.748435 4.225967 0.139532
v -2.092357 4.234889 0.727444
v -2.099469 4.289165 0.670125
v -2.095818 4.295020 0.787120
v -2.061501 4.342768 0.715380
v -2.591098 4.594907 0.746812
v -2.096161 4.248733 0.685582
v -2.081279 4.328056 0.679227
v -2.053559 4.328098 0.755258
v -2.603596 4.636251 0.706332
v -2.474053 4.608174 0.737161
v -2.528143 4.531812 0.722355
v -2.567997 4.674592 0.714624
v -2.668837 4.822459 0.726916
v 0.046069 -0.110141 -0.038922
v -2.652101 4.856961 0.726384
v 0.542839 4.817281 -0.308580
vt 0.000000 0.000000
vt 0.000000 0.000000
vt 0.000000 0.000000
vt 0.000000 0.000000
vt 0.000000 0.000000
vt 0.000000 0.000000
vt 0.000000 0.000000
vt 0.000000 0.000000
vt 0.000000 0.000000
vt 0.000000 0.000000
vt 0.000000 0.000000
vt 0.000000 0.000000
vt 0.000000 0.000000
vt 0.000000 0.000000
vt 0.000000 0.000000
vt 0.000000 0.000000
vt 0.000000 0.000000
vt 0.000000 0.000000
vt 0.000000 0.000000
vt 0.000000 0.000000
vt 0.000000 0.000000
vt 0.000000 0.000000
vt 0.000000 0.000000
vt 0.000000 0.000000
vt 0.000000 0.000000
vt 0.000000 0.000000
vt 0.000000 0.000000
vt 0.000000 0.000000
vt 0.000000 0.000000
vt 0.000000 0.000000
vt 0.000000 0.000000
vt 0.000000 0.000000
vt 0.000000 0.000000
vt 0.000000 0.000000
vt 0.000000 0.000000
vt 0.000000 0.000000
vt 0.000000 0.000000
vt 0.000000 0.000000
vt 0.000000 0.000000
vt 0.000000 0.000000
vt 0.000000 0.000000
vt 0.000000 0.000000
vt 0.000000 0.000000
vt 0.000000 0.000000
vt 0.000000 0.000000
vt 0.000000 0.000000
vt 0.000000 0.000000
vt 0.000000 0.000000
vt 0.000000 0.000000
vt 0.000000 0.000000
vt 0.000000 0.000000
vt 0.000000 0.000000
vt 0.000000 0.000000
vt 0.000000 0.000000
vt 0.000000 0.000000
vt 0.000000 0.000000
vt 0.000000 0.000000
vt 0.000000 0.000000
vt 0.000000 0.000000
vt 0.000000 0.000000
vt 0.000000 0.000000
vt 0.000000 0.000000
vt 0.000000 0.000000
vt 0.000000 0.000000
vt 0.000000 0.000000
vt 0.000000 0.000000
vt 0.000000 0.000000
vt 0.000000 0.000000
vt 0.000000 0.000000
vt 0.000000 0.000000
vt 0.000000 0.000000
vt 0.000000 0.000000
vt 0.000000 0.000000
vt 0.000000 0.000000
vt 0.000000 0.000000
vt 0.000000 0.000000
vt 0.000000 0.000000
vt 0.000000 0.000000
vt 0.000000 0.000000
vt 0.000000 0.000000
vt 0.000000 0.000000
vt 0.000000 0.000000
vt 0.000000 0.000000
vt 0.000000 0.000000
vt 0.000000 0.000000
vt 0.000000 0.000000
vt 0.000000 0.000000
vt 0.000000 0.000000
vt 0.000000 0.000000
vt 0.000000 0.000000
vt 0.000000 0.000000
vt 0.000000 0.000000
vt 0.000000 0.000000
vt 0.000000 0.000000
vt 0.000000 0.000000
vt 0.000000 0.000000
vt 0.000000 0.000000
vt 0.000000 0.000000
vt 0.000000 0.000000
vt 0.000000 0.000000
vt 0.000000 0.000000
vt 0.000000 0.000000
vt 0.000000 0.000000
vt 0.000000 0.000000
vt 0.000000 0.000000
vt 0.000000 0.000000
vt 0.000000 0.000000
vt 0.000000 0.000000
vt 0.000000 0.000000
vt 0.000000 0.000000
vt 0.000000 0.000000
vt 0.000000 0.000000
vt 0.000000 0.000000
vt 0.000000 0.000000
vt 0.000000 0.000000
vt 0.000000 0.000000
vt 0.000000 0.000000
vt 0.000000 0.000000
vn 0.0071 0.8828 0.4697
vn 0.1210 0.7953 0.5940
vn -0.9210 -0.1317 0.3666
vn -0.8957 0.0910 0.4352
vn -0.3095 -0.2938 0.9044
vn -0.3393 -0.3509 -0.8728
vn -0.4108 -0.0783 -0.9083
vn 0.3631 0.7690 -0.5261
vn 0.0868 0.0139 0.9961
vn -0.2681 0.6002 0.7536
vn -0.6255 0.7570 0.1889
vn -0.1131 -0.9922 -0.0529
vn -0.4950 0.0255 0.8685
vn 0.2069 -0.4669 0.8598
vn 0.2829 0.4527 0.8456
vn 0.8006 -0.5041 -0.3237
vn 0.2500 -0.6435 0.7235
vn -0.7375 -0.4244 0.5254
vn 0.7254 0.5854 -0.3621
vn 0.3512 -0.0521 -0.9348
vn 0.9156 0.2209 0.3360
vn 0.9320 0.1369 -0.3356
vn -0.3520 0.0518 0.9346
vn -0.4094 -0.1917 -0.8920
vn 0.8267 -0.4582 0.3266
vn -0.3544 0.0113 0.9350
vn -0.8357 0.4408 -0.3275
vn -0.8879 -0.0488 0.4574
vn 0.1423 -0.0008 0.9898
vn 0.8623 -0.0258 0.5058
vn 0.6571 -0.5107 -0.5544
vn 0.4935 0.1641 0.8541
vn 0.8764 -0.4503 -0.1709
vn -0.7582 0.5666 0.3226
vn -0.3105 0.5203 0.7955
vn -0.4597 -0.0766 -0.8848
vn 0.3989 0.1336 0.9072
vn -0.8280 0.3620 0.4282
vn 0.2185 -0.2751 -0.9363
vn -0.7243 0.0839 -0.6844
vn 0.4318 0.0983 0.8966
vn -0.1149 -0.0073 -0.9934
vn -0.4527 -0.3340 0.8267
vn 0.4804 0.3003 -0.8240
vn 0.1647 -0.8626 0.4782
vn 0.5087 -0.8601 0.0383
vn -0.5717 0.8145 0.0990
vn 0.7025 -0.7116 -0.0067
vn 0.4828 -0.4277 0.7642
vn -0.6340 0.6347 -0.4419
vn 0.5021 -0.4090 -0.7620
vn -0.0783 0.1392 -0.9872
vn -0.0947 0.1556 0.9833
vn 0.9458 -0.3169 0.0705
vn 0.0883 0.0017 -0.9961
vn -0.0419 0.0369 0.9984
vn -0.7282 0.2178 -0.6498
vn 0.7153 -0.1533 -0.6818
vn 0.0371 0.9977 -0.0562
vn -0.5166 -0.8058 -0.2895
vn -0.4420 -0.8703 0.2173
vn -0.1915 -0.4329 -0.8808
vn -0.8404 -0.4521 -0.2988
vn -0.7301 -0.0106 0.6832
vn 0.3394 0.5064 0.7927
vn -0.4257 0.2585 0.8672
vn -0.9369 -0.3052 -0.1706
vn -0.4326 0.2002 0.8791
vn -0.9374 0.0552 -0.3438
vn 0.4109 -0.0422 -0.9107
vn -0.2869 0.0897 0.9537
vn -0.9844 0.1091 0.1381
vn -0.2947 0.8901 0.3478
vn 0.1465 0.9333 0.3278
vn -0.3438 0.3635 -0.8658
vn -0.1134 0.9404 -0.3206
vn 0.3367 -0.3771 0.8628
vn 0.1102 -0.9401 0.3226
vn -0.3557 -0.3590 -0.8629
vn 0.3504 0.3778 0.8570
vn -0.1391 -0.9439 -0.2995
vn -0.5095 -0.7303 0.4551
vn 0.4620 0.7040 -0.5393
vn 0.2726 0.4637 0.8430
vn -0.0815 -0.0006 0.9967
vn -0.7255 -0.5808 -0.3692
vn 0.5949 0.7209 -0.3556
vn 0.0816 0.1377 -0.9871
vn -0.9444 -0.3263 -0.0417
vn -0.1439 0.0850 0.9859
vn -0.4031 -0.9142 -0.0420
vn 0.0703 0.9975 -0.0076
vn -0.3763 0.0450 0.9254
vn -0.8663 0.2434 -0.4361
vn -0.9457 0.1680 0.2782
vn 0.6691 0.7339 -0.1175
vn 0.5334 0.2512 -0.8077
vn -0.3431 -0.3858 -0.8564
vn -0.0518 -0.0760 -0.9958
vn 0.3017 0.2381 0.9232
vn 0.1829 0.1406 0.9730
vn -0.2112 0.0707 -0.9749
vn 0.2760 -0.1068 -0.9552
vn 0.1055 -0.9935 0.0417
vn -0.4535 -0.3365 0.8253
vn 0.4921 -0.3322 -0.8046
vn 0.3518 0.1853 0.9176
vn 0.7910 0.5107 0.3369
vn 0.5033 0.1525 -0.8505
vn -0.3236 -0.1827 -0.9284
vn 0.9227 0.1326 -0.3621
vn 0.9244 0.2188 0.3125
vn -0.9158 -0.2177 -0.3376
vn -0.9452 -0.1433 0.2933
vn 0.8904 -0.3814 -0.2483
vn 0.3547 -0.0511 -0.9336
vn 0.2076 -0.2447 0.9471
vn -0.8579 0.3585 0.3680
vn -0.4578 0.3443 -0.8197
vn 0.3982 -0.0390 -0.9165
vn 0.0717 0.3717 0.9256
vn 0.8599 0.4457 -0.2489
vn -0.9607 -0.0334 -0.2757
vn -0.4292 -0.0113 0.9032
vn 0.2159 0.0054 0.9764
vn -0.8273 -0.4979 -0.2600
vn 0.0059 -0.0091 -0.9999
vn -0.3800 -0.0227 -0.9247
vn 0.9304 0.0413 -0.3642
vn 0.9115 0.0405 0.4093
vn -0.8126 0.2334 -0.5340
vn 0.9216 -0.3756 0.0977
vn -0.1782 -0.2713 -0.9459
vn 0.5287 -0.5181 -0.6723
vn 0.4575 0.1934 0.8679
vn -0.7940 0.5515 0.2557
vn -0.7016 0.3399 0.6263
vn 0.9860 -0.1643 0.0274
vn -0.2141 0.3262 0.9207
vn -0.1506 0.1924 0.9697
vn 0.7389 -0.1977 -0.6442
vn -0.8047 0.5595 0.1988
vn 0.0906 -0.8355 0.5419
vn -0.0967 0.8396 -0.5345
vn 0.5169 -0.8557 0.0231
vn 0.6990 -0.2822 -0.6571
vn -0.4851 -0.2788 0.8288
vn -0.2172 0.4278 -0.8774
vn 0.4345 0.3656 -0.8231
vn -0.4173 0.8981 -0.1392
vn 0.5493 -0.4826 -0.6822
vn -0.2340 0.2635 0.9359
vn -0.4909 0.4874 0.7222
vn -0.6548 0.6655 -0.3584
vn 0.0880 0.0077 -0.9961
vn 0.4170 -0.3314 0.8463
vn 0.8320 -0.4999 0.2405
vn -0.1487 0.0977 0.9840
vn -0.8797 0.3481 0.3238
vn 0.9978 -0.0356 0.0564
vn -0.3410 -0.3065 -0.8887
vn -0.3079 -0.2745 -0.9110
vn -0.3837 -0.8176 0.4293
vn -0.4798 -0.8772 0.0187
vn 0.0387 0.3655 -0.9300
vn 0.5151 0.8510 0.1018
vn 0.4015 0.8044 -0.4380
vn 0.3333 0.2778 0.9009
vn 0.0090 -0.3180 0.9480
vn 0.8111 0.5117 0.2832
vn -0.9381 0.0528 0.3422
vn -0.2129 -0.4613 -0.8613
vn 0.4616 -0.1417 -0.8757
vn 0.7883 0.0794 -0.6102
vn 0.4511 -0.1237 -0.8839
vn -0.7951 -0.4589 -0.3965
vn 0.8914 0.3302 0.3104
vn -0.3111 -0.3602 -0.8795
vn -0.3485 0.2559 0.9017
vn -0.7878 -0.2458 -0.5648
vn 0.9081 -0.0202 0.4182
vn 0.5216 0.0529 0.8515
vn 0.4586 -0.0408 -0.8877
vn -0.5622 -0.0624 -0.8247
vn -0.1253 0.9295 -0.3469
vn -0.3514 -0.3983 -0.8473
vn -0.3352 0.4055 -0.8504
vn 0.3562 0.3407 0.8701
vn -0.1554 -0.9257 -0.3449
vn 0.1425 0.9378 0.3166
vn 0.3484 -0.3143 0.8831
vn 0.1240 -0.9272 0.3535
vn -0.4744 -0.6868 0.5507
vn -0.5479 -0.8078 -0.2174
vn 0.0564 0.1819 -0.9817
vn 0.3897 -0.9178 -0.0760
vn 0.5379 0.8202 0.1946
vn -0.3679 -0.5025 0.7824
vn 0.5390 0.8231 0.1790
vn 0.6425 0.7565 -0.1220
vn -0.0841 0.0254 -0.9961
vn 0.8542 0.3704 0.3650
vn -0.2896 -0.0153 0.9570
vn 0.0751 -0.7419 0.6663
usemtl Branch_2
s off
f 9/1/1 40/2/1 92/3/1
f 92/3/2 40/2/2 89/4/2
f 55/5/3 2/6/3 63/7/3
f 36/8/4 66/9/4 38/10/4
f 67/11/5 43/12/5 19/13/5
f 52/14/6 47/15/6 46/16/6
f 45/17/7 34/18/7 90/19/7
f 32/20/8 25/21/8 101/22/8
f 71/23/9 19/13/9 43/12/9
f 28/24/10 48/25/10 50/26/10
f 50/26/11 48/25/11 22/27/11
f 2/6/12 57/28/12 51/29/12
f 5/30/13 33/31/13 66/9/13
f 5/30/14 35/32/14 33/31/14
f 21/33/15 48/25/15 28/24/15
f 4/34/16 31/35/16 35/32/16
f 35/32/17 31/35/17 12/36/17
f 67/11/18 19/13/18 41/37/18
f 94/38/19 20/39/19 46/16/19
f 61/40/20 116/41/20 51/29/20
f 58/42/21 56/43/21 53/44/21
f 3/45/22 58/42/22 116/41/22
f 63/7/23 54/46/23 59/47/23
f 64/48/24 61/40/24 57/28/24
f 35/32/25 62/49/25 58/42/25
f 5/30/26 63/7/26 59/47/26
f 36/8/27 64/48/27 60/50/27
f 38/10/28 66/9/28 67/11/28
f 71/23/29 43/12/29 70/51/29
f 42/52/30 71/23/30 39/53/30
f 8/54/31 42/52/31 7/55/31
f 9/1/32 71/23/32 74/56/32
f 74/56/33 42/52/33 72/57/33
f 75/58/34 11/59/34 40/2/34
f 40/2/35 9/1/35 75/58/35
f 73/60/36 8/54/36 45/17/36
f 1/61/37 75/58/37 74/56/37
f 11/59/38 75/58/38 76/62/38
f 72/57/39 8/54/39 73/60/39
f 73/60/40 11/59/40 118/63/40
f 118/63/41 76/62/41 1/61/41
f 1/61/42 73/60/42 118/63/42
f 33/31/43 12/36/43 17/64/43
f 16/65/44 69/66/44 13/67/44
f 78/68/45 17/64/45 31/35/45
f 31/35/46 4/34/46 77/69/46
f 81/70/47 6/71/47 14/72/47
f 78/68/48 77/69/48 15/73/48
f 17/64/49 78/68/49 15/73/49
f 18/74/50 82/75/50 81/70/50
f 84/76/51 15/73/51 80/77/51
f 82/75/52 80/77/52 16/65/52
f 83/78/53 18/74/53 17/64/53
f 85/79/54 83/78/54 84/76/54
f 84/76/55 82/75/55 86/80/55
f 87/81/56 18/74/56 85/79/56
f 86/80/57 18/74/57 87/81/57
f 85/79/58 84/76/58 86/80/58
f 91/82/59 89/4/59 10/83/59
f 49/84/60 90/19/60 41/37/60
f 49/84/61 19/13/61 26/85/61
f 46/16/62 47/15/62 93/86/62
f 23/87/63 93/86/63 22/27/63
f 23/87/64 22/27/64 48/25/64
f 48/25/65 21/33/65 95/88/65
f 23/87/66 48/25/66 95/88/66
f 96/89/67 23/87/67 24/90/67
f 24/90/68 95/88/68 99/91/68
f 98/92/69 24/90/69 25/21/69
f 100/93/70 98/92/70 25/21/70
f 101/22/71 24/90/71 99/91/71
f 25/21/72 24/90/72 101/22/72
f 27/94/73 50/26/73 22/27/73
f 106/95/74 28/24/74 50/26/74
f 109/96/75 47/15/75 104/97/75
f 106/95/76 27/94/76 109/96/76
f 26/85/77 44/98/77 105/99/77
f 49/84/78 26/85/78 29/100/78
f 108/101/79 104/97/79 102/102/79
f 110/103/80 105/99/80 28/24/80
f 108/101/81 49/84/81 103/104/81
f 107/105/82 103/104/82 29/100/82
f 106/95/83 109/96/83 114/106/83
f 112/107/84 105/99/84 110/103/84
f 107/105/85 105/99/85 30/108/85
f 107/105/86 111/109/86 113/110/86
f 30/108/87 112/107/87 114/106/87
f 115/111/88 114/106/88 111/109/88
f 115/111/89 111/109/89 107/105/89
f 115/111/90 30/108/90 117/112/90
f 55/5/91 57/28/91 2/6/91
f 10/83/92 89/4/92 40/2/92
f 63/7/93 2/6/93 54/46/93
f 68/113/94 36/8/94 38/10/94
f 36/8/95 5/30/95 66/9/95
f 6/71/96 13/67/96 65/114/96
f 69/66/97 65/114/97 13/67/97
f 47/15/98 52/14/98 102/102/98
f 7/55/99 34/18/99 45/17/99
f 21/33/100 28/24/100 44/98/100
f 71/23/101 9/1/101 92/3/101
f 36/8/102 68/113/102 37/115/102
f 37/115/103 69/66/103 4/34/103
f 51/29/104 56/43/104 2/6/104
f 33/31/105 35/32/105 12/36/105
f 42/52/106 39/53/106 7/55/106
f 54/46/107 56/43/107 62/49/107 59/47/107
f 94/38/108 21/33/108 20/39/108
f 46/16/109 20/39/109 52/14/109
f 61/40/110 51/29/110 57/28/110
f 116/41/111 58/42/111 53/44/111
f 62/49/112 56/43/112 58/42/112
f 57/28/113 55/5/113 60/50/113 64/48/113
f 60/50/114 55/5/114 63/7/114
f 3/45/115 4/34/115 35/32/115 58/42/115
f 61/40/116 3/45/116 116/41/116
f 62/49/117 35/32/117 5/30/117 59/47/117
f 60/50/118 63/7/118 5/30/118 36/8/118
f 61/40/119 64/48/119 36/8/119 37/115/119
f 61/40/120 37/115/120 4/34/120 3/45/120
f 33/31/121 6/71/121 70/51/121 66/9/121
f 70/51/122 6/71/122 65/114/122
f 68/113/123 38/10/123 67/11/123 34/18/123
f 43/12/124 67/11/124 66/9/124
f 43/12/125 66/9/125 70/51/125
f 67/11/126 41/37/126 90/19/126 34/18/126
f 69/66/127 37/115/127 34/18/127 7/55/127
f 34/18/128 37/115/128 68/113/128
f 65/114/129 69/66/129 7/55/129 39/53/129
f 65/114/130 39/53/130 71/23/130 70/51/130
f 45/17/131 10/83/131 11/59/131 73/60/131
f 74/56/132 71/23/132 42/52/132
f 45/17/133 8/54/133 7/55/133
f 8/54/134 72/57/134 42/52/134
f 75/58/135 9/1/135 74/56/135
f 40/2/136 11/59/136 10/83/136
f 33/31/137 79/116/137 81/70/137 14/72/137
f 72/57/138 1/61/138 74/56/138
f 1/61/139 76/62/139 75/58/139
f 118/63/140 11/59/140 76/62/140
f 1/61/141 72/57/141 73/60/141
f 14/72/142 6/71/142 33/31/142
f 31/35/143 17/64/143 12/36/143
f 6/71/144 16/65/144 13/67/144
f 78/68/145 31/35/145 77/69/145
f 4/34/146 69/66/146 80/77/146 77/69/146
f 79/116/147 33/31/147 17/64/147
f 45/17/148 88/117/148 91/82/148 10/83/148
f 80/77/149 69/66/149 16/65/149
f 81/70/150 16/65/150 6/71/150
f 15/73/151 77/69/151 80/77/151
f 18/74/152 79/116/152 17/64/152
f 18/74/153 81/70/153 79/116/153
f 81/70/154 82/75/154 16/65/154
f 82/75/155 84/76/155 80/77/155
f 15/73/156 83/78/156 17/64/156
f 84/76/157 83/78/157 15/73/157
f 83/78/158 85/79/158 18/74/158
f 86/80/159 82/75/159 18/74/159
f 87/81/160 85/79/160 86/80/160
f 90/19/161 102/102/161 52/14/161 88/117/161
f 88/117/162 45/17/162 90/19/162
f 49/84/163 41/37/163 19/13/163
f 49/84/164 102/102/164 90/19/164
f 91/82/165 88/117/165 52/14/165 20/39/165
f 92/3/166 89/4/166 20/39/166 21/33/166
f 20/39/167 89/4/167 91/82/167
f 92/3/168 21/33/168 44/98/168 71/23/168
f 71/23/169 44/98/169 26/85/169 19/13/169
f 94/38/170 97/118/170 95/88/170 21/33/170
f 22/27/171 93/86/171 47/15/171
f 93/86/172 96/89/172 46/16/172
f 97/118/173 46/16/173 96/89/173
f 97/118/174 94/38/174 46/16/174
f 97/118/175 96/89/175 98/92/175 100/93/175
f 23/87/176 96/89/176 93/86/176
f 95/88/177 97/118/177 100/93/177 99/91/177
f 108/101/178 113/110/178 111/109/178 104/97/178
f 24/90/179 23/87/179 95/88/179
f 98/92/180 96/89/180 24/90/180
f 100/93/181 32/20/181 99/91/181
f 32/20/182 101/22/182 99/91/182
f 32/20/183 100/93/183 25/21/183
f 27/94/184 22/27/184 47/15/184
f 106/95/185 50/26/185 27/94/185
f 104/97/186 47/15/186 102/102/186
f 47/15/187 109/96/187 27/94/187
f 28/24/188 105/99/188 44/98/188
f 108/101/189 102/102/189 49/84/189
f 110/103/190 28/24/190 106/95/190
f 29/100/191 26/85/191 105/99/191
f 103/104/192 49/84/192 29/100/192
f 107/105/193 113/110/193 103/104/193
f 113/110/194 108/101/194 103/104/194
f 104/97/195 111/109/195 114/106/195 109/96/195
f 51/29/196 116/41/196 53/44/196 56/43/196
f 106/95/197 112/107/197 110/103/197
f 105/99/198 107/105/198 29/100/198
f 112/107/199 106/95/199 114/106/199
f 30/108/200 105/99/200 112/107/200
f 115/111/201 117/112/201 114/106/201
f 117/112/202 30/108/202 114/106/202
f 115/111/203 107/105/203 30/108/203
f 54/46/204 2/6/204 56/43/204
