# Blender v2.81 (sub 16) OBJ File: 'Nature Pack Low Poly.blend'
# www.blender.org
mtllib Tree_1_Autumn.mtl
o Tree_1_Autumn_Cube.020
v -0.196474 1.218362 -0.192744
v 0.254011 2.215631 -0.057762
v 0.220714 3.777726 -0.063552
v 1.054749 2.742378 0.580693
v 1.004721 2.789922 0.556030
v 1.506833 3.539399 0.608981
v -0.650951 4.313792 0.121966
v -0.713530 4.209279 0.199294
v -2.095462 4.267332 0.784352
v 0.297582 2.248420 0.052944
v 0.232526 2.317161 0.065497
v 0.148733 3.772905 -0.053456
v 0.196728 2.328403 -0.025744
v 0.216788 3.746665 0.049456
v 0.174422 3.907319 -0.025145
v 0.039527 3.779205 -0.001733
v 0.173128 3.726222 0.054922
v -0.639268 4.268396 0.207594
v -0.791744 4.353971 0.107184
v -0.754646 4.396771 0.177428
v -0.795519 4.320334 0.235482
v 0.036013 -0.120022 -0.048804
v -0.683001 4.226766 0.108319
v 0.059885 -0.113276 0.028861
v 0.006415 -0.107496 0.056144
v -0.045497 -0.124692 0.023870
v -0.033190 -0.119933 -0.038096
v -0.273124 1.234687 -0.224617
v -0.224517 1.220075 -0.115842
v -0.302902 1.237093 -0.142199
v 0.306405 2.371693 0.000481
v 0.144233 3.608970 0.034279
v 0.295021 2.295870 -0.039952
v 0.284141 2.377518 0.048412
v 0.251184 3.770670 -0.003489
v 0.592218 4.793466 -0.287286
v 0.189030 3.811342 0.044426
v 0.506715 4.814703 -0.336477
v 0.968741 2.808272 0.608601
v 1.026835 2.728557 0.659768
v 0.985353 2.772701 0.663031
v 1.516216 3.527681 0.625077
v 0.084359 3.877029 -0.006456
v -1.113889 5.187860 -0.146067
v -1.099323 5.174008 -0.205370
v -1.041037 5.176597 -0.223295
v -1.037087 5.202664 -0.115299
v -0.975167 5.720671 -0.265863
v -1.001800 5.193248 -0.170356
v -1.012026 5.731392 -0.172428
v -0.837262 4.295050 0.165003
v -2.119431 4.236528 0.735618
v -2.120311 4.265574 0.679605
v -2.072680 4.342074 0.745628
v -2.680290 4.809483 0.684916
v -2.090985 4.328234 0.682715
v -2.625067 4.865283 0.734648
v -2.661651 4.806641 0.778574
v -1.360632 5.826169 -0.690659
v -0.706286 5.407503 0.563978
v -0.848028 6.221922 -0.445921
v -0.382551 5.153382 -0.667849
v 0.389499 5.007873 -0.138085
v 0.309191 5.430093 -0.617061
v -0.113000 5.291288 -0.871604
v -1.048381 5.345316 -0.424792
v -0.916500 5.449430 -0.854940
v -0.606628 5.736226 -0.971451
v 0.202648 5.718476 -0.395245
v -0.155908 5.986401 -0.574722
v 0.177141 5.036707 0.280580
v 0.421329 5.340240 0.007350
v -1.577984 5.727646 -0.421026
v -1.506317 5.784400 0.090607
v -0.789649 6.008740 -0.773144
v -0.204772 5.766888 0.433148
v -0.409510 6.130340 0.240938
v -0.634207 5.653158 0.658077
v -1.261367 5.828899 0.383083
v -1.208378 6.174580 -0.145903
v -2.217937 4.525274 1.037432
v -2.605803 3.612478 0.608843
v -2.676142 3.851110 0.096755
v -2.720414 4.699612 0.120869
v -2.508669 4.558765 1.212367
v -3.083607 4.081047 0.242926
v -2.957317 4.638295 0.662259
v -2.142548 4.638092 0.303239
v -2.359103 5.144974 0.397206
v -2.216989 4.881465 0.178570
v -2.427948 3.874919 0.223399
v -2.469732 4.187928 -0.004424
v -2.147500 5.001443 0.938436
v -2.472023 5.143186 0.711782
v -2.378681 4.001904 0.867811
v -2.807600 3.575963 0.414226
v -3.108790 4.050212 0.885064
v -2.639479 3.929898 1.177104
v -2.789703 3.568135 0.842968
v -3.123396 3.807844 0.588170
v -0.016372 4.902084 -0.464833
v 0.344974 5.045648 -0.310549
v 0.519809 4.350626 -0.603230
v 0.885692 4.230111 -0.536074
v 0.379002 4.549973 -0.737713
v 0.164187 4.530535 -0.380562
v 0.983203 4.466787 -0.585889
v 0.800018 4.824889 -0.449006
v 0.779292 4.120507 -0.085491
v 1.006247 4.330384 -0.093569
v 0.597627 4.276302 0.255408
v -0.135780 4.857281 -0.280749
v 0.402466 4.837003 -0.691005
v 0.923056 4.563633 0.052239
v 0.593006 4.836426 0.073476
v 0.420128 4.517983 0.328940
v 0.011786 4.822567 0.175099
v 0.094990 5.040495 -0.076522
v 0.221327 2.169624 -0.078046
v 0.870530 3.134354 0.054747
v 0.299343 2.510854 -0.478455
v -0.020468 2.737375 0.429268
v 0.464951 2.409471 0.472288
v 0.005109 2.203408 0.452957
v 0.049614 2.483178 0.684361
v 0.395363 2.514998 0.676395
v 0.897960 2.907484 0.091732
v 0.312167 3.162330 0.212223
v -0.200020 2.422294 0.348216
v 0.620388 3.039162 0.440459
v -0.094419 2.211765 -0.027089
v 0.767879 3.215028 -0.354001
v -0.136707 2.481351 -0.004039
v 0.150002 3.069299 -0.171682
v 0.327238 2.779714 -0.592624
v 0.599750 3.065777 -0.589728
v 0.464332 3.313935 -0.134852
vt 0.000000 0.000000
vt 0.000000 0.000000
vt 0.000000 0.000000
vt 0.000000 0.000000
vt 0.000000 0.000000
vt 0.000000 0.000000
vt 0.000000 0.000000
vt 0.000000 0.000000
vt 0.000000 0.000000
vt 0.000000 0.000000
vt 0.000000 0.000000
vt 0.000000 0.000000
vt 0.000000 0.000000
vt 0.000000 0.000000
vt 0.000000 0.000000
vt 0.000000 0.000000
vt 0.000000 0.000000
vt 0.000000 0.000000
vt 0.000000 0.000000
vt 0.000000 0.000000
vt 0.000000 0.000000
vt 0.000000 0.000000
vt 0.000000 0.000000
vt 0.000000 0.000000
vt 0.000000 0.000000
vt 0.000000 0.000000
vt 0.000000 0.000000
vt 0.000000 0.000000
vt 0.000000 0.000000
vt 0.000000 0.000000
vt 0.000000 0.000000
vt 0.000000 0.000000
vt 0.000000 0.000000
vt 0.000000 0.000000
vt 0.000000 0.000000
vt 0.000000 0.000000
vt 0.000000 0.000000
vt 0.000000 0.000000
vt 0.000000 0.000000
vt 0.000000 0.000000
vt 0.000000 0.000000
vt 0.000000 0.000000
vt 0.000000 0.000000
vt 0.000000 0.000000
vt 0.000000 0.000000
vt 0.000000 0.000000
vt 0.000000 0.000000
vt 0.000000 0.000000
vt 0.000000 0.000000
vt 0.000000 0.000000
vt 0.000000 0.000000
vt 0.000000 0.000000
vt 0.000000 0.000000
vt 0.000000 0.000000
vt 0.000000 0.000000
vt 0.000000 0.000000
vt 0.000000 0.000000
vt 0.000000 0.000000
vt 0.272727 0.000000
vt 0.193222 0.111600
vt 0.318182 0.078731
vt 0.454545 0.000000
vt 0.409091 0.078731
vt 0.499999 0.078730
vt 0.684882 0.157461
vt 0.681818 0.236191
vt 0.772726 0.236191
vt 0.084354 0.285185
vt 0.255382 0.284878
vt 0.500714 0.157461
vt 0.500000 0.236191
vt 0.604638 0.259972
vt 0.505041 0.314921
vt 0.571022 0.428096
vt 0.500000 0.393651
vt 0.380798 0.344646
vt 0.318181 0.393651
vt 0.363636 0.472382
vt 0.200718 0.347658
vt 0.136363 0.393651
vt 0.181818 0.472382
vt 0.945522 0.378024
vt 0.854279 0.377446
vt 0.909090 0.472382
vt 0.386755 0.197505
vt 0.303025 0.209939
vt 0.982832 0.285185
vt 0.872192 0.221371
vt 0.703034 0.425792
vt 0.000000 0.157461
vt 0.818181 0.157461
vt 0.079688 0.019436
vt 0.628285 0.078730
vt 0.829402 0.019436
vt 0.772726 0.078731
vt 0.454545 0.000000
vt 0.409091 0.078731
vt 0.500000 0.078730
vt 0.935820 0.203759
vt 0.818181 0.157461
vt 0.879022 0.262841
vt 0.201441 0.118755
vt 0.034128 0.198422
vt 0.101381 0.296782
vt 0.379289 0.184573
vt 0.340810 0.275385
vt 0.698483 0.157461
vt 0.671775 0.253586
vt 0.765389 0.248900
vt 0.277625 0.323405
vt 1.000000 0.314921
vt 0.954545 0.393651
vt 0.557100 0.294749
vt 0.572082 0.426261
vt 0.479874 0.358793
vt 0.429216 0.358793
vt 0.363636 0.472382
vt 0.248401 0.323405
vt 0.163582 0.346507
vt 0.181818 0.472382
vt 0.829774 0.335002
vt 0.909090 0.472382
vt 0.806588 0.335002
vt 0.700644 0.426261
vt 0.498436 0.188054
vt 0.070348 0.035614
vt 0.638632 0.078731
vt 0.838742 0.035614
vt 0.772726 0.078731
vt 0.272727 0.000000
vt 0.259221 0.134068
vt 0.318182 0.078731
vt 0.454545 0.000000
vt 0.427900 0.111310
vt 0.499999 0.078730
vt 0.380782 0.187158
vt 0.337578 0.269786
vt 0.565721 0.192565
vt 0.502805 0.295721
vt 0.870862 0.314921
vt 0.674058 0.314921
vt 0.716368 0.423414
vt 0.409090 0.393651
vt 0.569668 0.430442
vt 0.500000 0.393651
vt 0.266123 0.342877
vt 0.363636 0.472382
vt 0.233843 0.342877
vt 0.113236 0.353593
vt 0.181818 0.472382
vt 0.977673 0.353593
vt 0.900406 0.457341
vt 0.222520 0.227959
vt 0.118472 0.205201
vt 0.933918 0.200464
vt 0.837588 0.191075
vt 0.740136 0.236191
vt 0.024827 0.200464
vt 0.688637 0.157461
vt 0.136363 0.078730
vt 0.075696 0.026350
vt 0.638377 0.078730
vt 0.833394 0.026350
vt 0.772727 0.078731
vt 0.272727 0.000000
vt 0.212645 0.089250
vt 0.318182 0.078731
vt 0.049235 0.236191
vt 0.234115 0.342313
vt 0.611498 0.271853
vt 0.494141 0.314921
vt 0.569370 0.430957
vt 0.500000 0.393651
vt 0.379388 0.342204
vt 0.297078 0.357098
vt 0.363636 0.472382
vt 0.116889 0.359920
vt 0.181818 0.472382
vt 0.974020 0.359920
vt 0.863635 0.393651
vt 0.909090 0.472382
vt 0.932043 0.275166
vt 0.795282 0.275258
vt 0.749445 0.353326
vt 0.703356 0.430957
vt 0.500826 0.178614
vt 0.382931 0.190882
vt 0.302087 0.208314
vt 0.880437 0.207090
vt 0.689682 0.178377
vt 0.000000 0.157461
vt 0.794464 0.116381
vt 0.464119 0.078731
vt 0.077874 0.022578
vt 0.590909 0.078731
vt 0.681818 0.078731
vt 0.636363 0.000000
vt 0.831216 0.022578
vn -0.0280 0.5839 0.8114
vn -0.7675 0.5938 0.2415
vn -0.0135 -0.9968 -0.0792
vn 0.3037 0.4680 0.8299
vn -0.4096 -0.0593 0.9103
vn 0.4624 0.1926 0.8655
vn -0.3042 0.0702 0.9500
vn 0.8960 -0.3719 -0.2425
vn 0.8257 -0.4703 0.3116
vn 0.0125 -0.1681 0.9857
vn -0.3229 -0.0219 0.9462
vn -0.8484 0.4225 -0.3189
vn -0.9318 -0.0550 0.3588
vn 0.1218 0.0052 0.9925
vn -0.2762 0.2483 -0.9285
vn 0.4057 -0.3356 -0.8501
vn 0.8588 -0.1505 0.4897
vn -0.9259 0.2386 -0.2928
vn 0.5230 -0.8511 0.0462
vn -0.6676 0.6654 0.3338
vn 0.4300 0.3737 -0.8219
vn -0.5903 0.4488 0.6709
vn 0.0754 -0.0029 0.9972
vn -0.6417 0.4726 -0.6041
vn 0.9157 0.3931 0.0834
vn -0.8300 -0.1582 0.5348
vn -0.5414 -0.4690 -0.6978
vn 0.2090 0.3977 0.8934
vn -0.9105 -0.3919 -0.1321
vn 0.7821 0.1080 -0.6137
vn 0.5600 -0.0769 -0.8249
vn -0.3962 0.1876 0.8988
vn -0.2921 -0.0394 -0.9556
vn 0.8161 -0.1426 -0.5600
vn -0.3887 0.1172 0.9139
vn -0.3677 0.2170 -0.9043
vn -0.0562 0.9784 -0.1989
vn 0.3170 -0.5104 0.7994
vn 0.3534 0.3431 0.8702
vn -0.1885 -0.8730 -0.4498
vn -0.6572 -0.6733 -0.3388
vn 0.3378 0.4175 -0.8435
vn -0.9382 -0.2077 -0.2769
vn -0.5288 0.0035 0.8487
vn -0.7726 0.6111 0.1723
vn 0.1050 -0.9930 0.0540
vn -0.4078 -0.4221 -0.8096
vn -0.1511 -0.1611 -0.9753
vn 0.9443 0.1316 -0.3017
vn 0.9157 0.2310 0.3288
vn 0.0698 -0.0022 -0.9976
vn 0.3776 -0.0339 -0.9254
vn -0.8560 0.3514 0.3791
vn -0.1056 0.2216 -0.9694
vn 0.3755 -0.0443 -0.9258
vn -0.5366 -0.0163 0.8437
vn 0.2935 0.0195 0.9558
vn -0.9925 -0.0352 -0.1167
vn -0.5378 -0.0340 -0.8424
vn 0.9132 0.0372 -0.4058
vn 0.8682 0.0390 0.4947
vn -0.4283 0.4361 0.7914
vn 0.8008 -0.3925 -0.4524
vn 0.2899 0.1973 0.9365
vn -0.3670 -0.4597 0.8087
vn -0.1209 -0.2213 -0.9677
vn -0.0051 0.3016 -0.9534
vn -0.1835 0.8823 -0.4335
vn -0.3451 0.8990 -0.2696
vn 0.6868 -0.1957 -0.7000
vn 0.5274 -0.8488 0.0378
vn -0.7174 0.4624 0.5211
vn 0.5613 0.1706 -0.8098
vn 0.3202 -0.1484 -0.9356
vn -0.6806 0.5006 0.5349
vn 0.8382 -0.5043 0.2077
vn 0.6702 -0.3571 -0.6507
vn -0.4388 -0.8712 0.2200
vn -0.5330 -0.7796 -0.3287
vn -0.4026 -0.4545 -0.7946
vn 0.5150 0.8251 0.2324
vn 0.0812 -0.1555 0.9845
vn 0.2939 0.1988 0.9349
vn -0.9264 0.1651 -0.3385
vn -0.7776 0.6281 0.0279
vn 0.7758 0.4742 0.4162
vn -0.2527 -0.4025 -0.8799
vn 0.9003 0.0188 0.4349
vn -0.6712 -0.6633 0.3311
vn -0.4684 -0.4074 -0.7840
vn -0.0974 0.9537 -0.2845
vn -0.3701 -0.0669 -0.9266
vn 0.3144 0.5191 0.7948
vn -0.1154 -0.9676 -0.2247
vn 0.1621 -0.8682 0.4690
vn 0.6505 0.6797 -0.3388
vn 0.3462 0.3780 0.8587
vn 0.0266 0.0371 -0.9990
vn 0.0836 -0.9290 0.3606
vn -0.3694 -0.8710 -0.3241
vn -0.1542 -0.7115 -0.6856
vn 0.9047 0.4134 -0.1030
vn -0.5238 -0.8195 0.2328
vn 0.2427 0.6721 -0.6996
vn 0.3094 0.9483 -0.0711
vn -0.0132 0.9900 0.1404
vn -0.2063 0.8284 0.5207
vn -0.5986 0.6967 0.3953
vn -0.1227 0.6853 0.7178
vn -0.4407 -0.2054 0.8738
vn 0.2619 0.5623 0.7843
vn 0.1898 0.8378 -0.5119
vn -0.4355 0.8087 -0.3955
vn -0.6543 0.7067 -0.2692
vn -0.7821 0.6218 0.0406
vn -0.6022 -0.5414 0.5867
vn 0.1300 -0.3877 0.9126
vn 0.4528 0.0508 0.8902
vn 0.6870 0.6021 0.4068
vn 0.7034 0.6673 0.2448
vn 0.5855 0.8097 0.0391
vn -0.3249 0.7649 -0.5563
vn -0.2656 0.4442 -0.8556
vn -0.5761 -0.7996 0.1694
vn -0.3333 -0.9267 0.1736
vn 0.6316 0.1724 0.7559
vn 0.8488 -0.2781 0.4497
vn 0.9837 -0.0159 -0.1790
vn 0.6681 0.5928 -0.4498
vn 0.4476 0.4337 -0.7820
vn -0.0789 -0.3008 -0.9504
vn -0.3493 -0.0032 -0.9370
vn -0.6146 -0.4386 -0.6557
vn -0.5495 -0.7577 -0.3519
vn -0.2642 -0.9637 0.0373
vn 0.4264 0.2801 -0.8601
vn -0.1722 -0.9849 -0.0195
vn 0.1290 -0.8921 -0.4331
vn 0.5524 -0.5772 -0.6014
vn 0.8134 -0.3550 0.4609
vn -0.1307 -0.9914 0.0098
vn 0.7279 -0.5854 -0.3570
vn 0.9704 0.0802 -0.2279
vn -0.7887 0.3134 0.5289
vn 0.7486 -0.4939 -0.4423
vn -0.6471 -0.2401 -0.7236
vn -0.7387 0.6564 0.1530
vn -0.6178 0.7831 0.0712
vn -0.4832 0.7000 -0.5258
vn -0.0750 0.8658 -0.4947
vn -0.5676 0.5470 -0.6153
vn -0.8180 0.2514 -0.5174
vn -0.7672 -0.0658 -0.6381
vn -0.9051 0.4148 -0.0931
vn -0.8712 0.4904 0.0237
vn 0.0521 0.9066 0.4188
vn 0.3670 0.9258 0.0905
vn 0.4195 -0.3913 -0.8191
vn -0.2030 -0.7254 -0.6577
vn 0.2262 0.9014 0.3692
vn 0.8565 -0.2728 -0.4382
vn -0.9710 -0.1354 -0.1972
vn -0.7557 -0.6385 0.1456
vn -0.7086 -0.3794 0.5949
vn -0.3306 0.6215 0.7102
vn -0.2920 0.6195 0.7287
vn 0.7728 -0.0469 0.6329
vn 0.8018 0.1893 0.5667
vn 0.7406 -0.6710 -0.0354
vn -0.0174 0.4166 0.9089
vn 0.3917 -0.8943 0.2164
vn 0.3310 -0.7874 0.5200
vn 0.0767 -0.6427 0.7623
vn 0.8254 -0.2560 -0.5032
vn 0.7528 -0.1028 -0.6502
vn 0.3445 -0.7753 -0.5293
vn -0.3795 0.0404 -0.9243
vn -0.6783 0.4066 0.6120
vn -0.6741 -0.5395 -0.5046
vn -0.9704 0.2399 -0.0265
vn -0.9942 0.1017 -0.0341
vn -0.7222 -0.5180 0.4584
vn -0.5883 -0.8086 0.0098
vn -0.5540 -0.4290 0.7135
vn -0.5164 0.0595 0.8543
vn -0.8432 0.4319 -0.3201
vn -0.5325 -0.5180 -0.6694
vn 0.6560 -0.6442 0.3933
vn 0.6533 -0.6420 0.4014
vn 0.4968 -0.1513 0.8546
vn 0.5214 0.0991 0.8475
vn -0.6154 0.5347 0.5792
vn -0.3648 -0.0556 -0.9294
vn 0.2025 -0.9789 -0.0263
vn 0.4722 -0.8146 -0.3368
vn 0.7441 -0.4016 0.5339
vn -0.2310 0.6413 0.7317
vn 0.3246 0.9380 0.1218
vn -0.6914 0.6866 -0.2248
vn -0.6763 0.6968 -0.2388
vn 0.0215 0.2477 -0.9686
vn 0.4327 -0.4921 -0.7554
vn 0.8521 -0.5220 0.0377
vn 0.9367 -0.3500 -0.0026
vn 0.9500 -0.3081 0.0502
vn -0.1232 0.5935 -0.7954
vn 0.9883 -0.1292 0.0816
vn 0.9649 0.2312 -0.1247
vn 0.8052 0.5700 -0.1636
vn -0.6004 -0.6931 -0.3988
vn -0.6837 -0.7063 0.1837
vn 0.4711 0.8660 0.1675
vn 0.2768 0.9076 0.3157
vn 0.0996 0.7356 0.6700
vn 0.1272 0.5777 0.8062
vn 0.4056 0.4278 0.8078
vn 0.4747 0.0820 0.8763
vn 0.6500 -0.2224 0.7266
vn 0.6285 0.7423 0.2326
vn 0.2861 0.8577 -0.4271
vn -0.2600 0.9307 -0.2572
vn -0.5342 0.8331 -0.1437
vn -0.7380 0.6114 0.2855
vn -0.6341 -0.6102 0.4750
vn 0.5674 -0.5916 0.5727
vn 0.9491 0.3122 0.0421
vn 0.8926 0.4506 0.0157
vn -0.1319 0.8606 -0.4919
vn -0.6986 -0.6942 0.1733
vn -0.5752 -0.8153 0.0661
vn 0.6785 -0.7344 -0.0184
vn 0.9017 -0.4039 -0.1541
vn 0.4580 0.5120 -0.7267
vn -0.4458 0.1792 -0.8770
vn -0.7305 -0.3812 -0.5666
vn -0.7194 -0.5196 -0.4610
vn -0.5086 -0.8521 -0.1238
vn 0.2589 0.1345 -0.9565
vn 0.1977 -0.2792 -0.9397
vn -0.0410 -0.5785 -0.8146
vn -0.2524 -0.9248 -0.2846
usemtl Branch_2
s off
f 37/1/1 15/2/1 43/3/1
f 21/4/2 20/5/2 51/6/2
f 26/7/3 27/8/3 22/9/3
f 18/10/4 20/5/4 21/4/4
f 32/11/5 17/12/5 16/13/5
f 29/14/6 25/15/6 24/16/6
f 30/17/7 25/15/7 29/14/7
f 10/18/8 1/19/8 2/20/8
f 10/18/9 29/14/9 1/19/9
f 11/21/10 29/14/10 10/18/10
f 11/21/11 30/17/11 29/14/11
f 13/22/12 28/23/12 30/17/12
f 13/22/13 11/21/13 32/11/13
f 14/24/14 17/12/14 34/25/14
f 15/2/15 12/26/15 43/3/15
f 36/27/16 3/28/16 38/29/16
f 36/27/17 14/24/17 35/30/17
f 38/29/18 12/26/18 15/2/18
f 10/18/19 2/20/19 4/31/19
f 41/32/20 34/25/20 11/21/20
f 5/33/21 33/34/21 31/35/21
f 42/36/22 6/37/22 41/32/22
f 41/32/23 40/38/23 42/36/23
f 6/37/24 5/33/24 39/39/24
f 18/10/25 7/40/25 49/41/25
f 44/42/26 19/43/26 20/5/26
f 23/44/27 19/43/27 45/45/27
f 47/46/28 20/5/28 18/10/28
f 44/42/29 45/45/29 19/43/29
f 49/41/30 7/40/30 46/47/30
f 46/47/31 7/40/31 23/44/31
f 44/42/32 20/5/32 47/46/32
f 48/48/33 46/47/33 45/45/33
f 48/48/34 49/41/34 46/47/34
f 50/49/35 44/42/35 47/46/35
f 56/50/36 51/6/36 53/51/36
f 54/52/37 51/6/37 56/50/37
f 8/53/38 18/10/38 9/54/38
f 54/52/39 9/54/39 21/4/39
f 53/51/40 8/53/40 52/55/40
f 55/56/41 53/51/41 52/55/41
f 57/57/42 56/50/42 55/56/42
f 27/8/43 26/7/43 30/17/43 28/23/43
f 30/17/44 26/7/44 25/15/44
f 57/57/45 55/56/45 58/58/45
f 22/9/46 24/16/46 26/7/46
f 16/13/47 12/26/47 32/11/47
f 28/23/48 22/9/48 27/8/48
f 22/9/49 1/19/49 24/16/49
f 29/14/50 24/16/50 1/19/50
f 33/34/51 2/20/51 12/26/51 3/28/51
f 28/23/52 1/19/52 22/9/52
f 11/21/53 13/22/53 30/17/53
f 13/22/54 2/20/54 28/23/54
f 2/20/55 1/19/55 28/23/55
f 17/12/56 32/11/56 11/21/56
f 17/12/57 11/21/57 34/25/57
f 32/11/58 12/26/58 13/22/58
f 12/26/59 2/20/59 13/22/59
f 31/35/60 33/34/60 3/28/60 35/30/60
f 31/35/61 35/30/61 14/24/61 34/25/61
f 15/2/62 37/1/62 36/27/62 38/29/62
f 36/27/63 35/30/63 3/28/63
f 36/27/64 37/1/64 14/24/64
f 10/18/65 40/38/65 41/32/65 11/21/65
f 38/29/66 3/28/66 12/26/66
f 43/3/67 12/26/67 23/44/67 7/40/67
f 39/39/68 5/33/68 31/35/68
f 39/39/69 31/35/69 34/25/69
f 4/31/70 2/20/70 33/34/70
f 4/31/71 40/38/71 10/18/71
f 41/32/72 39/39/72 34/25/72
f 4/31/73 33/34/73 5/33/73
f 6/37/74 4/31/74 5/33/74
f 41/32/75 6/37/75 39/39/75
f 42/36/76 40/38/76 4/31/76
f 6/37/77 42/36/77 4/31/77
f 8/53/78 16/13/78 17/12/78
f 8/53/79 23/44/79 16/13/79
f 23/44/80 12/26/80 16/13/80
f 37/1/81 43/3/81 7/40/81 18/10/81
f 14/24/82 18/10/82 8/53/82 17/12/82
f 18/10/83 14/24/83 37/1/83
f 45/45/84 44/42/84 50/49/84 48/48/84
f 19/43/85 51/6/85 20/5/85
f 47/46/86 18/10/86 49/41/86
f 45/45/87 46/47/87 23/44/87
f 49/41/88 48/48/88 50/49/88 47/46/88
f 52/55/89 9/54/89 58/58/89 55/56/89
f 23/44/90 51/6/90 19/43/90
f 54/52/91 21/4/91 51/6/91
f 53/51/92 51/6/92 23/44/92
f 21/4/93 9/54/93 18/10/93
f 53/51/94 23/44/94 8/53/94
f 52/55/95 8/53/95 9/54/95
f 56/50/96 57/57/96 54/52/96
f 9/54/97 54/52/97 57/57/97 58/58/97
f 55/56/98 56/50/98 53/51/98
f 25/15/99 26/7/99 24/16/99
usemtl leaves_2
f 62/59/100 66/60/100 67/61/100
f 62/62/101 67/63/101 65/64/101
f 64/65/102 69/66/102 72/67/102
f 66/60/103 60/68/103 74/69/103
f 68/70/104 75/71/104 70/72/104
f 70/72/105 61/73/105 77/74/105
f 77/74/106 61/73/106 80/75/106
f 80/76/107 79/77/107 77/78/107
f 80/76/108 74/69/108 79/77/108
f 79/79/109 78/80/109 77/81/109
f 79/79/110 60/68/110 78/80/110
f 78/82/111 76/83/111 77/84/111
f 70/72/112 75/71/112 61/73/112
f 59/85/113 80/76/113 61/73/113
f 59/85/114 73/86/114 80/76/114
f 73/86/115 74/69/115 80/76/115
f 74/69/116 60/68/116 79/79/116
f 60/87/117 71/88/117 78/82/117
f 71/88/118 76/83/118 78/82/118
f 72/67/119 77/89/119 76/83/119
f 72/67/120 69/66/120 77/89/120
f 69/66/121 70/72/121 77/89/121
f 75/71/122 59/85/122 61/73/122
f 75/71/123 68/70/123 59/85/123
f 73/86/124 66/60/124 74/69/124
f 66/60/125 71/90/125 60/68/125
f 71/88/126 72/67/126 76/83/126
f 71/88/127 63/91/127 72/67/127
f 63/91/128 64/65/128 72/67/128
f 69/66/129 64/65/129 70/72/129
f 64/65/130 68/70/130 70/72/130
f 65/64/131 67/63/131 68/70/131
f 67/63/132 59/85/132 68/70/132
f 67/61/133 73/86/133 59/85/133
f 67/61/134 66/60/134 73/86/134
f 62/92/135 71/90/135 66/60/135
f 64/65/136 65/93/136 68/70/136
f 62/94/137 63/91/137 71/88/137
f 62/94/138 65/95/138 63/91/138
f 65/95/139 64/65/139 63/91/139
f 123/96/140 127/97/140 126/98/140
f 119/99/141 124/100/141 131/101/141
f 127/102/142 119/103/142 121/104/142
f 120/105/143 127/102/143 132/106/143
f 125/107/144 122/108/144 129/109/144
f 127/102/145 121/104/145 136/110/145
f 121/111/146 131/101/146 135/112/146
f 122/108/147 128/113/147 134/114/147
f 134/114/148 128/113/148 137/115/148
f 137/116/149 136/110/149 134/117/149
f 137/116/150 132/106/150 136/110/150
f 136/118/151 135/119/151 134/120/151
f 135/112/152 133/121/152 134/122/152
f 135/112/153 131/101/153 133/121/153
f 133/123/154 129/109/154 134/124/154
f 129/109/155 122/108/155 134/124/155
f 130/125/156 137/115/156 128/113/156
f 120/105/157 132/106/157 137/115/157
f 136/110/158 121/104/158 135/119/158
f 119/99/159 131/101/159 121/111/159
f 130/125/160 120/105/160 137/115/160
f 132/106/161 127/102/161 136/110/161
f 131/101/162 129/109/162 133/121/162
f 131/101/163 124/100/163 129/109/163
f 124/100/164 125/107/164 129/109/164
f 122/108/165 125/107/165 128/113/165
f 125/107/166 130/125/166 128/113/166
f 126/98/167 127/97/167 130/125/167
f 127/97/168 120/105/168 130/125/168
f 127/102/169 123/126/169 119/103/169
f 125/107/170 126/127/170 130/125/170
f 123/128/171 124/100/171 119/99/171
f 123/128/172 126/129/172 124/100/172
f 126/129/173 125/107/173 124/100/173
usemtl Flower_3
f 88/130/174 91/131/174 92/132/174
f 88/133/175 92/134/175 90/135/175
f 83/136/176 91/131/176 96/137/176
f 84/138/177 92/134/177 86/139/177
f 85/140/178 87/141/178 97/142/178
f 86/139/179 96/137/179 100/143/179
f 87/141/180 86/139/180 97/144/180
f 97/144/181 86/139/181 100/145/181
f 100/143/182 99/146/182 97/147/182
f 100/143/183 96/137/183 99/146/183
f 99/148/184 98/149/184 97/150/184
f 98/151/185 85/140/185 97/152/185
f 84/138/186 86/139/186 87/141/186
f 83/136/187 96/137/187 86/139/187
f 82/153/188 95/154/188 99/146/188
f 95/154/189 98/149/189 99/146/189
f 81/155/190 85/140/190 98/151/190
f 81/155/191 93/156/191 85/140/191
f 94/157/192 87/141/192 85/140/192
f 86/139/193 92/134/193 83/136/193
f 96/137/194 82/153/194 99/146/194
f 96/137/195 91/131/195 82/153/195
f 95/154/196 81/158/196 98/149/196
f 93/156/197 94/157/197 85/140/197
f 93/156/198 89/159/198 94/157/198
f 94/157/199 84/138/199 87/141/199
f 94/157/200 89/159/200 84/138/200
f 90/135/201 92/134/201 84/138/201
f 92/132/202 91/131/202 83/136/202
f 91/160/203 95/154/203 82/153/203
f 91/160/204 88/161/204 95/154/204
f 88/161/205 81/158/205 95/154/205
f 89/159/206 90/162/206 84/138/206
f 88/163/207 93/156/207 81/155/207
f 88/163/208 90/164/208 93/156/208
f 90/164/209 89/159/209 93/156/209
f 103/165/210 106/166/210 105/167/210
f 106/166/211 111/168/211 117/169/211
f 108/170/212 102/171/212 115/172/212
f 115/172/213 102/171/213 118/173/213
f 118/174/214 117/175/214 115/176/214
f 117/169/215 116/177/215 115/178/215
f 116/179/216 114/180/216 115/181/216
f 116/179/217 111/182/217 114/180/217
f 111/182/218 110/183/218 114/180/218
f 114/184/219 108/170/219 115/185/219
f 108/170/220 113/186/220 102/171/220
f 101/187/221 118/174/221 102/171/221
f 101/187/222 112/188/222 118/174/222
f 112/188/223 117/169/223 118/174/223
f 111/168/224 116/177/224 117/169/224
f 109/189/225 110/183/225 111/182/225
f 110/183/226 107/190/226 114/184/226
f 107/190/227 108/170/227 114/184/227
f 113/186/228 101/187/228 102/171/228
f 112/188/229 106/166/229 117/169/229
f 106/166/230 109/191/230 111/168/230
f 109/189/231 104/192/231 110/183/231
f 104/192/232 107/190/232 110/183/232
f 107/190/233 113/186/233 108/170/233
f 105/193/234 101/187/234 113/186/234
f 105/167/235 112/188/235 101/187/235
f 105/167/236 106/166/236 112/188/236
f 103/194/237 109/191/237 106/166/237
f 107/190/238 105/195/238 113/186/238
f 107/190/239 104/196/239 105/195/239
f 104/196/240 103/197/240 105/195/240
f 103/198/241 104/192/241 109/189/241
